<?xml version="1.0" encoding="UTF-8"?>
<svg xmlns="http://www.w3.org/2000/svg" width="52" height="52" viewBox="0 0 52 52" fill="none">
  <path d="M24.8678 18.1738V29.4781L13.5634 18.1738H24.8678Z" fill="#FBFDFA"></path>
  <path d="M27.1322 18.1738V29.4781L38.4366 18.1738H27.1322Z" fill="#FBFDFA"></path>
  <path d="M40.6957 14.7828V26.0871L52 14.7828H40.6957Z" fill="#FBFDFA"></path>
  <path d="M11.3043 14.7828V26.0871L0 14.7828H11.3043Z" fill="#FBFDFA"></path>
  <path d="M26.0788 43.2042L34.0721 35.2109H18.0854L26.0788 43.2042Z" fill="#FBFDFA"></path>
  <path d="M26.0808 7.99982L18.0875 15.9932L34.0742 15.9932L26.0808 7.99982Z" fill="#FBFDFA"></path>
  <path d="M13.564 32.8696L13.564 21.5653L24.8683 32.8696H13.564Z" fill="#FBFDFA"></path>
  <path d="M38.436 32.8696L38.436 21.5653L27.1317 32.8696H38.436Z" fill="#FBFDFA"></path>
  <path d="M13.564 32.8696L13.564 21.5653L24.8683 32.8696H13.564Z" fill="#FBFDFA"></path>
  <path d="M38.436 32.8696L38.436 21.5653L27.1317 32.8696H38.436Z" fill="#FBFDFA"></path>
</svg>
