<?xml version="1.0" encoding="UTF-8"?>
<svg xmlns="http://www.w3.org/2000/svg" id="a" viewBox="0 0 617.32 639.83">
  <path d="M310.02,639.82c1.19-1.36,2.32-2.79,3.59-4.06,99.69-99.72,199.39-199.42,299.04-299.17,1.63-1.64,2.71-3.83,4.67-6.67H308.02v309.91h2Z"></path>
  <path d="M0,365.76c1-.84,2.08-1.61,3-2.53C97.38,268.86,191.75,174.49,286.11,80.11c.82-.82,1.61-1.68,3.25-3.41H0V365.76h0Z"></path>
  <path d="M615.78,310.3V3.77c-102.16,102.17-204.38,204.41-306.49,306.53h306.49Z"></path>
  <path d="M290.78,310.35V100.4c-69.8,69.81-140.17,140.2-209.91,209.95h209.91Z"></path>
  <path d="M404.46,573.56h210.34v-210.39c-69.94,69.96-140.3,140.33-210.34,210.39Z"></path>
  <path d="M288.78,539.59v-209.49H79.32c69.77,69.78,139.93,139.95,209.46,209.49h0Z"></path>
  <path d="M184.47,565.57h103.31c-34.41-34.42-68.96-68.97-103.31-103.33v103.33Z"></path>
  <path d="M596.93,0h-102.57V102.58c33.87-33.87,68.35-68.35,102.57-102.58Z"></path>
</svg>
