<svg xmlns="http://www.w3.org/2000/svg" width="272" height="200" viewBox="0 0 272 200" fill="none"><g clip-path="url(#clip0_764_239)"><rect width="272" height="200" fill="#EEF0ED"></rect><g style="mix-blend-mode:luminosity" opacity="0.06"><path d="M454.993 237.847H384.558V237.854L419.772 283.163H419.779L455 237.854L454.993 237.847Z" fill="#3B5276"></path><path d="M79.2452 174.001L139.861 251.991H139.875L200.484 174.001L200.477 173.995H79.252L79.2452 174.001Z" fill="#3B5276"></path><path d="M261.106 251.991L200.49 174.001L139.881 251.991H261.106Z" fill="url(#paint0_linear_764_239)" style="mix-blend-mode:multiply"></path><path d="M200.477 329.986H200.491H321.695L261.093 252.011L261.086 251.997L200.477 329.986Z" fill="#D0D9E0"></path><path d="M79.245 -137.996L18.6292 -60.0001H139.861L79.245 -137.996Z" fill="#333940"></path><path d="M200.47 329.987L200.477 329.986L139.868 251.997L79.2518 329.986L200.456 329.987H200.47Z" fill="#333940"></path><path d="M139.861 -60.0001L139.868 -60L200.484 -137.996L200.477 -138.003H79.252L79.245 -137.996L139.861 -60.0001Z" fill="#FFCA61"></path><path d="M261.113 251.991H382.331L321.722 174.001L261.113 251.991Z" fill="#FFCA61"></path><path d="M321.722 174.001L321.715 173.995L261.106 96.0054L200.49 173.995L200.477 173.995L200.484 174.001L261.099 251.991L139.875 251.991H139.861L79.2452 174.001L18.6357 251.991H18.6223L18.629 251.997L-41.9868 329.987H79.2381L79.2448 330L79.2518 329.986L139.868 251.997L200.476 329.987L261.086 251.997L261.092 252.011L261.106 251.997L261.113 251.991L321.722 174.001Z" fill="#E94B64"></path><path d="M200.477 173.995L200.49 173.995L261.106 95.999L261.1 95.9923H139.875L139.868 95.999L200.477 173.995Z" fill="#D0D9E0"></path><path d="M200.491 329.986H200.477L200.484 330L200.491 329.986Z" fill="#3B5276"></path><path d="M79.2386 173.995L79.2452 174.001L79.252 173.995H79.2386Z" fill="#3B5276"></path><path d="M-41.9933 330L-41.9868 329.987H-42L-41.9933 330Z" fill="#0D2333"></path><path d="M232.526 -155.443L199.451 -198L166.376 -155.443H232.526Z" fill="#3B5276"></path><path d="M200.491 -138.003H200.477L200.484 -137.996L200.491 -138.003Z" fill="#3B5276"></path><path d="M18.6292 -60.0001L18.6226 -60.0002L18.6294 -59.9934L18.6292 -60.0001Z" fill="#3B5276"></path><path d="M321.728 329.987H321.715L321.721 330L321.728 329.987Z" fill="#3B5276"></path><path d="M382.344 251.997L382.351 251.991L382.331 251.991L382.344 251.997Z" fill="#3B5276"></path><path d="M79.252 -138.003H79.2386L79.245 -137.996L79.252 -138.003Z" fill="#3B5276"></path><path d="M261.107 95.9923H261.1L261.106 95.999L261.107 95.9923Z" fill="#3B5276"></path><path d="M200.477 17.9957H79.2386L79.2454 18.0025L139.861 95.9917L139.868 95.999L139.875 95.9923L200.484 18.0025L200.491 17.9957H200.477Z" fill="#E94B64"></path><path d="M139.868 -59.9934L139.868 -60L139.861 -60.0001L139.868 -59.9934Z" fill="#3B5276"></path><path d="M139.868 -59.9934L139.861 -60.0001H18.6292L18.6294 -59.9934L79.2315 17.9823L139.841 -60.0002L200.45 17.989H79.2383L79.2386 17.9957H200.477L139.868 -59.9934Z" fill="#E94B64"></path><path d="M139.841 -60.0002L79.2322 17.9823L79.2255 17.989H200.45L139.841 -60.0002Z" fill="#333940"></path><path d="M79.2253 329.993H79.2388L139.841 252.017L139.828 252.004L139.834 251.997H18.6162L18.6094 252.004L79.2253 329.993Z" fill="url(#paint1_linear_764_239)"></path><path d="M321.695 173.988L261.086 95.9988L200.477 173.988H321.695Z" fill="url(#paint2_linear_764_239)" style="mix-blend-mode:multiply"></path><path d="M321.722 173.995H200.497L261.113 251.984L321.722 173.995Z" fill="url(#paint3_linear_764_239)"></path><path d="M219.136 9.38345L182.754 56.1998H255.524L219.136 9.38345Z" fill="#FFCA61"></path><path d="M139.84 251.991H261.112L248.101 268.738H152.48L139.84 251.991Z" fill="url(#paint4_linear_764_239)" style="mix-blend-mode:multiply"></path></g></g><defs><linearGradient id="paint0_linear_764_239" x1="-120.632" y1="-173.356" x2="534.334" y2="111.706" gradientUnits="userSpaceOnUse"><stop offset="0.37" stop-color="#393F46"></stop><stop offset="0.4" stop-color="#62676C"></stop><stop offset="0.43" stop-color="#888B90"></stop><stop offset="0.47" stop-color="#A8ABAE"></stop><stop offset="0.51" stop-color="#C4C5C7"></stop><stop offset="0.55" stop-color="#DADBDC"></stop><stop offset="0.6" stop-color="#EBEBEC"></stop><stop offset="0.67" stop-color="#F6F7F7"></stop><stop offset="0.75" stop-color="#FDFDFD"></stop><stop offset="1" stop-color="white"></stop></linearGradient><linearGradient id="paint1_linear_764_239" x1="206.5" y1="-198" x2="206.5" y2="330" gradientUnits="userSpaceOnUse"><stop stop-color="#3B5276"></stop><stop offset="0.02" stop-color="#4E5174"></stop><stop offset="0.07" stop-color="#725070"></stop><stop offset="0.13" stop-color="#924E6D"></stop><stop offset="0.19" stop-color="#AE4D6A"></stop><stop offset="0.27" stop-color="#C44D68"></stop><stop offset="0.35" stop-color="#D54C66"></stop><stop offset="0.45" stop-color="#E04B65"></stop><stop offset="0.6" stop-color="#E74B64"></stop><stop offset="1" stop-color="#E94B64"></stop></linearGradient><linearGradient id="paint2_linear_764_239" x1="-120.664" y1="-173.356" x2="534.327" y2="111.733" gradientUnits="userSpaceOnUse"><stop offset="0.37" stop-color="#3B5276"></stop><stop offset="0.4" stop-color="#647692"></stop><stop offset="0.43" stop-color="#8896AC"></stop><stop offset="0.47" stop-color="#A8B3C2"></stop><stop offset="0.51" stop-color="#C4CBD5"></stop><stop offset="0.55" stop-color="#DADEE5"></stop><stop offset="0.6" stop-color="#EBEDF1"></stop><stop offset="0.66" stop-color="#F6F7F9"></stop><stop offset="0.75" stop-color="#FDFDFE"></stop><stop offset="1" stop-color="white"></stop></linearGradient><linearGradient id="paint3_linear_764_239" x1="-42" y1="65.9772" x2="455" y2="65.9772" gradientUnits="userSpaceOnUse"><stop offset="0.03" stop-color="#3B5276"></stop><stop offset="0.1" stop-color="#394B66"></stop><stop offset="0.21" stop-color="#364355"></stop><stop offset="0.35" stop-color="#343D49"></stop><stop offset="0.53" stop-color="#333A42"></stop><stop offset="1" stop-color="#333940"></stop></linearGradient><linearGradient id="paint4_linear_764_239" x1="200.476" y1="273.313" x2="200.476" y2="250.329" gradientUnits="userSpaceOnUse"><stop stop-color="white"></stop><stop offset="1" stop-color="#231F20"></stop></linearGradient><clipPath id="clip0_764_239"><rect width="272" height="200" fill="white"></rect></clipPath></defs></svg>