<?xml version="1.0" encoding="UTF-8"?>
<svg xmlns="http://www.w3.org/2000/svg" id="a" viewBox="0 0 617.32 657.14">
  <path d="M307.3,657.14c-1.19-1.36-2.32-2.79-3.59-4.06C204.02,553.36,104.32,453.66,4.67,353.91c-1.63-1.64-2.71-3.83-4.67-6.67H309.3v309.91h-2Z"></path>
  <path d="M617.32,383.08c-1-.84-2.08-1.61-3-2.53-94.38-94.37-188.75-188.74-283.11-283.12-.82-.82-1.61-1.68-3.25-3.41h289.35V383.08Z"></path>
  <path d="M617.32,75.02h-78.81c1.57-1.91,2.36-3.04,3.33-4.01,22.81-22.84,45.59-45.71,68.55-68.39,1.61-1.59,4.59-1.78,6.94-2.62V75.02Z"></path>
  <path d="M617.32,637.14h-58.43c.9-1.44,1.25-2.31,1.86-2.92,18.43-18.46,36.88-36.89,55.34-55.32,.33-.33,.81-.52,1.22-.77v59.01Z"></path>
  <path d="M1.54,327.62V21.09C103.7,123.26,205.92,225.5,308.03,327.62H1.54Z"></path>
  <path d="M326.54,327.67V117.72c69.8,69.81,140.17,140.2,209.91,209.95h-209.91Z"></path>
  <path d="M212.86,590.88H2.52v-210.39c69.94,69.96,140.3,140.33,210.34,210.39Z"></path>
  <path d="M328.54,556.91v-209.49h209.46c-69.77,69.78-139.93,139.95-209.46,209.49Z"></path>
  <path d="M432.85,582.89h-103.31c34.41-34.42,68.96-68.97,103.31-103.33v103.33Z"></path>
  <path d="M20.39,17.32H122.96V119.9C89.09,86.03,54.61,51.55,20.39,17.32Z"></path>
</svg>
