<svg xmlns="http://www.w3.org/2000/svg" width="158" height="29" viewBox="0 0 158 29" fill="none"><path d="M52.3383 22.2419C52.3383 18.8994 54.3282 17.0937 59.4197 15.8686C62.571 15.118 63.5483 14.5515 63.5483 13.5034C63.5483 12.3421 62.5355 11.6622 60.8077 11.6622C59.8872 11.6076 58.9809 11.9085 58.2759 12.5028C57.5709 13.0971 57.1212 13.9395 57.0194 14.8559L52.0977 13.7654C52.6996 9.82107 56.226 7.19385 60.8077 7.19385C65.8071 7.19385 68.9589 10.0831 68.9589 14.7427V27.6592H64.1928V26.0871H64.1222C63.145 27.5034 61.2891 28.2115 58.8955 28.2115C54.9583 28.2115 52.3667 25.8463 52.3667 22.2419M63.782 20.9247V18.0355H63.7039C63.371 18.6374 62.5429 19.0836 60.7371 19.6076C58.3365 20.252 57.5076 20.8468 57.5076 21.902C57.5076 23.1058 58.3363 23.7077 59.9508 23.7077C62.2027 23.7077 63.782 22.5747 63.782 20.9247Z" fill="#1A1A1A"></path><path d="M71.791 7.7461H76.8967V9.50936H76.9741C77.6664 8.74966 78.5143 8.14825 79.4602 7.74618C80.4061 7.34411 81.4279 7.15082 82.4553 7.17955C86.8104 7.17955 89.7421 10.1821 89.7421 14.9196V27.6661H84.3744V15.8543C84.3744 13.4891 83.0929 12.1365 80.7631 12.1365C78.4333 12.1365 77.1581 13.5528 77.1581 15.8543V27.6449H71.791V7.7461Z" fill="#1A1A1A"></path><path d="M91.4346 21.2292L96.2007 19.9475C96.8381 22.6172 98.1906 23.814 100.747 23.814C102.624 23.814 103.75 23.2191 103.75 22.1994C103.75 20.6273 101.795 20.075 99.4296 19.3102C96.0517 18.3683 92.483 17.1858 92.483 13.1918C92.483 9.77152 95.6763 7.17969 99.9959 7.17969C104.011 7.17969 107.467 9.50949 108.409 13.036L103.678 14.4523C102.97 12.4978 101.681 11.556 99.9959 11.556C98.4168 11.556 97.4752 12.2642 97.4752 13.1352C97.4752 14.1478 98.9836 14.5515 101.016 15.1605C104.472 16.1377 108.714 17.4194 108.714 22.0365C108.714 25.7543 105.562 28.2328 100.719 28.2328C95.6483 28.2328 92.2702 25.7543 91.4062 21.2505" fill="#1A1A1A"></path><path d="M110.625 0.23291H115.993V9.50959H116.07C116.707 8.75093 117.507 8.14693 118.411 7.7433C119.315 7.33967 120.3 7.14694 121.289 7.17978C125.644 7.17978 128.576 10.1823 128.576 14.5374V27.6451H123.201V15.8545C123.201 13.4893 121.927 12.1368 119.597 12.1368C117.267 12.1368 115.993 13.5531 115.993 15.8545V27.6451H110.625V0.23291Z" fill="#1A1A1A"></path><path d="M136.799 7.74658H131.432V27.6524H136.799V7.74658Z" fill="#1A1A1A"></path><path d="M139.016 17.6956C139.016 11.4994 142.882 7.17969 148.405 7.17969C153.929 7.17969 157.76 11.4286 157.76 17.6956V19.2748H144.426C144.574 22.1073 146.076 23.7077 148.519 23.7077C150.473 23.7077 151.939 22.7659 153.327 20.7406L157.115 23.7077C155.203 26.7103 152.272 28.2115 148.519 28.2115C142.854 28.2115 139.016 24.0052 139.016 17.6956ZM152.534 15.4791C152.35 13.0785 150.884 11.6835 148.441 11.6835C147.928 11.6684 147.417 11.7547 146.937 11.9374C146.458 12.1201 146.018 12.3956 145.645 12.7482C145.272 13.1008 144.973 13.5235 144.764 13.9921C144.554 14.4608 144.439 14.9661 144.426 15.4791H152.534Z" fill="#1A1A1A"></path><path d="M136.806 5.60059V0.23291H131.432L136.806 5.60059Z" fill="#ADCA2F"></path><path d="M6.57106 7.93046L0 1.35889V27.6451H26.2856L19.7146 21.0736H6.57106V7.93046Z" fill="#1A1A1A"></path><path d="M19.7138 21.0738V7.93066H6.57031L19.7138 21.0738Z" fill="#ADCA2F"></path><path d="M41.631 22.6879H35.9658V16.2296H41.6738C43.8903 16.2296 45.0942 17.3556 45.0942 19.4233C45.0942 21.6398 44.0038 22.6879 41.6386 22.6879M35.9734 6.31563H41.0432C43.033 6.31563 44.124 7.29287 44.124 9.05614C44.124 10.8194 43.033 11.8391 41.0432 11.8391H35.9734V6.31563ZM46.978 13.3971V13.3263C47.8212 12.8182 48.5127 12.0941 48.9821 11.2288C49.4515 10.3635 49.6813 9.38848 49.6474 8.40466C49.6474 4.3116 46.3757 1.32324 41.8578 1.32324H30.4355V21.0379L37.0142 27.6095H40.6538C47.3741 27.6095 50.6459 24.9114 50.6459 19.4233C50.6954 18.1693 50.3764 16.9281 49.7283 15.8534C49.0801 14.7786 48.131 13.9172 46.9987 13.3758" fill="#1A1A1A"></path></svg>