<?xml version="1.0" encoding="UTF-8"?>
<svg xmlns="http://www.w3.org/2000/svg" width="184" height="33" viewBox="0 0 184 33" fill="none">
  <path d="M60.7481 25.5463C60.7481 21.6667 63.0578 19.5707 68.9676 18.1487C72.6253 17.2775 73.7596 16.6199 73.7596 15.4034C73.7596 14.0554 72.5841 13.2663 70.5786 13.2663C69.5102 13.2029 68.4583 13.5522 67.6399 14.242C66.8216 14.9318 66.2997 15.9096 66.1815 16.9733L60.4688 15.7076C61.1674 11.1293 65.2606 8.07984 70.5786 8.07984C76.3815 8.07984 80.0398 11.4334 80.0398 16.8419V31.8342H74.5077V30.0095H74.4259C73.2916 31.6534 71.1373 32.4753 68.3592 32.4753C63.7891 32.4753 60.781 29.73 60.781 25.5463M74.0309 24.0175V20.6639H73.9402C73.5539 21.3626 72.5927 21.8804 70.4967 22.4887C67.7103 23.2366 66.7482 23.9271 66.7482 25.1518C66.7482 26.5491 67.71 27.2477 69.5841 27.2477C72.1979 27.2477 74.0309 25.9326 74.0309 24.0175Z" fill="black"></path>
  <path d="M83.3281 8.72091H89.2544V10.7676H89.3443C90.1478 9.88577 91.132 9.1877 92.2299 8.72101C93.3278 8.25433 94.5138 8.02997 95.7063 8.06331C100.761 8.06331 104.164 11.5484 104.164 17.0473V31.8424H97.9338V18.1322C97.9338 15.3869 96.4464 13.817 93.7422 13.817C91.038 13.817 89.5578 15.4609 89.5578 18.1322V31.8177H83.3281V8.72091Z" fill="black"></path>
  <path d="M106.129 24.3709L111.661 22.8832C112.4 25.9819 113.97 27.371 116.938 27.371C119.116 27.371 120.423 26.6806 120.423 25.497C120.423 23.6722 118.154 23.0311 115.408 22.1434C111.488 21.0502 107.345 19.6776 107.345 15.0418C107.345 11.0718 111.052 8.06339 116.066 8.06339C120.726 8.06339 124.738 10.7676 125.831 14.8609L120.34 16.5048C119.518 14.2362 118.022 13.1431 116.066 13.1431C114.233 13.1431 113.14 13.965 113.14 14.976C113.14 16.1514 114.891 16.6199 117.25 17.3268C121.261 18.4611 126.185 19.9488 126.185 25.3079C126.185 29.6232 122.527 32.5 116.905 32.5C111.02 32.5 107.098 29.6232 106.096 24.3956" fill="black"></path>
  <path d="M128.404 0H134.635V10.7676H134.725C135.463 9.88698 136.392 9.18592 137.442 8.71742C138.491 8.24892 139.634 8.02522 140.783 8.06333C145.838 8.06333 149.24 11.5484 149.24 16.6034V31.8177H143.002V18.1322C143.002 15.3869 141.523 13.817 138.818 13.817C136.114 13.817 134.635 15.4609 134.635 18.1322V31.8177H128.404V0Z" fill="black"></path>
  <path d="M158.783 8.72098H152.553V31.826H158.783V8.72098Z" fill="black"></path>
  <path d="M161.357 20.2694C161.357 13.0773 165.845 8.06339 172.256 8.06339C178.668 8.06339 183.114 12.9951 183.114 20.2694V22.1023H167.637C167.809 25.3901 169.552 27.2477 172.388 27.2477C174.657 27.2477 176.358 26.1545 177.969 23.8038L182.366 27.2477C180.147 30.7328 176.744 32.4753 172.388 32.4753C165.812 32.4753 161.357 27.593 161.357 20.2694ZM177.048 17.6967C176.835 14.9103 175.133 13.291 172.297 13.291C171.702 13.2735 171.109 13.3736 170.552 13.5857C169.995 13.7978 169.486 14.1176 169.053 14.5269C168.62 14.9361 168.272 15.4268 168.029 15.9707C167.786 16.5146 167.653 17.1011 167.637 17.6967H177.048Z" fill="black"></path>
  <path d="M158.791 6.23045V9.91821e-05H152.553L158.791 6.23045Z" fill="black"></path>
  <path d="M7.62712 8.9347L0 1.30697V31.8178H30.5101L22.883 24.1901H7.62712V8.9347Z" fill="black"></path>
  <path d="M22.8828 24.1901V8.9347H7.62695L22.8828 24.1901Z" fill="#ADCA2F"></path>
  <path d="M48.3228 26.0641H41.7472V18.5679H48.3726C50.9453 18.5679 52.3427 19.8748 52.3427 22.2749C52.3427 24.8476 51.077 26.0641 48.3316 26.0641M41.756 7.06058H47.6405C49.9502 7.06058 51.2165 8.19487 51.2165 10.2415C51.2165 12.2882 49.9502 13.4718 47.6405 13.4718H41.756V7.06058ZM54.5292 15.2801V15.1979C55.5079 14.6082 56.3105 13.7677 56.8554 12.7634C57.4002 11.759 57.6669 10.6273 57.6275 9.48534C57.6275 4.73447 53.8301 1.26584 48.5861 1.26584H35.3281V24.1489L42.9641 31.7766H47.1886C54.9889 31.7766 58.7866 28.645 58.7866 22.2749C58.844 20.8192 58.4738 19.3787 57.7215 18.1312C56.9692 16.8837 55.8675 15.8839 54.5533 15.2554" fill="black"></path>
</svg>
