<?xml version="1.0" encoding="UTF-8"?>
<svg xmlns="http://www.w3.org/2000/svg" width="1440" height="880" viewBox="0 0 1440 880" fill="none">
  <g clip-path="url(#clip0_735_3340)">
    <rect width="1440" height="7444.23" fill="#FBFDFA"></rect>
    <g style="mix-blend-mode:luminosity" opacity="0.06">
      <path d="M916.01 80.6603H1023.13V80.6503L969.57 11.5303H969.56L916 80.6503L916.01 80.6603Z" fill="#333940"></path>
      <path d="M1431.67 116.36L1342.22 0.919922H1342.2L1252.75 116.36L1252.76 116.37H1431.66L1431.67 116.36Z" fill="#333940"></path>
      <path d="M1163.29 0.919922L1252.74 116.36L1342.18 0.919922H1163.29Z" fill="url(#paint0_linear_735_3340)" style="mix-blend-mode:multiply"></path>
      <path d="M1252.76 -114.53L1252.74 -114.53H1073.87L1163.3 0.889725L1163.32 0.909729L1252.76 -114.53Z" fill="#D0D9E0"></path>
      <path d="M1610.58 347.28L1610.59 347.27L1521.14 231.82L1521.12 231.82L1431.67 347.27L1431.68 347.28H1610.58Z" fill="#41AB8A"></path>
      <path d="M1252.75 -114.55L1252.76 -114.53L1252.78 -114.55L1163.33 -229.98H1163.3L1073.86 -114.55L1073.87 -114.53H1252.74L1252.75 -114.55Z" fill="url(#paint1_linear_735_3340)" style="mix-blend-mode:multiply"></path>
      <path d="M1342.22 231.82L1431.67 347.27L1521.12 231.82H1342.22Z" fill="#22445D"></path>
      <path d="M1520.91 231.81L1431.46 116.37H1431.44L1341.99 231.81L1342 231.82H1520.9L1520.91 231.81Z" fill="#E94B64"></path>
      <path d="M1521.13 462.73H1521.12L1431.67 578.17V578.18H1610.58L1610.59 578.17L1521.13 462.73Z" fill="url(#paint2_linear_735_3340)" style="mix-blend-mode:multiply"></path>
      <path d="M1521.13 693.63L1610.58 578.18H1431.67L1521.13 693.63Z" fill="#41AB8A"></path>
      <path d="M1431.68 116.37L1610.58 116.37L1610.59 116.36L1521.14 0.919922H1521.12L1431.67 116.36L1431.68 116.37Z" fill="#22445D"></path>
      <path d="M1521.14 231.82H1700.04L1700.05 231.81L1610.6 116.37L1610.58 116.37L1431.68 116.37L1521.13 231.81L1521.14 231.82Z" fill="url(#paint3_linear_735_3340)"></path>
      <path d="M1521.14 231.82L1610.59 347.27L1700.04 231.82H1521.14Z" fill="#22445D"></path>
      <path d="M1700.04 0.919922H1521.14L1610.59 116.36L1700.04 0.919922Z" fill="#162E41"></path>
      <path d="M1700.04 0.919922L1700.05 0.909729L1610.6 -114.53H1610.57L1521.13 0.909729L1521.14 0.919922H1700.04Z" fill="url(#paint4_linear_735_3340)"></path>
      <path d="M1431.68 -114.56L1521.11 -229.98H1342.25L1431.68 -114.56Z" fill="#22445D"></path>
      <path d="M1700.04 462.729L1700.05 462.719L1610.59 347.28L1610.59 347.27L1610.58 347.28H1431.68L1521.13 462.719V462.729H1700.04Z" fill="#0D2333"></path>
      <path d="M1610.59 578.17L1700.04 462.73H1521.13L1610.59 578.17Z" fill="#162E41"></path>
      <path d="M1431.68 -114.56L1342.25 -229.98H1163.33L1252.78 -114.55L1252.79 -114.53L1431.66 -114.53L1431.67 -114.55L1431.68 -114.53L1431.7 -114.55L1431.68 -114.56Z" fill="#D0D9E0"></path>
      <path d="M1252.76 -114.53L1342.21 0.909729L1431.66 -114.53L1252.79 -114.53H1252.76Z" fill="#333940"></path>
      <path d="M1342.22 462.73H1342.2L1252.75 578.17V578.18H1431.66L1431.67 578.17L1431.67 578.17L1342.39 462.95L1342.22 462.73Z" fill="#FFCA61"></path>
      <path d="M1163.28 0.919922H984.379L1073.83 116.36L1163.28 0.919922Z" fill="#E94B64"></path>
      <path d="M1073.83 116.36L1073.84 116.37L1163.29 231.81L1252.74 116.37L1252.76 116.37L1252.75 116.36L1163.3 0.920197L1342.2 0.919922H1342.22L1431.67 116.36L1521.12 0.919922H1521.14L1521.13 0.910202L1610.57 -114.53L1431.68 -114.53L1431.67 -114.55L1431.66 -114.53L1342.21 0.909729L1252.76 -114.53L1163.32 0.910202L1163.3 0.890198L1163.29 0.910202L1163.28 0.920197L1073.83 116.36Z" fill="url(#paint5_linear_735_3340)"></path>
      <path d="M1252.76 116.37L1252.74 116.37L1163.29 231.81L1163.3 231.82H1342.2L1342.21 231.81L1252.76 116.37Z" fill="#D0D9E0"></path>
      <path d="M1252.74 -114.53H1252.76L1252.75 -114.55L1252.74 -114.53Z" fill="#3B5276"></path>
      <path d="M1521.12 231.82L1521.14 231.82L1521.13 231.81L1521.12 231.82Z" fill="#0D2333"></path>
      <path d="M1431.68 116.37L1431.67 116.36L1431.66 116.37L1431.68 116.37Z" fill="#0D2333"></path>
      <path d="M1610.59 -114.55L1610.57 -114.53H1610.6L1610.59 -114.55Z" fill="#0D2333"></path>
      <path d="M1521.11 -229.98L1521.14 -229.98L1521.13 -230L1521.11 -229.98Z" fill="#0D2333"></path>
      <path d="M1700.06 0.920151L1700.05 0.909729L1700.04 0.919922L1700.06 0.920151Z" fill="#0D2333"></path>
      <path d="M1610.58 578.18L1610.59 578.18L1610.59 578.17L1610.58 578.18Z" fill="#0D2333"></path>
      <path d="M1153.94 364.88L1185.02 405L1216.1 364.88H1153.94Z" fill="#E94B64"></path>
      <path d="M1205.46 604L1254.27 667L1303.08 604H1205.46Z" fill="#D0D9E0"></path>
      <path d="M1610.59 116.36L1610.58 116.37L1610.6 116.37L1610.59 116.36Z" fill="#0D2333"></path>
      <path d="M1252.74 578.18L1252.75 578.18V578.17L1252.74 578.18Z" fill="#3B5276"></path>
      <path d="M1521.12 462.73H1521.13V462.72L1521.12 462.73Z" fill="#0D2333"></path>
      <path d="M1073.82 -114.53H1073.84L1073.83 -114.55L1073.82 -114.53Z" fill="#3B5276"></path>
      <path d="M984.369 0.910156L984.359 0.920151L984.379 0.919922L984.369 0.910156Z" fill="#3B5276"></path>
      <path d="M1073.82 116.37L1073.84 116.37L1073.83 116.36L1073.82 116.37Z" fill="#3B5276"></path>
      <path d="M1431.66 578.18H1431.67V578.17L1431.66 578.18Z" fill="#0D2333"></path>
      <path d="M1163.28 231.82L1163.3 231.82L1163.29 231.81L1163.28 231.82Z" fill="#3B5276"></path>
      <path d="M1431.66 347.28L1431.68 347.28L1431.67 347.27L1342.22 231.82L1342.21 231.81L1342.2 231.82L1252.75 347.27L1252.74 347.28H1431.66Z" fill="#3B5276"></path>
      <path d="M1342.21 462.72L1342.2 462.73L1342.22 462.73L1342.21 462.72Z" fill="#0D2333"></path>
      <path d="M1341.11 462.94V462.95H1342.39H1520.02L1520.03 462.94L1519.87 462.73L1430.59 347.51L1341.15 462.94L1251.7 347.5H1430.58H1251.65L1341.11 462.94Z" fill="#FFCA61"></path>
      <path d="M1342.25 462.72L1431.69 347.29L1431.7 347.28H1252.8L1342.25 462.72Z" fill="#333940"></path>
      <path d="M1431.7 -114.54H1431.68L1342.25 0.879974L1342.26 0.899963L1342.25 0.909973H1521.14L1521.15 0.899963L1431.7 -114.54Z" fill="url(#paint6_linear_735_3340)"></path>
      <path d="M1252.74 -114.54H1252.72L1163.28 0.879974L1163.3 0.899963L1163.29 0.910202L1342.18 0.909973L1342.19 0.899963L1252.74 -114.54Z" fill="url(#paint7_linear_735_3340)"></path>
      <path d="M1342.19 462.72H1342.17L1252.74 578.14L1252.75 578.16L1252.74 578.18L1431.63 578.18L1431.64 578.16L1342.19 462.72Z" fill="#E94B64"></path>
      <path d="M1520.63 231.82H1520.6L1431.17 347.24L1431.18 347.26L1431.17 347.28H1610.07L1610.08 347.26L1520.63 231.82Z" fill="url(#paint8_linear_735_3340)" style="mix-blend-mode:multiply"></path>
      <path d="M1073.86 116.38L1163.31 231.82L1252.76 116.38H1073.86Z" fill="url(#paint9_linear_735_3340)" style="mix-blend-mode:multiply"></path>
      <path d="M1073.83 116.37H1252.73L1163.28 0.929688L1073.83 116.37Z" fill="#FFCA61"></path>
      <path d="M1225.22 360.03L1278.91 290.73L1278.92 290.72H1171.52L1225.22 360.03Z" fill="#FFCA61"></path>
      <path fill-rule="evenodd" clip-rule="evenodd" d="M1431.67 578.17L1431.67 578.17L1342.39 462.95L1431.67 578.17ZM1519.87 462.73L1520.03 462.94L1520.02 462.95H1342.39L1342.22 462.73H1519.87Z" fill="#D0D9E0"></path>
    </g>
    <g style="mix-blend-mode:luminosity" opacity="0.06">
      <path d="M546.44 767.77H442.07V767.78L494.25 835.12H494.26L546.45 767.78L546.44 767.77Z" fill="#3B5276"></path>
      <path d="M-10.3398 672.88L79.4802 788.79H79.5002L169.31 672.88L169.3 672.87H-10.3298L-10.3398 672.88Z" fill="#3B5276"></path>
      <path d="M259.14 788.79L169.32 672.88L79.5098 788.79H259.14Z" fill="url(#paint10_linear_735_3340)" style="mix-blend-mode:multiply"></path>
      <path d="M169.301 904.71H169.321H348.921L259.121 788.82L259.111 788.8L169.301 904.71Z" fill="#D0D9E0"></path>
      <path d="M-10.3401 209.18L-100.16 325.1H79.4799L-10.3401 209.18Z" fill="#333940"></path>
      <path d="M169.29 904.71L169.301 904.71L79.4899 788.8L-10.3301 904.71L169.27 904.71H169.29Z" fill="#333940"></path>
      <path d="M79.4799 325.1L79.4901 325.1L169.31 209.18L169.3 209.17H-10.3298L-10.3401 209.18L79.4799 325.1Z" fill="#FFCA61"></path>
      <path d="M259.15 788.79H438.77L348.96 672.88L259.15 788.79Z" fill="#FFCA61"></path>
      <path d="M348.96 672.88L348.95 672.87L259.14 556.96L169.32 672.87L169.3 672.87L169.31 672.88L259.13 788.79L79.5002 788.79H79.4802L-10.3398 672.88L-100.15 788.79H-100.17L-100.16 788.8L-189.98 904.71H-10.3505L-10.3405 904.73L-10.3301 904.71L79.4899 788.8L169.3 904.71L259.11 788.8L259.12 788.82L259.14 788.8L259.15 788.79L348.96 672.88Z" fill="#E94B64"></path>
      <path d="M169.3 672.87L169.32 672.87L259.14 556.95L259.13 556.94H79.5002L79.4902 556.95L169.3 672.87Z" fill="#D0D9E0"></path>
      <path d="M169.321 904.71H169.301L169.311 904.73L169.321 904.71Z" fill="#3B5276"></path>
      <path d="M-10.3496 672.87L-10.3398 672.88L-10.3298 672.87H-10.3496Z" fill="#3B5276"></path>
      <path d="M-189.99 904.73L-189.98 904.71L-190 904.71L-189.99 904.73Z" fill="#0D2333"></path>
      <path d="M216.79 183.25L167.78 120L118.77 183.25H216.79Z" fill="#3B5276"></path>
      <path d="M169.321 209.17H169.3L169.31 209.18L169.321 209.17Z" fill="#3B5276"></path>
      <path d="M-100.16 325.1L-100.17 325.1L-100.16 325.11L-100.16 325.1Z" fill="#3B5276"></path>
      <path d="M348.969 904.71H348.949L348.959 904.73L348.969 904.71Z" fill="#3B5276"></path>
      <path d="M438.789 788.8L438.799 788.79L438.77 788.79L438.789 788.8Z" fill="#3B5276"></path>
      <path d="M-10.3298 209.17H-10.3496L-10.3401 209.18L-10.3298 209.17Z" fill="#3B5276"></path>
      <path d="M259.141 556.94H259.13L259.14 556.95L259.141 556.94Z" fill="#3B5276"></path>
      <path d="M169.3 441.02H-10.3496L-10.3396 441.03L79.4804 556.94L79.4902 556.95L79.5002 556.94L169.31 441.03L169.32 441.02H169.3Z" fill="#E94B64"></path>
      <path d="M79.4904 325.11L79.4901 325.1L79.4799 325.1L79.4904 325.11Z" fill="#3B5276"></path>
      <path d="M79.4904 325.11L79.4799 325.1H-100.16L-100.16 325.11L-10.3602 441L79.4499 325.1L169.26 441.01H-10.3502L-10.3496 441.02H169.3L79.4904 325.11Z" fill="#E94B64"></path>
      <path d="M79.4509 325.1L-10.3591 441L-10.3691 441.01H169.261L79.4509 325.1Z" fill="#333940"></path>
      <path d="M-10.3694 904.72H-10.3495L79.4506 788.83L79.4305 788.81L79.4406 788.8H-100.179L-100.189 788.81L-10.3694 904.72Z" fill="url(#paint11_linear_735_3340)"></path>
      <path d="M348.921 672.86L259.111 556.95L169.301 672.86H348.921Z" fill="url(#paint12_linear_735_3340)" style="mix-blend-mode:multiply"></path>
      <path d="M348.96 672.87H169.33L259.15 788.78L348.96 672.87Z" fill="url(#paint13_linear_735_3340)"></path>
      <path d="M196.949 428.22L143.039 497.8H250.869L196.949 428.22Z" fill="#FFCA61"></path>
      <path d="M79.4492 788.79H259.149L239.869 813.68H98.1792L79.4492 788.79Z" fill="url(#paint14_linear_735_3340)" style="mix-blend-mode:multiply"></path>
    </g>
  </g>
  <defs>
    <linearGradient id="paint0_linear_735_3340" x1="1824.14" y1="650.505" x2="759.179" y2="232.457" gradientUnits="userSpaceOnUse">
      <stop offset="0.37" stop-color="#3B5276"></stop>
      <stop offset="0.4" stop-color="#647692"></stop>
      <stop offset="0.43" stop-color="#8896AC"></stop>
      <stop offset="0.47" stop-color="#A8B3C2"></stop>
      <stop offset="0.51" stop-color="#C4CBD5"></stop>
      <stop offset="0.55" stop-color="#DADEE5"></stop>
      <stop offset="0.6" stop-color="#EBEDF1"></stop>
      <stop offset="0.66" stop-color="#F6F7F9"></stop>
      <stop offset="0.75" stop-color="#FDFDFE"></stop>
      <stop offset="1" stop-color="white"></stop>
    </linearGradient>
    <linearGradient id="paint1_linear_735_3340" x1="1532.48" y1="179.693" x2="841.768" y2="558.073" gradientUnits="userSpaceOnUse">
      <stop stop-color="white"></stop>
      <stop offset="1" stop-color="#1C1C1B"></stop>
    </linearGradient>
    <linearGradient id="paint2_linear_735_3340" x1="1532.48" y1="999.4" x2="841.805" y2="621.077" gradientUnits="userSpaceOnUse">
      <stop stop-color="white"></stop>
      <stop offset="0.26" stop-color="#FDFDFD"></stop>
      <stop offset="0.41" stop-color="#F5F5F5"></stop>
      <stop offset="0.52" stop-color="#E7E7E7"></stop>
      <stop offset="0.62" stop-color="#D4D4D4"></stop>
      <stop offset="0.7" stop-color="#BBBBBB"></stop>
      <stop offset="0.78" stop-color="#9C9C9C"></stop>
      <stop offset="0.86" stop-color="#787877"></stop>
      <stop offset="0.93" stop-color="#4E4E4D"></stop>
      <stop offset="1" stop-color="#1C1C1B"></stop>
    </linearGradient>
    <linearGradient id="paint3_linear_735_3340" x1="1700.06" y1="231.855" x2="916" y2="231.855" gradientUnits="userSpaceOnUse">
      <stop stop-color="#0D2333"></stop>
      <stop offset="0.14" stop-color="#0D2333"></stop>
      <stop offset="1" stop-color="#0D2333"></stop>
    </linearGradient>
    <linearGradient id="paint4_linear_735_3340" x1="1532.48" y1="179.773" x2="841.805" y2="558.096" gradientUnits="userSpaceOnUse">
      <stop stop-color="#0D2333"></stop>
      <stop offset="0.14" stop-color="#0D2333"></stop>
      <stop offset="1" stop-color="#0D2333"></stop>
    </linearGradient>
    <linearGradient id="paint5_linear_735_3340" x1="916" y1="231.815" x2="1700.07" y2="231.815" gradientUnits="userSpaceOnUse">
      <stop stop-color="#3B5276"></stop>
      <stop offset="0.14" stop-color="#3B5276"></stop>
      <stop offset="1" stop-color="#3B5276"></stop>
    </linearGradient>
    <linearGradient id="paint6_linear_735_3340" x1="1308.03" y1="693.63" x2="1308.03" y2="-230" gradientUnits="userSpaceOnUse">
      <stop stop-color="#0D2333"></stop>
      <stop offset="0.02" stop-color="#0F2738"></stop>
      <stop offset="0.13" stop-color="#183449"></stop>
      <stop offset="0.27" stop-color="#1E3D54"></stop>
      <stop offset="0.46" stop-color="#21435B"></stop>
      <stop offset="1" stop-color="#22445D"></stop>
    </linearGradient>
    <linearGradient id="paint7_linear_735_3340" x1="1308.05" y1="693.63" x2="1308.05" y2="-230" gradientUnits="userSpaceOnUse">
      <stop stop-color="#3B5276"></stop>
      <stop offset="0.02" stop-color="#4E5174"></stop>
      <stop offset="0.07" stop-color="#725070"></stop>
      <stop offset="0.13" stop-color="#924E6D"></stop>
      <stop offset="0.19" stop-color="#AE4D6A"></stop>
      <stop offset="0.27" stop-color="#C44D68"></stop>
      <stop offset="0.35" stop-color="#D54C66"></stop>
      <stop offset="0.45" stop-color="#E04B65"></stop>
      <stop offset="0.6" stop-color="#E74B64"></stop>
      <stop offset="1" stop-color="#E94B64"></stop>
    </linearGradient>
    <linearGradient id="paint8_linear_735_3340" x1="1308.01" y1="693.63" x2="1308.01" y2="-229.92" gradientUnits="userSpaceOnUse">
      <stop stop-color="#0D2333"></stop>
      <stop offset="0.04" stop-color="#394B58"></stop>
      <stop offset="0.08" stop-color="#62707B"></stop>
      <stop offset="0.13" stop-color="#88939B"></stop>
      <stop offset="0.19" stop-color="#A8B0B6"></stop>
      <stop offset="0.25" stop-color="#C4C9CD"></stop>
      <stop offset="0.31" stop-color="#DADDDF"></stop>
      <stop offset="0.39" stop-color="#EBECEE"></stop>
      <stop offset="0.49" stop-color="#F6F7F8"></stop>
      <stop offset="0.62" stop-color="#FDFDFD"></stop>
      <stop offset="1" stop-color="white"></stop>
    </linearGradient>
    <linearGradient id="paint9_linear_735_3340" x1="1824.13" y1="650.505" x2="759.216" y2="232.498" gradientUnits="userSpaceOnUse">
      <stop offset="0.37" stop-color="#3B5276"></stop>
      <stop offset="0.4" stop-color="#647692"></stop>
      <stop offset="0.43" stop-color="#8896AC"></stop>
      <stop offset="0.47" stop-color="#A8B3C2"></stop>
      <stop offset="0.51" stop-color="#C4CBD5"></stop>
      <stop offset="0.55" stop-color="#DADEE5"></stop>
      <stop offset="0.6" stop-color="#EBEDF1"></stop>
      <stop offset="0.66" stop-color="#F6F7F9"></stop>
      <stop offset="0.75" stop-color="#FDFDFE"></stop>
      <stop offset="1" stop-color="white"></stop>
    </linearGradient>
    <linearGradient id="paint10_linear_735_3340" x1="-306.517" y1="156.627" x2="664.93" y2="578.168" gradientUnits="userSpaceOnUse">
      <stop offset="0.37" stop-color="#393F46"></stop>
      <stop offset="0.4" stop-color="#62676C"></stop>
      <stop offset="0.43" stop-color="#888B90"></stop>
      <stop offset="0.47" stop-color="#A8ABAE"></stop>
      <stop offset="0.51" stop-color="#C4C5C7"></stop>
      <stop offset="0.55" stop-color="#DADBDC"></stop>
      <stop offset="0.6" stop-color="#EBEBEC"></stop>
      <stop offset="0.67" stop-color="#F6F7F7"></stop>
      <stop offset="0.75" stop-color="#FDFDFD"></stop>
      <stop offset="1" stop-color="white"></stop>
    </linearGradient>
    <linearGradient id="paint11_linear_735_3340" x1="178.225" y1="120" x2="178.225" y2="904.73" gradientUnits="userSpaceOnUse">
      <stop stop-color="#3B5276"></stop>
      <stop offset="0.02" stop-color="#4E5174"></stop>
      <stop offset="0.07" stop-color="#725070"></stop>
      <stop offset="0.13" stop-color="#924E6D"></stop>
      <stop offset="0.19" stop-color="#AE4D6A"></stop>
      <stop offset="0.27" stop-color="#C44D68"></stop>
      <stop offset="0.35" stop-color="#D54C66"></stop>
      <stop offset="0.45" stop-color="#E04B65"></stop>
      <stop offset="0.6" stop-color="#E74B64"></stop>
      <stop offset="1" stop-color="#E94B64"></stop>
    </linearGradient>
    <linearGradient id="paint12_linear_735_3340" x1="-306.564" y1="156.627" x2="664.919" y2="578.208" gradientUnits="userSpaceOnUse">
      <stop offset="0.37" stop-color="#3B5276"></stop>
      <stop offset="0.4" stop-color="#647692"></stop>
      <stop offset="0.43" stop-color="#8896AC"></stop>
      <stop offset="0.47" stop-color="#A8B3C2"></stop>
      <stop offset="0.51" stop-color="#C4CBD5"></stop>
      <stop offset="0.55" stop-color="#DADEE5"></stop>
      <stop offset="0.6" stop-color="#EBEDF1"></stop>
      <stop offset="0.66" stop-color="#F6F7F9"></stop>
      <stop offset="0.75" stop-color="#FDFDFE"></stop>
      <stop offset="1" stop-color="white"></stop>
    </linearGradient>
    <linearGradient id="paint13_linear_735_3340" x1="-190" y1="512.331" x2="546.45" y2="512.331" gradientUnits="userSpaceOnUse">
      <stop offset="0.03" stop-color="#3B5276"></stop>
      <stop offset="0.1" stop-color="#394B66"></stop>
      <stop offset="0.21" stop-color="#364355"></stop>
      <stop offset="0.35" stop-color="#343D49"></stop>
      <stop offset="0.53" stop-color="#333A42"></stop>
      <stop offset="1" stop-color="#333940"></stop>
    </linearGradient>
    <linearGradient id="paint14_linear_735_3340" x1="169.299" y1="820.48" x2="169.299" y2="786.32" gradientUnits="userSpaceOnUse">
      <stop stop-color="white"></stop>
      <stop offset="1" stop-color="#231F20"></stop>
    </linearGradient>
    <clipPath id="clip0_735_3340">
      <rect width="1440" height="7444.23" fill="white"></rect>
    </clipPath>
  </defs>
</svg>
