<svg xmlns="http://www.w3.org/2000/svg" width="173" height="89" viewBox="0 0 173 89" fill="none"><path d="M0 0H151.058L170.622 40.9672C171.579 42.9722 171.579 45.3024 170.622 47.3073L151.058 88.2746H0L19.5639 47.3073C20.5214 45.3024 20.5214 42.9722 19.564 40.9672L0 0Z" fill="#BEB099"></path><path fill-rule="evenodd" clip-rule="evenodd" d="M98.7896 17.5491C96.8471 15.6076 94.2562 14.4515 91.5138 14.3026C88.7714 14.1536 86.0705 15.0222 83.9291 16.7419C81.7877 18.4616 80.3564 20.9113 79.9099 23.6212C79.4633 26.3311 80.0328 29.1105 81.5092 31.4264L78.963 33.9691C78.7144 33.7723 78.4021 33.6736 78.0855 33.6918C77.7689 33.71 77.47 33.8438 77.2456 34.0678L70.4498 40.8565C70.3289 40.9774 70.2329 41.1209 70.1675 41.2788C70.102 41.4367 70.0684 41.606 70.0684 41.777C70.0684 41.9479 70.102 42.1172 70.1675 42.2751C70.2329 42.4331 70.3289 42.5766 70.4498 42.6974L73.6237 45.8714C73.7446 45.9923 73.8881 46.0882 74.046 46.1537C74.2039 46.2191 74.3732 46.2528 74.5442 46.2528C74.7151 46.2528 74.8844 46.2191 75.0424 46.1537C75.2003 46.0882 75.3438 45.9923 75.4646 45.8714L82.271 39.0932C82.495 38.8688 82.6288 38.5699 82.647 38.2533C82.6652 37.9367 82.5665 37.6244 82.3697 37.3758L84.9159 34.8295C87.2315 36.3119 90.0134 36.8859 92.7266 36.4412C95.4398 35.9966 97.8929 34.5646 99.6142 32.4206C101.335 30.2767 102.203 27.5721 102.051 24.8269C101.899 22.0817 100.737 19.4897 98.7896 17.5491ZM81.541 38.3562L74.7417 45.159C74.6909 45.209 74.6225 45.237 74.5512 45.237C74.48 45.237 74.4116 45.209 74.3608 45.159L71.1868 41.985C71.1617 41.9601 71.1417 41.9305 71.1281 41.8978C71.1144 41.8651 71.1074 41.83 71.1074 41.7946C71.1074 41.7592 71.1144 41.7241 71.1281 41.6914C71.1417 41.6588 71.1617 41.6291 71.1868 41.6042L77.9791 34.7978C78.0039 34.7723 78.0335 34.752 78.0662 34.7381C78.0989 34.7242 78.134 34.7169 78.1695 34.7167C78.2412 34.7179 78.3095 34.747 78.36 34.7978L81.5339 37.9718C81.5606 37.9963 81.5821 38.026 81.597 38.0591C81.6118 38.0922 81.6199 38.1279 81.6205 38.1642C81.6212 38.2005 81.6145 38.2365 81.6008 38.2701C81.5871 38.3037 81.5668 38.3342 81.541 38.3597V38.3562ZM81.6503 36.6281L79.7142 34.6885L82.1229 32.2798C82.6857 33.0084 83.34 33.6615 84.0696 34.223L81.6503 36.6281ZM98.0526 32.5831C96.398 34.2377 94.2208 35.2675 91.8921 35.4969C89.5634 35.7262 87.2271 35.1411 85.2815 33.8411C83.3358 32.541 81.9011 30.6066 81.2218 28.3674C80.5425 26.1281 80.6607 23.7226 81.5562 21.5608C82.4516 19.3989 84.069 17.6144 86.1327 16.5113C88.1963 15.4082 90.5787 15.0548 92.8737 15.5112C95.1687 15.9677 97.2345 17.2059 98.719 19.0147C100.204 20.8235 101.015 23.0911 101.015 25.4311C101.013 28.1133 99.9481 30.6854 98.0526 32.5831ZM97.3473 18.9915C96.0735 17.7188 94.451 16.8523 92.6849 16.5016C90.9187 16.1508 89.0883 16.3316 87.4249 17.021C85.7614 17.7104 84.3398 18.8775 83.3395 20.3748C82.3393 21.8721 81.8055 23.6323 81.8055 25.4329C81.8055 27.2335 82.3393 28.9937 83.3395 30.491C84.3398 31.9882 85.7614 33.1553 87.4249 33.8448C89.0883 34.5342 90.9187 34.7149 92.6849 34.3642C94.451 34.0134 96.0735 33.1469 97.3473 31.8742C99.0531 30.1645 100.011 27.848 100.011 25.4329C100.011 23.0177 99.0531 20.7012 97.3473 18.9915ZM96.6208 31.1407C95.4912 32.2699 94.0522 33.0389 92.4857 33.3503C90.9192 33.6617 89.2955 33.5017 87.82 32.8903C86.3444 32.279 85.0833 31.2439 84.196 29.9159C83.3087 28.5878 82.8351 27.0265 82.8351 25.4294C82.8351 23.8322 83.3087 22.2709 84.196 20.9428C85.0833 19.6148 86.3444 18.5797 87.82 17.9684C89.2955 17.3571 90.9192 17.197 92.4857 17.5084C94.0522 17.8199 95.4912 18.5888 96.6208 19.718C97.3739 20.4663 97.9716 21.3561 98.3794 22.3363C98.7873 23.3165 98.9972 24.3677 98.9972 25.4294C98.9972 26.491 98.7873 27.5422 98.3794 28.5224C97.9716 29.5026 97.3739 30.3924 96.6208 31.1407ZM96.8888 27.9668L91.8457 19.2313C91.7505 19.0674 91.614 18.9313 91.4496 18.8367C91.2853 18.742 91.099 18.6923 90.9094 18.6923C90.7198 18.6923 90.5335 18.742 90.3692 18.8367C90.2049 18.9313 90.0683 19.0674 89.9731 19.2313L84.9265 27.9668C84.8319 28.1313 84.7823 28.3179 84.7825 28.5077C84.7827 28.6975 84.8329 28.884 84.9279 29.0483C85.0229 29.2126 85.1595 29.3491 85.3239 29.444C85.4883 29.5389 85.6748 29.5889 85.8646 29.589H95.9543C96.1438 29.5883 96.3298 29.5378 96.4937 29.4427C96.6576 29.3475 96.7937 29.211 96.8883 29.0468C96.9829 28.8826 97.0328 28.6964 97.0328 28.5068C97.0329 28.3173 96.9833 28.1311 96.8888 27.9668ZM95.9966 28.5345C95.9929 28.5425 95.9869 28.5492 95.9793 28.5536C95.9718 28.5581 95.963 28.56 95.9543 28.5592H85.8646C85.8558 28.5606 85.8468 28.5589 85.8391 28.5544C85.8313 28.5499 85.8254 28.5429 85.8223 28.5345C85.8171 28.5273 85.8143 28.5187 85.8143 28.5099C85.8143 28.501 85.8171 28.4924 85.8223 28.4852L90.8653 19.7462C90.8685 19.7379 90.8744 19.7308 90.8821 19.7264C90.8898 19.7219 90.8988 19.7202 90.9077 19.7215C90.917 19.72 90.9265 19.7215 90.9348 19.726C90.9431 19.7305 90.9497 19.7376 90.9535 19.7462L95.9966 28.4852C96.0017 28.4924 96.0045 28.501 96.0045 28.5099C96.0045 28.5187 96.0017 28.5273 95.9966 28.5345ZM90.9077 22.3242C91.0445 22.3242 91.1759 22.3783 91.273 22.4748C91.3701 22.5712 91.4251 22.7022 91.4261 22.8391V25.5969C91.432 25.6683 91.423 25.7402 91.3997 25.808C91.3764 25.8758 91.3394 25.938 91.2908 25.9907C91.2423 26.0435 91.1833 26.0856 91.1177 26.1144C91.052 26.1431 90.9811 26.158 90.9094 26.158C90.8377 26.158 90.7668 26.1431 90.7012 26.1144C90.6356 26.0856 90.5766 26.0435 90.5281 25.9907C90.4795 25.938 90.4424 25.8758 90.4191 25.808C90.3958 25.7402 90.3869 25.6683 90.3928 25.5969V22.8391C90.3937 22.7028 90.4482 22.5724 90.5446 22.476C90.641 22.3796 90.7714 22.3251 90.9077 22.3242ZM91.352 27.0322C91.3527 27.123 91.3264 27.212 91.2765 27.2879C91.2265 27.3637 91.1552 27.423 91.0715 27.4583C90.9878 27.4935 90.8955 27.5031 90.8063 27.4858C90.7171 27.4685 90.6351 27.4251 90.5706 27.3612C90.5062 27.2972 90.4622 27.2155 90.4442 27.1265C90.4262 27.0374 90.4351 26.9451 90.4697 26.8611C90.5043 26.7771 90.563 26.7053 90.6385 26.6548C90.714 26.6043 90.8027 26.5773 90.8936 26.5773C91.0145 26.5773 91.1306 26.6251 91.2165 26.7103C91.3024 26.7955 91.3511 26.9112 91.352 27.0322Z" fill="white"></path><path d="M53.7524 67.7407V65.4527H55.6404V58.8287H53.7524V56.5407H60.2644V58.8287H58.3604V65.4527H60.2644V67.7407H53.7524ZM65.7954 67.9167C65.0594 67.9167 64.4034 67.7301 63.8274 67.3567C63.262 66.9727 62.814 66.4501 62.4834 65.7887C62.1527 65.1167 61.9874 64.3541 61.9874 63.5007C61.9874 62.6474 62.1527 61.8901 62.4834 61.2287C62.814 60.5567 63.2674 60.0287 63.8434 59.6447C64.4194 59.2607 65.0807 59.0687 65.8274 59.0687C66.2114 59.0687 66.5794 59.1274 66.9314 59.2447C67.2834 59.3621 67.6034 59.5221 67.8914 59.7247C68.1794 59.9274 68.414 60.1621 68.5954 60.4287C68.7767 60.6847 68.8834 60.9514 68.9154 61.2287L68.3074 61.3727V55.9007H70.8834V67.7407H68.4994L68.3554 65.8047L68.8674 65.8847C68.8354 66.1514 68.7287 66.4074 68.5474 66.6527C68.3767 66.8981 68.1527 67.1167 67.8754 67.3087C67.598 67.4901 67.278 67.6341 66.9154 67.7407C66.5634 67.8581 66.19 67.9167 65.7954 67.9167ZM66.4514 65.7887C66.846 65.7887 67.1874 65.6927 67.4754 65.5007C67.7634 65.3087 67.982 65.0421 68.1314 64.7007C68.2914 64.3594 68.3714 63.9594 68.3714 63.5007C68.3714 63.0314 68.2914 62.6261 68.1314 62.2847C67.982 61.9434 67.7634 61.6767 67.4754 61.4847C67.1874 61.2927 66.846 61.1967 66.4514 61.1967C66.0567 61.1967 65.7154 61.2927 65.4274 61.4847C65.15 61.6767 64.9314 61.9434 64.7714 62.2847C64.6114 62.6261 64.5314 63.0314 64.5314 63.5007C64.5314 63.9594 64.6114 64.3594 64.7714 64.7007C64.9314 65.0421 65.15 65.3087 65.4274 65.5007C65.7154 65.6927 66.0567 65.7887 66.4514 65.7887ZM77.0961 67.9007C76.1574 67.9007 75.3414 67.7141 74.6481 67.3407C73.9548 66.9567 73.4161 66.4394 73.0321 65.7887C72.6481 65.1274 72.4561 64.3754 72.4561 63.5327C72.4561 62.8821 72.5628 62.2847 72.7761 61.7407C72.9894 61.1967 73.2881 60.7274 73.6721 60.3327C74.0561 59.9274 74.5094 59.6181 75.0321 59.4047C75.5654 59.1807 76.1468 59.0687 76.7761 59.0687C77.3734 59.0687 77.9174 59.1754 78.4081 59.3887C78.9094 59.6021 79.3414 59.9007 79.7041 60.2847C80.0668 60.6687 80.3441 61.1221 80.5361 61.6447C80.7281 62.1674 80.8134 62.7381 80.7921 63.3567L80.7761 64.0447H74.0081L73.6401 62.6047H78.6961L78.4241 62.9087V62.5887C78.4028 62.3221 78.3174 62.0874 78.1681 61.8847C78.0294 61.6714 77.8428 61.5061 77.6081 61.3887C77.3734 61.2714 77.1068 61.2127 76.8081 61.2127C76.3921 61.2127 76.0348 61.2981 75.7361 61.4687C75.4481 61.6287 75.2294 61.8687 75.0801 62.1887C74.9308 62.4981 74.8561 62.8821 74.8561 63.3407C74.8561 63.8101 74.9521 64.2207 75.1441 64.5727C75.3468 64.9141 75.6348 65.1807 76.0081 65.3727C76.3921 65.5647 76.8454 65.6607 77.3681 65.6607C77.7308 65.6607 78.0508 65.6074 78.3281 65.5007C78.6161 65.3941 78.9254 65.2127 79.2561 64.9567L80.4561 66.6527C80.1254 66.9407 79.7734 67.1754 79.4001 67.3567C79.0268 67.5381 78.6428 67.6714 78.2481 67.7567C77.8641 67.8527 77.4801 67.9007 77.0961 67.9007ZM82.4231 67.7407V59.2447H84.8551L84.9351 60.9727L84.4231 61.1647C84.5404 60.7807 84.7484 60.4341 85.0471 60.1247C85.3564 59.8047 85.7244 59.5487 86.1511 59.3567C86.5778 59.1647 87.0258 59.0687 87.4951 59.0687C88.1351 59.0687 88.6738 59.2021 89.1111 59.4687C89.5484 59.7247 89.8791 60.1141 90.1031 60.6367C90.3271 61.1487 90.4391 61.7781 90.4391 62.5247V67.7407H87.8631V62.7327C87.8631 62.3914 87.8151 62.1087 87.7191 61.8847C87.6231 61.6607 87.4738 61.4954 87.2711 61.3887C87.0791 61.2714 86.8391 61.2181 86.5511 61.2287C86.3271 61.2287 86.1191 61.2661 85.9271 61.3407C85.7351 61.4047 85.5698 61.5061 85.4311 61.6447C85.2924 61.7727 85.1804 61.9221 85.0951 62.0927C85.0204 62.2634 84.9831 62.4501 84.9831 62.6527V67.7407H83.7191C83.4204 67.7407 83.1644 67.7407 82.9511 67.7407C82.7378 67.7407 82.5618 67.7407 82.4231 67.7407ZM93.2834 67.7407V57.1007H95.8434V67.7407H93.2834ZM91.7794 61.4847V59.2447H97.4914V61.4847H91.7794ZM99.0984 67.7407V59.2447H101.658V67.7407H99.0984ZM100.378 57.5647C99.8984 57.5647 99.5197 57.4527 99.2424 57.2287C98.9757 56.9941 98.8424 56.6634 98.8424 56.2367C98.8424 55.8527 98.981 55.5381 99.2584 55.2927C99.5357 55.0474 99.909 54.9247 100.378 54.9247C100.858 54.9247 101.232 55.0421 101.498 55.2767C101.765 55.5007 101.898 55.8207 101.898 56.2367C101.898 56.6314 101.76 56.9514 101.482 57.1967C101.216 57.4421 100.848 57.5647 100.378 57.5647ZM104.592 67.7407V58.8287C104.592 58.2741 104.709 57.7727 104.944 57.3247C105.189 56.8767 105.525 56.5247 105.952 56.2687C106.389 56.0021 106.896 55.8687 107.472 55.8687C107.877 55.8687 108.25 55.9274 108.592 56.0447C108.933 56.1621 109.237 56.3274 109.504 56.5407L108.768 58.4127C108.629 58.3381 108.496 58.2794 108.368 58.2367C108.24 58.1941 108.122 58.1727 108.016 58.1727C107.824 58.1727 107.664 58.2047 107.536 58.2687C107.408 58.3327 107.312 58.4341 107.248 58.5727C107.194 58.7007 107.168 58.8607 107.168 59.0527V67.7407H105.888C105.6 67.7407 105.344 67.7407 105.12 67.7407C104.906 67.7407 104.73 67.7407 104.592 67.7407ZM103.36 61.5967V59.4847H108.912V61.5967H103.36ZM111.417 71.4207L113.353 66.8607L113.385 68.1727L109.289 59.2447H112.185L113.977 63.5167C114.073 63.7301 114.164 63.9594 114.249 64.2047C114.334 64.4501 114.398 64.6847 114.441 64.9087L114.089 65.1167C114.153 64.9567 114.222 64.7594 114.297 64.5247C114.382 64.2794 114.473 64.0181 114.569 63.7407L116.137 59.2447H119.049L115.433 67.7407L113.961 71.4207H111.417Z" fill="#FBFDFA"></path></svg>