<svg xmlns="http://www.w3.org/2000/svg" width="173" height="89" viewBox="0 0 173 89" fill="none"><path d="M0.431641 0H151.489L171.053 40.9672C172.011 42.9722 172.011 45.3024 171.053 47.3073L151.489 88.2746H0.431641L19.9956 47.3073C20.953 45.3024 20.953 42.9722 19.9956 40.9672L0.431641 0Z" fill="#CA732F"></path><path d="M83.4316 40.0855H81.7956V40.9035H83.4316V40.0855Z" fill="white"></path><path d="M96.5196 22.0895H90.7936V20.4535C90.7936 19.8027 90.535 19.1785 90.0748 18.7183C89.6146 18.2581 88.9904 17.9995 88.3396 17.9995H76.8876C76.2368 17.9995 75.6126 18.2581 75.1524 18.7183C74.6921 19.1785 74.4336 19.8027 74.4336 20.4535V40.0855C74.4336 40.7364 74.6921 41.3605 75.1524 41.8208C75.6126 42.281 76.2368 42.5395 76.8876 42.5395H88.3396C88.9904 42.5395 89.6146 42.281 90.0748 41.8208C90.535 41.3605 90.7936 40.7364 90.7936 40.0855V37.6315H96.5196C97.062 37.6315 97.5821 37.4161 97.9656 37.0325C98.3491 36.649 98.5646 36.1289 98.5646 35.5865V24.1345C98.5646 23.5921 98.3491 23.072 97.9656 22.6885C97.5821 22.305 97.062 22.0895 96.5196 22.0895ZM76.8876 18.8175H88.3396C88.7735 18.8175 89.1896 18.9899 89.4964 19.2967C89.8032 19.6035 89.9756 20.0196 89.9756 20.4535H75.2516C75.2516 20.0196 75.424 19.6035 75.7308 19.2967C76.0376 18.9899 76.4537 18.8175 76.8876 18.8175ZM89.9756 40.0855C89.9756 40.5194 89.8032 40.9355 89.4964 41.2423C89.1896 41.5491 88.7735 41.7215 88.3396 41.7215H76.8876C76.4537 41.7215 76.0376 41.5491 75.7308 41.2423C75.424 40.9355 75.2516 40.5194 75.2516 40.0855V39.2675H89.9756V40.0855ZM89.9756 38.4495H75.2516V21.2715H89.9756V22.0895H84.2496C83.7072 22.0895 83.1871 22.305 82.8036 22.6885C82.42 23.072 82.2046 23.5921 82.2046 24.1345V27.93L79.906 28.6949C79.6605 28.7755 79.4468 28.9317 79.2953 29.141C79.1437 29.3503 79.0621 29.6021 79.0621 29.8605C79.0621 30.1189 79.1437 30.3707 79.2953 30.58C79.4468 30.7893 79.6605 30.9455 79.906 31.0262L82.2046 31.791V35.5865C82.2046 36.1289 82.42 36.649 82.8036 37.0325C83.1871 37.4161 83.7072 37.6315 84.2496 37.6315H89.9756V38.4495ZM97.7466 35.5865C97.7456 35.9116 97.616 36.2232 97.3861 36.4531C97.1562 36.683 96.8447 36.8125 96.5196 36.8135H84.2496C83.9245 36.8125 83.6129 36.683 83.383 36.4531C83.1531 36.2232 83.0236 35.9116 83.0226 35.5865V31.4965C83.022 31.411 82.9949 31.3277 82.9451 31.2582C82.8953 31.1886 82.8252 31.1361 82.7445 31.108L80.1637 30.2491C80.0819 30.2222 80.0106 30.1701 79.9601 30.1004C79.9096 30.0306 79.8824 29.9466 79.8824 29.8605C79.8824 29.7744 79.9096 29.6904 79.9601 29.6207C80.0106 29.5509 80.0819 29.4989 80.1637 29.472L82.7445 28.6131C82.8252 28.5849 82.8953 28.5324 82.9451 28.4629C82.9949 28.3933 83.022 28.3101 83.0226 28.2245V24.1345C83.0236 23.8094 83.1531 23.4979 83.383 23.268C83.6129 23.0381 83.9245 22.9085 84.2496 22.9075H96.5196C96.8447 22.9085 97.1562 23.0381 97.3861 23.268C97.616 23.4979 97.7456 23.8094 97.7466 24.1345V35.5865Z" fill="white"></path><path d="M76.8876 22.0895H76.0696V22.9075H76.8876V22.0895Z" fill="white"></path><path d="M78.5236 22.0895H77.7056V22.9075H78.5236V22.0895Z" fill="white"></path><path d="M80.1596 22.0895H79.3416V22.9075H80.1596V22.0895Z" fill="white"></path><path d="M90.3846 31.4965C90.1419 31.4965 89.9047 31.5685 89.7029 31.7033C89.5011 31.8381 89.3439 32.0298 89.251 32.254C89.1581 32.4782 89.1338 32.7249 89.1812 32.9629C89.2285 33.2009 89.3454 33.4195 89.517 33.5911C89.6886 33.7627 89.9072 33.8796 90.1452 33.9269C90.3832 33.9743 90.6299 33.95 90.8541 33.8571C91.0783 33.7642 91.27 33.607 91.4048 33.4052C91.5396 33.2034 91.6116 32.9662 91.6116 32.7235C91.6116 32.3981 91.4823 32.086 91.2522 31.8559C91.0221 31.6258 90.71 31.4965 90.3846 31.4965ZM90.3846 33.1325C90.3037 33.1325 90.2246 33.1085 90.1574 33.0636C90.0901 33.0186 90.0377 32.9548 90.0067 32.88C89.9758 32.8053 89.9677 32.7231 89.9834 32.6437C89.9992 32.5644 90.0382 32.4915 90.0954 32.4343C90.1526 32.3771 90.2255 32.3382 90.3048 32.3224C90.3841 32.3066 90.4664 32.3147 90.5411 32.3456C90.6158 32.3766 90.6797 32.429 90.7247 32.4963C90.7696 32.5635 90.7936 32.6426 90.7936 32.7235C90.7936 32.832 90.7505 32.936 90.6738 33.0127C90.5971 33.0894 90.4931 33.1325 90.3846 33.1325Z" fill="white"></path><path d="M90.3846 26.5885C90.0592 26.5885 89.7471 26.7178 89.517 26.9479C89.2869 27.178 89.1576 27.4901 89.1576 27.8155C89.1576 27.8441 89.365 30.6785 90.3846 30.6785C91.4042 30.6785 91.6116 27.8441 91.6116 27.8155C91.6116 27.4901 91.4823 27.178 91.2522 26.9479C91.0221 26.7178 90.71 26.5885 90.3846 26.5885ZM90.3846 29.6728C90.1639 29.0753 90.0263 28.4504 89.9756 27.8155C89.9756 27.707 90.0187 27.603 90.0954 27.5263C90.1721 27.4496 90.2761 27.4065 90.3846 27.4065C90.4931 27.4065 90.5971 27.4496 90.6738 27.5263C90.7505 27.603 90.7936 27.707 90.7936 27.8155C90.7429 28.4504 90.6053 29.0753 90.3846 29.6728Z" fill="white"></path><path d="M91.4664 24.8781C91.3616 24.6823 91.2056 24.5186 91.0151 24.4045C90.8246 24.2903 90.6067 24.2301 90.3846 24.2301C90.1625 24.2301 89.9446 24.2903 89.7541 24.4045C89.5636 24.5186 89.4076 24.6823 89.3028 24.8781L84.5359 33.7804C84.4359 33.9672 84.3859 34.1767 84.391 34.3885C84.396 34.6003 84.4557 34.8073 84.5645 34.9891C84.6732 35.171 84.8271 35.3216 85.0114 35.4263C85.1956 35.531 85.4038 35.5862 85.6157 35.5865H95.1535C95.3655 35.5862 95.5737 35.531 95.758 35.4263C95.9423 35.3216 96.0963 35.1709 96.205 34.989C96.3137 34.8071 96.3735 34.6001 96.3785 34.3882C96.3834 34.1763 96.3334 33.9668 96.2333 33.78L91.4664 24.8781ZM95.5045 34.5714C95.4683 34.6321 95.4169 34.6823 95.3553 34.7169C95.2938 34.7514 95.2242 34.7693 95.1535 34.7685H85.6157C85.545 34.7685 85.4755 34.7502 85.4139 34.7154C85.3524 34.6806 85.301 34.6304 85.2646 34.5697C85.2283 34.5091 85.2083 34.4401 85.2066 34.3694C85.2049 34.2987 85.2215 34.2288 85.2549 34.1665L90.0239 25.265C90.0588 25.1997 90.1108 25.145 90.1743 25.1069C90.2378 25.0688 90.3105 25.0487 90.3846 25.0487C90.4587 25.0487 90.5314 25.0688 90.5949 25.1069C90.6584 25.145 90.7104 25.1997 90.7453 25.265L95.5143 34.1661C95.5481 34.2283 95.5651 34.2984 95.5633 34.3692C95.5616 34.4401 95.5413 34.5092 95.5045 34.5697V34.5714Z" fill="white"></path><path d="M59.908 67.7407V56.5407H64.948C65.6627 56.5407 66.308 56.6954 66.884 57.0047C67.4707 57.3141 67.9293 57.7407 68.26 58.2847C68.5907 58.8181 68.756 59.4261 68.756 60.1087C68.756 60.8127 68.5907 61.4474 68.26 62.0127C67.9293 62.5674 67.476 63.0047 66.9 63.3247C66.324 63.6447 65.6733 63.8047 64.948 63.8047H62.5V67.7407H59.908ZM66.116 67.7407L63.268 62.6847L66.052 62.2847L69.22 67.7407H66.116ZM62.5 61.7247H64.708C64.9853 61.7247 65.2253 61.6661 65.428 61.5487C65.6413 61.4207 65.8013 61.2447 65.908 61.0207C66.0253 60.7967 66.084 60.5407 66.084 60.2527C66.084 59.9647 66.02 59.7141 65.892 59.5007C65.764 59.2767 65.5773 59.1061 65.332 58.9887C65.0973 58.8714 64.8093 58.8127 64.468 58.8127H62.5V61.7247ZM74.6059 67.9007C73.6672 67.9007 72.8512 67.7141 72.1579 67.3407C71.4645 66.9567 70.9259 66.4394 70.5419 65.7887C70.1579 65.1274 69.9659 64.3754 69.9659 63.5327C69.9659 62.8821 70.0725 62.2847 70.2859 61.7407C70.4992 61.1967 70.7979 60.7274 71.1819 60.3327C71.5659 59.9274 72.0192 59.6181 72.5419 59.4047C73.0752 59.1807 73.6565 59.0687 74.2859 59.0687C74.8832 59.0687 75.4272 59.1754 75.9179 59.3887C76.4192 59.6021 76.8512 59.9007 77.2139 60.2847C77.5765 60.6687 77.8539 61.1221 78.0459 61.6447C78.2379 62.1674 78.3232 62.7381 78.3019 63.3567L78.2859 64.0447H71.5179L71.1499 62.6047H76.2059L75.9339 62.9087V62.5887C75.9125 62.3221 75.8272 62.0874 75.6779 61.8847C75.5392 61.6714 75.3525 61.5061 75.1179 61.3887C74.8832 61.2714 74.6165 61.2127 74.3179 61.2127C73.9019 61.2127 73.5445 61.2981 73.2459 61.4687C72.9579 61.6287 72.7392 61.8687 72.5899 62.1887C72.4405 62.4981 72.3659 62.8821 72.3659 63.3407C72.3659 63.8101 72.4619 64.2207 72.6539 64.5727C72.8565 64.9141 73.1445 65.1807 73.5179 65.3727C73.9019 65.5647 74.3552 65.6607 74.8779 65.6607C75.2405 65.6607 75.5605 65.6074 75.8379 65.5007C76.1259 65.3941 76.4352 65.2127 76.7659 64.9567L77.9659 66.6527C77.6352 66.9407 77.2832 67.1754 76.9099 67.3567C76.5365 67.5381 76.1525 67.6714 75.7579 67.7567C75.3739 67.8527 74.9899 67.9007 74.6059 67.9007ZM79.9329 71.2607V59.2447H82.3649L82.4609 61.1487L81.9809 61.0047C82.0555 60.6527 82.2369 60.3327 82.5249 60.0447C82.8129 59.7567 83.1755 59.5274 83.6129 59.3567C84.0609 59.1754 84.5302 59.0847 85.0209 59.0847C85.7462 59.0847 86.3915 59.2767 86.9569 59.6607C87.5222 60.0341 87.9649 60.5514 88.2849 61.2127C88.6155 61.8634 88.7809 62.6207 88.7809 63.4847C88.7809 64.3381 88.6155 65.0954 88.2849 65.7567C87.9649 66.4181 87.5169 66.9407 86.9409 67.3247C86.3755 67.6981 85.7249 67.8847 84.9889 67.8847C84.5089 67.8847 84.0502 67.7941 83.6129 67.6127C83.1755 67.4314 82.8075 67.1861 82.5089 66.8767C82.2102 66.5674 82.0129 66.2314 81.9169 65.8687L82.5089 65.6447V71.2607H79.9329ZM84.3649 65.7247C84.7489 65.7247 85.0849 65.6341 85.3729 65.4527C85.6609 65.2607 85.8849 64.9994 86.0449 64.6687C86.2049 64.3381 86.2849 63.9434 86.2849 63.4847C86.2849 63.0367 86.2049 62.6474 86.0449 62.3167C85.8849 61.9754 85.6609 61.7141 85.3729 61.5327C85.0955 61.3407 84.7595 61.2447 84.3649 61.2447C83.9702 61.2447 83.6289 61.3354 83.3409 61.5167C83.0529 61.6981 82.8289 61.9594 82.6689 62.3007C82.5089 62.6421 82.4289 63.0367 82.4289 63.4847C82.4289 63.9434 82.5089 64.3381 82.6689 64.6687C82.8289 64.9994 83.0529 65.2607 83.3409 65.4527C83.6289 65.6341 83.9702 65.7247 84.3649 65.7247ZM94.4798 67.9007C93.5944 67.9007 92.8051 67.7087 92.1118 67.3247C91.4291 66.9407 90.8851 66.4181 90.4798 65.7567C90.0851 65.0954 89.8878 64.3381 89.8878 63.4847C89.8878 62.6314 90.0851 61.8741 90.4798 61.2127C90.8851 60.5514 91.4291 60.0287 92.1118 59.6447C92.8051 59.2607 93.5944 59.0687 94.4798 59.0687C95.3651 59.0687 96.1491 59.2607 96.8318 59.6447C97.5251 60.0287 98.0691 60.5514 98.4638 61.2127C98.8584 61.8741 99.0558 62.6314 99.0558 63.4847C99.0558 64.3381 98.8584 65.0954 98.4638 65.7567C98.0691 66.4181 97.5251 66.9407 96.8318 67.3247C96.1491 67.7087 95.3651 67.9007 94.4798 67.9007ZM94.4798 65.6927C94.8638 65.6927 95.2051 65.5967 95.5038 65.4047C95.8024 65.2127 96.0371 64.9514 96.2078 64.6207C96.3784 64.2901 96.4584 63.9114 96.4478 63.4847C96.4584 63.0581 96.3784 62.6794 96.2078 62.3487C96.0371 62.0074 95.8024 61.7407 95.5038 61.5487C95.2051 61.3567 94.8638 61.2607 94.4798 61.2607C94.0958 61.2607 93.7491 61.3567 93.4398 61.5487C93.1411 61.7407 92.9064 62.0074 92.7358 62.3487C92.5651 62.6794 92.4851 63.0581 92.4958 63.4847C92.4851 63.9114 92.5651 64.2901 92.7358 64.6207C92.9064 64.9514 93.1411 65.2127 93.4398 65.4047C93.7491 65.5967 94.0958 65.6927 94.4798 65.6927ZM100.73 67.7407V59.2447H103.162L103.274 62.0127L102.794 61.4847C102.922 61.0261 103.13 60.6154 103.418 60.2527C103.716 59.8901 104.063 59.6021 104.458 59.3887C104.852 59.1754 105.274 59.0687 105.722 59.0687C105.914 59.0687 106.09 59.0847 106.25 59.1167C106.42 59.1487 106.575 59.1861 106.714 59.2287L106.01 62.0607C105.892 61.9861 105.732 61.9274 105.53 61.8847C105.338 61.8314 105.135 61.8047 104.922 61.8047C104.687 61.8047 104.468 61.8474 104.266 61.9327C104.063 62.0074 103.892 62.1194 103.754 62.2687C103.615 62.4181 103.503 62.5941 103.418 62.7967C103.343 62.9994 103.306 63.2287 103.306 63.4847V67.7407H100.73ZM109.028 67.7407V57.1007H111.588V67.7407H109.028ZM107.524 61.4847V59.2447H113.236V61.4847H107.524Z" fill="#FBFDFA"></path></svg>