<svg xmlns="http://www.w3.org/2000/svg" width="437" height="283" viewBox="0 0 437 283" fill="none"><path d="M226.559 14.142L237.445 39.3378C238.589 41.9846 238.532 44.9962 237.289 47.5992L226.113 71.0045C246.435 72.7588 263.305 86.5386 269.584 105.197L297.179 108.949C298.807 109.171 300.448 108.677 301.684 107.596L323.906 88.1759L323.92 88.1636C309.756 44.5745 271.901 15.9771 226.559 14.142Z" fill="#ADCA2F"></path><path d="M224.313 74.7896L224.18 75.0688V78.8083C241.395 79.6377 255.911 90.7291 261.762 106.096L265.509 104.894C259.137 87.9814 243.215 75.7498 224.313 74.7896Z" fill="#ADCA2F"></path><path d="M263.095 110.188C264.034 113.697 264.543 117.382 264.543 121.187C264.543 134.664 258.253 146.663 248.457 154.436L250.945 157.732C261.64 149.197 268.501 136.059 268.501 121.312C268.501 117.111 267.936 113.043 266.893 109.171L266.452 109.111L263.095 110.188Z" fill="#E7BD41"></path><path d="M325.293 92.6843L304.523 110.835C302.353 112.733 299.467 113.598 296.61 113.21L270.881 109.713C271.757 113.438 272.235 117.318 272.235 121.311C272.235 137.769 264.36 152.384 252.176 161.605L257.826 189.319C258.155 190.928 259.161 192.316 260.59 193.125L285.825 207.451C322.261 180.46 337.43 136.013 325.293 92.6843Z" fill="#E7BD41"></path><path d="M247.463 160.258L244.954 156.934C238.358 161.158 230.523 163.618 222.11 163.618C213.805 163.618 206.064 161.223 199.523 157.099L196.918 160.608C204.143 165.214 212.715 167.894 221.918 167.894C231.352 167.893 240.126 165.08 247.463 160.258Z" fill="#6C7648"></path><path d="M258.465 196.866C255.957 195.441 254.187 193.004 253.611 190.179L248.324 164.246C240.598 169.042 231.488 171.82 221.725 171.82C211.211 171.82 201.448 168.605 193.363 163.107L168.396 176.326C166.945 177.095 165.898 178.453 165.522 180.051L158.93 208.137C196.266 235.224 244.083 235.91 281.953 210.201L258.465 196.866Z" fill="#6C7648"></path><path d="M179.689 121.187C179.689 117.709 180.117 114.333 180.905 111.099L176.778 109.811C175.844 113.49 175.344 117.342 175.344 121.312C175.344 136.292 182.423 149.611 193.409 158.132L196.013 154.624C186.081 146.858 179.689 134.772 179.689 121.187Z" fill="#CA732F"></path><path d="M171.237 121.312C171.237 116.426 171.944 111.71 173.238 107.242L170.332 104.545L152.584 88.0783C151.38 86.961 149.75 86.4194 148.12 86.5925L119.462 89.6225C106.068 132.774 119.975 177.475 155.199 205.297L161.356 179.068C162.014 176.261 163.854 173.876 166.403 172.526L189.581 160.256C178.376 150.99 171.237 136.985 171.237 121.312Z" fill="#CA732F"></path><path d="M221.458 70.8094L233.425 45.7475C234.133 44.2648 234.166 42.5512 233.514 41.0439L221.85 14.0469C175.558 14.0753 136.357 41.8195 120.941 85.1393L147.655 82.3155C150.525 82.01 153.381 82.9633 155.496 84.9254L174.746 102.786C182.104 84.1398 200.224 70.9233 221.458 70.8094Z" fill="#BEB099"></path><path d="M178.027 105.698L182.128 106.977C187.736 91.1987 202.41 79.7165 219.888 78.8139V74.7798C200.526 75.6115 184.231 88.2595 178.027 105.698Z" fill="#BEB099"></path><path d="M345.317 169.451L332.104 150.392C331.577 149.864 330.906 149.627 330.245 149.635C327.659 159.693 323.705 169.207 318.602 177.971C319.1 178.641 319.917 179.074 320.857 179.008L343.666 173.861C345.878 173.705 346.883 171.021 345.317 169.451Z" fill="#E7BD41"></path><path d="M112.973 151.108L99.7598 170.168C98.1932 171.737 99.1989 174.42 101.41 174.576L124.221 179.723C124.701 179.757 125.149 179.659 125.539 179.467C120.21 170.634 116.069 161.009 113.327 150.816C113.204 150.903 113.085 150.997 112.973 151.108Z" fill="#CA732F"></path><path d="M303.97 45.6961C304.145 45.4476 304.282 45.1637 304.363 44.8436L306.632 21.5706C307.179 19.4216 304.947 17.6257 302.964 18.6206L280.722 25.1869C280.357 25.37 280.075 25.6301 279.848 25.9233C288.786 31.3747 296.901 38.0457 303.97 45.6961Z" fill="#ADCA2F"></path><path d="M163.352 25.9582C163.122 25.6496 162.827 25.3773 162.448 25.1864L140.205 18.6201C138.223 17.6252 135.99 19.4211 136.537 21.5701L138.806 44.8431C138.894 45.1863 139.042 45.491 139.236 45.751C146.302 38.0937 154.415 31.4173 163.352 25.9582Z" fill="#BEB099"></path><path d="M206.43 232.82C206.469 232.96 206.517 233.099 206.582 233.236L219.729 252.573C220.684 254.575 223.549 254.527 224.436 252.494L237.329 233.215C237.399 233.053 237.446 232.889 237.482 232.726C232.299 233.463 227.004 233.853 221.62 233.853C216.468 233.853 211.399 233.496 206.43 232.82Z" fill="#6C7648"></path><path d="M164.973 141.162H164.363C164.189 140.55 163.945 139.96 163.633 139.403L164.065 138.971C164.259 138.777 164.366 138.519 164.366 138.245C164.366 137.97 164.259 137.712 164.065 137.518L162.368 135.821C161.967 135.42 161.315 135.42 160.915 135.821L160.483 136.252C159.926 135.941 159.337 135.696 158.724 135.523V134.913C158.724 134.347 158.263 133.886 157.696 133.886H156.877V128.439C156.877 126.205 150.984 125 145.439 125C139.894 125 134 126.205 134 128.439V140.202V140.204V146.084C134 148.318 139.893 149.524 145.438 149.524C146.666 149.524 147.871 149.468 149.024 149.36L150.624 150.96C150.818 151.154 151.076 151.261 151.35 151.261C151.625 151.261 151.883 151.154 152.077 150.96L152.509 150.528C153.066 150.84 153.655 151.084 154.268 151.257V151.868C154.268 152.434 154.729 152.895 155.295 152.895H157.696C158.263 152.895 158.723 152.434 158.723 151.868V151.258C159.336 151.084 159.926 150.84 160.483 150.528L160.915 150.96C161.108 151.154 161.366 151.261 161.641 151.261C161.916 151.261 162.174 151.154 162.367 150.96L164.065 149.262C164.259 149.068 164.366 148.81 164.366 148.536C164.366 148.261 164.259 148.003 164.065 147.809L163.633 147.377C163.945 146.82 164.189 146.231 164.362 145.618H164.973C165.539 145.618 166 145.157 166 144.591V142.19C166 141.624 165.54 141.162 164.973 141.162ZM145.438 125.762C152.053 125.762 156.115 127.321 156.115 128.439C156.115 129.557 152.053 131.117 145.438 131.117C138.824 131.117 134.762 129.557 134.762 128.439C134.762 127.321 138.824 125.762 145.438 125.762ZM134.762 129.74C136.529 131.137 141.09 131.878 145.438 131.878C149.786 131.878 154.348 131.137 156.115 129.74V133.886H155.295C154.729 133.886 154.268 134.347 154.268 134.913V135.523C153.655 135.697 153.066 135.941 152.509 136.253L152.077 135.821C151.883 135.627 151.625 135.52 151.35 135.52C151.076 135.52 150.817 135.627 150.624 135.821L149.683 136.761C148.339 136.918 146.912 136.998 145.439 136.998C142.518 136.998 139.778 136.685 137.721 136.116C135.54 135.512 134.762 134.793 134.762 134.32L134.762 129.74ZM134.762 135.622C136.529 137.019 141.09 137.76 145.438 137.76C146.479 137.76 147.496 137.72 148.48 137.643C148.587 137.652 148.694 137.661 148.801 137.671C148.687 137.839 148.625 138.037 148.625 138.245C148.625 138.52 148.732 138.778 148.926 138.972L149.358 139.403C149.046 139.96 148.802 140.55 148.628 141.163H148.018C147.452 141.163 146.991 141.624 146.991 142.19V142.849C146.479 142.869 145.958 142.88 145.438 142.88C142.518 142.88 139.777 142.567 137.721 141.998C135.612 141.415 134.816 140.723 134.765 140.251C134.763 140.238 134.763 140.224 134.762 140.211C134.762 140.208 134.762 140.205 134.762 140.203V135.622ZM148.926 147.809C148.732 148.003 148.625 148.261 148.625 148.536C148.625 148.568 148.627 148.599 148.63 148.63C147.6 148.717 146.528 148.761 145.438 148.761C142.518 148.761 139.777 148.448 137.721 147.879C135.539 147.276 134.762 146.556 134.762 146.084V141.503C136.529 142.9 141.09 143.641 145.438 143.641C145.958 143.641 146.478 143.631 146.991 143.611V144.591C146.991 145.157 147.452 145.618 148.018 145.618H148.628C148.802 146.231 149.046 146.82 149.358 147.377L148.926 147.809ZM165.238 144.591C165.238 144.737 165.119 144.856 164.973 144.856H164.069C163.893 144.856 163.74 144.977 163.699 145.147C163.52 145.885 163.227 146.589 162.831 147.241C162.739 147.391 162.763 147.584 162.887 147.708L163.527 148.348C163.576 148.398 163.604 148.464 163.604 148.536C163.604 148.607 163.576 148.674 163.527 148.724L161.829 150.421C161.779 150.471 161.712 150.499 161.641 150.499C161.569 150.499 161.503 150.471 161.453 150.421L160.813 149.782C160.689 149.658 160.496 149.634 160.346 149.726C159.695 150.123 158.991 150.414 158.252 150.594C158.081 150.636 157.961 150.789 157.961 150.964V151.868C157.961 152.014 157.842 152.133 157.696 152.133H155.295C155.149 152.133 155.03 152.014 155.03 151.868V150.964C155.03 150.788 154.909 150.635 154.739 150.594C154.001 150.414 153.297 150.122 152.645 149.726C152.584 149.688 152.515 149.67 152.447 149.67C152.349 149.67 152.251 149.708 152.178 149.782L151.538 150.422C151.488 150.472 151.421 150.499 151.35 150.499C151.278 150.499 151.212 150.471 151.162 150.422L149.464 148.724C149.414 148.674 149.387 148.608 149.387 148.536C149.387 148.465 149.415 148.398 149.464 148.348L150.104 147.709C150.228 147.584 150.251 147.391 150.16 147.241C149.763 146.59 149.471 145.886 149.292 145.147C149.25 144.976 149.097 144.856 148.922 144.856H148.018C147.872 144.856 147.752 144.737 147.752 144.591V142.19C147.752 142.044 147.871 141.925 148.018 141.925H148.922C149.098 141.925 149.25 141.804 149.292 141.634C149.471 140.895 149.763 140.191 150.16 139.54C150.251 139.39 150.228 139.197 150.104 139.073L149.464 138.433C149.414 138.383 149.387 138.317 149.387 138.245C149.387 138.174 149.415 138.107 149.464 138.057L151.162 136.359C151.212 136.31 151.278 136.282 151.35 136.282C151.421 136.282 151.488 136.31 151.538 136.359L152.178 136.999C152.302 137.124 152.495 137.147 152.645 137.055C153.296 136.659 154.001 136.367 154.739 136.187C154.909 136.146 155.029 135.993 155.029 135.817V134.913C155.029 134.827 155.072 134.75 155.136 134.702H156.496V134.648H157.696C157.842 134.648 157.961 134.767 157.961 134.913V135.817C157.961 135.993 158.082 136.146 158.252 136.187C158.991 136.366 159.695 136.658 160.346 137.055C160.496 137.146 160.689 137.123 160.813 136.999L161.453 136.359C161.556 136.256 161.725 136.256 161.828 136.359L163.526 138.057C163.576 138.107 163.603 138.174 163.603 138.245C163.603 138.317 163.576 138.383 163.526 138.433L162.886 139.073C162.762 139.197 162.739 139.39 162.83 139.54C163.227 140.191 163.519 140.896 163.698 141.634C163.74 141.805 163.893 141.925 164.068 141.925H164.973C165.119 141.925 165.238 142.044 165.238 142.19L165.238 144.591ZM156.496 137.727C153.373 137.727 150.832 140.268 150.832 143.39C150.832 146.513 153.373 149.054 156.496 149.054C159.618 149.054 162.159 146.513 162.159 143.39C162.159 140.268 159.618 137.727 156.496 137.727ZM156.496 148.291C153.793 148.291 151.594 146.093 151.594 143.39C151.594 140.688 153.793 138.489 156.496 138.489C159.198 138.489 161.397 140.688 161.397 143.39C161.397 146.093 159.198 148.291 156.496 148.291ZM158.646 145.766C158.696 145.874 158.692 145.997 158.64 146.099L158.12 147.215C158.056 147.354 157.918 147.435 157.775 147.435C157.721 147.435 157.666 147.423 157.614 147.4C157.423 147.311 157.341 147.084 157.429 146.894L157.53 146.677C157.235 146.756 156.931 146.796 156.629 146.796C155.725 146.796 154.827 146.449 154.157 145.779C153.388 145.011 153.026 143.951 153.164 142.871C153.191 142.662 153.382 142.515 153.59 142.541C153.799 142.568 153.947 142.759 153.92 142.968C153.812 143.811 154.095 144.64 154.696 145.24C155.411 145.955 156.459 146.199 157.396 145.924L157.011 145.745C156.82 145.656 156.738 145.43 156.827 145.239C156.915 145.049 157.142 144.966 157.333 145.055L158.462 145.58C158.466 145.583 158.471 145.585 158.475 145.587C158.48 145.59 158.485 145.592 158.489 145.595C158.496 145.598 158.502 145.602 158.507 145.606C158.512 145.609 158.517 145.612 158.521 145.615C158.527 145.619 158.533 145.623 158.538 145.628C158.542 145.631 158.546 145.635 158.551 145.638C158.556 145.643 158.561 145.647 158.566 145.652C158.57 145.656 158.574 145.66 158.578 145.664C158.583 145.669 158.587 145.675 158.592 145.68C158.595 145.684 158.599 145.689 158.603 145.693C158.607 145.699 158.61 145.704 158.614 145.709C158.616 145.713 158.619 145.716 158.622 145.72C158.623 145.722 158.624 145.724 158.625 145.726C158.628 145.73 158.63 145.734 158.633 145.739C158.637 145.746 158.641 145.753 158.644 145.76C158.645 145.762 158.646 145.765 158.647 145.767L158.646 145.766ZM159.086 140.85C160.107 141.872 160.393 143.441 159.795 144.757C159.731 144.897 159.593 144.98 159.448 144.98C159.395 144.98 159.341 144.969 159.29 144.946C159.099 144.859 159.014 144.633 159.101 144.441C159.568 143.414 159.346 142.187 158.547 141.388C157.64 140.481 156.246 140.35 155.197 140.993L155.616 141.067C155.823 141.104 155.961 141.301 155.925 141.508C155.892 141.693 155.732 141.823 155.55 141.823C155.528 141.823 155.506 141.821 155.484 141.817L154.257 141.602C154.238 141.599 154.22 141.593 154.202 141.587C154.199 141.586 154.196 141.585 154.192 141.584C154.171 141.577 154.151 141.567 154.133 141.556C154.13 141.555 154.128 141.554 154.126 141.552C154.106 141.54 154.087 141.526 154.07 141.511L154.067 141.508L154.065 141.506C154.048 141.491 154.032 141.473 154.018 141.454C154.017 141.452 154.015 141.451 154.014 141.449C154.001 141.43 153.989 141.41 153.979 141.39C153.978 141.388 153.977 141.386 153.977 141.384C153.967 141.364 153.96 141.342 153.954 141.319L153.953 141.316C153.948 141.293 153.945 141.271 153.943 141.248L153.943 141.243C153.942 141.221 153.943 141.199 153.946 141.177C153.947 141.174 153.947 141.171 153.948 141.168C153.948 141.165 153.948 141.163 153.949 141.161L154.164 139.934C154.201 139.727 154.398 139.589 154.605 139.625C154.812 139.662 154.951 139.859 154.914 140.066L154.874 140.299C156.207 139.526 157.946 139.71 159.086 140.85Z" fill="white"></path><path d="M291.998 159.086H290.362V159.904H291.998V159.086Z" fill="white"></path><path d="M305.086 141.09H299.36V139.454C299.36 138.803 299.101 138.179 298.641 137.719C298.181 137.259 297.557 137 296.906 137H285.454C284.803 137 284.179 137.259 283.719 137.719C283.259 138.179 283 138.803 283 139.454V159.086C283 159.737 283.259 160.361 283.719 160.821C284.179 161.281 284.803 161.54 285.454 161.54H296.906C297.557 161.54 298.181 161.281 298.641 160.821C299.101 160.361 299.36 159.737 299.36 159.086V156.632H305.086C305.628 156.632 306.149 156.417 306.532 156.033C306.916 155.65 307.131 155.129 307.131 154.587V143.135C307.131 142.593 306.916 142.072 306.532 141.689C306.149 141.305 305.628 141.09 305.086 141.09ZM285.454 137.818H296.906C297.34 137.818 297.756 137.99 298.063 138.297C298.37 138.604 298.542 139.02 298.542 139.454H283.818C283.818 139.02 283.99 138.604 284.297 138.297C284.604 137.99 285.02 137.818 285.454 137.818ZM298.542 159.086C298.542 159.52 298.37 159.936 298.063 160.243C297.756 160.55 297.34 160.722 296.906 160.722H285.454C285.02 160.722 284.604 160.55 284.297 160.243C283.99 159.936 283.818 159.52 283.818 159.086V158.268H298.542V159.086ZM298.542 157.45H283.818V140.272H298.542V141.09H292.816C292.274 141.09 291.753 141.305 291.37 141.689C290.986 142.072 290.771 142.593 290.771 143.135V146.931L288.472 147.695C288.227 147.776 288.013 147.932 287.862 148.141C287.71 148.351 287.629 148.603 287.629 148.861C287.629 149.119 287.71 149.371 287.862 149.581C288.013 149.79 288.227 149.946 288.472 150.027L290.771 150.791V154.587C290.771 155.129 290.986 155.65 291.37 156.033C291.753 156.417 292.274 156.632 292.816 156.632H298.542V157.45ZM306.313 154.587C306.312 154.912 306.182 155.224 305.953 155.454C305.723 155.683 305.411 155.813 305.086 155.814H292.816C292.491 155.813 292.179 155.683 291.949 155.454C291.72 155.224 291.59 154.912 291.589 154.587V150.497C291.588 150.411 291.561 150.328 291.512 150.259C291.462 150.189 291.392 150.137 291.311 150.108L288.73 149.25C288.648 149.223 288.577 149.171 288.527 149.101C288.476 149.031 288.449 148.947 288.449 148.861C288.449 148.775 288.476 148.691 288.527 148.621C288.577 148.551 288.648 148.499 288.73 148.472L291.311 147.614C291.392 147.585 291.462 147.533 291.512 147.463C291.561 147.394 291.588 147.311 291.589 147.225V143.135C291.59 142.81 291.72 142.498 291.949 142.268C292.179 142.039 292.491 141.909 292.816 141.908H305.086C305.411 141.909 305.723 142.039 305.953 142.268C306.182 142.498 306.312 142.81 306.313 143.135V154.587Z" fill="white"></path><path d="M285.454 141.09H284.636V141.908H285.454V141.09Z" fill="white"></path><path d="M287.09 141.09H286.272V141.908H287.09V141.09Z" fill="white"></path><path d="M288.726 141.09H287.908V141.908H288.726V141.09Z" fill="white"></path><path d="M298.951 150.497C298.708 150.497 298.471 150.569 298.269 150.704C298.068 150.839 297.91 151.03 297.817 151.254C297.725 151.479 297.7 151.725 297.748 151.963C297.795 152.201 297.912 152.42 298.083 152.592C298.255 152.763 298.474 152.88 298.712 152.927C298.95 152.975 299.196 152.95 299.421 152.858C299.645 152.765 299.836 152.607 299.971 152.406C300.106 152.204 300.178 151.967 300.178 151.724C300.178 151.399 300.049 151.086 299.819 150.856C299.589 150.626 299.276 150.497 298.951 150.497ZM298.951 152.133C298.87 152.133 298.791 152.109 298.724 152.064C298.657 152.019 298.604 151.955 298.573 151.881C298.542 151.806 298.534 151.724 298.55 151.644C298.566 151.565 298.605 151.492 298.662 151.435C298.719 151.378 298.792 151.339 298.871 151.323C298.951 151.307 299.033 151.315 299.108 151.346C299.182 151.377 299.246 151.43 299.291 151.497C299.336 151.564 299.36 151.643 299.36 151.724C299.36 151.832 299.317 151.937 299.24 152.013C299.164 152.09 299.059 152.133 298.951 152.133Z" fill="white"></path><path d="M298.951 145.589C298.626 145.589 298.313 145.718 298.083 145.948C297.853 146.178 297.724 146.491 297.724 146.816C297.724 146.845 297.931 149.679 298.951 149.679C299.971 149.679 300.178 146.845 300.178 146.816C300.178 146.491 300.049 146.178 299.819 145.948C299.589 145.718 299.276 145.589 298.951 145.589ZM298.951 148.673C298.73 148.076 298.593 147.451 298.542 146.816C298.542 146.708 298.585 146.603 298.662 146.527C298.738 146.45 298.843 146.407 298.951 146.407C299.059 146.407 299.164 146.45 299.24 146.527C299.317 146.603 299.36 146.708 299.36 146.816C299.309 147.451 299.172 148.076 298.951 148.673Z" fill="white"></path><path d="M300.033 143.879C299.928 143.683 299.772 143.519 299.582 143.405C299.391 143.291 299.173 143.231 298.951 143.231C298.729 143.231 298.511 143.291 298.32 143.405C298.13 143.519 297.974 143.683 297.869 143.879L293.102 152.781C293.002 152.968 292.952 153.177 292.957 153.389C292.962 153.601 293.022 153.808 293.131 153.99C293.24 154.171 293.394 154.322 293.578 154.427C293.762 154.531 293.97 154.587 294.182 154.587H303.72C303.932 154.587 304.14 154.532 304.324 154.427C304.509 154.322 304.663 154.171 304.771 153.99C304.88 153.808 304.94 153.601 304.945 153.389C304.95 153.177 304.9 152.967 304.8 152.78L300.033 143.879ZM304.071 153.572C304.035 153.633 303.983 153.683 303.922 153.717C303.86 153.752 303.791 153.77 303.72 153.769H294.182C294.111 153.769 294.042 153.751 293.98 153.716C293.919 153.681 293.867 153.631 293.831 153.57C293.795 153.51 293.775 153.441 293.773 153.37C293.771 153.299 293.788 153.229 293.821 153.167L298.59 144.265C298.625 144.2 298.677 144.146 298.741 144.107C298.804 144.069 298.877 144.049 298.951 144.049C299.025 144.049 299.098 144.069 299.161 144.107C299.225 144.146 299.277 144.2 299.312 144.265L304.081 153.167C304.115 153.229 304.131 153.299 304.13 153.37C304.128 153.441 304.108 153.51 304.071 153.57V153.572Z" fill="white"></path><path d="M218.015 197.624C218.299 197.624 218.512 197.411 218.512 197.128V195.851C219.008 195.638 219.363 195.142 219.363 194.574C219.363 193.83 218.76 193.227 218.015 193.227C217.271 193.227 216.668 193.83 216.668 194.574C216.668 195.142 217.022 195.638 217.519 195.851V197.128C217.519 197.376 217.732 197.624 218.015 197.624ZM217.661 194.539C217.661 194.326 217.838 194.184 218.015 194.184C218.228 194.184 218.37 194.362 218.37 194.539C218.37 194.752 218.193 194.894 218.015 194.894C217.838 194.929 217.661 194.752 217.661 194.539Z" fill="white"></path><path d="M225.852 193.901C225.214 193.901 224.646 194.326 224.434 194.894H222.483C222.59 194.504 222.696 194.078 222.732 193.652H223.795C224.079 193.652 224.292 193.44 224.292 193.156V191.17C224.859 190.957 225.285 190.39 225.285 189.752C225.285 188.936 224.611 188.262 223.795 188.262C222.98 188.262 222.306 188.936 222.306 189.752C222.306 190.39 222.732 190.957 223.299 191.17V192.66H222.838C222.838 192.411 222.873 192.163 222.873 191.915C222.873 191.631 222.661 191.418 222.412 191.418C222.129 191.418 221.81 191.383 221.526 191.312V191.099C221.526 190.106 221.171 189.149 220.498 188.44C219.824 187.73 218.937 187.305 217.98 187.305C216.029 187.305 214.434 189.007 214.434 191.099V191.312C214.15 191.348 213.902 191.383 213.618 191.383C213.334 191.383 213.157 191.631 213.157 191.879C213.157 192.128 213.157 192.376 213.193 192.624H212.696V191.135C213.263 190.922 213.689 190.355 213.689 189.716C213.689 188.901 213.015 188.227 212.2 188.227C211.384 188.227 210.71 188.901 210.71 189.716C210.71 190.39 211.136 190.957 211.739 191.135V193.121C211.739 193.404 211.951 193.617 212.235 193.617H213.299C213.37 194.043 213.441 194.433 213.547 194.858H211.597C211.384 194.291 210.817 193.865 210.178 193.865C209.363 193.865 208.689 194.539 208.689 195.355C208.689 196.17 209.363 196.844 210.178 196.844C210.817 196.844 211.384 196.418 211.597 195.851H213.866C214.008 196.241 214.185 196.631 214.398 197.021C214.398 197.057 214.434 197.057 214.434 197.092H212.2C211.916 197.092 211.703 197.305 211.703 197.589V198.901C211.1 199.113 210.675 199.681 210.675 200.319C210.675 201.135 211.349 201.808 212.164 201.808C212.98 201.808 213.654 201.135 213.654 200.319C213.654 199.681 213.228 199.113 212.661 198.901V198.085H215.001C215.746 199.149 216.668 200.071 217.696 200.745C217.909 200.887 218.122 200.816 218.263 200.745C219.327 200.035 220.214 199.149 220.958 198.085H223.299V198.901C222.732 199.113 222.306 199.681 222.306 200.319C222.306 201.135 222.98 201.808 223.795 201.808C224.611 201.808 225.285 201.135 225.285 200.319C225.285 199.681 224.859 199.113 224.292 198.901V197.589C224.292 197.305 224.079 197.092 223.795 197.092H221.561C221.561 197.057 221.597 197.057 221.597 197.021C221.81 196.631 221.987 196.241 222.129 195.851H224.398C224.611 196.454 225.178 196.879 225.817 196.879C226.632 196.879 227.306 196.206 227.306 195.39C227.377 194.574 226.703 193.901 225.852 193.901ZM224.363 189.716C224.363 190 224.15 190.213 223.866 190.213C223.583 190.213 223.37 190 223.37 189.716C223.37 189.433 223.583 189.22 223.866 189.22C224.15 189.22 224.363 189.468 224.363 189.716ZM212.164 189.22C212.448 189.22 212.661 189.433 212.661 189.716C212.661 190 212.448 190.213 212.164 190.213C211.88 190.213 211.668 190 211.668 189.716C211.668 189.433 211.916 189.22 212.164 189.22ZM210.675 195.39C210.675 195.674 210.462 195.887 210.178 195.887C209.895 195.887 209.682 195.674 209.682 195.39C209.682 195.106 209.895 194.894 210.178 194.894C210.462 194.894 210.675 195.106 210.675 195.39ZM211.668 200.355C211.668 200.071 211.88 199.858 212.164 199.858C212.448 199.858 212.661 200.071 212.661 200.355C212.661 200.638 212.448 200.851 212.164 200.851C211.88 200.851 211.668 200.638 211.668 200.355ZM223.866 200.851C223.583 200.851 223.37 200.638 223.37 200.355C223.37 200.071 223.583 199.858 223.866 199.858C224.15 199.858 224.363 200.071 224.363 200.355C224.363 200.638 224.115 200.851 223.866 200.851ZM218.015 199.752C215.71 198.085 214.292 195.355 214.15 192.34C214.54 192.305 216.419 191.986 218.015 191.028C219.717 192.092 221.597 192.34 221.88 192.34C221.774 195.355 220.356 198.085 218.015 199.752ZM217.98 188.298C218.654 188.298 219.292 188.582 219.753 189.113C220.249 189.645 220.498 190.319 220.498 191.064C219.717 190.816 218.973 190.461 218.263 190C218.086 189.894 217.873 189.894 217.696 190C216.987 190.461 216.242 190.816 215.427 191.064H215.391C215.427 189.539 216.597 188.298 217.98 188.298ZM225.852 195.887C225.568 195.887 225.356 195.674 225.356 195.39C225.356 195.106 225.568 194.894 225.852 194.894C226.136 194.894 226.349 195.106 226.349 195.39C226.349 195.674 226.136 195.887 225.852 195.887Z" fill="white"></path><path d="M233.76 203.759C233.547 203.404 233.228 203.191 232.873 203.191H231.632V187.163C231.632 185.957 230.639 185 229.469 185H206.561C205.356 185 204.398 185.993 204.398 187.163V203.191H203.122C202.767 203.191 202.448 203.404 202.235 203.759C201.951 204.255 201.88 205.071 202.271 205.709C202.271 205.745 202.306 205.78 202.341 205.78C204.646 208.227 204.788 208.227 205.037 208.227H230.994C231.242 208.227 231.349 208.227 233.689 205.78C233.724 205.745 233.724 205.745 233.76 205.709C234.115 205.071 234.044 204.255 233.76 203.759ZM205.391 187.163C205.391 186.525 205.923 185.993 206.561 185.993H229.505C230.143 185.993 230.675 186.525 230.675 187.163V203.191H205.391V187.163ZM220.852 204.184V204.645C220.852 204.965 220.604 205.213 220.285 205.213H215.71C215.391 205.213 215.143 204.965 215.143 204.645V204.184H220.852ZM232.909 205.106C232.093 205.993 231.171 206.95 230.852 207.199H205.178C204.859 206.915 203.937 205.957 203.122 205.106C202.944 204.787 203.051 204.291 203.157 204.149H214.15V204.61C214.15 205.461 214.859 206.17 215.71 206.17H220.285C221.136 206.17 221.845 205.461 221.845 204.61V204.149H232.838C232.98 204.291 233.086 204.787 232.909 205.106Z" fill="white"></path><path d="M271.333 78C271.251 78.0009 271.169 77.9826 271.095 77.9466L268.908 76.8533C265.622 75.2241 262.859 72.7066 260.93 69.5865C259.002 66.4663 257.987 62.8684 258 59.2006V50.8001C258 50.6881 258.035 50.579 258.101 50.4881C258.166 50.3973 258.259 50.3294 258.365 50.294L271.165 46.0273C271.274 45.9909 271.393 45.9909 271.502 46.0273L284.302 50.294C284.408 50.3294 284.501 50.3973 284.566 50.4881C284.631 50.579 284.667 50.6881 284.667 50.8001V59.2006C284.679 62.8679 283.664 66.4653 281.736 69.5849C279.808 72.7046 277.044 75.2216 273.758 76.8506L271.572 77.944C271.498 77.9809 271.416 78 271.333 78ZM259.067 51.1846V59.2006C259.056 62.6692 260.016 66.0717 261.84 69.0221C263.664 71.9726 266.278 74.3531 269.386 75.8938L271.333 76.8704L273.281 75.8965C276.389 74.3557 279.004 71.9747 280.827 69.0237C282.651 66.0727 283.612 62.6697 283.6 59.2006V51.1846L271.333 47.0956L259.067 51.1846Z" fill="white"></path><path d="M271.333 74.4224C271.251 74.4225 271.169 74.4033 271.095 74.3664L270.339 73.9883C267.586 72.6235 265.271 70.5147 263.656 67.901C262.04 65.2872 261.19 62.2732 261.2 59.2006V53.1068C261.2 52.9948 261.235 52.8856 261.301 52.7948C261.366 52.7039 261.459 52.636 261.565 52.6006L271.165 49.4006C271.274 49.3642 271.393 49.3642 271.502 49.4006L281.102 52.6006C281.208 52.636 281.301 52.7039 281.366 52.7948C281.431 52.8856 281.467 52.9948 281.467 53.1068V59.2006C281.477 62.2733 280.626 65.2874 279.011 67.9011C277.396 70.5148 275.08 72.6236 272.327 73.9883L271.572 74.3664C271.498 74.4033 271.416 74.4225 271.333 74.4224ZM262.267 53.4908V59.2006C262.257 62.075 263.053 64.8945 264.564 67.3396C266.075 69.7847 268.241 71.7574 270.817 73.0341L271.333 73.2928L271.85 73.0341C274.425 71.7575 276.592 69.7847 278.103 67.3396C279.614 64.8946 280.41 62.075 280.4 59.2006V53.4908L271.333 50.4689L262.267 53.4908Z" fill="white"></path><path d="M270.267 66.8C270.125 66.8 269.99 66.7438 269.89 66.6438L265.364 62.1184C265.264 62.0184 265.208 61.8828 265.208 61.7414C265.208 61.6 265.264 61.4643 265.364 61.3643L266.873 59.8555C266.973 59.7555 267.108 59.6994 267.25 59.6994C267.391 59.6994 267.527 59.7555 267.627 59.8555L270.267 62.4955L276.236 56.5265C276.336 56.4265 276.471 56.3703 276.613 56.3703C276.754 56.3703 276.89 56.4265 276.99 56.5265L278.499 58.0347C278.599 58.1347 278.655 58.2704 278.655 58.4118C278.655 58.5532 278.599 58.6889 278.499 58.7889L270.644 66.6438C270.544 66.7438 270.408 66.8 270.267 66.8ZM266.496 61.7414L270.267 65.5126L277.367 58.4118L276.613 57.6577L270.644 63.6267C270.544 63.7267 270.408 63.7829 270.267 63.7829C270.125 63.7829 269.99 63.7267 269.89 63.6267L267.25 60.9867L266.496 61.7414Z" fill="white"></path><path fill-rule="evenodd" clip-rule="evenodd" d="M193.721 45.263C191.779 43.3215 189.188 42.1654 186.445 42.0164C183.703 41.8675 181.002 42.7361 178.861 44.4558C176.719 46.1755 175.288 48.6252 174.842 51.3351C174.395 54.045 174.964 56.8244 176.441 59.1402L173.895 61.6829C173.646 61.4861 173.334 61.3875 173.017 61.4057C172.701 61.4239 172.402 61.5577 172.177 61.7817L165.381 68.5704C165.261 68.6912 165.165 68.8347 165.099 68.9927C165.034 69.1506 165 69.3199 165 69.4908C165 69.6618 165.034 69.8311 165.099 69.989C165.165 70.1469 165.261 70.2904 165.381 70.4113L168.555 73.5852C168.676 73.7062 168.82 73.8021 168.978 73.8675C169.136 73.933 169.305 73.9667 169.476 73.9667C169.647 73.9667 169.816 73.933 169.974 73.8675C170.132 73.8021 170.275 73.7062 170.396 73.5852L177.203 66.8071C177.427 66.5826 177.56 66.2837 177.579 65.9671C177.597 65.6505 177.498 65.3383 177.301 65.0896L179.848 62.5434C182.163 64.0258 184.945 64.5998 187.658 64.1551C190.371 63.7104 192.825 62.2785 194.546 60.1345C196.267 57.9906 197.135 55.286 196.983 52.5408C196.831 49.7956 195.669 47.2035 193.721 45.263ZM176.473 66.07L169.673 72.8729C169.623 72.9228 169.554 72.9508 169.483 72.9508C169.412 72.9508 169.343 72.9228 169.292 72.8729L166.118 69.6989C166.093 69.674 166.073 69.6443 166.06 69.6116C166.046 69.579 166.039 69.5439 166.039 69.5085C166.039 69.4731 166.046 69.438 166.06 69.4053C166.073 69.3726 166.093 69.343 166.118 69.318L172.911 62.5117C172.936 62.4862 172.965 62.4659 172.998 62.452C173.031 62.4381 173.066 62.4308 173.101 62.4306C173.173 62.4318 173.241 62.4609 173.292 62.5117L176.466 65.6856C176.492 65.7102 176.514 65.7399 176.529 65.773C176.543 65.8061 176.552 65.8418 176.552 65.8781C176.553 65.9143 176.546 65.9504 176.532 65.984C176.519 66.0176 176.498 66.048 176.473 66.0736V66.07ZM176.582 64.342L174.646 62.4023L177.055 59.9937C177.617 60.7222 178.272 61.3753 179.001 61.9368L176.582 64.342ZM192.984 60.297C191.33 61.9516 189.152 62.9813 186.824 63.2107C184.495 63.4401 182.159 62.8549 180.213 61.5549C178.267 60.2549 176.833 58.3205 176.153 56.0812C175.474 53.842 175.592 51.4365 176.488 49.2746C177.383 47.1127 179.001 45.3282 181.064 44.2251C183.128 43.122 185.51 42.7686 187.805 43.2251C190.1 43.6816 192.166 44.9197 193.651 46.7286C195.135 48.5374 195.947 50.805 195.947 53.145C195.945 55.8272 194.88 58.3993 192.984 60.297ZM192.279 46.7054C191.005 45.4327 189.383 44.5662 187.617 44.2155C185.85 43.8647 184.02 44.0455 182.356 44.7349C180.693 45.4243 179.271 46.5914 178.271 48.0887C177.271 49.5859 176.737 51.3461 176.737 53.1468C176.737 54.9474 177.271 56.7076 178.271 58.2048C179.271 59.7021 180.693 60.8692 182.356 61.5586C184.02 62.248 185.85 62.4288 187.617 62.078C189.383 61.7273 191.005 60.8608 192.279 59.5881C193.985 57.8784 194.943 55.5619 194.943 53.1468C194.943 50.7316 193.985 48.4151 192.279 46.7054ZM191.552 58.8546C190.423 59.9838 188.984 60.7527 187.417 61.0642C185.851 61.3756 184.227 61.2155 182.752 60.6042C181.276 59.9929 180.015 58.9578 179.128 57.6297C178.24 56.3017 177.767 54.7404 177.767 53.1432C177.767 51.5461 178.24 49.9847 179.128 48.6567C180.015 47.3287 181.276 46.2936 182.752 45.6822C184.227 45.0709 185.851 44.9109 187.417 45.2223C188.984 45.5337 190.423 46.3027 191.552 47.4319C192.306 48.1802 192.903 49.07 193.311 50.0502C193.719 51.0304 193.929 52.0816 193.929 53.1432C193.929 54.2049 193.719 55.2561 193.311 56.2362C192.903 57.2164 192.306 58.1063 191.552 58.8546ZM191.82 55.6806L186.777 46.9452C186.682 46.7812 186.546 46.6451 186.381 46.5505C186.217 46.4559 186.031 46.4061 185.841 46.4061C185.651 46.4061 185.465 46.4559 185.301 46.5505C185.137 46.6451 185 46.7812 184.905 46.9452L179.858 55.6806C179.764 55.8452 179.714 56.0318 179.714 56.2216C179.714 56.4114 179.765 56.5978 179.86 56.7622C179.955 56.9265 180.091 57.063 180.256 57.1579C180.42 57.2528 180.606 57.3028 180.796 57.3029H190.886C191.075 57.3021 191.261 57.2517 191.425 57.1565C191.589 57.0614 191.725 56.9249 191.82 56.7606C191.915 56.5964 191.964 56.4102 191.964 56.2207C191.965 56.0312 191.915 55.8449 191.82 55.6806ZM190.928 56.2484C190.925 56.2564 190.919 56.2631 190.911 56.2675C190.903 56.2719 190.895 56.2739 190.886 56.2731H180.796C180.787 56.2745 180.778 56.2728 180.771 56.2683C180.763 56.2638 180.757 56.2568 180.754 56.2484C180.749 56.2412 180.746 56.2326 180.746 56.2237C180.746 56.2149 180.749 56.2062 180.754 56.199L185.797 47.4601C185.8 47.4517 185.806 47.4447 185.814 47.4402C185.821 47.4357 185.83 47.434 185.839 47.4354C185.849 47.4338 185.858 47.4354 185.866 47.4399C185.875 47.4443 185.881 47.4515 185.885 47.4601L190.928 56.199C190.933 56.2062 190.936 56.2149 190.936 56.2237C190.936 56.2326 190.933 56.2412 190.928 56.2484ZM185.839 50.038C185.976 50.038 186.108 50.0922 186.205 50.1886C186.302 50.2851 186.357 50.416 186.358 50.5529V53.3107C186.364 53.3822 186.355 53.4541 186.331 53.5219C186.308 53.5896 186.271 53.6519 186.222 53.7046C186.174 53.7573 186.115 53.7994 186.049 53.8282C185.984 53.857 185.913 53.8719 185.841 53.8719C185.769 53.8719 185.698 53.857 185.633 53.8282C185.567 53.7994 185.508 53.7573 185.46 53.7046C185.411 53.6519 185.374 53.5896 185.351 53.5219C185.327 53.4541 185.319 53.3822 185.324 53.3107V50.5529C185.325 50.4167 185.38 50.2862 185.476 50.1899C185.573 50.0935 185.703 50.039 185.839 50.038ZM186.284 54.7461C186.284 54.8369 186.258 54.9259 186.208 55.0017C186.158 55.0776 186.087 55.1369 186.003 55.1721C185.919 55.2074 185.827 55.217 185.738 55.1997C185.649 55.1824 185.567 55.139 185.502 55.075C185.438 55.0111 185.394 54.9294 185.376 54.8403C185.358 54.7513 185.367 54.659 185.401 54.575C185.436 54.491 185.495 54.4192 185.57 54.3687C185.646 54.3181 185.734 54.2911 185.825 54.2911C185.946 54.2911 186.062 54.339 186.148 54.4242C186.234 54.5094 186.283 54.6251 186.284 54.7461Z" fill="white"></path><path d="M58.0899 16V14.16H59.9299V6.64H58.0899V4.8H63.8499V6.64H62.0099V14.16H63.8499V16H58.0899ZM69.544 16.16C68.7973 16.16 68.1253 15.9733 67.528 15.6C66.9413 15.216 66.472 14.6987 66.12 14.048C65.7787 13.3867 65.608 12.6293 65.608 11.776C65.608 10.9333 65.7787 10.1813 66.12 9.52C66.4613 8.85867 66.9253 8.34133 67.512 7.968C68.1093 7.584 68.7813 7.392 69.528 7.392C69.9333 7.392 70.3227 7.456 70.696 7.584C71.08 7.712 71.4213 7.888 71.72 8.112C72.0187 8.32533 72.2533 8.56533 72.424 8.832C72.6053 9.09867 72.7067 9.376 72.728 9.664L72.2 9.728V4.16H74.168V16H72.264L72.216 14.016L72.6 14.048C72.5893 14.3147 72.4933 14.5707 72.312 14.816C72.1413 15.0613 71.9173 15.2853 71.64 15.488C71.3627 15.6907 71.0373 15.856 70.664 15.984C70.3013 16.1013 69.928 16.16 69.544 16.16ZM69.928 14.496C70.3867 14.496 70.792 14.3787 71.144 14.144C71.496 13.9093 71.768 13.5893 71.96 13.184C72.1627 12.7787 72.264 12.3093 72.264 11.776C72.264 11.2533 72.1627 10.7893 71.96 10.384C71.768 9.968 71.496 9.648 71.144 9.424C70.792 9.18933 70.3867 9.072 69.928 9.072C69.4693 9.072 69.064 9.18933 68.712 9.424C68.36 9.648 68.0827 9.968 67.88 10.384C67.688 10.7893 67.592 11.2533 67.592 11.776C67.592 12.3093 67.688 12.7787 67.88 13.184C68.0827 13.5893 68.36 13.9093 68.712 14.144C69.064 14.3787 69.4693 14.496 69.928 14.496ZM80.354 16.16C79.4687 16.16 78.6847 15.9733 78.002 15.6C77.33 15.2267 76.802 14.72 76.418 14.08C76.0447 13.4293 75.858 12.688 75.858 11.856C75.858 11.1947 75.9647 10.592 76.178 10.048C76.3913 9.504 76.6847 9.03467 77.058 8.64C77.442 8.23467 77.8953 7.92533 78.418 7.712C78.9513 7.488 79.5327 7.376 80.162 7.376C80.7167 7.376 81.234 7.48267 81.714 7.696C82.194 7.90933 82.61 8.20267 82.962 8.576C83.314 8.93867 83.5807 9.376 83.762 9.888C83.954 10.3893 84.0447 10.9387 84.034 11.536L84.018 12.224H77.186L76.818 10.88H82.37L82.114 11.152V10.8C82.082 10.4693 81.9753 10.1813 81.794 9.936C81.6127 9.68 81.378 9.48267 81.09 9.344C80.8127 9.19467 80.5033 9.12 80.162 9.12C79.6393 9.12 79.1967 9.22133 78.834 9.424C78.482 9.62667 78.2153 9.92 78.034 10.304C77.8527 10.6773 77.762 11.1467 77.762 11.712C77.762 12.256 77.874 12.7307 78.098 13.136C78.3327 13.5413 78.658 13.856 79.074 14.08C79.5007 14.2933 79.9967 14.4 80.562 14.4C80.9567 14.4 81.3193 14.336 81.65 14.208C81.9807 14.08 82.338 13.8507 82.722 13.52L83.698 14.88C83.41 15.1467 83.0793 15.376 82.706 15.568C82.3433 15.7493 81.9593 15.8933 81.554 16C81.1487 16.1067 80.7487 16.16 80.354 16.16ZM85.777 16V7.568H87.697L87.729 9.296L87.361 9.488C87.4677 9.104 87.6757 8.75733 87.985 8.448C88.2943 8.128 88.6623 7.872 89.089 7.68C89.5157 7.488 89.953 7.392 90.401 7.392C91.041 7.392 91.5743 7.52 92.001 7.776C92.4383 8.032 92.7637 8.416 92.977 8.928C93.201 9.44 93.313 10.08 93.313 10.848V16H91.345V10.992C91.345 10.5653 91.2863 10.2133 91.169 9.936C91.0517 9.648 90.8703 9.44 90.625 9.312C90.3797 9.17333 90.081 9.10933 89.729 9.12C89.441 9.12 89.1743 9.168 88.929 9.264C88.6943 9.34933 88.4863 9.47733 88.305 9.648C88.1343 9.808 87.9957 9.99467 87.889 10.208C87.793 10.4213 87.745 10.656 87.745 10.912V16H86.769C86.577 16 86.3957 16 86.225 16C86.065 16 85.9157 16 85.777 16ZM96.439 16V5.424H98.407V16H96.439ZM94.775 9.392V7.568H100.247V9.392H94.775ZM101.97 16V7.568H103.938V16H101.97ZM102.93 5.776C102.535 5.776 102.226 5.68 102.002 5.488C101.788 5.28533 101.682 5.00267 101.682 4.64C101.682 4.29867 101.794 4.02133 102.018 3.808C102.242 3.59467 102.546 3.488 102.93 3.488C103.335 3.488 103.644 3.58933 103.858 3.792C104.082 3.984 104.194 4.26667 104.194 4.64C104.194 4.97067 104.082 5.24267 103.858 5.456C103.634 5.66933 103.324 5.776 102.93 5.776ZM107.201 16V6.816C107.201 6.304 107.313 5.85067 107.537 5.456C107.761 5.05067 108.071 4.736 108.465 4.512C108.86 4.27733 109.319 4.16 109.841 4.16C110.204 4.16 110.54 4.224 110.849 4.352C111.159 4.46933 111.42 4.63467 111.633 4.848L111.025 6.336C110.887 6.21867 110.737 6.128 110.577 6.064C110.428 6 110.284 5.968 110.145 5.968C109.932 5.968 109.751 6.00533 109.601 6.08C109.463 6.144 109.356 6.24533 109.281 6.384C109.217 6.52267 109.185 6.688 109.185 6.88V16H108.193C108.001 16 107.82 16 107.649 16C107.489 16 107.34 16 107.201 16ZM105.889 9.472V7.744H111.089V9.472H105.889ZM113.995 19.68L115.786 15.536L115.803 16.848L111.643 7.568H113.914L116.235 13.072C116.309 13.2107 116.384 13.3973 116.459 13.632C116.533 13.856 116.597 14.08 116.651 14.304L116.251 14.432C116.325 14.2293 116.405 14.016 116.491 13.792C116.576 13.5573 116.656 13.3173 116.731 13.072L118.715 7.568H121.003L117.483 16L116.043 19.68H113.995Z" fill="#1A1A1A"></path><path d="M328.996 16V4.8H333.652C334.292 4.8 334.868 4.95467 335.38 5.264C335.903 5.57333 336.319 5.99467 336.628 6.528C336.938 7.06133 337.092 7.65867 337.092 8.32C337.092 8.992 336.938 9.6 336.628 10.144C336.319 10.6773 335.903 11.104 335.38 11.424C334.868 11.744 334.292 11.904 333.652 11.904H331.076V16H328.996ZM331.076 9.984H333.508C333.775 9.984 334.015 9.90933 334.228 9.76C334.452 9.61067 334.628 9.41333 334.756 9.168C334.895 8.92267 334.964 8.64533 334.964 8.336C334.964 8.02667 334.895 7.75467 334.756 7.52C334.628 7.27467 334.452 7.08267 334.228 6.944C334.015 6.79467 333.775 6.72 333.508 6.72H331.076V9.984ZM338.941 16V7.568H340.877L340.909 10.256L340.637 9.648C340.754 9.22133 340.957 8.83733 341.245 8.496C341.533 8.15467 341.864 7.888 342.237 7.696C342.621 7.49333 343.021 7.392 343.437 7.392C343.618 7.392 343.789 7.408 343.949 7.44C344.12 7.472 344.258 7.50933 344.365 7.552L343.837 9.712C343.72 9.648 343.576 9.59467 343.405 9.552C343.234 9.50933 343.064 9.488 342.893 9.488C342.626 9.488 342.37 9.54133 342.125 9.648C341.89 9.744 341.682 9.88267 341.501 10.064C341.32 10.2453 341.176 10.4587 341.069 10.704C340.973 10.9387 340.925 11.2053 340.925 11.504V16H338.941ZM349.172 16.16C348.329 16.16 347.577 15.9733 346.916 15.6C346.255 15.216 345.732 14.6933 345.348 14.032C344.964 13.3707 344.772 12.6187 344.772 11.776C344.772 10.9333 344.964 10.1813 345.348 9.52C345.732 8.85867 346.255 8.34133 346.916 7.968C347.577 7.584 348.329 7.392 349.172 7.392C350.004 7.392 350.751 7.584 351.412 7.968C352.073 8.34133 352.591 8.85867 352.964 9.52C353.348 10.1813 353.54 10.9333 353.54 11.776C353.54 12.6187 353.348 13.3707 352.964 14.032C352.591 14.6933 352.073 15.216 351.412 15.6C350.751 15.9733 350.004 16.16 349.172 16.16ZM349.172 14.416C349.631 14.416 350.036 14.2987 350.388 14.064C350.751 13.8293 351.033 13.5147 351.236 13.12C351.449 12.7253 351.551 12.2773 351.54 11.776C351.551 11.264 351.449 10.8107 351.236 10.416C351.033 10.0213 350.751 9.712 350.388 9.488C350.036 9.25333 349.631 9.136 349.172 9.136C348.713 9.136 348.297 9.25333 347.924 9.488C347.561 9.712 347.279 10.0267 347.076 10.432C346.873 10.8267 346.772 11.2747 346.772 11.776C346.772 12.2773 346.873 12.7253 347.076 13.12C347.279 13.5147 347.561 13.8293 347.924 14.064C348.297 14.2987 348.713 14.416 349.172 14.416ZM356.212 16V5.424H358.18V16H356.212ZM354.548 9.392V7.568H360.02V9.392H354.548ZM365.393 16.16C364.508 16.16 363.724 15.9733 363.041 15.6C362.369 15.2267 361.841 14.72 361.457 14.08C361.084 13.4293 360.897 12.688 360.897 11.856C360.897 11.1947 361.004 10.592 361.217 10.048C361.43 9.504 361.724 9.03467 362.097 8.64C362.481 8.23467 362.934 7.92533 363.457 7.712C363.99 7.488 364.572 7.376 365.201 7.376C365.756 7.376 366.273 7.48267 366.753 7.696C367.233 7.90933 367.649 8.20267 368.001 8.576C368.353 8.93867 368.62 9.376 368.801 9.888C368.993 10.3893 369.084 10.9387 369.073 11.536L369.057 12.224H362.225L361.857 10.88H367.409L367.153 11.152V10.8C367.121 10.4693 367.014 10.1813 366.833 9.936C366.652 9.68 366.417 9.48267 366.129 9.344C365.852 9.19467 365.542 9.12 365.201 9.12C364.678 9.12 364.236 9.22133 363.873 9.424C363.521 9.62667 363.254 9.92 363.073 10.304C362.892 10.6773 362.801 11.1467 362.801 11.712C362.801 12.256 362.913 12.7307 363.137 13.136C363.372 13.5413 363.697 13.856 364.113 14.08C364.54 14.2933 365.036 14.4 365.601 14.4C365.996 14.4 366.358 14.336 366.689 14.208C367.02 14.08 367.377 13.8507 367.761 13.52L368.737 14.88C368.449 15.1467 368.118 15.376 367.745 15.568C367.382 15.7493 366.998 15.8933 366.593 16C366.188 16.1067 365.788 16.16 365.393 16.16ZM374.432 16.16C373.643 16.16 372.933 15.968 372.304 15.584C371.675 15.2 371.179 14.6773 370.816 14.016C370.453 13.3547 370.272 12.608 370.272 11.776C370.272 10.944 370.453 10.1973 370.816 9.536C371.179 8.87467 371.675 8.352 372.304 7.968C372.933 7.584 373.643 7.392 374.432 7.392C375.189 7.392 375.877 7.536 376.496 7.824C377.115 8.112 377.595 8.512 377.936 9.024L376.848 10.336C376.688 10.112 376.485 9.90933 376.24 9.728C375.995 9.54667 375.733 9.40267 375.456 9.296C375.179 9.18933 374.901 9.136 374.624 9.136C374.155 9.136 373.733 9.25333 373.36 9.488C372.997 9.712 372.709 10.0267 372.496 10.432C372.283 10.8267 372.176 11.2747 372.176 11.776C372.176 12.2773 372.283 12.7253 372.496 13.12C372.72 13.5147 373.019 13.8293 373.392 14.064C373.765 14.2987 374.181 14.416 374.64 14.416C374.917 14.416 375.184 14.3733 375.44 14.288C375.707 14.192 375.957 14.0587 376.192 13.888C376.427 13.7173 376.645 13.504 376.848 13.248L377.936 14.576C377.573 15.0453 377.072 15.4293 376.432 15.728C375.803 16.016 375.136 16.16 374.432 16.16ZM380.353 16V5.424H382.321V16H380.353ZM378.689 9.392V7.568H384.161V9.392H378.689Z" fill="#1A1A1A"></path><path d="M187.895 279V267.8H192.759C193.431 267.8 194.044 267.96 194.599 268.28C195.153 268.589 195.591 269.016 195.911 269.56C196.241 270.093 196.407 270.696 196.407 271.368C196.407 272.008 196.241 272.6 195.911 273.144C195.591 273.677 195.153 274.104 194.599 274.424C194.055 274.733 193.441 274.888 192.759 274.888H189.927V279H187.895ZM194.391 279L191.543 273.944L193.687 273.544L196.855 279.016L194.391 279ZM189.927 273.08H192.775C193.084 273.08 193.351 273.011 193.575 272.872C193.809 272.723 193.991 272.52 194.119 272.264C194.247 272.008 194.311 271.725 194.311 271.416C194.311 271.064 194.231 270.76 194.071 270.504C193.911 270.248 193.687 270.045 193.399 269.896C193.111 269.747 192.78 269.672 192.407 269.672H189.927V273.08ZM202.338 279.16C201.453 279.16 200.669 278.973 199.986 278.6C199.314 278.227 198.786 277.72 198.402 277.08C198.029 276.429 197.842 275.688 197.842 274.856C197.842 274.195 197.949 273.592 198.162 273.048C198.376 272.504 198.669 272.035 199.042 271.64C199.426 271.235 199.88 270.925 200.402 270.712C200.936 270.488 201.517 270.376 202.146 270.376C202.701 270.376 203.218 270.483 203.698 270.696C204.178 270.909 204.594 271.203 204.946 271.576C205.298 271.939 205.565 272.376 205.746 272.888C205.938 273.389 206.029 273.939 206.018 274.536L206.002 275.224H199.17L198.802 273.88H204.354L204.098 274.152V273.8C204.066 273.469 203.96 273.181 203.778 272.936C203.597 272.68 203.362 272.483 203.074 272.344C202.797 272.195 202.488 272.12 202.146 272.12C201.624 272.12 201.181 272.221 200.818 272.424C200.466 272.627 200.2 272.92 200.018 273.304C199.837 273.677 199.746 274.147 199.746 274.712C199.746 275.256 199.858 275.731 200.082 276.136C200.317 276.541 200.642 276.856 201.058 277.08C201.485 277.293 201.981 277.4 202.546 277.4C202.941 277.4 203.304 277.336 203.634 277.208C203.965 277.08 204.322 276.851 204.706 276.52L205.682 277.88C205.394 278.147 205.064 278.376 204.69 278.568C204.328 278.749 203.944 278.893 203.538 279C203.133 279.107 202.733 279.16 202.338 279.16ZM210.577 279.16C209.831 279.16 209.159 279.037 208.561 278.792C207.975 278.536 207.495 278.173 207.121 277.704L208.401 276.6C208.721 276.963 209.079 277.224 209.473 277.384C209.868 277.544 210.284 277.624 210.721 277.624C210.903 277.624 211.063 277.603 211.201 277.56C211.351 277.517 211.479 277.453 211.585 277.368C211.692 277.283 211.772 277.187 211.825 277.08C211.889 276.963 211.921 276.835 211.921 276.696C211.921 276.44 211.825 276.237 211.633 276.088C211.527 276.013 211.356 275.933 211.121 275.848C210.897 275.763 210.604 275.677 210.241 275.592C209.665 275.443 209.185 275.272 208.801 275.08C208.417 274.877 208.119 274.653 207.905 274.408C207.724 274.205 207.585 273.976 207.489 273.72C207.404 273.464 207.361 273.187 207.361 272.888C207.361 272.515 207.441 272.179 207.601 271.88C207.772 271.571 208.001 271.304 208.289 271.08C208.577 270.856 208.913 270.685 209.297 270.568C209.681 270.451 210.081 270.392 210.497 270.392C210.924 270.392 211.335 270.445 211.729 270.552C212.135 270.659 212.508 270.813 212.849 271.016C213.201 271.208 213.5 271.443 213.745 271.72L212.657 272.92C212.455 272.728 212.231 272.557 211.985 272.408C211.751 272.259 211.511 272.141 211.265 272.056C211.02 271.96 210.791 271.912 210.577 271.912C210.375 271.912 210.193 271.933 210.033 271.976C209.873 272.008 209.74 272.061 209.633 272.136C209.527 272.211 209.441 272.307 209.377 272.424C209.324 272.531 209.297 272.659 209.297 272.808C209.308 272.936 209.34 273.059 209.393 273.176C209.457 273.283 209.543 273.373 209.649 273.448C209.767 273.523 209.943 273.608 210.177 273.704C210.412 273.8 210.716 273.891 211.089 273.976C211.612 274.115 212.049 274.269 212.401 274.44C212.753 274.611 213.031 274.808 213.233 275.032C213.436 275.224 213.58 275.448 213.665 275.704C213.751 275.96 213.793 276.243 213.793 276.552C213.793 277.053 213.649 277.501 213.361 277.896C213.084 278.291 212.7 278.6 212.209 278.824C211.729 279.048 211.185 279.16 210.577 279.16ZM215.527 282.52V270.568H217.463L217.495 272.488L217.159 272.344C217.223 272.013 217.404 271.704 217.703 271.416C218.002 271.117 218.364 270.877 218.791 270.696C219.228 270.515 219.682 270.424 220.151 270.424C220.898 270.424 221.559 270.611 222.135 270.984C222.722 271.357 223.18 271.869 223.511 272.52C223.852 273.171 224.023 273.923 224.023 274.776C224.023 275.619 223.852 276.371 223.511 277.032C223.18 277.683 222.722 278.2 222.135 278.584C221.559 278.957 220.908 279.144 220.183 279.144C219.692 279.144 219.218 279.048 218.759 278.856C218.311 278.664 217.927 278.413 217.607 278.104C217.298 277.795 217.106 277.469 217.031 277.128L217.511 276.904V282.52H215.527ZM219.783 277.4C220.231 277.4 220.631 277.288 220.983 277.064C221.335 276.84 221.607 276.531 221.799 276.136C222.002 275.741 222.103 275.288 222.103 274.776C222.103 274.264 222.007 273.816 221.815 273.432C221.623 273.037 221.351 272.728 220.999 272.504C220.647 272.28 220.242 272.168 219.783 272.168C219.314 272.168 218.903 272.28 218.551 272.504C218.21 272.717 217.938 273.021 217.735 273.416C217.532 273.811 217.431 274.264 217.431 274.776C217.431 275.288 217.532 275.741 217.735 276.136C217.938 276.531 218.21 276.84 218.551 277.064C218.903 277.288 219.314 277.4 219.783 277.4ZM229.633 279.16C228.79 279.16 228.038 278.973 227.377 278.6C226.716 278.216 226.193 277.693 225.809 277.032C225.425 276.371 225.233 275.619 225.233 274.776C225.233 273.933 225.425 273.181 225.809 272.52C226.193 271.859 226.716 271.341 227.377 270.968C228.038 270.584 228.79 270.392 229.633 270.392C230.465 270.392 231.212 270.584 231.873 270.968C232.534 271.341 233.052 271.859 233.425 272.52C233.809 273.181 234.001 273.933 234.001 274.776C234.001 275.619 233.809 276.371 233.425 277.032C233.052 277.693 232.534 278.216 231.873 278.6C231.212 278.973 230.465 279.16 229.633 279.16ZM229.633 277.416C230.092 277.416 230.497 277.299 230.849 277.064C231.212 276.829 231.494 276.515 231.697 276.12C231.91 275.725 232.012 275.277 232.001 274.776C232.012 274.264 231.91 273.811 231.697 273.416C231.494 273.021 231.212 272.712 230.849 272.488C230.497 272.253 230.092 272.136 229.633 272.136C229.174 272.136 228.758 272.253 228.385 272.488C228.022 272.712 227.74 273.027 227.537 273.432C227.334 273.827 227.233 274.275 227.233 274.776C227.233 275.277 227.334 275.725 227.537 276.12C227.74 276.515 228.022 276.829 228.385 277.064C228.758 277.299 229.174 277.416 229.633 277.416ZM235.761 279V270.568H237.681L237.713 272.296L237.345 272.488C237.452 272.104 237.66 271.757 237.969 271.448C238.279 271.128 238.647 270.872 239.073 270.68C239.5 270.488 239.937 270.392 240.385 270.392C241.025 270.392 241.559 270.52 241.985 270.776C242.423 271.032 242.748 271.416 242.961 271.928C243.185 272.44 243.297 273.08 243.297 273.848V279H241.329V273.992C241.329 273.565 241.271 273.213 241.153 272.936C241.036 272.648 240.855 272.44 240.609 272.312C240.364 272.173 240.065 272.109 239.713 272.12C239.425 272.12 239.159 272.168 238.913 272.264C238.679 272.349 238.471 272.477 238.289 272.648C238.119 272.808 237.98 272.995 237.873 273.208C237.777 273.421 237.729 273.656 237.729 273.912V279H236.753C236.561 279 236.38 279 236.209 279C236.049 279 235.9 279 235.761 279ZM248.903 279.16C248.157 279.16 247.485 278.973 246.887 278.6C246.301 278.216 245.831 277.699 245.479 277.048C245.138 276.387 244.967 275.629 244.967 274.776C244.967 273.933 245.138 273.181 245.479 272.52C245.821 271.859 246.285 271.341 246.871 270.968C247.469 270.584 248.141 270.392 248.887 270.392C249.293 270.392 249.682 270.456 250.055 270.584C250.439 270.712 250.781 270.888 251.079 271.112C251.378 271.325 251.613 271.565 251.783 271.832C251.965 272.099 252.066 272.376 252.087 272.664L251.559 272.728V267.16H253.527V279H251.623L251.575 277.016L251.959 277.048C251.949 277.315 251.853 277.571 251.671 277.816C251.501 278.061 251.277 278.285 250.999 278.488C250.722 278.691 250.397 278.856 250.023 278.984C249.661 279.101 249.287 279.16 248.903 279.16ZM249.287 277.496C249.746 277.496 250.151 277.379 250.503 277.144C250.855 276.909 251.127 276.589 251.319 276.184C251.522 275.779 251.623 275.309 251.623 274.776C251.623 274.253 251.522 273.789 251.319 273.384C251.127 272.968 250.855 272.648 250.503 272.424C250.151 272.189 249.746 272.072 249.287 272.072C248.829 272.072 248.423 272.189 248.071 272.424C247.719 272.648 247.442 272.968 247.239 273.384C247.047 273.789 246.951 274.253 246.951 274.776C246.951 275.309 247.047 275.779 247.239 276.184C247.442 276.589 247.719 276.909 248.071 277.144C248.423 277.379 248.829 277.496 249.287 277.496Z" fill="#1A1A1A"></path><path d="M17.5978 181V169.8H22.4618C23.1338 169.8 23.7471 169.96 24.3018 170.28C24.8564 170.589 25.2938 171.016 25.6138 171.56C25.9444 172.093 26.1098 172.696 26.1098 173.368C26.1098 174.008 25.9444 174.6 25.6138 175.144C25.2938 175.677 24.8564 176.104 24.3018 176.424C23.7578 176.733 23.1444 176.888 22.4618 176.888H19.6298V181H17.5978ZM24.0938 181L21.2458 175.944L23.3898 175.544L26.5578 181.016L24.0938 181ZM19.6298 175.08H22.4778C22.7871 175.08 23.0538 175.011 23.2778 174.872C23.5124 174.723 23.6938 174.52 23.8218 174.264C23.9498 174.008 24.0138 173.725 24.0138 173.416C24.0138 173.064 23.9338 172.76 23.7738 172.504C23.6138 172.248 23.3898 172.045 23.1018 171.896C22.8138 171.747 22.4831 171.672 22.1098 171.672H19.6298V175.08ZM32.0415 181.16C31.1562 181.16 30.3722 180.973 29.6895 180.6C29.0175 180.227 28.4895 179.72 28.1055 179.08C27.7322 178.429 27.5455 177.688 27.5455 176.856C27.5455 176.195 27.6522 175.592 27.8655 175.048C28.0788 174.504 28.3722 174.035 28.7455 173.64C29.1295 173.235 29.5828 172.925 30.1055 172.712C30.6388 172.488 31.2202 172.376 31.8495 172.376C32.4042 172.376 32.9215 172.483 33.4015 172.696C33.8815 172.909 34.2975 173.203 34.6495 173.576C35.0015 173.939 35.2682 174.376 35.4495 174.888C35.6415 175.389 35.7322 175.939 35.7215 176.536L35.7055 177.224H28.8735L28.5055 175.88H34.0575L33.8015 176.152V175.8C33.7695 175.469 33.6628 175.181 33.4815 174.936C33.3002 174.68 33.0655 174.483 32.7775 174.344C32.5002 174.195 32.1908 174.12 31.8495 174.12C31.3268 174.12 30.8842 174.221 30.5215 174.424C30.1695 174.627 29.9028 174.92 29.7215 175.304C29.5402 175.677 29.4495 176.147 29.4495 176.712C29.4495 177.256 29.5615 177.731 29.7855 178.136C30.0202 178.541 30.3455 178.856 30.7615 179.08C31.1882 179.293 31.6842 179.4 32.2495 179.4C32.6442 179.4 33.0068 179.336 33.3375 179.208C33.6682 179.08 34.0255 178.851 34.4095 178.52L35.3855 179.88C35.0975 180.147 34.7668 180.376 34.3935 180.568C34.0308 180.749 33.6468 180.893 33.2415 181C32.8362 181.107 32.4362 181.16 32.0415 181.16ZM41.0805 181.16C40.2912 181.16 39.5818 180.968 38.9525 180.584C38.3232 180.2 37.8272 179.677 37.4645 179.016C37.1018 178.355 36.9205 177.608 36.9205 176.776C36.9205 175.944 37.1018 175.197 37.4645 174.536C37.8272 173.875 38.3232 173.352 38.9525 172.968C39.5818 172.584 40.2912 172.392 41.0805 172.392C41.8378 172.392 42.5258 172.536 43.1445 172.824C43.7632 173.112 44.2432 173.512 44.5845 174.024L43.4965 175.336C43.3365 175.112 43.1338 174.909 42.8885 174.728C42.6432 174.547 42.3818 174.403 42.1045 174.296C41.8272 174.189 41.5498 174.136 41.2725 174.136C40.8032 174.136 40.3818 174.253 40.0085 174.488C39.6458 174.712 39.3578 175.027 39.1445 175.432C38.9312 175.827 38.8245 176.275 38.8245 176.776C38.8245 177.277 38.9312 177.725 39.1445 178.12C39.3685 178.515 39.6672 178.829 40.0405 179.064C40.4138 179.299 40.8298 179.416 41.2885 179.416C41.5658 179.416 41.8325 179.373 42.0885 179.288C42.3552 179.192 42.6058 179.059 42.8405 178.888C43.0752 178.717 43.2938 178.504 43.4965 178.248L44.5845 179.576C44.2218 180.045 43.7205 180.429 43.0805 180.728C42.4512 181.016 41.7845 181.16 41.0805 181.16ZM49.9455 181.16C49.1028 181.16 48.3508 180.973 47.6895 180.6C47.0282 180.216 46.5055 179.693 46.1215 179.032C45.7375 178.371 45.5455 177.619 45.5455 176.776C45.5455 175.933 45.7375 175.181 46.1215 174.52C46.5055 173.859 47.0282 173.341 47.6895 172.968C48.3508 172.584 49.1028 172.392 49.9455 172.392C50.7775 172.392 51.5242 172.584 52.1855 172.968C52.8468 173.341 53.3642 173.859 53.7375 174.52C54.1215 175.181 54.3135 175.933 54.3135 176.776C54.3135 177.619 54.1215 178.371 53.7375 179.032C53.3642 179.693 52.8468 180.216 52.1855 180.6C51.5242 180.973 50.7775 181.16 49.9455 181.16ZM49.9455 179.416C50.4042 179.416 50.8095 179.299 51.1615 179.064C51.5242 178.829 51.8068 178.515 52.0095 178.12C52.2228 177.725 52.3242 177.277 52.3135 176.776C52.3242 176.264 52.2228 175.811 52.0095 175.416C51.8068 175.021 51.5242 174.712 51.1615 174.488C50.8095 174.253 50.4042 174.136 49.9455 174.136C49.4868 174.136 49.0708 174.253 48.6975 174.488C48.3348 174.712 48.0522 175.027 47.8495 175.432C47.6468 175.827 47.5455 176.275 47.5455 176.776C47.5455 177.277 47.6468 177.725 47.8495 178.12C48.0522 178.515 48.3348 178.829 48.6975 179.064C49.0708 179.299 49.4868 179.416 49.9455 179.416ZM58.5435 181L54.9915 172.568H57.1355L59.5355 178.872L59.1195 178.984L61.6475 172.568H63.7435L60.0155 181H58.5435ZM68.9009 181.16C68.0155 181.16 67.2315 180.973 66.5489 180.6C65.8769 180.227 65.3489 179.72 64.9649 179.08C64.5915 178.429 64.4049 177.688 64.4049 176.856C64.4049 176.195 64.5115 175.592 64.7249 175.048C64.9382 174.504 65.2315 174.035 65.6049 173.64C65.9889 173.235 66.4422 172.925 66.9649 172.712C67.4982 172.488 68.0795 172.376 68.7089 172.376C69.2635 172.376 69.7809 172.483 70.2609 172.696C70.7409 172.909 71.1569 173.203 71.5089 173.576C71.8609 173.939 72.1275 174.376 72.3089 174.888C72.5009 175.389 72.5915 175.939 72.5809 176.536L72.5649 177.224H65.7329L65.3649 175.88H70.9169L70.6609 176.152V175.8C70.6289 175.469 70.5222 175.181 70.3409 174.936C70.1595 174.68 69.9249 174.483 69.6369 174.344C69.3595 174.195 69.0502 174.12 68.7089 174.12C68.1862 174.12 67.7435 174.221 67.3809 174.424C67.0289 174.627 66.7622 174.92 66.5809 175.304C66.3995 175.677 66.3089 176.147 66.3089 176.712C66.3089 177.256 66.4209 177.731 66.6449 178.136C66.8795 178.541 67.2049 178.856 67.6209 179.08C68.0475 179.293 68.5435 179.4 69.1089 179.4C69.5035 179.4 69.8662 179.336 70.1969 179.208C70.5275 179.08 70.8849 178.851 71.2689 178.52L72.2449 179.88C71.9569 180.147 71.6262 180.376 71.2529 180.568C70.8902 180.749 70.5062 180.893 70.1009 181C69.6955 181.107 69.2955 181.16 68.9009 181.16ZM74.3239 181V172.568H76.2599L76.2919 175.256L76.0199 174.648C76.1372 174.221 76.3399 173.837 76.6279 173.496C76.9159 173.155 77.2465 172.888 77.6199 172.696C78.0039 172.493 78.4039 172.392 78.8199 172.392C79.0012 172.392 79.1719 172.408 79.3319 172.44C79.5025 172.472 79.6412 172.509 79.7479 172.552L79.2199 174.712C79.1025 174.648 78.9585 174.595 78.7879 174.552C78.6172 174.509 78.4465 174.488 78.2759 174.488C78.0092 174.488 77.7532 174.541 77.5079 174.648C77.2732 174.744 77.0652 174.883 76.8839 175.064C76.7025 175.245 76.5585 175.459 76.4519 175.704C76.3559 175.939 76.3079 176.205 76.3079 176.504V181H74.3239Z" fill="#1A1A1A"></path><path d="M364.582 181V169.8H369.078C369.889 169.8 370.619 169.933 371.27 170.2C371.931 170.467 372.497 170.851 372.966 171.352C373.446 171.853 373.809 172.445 374.054 173.128C374.31 173.811 374.438 174.568 374.438 175.4C374.438 176.232 374.31 176.995 374.054 177.688C373.809 178.371 373.451 178.963 372.982 179.464C372.513 179.955 371.947 180.333 371.286 180.6C370.625 180.867 369.889 181 369.078 181H364.582ZM366.662 179.384L366.502 179.08H368.998C369.521 179.08 369.985 178.995 370.39 178.824C370.806 178.653 371.158 178.408 371.446 178.088C371.734 177.768 371.953 177.384 372.102 176.936C372.251 176.477 372.326 175.965 372.326 175.4C372.326 174.835 372.251 174.328 372.102 173.88C371.953 173.421 371.729 173.032 371.43 172.712C371.142 172.392 370.795 172.147 370.39 171.976C369.985 171.805 369.521 171.72 368.998 171.72H366.454L366.662 171.448V179.384ZM380.292 181.16C379.406 181.16 378.622 180.973 377.94 180.6C377.268 180.227 376.74 179.72 376.356 179.08C375.982 178.429 375.796 177.688 375.796 176.856C375.796 176.195 375.902 175.592 376.116 175.048C376.329 174.504 376.622 174.035 376.996 173.64C377.38 173.235 377.833 172.925 378.356 172.712C378.889 172.488 379.47 172.376 380.1 172.376C380.654 172.376 381.172 172.483 381.652 172.696C382.132 172.909 382.548 173.203 382.9 173.576C383.252 173.939 383.518 174.376 383.7 174.888C383.892 175.389 383.982 175.939 383.972 176.536L383.956 177.224H377.124L376.756 175.88H382.308L382.052 176.152V175.8C382.02 175.469 381.913 175.181 381.732 174.936C381.55 174.68 381.316 174.483 381.028 174.344C380.75 174.195 380.441 174.12 380.1 174.12C379.577 174.12 379.134 174.221 378.772 174.424C378.42 174.627 378.153 174.92 377.972 175.304C377.79 175.677 377.7 176.147 377.7 176.712C377.7 177.256 377.812 177.731 378.036 178.136C378.27 178.541 378.596 178.856 379.012 179.08C379.438 179.293 379.934 179.4 380.5 179.4C380.894 179.4 381.257 179.336 381.588 179.208C381.918 179.08 382.276 178.851 382.66 178.52L383.635 179.88C383.348 180.147 383.017 180.376 382.644 180.568C382.281 180.749 381.897 180.893 381.492 181C381.086 181.107 380.686 181.16 380.292 181.16ZM386.627 181V170.424H388.595V181H386.627ZM384.963 174.392V172.568H390.435V174.392H384.963ZM395.807 181.16C394.922 181.16 394.138 180.973 393.455 180.6C392.783 180.227 392.255 179.72 391.871 179.08C391.498 178.429 391.311 177.688 391.311 176.856C391.311 176.195 391.418 175.592 391.631 175.048C391.844 174.504 392.138 174.035 392.511 173.64C392.895 173.235 393.348 172.925 393.871 172.712C394.404 172.488 394.986 172.376 395.615 172.376C396.17 172.376 396.687 172.483 397.167 172.696C397.647 172.909 398.063 173.203 398.415 173.576C398.767 173.939 399.034 174.376 399.215 174.888C399.407 175.389 399.498 175.939 399.487 176.536L399.471 177.224H392.639L392.271 175.88H397.823L397.567 176.152V175.8C397.535 175.469 397.428 175.181 397.247 174.936C397.066 174.68 396.831 174.483 396.543 174.344C396.266 174.195 395.956 174.12 395.615 174.12C395.092 174.12 394.65 174.221 394.287 174.424C393.935 174.627 393.668 174.92 393.487 175.304C393.306 175.677 393.215 176.147 393.215 176.712C393.215 177.256 393.327 177.731 393.551 178.136C393.786 178.541 394.111 178.856 394.527 179.08C394.954 179.293 395.45 179.4 396.015 179.4C396.41 179.4 396.772 179.336 397.103 179.208C397.434 179.08 397.791 178.851 398.175 178.52L399.151 179.88C398.863 180.147 398.532 180.376 398.159 180.568C397.796 180.749 397.412 180.893 397.007 181C396.602 181.107 396.202 181.16 395.807 181.16ZM404.846 181.16C404.057 181.16 403.347 180.968 402.718 180.584C402.089 180.2 401.593 179.677 401.23 179.016C400.867 178.355 400.686 177.608 400.686 176.776C400.686 175.944 400.867 175.197 401.23 174.536C401.593 173.875 402.089 173.352 402.718 172.968C403.347 172.584 404.057 172.392 404.846 172.392C405.603 172.392 406.291 172.536 406.91 172.824C407.529 173.112 408.009 173.512 408.35 174.024L407.262 175.336C407.102 175.112 406.899 174.909 406.654 174.728C406.409 174.547 406.147 174.403 405.87 174.296C405.593 174.189 405.315 174.136 405.038 174.136C404.569 174.136 404.147 174.253 403.774 174.488C403.411 174.712 403.123 175.027 402.91 175.432C402.697 175.827 402.59 176.275 402.59 176.776C402.59 177.277 402.697 177.725 402.91 178.12C403.134 178.515 403.433 178.829 403.806 179.064C404.179 179.299 404.595 179.416 405.054 179.416C405.331 179.416 405.598 179.373 405.854 179.288C406.121 179.192 406.371 179.059 406.606 178.888C406.841 178.717 407.059 178.504 407.262 178.248L408.35 179.576C407.987 180.045 407.486 180.429 406.846 180.728C406.217 181.016 405.55 181.16 404.846 181.16ZM410.767 181V170.424H412.735V181H410.767ZM409.103 174.392V172.568H414.575V174.392H409.103Z" fill="#1A1A1A"></path></svg>