<svg xmlns="http://www.w3.org/2000/svg" width="173" height="89" viewBox="0 0 173 89" fill="none"><path d="M0.216797 0H151.274L170.838 40.9672C171.796 42.9722 171.796 45.3024 170.838 47.3073L151.274 88.2746H0.216797L19.7807 47.3073C20.7382 45.3024 20.7382 42.9722 19.7807 40.9672L0.216797 0Z" fill="#E7BD41"></path><path d="M86.3004 31.2804C86.5841 31.2804 86.7968 31.0676 86.7968 30.7839V29.5073C87.2933 29.2945 87.6479 28.7981 87.6479 28.2307C87.6479 27.486 87.0451 26.8832 86.3004 26.8832C85.5557 26.8832 84.9529 27.486 84.9529 28.2307C84.9529 28.7981 85.3075 29.2945 85.8039 29.5073V30.7839C85.8039 31.0321 86.0167 31.2804 86.3004 31.2804ZM85.9458 28.1953C85.9458 27.9825 86.1231 27.8406 86.3004 27.8406C86.5132 27.8406 86.655 28.0179 86.655 28.1953C86.655 28.408 86.4777 28.5499 86.3004 28.5499C86.1231 28.5853 85.9458 28.408 85.9458 28.1953Z" fill="white"></path><path d="M94.1373 27.557C93.499 27.557 92.9316 27.9825 92.7188 28.5499H90.7685C90.8749 28.1598 90.9812 27.7343 91.0167 27.3087H92.0805C92.3642 27.3087 92.577 27.096 92.577 26.8123V24.8265C93.1444 24.6137 93.5699 24.0463 93.5699 23.408C93.5699 22.5924 92.8961 21.9187 92.0805 21.9187C91.2649 21.9187 90.5912 22.5924 90.5912 23.408C90.5912 24.0463 91.0167 24.6137 91.5841 24.8265V26.3158H91.1231C91.1231 26.0676 91.1585 25.8194 91.1585 25.5711C91.1585 25.2875 90.9458 25.0747 90.6976 25.0747C90.4139 25.0747 90.0947 25.0392 89.811 24.9683V24.7555C89.811 23.7626 89.4564 22.8052 88.7827 22.096C88.1089 21.3867 87.2224 20.9612 86.2649 20.9612C84.3146 20.9612 82.7188 22.6633 82.7188 24.7555V24.9683C82.4351 25.0038 82.1869 25.0392 81.9032 25.0392C81.6195 25.0392 81.4422 25.2875 81.4422 25.5357C81.4422 25.7839 81.4422 26.0321 81.4777 26.2804H80.9812V24.791C81.5486 24.5782 81.9742 24.0109 81.9742 23.3726C81.9742 22.557 81.3004 21.8832 80.4848 21.8832C79.6692 21.8832 78.9954 22.557 78.9954 23.3726C78.9954 24.0463 79.421 24.6137 80.0238 24.791V26.7768C80.0238 27.0605 80.2366 27.2733 80.5203 27.2733H81.5841C81.655 27.6988 81.7259 28.0889 81.8323 28.5144H79.882C79.6692 27.947 79.1018 27.5215 78.4635 27.5215C77.6479 27.5215 76.9742 28.1953 76.9742 29.0109C76.9742 29.8265 77.6479 30.5002 78.4635 30.5002C79.1018 30.5002 79.6692 30.0747 79.882 29.5073H82.1515C82.2933 29.8974 82.4706 30.2874 82.6834 30.6775C82.6834 30.713 82.7188 30.713 82.7188 30.7484H80.4848C80.2011 30.7484 79.9883 30.9612 79.9883 31.2449V32.557C79.3855 32.7697 78.96 33.3371 78.96 33.9754C78.96 34.791 79.6337 35.4647 80.4493 35.4647C81.2649 35.4647 81.9387 34.791 81.9387 33.9754C81.9387 33.3371 81.5132 32.7697 80.9458 32.557V31.7413H83.2862C84.0309 32.8052 84.9529 33.7272 85.9812 34.4009C86.194 34.5428 86.4068 34.4718 86.5486 34.4009C87.6124 33.6917 88.499 32.8052 89.2437 31.7413H91.5841V32.557C91.0167 32.7697 90.5912 33.3371 90.5912 33.9754C90.5912 34.791 91.2649 35.4647 92.0805 35.4647C92.8961 35.4647 93.5699 34.791 93.5699 33.9754C93.5699 33.3371 93.1444 32.7697 92.577 32.557V31.2449C92.577 30.9612 92.3642 30.7484 92.0805 30.7484H89.8465C89.8465 30.713 89.882 30.713 89.882 30.6775C90.0947 30.2874 90.272 29.8974 90.4139 29.5073H92.6834C92.8961 30.1101 93.4635 30.5357 94.1018 30.5357C94.9174 30.5357 95.5912 29.8619 95.5912 29.0463C95.6621 28.2307 94.9883 27.557 94.1373 27.557ZM92.6479 23.3726C92.6479 23.6562 92.4351 23.869 92.1515 23.869C91.8678 23.869 91.655 23.6562 91.655 23.3726C91.655 23.0889 91.8678 22.8761 92.1515 22.8761C92.4351 22.8761 92.6479 23.1243 92.6479 23.3726ZM80.4493 22.8761C80.733 22.8761 80.9458 23.0889 80.9458 23.3726C80.9458 23.6562 80.733 23.869 80.4493 23.869C80.1656 23.869 79.9529 23.6562 79.9529 23.3726C79.9529 23.0889 80.2011 22.8761 80.4493 22.8761ZM78.96 29.0463C78.96 29.33 78.7472 29.5428 78.4635 29.5428C78.1798 29.5428 77.9671 29.33 77.9671 29.0463C77.9671 28.7626 78.1798 28.5499 78.4635 28.5499C78.7472 28.5499 78.96 28.7626 78.96 29.0463ZM79.9529 34.0108C79.9529 33.7272 80.1656 33.5144 80.4493 33.5144C80.733 33.5144 80.9458 33.7272 80.9458 34.0108C80.9458 34.2945 80.733 34.5073 80.4493 34.5073C80.1656 34.5073 79.9529 34.2945 79.9529 34.0108ZM92.1515 34.5073C91.8678 34.5073 91.655 34.2945 91.655 34.0108C91.655 33.7272 91.8678 33.5144 92.1515 33.5144C92.4351 33.5144 92.6479 33.7272 92.6479 34.0108C92.6479 34.2945 92.3997 34.5073 92.1515 34.5073ZM86.3004 33.408C83.9954 31.7413 82.577 29.0109 82.4351 25.9967C82.8252 25.9612 84.7046 25.6421 86.3004 24.6846C88.0025 25.7484 89.882 25.9967 90.1656 25.9967C90.0593 29.0109 88.6408 31.7413 86.3004 33.408ZM86.2649 21.9541C86.9387 21.9541 87.577 22.2378 88.038 22.7697C88.5344 23.3016 88.7827 23.9754 88.7827 24.7201C88.0025 24.4718 87.2578 24.1172 86.5486 23.6562C86.3713 23.5499 86.1585 23.5499 85.9812 23.6562C85.272 24.1172 84.5273 24.4718 83.7117 24.7201H83.6763C83.7117 23.1953 84.882 21.9541 86.2649 21.9541ZM94.1373 29.5428C93.8536 29.5428 93.6408 29.33 93.6408 29.0463C93.6408 28.7626 93.8536 28.5499 94.1373 28.5499C94.421 28.5499 94.6337 28.7626 94.6337 29.0463C94.6337 29.33 94.421 29.5428 94.1373 29.5428Z" fill="white"></path><path d="M102.045 37.4151C101.832 37.0605 101.513 36.8477 101.159 36.8477H99.9174V20.8194C99.9174 19.6137 98.9245 18.6562 97.7543 18.6562H74.8465C73.6408 18.6562 72.6834 19.6492 72.6834 20.8194V36.8477H71.4068C71.0522 36.8477 70.733 37.0605 70.5203 37.4151C70.2366 37.9116 70.1656 38.7272 70.5557 39.3655C70.5557 39.4009 70.5912 39.4364 70.6266 39.4364C72.9316 41.8832 73.0734 41.8832 73.3217 41.8832H99.2791C99.5273 41.8832 99.6337 41.8832 101.974 39.4364C102.01 39.4009 102.01 39.4009 102.045 39.3655C102.4 38.7272 102.329 37.9116 102.045 37.4151ZM73.6763 20.8194C73.6763 20.1811 74.2082 19.6492 74.8465 19.6492H97.7897C98.428 19.6492 98.96 20.1811 98.96 20.8194V36.8477H73.6763V20.8194ZM89.1373 37.8406V38.3016C89.1373 38.6208 88.889 38.869 88.5699 38.869H83.9954C83.6763 38.869 83.4281 38.6208 83.4281 38.3016V37.8406H89.1373ZM101.194 38.7626C100.378 39.6491 99.4564 40.6066 99.1373 40.8548H73.4635C73.1444 40.5711 72.2224 39.6137 71.4068 38.7626C71.2295 38.4435 71.3359 37.947 71.4422 37.8052H82.4351V38.2662C82.4351 39.1172 83.1444 39.8265 83.9954 39.8265H88.5699C89.421 39.8265 90.1302 39.1172 90.1302 38.2662V37.8052H101.123C101.265 37.947 101.371 38.4435 101.194 38.7626Z" fill="white"></path><path d="M59.7692 67.7407L64.2012 56.5407H66.5052L70.9052 67.7407H68.1532L66.0412 62.0607C65.9558 61.8367 65.8705 61.5967 65.7852 61.3407C65.6998 61.0847 65.6145 60.8234 65.5292 60.5567C65.4438 60.2794 65.3585 60.0127 65.2732 59.7567C65.1985 59.4901 65.1345 59.2447 65.0812 59.0207L65.5612 59.0047C65.4972 59.2714 65.4225 59.5327 65.3372 59.7887C65.2625 60.0447 65.1825 60.3007 65.0972 60.5567C65.0225 60.8021 64.9372 61.0527 64.8412 61.3087C64.7452 61.5541 64.6545 61.8101 64.5692 62.0767L62.4572 67.7407H59.7692ZM61.8812 65.5967L62.7292 63.5487H67.8812L68.7132 65.5967H61.8812ZM74.8945 67.9007C74.0625 67.9007 73.3265 67.7674 72.6865 67.5007C72.0572 67.2341 71.5559 66.8767 71.1825 66.4287L72.7345 65.0847C73.0652 65.4154 73.4385 65.6607 73.8545 65.8207C74.2705 65.9701 74.6652 66.0447 75.0385 66.0447C75.1879 66.0447 75.3212 66.0287 75.4385 65.9967C75.5559 65.9647 75.6519 65.9221 75.7265 65.8687C75.8119 65.8047 75.8759 65.7354 75.9185 65.6607C75.9612 65.5754 75.9825 65.4794 75.9825 65.3727C75.9825 65.1594 75.8865 64.9941 75.6945 64.8767C75.5985 64.8234 75.4385 64.7594 75.2145 64.6847C74.9905 64.6101 74.7025 64.5247 74.3505 64.4287C73.8492 64.3007 73.4119 64.1514 73.0385 63.9807C72.6759 63.7994 72.3772 63.5914 72.1425 63.3567C71.9292 63.1327 71.7639 62.8874 71.6465 62.6207C71.5292 62.3434 71.4705 62.0341 71.4705 61.6927C71.4705 61.2981 71.5612 60.9407 71.7425 60.6207C71.9345 60.3007 72.1852 60.0234 72.4945 59.7887C72.8145 59.5541 73.1772 59.3781 73.5825 59.2607C73.9985 59.1327 74.4252 59.0687 74.8625 59.0687C75.3319 59.0687 75.7799 59.1221 76.2065 59.2287C76.6332 59.3354 77.0279 59.4847 77.3905 59.6767C77.7639 59.8687 78.0945 60.0981 78.3825 60.3647L77.0385 61.8687C76.8465 61.6874 76.6279 61.5274 76.3825 61.3887C76.1479 61.2394 75.9025 61.1221 75.6465 61.0367C75.3905 60.9514 75.1559 60.9087 74.9425 60.9087C74.7825 60.9087 74.6385 60.9247 74.5105 60.9567C74.3932 60.9781 74.2919 61.0207 74.2065 61.0847C74.1212 61.1381 74.0572 61.2074 74.0145 61.2927C73.9719 61.3674 73.9505 61.4581 73.9505 61.5647C73.9505 61.6714 73.9772 61.7727 74.0305 61.8687C74.0945 61.9647 74.1799 62.0447 74.2865 62.1087C74.3932 62.1727 74.5639 62.2474 74.7985 62.3327C75.0332 62.4074 75.3532 62.5034 75.7585 62.6207C76.2599 62.7594 76.6919 62.9141 77.0545 63.0847C77.4172 63.2554 77.7052 63.4581 77.9185 63.6927C78.0892 63.8741 78.2172 64.0874 78.3025 64.3327C78.3879 64.5674 78.4305 64.8234 78.4305 65.1007C78.4305 65.6447 78.2759 66.1301 77.9665 66.5567C77.6679 66.9727 77.2519 67.3034 76.7185 67.5487C76.1852 67.7834 75.5772 67.9007 74.8945 67.9007ZM82.8164 67.9007C81.9844 67.9007 81.2484 67.7674 80.6084 67.5007C79.9791 67.2341 79.4777 66.8767 79.1044 66.4287L80.6564 65.0847C80.9871 65.4154 81.3604 65.6607 81.7764 65.8207C82.1924 65.9701 82.5871 66.0447 82.9604 66.0447C83.1097 66.0447 83.2431 66.0287 83.3604 65.9967C83.4777 65.9647 83.5737 65.9221 83.6484 65.8687C83.7337 65.8047 83.7977 65.7354 83.8404 65.6607C83.8831 65.5754 83.9044 65.4794 83.9044 65.3727C83.9044 65.1594 83.8084 64.9941 83.6164 64.8767C83.5204 64.8234 83.3604 64.7594 83.1364 64.6847C82.9124 64.6101 82.6244 64.5247 82.2724 64.4287C81.7711 64.3007 81.3337 64.1514 80.9604 63.9807C80.5977 63.7994 80.2991 63.5914 80.0644 63.3567C79.8511 63.1327 79.6857 62.8874 79.5684 62.6207C79.4511 62.3434 79.3924 62.0341 79.3924 61.6927C79.3924 61.2981 79.4831 60.9407 79.6644 60.6207C79.8564 60.3007 80.1071 60.0234 80.4164 59.7887C80.7364 59.5541 81.0991 59.3781 81.5044 59.2607C81.9204 59.1327 82.3471 59.0687 82.7844 59.0687C83.2537 59.0687 83.7017 59.1221 84.1284 59.2287C84.5551 59.3354 84.9497 59.4847 85.3124 59.6767C85.6857 59.8687 86.0164 60.0981 86.3044 60.3647L84.9604 61.8687C84.7684 61.6874 84.5497 61.5274 84.3044 61.3887C84.0697 61.2394 83.8244 61.1221 83.5684 61.0367C83.3124 60.9514 83.0777 60.9087 82.8644 60.9087C82.7044 60.9087 82.5604 60.9247 82.4324 60.9567C82.3151 60.9781 82.2137 61.0207 82.1284 61.0847C82.0431 61.1381 81.9791 61.2074 81.9364 61.2927C81.8937 61.3674 81.8724 61.4581 81.8724 61.5647C81.8724 61.6714 81.8991 61.7727 81.9524 61.8687C82.0164 61.9647 82.1017 62.0447 82.2084 62.1087C82.3151 62.1727 82.4857 62.2474 82.7204 62.3327C82.9551 62.4074 83.2751 62.5034 83.6804 62.6207C84.1817 62.7594 84.6137 62.9141 84.9764 63.0847C85.3391 63.2554 85.6271 63.4581 85.8404 63.6927C86.0111 63.8741 86.1391 64.0874 86.2244 64.3327C86.3097 64.5674 86.3524 64.8234 86.3524 65.1007C86.3524 65.6447 86.1977 66.1301 85.8884 66.5567C85.5897 66.9727 85.1737 67.3034 84.6404 67.5487C84.1071 67.7834 83.4991 67.9007 82.8164 67.9007ZM91.9223 67.9007C90.9836 67.9007 90.1676 67.7141 89.4743 67.3407C88.7809 66.9567 88.2423 66.4394 87.8583 65.7887C87.4743 65.1274 87.2823 64.3754 87.2823 63.5327C87.2823 62.8821 87.3889 62.2847 87.6023 61.7407C87.8156 61.1967 88.1143 60.7274 88.4983 60.3327C88.8823 59.9274 89.3356 59.6181 89.8583 59.4047C90.3916 59.1807 90.9729 59.0687 91.6023 59.0687C92.1996 59.0687 92.7436 59.1754 93.2343 59.3887C93.7356 59.6021 94.1676 59.9007 94.5303 60.2847C94.8929 60.6687 95.1703 61.1221 95.3623 61.6447C95.5543 62.1674 95.6396 62.7381 95.6183 63.3567L95.6023 64.0447H88.8343L88.4663 62.6047H93.5223L93.2503 62.9087V62.5887C93.2289 62.3221 93.1436 62.0874 92.9943 61.8847C92.8556 61.6714 92.6689 61.5061 92.4343 61.3887C92.1996 61.2714 91.9329 61.2127 91.6343 61.2127C91.2183 61.2127 90.8609 61.2981 90.5623 61.4687C90.2743 61.6287 90.0556 61.8687 89.9063 62.1887C89.7569 62.4981 89.6823 62.8821 89.6823 63.3407C89.6823 63.8101 89.7783 64.2207 89.9703 64.5727C90.1729 64.9141 90.4609 65.1807 90.8343 65.3727C91.2183 65.5647 91.6716 65.6607 92.1943 65.6607C92.5569 65.6607 92.8769 65.6074 93.1543 65.5007C93.4423 65.3941 93.7516 65.2127 94.0823 64.9567L95.2823 66.6527C94.9516 66.9407 94.5996 67.1754 94.2263 67.3567C93.8529 67.5381 93.4689 67.6714 93.0743 67.7567C92.6903 67.8527 92.3063 67.9007 91.9223 67.9007ZM100.113 67.9007C99.2813 67.9007 98.5453 67.7674 97.9053 67.5007C97.2759 67.2341 96.7746 66.8767 96.4013 66.4287L97.9533 65.0847C98.2839 65.4154 98.6573 65.6607 99.0733 65.8207C99.4893 65.9701 99.8839 66.0447 100.257 66.0447C100.407 66.0447 100.54 66.0287 100.657 65.9967C100.775 65.9647 100.871 65.9221 100.945 65.8687C101.031 65.8047 101.095 65.7354 101.137 65.6607C101.18 65.5754 101.201 65.4794 101.201 65.3727C101.201 65.1594 101.105 64.9941 100.913 64.8767C100.817 64.8234 100.657 64.7594 100.433 64.6847C100.209 64.6101 99.9213 64.5247 99.5693 64.4287C99.0679 64.3007 98.6306 64.1514 98.2573 63.9807C97.8946 63.7994 97.5959 63.5914 97.3613 63.3567C97.1479 63.1327 96.9826 62.8874 96.8653 62.6207C96.7479 62.3434 96.6893 62.0341 96.6893 61.6927C96.6893 61.2981 96.7799 60.9407 96.9613 60.6207C97.1533 60.3007 97.4039 60.0234 97.7133 59.7887C98.0333 59.5541 98.3959 59.3781 98.8013 59.2607C99.2173 59.1327 99.6439 59.0687 100.081 59.0687C100.551 59.0687 100.999 59.1221 101.425 59.2287C101.852 59.3354 102.247 59.4847 102.609 59.6767C102.983 59.8687 103.313 60.0981 103.601 60.3647L102.257 61.8687C102.065 61.6874 101.847 61.5274 101.601 61.3887C101.367 61.2394 101.121 61.1221 100.865 61.0367C100.609 60.9514 100.375 60.9087 100.161 60.9087C100.001 60.9087 99.8573 60.9247 99.7293 60.9567C99.6119 60.9781 99.5106 61.0207 99.4253 61.0847C99.3399 61.1381 99.2759 61.2074 99.2333 61.2927C99.1906 61.3674 99.1693 61.4581 99.1693 61.5647C99.1693 61.6714 99.1959 61.7727 99.2493 61.8687C99.3133 61.9647 99.3986 62.0447 99.5053 62.1087C99.6119 62.1727 99.7826 62.2474 100.017 62.3327C100.252 62.4074 100.572 62.5034 100.977 62.6207C101.479 62.7594 101.911 62.9141 102.273 63.0847C102.636 63.2554 102.924 63.4581 103.137 63.6927C103.308 63.8741 103.436 64.0874 103.521 64.3327C103.607 64.5674 103.649 64.8234 103.649 65.1007C103.649 65.6447 103.495 66.1301 103.185 66.5567C102.887 66.9727 102.471 67.3034 101.937 67.5487C101.404 67.7834 100.796 67.9007 100.113 67.9007ZM108.035 67.9007C107.203 67.9007 106.467 67.7674 105.827 67.5007C105.198 67.2341 104.696 66.8767 104.323 66.4287L105.875 65.0847C106.206 65.4154 106.579 65.6607 106.995 65.8207C107.411 65.9701 107.806 66.0447 108.179 66.0447C108.328 66.0447 108.462 66.0287 108.579 65.9967C108.696 65.9647 108.792 65.9221 108.867 65.8687C108.952 65.8047 109.016 65.7354 109.059 65.6607C109.102 65.5754 109.123 65.4794 109.123 65.3727C109.123 65.1594 109.027 64.9941 108.835 64.8767C108.739 64.8234 108.579 64.7594 108.355 64.6847C108.131 64.6101 107.843 64.5247 107.491 64.4287C106.99 64.3007 106.552 64.1514 106.179 63.9807C105.816 63.7994 105.518 63.5914 105.283 63.3567C105.07 63.1327 104.904 62.8874 104.787 62.6207C104.67 62.3434 104.611 62.0341 104.611 61.6927C104.611 61.2981 104.702 60.9407 104.883 60.6207C105.075 60.3007 105.326 60.0234 105.635 59.7887C105.955 59.5541 106.318 59.3781 106.723 59.2607C107.139 59.1327 107.566 59.0687 108.003 59.0687C108.472 59.0687 108.92 59.1221 109.347 59.2287C109.774 59.3354 110.168 59.4847 110.531 59.6767C110.904 59.8687 111.235 60.0981 111.523 60.3647L110.179 61.8687C109.987 61.6874 109.768 61.5274 109.523 61.3887C109.288 61.2394 109.043 61.1221 108.787 61.0367C108.531 60.9514 108.296 60.9087 108.083 60.9087C107.923 60.9087 107.779 60.9247 107.651 60.9567C107.534 60.9781 107.432 61.0207 107.347 61.0847C107.262 61.1381 107.198 61.2074 107.155 61.2927C107.112 61.3674 107.091 61.4581 107.091 61.5647C107.091 61.6714 107.118 61.7727 107.171 61.8687C107.235 61.9647 107.32 62.0447 107.427 62.1087C107.534 62.1727 107.704 62.2474 107.939 62.3327C108.174 62.4074 108.494 62.5034 108.899 62.6207C109.4 62.7594 109.832 62.9141 110.195 63.0847C110.558 63.2554 110.846 63.4581 111.059 63.6927C111.23 63.8741 111.358 64.0874 111.443 64.3327C111.528 64.5674 111.571 64.8234 111.571 65.1007C111.571 65.6447 111.416 66.1301 111.107 66.5567C110.808 66.9727 110.392 67.3034 109.859 67.5487C109.326 67.7834 108.718 67.9007 108.035 67.9007Z" fill="#FBFDFA"></path></svg>