<svg xmlns="http://www.w3.org/2000/svg" width="173" height="89" viewBox="0 0 173 89" fill="none"><path d="M0.865234 0H151.923L171.487 40.9672C172.444 42.9722 172.444 45.3024 171.487 47.3073L151.923 88.2746H0.865234L20.4292 47.3073C21.3866 45.3024 21.3866 42.9722 20.4292 40.9672L0.865234 0Z" fill="#6C7648"></path><path d="M86.933 46.2695C86.8505 46.2704 86.7689 46.2521 86.6946 46.2162L84.5079 45.1228C81.2219 43.4936 78.4581 40.9761 76.5301 37.856C74.602 34.7359 73.5869 31.1379 73.5997 27.4701V19.0696C73.5997 18.9577 73.6349 18.8485 73.7004 18.7577C73.7659 18.6668 73.8583 18.5989 73.9645 18.5635L86.7645 14.2969C86.8739 14.2604 86.9921 14.2604 87.1015 14.2969L99.9015 18.5635C100.008 18.5989 100.1 18.6668 100.166 18.7577C100.231 18.8485 100.266 18.9577 100.266 19.0696V27.4701C100.279 31.1374 99.2632 34.7348 97.3352 37.8545C95.4072 40.9741 92.6437 43.4911 89.3581 45.1202L87.1714 46.2135C87.0973 46.2504 87.0157 46.2696 86.933 46.2695ZM74.6664 19.4542V27.4701C74.6552 30.9388 75.616 34.3412 77.4398 37.2917C79.2636 40.2422 81.8776 42.6227 84.9853 44.1634L86.933 45.1399L88.8807 44.166C91.9889 42.6252 94.6031 40.2443 96.427 37.2933C98.2508 34.3423 99.2114 30.9392 99.1996 27.4701V19.4542L86.933 15.3651L74.6664 19.4542Z" fill="white"></path><path d="M86.933 42.6919C86.8503 42.692 86.7686 42.6728 86.6946 42.6359L85.9389 42.2578C83.186 40.893 80.8706 38.7842 79.2553 36.1705C77.6399 33.5568 76.7892 30.5427 76.7997 27.4701V21.3763C76.7997 21.2643 76.8349 21.1552 76.9004 21.0643C76.9659 20.9735 77.0583 20.9055 77.1645 20.8702L86.7645 17.6702C86.8739 17.6337 86.9921 17.6337 87.1015 17.6702L96.7015 20.8702C96.8077 20.9055 96.9001 20.9735 96.9656 21.0643C97.0311 21.1552 97.0663 21.2643 97.0663 21.3763V27.4701C97.0768 30.5428 96.226 33.5569 94.6106 36.1706C92.9951 38.7844 90.6796 40.8931 87.9266 42.2578L87.1714 42.6359C87.0973 42.6728 87.0157 42.692 86.933 42.6919ZM77.8664 21.7603V27.4701C77.8567 30.3445 78.6525 33.1641 80.1637 35.6091C81.6749 38.0542 83.8409 40.0269 86.4162 41.3037L86.933 41.5623L87.4498 41.3037C90.0251 40.027 92.1912 38.0543 93.7024 35.6092C95.2135 33.1641 96.0094 30.3445 95.9996 27.4701V21.7603L86.933 18.7384L77.8664 21.7603Z" fill="white"></path><path d="M85.8663 35.0696C85.7249 35.0695 85.5893 35.0133 85.4893 34.9133L80.964 30.388C80.864 30.288 80.8078 30.1523 80.8078 30.0109C80.8078 29.8695 80.864 29.7339 80.964 29.6338L82.4722 28.1251C82.5722 28.0251 82.7079 27.9689 82.8493 27.9689C82.9907 27.9689 83.1263 28.0251 83.2263 28.1251L85.8663 30.765L91.8354 24.796C91.9354 24.696 92.071 24.6399 92.2124 24.6399C92.3539 24.6399 92.4895 24.696 92.5895 24.796L94.0983 26.3043C94.1983 26.4043 94.2544 26.5399 94.2544 26.6813C94.2544 26.8228 94.1983 26.9584 94.0983 27.0584L86.2434 34.9133C86.1434 35.0133 86.0078 35.0695 85.8663 35.0696ZM82.0952 30.0109L85.8663 33.7821L92.9666 26.6813L92.213 25.9272L86.2434 31.8962C86.1434 31.9962 86.0078 32.0524 85.8663 32.0524C85.7249 32.0524 85.5893 31.9962 85.4893 31.8962L82.8493 29.2563L82.0952 30.0109Z" fill="white"></path><path d="M42.9296 67.9007C42.0869 67.9007 41.3083 67.7621 40.5936 67.4847C39.8896 67.1967 39.2763 66.7967 38.7536 66.2847C38.2309 65.7621 37.8256 65.1487 37.5376 64.4447C37.2603 63.7301 37.1216 62.9461 37.1216 62.0927C37.1216 61.2607 37.2709 60.4927 37.5696 59.7887C37.8683 59.0847 38.2789 58.4767 38.8016 57.9647C39.3349 57.4421 39.9589 57.0367 40.6736 56.7487C41.3989 56.4607 42.1883 56.3167 43.0416 56.3167C43.5749 56.3167 44.0976 56.3861 44.6096 56.5247C45.1216 56.6634 45.5963 56.8714 46.0336 57.1487C46.4816 57.4154 46.8656 57.7354 47.1856 58.1087L45.5216 60.0127C45.2976 59.7781 45.0576 59.5754 44.8016 59.4047C44.5563 59.2234 44.2843 59.0847 43.9856 58.9887C43.6869 58.8927 43.3669 58.8447 43.0256 58.8447C42.5989 58.8447 42.1936 58.9247 41.8096 59.0847C41.4363 59.2341 41.1056 59.4527 40.8176 59.7407C40.5403 60.0181 40.3216 60.3594 40.1616 60.7647C40.0016 61.1701 39.9216 61.6234 39.9216 62.1247C39.9216 62.6154 40.0016 63.0634 40.1616 63.4687C40.3216 63.8634 40.5456 64.2047 40.8336 64.4927C41.1216 64.7807 41.4683 64.9994 41.8736 65.1487C42.2896 65.2981 42.7483 65.3727 43.2496 65.3727C43.5909 65.3727 43.9163 65.3247 44.2256 65.2287C44.5349 65.1327 44.8176 65.0047 45.0736 64.8447C45.3403 64.6741 45.5749 64.4821 45.7776 64.2687L47.0896 66.3487C46.8229 66.6474 46.4656 66.9141 46.0176 67.1487C45.5803 67.3834 45.0896 67.5701 44.5456 67.7087C44.0123 67.8367 43.4736 67.9007 42.9296 67.9007ZM52.679 67.9007C51.7936 67.9007 51.0043 67.7087 50.311 67.3247C49.6283 66.9407 49.0843 66.4181 48.679 65.7567C48.2843 65.0954 48.087 64.3381 48.087 63.4847C48.087 62.6314 48.2843 61.8741 48.679 61.2127C49.0843 60.5514 49.6283 60.0287 50.311 59.6447C51.0043 59.2607 51.7936 59.0687 52.679 59.0687C53.5643 59.0687 54.3483 59.2607 55.031 59.6447C55.7243 60.0287 56.2683 60.5514 56.663 61.2127C57.0576 61.8741 57.255 62.6314 57.255 63.4847C57.255 64.3381 57.0576 65.0954 56.663 65.7567C56.2683 66.4181 55.7243 66.9407 55.031 67.3247C54.3483 67.7087 53.5643 67.9007 52.679 67.9007ZM52.679 65.6927C53.063 65.6927 53.4043 65.5967 53.703 65.4047C54.0016 65.2127 54.2363 64.9514 54.407 64.6207C54.5776 64.2901 54.6576 63.9114 54.647 63.4847C54.6576 63.0581 54.5776 62.6794 54.407 62.3487C54.2363 62.0074 54.0016 61.7407 53.703 61.5487C53.4043 61.3567 53.063 61.2607 52.679 61.2607C52.295 61.2607 51.9483 61.3567 51.639 61.5487C51.3403 61.7407 51.1056 62.0074 50.935 62.3487C50.7643 62.6794 50.6843 63.0581 50.695 63.4847C50.6843 63.9114 50.7643 64.2901 50.935 64.6207C51.1056 64.9514 51.3403 65.2127 51.639 65.4047C51.9483 65.5967 52.295 65.6927 52.679 65.6927ZM62.929 67.9007C62.0436 67.9007 61.2543 67.7087 60.561 67.3247C59.8783 66.9407 59.3343 66.4181 58.929 65.7567C58.5343 65.0954 58.337 64.3381 58.337 63.4847C58.337 62.6314 58.5343 61.8741 58.929 61.2127C59.3343 60.5514 59.8783 60.0287 60.561 59.6447C61.2543 59.2607 62.0436 59.0687 62.929 59.0687C63.8143 59.0687 64.5983 59.2607 65.281 59.6447C65.9743 60.0287 66.5183 60.5514 66.913 61.2127C67.3076 61.8741 67.505 62.6314 67.505 63.4847C67.505 64.3381 67.3076 65.0954 66.913 65.7567C66.5183 66.4181 65.9743 66.9407 65.281 67.3247C64.5983 67.7087 63.8143 67.9007 62.929 67.9007ZM62.929 65.6927C63.313 65.6927 63.6543 65.5967 63.953 65.4047C64.2516 65.2127 64.4863 64.9514 64.657 64.6207C64.8276 64.2901 64.9076 63.9114 64.897 63.4847C64.9076 63.0581 64.8276 62.6794 64.657 62.3487C64.4863 62.0074 64.2516 61.7407 63.953 61.5487C63.6543 61.3567 63.313 61.2607 62.929 61.2607C62.545 61.2607 62.1983 61.3567 61.889 61.5487C61.5903 61.7407 61.3556 62.0074 61.185 62.3487C61.0143 62.6794 60.9343 63.0581 60.945 63.4847C60.9343 63.9114 61.0143 64.2901 61.185 64.6207C61.3556 64.9514 61.5903 65.2127 61.889 65.4047C62.1983 65.5967 62.545 65.6927 62.929 65.6927ZM69.179 67.7407V59.2447H71.611L71.723 62.0127L71.243 61.4847C71.371 61.0261 71.579 60.6154 71.867 60.2527C72.1656 59.8901 72.5123 59.6021 72.907 59.3887C73.3016 59.1754 73.723 59.0687 74.171 59.0687C74.363 59.0687 74.539 59.0847 74.699 59.1167C74.8696 59.1487 75.0243 59.1861 75.163 59.2287L74.459 62.0607C74.3416 61.9861 74.1816 61.9274 73.979 61.8847C73.787 61.8314 73.5843 61.8047 73.371 61.8047C73.1363 61.8047 72.9176 61.8474 72.715 61.9327C72.5123 62.0074 72.3416 62.1194 72.203 62.2687C72.0643 62.4181 71.9523 62.5941 71.867 62.7967C71.7923 62.9994 71.755 63.2287 71.755 63.4847V67.7407H69.179ZM79.3168 67.9167C78.5808 67.9167 77.9248 67.7301 77.3488 67.3567C76.7835 66.9727 76.3355 66.4501 76.0048 65.7887C75.6742 65.1167 75.5088 64.3541 75.5088 63.5007C75.5088 62.6474 75.6742 61.8901 76.0048 61.2287C76.3355 60.5567 76.7888 60.0287 77.3648 59.6447C77.9408 59.2607 78.6022 59.0687 79.3488 59.0687C79.7328 59.0687 80.1008 59.1274 80.4528 59.2447C80.8048 59.3621 81.1248 59.5221 81.4128 59.7247C81.7008 59.9274 81.9355 60.1621 82.1168 60.4287C82.2982 60.6847 82.4048 60.9514 82.4368 61.2287L81.8288 61.3727V55.9007H84.4048V67.7407H82.0208L81.8768 65.8047L82.3888 65.8847C82.3568 66.1514 82.2502 66.4074 82.0688 66.6527C81.8982 66.8981 81.6742 67.1167 81.3968 67.3087C81.1195 67.4901 80.7995 67.6341 80.4368 67.7407C80.0848 67.8581 79.7115 67.9167 79.3168 67.9167ZM79.9728 65.7887C80.3675 65.7887 80.7088 65.6927 80.9968 65.5007C81.2848 65.3087 81.5035 65.0421 81.6528 64.7007C81.8128 64.3594 81.8928 63.9594 81.8928 63.5007C81.8928 63.0314 81.8128 62.6261 81.6528 62.2847C81.5035 61.9434 81.2848 61.6767 80.9968 61.4847C80.7088 61.2927 80.3675 61.1967 79.9728 61.1967C79.5782 61.1967 79.2368 61.2927 78.9488 61.4847C78.6715 61.6767 78.4528 61.9434 78.2928 62.2847C78.1328 62.6261 78.0528 63.0314 78.0528 63.5007C78.0528 63.9594 78.1328 64.3594 78.2928 64.7007C78.4528 65.0421 78.6715 65.3087 78.9488 65.5007C79.2368 65.6927 79.5782 65.7887 79.9728 65.7887ZM86.7136 67.7407V59.2447H89.2736V67.7407H86.7136ZM87.9936 57.5647C87.5136 57.5647 87.1349 57.4527 86.8576 57.2287C86.5909 56.9941 86.4576 56.6634 86.4576 56.2367C86.4576 55.8527 86.5963 55.5381 86.8736 55.2927C87.1509 55.0474 87.5243 54.9247 87.9936 54.9247C88.4736 54.9247 88.8469 55.0421 89.1136 55.2767C89.3803 55.5007 89.5136 55.8207 89.5136 56.2367C89.5136 56.6314 89.3749 56.9514 89.0976 57.1967C88.8309 57.4421 88.4629 57.5647 87.9936 57.5647ZM91.679 67.7407V59.2447H94.111L94.191 60.9727L93.679 61.1647C93.7963 60.7807 94.0043 60.4341 94.303 60.1247C94.6123 59.8047 94.9803 59.5487 95.407 59.3567C95.8336 59.1647 96.2816 59.0687 96.751 59.0687C97.391 59.0687 97.9296 59.2021 98.367 59.4687C98.8043 59.7247 99.135 60.1141 99.359 60.6367C99.583 61.1487 99.695 61.7781 99.695 62.5247V67.7407H97.119V62.7327C97.119 62.3914 97.071 62.1087 96.975 61.8847C96.879 61.6607 96.7296 61.4954 96.527 61.3887C96.335 61.2714 96.095 61.2181 95.807 61.2287C95.583 61.2287 95.375 61.2661 95.183 61.3407C94.991 61.4047 94.8256 61.5061 94.687 61.6447C94.5483 61.7727 94.4363 61.9221 94.351 62.0927C94.2763 62.2634 94.239 62.4501 94.239 62.6527V67.7407H92.975C92.6763 67.7407 92.4203 67.7407 92.207 67.7407C91.9936 67.7407 91.8176 67.7407 91.679 67.7407ZM104.971 67.8847C104.257 67.8847 103.617 67.6981 103.051 67.3247C102.497 66.9407 102.054 66.4181 101.723 65.7567C101.393 65.0847 101.227 64.3274 101.227 63.4847C101.227 62.6207 101.393 61.8581 101.723 61.1967C102.054 60.5354 102.507 60.0181 103.083 59.6447C103.659 59.2607 104.315 59.0687 105.051 59.0687C105.457 59.0687 105.825 59.1274 106.155 59.2447C106.497 59.3621 106.795 59.5274 107.051 59.7407C107.307 59.9434 107.526 60.1834 107.707 60.4607C107.889 60.7274 108.022 61.0154 108.107 61.3247L107.579 61.2607V59.2447H110.123V67.7407H107.531V65.6927L108.107 65.6767C108.022 65.9754 107.883 66.2581 107.691 66.5247C107.499 66.7914 107.265 67.0261 106.987 67.2287C106.71 67.4314 106.401 67.5914 106.059 67.7087C105.718 67.8261 105.355 67.8847 104.971 67.8847ZM105.675 65.7247C106.07 65.7247 106.411 65.6341 106.699 65.4527C106.987 65.2714 107.211 65.0154 107.371 64.6847C107.531 64.3434 107.611 63.9434 107.611 63.4847C107.611 63.0261 107.531 62.6314 107.371 62.3007C107.211 61.9594 106.987 61.6981 106.699 61.5167C106.411 61.3247 106.07 61.2287 105.675 61.2287C105.291 61.2287 104.955 61.3247 104.667 61.5167C104.39 61.6981 104.171 61.9594 104.011 62.3007C103.851 62.6314 103.771 63.0261 103.771 63.4847C103.771 63.9434 103.851 64.3434 104.011 64.6847C104.171 65.0154 104.39 65.2714 104.667 65.4527C104.955 65.6341 105.291 65.7247 105.675 65.7247ZM113.086 67.7407V57.1007H115.646V67.7407H113.086ZM111.582 61.4847V59.2447H117.294V61.4847H111.582ZM122.727 67.9007C121.788 67.9007 120.972 67.7141 120.279 67.3407C119.586 66.9567 119.047 66.4394 118.663 65.7887C118.279 65.1274 118.087 64.3754 118.087 63.5327C118.087 62.8821 118.194 62.2847 118.407 61.7407C118.62 61.1967 118.919 60.7274 119.303 60.3327C119.687 59.9274 120.14 59.6181 120.663 59.4047C121.196 59.1807 121.778 59.0687 122.407 59.0687C123.004 59.0687 123.548 59.1754 124.039 59.3887C124.54 59.6021 124.972 59.9007 125.335 60.2847C125.698 60.6687 125.975 61.1221 126.167 61.6447C126.359 62.1674 126.444 62.7381 126.423 63.3567L126.407 64.0447H119.639L119.271 62.6047H124.327L124.055 62.9087V62.5887C124.034 62.3221 123.948 62.0874 123.799 61.8847C123.66 61.6714 123.474 61.5061 123.239 61.3887C123.004 61.2714 122.738 61.2127 122.439 61.2127C122.023 61.2127 121.666 61.2981 121.367 61.4687C121.079 61.6287 120.86 61.8687 120.711 62.1887C120.562 62.4981 120.487 62.8821 120.487 63.3407C120.487 63.8101 120.583 64.2207 120.775 64.5727C120.978 64.9141 121.266 65.1807 121.639 65.3727C122.023 65.5647 122.476 65.6607 122.999 65.6607C123.362 65.6607 123.682 65.6074 123.959 65.5007C124.247 65.3941 124.556 65.2127 124.887 64.9567L126.087 66.6527C125.756 66.9407 125.404 67.1754 125.031 67.3567C124.658 67.5381 124.274 67.6714 123.879 67.7567C123.495 67.8527 123.111 67.9007 122.727 67.9007ZM131.27 67.9167C130.534 67.9167 129.878 67.7301 129.302 67.3567C128.737 66.9727 128.289 66.4501 127.958 65.7887C127.627 65.1167 127.462 64.3541 127.462 63.5007C127.462 62.6474 127.627 61.8901 127.958 61.2287C128.289 60.5567 128.742 60.0287 129.318 59.6447C129.894 59.2607 130.555 59.0687 131.302 59.0687C131.686 59.0687 132.054 59.1274 132.406 59.2447C132.758 59.3621 133.078 59.5221 133.366 59.7247C133.654 59.9274 133.889 60.1621 134.07 60.4287C134.251 60.6847 134.358 60.9514 134.39 61.2287L133.782 61.3727V55.9007H136.358V67.7407H133.974L133.83 65.8047L134.342 65.8847C134.31 66.1514 134.203 66.4074 134.022 66.6527C133.851 66.8981 133.627 67.1167 133.35 67.3087C133.073 67.4901 132.753 67.6341 132.39 67.7407C132.038 67.8581 131.665 67.9167 131.27 67.9167ZM131.926 65.7887C132.321 65.7887 132.662 65.6927 132.95 65.5007C133.238 65.3087 133.457 65.0421 133.606 64.7007C133.766 64.3594 133.846 63.9594 133.846 63.5007C133.846 63.0314 133.766 62.6261 133.606 62.2847C133.457 61.9434 133.238 61.6767 132.95 61.4847C132.662 61.2927 132.321 61.1967 131.926 61.1967C131.531 61.1967 131.19 61.2927 130.902 61.4847C130.625 61.6767 130.406 61.9434 130.246 62.2847C130.086 62.6261 130.006 63.0314 130.006 63.5007C130.006 63.9594 130.086 64.3594 130.246 64.7007C130.406 65.0421 130.625 65.3087 130.902 65.5007C131.19 65.6927 131.531 65.7887 131.926 65.7887Z" fill="#FBFDFA"></path></svg>