<svg xmlns="http://www.w3.org/2000/svg" width="173" height="89" viewBox="0 0 173 89" fill="none"><path d="M0.648438 0H151.706L171.27 40.9672C172.227 42.9722 172.227 45.3024 171.27 47.3073L151.706 88.2746H0.648438L20.2124 47.3073C21.1698 45.3024 21.1698 42.9722 20.2124 40.9672L0.648438 0Z" fill="#ADCA2F"></path><path d="M87.2255 15.6703V14.7858C87.2255 14.5001 86.9975 14.2695 86.7151 14.2695C86.4327 14.2695 86.2047 14.5001 86.2047 14.7858V15.6703C80.3754 15.9421 75.7168 20.8223 75.7168 26.7832C75.7168 27.0688 75.9448 27.2994 76.2272 27.2994C76.5097 27.2994 76.7377 27.0688 76.7377 26.7832C76.7377 25.6096 77.6803 24.6563 78.8407 24.6563C80.0011 24.6563 80.9437 25.6096 80.9437 26.7832C80.9437 27.0688 81.1717 27.2994 81.4542 27.2994C81.7366 27.2994 81.9646 27.0688 81.9646 26.7832C81.9646 25.6096 82.9072 24.6563 84.0676 24.6563C85.228 24.6563 86.1706 25.6096 86.1706 26.7832C86.1706 26.8796 86.1978 26.9725 86.2455 27.0482L86.2353 28.8654C85.1089 29.7292 83.7307 30.125 82.0292 30.063C81.7808 30.0562 81.5562 30.2317 81.5086 30.4795C81.4746 30.6481 80.7225 34.6782 81.5188 37.4246C82.2062 39.789 84.9796 40.4257 86.1774 40.5909L86.1672 43.0344C86.1672 44.2493 85.1906 45.2371 83.9893 45.2371C82.7881 45.2371 81.8115 44.2493 81.8115 43.0344C81.8115 42.7488 81.5835 42.5182 81.301 42.5182C81.0186 42.5182 80.7906 42.7488 80.7906 43.0344C80.7906 44.8172 82.2266 46.2695 83.9893 46.2695C85.7521 46.2695 87.1881 44.8172 87.1881 43.0344L87.1983 40.6081C88.3111 40.4704 91.2784 39.8819 91.9931 37.4246C92.7893 34.6817 92.0373 30.6515 92.0033 30.4795C91.9556 30.2282 91.7276 30.0493 91.4826 30.063C89.7641 30.1284 88.3825 29.7258 87.2528 28.8482L87.263 26.7832C87.263 25.6096 88.2056 24.6563 89.366 24.6563C90.5264 24.6563 91.469 25.6096 91.469 26.7832C91.469 27.0688 91.697 27.2994 91.9794 27.2994C92.2619 27.2994 92.4899 27.0688 92.4899 26.7832C92.4899 25.6096 93.4325 24.6563 94.5929 24.6563C95.7533 24.6563 96.6959 25.6096 96.6959 26.7832C96.6959 27.0688 96.9239 27.2994 97.2064 27.2994C97.4888 27.2994 97.7168 27.0688 97.7168 26.7832C97.7168 20.8223 93.0582 15.9421 87.2289 15.6703H87.2255ZM91.013 37.1321C90.4992 38.9011 88.2056 39.4207 87.2051 39.5618C86.9771 39.5928 86.8172 39.6066 86.7559 39.6135C86.6845 39.61 86.4735 39.5894 86.1842 39.5446C85.1293 39.3794 82.9957 38.8391 82.4989 37.1321C81.9135 35.1187 82.2743 32.1865 82.441 31.099C83.8804 31.0886 85.1497 30.7548 86.2285 30.1112C86.4088 30.0045 86.5858 29.891 86.7559 29.7636C86.9159 29.8806 87.0792 29.9873 87.2494 30.0906C88.3383 30.7479 89.6178 31.0852 91.0709 31.0955C91.2376 32.1831 91.5983 35.1119 91.013 37.1286V37.1321ZM94.5929 23.6238C93.5006 23.6238 92.5375 24.1951 91.9794 25.0555C91.4214 24.1951 90.4583 23.6238 89.366 23.6238C88.2736 23.6238 87.2664 24.2226 86.7151 25.1209C86.1638 24.2261 85.1838 23.6238 84.0642 23.6238C82.9446 23.6238 82.0088 24.1951 81.4507 25.0555C80.8927 24.1951 79.9296 23.6238 78.8373 23.6238C78.1839 23.6238 77.5748 23.8303 77.0746 24.1779C78.2146 19.8725 82.1041 16.689 86.7151 16.689C91.3261 16.689 95.2156 19.869 96.3556 24.1779C95.852 23.8303 95.2463 23.6238 94.5929 23.6238ZM87.2425 31.6978C87.2562 31.746 87.2664 31.7976 87.2664 31.8492V35.7141C87.2664 35.7899 87.2494 35.8587 87.2221 35.9241C87.1439 36.103 86.9635 36.2304 86.7559 36.2304C86.4735 36.2304 86.2455 35.9998 86.2455 35.7141V31.8492C86.2455 31.5636 86.4735 31.333 86.7559 31.333C86.9839 31.333 87.1779 31.4879 87.2425 31.6978ZM87.2153 37.311C87.246 37.3799 87.2664 37.4522 87.2664 37.5347V37.7791C87.2664 37.8617 87.246 37.9374 87.2119 38.0062C87.1269 38.1749 86.9567 38.2953 86.7559 38.2953C86.4735 38.2953 86.2455 38.0648 86.2455 37.7791V37.5347C86.2455 37.2491 86.4735 37.0185 86.7559 37.0185C86.9601 37.0185 87.1337 37.139 87.2153 37.311Z" fill="white"></path><path d="M54.1248 67.7407V56.5407H56.5568L60.6368 63.1807L58.8928 63.1647L63.0208 56.5407H65.3568V67.7407H62.7168V64.2527C62.7168 63.2927 62.7381 62.4287 62.7808 61.6607C62.8341 60.8927 62.9195 60.1301 63.0368 59.3727L63.3408 60.2047L60.2368 65.0207H59.1808L56.1408 60.2367L56.4448 59.3727C56.5621 60.0874 56.6421 60.8234 56.6848 61.5807C56.7381 62.3274 56.7648 63.2181 56.7648 64.2527V67.7407H54.1248ZM68.0437 67.7407V59.2447H70.6037V67.7407H68.0437ZM69.3237 57.5647C68.8437 57.5647 68.465 57.4527 68.1877 57.2287C67.921 56.9941 67.7877 56.6634 67.7877 56.2367C67.7877 55.8527 67.9263 55.5381 68.2037 55.2927C68.481 55.0474 68.8543 54.9247 69.3237 54.9247C69.8037 54.9247 70.177 55.0421 70.4437 55.2767C70.7103 55.5007 70.8437 55.8207 70.8437 56.2367C70.8437 56.6314 70.705 56.9514 70.4277 57.1967C70.161 57.4421 69.793 57.5647 69.3237 57.5647ZM73.713 67.7407V57.1007H76.273V67.7407H73.713ZM72.209 61.4847V59.2447H77.921V61.4847H72.209ZM79.528 67.7407V59.2447H82.088V67.7407H79.528ZM80.808 57.5647C80.328 57.5647 79.9494 57.4527 79.672 57.2287C79.4054 56.9941 79.272 56.6634 79.272 56.2367C79.272 55.8527 79.4107 55.5381 79.688 55.2927C79.9654 55.0474 80.3387 54.9247 80.808 54.9247C81.288 54.9247 81.6614 55.0421 81.928 55.2767C82.1947 55.5007 82.328 55.8207 82.328 56.2367C82.328 56.6314 82.1894 56.9514 81.912 57.1967C81.6454 57.4421 81.2774 57.5647 80.808 57.5647ZM88.3814 71.4207C87.6881 71.4207 86.9948 71.3194 86.3014 71.1167C85.6188 70.9141 85.0641 70.6527 84.6374 70.3327L85.5334 68.5407C85.7574 68.6901 86.0028 68.8181 86.2694 68.9247C86.5468 69.0421 86.8348 69.1327 87.1334 69.1967C87.4321 69.2607 87.7361 69.2927 88.0454 69.2927C88.5894 69.2927 89.0321 69.2127 89.3734 69.0527C89.7148 68.8927 89.9708 68.6474 90.1414 68.3167C90.3121 67.9967 90.3974 67.5914 90.3974 67.1007V65.6767L90.8934 65.7567C90.8188 66.1087 90.6321 66.4287 90.3334 66.7167C90.0454 67.0047 89.6881 67.2394 89.2614 67.4207C88.8348 67.5914 88.3814 67.6767 87.9014 67.6767C87.1334 67.6767 86.4454 67.5007 85.8374 67.1487C85.2401 66.7861 84.7654 66.2901 84.4134 65.6607C84.0721 65.0207 83.9014 64.2847 83.9014 63.4527C83.9014 62.5994 84.0721 61.8474 84.4134 61.1967C84.7548 60.5354 85.2241 60.0181 85.8214 59.6447C86.4188 59.2607 87.0908 59.0687 87.8374 59.0687C88.1574 59.0687 88.4614 59.1061 88.7494 59.1807C89.0481 59.2554 89.3201 59.3567 89.5654 59.4847C89.8214 59.6021 90.0454 59.7461 90.2374 59.9167C90.4401 60.0767 90.6001 60.2527 90.7174 60.4447C90.8454 60.6367 90.9308 60.8341 90.9734 61.0367L90.4454 61.1647L90.5414 59.2447H92.9734V67.0527C92.9734 67.7461 92.8668 68.3594 92.6534 68.8927C92.4508 69.4367 92.1468 69.8954 91.7414 70.2687C91.3468 70.6527 90.8668 70.9407 90.3014 71.1327C89.7361 71.3247 89.0961 71.4207 88.3814 71.4207ZM88.4454 65.6927C88.8614 65.6927 89.2188 65.6021 89.5174 65.4207C89.8268 65.2287 90.0614 64.9674 90.2214 64.6367C90.3921 64.3061 90.4774 63.9167 90.4774 63.4687C90.4774 63.0207 90.3921 62.6314 90.2214 62.3007C90.0614 61.9594 89.8268 61.6981 89.5174 61.5167C89.2188 61.3247 88.8614 61.2287 88.4454 61.2287C88.0401 61.2287 87.6881 61.3247 87.3894 61.5167C87.0908 61.6981 86.8561 61.9594 86.6854 62.3007C86.5254 62.6314 86.4454 63.0207 86.4454 63.4687C86.4454 63.9167 86.5254 64.3061 86.6854 64.6367C86.8561 64.9674 87.0908 65.2287 87.3894 65.4207C87.6881 65.6021 88.0401 65.6927 88.4454 65.6927ZM98.3325 67.8847C97.6179 67.8847 96.9779 67.6981 96.4125 67.3247C95.8579 66.9407 95.4152 66.4181 95.0845 65.7567C94.7539 65.0847 94.5885 64.3274 94.5885 63.4847C94.5885 62.6207 94.7539 61.8581 95.0845 61.1967C95.4152 60.5354 95.8685 60.0181 96.4445 59.6447C97.0205 59.2607 97.6765 59.0687 98.4125 59.0687C98.8179 59.0687 99.1859 59.1274 99.5165 59.2447C99.8579 59.3621 100.157 59.5274 100.413 59.7407C100.669 59.9434 100.887 60.1834 101.069 60.4607C101.25 60.7274 101.383 61.0154 101.469 61.3247L100.941 61.2607V59.2447H103.485V67.7407H100.893V65.6927L101.469 65.6767C101.383 65.9754 101.245 66.2581 101.053 66.5247C100.861 66.7914 100.626 67.0261 100.349 67.2287C100.071 67.4314 99.7619 67.5914 99.4205 67.7087C99.0792 67.8261 98.7165 67.8847 98.3325 67.8847ZM99.0365 65.7247C99.4312 65.7247 99.7725 65.6341 100.061 65.4527C100.349 65.2714 100.573 65.0154 100.733 64.6847C100.893 64.3434 100.973 63.9434 100.973 63.4847C100.973 63.0261 100.893 62.6314 100.733 62.3007C100.573 61.9594 100.349 61.6981 100.061 61.5167C99.7725 61.3247 99.4312 61.2287 99.0365 61.2287C98.6525 61.2287 98.3165 61.3247 98.0285 61.5167C97.7512 61.6981 97.5325 61.9594 97.3725 62.3007C97.2125 62.6314 97.1325 63.0261 97.1325 63.4847C97.1325 63.9434 97.2125 64.3434 97.3725 64.6847C97.5325 65.0154 97.7512 65.2714 98.0285 65.4527C98.3165 65.6341 98.6525 65.7247 99.0365 65.7247ZM106.447 67.7407V57.1007H109.007V67.7407H106.447ZM104.943 61.4847V59.2447H110.655V61.4847H104.943ZM116.088 67.9007C115.15 67.9007 114.334 67.7141 113.64 67.3407C112.947 66.9567 112.408 66.4394 112.024 65.7887C111.64 65.1274 111.448 64.3754 111.448 63.5327C111.448 62.8821 111.555 62.2847 111.768 61.7407C111.982 61.1967 112.28 60.7274 112.664 60.3327C113.048 59.9274 113.502 59.6181 114.024 59.4047C114.558 59.1807 115.139 59.0687 115.768 59.0687C116.366 59.0687 116.91 59.1754 117.4 59.3887C117.902 59.6021 118.334 59.9007 118.696 60.2847C119.059 60.6687 119.336 61.1221 119.528 61.6447C119.72 62.1674 119.806 62.7381 119.784 63.3567L119.768 64.0447H113L112.632 62.6047H117.688L117.416 62.9087V62.5887C117.395 62.3221 117.31 62.0874 117.16 61.8847C117.022 61.6714 116.835 61.5061 116.6 61.3887C116.366 61.2714 116.099 61.2127 115.8 61.2127C115.384 61.2127 115.027 61.2981 114.728 61.4687C114.44 61.6287 114.222 61.8687 114.072 62.1887C113.923 62.4981 113.848 62.8821 113.848 63.3407C113.848 63.8101 113.944 64.2207 114.136 64.5727C114.339 64.9141 114.627 65.1807 115 65.3727C115.384 65.5647 115.838 65.6607 116.36 65.6607C116.723 65.6607 117.043 65.6074 117.32 65.5007C117.608 65.3941 117.918 65.2127 118.248 64.9567L119.448 66.6527C119.118 66.9407 118.766 67.1754 118.392 67.3567C118.019 67.5381 117.635 67.6714 117.24 67.7567C116.856 67.8527 116.472 67.9007 116.088 67.9007Z" fill="#FBFDFA"></path></svg>