<svg xmlns="http://www.w3.org/2000/svg" width="793" height="257" viewBox="0 0 793 257" fill="none"><rect y="84.9565" width="86.1957" height="86.1957" rx="43.0978" fill="#CA732F"></rect><path fill-rule="evenodd" clip-rule="evenodd" d="M71.8492 128.888C71.6874 128.888 71.5293 128.84 71.3948 128.75C71.2603 128.66 71.1555 128.532 71.0937 128.382C71.0319 128.233 71.0158 128.068 71.0474 127.909C71.0791 127.751 71.1571 127.605 71.2715 127.491C71.386 127.376 71.5318 127.298 71.6905 127.267C71.8493 127.235 72.0138 127.252 72.1633 127.313C72.3127 127.375 72.4405 127.48 72.5304 127.615C72.6203 127.749 72.6683 127.908 72.6683 128.069C72.6681 128.287 72.5817 128.495 72.4281 128.648C72.2746 128.802 72.0663 128.888 71.8492 128.888ZM43.1159 145.925C39.5823 145.925 36.1281 144.877 33.19 142.914C30.252 140.951 27.962 138.161 26.6098 134.896C25.2575 131.632 24.9036 128.04 25.5929 124.574C26.2823 121.108 27.9838 117.925 30.4823 115.426C32.9809 112.927 36.1643 111.226 39.6299 110.536C43.0956 109.847 46.6878 110.201 49.9525 111.553C53.2171 112.905 56.0074 115.195 57.9707 118.133C59.9339 121.071 60.9819 124.525 60.982 128.058C60.9765 132.795 59.0925 137.336 55.7431 140.686C52.3938 144.035 47.8526 145.92 43.1159 145.925ZM43.0855 157.623C42.9238 157.623 42.7657 157.575 42.6313 157.485C42.4968 157.395 42.3921 157.268 42.3302 157.118C42.2683 156.969 42.2521 156.804 42.2835 156.646C42.315 156.487 42.3928 156.341 42.5071 156.227C42.6213 156.112 42.767 156.034 42.9256 156.003C43.0841 155.971 43.2486 155.987 43.3981 156.048C43.5476 156.11 43.6755 156.215 43.7657 156.349C43.8558 156.483 43.9041 156.641 43.9045 156.803C43.9042 157.02 43.8177 157.228 43.6642 157.381C43.5106 157.534 43.3025 157.62 43.0855 157.62V157.623ZM14.3521 128.857C14.1903 128.857 14.032 128.809 13.8974 128.72C13.7628 128.63 13.658 128.502 13.596 128.352C13.5341 128.203 13.518 128.038 13.5496 127.879C13.5812 127.72 13.6592 127.575 13.7737 127.46C13.8883 127.346 14.0341 127.268 14.1929 127.236C14.3517 127.205 14.5163 127.221 14.6658 127.283C14.8153 127.345 14.9431 127.45 15.0329 127.585C15.1227 127.72 15.1706 127.878 15.1705 128.04C15.1701 128.257 15.0838 128.465 14.9303 128.618C14.7769 128.771 14.569 128.857 14.3521 128.857ZM43.1159 98.4854C43.2776 98.4854 43.4358 98.5333 43.5703 98.6231C43.7048 98.713 43.8097 98.8406 43.8717 98.9901C43.9337 99.1395 43.95 99.3039 43.9186 99.4626C43.8872 99.6213 43.8095 99.7671 43.6952 99.8816C43.581 99.9961 43.4354 100.074 43.2768 100.106C43.1182 100.138 42.9537 100.122 42.8041 100.06C42.6546 99.9987 42.5266 99.8941 42.4364 99.7598C42.3463 99.6255 42.2979 99.4675 42.2975 99.3058C42.2973 99.1981 42.3184 99.0915 42.3594 98.9921C42.4004 98.8926 42.4607 98.8022 42.5367 98.726C42.6127 98.6498 42.7029 98.5893 42.8023 98.548C42.9017 98.5067 43.0082 98.4854 43.1159 98.4854ZM66.5408 140.193C66.3787 140.194 66.2203 140.146 66.0855 140.056C65.9508 139.966 65.8457 139.838 65.7836 139.688C65.7215 139.539 65.7052 139.374 65.7367 139.215C65.7682 139.056 65.8462 138.91 65.9607 138.796C66.0752 138.681 66.2211 138.603 66.38 138.571C66.5389 138.54 66.7036 138.556 66.8533 138.618C67.003 138.68 67.131 138.785 67.221 138.919C67.311 139.054 67.3591 139.212 67.3591 139.374C67.3589 139.592 67.2727 139.8 67.1192 139.953C66.9658 140.107 66.7578 140.193 66.5408 140.193ZM54.3912 150.673C54.5529 150.673 54.711 150.72 54.8455 150.81C54.98 150.9 55.0849 151.028 55.1469 151.177C55.209 151.326 55.2254 151.491 55.1941 151.649C55.1628 151.808 55.0852 151.954 54.9711 152.068C54.857 152.183 54.7115 152.261 54.553 152.293C54.3945 152.325 54.23 152.309 54.0804 152.248C53.9308 152.187 53.8028 152.082 53.7125 151.948C53.6221 151.814 53.5736 151.656 53.5729 151.494C53.5731 151.277 53.6593 151.069 53.8128 150.916C53.9662 150.762 54.1742 150.676 54.3912 150.676V150.673ZM31.7785 152.309C31.6165 152.309 31.4584 152.26 31.324 152.17C31.1896 152.08 31.0851 151.952 31.0236 151.802C30.962 151.652 30.9463 151.487 30.9784 151.329C31.0105 151.17 31.089 151.024 31.2038 150.91C31.3187 150.796 31.4648 150.719 31.6238 150.688C31.7827 150.657 31.9472 150.674 32.0966 150.736C32.2459 150.799 32.3733 150.904 32.4628 151.039C32.5522 151.174 32.5995 151.332 32.5989 151.494C32.5987 151.711 32.5124 151.919 32.359 152.073C32.2055 152.226 31.9975 152.313 31.7805 152.313L31.7785 152.309ZM19.6606 140.163C19.4988 140.163 19.3406 140.115 19.2061 140.025C19.0715 139.935 18.9666 139.808 18.9047 139.658C18.8427 139.509 18.8264 139.344 18.858 139.185C18.8895 139.027 18.9674 138.881 19.0817 138.766C19.1961 138.652 19.3419 138.574 19.5006 138.542C19.6593 138.511 19.8238 138.527 19.9733 138.589C20.1229 138.65 20.2507 138.755 20.3407 138.89C20.4307 139.024 20.4788 139.182 20.479 139.344C20.4788 139.561 20.3925 139.769 20.2391 139.923C20.0857 140.076 19.8777 140.163 19.6606 140.163ZM19.6606 115.916C19.8225 115.916 19.9806 115.964 20.1151 116.054C20.2496 116.144 20.3543 116.272 20.4162 116.421C20.478 116.571 20.4941 116.736 20.4625 116.894C20.4308 117.053 20.3528 117.199 20.2383 117.313C20.1239 117.427 19.9781 117.505 19.8193 117.537C19.6606 117.568 19.4961 117.552 19.3466 117.49C19.1971 117.428 19.0694 117.323 18.9795 117.189C18.8896 117.054 18.8416 116.896 18.8416 116.734C18.8418 116.517 18.9282 116.309 19.0817 116.155C19.2353 116.002 19.4435 115.916 19.6606 115.916ZM31.8109 105.433C31.649 105.433 31.4908 105.385 31.3562 105.295C31.2216 105.205 31.1168 105.077 31.0548 104.927C30.9929 104.778 30.9767 104.613 31.0082 104.455C31.0398 104.296 31.1178 104.15 31.2322 104.036C31.3467 103.921 31.4925 103.843 31.6512 103.812C31.8099 103.78 31.9745 103.796 32.124 103.858C32.2735 103.92 32.4014 104.025 32.4913 104.16C32.5812 104.294 32.6292 104.452 32.6292 104.614C32.629 104.831 32.5427 105.039 32.3893 105.193C32.2359 105.346 32.0278 105.432 31.8109 105.433ZM54.4236 103.797C54.5854 103.797 54.7434 103.846 54.8776 103.936C55.0118 104.026 55.1163 104.154 55.1778 104.304C55.2393 104.453 55.255 104.618 55.2231 104.777C55.1911 104.935 55.1129 105.081 54.9983 105.195C54.8837 105.309 54.7378 105.387 54.5791 105.418C54.4204 105.449 54.2559 105.433 54.1066 105.371C53.9572 105.308 53.8296 105.203 53.7399 105.069C53.6502 104.934 53.6024 104.776 53.6025 104.614C53.6029 104.397 53.6893 104.19 53.8427 104.036C53.9961 103.883 54.204 103.797 54.4209 103.797H54.4236ZM66.5408 115.945C66.7028 115.945 66.8612 115.993 66.996 116.083C67.1307 116.173 67.2358 116.301 67.2979 116.451C67.36 116.6 67.3763 116.765 67.3448 116.924C67.3133 117.083 67.2353 117.229 67.1208 117.343C67.0063 117.458 66.8604 117.536 66.7015 117.568C66.5426 117.599 66.3779 117.583 66.2282 117.521C66.0785 117.459 65.9505 117.354 65.8605 117.22C65.7705 117.085 65.7224 116.926 65.7224 116.764C65.7226 116.547 65.8089 116.339 65.9623 116.186C66.1157 116.032 66.3237 115.946 66.5408 115.945ZM71.8492 125.796C71.3743 125.797 70.9116 125.947 70.526 126.224C70.1404 126.501 69.8512 126.892 69.699 127.342H62.4215C62.3814 126.233 62.2457 125.13 62.0161 124.045H64.7738C65.4359 124.044 66.0707 123.781 66.5389 123.313C67.0072 122.844 67.2706 122.21 67.2715 121.548V118.915C67.7827 118.743 68.216 118.394 68.494 117.932C68.772 117.47 68.8766 116.924 68.7892 116.391C68.7018 115.859 68.4281 115.375 68.0169 115.026C67.6056 114.676 67.0837 114.485 66.5442 114.485C66.0047 114.485 65.4828 114.676 65.0715 115.026C64.6603 115.375 64.3866 115.859 64.2992 116.391C64.2118 116.924 64.3164 117.47 64.5944 117.932C64.8724 118.394 65.3057 118.743 65.8169 118.915V121.548C65.8165 121.824 65.7065 122.089 65.511 122.285C65.3154 122.48 65.0503 122.59 64.7738 122.591H61.699C61.6818 122.591 61.6652 122.591 61.648 122.591C60.7285 119.5 59.0532 116.687 56.7734 114.407C54.4937 112.126 51.6815 110.45 48.5912 109.53C48.5912 109.505 48.5946 109.481 48.5946 109.456V106.385C48.595 106.108 48.705 105.843 48.9005 105.647C49.0961 105.452 49.3612 105.342 49.6377 105.342H52.2699C52.4424 105.853 52.7909 106.286 53.2533 106.564C53.7156 106.842 54.2617 106.947 54.7941 106.859C55.3265 106.772 55.8105 106.498 56.1597 106.087C56.5089 105.676 56.7006 105.154 56.7006 104.614C56.7006 104.075 56.5089 103.553 56.1597 103.142C55.8105 102.73 55.3265 102.457 54.7941 102.369C54.2617 102.282 53.7156 102.386 53.2533 102.664C52.7909 102.942 52.4424 103.376 52.2699 103.887H49.6377C48.9756 103.888 48.3409 104.151 47.8728 104.62C47.4047 105.088 47.1414 105.723 47.1407 106.385V109.164C46.0553 108.934 44.952 108.797 43.8432 108.756V101.455C44.3544 101.282 44.7876 100.934 45.0656 100.471C45.3436 100.009 45.4483 99.4628 45.3609 98.9305C45.2735 98.3981 44.9997 97.9141 44.5885 97.5649C44.1773 97.2156 43.6554 97.0239 43.1159 97.0239C42.5764 97.0239 42.0544 97.2156 41.6432 97.5649C41.232 97.9141 40.9582 98.3981 40.8708 98.9305C40.7834 99.4628 40.8881 100.009 41.1661 100.471C41.4441 100.934 41.8773 101.282 42.3885 101.455V108.751C41.2799 108.792 40.1769 108.928 39.0918 109.159V106.385C39.0908 105.722 38.8274 105.088 38.3592 104.619C37.891 104.151 37.2562 103.888 36.594 103.887H33.9618C33.7893 103.376 33.4408 102.942 32.9785 102.664C32.5161 102.386 31.97 102.282 31.4376 102.369C30.9052 102.457 30.4213 102.73 30.072 103.142C29.7228 103.553 29.5311 104.075 29.5311 104.614C29.5311 105.154 29.7228 105.676 30.072 106.087C30.4213 106.498 30.9052 106.772 31.4376 106.859C31.97 106.947 32.5161 106.842 32.9785 106.564C33.4408 106.286 33.7893 105.853 33.9618 105.342H36.594C36.8705 105.342 37.1356 105.452 37.3312 105.647C37.5267 105.843 37.6367 106.108 37.6371 106.385V109.456C37.6371 109.481 37.6385 109.505 37.6412 109.53C34.555 110.449 31.7462 112.122 29.4681 114.398C27.19 116.674 25.5142 119.481 24.592 122.567C24.5623 122.563 24.5324 122.561 24.5024 122.56H21.431C21.1546 122.56 20.8896 122.45 20.6941 122.255C20.4986 122.059 20.3885 121.794 20.388 121.518V118.885C20.8992 118.713 21.3325 118.364 21.6106 117.902C21.8887 117.44 21.9934 116.893 21.906 116.361C21.8187 115.829 21.5449 115.345 21.1337 114.995C20.7225 114.646 20.2005 114.454 19.661 114.454C19.1214 114.454 18.5995 114.646 18.1882 114.995C17.777 115.345 17.5033 115.829 17.4159 116.361C17.3286 116.893 17.4333 117.44 17.7113 117.902C17.9894 118.364 18.4227 118.713 18.934 118.885V121.518C18.9349 122.18 19.1983 122.815 19.6664 123.283C20.1345 123.751 20.7691 124.014 21.431 124.015H24.2225C23.9901 125.1 23.8517 126.203 23.8088 127.312H16.501C16.3286 126.801 15.98 126.367 15.5177 126.089C15.0553 125.811 14.5092 125.707 13.9768 125.794C13.4445 125.882 12.9605 126.155 12.6113 126.566C12.262 126.978 12.0703 127.5 12.0703 128.039C12.0703 128.579 12.262 129.101 12.6113 129.512C12.9605 129.923 13.4445 130.197 13.9768 130.284C14.5092 130.372 15.0553 130.267 15.5177 129.989C15.98 129.711 16.3286 129.278 16.501 128.766H23.8088C23.8485 129.875 23.9837 130.978 24.2128 132.064H21.431C20.769 132.065 20.1343 132.328 19.6662 132.796C19.198 133.264 18.9347 133.899 18.934 134.561V137.193C18.4227 137.366 17.9894 137.714 17.7113 138.176C17.4333 138.639 17.3286 139.185 17.4159 139.717C17.5033 140.25 17.777 140.734 18.1882 141.083C18.5995 141.432 19.1214 141.624 19.661 141.624C20.2005 141.624 20.7225 141.432 21.1337 141.083C21.5449 140.734 21.8187 140.25 21.906 139.717C21.9934 139.185 21.8887 138.639 21.6106 138.176C21.3325 137.714 20.8992 137.366 20.388 137.193V134.561C20.3883 134.284 20.4983 134.019 20.6939 133.824C20.8894 133.628 21.1545 133.518 21.431 133.518H24.5024C24.5284 133.518 24.5544 133.517 24.5803 133.514C25.4967 136.602 27.1677 139.414 29.4425 141.695C31.7173 143.976 34.5243 145.655 37.6102 146.58C37.6102 146.604 37.6068 146.628 37.6068 146.653V149.724C37.6064 150 37.4964 150.266 37.3008 150.461C37.1053 150.657 36.8402 150.767 36.5637 150.767H33.9315C33.7591 150.256 33.4106 149.822 32.9482 149.544C32.4859 149.266 31.9398 149.162 31.4074 149.249C30.8749 149.336 30.3909 149.61 30.0416 150.021C29.6924 150.433 29.5006 150.954 29.5006 151.494C29.5006 152.034 29.6924 152.556 30.0416 152.967C30.3909 153.378 30.8749 153.652 31.4074 153.739C31.9398 153.826 32.4859 153.722 32.9482 153.444C33.4106 153.166 33.7591 152.732 33.9315 152.221H36.5637C37.2257 152.22 37.8604 151.957 38.3286 151.489C38.7967 151.021 39.06 150.386 39.0607 149.724V146.95C40.1459 147.183 41.2492 147.321 42.3582 147.364V154.654C41.847 154.826 41.4136 155.175 41.1355 155.637C40.8575 156.1 40.7528 156.646 40.8401 157.178C40.9275 157.71 41.2012 158.195 41.6124 158.544C42.0237 158.893 42.5457 159.085 43.0852 159.085C43.6247 159.085 44.1467 158.893 44.5579 158.544C44.9691 158.195 45.2429 157.71 45.3302 157.178C45.4176 156.646 45.3129 156.1 45.0348 155.637C44.7567 155.175 44.3234 154.826 43.8122 154.654V147.365C44.9208 147.327 46.0241 147.192 47.1096 146.964V149.721C47.1105 150.383 47.374 151.018 47.8423 151.486C48.3105 151.954 48.9453 152.218 49.6074 152.218H52.2396C52.412 152.729 52.7604 153.163 53.2228 153.441C53.6852 153.719 54.2313 153.824 54.7637 153.736C55.2961 153.649 55.7801 153.375 56.1294 152.964C56.4787 152.553 56.6704 152.031 56.6704 151.491C56.6704 150.952 56.4787 150.43 56.1294 150.019C55.7801 149.607 55.2961 149.334 54.7637 149.246C54.2313 149.159 53.6852 149.264 53.2228 149.542C52.7604 149.82 52.412 150.253 52.2396 150.764H49.6081C49.3314 150.764 49.0661 150.654 48.8705 150.459C48.6748 150.263 48.5647 149.998 48.5643 149.721V146.653C48.5643 146.634 48.5643 146.615 48.5643 146.597C51.6573 145.681 54.4729 144.007 56.7563 141.728C59.0397 139.449 60.7188 136.637 61.6418 133.545C61.6611 133.545 61.6797 133.545 61.699 133.545H64.7703C65.0469 133.546 65.312 133.656 65.5075 133.851C65.703 134.047 65.8131 134.312 65.8134 134.589V137.224C65.3022 137.396 64.869 137.745 64.591 138.207C64.313 138.669 64.2083 139.215 64.2957 139.748C64.3831 140.28 64.6569 140.764 65.0681 141.113C65.4793 141.463 66.0013 141.654 66.5408 141.654C67.0803 141.654 67.6022 141.463 68.0134 141.113C68.4246 140.764 68.6984 140.28 68.7858 139.748C68.8732 139.215 68.7685 138.669 68.4905 138.207C68.2125 137.745 67.7793 137.396 67.2681 137.224V134.591C67.2674 133.929 67.004 133.294 66.5357 132.826C66.0674 132.358 65.4326 132.094 64.7703 132.094H62.0127C62.2441 131.008 62.3811 129.905 62.4222 128.796H69.7024C69.8364 129.192 70.077 129.543 70.3977 129.811C70.7185 130.079 71.107 130.254 71.5204 130.315C71.9339 130.376 72.3562 130.323 72.7411 130.159C73.1259 129.996 73.4582 129.73 73.7015 129.39C73.9447 129.05 74.0895 128.65 74.1198 128.233C74.1502 127.816 74.0649 127.399 73.8734 127.027C73.6819 126.656 73.3916 126.344 73.0345 126.127C72.6774 125.91 72.2672 125.796 71.8492 125.796ZM41.7798 134.218H44.4519L43.1159 131.903L41.7798 134.218ZM44.2934 131.033C44.174 130.827 44.0024 130.655 43.7958 130.536C43.5892 130.417 43.3548 130.354 43.1162 130.354C42.8776 130.354 42.6433 130.417 42.4366 130.536C42.23 130.655 42.0584 130.827 41.939 131.033L40.4382 133.633C40.319 133.84 40.2563 134.074 40.2564 134.313C40.2565 134.551 40.3194 134.786 40.4387 134.992C40.558 135.199 40.7296 135.37 40.9362 135.489C41.1428 135.609 41.3771 135.672 41.6157 135.672H44.6174C44.856 135.672 45.0905 135.609 45.2972 135.49C45.504 135.371 45.6756 135.199 45.795 134.992C45.9143 134.786 45.9772 134.551 45.9772 134.313C45.9772 134.074 45.9143 133.84 45.7949 133.633L44.2934 131.033ZM47.5336 128.698C47.8439 128.698 48.1471 128.606 48.4051 128.433C48.663 128.261 48.864 128.016 48.9827 127.729C49.1014 127.443 49.1324 127.127 49.0718 126.823C49.0113 126.519 48.8618 126.239 48.6424 126.02C48.423 125.801 48.1435 125.651 47.8392 125.591C47.5349 125.53 47.2195 125.561 46.9329 125.68C46.6464 125.799 46.4015 126 46.2292 126.258C46.0569 126.516 45.9651 126.82 45.9652 127.13C45.9656 127.546 46.131 127.944 46.425 128.238C46.7191 128.532 47.1178 128.697 47.5336 128.698ZM47.5336 124.107C46.9358 124.107 46.3514 124.284 45.8543 124.616C45.3572 124.948 44.9697 125.42 44.7408 125.973C44.5119 126.525 44.452 127.133 44.5685 127.719C44.6851 128.305 44.9729 128.844 45.3955 129.267C45.8182 129.689 46.3567 129.977 46.943 130.094C47.5293 130.211 48.1371 130.151 48.6894 129.922C49.2417 129.693 49.7138 129.306 50.0459 128.809C50.378 128.312 50.5553 127.728 50.5553 127.13C50.5544 126.329 50.2358 125.56 49.6693 124.994C49.1029 124.427 48.3348 124.109 47.5336 124.107ZM38.696 128.698C39.0063 128.698 39.3096 128.606 39.5677 128.433C39.8257 128.261 40.0268 128.016 40.1456 127.73C40.2644 127.443 40.2955 127.128 40.235 126.823C40.1745 126.519 40.0251 126.239 39.8058 126.02C39.5864 125.801 39.3068 125.651 39.0025 125.591C38.6982 125.53 38.3828 125.561 38.0962 125.68C37.8096 125.799 37.5646 126 37.3923 126.258C37.2201 126.516 37.1282 126.82 37.1283 127.13C37.1288 127.545 37.2942 127.944 37.5881 128.238C37.882 128.532 38.2804 128.697 38.696 128.698ZM41.7219 127.13C41.7219 126.532 41.5446 125.948 41.2125 125.451C40.8804 124.954 40.4084 124.566 39.8561 124.337C39.3038 124.109 38.6961 124.049 38.1098 124.165C37.5236 124.282 36.985 124.57 36.5623 124.993C36.1396 125.415 35.8518 125.954 35.7352 126.54C35.6185 127.126 35.6784 127.734 35.9072 128.286C36.1359 128.839 36.5233 129.311 37.0203 129.643C37.5174 129.975 38.1017 130.152 38.6995 130.152C39.5008 130.151 40.269 129.833 40.8356 129.266C41.4022 128.699 41.721 127.931 41.7219 127.13ZM51.6012 131.827C52.6265 130.292 53.2156 128.507 53.3057 126.662C53.3957 124.818 52.9834 122.984 52.1127 121.355C51.2419 119.727 49.9454 118.366 48.3616 117.417C46.7777 116.467 44.9658 115.966 43.1193 115.966C41.2728 115.966 39.4609 116.467 37.8771 117.417C36.2932 118.366 34.9967 119.727 34.1259 121.355C33.2552 122.984 32.8429 124.818 32.933 126.662C33.023 128.507 33.6122 130.292 34.6374 131.827C34.718 131.947 34.761 132.087 34.7609 132.231V133.61C34.7614 134.289 35.0313 134.94 35.5114 135.42C35.9915 135.9 36.6424 136.17 37.3213 136.171H38.2638C38.4552 136.171 38.639 136.246 38.7752 136.381C38.9113 136.515 38.9889 136.698 38.9911 136.89C39.0076 138.315 40.2217 140.154 41.4882 140.154H44.7505C46.0169 140.154 47.2323 138.315 47.2475 136.89C47.2497 136.698 47.3273 136.515 47.4634 136.381C47.5996 136.246 47.7834 136.171 47.9748 136.171H48.9173C49.5962 136.17 50.2471 135.9 50.7272 135.42C51.2073 134.94 51.4772 134.289 51.4778 133.61V132.231C51.4776 132.087 51.5206 131.947 51.6012 131.827ZM43.1214 114.509C41.0299 114.509 38.9769 115.071 37.1776 116.137C35.3783 117.203 33.899 118.734 32.8948 120.569C31.8907 122.403 31.3987 124.474 31.4705 126.565C31.5422 128.655 32.1751 130.687 33.3027 132.449V133.61C33.304 134.675 33.7275 135.695 34.4802 136.448C35.2329 137.2 36.2535 137.624 37.3179 137.625H37.6005C37.9411 139.601 39.5309 141.609 41.4847 141.609H44.747C46.7022 141.609 48.2906 139.601 48.6312 137.625H48.9138C49.9783 137.624 50.9988 137.2 51.7515 136.448C52.5042 135.695 52.9277 134.675 52.929 133.61V132.449C54.0578 130.688 54.6918 128.656 54.7645 126.565C54.8372 124.475 54.3459 122.404 53.3422 120.569C52.3384 118.734 50.8592 117.203 49.0599 116.137C47.2606 115.071 45.2074 114.509 43.1159 114.509H43.1214Z" fill="#FBFDFA" stroke="#FBFDFA" stroke-width="0.172391"></path><path d="M189.63 128.054L181.011 123.078V133.031L189.63 128.054ZM86.1953 128.916H181.872V127.192H86.1953V128.916Z" fill="#CA732F"></path><rect x="189.629" y="8.61963" width="68.9565" height="68.9565" rx="34.4783" fill="#BEB099"></rect><path d="M208.273 29.3075C208.077 29.326 207.895 29.4171 207.763 29.5629C207.631 29.7088 207.558 29.8988 207.559 30.0956V53.737C207.559 53.946 207.642 54.1465 207.789 54.2943C207.937 54.4421 208.138 54.5251 208.347 54.5251H227.26C227.365 54.5266 227.469 54.5072 227.565 54.4683C227.662 54.4293 227.75 54.3715 227.825 54.2981C227.899 54.2248 227.958 54.1375 227.998 54.0411C228.039 53.9448 228.059 53.8415 228.059 53.737C228.059 53.6326 228.039 53.5293 227.998 53.433C227.958 53.3366 227.899 53.2493 227.825 53.176C227.75 53.1026 227.662 53.0448 227.565 53.0059C227.469 52.9669 227.365 52.9476 227.26 52.949H209.135V46.6446H230.807C230.911 46.646 231.015 46.6267 231.112 46.5877C231.209 46.5488 231.297 46.491 231.371 46.4176C231.445 46.3443 231.504 46.257 231.545 46.1606C231.585 46.0643 231.606 45.9609 231.606 45.8565C231.606 45.7521 231.585 45.6488 231.545 45.5525C231.504 45.4561 231.445 45.3688 231.371 45.2955C231.297 45.2221 231.209 45.1643 231.112 45.1253C231.015 45.0864 230.911 45.0671 230.807 45.0685H209.135V38.7641H234.353V45.0685C234.352 45.1729 234.371 45.2766 234.41 45.3735C234.449 45.4704 234.507 45.5586 234.58 45.633C234.653 45.7073 234.741 45.7664 234.837 45.8067C234.933 45.847 235.037 45.8678 235.141 45.8678C235.246 45.8678 235.349 45.847 235.445 45.8067C235.542 45.7664 235.629 45.7073 235.702 45.633C235.776 45.5586 235.834 45.4704 235.873 45.3735C235.911 45.2766 235.931 45.1729 235.929 45.0685V30.0956C235.929 29.8866 235.846 29.6861 235.698 29.5383C235.551 29.3906 235.35 29.3075 235.141 29.3075H208.347C208.322 29.3064 208.297 29.3064 208.273 29.3075ZM209.135 30.8836H234.353V37.188H209.135V30.8836ZM213.075 31.6717C211.779 31.6717 210.711 32.7394 210.711 34.0358C210.711 35.3321 211.779 36.3999 213.075 36.3999C214.372 36.3999 215.439 35.3321 215.439 34.0358C215.439 32.7394 214.372 31.6717 213.075 31.6717ZM213.075 33.2477C213.52 33.2477 213.863 33.5912 213.863 34.0358C213.863 34.4803 213.52 34.8238 213.075 34.8238C212.631 34.8238 212.287 34.4803 212.287 34.0358C212.287 33.5912 212.631 33.2477 213.075 33.2477ZM218.124 33.2477C218.02 33.2526 217.919 33.2778 217.825 33.3218C217.731 33.3659 217.647 33.4281 217.577 33.5047C217.507 33.5813 217.453 33.6709 217.418 33.7683C217.383 33.8658 217.368 33.9693 217.373 34.0728C217.377 34.1762 217.403 34.2778 217.447 34.3715C217.491 34.4653 217.553 34.5494 217.629 34.6192C217.706 34.6889 217.796 34.7429 217.893 34.778C217.991 34.8131 218.094 34.8287 218.198 34.8238H231.989C232.093 34.8253 232.197 34.806 232.294 34.7671C232.391 34.7281 232.479 34.6703 232.553 34.597C232.628 34.5237 232.687 34.4363 232.727 34.3399C232.767 34.2436 232.788 34.1402 232.788 34.0358C232.788 33.9314 232.767 33.828 232.727 33.7316C232.687 33.6353 232.628 33.5479 232.553 33.4746C232.479 33.4013 232.391 33.3435 232.294 33.3045C232.197 33.2656 232.093 33.2463 231.989 33.2477H218.198C218.173 33.2466 218.148 33.2466 218.124 33.2477ZM213.075 39.5521C211.779 39.5521 210.711 40.6199 210.711 41.9163C210.711 43.2127 211.779 44.2805 213.075 44.2805C214.372 44.2805 215.439 43.2127 215.439 41.9163C215.439 40.6199 214.372 39.5521 213.075 39.5521ZM213.075 41.1282C213.52 41.1282 213.863 41.4717 213.863 41.9163C213.863 42.3609 213.52 42.7043 213.075 42.7043C212.631 42.7043 212.287 42.3609 212.287 41.9163C212.287 41.4717 212.631 41.1282 213.075 41.1282ZM218.124 41.1282C218.02 41.1331 217.919 41.1583 217.825 41.2023C217.731 41.2464 217.647 41.3085 217.577 41.3851C217.507 41.4618 217.453 41.5514 217.418 41.6488C217.383 41.7463 217.368 41.8497 217.373 41.9532C217.377 42.0567 217.403 42.1583 217.447 42.252C217.491 42.3458 217.553 42.43 217.629 42.4997C217.706 42.5694 217.796 42.6234 217.893 42.6585C217.991 42.6936 218.094 42.7092 218.198 42.7043H231.989C232.093 42.7058 232.197 42.6865 232.294 42.6476C232.391 42.6086 232.479 42.5508 232.553 42.4775C232.628 42.4042 232.687 42.3168 232.727 42.2205C232.767 42.1241 232.788 42.0207 232.788 41.9163C232.788 41.8119 232.767 41.7085 232.727 41.6122C232.687 41.5158 232.628 41.4284 232.553 41.3551C232.479 41.2818 232.391 41.224 232.294 41.185C232.197 41.1461 232.093 41.1268 231.989 41.1282H218.198C218.173 41.1271 218.148 41.1271 218.124 41.1282ZM213.075 47.4326C211.779 47.4326 210.711 48.5004 210.711 49.7968C210.711 51.0932 211.779 52.1609 213.075 52.1609C214.372 52.1609 215.439 51.0932 215.439 49.7968C215.439 48.5004 214.372 47.4326 213.075 47.4326ZM233.565 48.2207C231.864 48.2207 230.413 49.5882 230.413 51.3729V51.6561C229.487 52.1434 228.837 53.0596 228.837 54.1311C228.837 55.0043 229.227 55.7731 229.834 56.2367C230.441 56.7002 231.206 56.8892 231.989 56.8892H237.505C238.289 56.8892 239.053 56.7002 239.66 56.2367C240.267 55.7731 240.658 55.0043 240.658 54.1311C240.658 53.169 240.179 52.2571 239.377 51.693C239.141 50.2286 237.909 49.0087 236.323 49.0087H235.757C235.187 48.5602 234.455 48.2207 233.565 48.2207ZM213.075 49.0087C213.52 49.0087 213.863 49.3523 213.863 49.7968C213.863 50.2414 213.52 50.5848 213.075 50.5848C212.631 50.5848 212.287 50.2414 212.287 49.7968C212.287 49.3523 212.631 49.0087 213.075 49.0087ZM218.124 49.0087C218.02 49.0136 217.919 49.0388 217.825 49.0828C217.731 49.1269 217.647 49.189 217.577 49.2656C217.507 49.3423 217.453 49.4319 217.418 49.5293C217.383 49.6268 217.368 49.7302 217.372 49.8337C217.377 49.9372 217.403 50.0388 217.447 50.1325C217.491 50.2263 217.553 50.3105 217.629 50.3802C217.706 50.45 217.796 50.5039 217.893 50.5391C217.991 50.5742 218.094 50.5897 218.198 50.5848H226.866C226.971 50.5863 227.074 50.567 227.171 50.528C227.268 50.489 227.356 50.4312 227.431 50.3579C227.505 50.2846 227.564 50.1972 227.604 50.1009C227.645 50.0046 227.665 49.9012 227.665 49.7968C227.665 49.6924 227.645 49.589 227.604 49.4927C227.564 49.3964 227.505 49.309 227.431 49.2357C227.356 49.1624 227.268 49.1046 227.171 49.0656C227.074 49.0267 226.971 49.0073 226.866 49.0087H218.198C218.173 49.0076 218.148 49.0076 218.124 49.0087ZM233.565 49.7968C234.09 49.7968 234.773 50.1427 234.981 50.3509C235.128 50.4991 235.327 50.5832 235.535 50.5848H236.323C237.097 50.5848 237.899 51.4674 237.899 52.1609C237.9 52.3063 237.94 52.4488 238.016 52.5727C238.092 52.6966 238.201 52.797 238.33 52.8628C238.727 53.0635 239.082 53.6753 239.082 54.1311C239.082 54.5877 238.947 54.7917 238.7 54.9807C238.452 55.1697 238.032 55.3131 237.505 55.3131H231.989C231.462 55.3131 231.042 55.1697 230.794 54.9807C230.547 54.7917 230.413 54.5877 230.413 54.1311C230.413 53.5626 230.768 53.1016 231.422 52.912C231.585 52.8644 231.728 52.7656 231.83 52.6303C231.932 52.495 231.988 52.3304 231.989 52.1609V51.3729C231.989 50.3926 232.654 49.7967 233.565 49.7968Z" fill="#FBFDFA"></path><rect x="190.629" y="94.5762" width="66.9565" height="66.9565" rx="33.4783" fill="#CA732F"></rect><path d="M229.859 121.701L229.797 121.252C229.283 117.563 226.077 114.694 222.272 114.694C218.082 114.694 214.674 118.103 214.674 122.292C214.674 122.813 214.727 123.33 214.832 123.837L214.926 124.291L214.466 124.352C211.721 124.713 209.595 127.07 209.595 129.914L229.859 121.701ZM229.859 121.701L230.304 121.616M229.859 121.701L230.304 121.616M230.304 121.616C230.734 121.534 231.17 121.493 231.609 121.493C235.474 121.493 238.621 124.64 238.621 128.508C238.621 132.377 235.474 135.525 231.609 135.525H229.977C229.793 135.525 229.644 135.376 229.644 135.193C229.644 135.009 229.793 134.86 229.977 134.86H231.608C235.109 134.86 237.956 132.011 237.956 128.508C237.956 125.006 235.109 122.158 231.608 122.158C230.94 122.158 230.277 122.264 229.637 122.473L229.636 122.473C229.538 122.506 229.429 122.49 229.342 122.428C229.256 122.367 229.204 122.268 229.202 122.163M230.304 121.616L229.771 122.882C229.542 122.958 229.289 122.919 229.092 122.779C228.895 122.639 228.776 122.413 228.771 122.171M228.771 122.171L229.202 122.163C229.202 122.163 229.202 122.163 229.202 122.163M228.771 122.171L229.202 122.163M228.771 122.171C228.706 118.652 225.791 115.79 222.272 115.79C218.686 115.79 215.769 118.707 215.769 122.292L229.202 122.163M229.202 122.163C229.133 118.409 226.026 115.359 222.272 115.359C218.448 115.359 215.338 118.469 215.338 122.292C215.338 123.058 215.464 123.814 215.712 124.539M229.202 122.163L215.712 124.539M215.712 124.539C215.748 124.642 215.73 124.756 215.665 124.844C215.596 124.937 215.502 124.983 215.393 124.979M215.712 124.539L209.595 129.914C209.595 133.008 212.111 135.525 215.201 135.525H217.381C217.564 135.525 217.713 135.376 217.713 135.193C217.713 135.009 217.564 134.86 217.381 134.86H215.201C212.476 134.86 210.26 132.642 210.26 129.915C210.26 127.187 212.476 124.969 215.201 124.969C215.238 124.969 215.275 124.972 215.291 124.973C215.292 124.973 215.293 124.973 215.294 124.973M215.393 124.979L215.294 124.973M215.393 124.979C215.393 124.979 215.392 124.979 215.391 124.979L215.372 125.409M215.393 124.979L215.397 124.979L215.372 125.409M215.294 124.973L215.291 124.973L215.266 125.403M215.294 124.973C215.295 124.973 215.296 124.973 215.297 124.973L215.266 125.403M215.266 125.403L215.372 125.409M215.266 125.403L215.372 125.409M227.107 132.232L227.107 132.232L224.938 130.064L224.202 129.328V130.368V139.213V140.253L224.938 139.518L227.106 137.35L227.107 137.35C227.236 137.22 227.447 137.22 227.576 137.35C227.706 137.48 227.706 137.69 227.577 137.82C227.576 137.82 227.576 137.82 227.576 137.82L224.079 141.317L224.079 141.317C224.013 141.383 223.929 141.415 223.844 141.415C223.758 141.415 223.674 141.383 223.609 141.317L220.111 137.82C219.981 137.69 219.981 137.48 220.111 137.35C220.241 137.22 220.451 137.22 220.581 137.35L222.801 139.57L223.537 140.306V139.265V130.316V129.276L222.801 130.012L220.581 132.232C220.516 132.297 220.432 132.33 220.346 132.33C220.26 132.33 220.176 132.297 220.111 132.232C219.981 132.102 219.981 131.892 220.111 131.762L223.609 128.265C223.738 128.135 223.949 128.135 224.079 128.265L224.079 128.265L227.576 131.762C227.576 131.762 227.576 131.762 227.577 131.762C227.706 131.892 227.706 132.102 227.576 132.232C227.447 132.362 227.236 132.362 227.107 132.232Z" fill="#FBFDFA" stroke="#FBFDFA" stroke-width="0.861957"></path><rect x="190.629" y="94.5762" width="66.9565" height="66.9565" rx="33.4783" stroke="#CA732F" stroke-width="2"></rect><rect x="189.629" y="178.533" width="68.9565" height="68.9565" rx="34.4783" fill="#BEB099"></rect><path d="M223.237 217.263C223.237 219.26 223.237 221.257 223.237 223.254C223.237 223.416 223.331 223.647 223.143 223.715C222.964 223.783 222.87 223.553 222.751 223.442C222.239 222.938 221.735 222.426 221.223 221.923C220.984 221.692 220.728 221.488 220.361 221.564C220.079 221.624 219.849 221.778 219.781 222.076C219.695 222.418 219.772 222.708 220.028 222.964C221.249 224.176 222.478 225.396 223.681 226.625C223.946 226.899 224.116 226.83 224.347 226.591C225.525 225.405 226.711 224.227 227.889 223.041C228.307 222.614 228.358 222.111 228.034 221.778C227.692 221.419 227.24 221.462 226.771 221.914C226.25 222.409 225.755 222.93 225.243 223.433C225.149 223.519 225.072 223.698 224.919 223.613C224.799 223.553 224.85 223.399 224.85 223.28C224.85 219.251 224.85 215.223 224.85 211.195C224.85 211.084 224.799 210.93 224.944 210.879C225.081 210.828 225.149 210.973 225.234 211.05C227.18 212.987 229.118 214.933 231.064 216.879C231.149 216.964 231.277 217.05 231.234 217.169C231.183 217.34 231.012 217.297 230.884 217.297C230.202 217.306 229.519 217.297 228.836 217.306C228.23 217.314 227.88 217.596 227.863 218.065C227.846 218.535 228.196 218.893 228.768 218.902C230.509 218.927 232.25 218.91 233.991 218.919C234.239 218.919 234.375 218.816 234.375 218.56C234.375 216.751 234.392 214.941 234.358 213.132C234.35 212.535 233.769 212.219 233.249 212.466C232.856 212.654 232.788 213.038 232.779 213.422C232.762 214.19 232.779 214.958 232.771 215.727C232.771 215.872 232.847 216.068 232.668 216.136C232.532 216.187 232.438 216.017 232.352 215.923C229.963 213.533 227.573 211.143 225.183 208.762C224.944 208.532 224.842 208.276 224.85 207.943C224.867 206.953 224.876 205.963 224.85 204.973C224.833 204.512 224.978 204.239 225.405 204.008C226.481 203.411 226.916 202.045 226.481 200.893C226.045 199.741 224.791 199.033 223.604 199.263C222.435 199.485 221.684 200.262 221.471 201.457C221.283 202.481 221.778 203.522 222.776 204.068C223.152 204.273 223.271 204.512 223.263 204.913C223.246 205.903 223.254 206.893 223.254 207.883C223.254 208.148 223.237 208.387 223.032 208.592C220.626 210.99 218.227 213.397 215.821 215.795C215.744 215.872 215.667 216.017 215.53 215.94C215.411 215.872 215.454 215.727 215.454 215.607C215.454 214.856 215.454 214.105 215.445 213.354C215.437 212.739 215.163 212.415 214.677 212.407C214.19 212.398 213.858 212.705 213.849 213.311C213.823 215.052 213.841 216.793 213.832 218.535C213.832 218.782 213.917 218.927 214.182 218.927C215.957 218.919 217.732 218.936 219.508 218.91C220.079 218.902 220.37 218.56 220.353 218.082C220.344 217.613 220.028 217.34 219.448 217.323C218.731 217.306 218.014 217.323 217.297 217.314C217.135 217.314 216.905 217.399 216.828 217.229C216.734 217.041 216.973 216.947 217.084 216.836C218.978 214.941 220.873 213.047 222.768 211.152C222.879 211.041 222.973 210.819 223.169 210.904C223.314 210.973 223.246 211.186 223.246 211.331C223.237 213.303 223.237 215.283 223.237 217.263Z" fill="#FBFDFA"></path><path d="M362.021 128.054L353.401 123.078V133.031L362.021 128.054ZM258.586 128.916H354.263V127.192H258.586V128.916Z" fill="#CA732F"></path><rect x="363.023" y="94.5762" width="66.9565" height="66.9565" rx="33.4783" fill="#CA732F"></rect><mask id="path-12-inside-1_1484_8808" fill="white"><path d="M396.502 117.916C396.987 117.916 397.381 117.523 397.381 117.038C397.381 116.552 396.987 116.159 396.502 116.159C396.017 116.159 395.623 116.552 395.623 117.038C395.623 117.523 396.017 117.916 396.502 117.916Z"></path><path d="M396.502 120.992C396.987 120.992 397.381 120.599 397.381 120.113C397.381 119.628 396.987 119.234 396.502 119.234C396.017 119.234 395.623 119.628 395.623 120.113C395.623 120.599 396.017 120.992 396.502 120.992Z"></path><path d="M396.502 124.068C396.987 124.068 397.381 123.674 397.381 123.189C397.381 122.703 396.987 122.31 396.502 122.31C396.017 122.31 395.623 122.703 395.623 123.189C395.623 123.674 396.017 124.068 396.502 124.068Z"></path><path d="M396.502 114.841C396.987 114.841 397.381 114.447 397.381 113.962C397.381 113.477 396.987 113.083 396.502 113.083C396.017 113.083 395.623 113.477 395.623 113.962C395.623 114.447 396.017 114.841 396.502 114.841Z"></path><path d="M387.769 133.322C387.337 133.545 387.168 134.075 387.391 134.506C387.547 134.809 387.854 134.982 388.172 134.982C388.308 134.982 388.446 134.951 388.575 134.884C389.006 134.662 389.175 134.132 388.953 133.701C388.73 133.269 388.2 133.1 387.769 133.322Z"></path><path d="M384.913 134.795C384.482 135.018 384.312 135.548 384.535 135.98C384.691 136.282 384.998 136.456 385.316 136.456C385.452 136.456 385.59 136.424 385.718 136.357C386.15 136.135 386.319 135.605 386.097 135.174C385.874 134.742 385.344 134.573 384.913 134.795Z"></path><path d="M390.625 131.849C390.194 132.072 390.024 132.602 390.247 133.033C390.403 133.335 390.71 133.51 391.029 133.51C391.164 133.51 391.302 133.478 391.431 133.411C391.862 133.189 392.031 132.659 391.809 132.227C391.587 131.796 391.057 131.627 390.625 131.849Z"></path><path d="M394.695 130.821C394.673 130.768 394.646 130.717 394.615 130.67C394.583 130.621 394.546 130.576 394.505 130.536C394.465 130.496 394.42 130.459 394.372 130.427C394.324 130.395 394.273 130.368 394.22 130.346C394.167 130.324 394.112 130.307 394.055 130.296C393.943 130.273 393.825 130.273 393.713 130.296C393.656 130.307 393.601 130.324 393.548 130.346C393.495 130.368 393.444 130.395 393.396 130.427C393.348 130.459 393.303 130.496 393.262 130.536C393.222 130.576 393.185 130.621 393.153 130.67C393.122 130.717 393.095 130.768 393.073 130.821C393.051 130.874 393.034 130.93 393.023 130.985C393.011 131.043 393.005 131.1 393.005 131.157C393.005 131.215 393.011 131.272 393.023 131.329C393.034 131.385 393.051 131.44 393.073 131.494C393.095 131.546 393.122 131.598 393.153 131.645C393.185 131.694 393.222 131.738 393.262 131.778C393.303 131.819 393.348 131.856 393.396 131.888C393.444 131.92 393.495 131.947 393.548 131.969C393.601 131.991 393.656 132.008 393.713 132.019C393.769 132.03 393.827 132.036 393.884 132.036C393.941 132.036 393.999 132.03 394.055 132.019C394.112 132.008 394.167 131.991 394.22 131.969C394.273 131.947 394.324 131.92 394.372 131.888C394.42 131.856 394.465 131.819 394.505 131.778C394.546 131.738 394.583 131.694 394.615 131.645C394.646 131.598 394.673 131.546 394.695 131.494C394.717 131.44 394.734 131.385 394.746 131.329C394.757 131.272 394.763 131.215 394.763 131.157C394.763 131.1 394.757 131.043 394.746 130.985C394.734 130.93 394.717 130.874 394.695 130.821Z"></path><path d="M399.931 130.796C399.909 130.742 399.882 130.692 399.851 130.644C399.818 130.596 399.782 130.551 399.742 130.51C399.701 130.47 399.656 130.433 399.608 130.401C399.56 130.37 399.509 130.342 399.456 130.32C399.403 130.299 399.348 130.282 399.291 130.27C399.178 130.247 399.061 130.247 398.948 130.27C398.892 130.282 398.836 130.299 398.784 130.32C398.731 130.342 398.68 130.37 398.632 130.401C398.584 130.433 398.539 130.47 398.498 130.51C398.458 130.551 398.421 130.596 398.389 130.644C398.358 130.692 398.33 130.742 398.309 130.796C398.287 130.848 398.27 130.904 398.258 130.96C398.247 131.017 398.241 131.075 398.241 131.132C398.241 131.189 398.247 131.247 398.258 131.303C398.27 131.36 398.287 131.415 398.309 131.468C398.33 131.521 398.358 131.572 398.389 131.62C398.421 131.668 398.458 131.713 398.498 131.753C398.539 131.794 398.584 131.83 398.632 131.863C398.68 131.894 398.731 131.921 398.784 131.943C398.836 131.965 398.892 131.982 398.948 131.993C399.005 132.005 399.063 132.011 399.12 132.011C399.177 132.011 399.235 132.005 399.291 131.993C399.348 131.982 399.403 131.965 399.456 131.943C399.509 131.921 399.56 131.894 399.608 131.863C399.656 131.83 399.701 131.794 399.742 131.753C399.905 131.59 399.999 131.363 399.999 131.132C399.999 131.075 399.993 131.017 399.982 130.96C399.97 130.904 399.953 130.848 399.931 130.796Z"></path><path d="M405.236 133.309C404.805 133.086 404.274 133.254 404.052 133.685C403.828 134.116 403.997 134.646 404.428 134.869C404.557 134.936 404.695 134.968 404.832 134.968C405.149 134.968 405.456 134.795 405.612 134.493C405.836 134.062 405.667 133.532 405.236 133.309Z"></path><path d="M408.092 134.787C407.661 134.564 407.131 134.732 406.908 135.164C406.684 135.594 406.853 136.125 407.284 136.348C407.413 136.415 407.551 136.447 407.688 136.447C408.005 136.447 408.312 136.273 408.468 135.972C408.692 135.541 408.523 135.01 408.092 134.787Z"></path><path d="M402.38 131.83C401.949 131.607 401.419 131.776 401.196 132.206C400.973 132.637 401.141 133.168 401.572 133.391C401.701 133.458 401.839 133.489 401.975 133.489C402.293 133.489 402.6 133.316 402.756 133.015C402.98 132.583 402.811 132.053 402.38 131.83Z"></path><path d="M411.637 119.918C411.637 118.928 411.09 118.031 410.211 117.576L397.702 111.109C396.942 110.717 396.036 110.717 395.278 111.111L382.789 117.588C381.912 118.044 381.367 118.94 381.367 119.929V136.185C381.367 136.729 381.533 137.251 381.842 137.692C381.844 137.695 381.845 137.697 381.846 137.699C381.848 137.701 381.849 137.703 381.85 137.705C381.854 137.711 381.858 137.717 381.862 137.722C382.102 138.058 382.422 138.335 382.79 138.526L395.276 144.997C395.46 145.093 395.655 145.166 395.847 145.214C395.925 145.233 396.008 145.25 396.096 145.264C396.102 145.265 396.109 145.266 396.116 145.267C396.185 145.277 396.248 145.282 396.29 145.286C396.297 145.286 396.304 145.287 396.31 145.288C396.358 145.291 396.408 145.293 396.457 145.293C396.467 145.293 396.481 145.293 396.491 145.293C396.912 145.293 397.332 145.192 397.703 144.999L410.213 138.522C410.582 138.33 410.904 138.051 411.142 137.717C411.142 137.717 411.142 137.717 411.143 137.716C411.143 137.716 411.144 137.715 411.145 137.714C411.146 137.712 411.148 137.71 411.149 137.708C411.151 137.706 411.152 137.703 411.154 137.7C411.156 137.697 411.159 137.695 411.161 137.692C411.163 137.689 411.164 137.686 411.167 137.683C411.474 137.241 411.637 136.724 411.637 136.182V119.918H411.637ZM396.087 112.67C396.339 112.539 396.641 112.539 396.895 112.67L409.193 119.028L402.595 122.451C402.595 122.451 402.591 122.454 402.589 122.455L396.933 125.39C396.681 125.521 396.379 125.521 396.126 125.391L383.813 119.038L396.087 112.67ZM397.356 143.198V129.692C397.356 129.207 396.963 128.813 396.477 128.813C395.992 128.813 395.598 129.207 395.598 129.692V143.184L383.599 136.965C383.477 136.902 383.371 136.81 383.29 136.696C383.182 136.546 383.125 136.37 383.125 136.185V120.66L395.32 126.953C395.699 127.148 396.114 127.246 396.529 127.246C396.944 127.246 397.363 127.147 397.743 126.95L409.88 120.653V136.182C409.88 136.366 409.824 136.542 409.715 136.694C409.635 136.805 409.528 136.898 409.405 136.962L397.357 143.199L397.356 143.198Z"></path></mask><path d="M396.502 117.916C396.987 117.916 397.381 117.523 397.381 117.038C397.381 116.552 396.987 116.159 396.502 116.159C396.017 116.159 395.623 116.552 395.623 117.038C395.623 117.523 396.017 117.916 396.502 117.916Z" fill="#FBFDFA"></path><path d="M396.502 120.992C396.987 120.992 397.381 120.599 397.381 120.113C397.381 119.628 396.987 119.234 396.502 119.234C396.017 119.234 395.623 119.628 395.623 120.113C395.623 120.599 396.017 120.992 396.502 120.992Z" fill="#FBFDFA"></path><path d="M396.502 124.068C396.987 124.068 397.381 123.674 397.381 123.189C397.381 122.703 396.987 122.31 396.502 122.31C396.017 122.31 395.623 122.703 395.623 123.189C395.623 123.674 396.017 124.068 396.502 124.068Z" fill="#FBFDFA"></path><path d="M396.502 114.841C396.987 114.841 397.381 114.447 397.381 113.962C397.381 113.477 396.987 113.083 396.502 113.083C396.017 113.083 395.623 113.477 395.623 113.962C395.623 114.447 396.017 114.841 396.502 114.841Z" fill="#FBFDFA"></path><path d="M387.769 133.322C387.337 133.545 387.168 134.075 387.391 134.506C387.547 134.809 387.854 134.982 388.172 134.982C388.308 134.982 388.446 134.951 388.575 134.884C389.006 134.662 389.175 134.132 388.953 133.701C388.73 133.269 388.2 133.1 387.769 133.322Z" fill="#FBFDFA"></path><path d="M384.913 134.795C384.482 135.018 384.312 135.548 384.535 135.98C384.691 136.282 384.998 136.456 385.316 136.456C385.452 136.456 385.59 136.424 385.718 136.357C386.15 136.135 386.319 135.605 386.097 135.174C385.874 134.742 385.344 134.573 384.913 134.795Z" fill="#FBFDFA"></path><path d="M390.625 131.849C390.194 132.072 390.024 132.602 390.247 133.033C390.403 133.335 390.71 133.51 391.029 133.51C391.164 133.51 391.302 133.478 391.431 133.411C391.862 133.189 392.031 132.659 391.809 132.227C391.587 131.796 391.057 131.627 390.625 131.849Z" fill="#FBFDFA"></path><path d="M394.695 130.821C394.673 130.768 394.646 130.717 394.615 130.67C394.583 130.621 394.546 130.576 394.505 130.536C394.465 130.496 394.42 130.459 394.372 130.427C394.324 130.395 394.273 130.368 394.22 130.346C394.167 130.324 394.112 130.307 394.055 130.296C393.943 130.273 393.825 130.273 393.713 130.296C393.656 130.307 393.601 130.324 393.548 130.346C393.495 130.368 393.444 130.395 393.396 130.427C393.348 130.459 393.303 130.496 393.262 130.536C393.222 130.576 393.185 130.621 393.153 130.67C393.122 130.717 393.095 130.768 393.073 130.821C393.051 130.874 393.034 130.93 393.023 130.985C393.011 131.043 393.005 131.1 393.005 131.157C393.005 131.215 393.011 131.272 393.023 131.329C393.034 131.385 393.051 131.44 393.073 131.494C393.095 131.546 393.122 131.598 393.153 131.645C393.185 131.694 393.222 131.738 393.262 131.778C393.303 131.819 393.348 131.856 393.396 131.888C393.444 131.92 393.495 131.947 393.548 131.969C393.601 131.991 393.656 132.008 393.713 132.019C393.769 132.03 393.827 132.036 393.884 132.036C393.941 132.036 393.999 132.03 394.055 132.019C394.112 132.008 394.167 131.991 394.22 131.969C394.273 131.947 394.324 131.92 394.372 131.888C394.42 131.856 394.465 131.819 394.505 131.778C394.546 131.738 394.583 131.694 394.615 131.645C394.646 131.598 394.673 131.546 394.695 131.494C394.717 131.44 394.734 131.385 394.746 131.329C394.757 131.272 394.763 131.215 394.763 131.157C394.763 131.1 394.757 131.043 394.746 130.985C394.734 130.93 394.717 130.874 394.695 130.821Z" fill="#FBFDFA"></path><path d="M399.931 130.796C399.909 130.742 399.882 130.692 399.851 130.644C399.818 130.596 399.782 130.551 399.742 130.51C399.701 130.47 399.656 130.433 399.608 130.401C399.56 130.37 399.509 130.342 399.456 130.32C399.403 130.299 399.348 130.282 399.291 130.27C399.178 130.247 399.061 130.247 398.948 130.27C398.892 130.282 398.836 130.299 398.784 130.32C398.731 130.342 398.68 130.37 398.632 130.401C398.584 130.433 398.539 130.47 398.498 130.51C398.458 130.551 398.421 130.596 398.389 130.644C398.358 130.692 398.33 130.742 398.309 130.796C398.287 130.848 398.27 130.904 398.258 130.96C398.247 131.017 398.241 131.075 398.241 131.132C398.241 131.189 398.247 131.247 398.258 131.303C398.27 131.36 398.287 131.415 398.309 131.468C398.33 131.521 398.358 131.572 398.389 131.62C398.421 131.668 398.458 131.713 398.498 131.753C398.539 131.794 398.584 131.83 398.632 131.863C398.68 131.894 398.731 131.921 398.784 131.943C398.836 131.965 398.892 131.982 398.948 131.993C399.005 132.005 399.063 132.011 399.12 132.011C399.177 132.011 399.235 132.005 399.291 131.993C399.348 131.982 399.403 131.965 399.456 131.943C399.509 131.921 399.56 131.894 399.608 131.863C399.656 131.83 399.701 131.794 399.742 131.753C399.905 131.59 399.999 131.363 399.999 131.132C399.999 131.075 399.993 131.017 399.982 130.96C399.97 130.904 399.953 130.848 399.931 130.796Z" fill="#FBFDFA"></path><path d="M405.236 133.309C404.805 133.086 404.274 133.254 404.052 133.685C403.828 134.116 403.997 134.646 404.428 134.869C404.557 134.936 404.695 134.968 404.832 134.968C405.149 134.968 405.456 134.795 405.612 134.493C405.836 134.062 405.667 133.532 405.236 133.309Z" fill="#FBFDFA"></path><path d="M408.092 134.787C407.661 134.564 407.131 134.732 406.908 135.164C406.684 135.594 406.853 136.125 407.284 136.348C407.413 136.415 407.551 136.447 407.688 136.447C408.005 136.447 408.312 136.273 408.468 135.972C408.692 135.541 408.523 135.01 408.092 134.787Z" fill="#FBFDFA"></path><path d="M402.38 131.83C401.949 131.607 401.419 131.776 401.196 132.206C400.973 132.637 401.141 133.168 401.572 133.391C401.701 133.458 401.839 133.489 401.975 133.489C402.293 133.489 402.6 133.316 402.756 133.015C402.98 132.583 402.811 132.053 402.38 131.83Z" fill="#FBFDFA"></path><path d="M411.637 119.918C411.637 118.928 411.09 118.031 410.211 117.576L397.702 111.109C396.942 110.717 396.036 110.717 395.278 111.111L382.789 117.588C381.912 118.044 381.367 118.94 381.367 119.929V136.185C381.367 136.729 381.533 137.251 381.842 137.692C381.844 137.695 381.845 137.697 381.846 137.699C381.848 137.701 381.849 137.703 381.85 137.705C381.854 137.711 381.858 137.717 381.862 137.722C382.102 138.058 382.422 138.335 382.79 138.526L395.276 144.997C395.46 145.093 395.655 145.166 395.847 145.214C395.925 145.233 396.008 145.25 396.096 145.264C396.102 145.265 396.109 145.266 396.116 145.267C396.185 145.277 396.248 145.282 396.29 145.286C396.297 145.286 396.304 145.287 396.31 145.288C396.358 145.291 396.408 145.293 396.457 145.293C396.467 145.293 396.481 145.293 396.491 145.293C396.912 145.293 397.332 145.192 397.703 144.999L410.213 138.522C410.582 138.33 410.904 138.051 411.142 137.717C411.142 137.717 411.142 137.717 411.143 137.716C411.143 137.716 411.144 137.715 411.145 137.714C411.146 137.712 411.148 137.71 411.149 137.708C411.151 137.706 411.152 137.703 411.154 137.7C411.156 137.697 411.159 137.695 411.161 137.692C411.163 137.689 411.164 137.686 411.167 137.683C411.474 137.241 411.637 136.724 411.637 136.182V119.918H411.637ZM396.087 112.67C396.339 112.539 396.641 112.539 396.895 112.67L409.193 119.028L402.595 122.451C402.595 122.451 402.591 122.454 402.589 122.455L396.933 125.39C396.681 125.521 396.379 125.521 396.126 125.391L383.813 119.038L396.087 112.67ZM397.356 143.198V129.692C397.356 129.207 396.963 128.813 396.477 128.813C395.992 128.813 395.598 129.207 395.598 129.692V143.184L383.599 136.965C383.477 136.902 383.371 136.81 383.29 136.696C383.182 136.546 383.125 136.37 383.125 136.185V120.66L395.32 126.953C395.699 127.148 396.114 127.246 396.529 127.246C396.944 127.246 397.363 127.147 397.743 126.95L409.88 120.653V136.182C409.88 136.366 409.824 136.542 409.715 136.694C409.635 136.805 409.528 136.898 409.405 136.962L397.357 143.199L397.356 143.198Z" fill="#FBFDFA"></path><path d="M396.502 117.916C396.987 117.916 397.381 117.523 397.381 117.038C397.381 116.552 396.987 116.159 396.502 116.159C396.017 116.159 395.623 116.552 395.623 117.038C395.623 117.523 396.017 117.916 396.502 117.916Z" stroke="#FBFDFA" stroke-width="1.72391" mask="url(#path-12-inside-1_1484_8808)"></path><path d="M396.502 120.992C396.987 120.992 397.381 120.599 397.381 120.113C397.381 119.628 396.987 119.234 396.502 119.234C396.017 119.234 395.623 119.628 395.623 120.113C395.623 120.599 396.017 120.992 396.502 120.992Z" stroke="#FBFDFA" stroke-width="1.72391" mask="url(#path-12-inside-1_1484_8808)"></path><path d="M396.502 124.068C396.987 124.068 397.381 123.674 397.381 123.189C397.381 122.703 396.987 122.31 396.502 122.31C396.017 122.31 395.623 122.703 395.623 123.189C395.623 123.674 396.017 124.068 396.502 124.068Z" stroke="#FBFDFA" stroke-width="1.72391" mask="url(#path-12-inside-1_1484_8808)"></path><path d="M396.502 114.841C396.987 114.841 397.381 114.447 397.381 113.962C397.381 113.477 396.987 113.083 396.502 113.083C396.017 113.083 395.623 113.477 395.623 113.962C395.623 114.447 396.017 114.841 396.502 114.841Z" stroke="#FBFDFA" stroke-width="1.72391" mask="url(#path-12-inside-1_1484_8808)"></path><path d="M387.769 133.322C387.337 133.545 387.168 134.075 387.391 134.506C387.547 134.809 387.854 134.982 388.172 134.982C388.308 134.982 388.446 134.951 388.575 134.884C389.006 134.662 389.175 134.132 388.953 133.701C388.73 133.269 388.2 133.1 387.769 133.322Z" stroke="#FBFDFA" stroke-width="1.72391" mask="url(#path-12-inside-1_1484_8808)"></path><path d="M384.913 134.795C384.482 135.018 384.312 135.548 384.535 135.98C384.691 136.282 384.998 136.456 385.316 136.456C385.452 136.456 385.59 136.424 385.718 136.357C386.15 136.135 386.319 135.605 386.097 135.174C385.874 134.742 385.344 134.573 384.913 134.795Z" stroke="#FBFDFA" stroke-width="1.72391" mask="url(#path-12-inside-1_1484_8808)"></path><path d="M390.625 131.849C390.194 132.072 390.024 132.602 390.247 133.033C390.403 133.335 390.71 133.51 391.029 133.51C391.164 133.51 391.302 133.478 391.431 133.411C391.862 133.189 392.031 132.659 391.809 132.227C391.587 131.796 391.057 131.627 390.625 131.849Z" stroke="#FBFDFA" stroke-width="1.72391" mask="url(#path-12-inside-1_1484_8808)"></path><path d="M394.695 130.821C394.673 130.768 394.646 130.717 394.615 130.67C394.583 130.621 394.546 130.576 394.505 130.536C394.465 130.496 394.42 130.459 394.372 130.427C394.324 130.395 394.273 130.368 394.22 130.346C394.167 130.324 394.112 130.307 394.055 130.296C393.943 130.273 393.825 130.273 393.713 130.296C393.656 130.307 393.601 130.324 393.548 130.346C393.495 130.368 393.444 130.395 393.396 130.427C393.348 130.459 393.303 130.496 393.262 130.536C393.222 130.576 393.185 130.621 393.153 130.67C393.122 130.717 393.095 130.768 393.073 130.821C393.051 130.874 393.034 130.93 393.023 130.985C393.011 131.043 393.005 131.1 393.005 131.157C393.005 131.215 393.011 131.272 393.023 131.329C393.034 131.385 393.051 131.44 393.073 131.494C393.095 131.546 393.122 131.598 393.153 131.645C393.185 131.694 393.222 131.738 393.262 131.778C393.303 131.819 393.348 131.856 393.396 131.888C393.444 131.92 393.495 131.947 393.548 131.969C393.601 131.991 393.656 132.008 393.713 132.019C393.769 132.03 393.827 132.036 393.884 132.036C393.941 132.036 393.999 132.03 394.055 132.019C394.112 132.008 394.167 131.991 394.22 131.969C394.273 131.947 394.324 131.92 394.372 131.888C394.42 131.856 394.465 131.819 394.505 131.778C394.546 131.738 394.583 131.694 394.615 131.645C394.646 131.598 394.673 131.546 394.695 131.494C394.717 131.44 394.734 131.385 394.746 131.329C394.757 131.272 394.763 131.215 394.763 131.157C394.763 131.1 394.757 131.043 394.746 130.985C394.734 130.93 394.717 130.874 394.695 130.821Z" stroke="#FBFDFA" stroke-width="1.72391" mask="url(#path-12-inside-1_1484_8808)"></path><path d="M399.931 130.796C399.909 130.742 399.882 130.692 399.851 130.644C399.818 130.596 399.782 130.551 399.742 130.51C399.701 130.47 399.656 130.433 399.608 130.401C399.56 130.37 399.509 130.342 399.456 130.32C399.403 130.299 399.348 130.282 399.291 130.27C399.178 130.247 399.061 130.247 398.948 130.27C398.892 130.282 398.836 130.299 398.784 130.32C398.731 130.342 398.68 130.37 398.632 130.401C398.584 130.433 398.539 130.47 398.498 130.51C398.458 130.551 398.421 130.596 398.389 130.644C398.358 130.692 398.33 130.742 398.309 130.796C398.287 130.848 398.27 130.904 398.258 130.96C398.247 131.017 398.241 131.075 398.241 131.132C398.241 131.189 398.247 131.247 398.258 131.303C398.27 131.36 398.287 131.415 398.309 131.468C398.33 131.521 398.358 131.572 398.389 131.62C398.421 131.668 398.458 131.713 398.498 131.753C398.539 131.794 398.584 131.83 398.632 131.863C398.68 131.894 398.731 131.921 398.784 131.943C398.836 131.965 398.892 131.982 398.948 131.993C399.005 132.005 399.063 132.011 399.12 132.011C399.177 132.011 399.235 132.005 399.291 131.993C399.348 131.982 399.403 131.965 399.456 131.943C399.509 131.921 399.56 131.894 399.608 131.863C399.656 131.83 399.701 131.794 399.742 131.753C399.905 131.59 399.999 131.363 399.999 131.132C399.999 131.075 399.993 131.017 399.982 130.96C399.97 130.904 399.953 130.848 399.931 130.796Z" stroke="#FBFDFA" stroke-width="1.72391" mask="url(#path-12-inside-1_1484_8808)"></path><path d="M405.236 133.309C404.805 133.086 404.274 133.254 404.052 133.685C403.828 134.116 403.997 134.646 404.428 134.869C404.557 134.936 404.695 134.968 404.832 134.968C405.149 134.968 405.456 134.795 405.612 134.493C405.836 134.062 405.667 133.532 405.236 133.309Z" stroke="#FBFDFA" stroke-width="1.72391" mask="url(#path-12-inside-1_1484_8808)"></path><path d="M408.092 134.787C407.661 134.564 407.131 134.732 406.908 135.164C406.684 135.594 406.853 136.125 407.284 136.348C407.413 136.415 407.551 136.447 407.688 136.447C408.005 136.447 408.312 136.273 408.468 135.972C408.692 135.541 408.523 135.01 408.092 134.787Z" stroke="#FBFDFA" stroke-width="1.72391" mask="url(#path-12-inside-1_1484_8808)"></path><path d="M402.38 131.83C401.949 131.607 401.419 131.776 401.196 132.206C400.973 132.637 401.141 133.168 401.572 133.391C401.701 133.458 401.839 133.489 401.975 133.489C402.293 133.489 402.6 133.316 402.756 133.015C402.98 132.583 402.811 132.053 402.38 131.83Z" stroke="#FBFDFA" stroke-width="1.72391" mask="url(#path-12-inside-1_1484_8808)"></path><path d="M411.637 119.918C411.637 118.928 411.09 118.031 410.211 117.576L397.702 111.109C396.942 110.717 396.036 110.717 395.278 111.111L382.789 117.588C381.912 118.044 381.367 118.94 381.367 119.929V136.185C381.367 136.729 381.533 137.251 381.842 137.692C381.844 137.695 381.845 137.697 381.846 137.699C381.848 137.701 381.849 137.703 381.85 137.705C381.854 137.711 381.858 137.717 381.862 137.722C382.102 138.058 382.422 138.335 382.79 138.526L395.276 144.997C395.46 145.093 395.655 145.166 395.847 145.214C395.925 145.233 396.008 145.25 396.096 145.264C396.102 145.265 396.109 145.266 396.116 145.267C396.185 145.277 396.248 145.282 396.29 145.286C396.297 145.286 396.304 145.287 396.31 145.288C396.358 145.291 396.408 145.293 396.457 145.293C396.467 145.293 396.481 145.293 396.491 145.293C396.912 145.293 397.332 145.192 397.703 144.999L410.213 138.522C410.582 138.33 410.904 138.051 411.142 137.717C411.142 137.717 411.142 137.717 411.143 137.716C411.143 137.716 411.144 137.715 411.145 137.714C411.146 137.712 411.148 137.71 411.149 137.708C411.151 137.706 411.152 137.703 411.154 137.7C411.156 137.697 411.159 137.695 411.161 137.692C411.163 137.689 411.164 137.686 411.167 137.683C411.474 137.241 411.637 136.724 411.637 136.182V119.918H411.637ZM396.087 112.67C396.339 112.539 396.641 112.539 396.895 112.67L409.193 119.028L402.595 122.451C402.595 122.451 402.591 122.454 402.589 122.455L396.933 125.39C396.681 125.521 396.379 125.521 396.126 125.391L383.813 119.038L396.087 112.67ZM397.356 143.198V129.692C397.356 129.207 396.963 128.813 396.477 128.813C395.992 128.813 395.598 129.207 395.598 129.692V143.184L383.599 136.965C383.477 136.902 383.371 136.81 383.29 136.696C383.182 136.546 383.125 136.37 383.125 136.185V120.66L395.32 126.953C395.699 127.148 396.114 127.246 396.529 127.246C396.944 127.246 397.363 127.147 397.743 126.95L409.88 120.653V136.182C409.88 136.366 409.824 136.542 409.715 136.694C409.635 136.805 409.528 136.898 409.405 136.962L397.357 143.199L397.356 143.198Z" stroke="#FBFDFA" stroke-width="1.72391" mask="url(#path-12-inside-1_1484_8808)"></path><rect x="363.023" y="94.5762" width="66.9565" height="66.9565" rx="33.4783" stroke="#CA732F" stroke-width="2"></rect><rect x="543.035" width="68.9565" height="68.9565" rx="34.4783" fill="#BEB099"></rect><path d="M577.515 51.7173C577.485 51.7173 577.456 51.7152 577.426 51.7117C564.65 50.127 562.707 24.2312 562.631 23.1294C562.614 22.8775 562.729 22.6354 562.936 22.4908C563.143 22.3462 563.411 22.3196 563.64 22.4234C570.731 25.5857 576.88 17.591 576.941 17.5096C577.213 17.1488 577.816 17.1488 578.089 17.5096C578.15 17.5903 584.299 25.5885 591.39 22.4234C591.619 22.3196 591.887 22.3462 592.094 22.4908C592.301 22.6354 592.416 22.8775 592.399 23.1294C592.323 24.2312 590.38 50.127 577.603 51.7117C577.574 51.7152 577.544 51.7173 577.515 51.7173ZM564.17 24.1596C564.69 29.1395 567.394 48.9052 577.515 50.2737C587.641 48.9045 590.34 29.1395 590.86 24.1596C584.56 26.145 579.226 20.9771 577.515 19.057C575.804 20.9764 570.473 26.1485 564.17 24.1596Z" fill="#FBFDFA"></path><path d="M577.515 42.7429C572.953 42.7429 569.242 39.0318 569.242 34.4702C569.242 29.9087 572.953 26.1976 577.515 26.1976C582.076 26.1976 585.787 29.9087 585.787 34.4702C585.787 39.0318 582.076 42.7429 577.515 42.7429ZM577.515 27.6349C573.745 27.6349 570.679 30.701 570.679 34.4702C570.679 38.2395 573.745 41.3056 577.515 41.3056C581.284 41.3056 584.35 38.2395 584.35 34.4702C584.35 30.701 581.284 27.6349 577.515 27.6349Z" fill="#FBFDFA"></path><path d="M576.282 37.4605C576.11 37.4605 575.94 37.4002 575.803 37.2781L573.401 35.1362C573.105 34.8724 573.079 34.4176 573.344 34.1215C573.609 33.8253 574.063 33.8007 574.359 34.0639L576.27 35.7692L580.659 31.6729C580.951 31.4021 581.405 31.4175 581.676 31.708C581.946 31.9986 581.93 32.4533 581.64 32.7242L576.772 37.2676C576.634 37.396 576.458 37.4605 576.282 37.4605Z" fill="#FBFDFA"></path><rect x="544.035" y="188.152" width="66.9565" height="66.9565" rx="33.4783" fill="#CA732F"></rect><path d="M589.573 205.702L589.574 205.702C590.118 206.246 590.454 206.994 590.454 207.818V235.443C590.454 236.265 590.118 237.014 589.574 237.558C589.03 238.102 588.282 238.438 587.458 238.438H567.571C566.748 238.438 565.999 238.102 565.456 237.559L565.456 237.558C564.911 237.014 564.576 236.266 564.576 235.443V207.818C564.576 206.995 564.911 206.246 565.456 205.702C565.999 205.159 566.748 204.822 567.571 204.822H587.458C588.281 204.822 589.031 205.158 589.573 205.702ZM569.933 221.581L569.452 220.88H569.577H569.579L569.933 221.123C569.942 221.109 569.954 221.095 569.968 221.081L569.968 221.081L569.973 221.076C570.127 220.923 570.373 220.924 570.525 221.076L570.526 221.077L571.359 221.908L571.664 222.213L571.969 221.907L573.583 220.286L574.314 219.551H573.277H569.577H569.146V219.982V220.434V220.746V220.879V220.88V221.825V223.279V223.71H569.577H571.014H571.27H572.054H572.307H574.029H574.46V223.279V221.55V220.506L573.724 221.246L572.002 222.975L571.661 223.317L571.318 222.974L569.973 221.629C569.955 221.611 569.942 221.595 569.933 221.581ZM574.887 218.769L575.08 218.78L575.216 218.644L575.251 218.609L575.252 218.607C575.404 218.455 575.649 218.455 575.801 218.606L575.801 218.606C575.954 218.758 575.954 219.003 575.803 219.155L575.803 219.155L575.367 219.593L575.242 219.719V219.897V224.101C575.242 224.317 575.067 224.492 574.851 224.492H568.754C568.538 224.492 568.363 224.317 568.363 224.101V219.159C568.363 218.942 568.538 218.768 568.754 218.768H574.851C574.858 218.768 574.866 218.768 574.887 218.769ZM574.459 228.826V228.395H574.028H569.576H569.145V228.826V232.124V232.555H569.576H574.028H574.459V232.124V228.826ZM574.458 211.135V210.704H574.027H569.575H569.144V211.135V214.434V214.865H569.575H574.027H574.458V214.434V211.135ZM578.55 230.866C578.333 230.866 578.158 230.691 578.158 230.475C578.158 230.26 578.333 230.084 578.55 230.084H586.274C586.49 230.084 586.665 230.259 586.665 230.475C586.665 230.691 586.49 230.866 586.274 230.866H578.55ZM568.754 227.613H574.851C575.067 227.613 575.242 227.788 575.242 228.004V232.946C575.242 233.162 575.067 233.337 574.851 233.337H568.754C568.538 233.337 568.363 233.162 568.363 232.946V228.004C568.363 227.788 568.538 227.613 568.754 227.613ZM578.549 222.021C578.332 222.021 578.157 221.845 578.157 221.63C578.157 221.414 578.332 221.239 578.549 221.239H586.273C586.489 221.239 586.664 221.413 586.664 221.63C586.664 221.846 586.489 222.021 586.273 222.021H578.549ZM578.549 213.175C578.332 213.175 578.157 213 578.157 212.784C578.157 212.569 578.332 212.393 578.549 212.393H586.273C586.489 212.393 586.664 212.568 586.664 212.784C586.664 213.001 586.489 213.175 586.273 213.175H578.549ZM568.753 209.922H574.85C575.066 209.922 575.241 210.097 575.241 210.313V215.255C575.241 215.472 575.066 215.646 574.85 215.646H568.753C568.537 215.646 568.362 215.472 568.362 215.255V210.313C568.362 210.097 568.537 209.922 568.753 209.922ZM587.456 205.604H567.569C566.96 205.604 566.406 205.854 566.007 206.255C565.606 206.654 565.356 207.209 565.356 207.817V235.441C565.356 236.051 565.606 236.604 566.007 237.004C566.406 237.402 566.959 237.654 567.569 237.654H587.456C588.065 237.654 588.618 237.404 589.018 237.004C589.418 236.604 589.669 236.049 589.669 235.441V207.817C589.669 207.207 589.418 206.654 589.017 206.254C588.619 205.856 588.065 205.604 587.456 205.604Z" fill="#FBFDFA" stroke="#FBFDFA" stroke-width="0.861957"></path><rect x="544.035" y="188.152" width="66.9565" height="66.9565" rx="33.4783" stroke="#CA732F" stroke-width="2"></rect><rect x="725.043" y="94.5762" width="66.9565" height="66.9565" rx="33.4783" fill="#CA732F"></rect><mask id="path-18-inside-2_1484_8808" fill="white"><path d="M774.216 124.102L772.214 123.751C771.961 122.948 771.637 122.17 771.247 121.425L772.416 119.759C772.81 119.198 772.994 118.516 772.935 117.833C772.875 117.15 772.576 116.509 772.091 116.025L770.549 114.483C770.064 113.997 769.424 113.698 768.741 113.639C768.058 113.579 767.375 113.763 766.815 114.158L765.149 115.327C764.404 114.938 763.625 114.615 762.823 114.363L762.494 112.381C762.38 111.702 762.029 111.085 761.503 110.641C760.977 110.196 760.311 109.953 759.623 109.953H757.442C756.753 109.953 756.087 110.196 755.561 110.641C755.036 111.085 754.684 111.702 754.57 112.381L754.219 114.382C753.417 114.634 752.639 114.956 751.893 115.345L750.228 114.177C749.667 113.782 748.985 113.598 748.301 113.657C747.618 113.717 746.978 114.016 746.494 114.502L744.951 116.044C744.466 116.528 744.167 117.168 744.107 117.851C744.048 118.535 744.232 119.217 744.626 119.778L745.795 121.443C745.406 122.189 745.084 122.967 744.832 123.77L742.849 124.102C742.17 124.216 741.554 124.567 741.109 125.093C740.665 125.619 740.421 126.285 740.422 126.973V129.158C740.422 129.846 740.666 130.511 741.11 131.036C741.555 131.561 742.171 131.912 742.849 132.026L744.851 132.377C745.103 133.179 745.425 133.957 745.814 134.703L744.645 136.368C744.25 136.929 744.067 137.612 744.126 138.295C744.185 138.978 744.484 139.618 744.97 140.103L746.516 141.648C747 142.134 747.64 142.433 748.324 142.493C749.007 142.552 749.689 142.368 750.25 141.973L751.915 140.805C752.661 141.194 753.44 141.516 754.242 141.768L754.57 143.747C754.688 144.422 755.041 145.034 755.565 145.474C756.09 145.915 756.753 146.156 757.438 146.156H759.623C760.308 146.157 760.973 145.916 761.498 145.475C762.023 145.035 762.376 144.423 762.494 143.747L762.845 141.746C763.647 141.494 764.426 141.171 765.172 140.782L766.837 141.951C767.398 142.346 768.08 142.53 768.763 142.47C769.447 142.411 770.087 142.112 770.571 141.626L772.113 140.084C772.599 139.6 772.898 138.959 772.957 138.276C773.017 137.593 772.833 136.911 772.438 136.35L771.269 134.684C771.66 133.939 771.983 133.16 772.236 132.358L774.216 132.026C774.89 131.908 775.502 131.556 775.943 131.031C776.383 130.506 776.625 129.843 776.624 129.158V126.973C776.625 126.288 776.385 125.623 775.944 125.098C775.503 124.573 774.891 124.22 774.216 124.102ZM774.776 129.154C774.776 129.4 774.689 129.639 774.53 129.827C774.372 130.016 774.152 130.143 773.909 130.185L771.34 130.637C771.164 130.666 771 130.745 770.868 130.865C770.736 130.985 770.64 131.14 770.593 131.312C770.313 132.358 769.898 133.362 769.357 134.3C769.269 134.454 769.226 134.629 769.234 134.807C769.242 134.984 769.3 135.155 769.402 135.3L770.896 137.44C771.038 137.641 771.104 137.886 771.082 138.132C771.061 138.377 770.954 138.607 770.78 138.781L769.238 140.323C769.064 140.498 768.834 140.605 768.589 140.626C768.343 140.647 768.099 140.581 767.897 140.439L765.758 138.945C765.614 138.844 765.444 138.785 765.269 138.776C765.093 138.766 764.918 138.807 764.765 138.893C763.827 139.433 762.823 139.849 761.777 140.129C761.605 140.176 761.45 140.271 761.33 140.403C761.21 140.535 761.131 140.699 761.101 140.876L760.65 143.448C760.607 143.691 760.481 143.911 760.292 144.069C760.104 144.228 759.865 144.315 759.619 144.315H757.442C757.196 144.315 756.957 144.228 756.769 144.069C756.58 143.911 756.454 143.691 756.411 143.448L755.959 140.876C755.93 140.699 755.851 140.535 755.731 140.403C755.611 140.271 755.456 140.176 755.284 140.129C754.238 139.849 753.234 139.433 752.296 138.893C752.142 138.804 751.966 138.76 751.788 138.768C751.61 138.776 751.438 138.835 751.292 138.938L749.152 140.431C748.951 140.573 748.706 140.639 748.461 140.618C748.216 140.596 747.986 140.489 747.812 140.315L746.269 138.773C746.095 138.599 745.988 138.369 745.967 138.124C745.946 137.879 746.012 137.634 746.154 137.433L747.647 135.293C747.75 135.149 747.81 134.979 747.82 134.803C747.83 134.626 747.789 134.45 747.703 134.296C747.163 133.358 746.747 132.354 746.467 131.309C746.421 131.136 746.325 130.981 746.193 130.861C746.061 130.742 745.897 130.662 745.721 130.633L743.155 130.185C742.913 130.143 742.693 130.016 742.534 129.827C742.376 129.639 742.289 129.4 742.289 129.154V126.973C742.289 126.727 742.376 126.489 742.534 126.3C742.693 126.112 742.913 125.985 743.155 125.943L745.728 125.491C745.904 125.462 746.068 125.382 746.2 125.262C746.333 125.143 746.428 124.987 746.475 124.815C746.755 123.77 747.171 122.766 747.711 121.828C747.799 121.674 747.842 121.498 747.834 121.321C747.826 121.144 747.768 120.972 747.666 120.827L746.172 118.687C746.031 118.486 745.965 118.241 745.986 117.996C746.007 117.751 746.114 117.521 746.288 117.347L747.83 115.805C748.004 115.631 748.234 115.524 748.48 115.503C748.725 115.481 748.97 115.547 749.171 115.689L751.311 117.183C751.456 117.284 751.627 117.343 751.804 117.351C751.982 117.359 752.157 117.316 752.311 117.227C753.249 116.687 754.253 116.271 755.299 115.991C755.471 115.945 755.626 115.849 755.746 115.717C755.866 115.585 755.945 115.421 755.974 115.245L756.426 112.672C756.471 112.434 756.597 112.22 756.782 112.065C756.967 111.909 757.2 111.823 757.442 111.82H759.626C759.873 111.82 760.111 111.907 760.3 112.066C760.488 112.224 760.615 112.444 760.657 112.687L761.109 115.26C761.138 115.436 761.218 115.6 761.337 115.732C761.457 115.864 761.612 115.96 761.785 116.006C762.83 116.287 763.834 116.702 764.772 117.242C764.926 117.331 765.102 117.373 765.279 117.366C765.456 117.358 765.627 117.299 765.773 117.198L767.912 115.704C768.114 115.562 768.359 115.496 768.604 115.517C768.849 115.539 769.079 115.646 769.253 115.82L770.795 117.362C770.969 117.536 771.076 117.766 771.097 118.011C771.118 118.256 771.052 118.501 770.911 118.702L769.417 120.842C769.316 120.985 769.257 121.154 769.247 121.329C769.237 121.504 769.277 121.678 769.361 121.832C769.902 122.769 770.317 123.773 770.597 124.819C770.644 124.991 770.739 125.146 770.872 125.266C771.004 125.386 771.168 125.465 771.344 125.495L773.917 125.947C774.159 125.989 774.379 126.115 774.538 126.304C774.696 126.492 774.783 126.731 774.783 126.977L774.776 129.154Z"></path><path d="M760.653 119.748C760.438 119.375 760.129 119.065 759.756 118.85C759.384 118.634 758.961 118.521 758.53 118.521C758.1 118.521 757.677 118.634 757.304 118.85C756.932 119.065 756.622 119.375 756.408 119.748L749.974 130.894C749.759 131.267 749.646 131.689 749.646 132.119C749.646 132.549 749.759 132.971 749.974 133.344C750.189 133.716 750.498 134.025 750.87 134.24C751.242 134.455 751.665 134.569 752.095 134.569H764.966C765.396 134.569 765.818 134.455 766.191 134.24C766.563 134.025 766.872 133.716 767.087 133.344C767.302 132.971 767.415 132.549 767.415 132.119C767.415 131.689 767.302 131.267 767.087 130.894L760.653 119.748ZM765.47 132.41C765.42 132.5 765.347 132.574 765.258 132.625C765.169 132.676 765.069 132.703 764.966 132.702H752.098C751.996 132.701 751.896 132.675 751.807 132.623C751.719 132.572 751.645 132.499 751.594 132.41C751.543 132.322 751.516 132.221 751.516 132.119C751.516 132.017 751.543 131.916 751.594 131.828L758.028 120.681C758.079 120.592 758.153 120.518 758.242 120.466C758.33 120.415 758.431 120.388 758.534 120.388C758.637 120.388 758.738 120.415 758.827 120.466C758.916 120.518 758.989 120.592 759.04 120.681L765.47 131.828C765.522 131.916 765.549 132.017 765.549 132.119C765.549 132.221 765.522 132.322 765.47 132.41Z"></path><path d="M758.532 123.546C758.285 123.546 758.047 123.644 757.872 123.819C757.697 123.994 757.599 124.231 757.599 124.479V127.739C757.599 127.987 757.697 128.224 757.872 128.399C758.047 128.574 758.285 128.672 758.532 128.672C758.78 128.672 759.017 128.574 759.192 128.399C759.367 128.224 759.466 127.987 759.466 127.739V124.479C759.466 124.231 759.367 123.994 759.192 123.819C759.017 123.644 758.78 123.546 758.532 123.546Z"></path><path d="M758.532 129.763C758.285 129.763 758.047 129.861 757.872 130.036C757.697 130.211 757.599 130.449 757.599 130.696V130.749C757.599 130.996 757.697 131.234 757.872 131.409C758.047 131.584 758.285 131.682 758.532 131.682C758.78 131.682 759.017 131.584 759.192 131.409C759.367 131.234 759.466 130.996 759.466 130.749V130.696C759.466 130.449 759.367 130.211 759.192 130.036C759.017 129.861 758.78 129.763 758.532 129.763Z"></path></mask><path d="M774.216 124.102L772.214 123.751C771.961 122.948 771.637 122.17 771.247 121.425L772.416 119.759C772.81 119.198 772.994 118.516 772.935 117.833C772.875 117.15 772.576 116.509 772.091 116.025L770.549 114.483C770.064 113.997 769.424 113.698 768.741 113.639C768.058 113.579 767.375 113.763 766.815 114.158L765.149 115.327C764.404 114.938 763.625 114.615 762.823 114.363L762.494 112.381C762.38 111.702 762.029 111.085 761.503 110.641C760.977 110.196 760.311 109.953 759.623 109.953H757.442C756.753 109.953 756.087 110.196 755.561 110.641C755.036 111.085 754.684 111.702 754.57 112.381L754.219 114.382C753.417 114.634 752.639 114.956 751.893 115.345L750.228 114.177C749.667 113.782 748.985 113.598 748.301 113.657C747.618 113.717 746.978 114.016 746.494 114.502L744.951 116.044C744.466 116.528 744.167 117.168 744.107 117.851C744.048 118.535 744.232 119.217 744.626 119.778L745.795 121.443C745.406 122.189 745.084 122.967 744.832 123.77L742.849 124.102C742.17 124.216 741.554 124.567 741.109 125.093C740.665 125.619 740.421 126.285 740.422 126.973V129.158C740.422 129.846 740.666 130.511 741.11 131.036C741.555 131.561 742.171 131.912 742.849 132.026L744.851 132.377C745.103 133.179 745.425 133.957 745.814 134.703L744.645 136.368C744.25 136.929 744.067 137.612 744.126 138.295C744.185 138.978 744.484 139.618 744.97 140.103L746.516 141.648C747 142.134 747.64 142.433 748.324 142.493C749.007 142.552 749.689 142.368 750.25 141.973L751.915 140.805C752.661 141.194 753.44 141.516 754.242 141.768L754.57 143.747C754.688 144.422 755.041 145.034 755.565 145.474C756.09 145.915 756.753 146.156 757.438 146.156H759.623C760.308 146.157 760.973 145.916 761.498 145.475C762.023 145.035 762.376 144.423 762.494 143.747L762.845 141.746C763.647 141.494 764.426 141.171 765.172 140.782L766.837 141.951C767.398 142.346 768.08 142.53 768.763 142.47C769.447 142.411 770.087 142.112 770.571 141.626L772.113 140.084C772.599 139.6 772.898 138.959 772.957 138.276C773.017 137.593 772.833 136.911 772.438 136.35L771.269 134.684C771.66 133.939 771.983 133.16 772.236 132.358L774.216 132.026C774.89 131.908 775.502 131.556 775.943 131.031C776.383 130.506 776.625 129.843 776.624 129.158V126.973C776.625 126.288 776.385 125.623 775.944 125.098C775.503 124.573 774.891 124.22 774.216 124.102ZM774.776 129.154C774.776 129.4 774.689 129.639 774.53 129.827C774.372 130.016 774.152 130.143 773.909 130.185L771.34 130.637C771.164 130.666 771 130.745 770.868 130.865C770.736 130.985 770.64 131.14 770.593 131.312C770.313 132.358 769.898 133.362 769.357 134.3C769.269 134.454 769.226 134.629 769.234 134.807C769.242 134.984 769.3 135.155 769.402 135.3L770.896 137.44C771.038 137.641 771.104 137.886 771.082 138.132C771.061 138.377 770.954 138.607 770.78 138.781L769.238 140.323C769.064 140.498 768.834 140.605 768.589 140.626C768.343 140.647 768.099 140.581 767.897 140.439L765.758 138.945C765.614 138.844 765.444 138.785 765.269 138.776C765.093 138.766 764.918 138.807 764.765 138.893C763.827 139.433 762.823 139.849 761.777 140.129C761.605 140.176 761.45 140.271 761.33 140.403C761.21 140.535 761.131 140.699 761.101 140.876L760.65 143.448C760.607 143.691 760.481 143.911 760.292 144.069C760.104 144.228 759.865 144.315 759.619 144.315H757.442C757.196 144.315 756.957 144.228 756.769 144.069C756.58 143.911 756.454 143.691 756.411 143.448L755.959 140.876C755.93 140.699 755.851 140.535 755.731 140.403C755.611 140.271 755.456 140.176 755.284 140.129C754.238 139.849 753.234 139.433 752.296 138.893C752.142 138.804 751.966 138.76 751.788 138.768C751.61 138.776 751.438 138.835 751.292 138.938L749.152 140.431C748.951 140.573 748.706 140.639 748.461 140.618C748.216 140.596 747.986 140.489 747.812 140.315L746.269 138.773C746.095 138.599 745.988 138.369 745.967 138.124C745.946 137.879 746.012 137.634 746.154 137.433L747.647 135.293C747.75 135.149 747.81 134.979 747.82 134.803C747.83 134.626 747.789 134.45 747.703 134.296C747.163 133.358 746.747 132.354 746.467 131.309C746.421 131.136 746.325 130.981 746.193 130.861C746.061 130.742 745.897 130.662 745.721 130.633L743.155 130.185C742.913 130.143 742.693 130.016 742.534 129.827C742.376 129.639 742.289 129.4 742.289 129.154V126.973C742.289 126.727 742.376 126.489 742.534 126.3C742.693 126.112 742.913 125.985 743.155 125.943L745.728 125.491C745.904 125.462 746.068 125.382 746.2 125.262C746.333 125.143 746.428 124.987 746.475 124.815C746.755 123.77 747.171 122.766 747.711 121.828C747.799 121.674 747.842 121.498 747.834 121.321C747.826 121.144 747.768 120.972 747.666 120.827L746.172 118.687C746.031 118.486 745.965 118.241 745.986 117.996C746.007 117.751 746.114 117.521 746.288 117.347L747.83 115.805C748.004 115.631 748.234 115.524 748.48 115.503C748.725 115.481 748.97 115.547 749.171 115.689L751.311 117.183C751.456 117.284 751.627 117.343 751.804 117.351C751.982 117.359 752.157 117.316 752.311 117.227C753.249 116.687 754.253 116.271 755.299 115.991C755.471 115.945 755.626 115.849 755.746 115.717C755.866 115.585 755.945 115.421 755.974 115.245L756.426 112.672C756.471 112.434 756.597 112.22 756.782 112.065C756.967 111.909 757.2 111.823 757.442 111.82H759.626C759.873 111.82 760.111 111.907 760.3 112.066C760.488 112.224 760.615 112.444 760.657 112.687L761.109 115.26C761.138 115.436 761.218 115.6 761.337 115.732C761.457 115.864 761.612 115.96 761.785 116.006C762.83 116.287 763.834 116.702 764.772 117.242C764.926 117.331 765.102 117.373 765.279 117.366C765.456 117.358 765.627 117.299 765.773 117.198L767.912 115.704C768.114 115.562 768.359 115.496 768.604 115.517C768.849 115.539 769.079 115.646 769.253 115.82L770.795 117.362C770.969 117.536 771.076 117.766 771.097 118.011C771.118 118.256 771.052 118.501 770.911 118.702L769.417 120.842C769.316 120.985 769.257 121.154 769.247 121.329C769.237 121.504 769.277 121.678 769.361 121.832C769.902 122.769 770.317 123.773 770.597 124.819C770.644 124.991 770.739 125.146 770.872 125.266C771.004 125.386 771.168 125.465 771.344 125.495L773.917 125.947C774.159 125.989 774.379 126.115 774.538 126.304C774.696 126.492 774.783 126.731 774.783 126.977L774.776 129.154Z" fill="#FBFDFA"></path><path d="M760.653 119.748C760.438 119.375 760.129 119.065 759.756 118.85C759.384 118.634 758.961 118.521 758.53 118.521C758.1 118.521 757.677 118.634 757.304 118.85C756.932 119.065 756.622 119.375 756.408 119.748L749.974 130.894C749.759 131.267 749.646 131.689 749.646 132.119C749.646 132.549 749.759 132.971 749.974 133.344C750.189 133.716 750.498 134.025 750.87 134.24C751.242 134.455 751.665 134.569 752.095 134.569H764.966C765.396 134.569 765.818 134.455 766.191 134.24C766.563 134.025 766.872 133.716 767.087 133.344C767.302 132.971 767.415 132.549 767.415 132.119C767.415 131.689 767.302 131.267 767.087 130.894L760.653 119.748ZM765.47 132.41C765.42 132.5 765.347 132.574 765.258 132.625C765.169 132.676 765.069 132.703 764.966 132.702H752.098C751.996 132.701 751.896 132.675 751.807 132.623C751.719 132.572 751.645 132.499 751.594 132.41C751.543 132.322 751.516 132.221 751.516 132.119C751.516 132.017 751.543 131.916 751.594 131.828L758.028 120.681C758.079 120.592 758.153 120.518 758.242 120.466C758.33 120.415 758.431 120.388 758.534 120.388C758.637 120.388 758.738 120.415 758.827 120.466C758.916 120.518 758.989 120.592 759.04 120.681L765.47 131.828C765.522 131.916 765.549 132.017 765.549 132.119C765.549 132.221 765.522 132.322 765.47 132.41Z" fill="#FBFDFA"></path><path d="M758.532 123.546C758.285 123.546 758.047 123.644 757.872 123.819C757.697 123.994 757.599 124.231 757.599 124.479V127.739C757.599 127.987 757.697 128.224 757.872 128.399C758.047 128.574 758.285 128.672 758.532 128.672C758.78 128.672 759.017 128.574 759.192 128.399C759.367 128.224 759.466 127.987 759.466 127.739V124.479C759.466 124.231 759.367 123.994 759.192 123.819C759.017 123.644 758.78 123.546 758.532 123.546Z" fill="#FBFDFA"></path><path d="M758.532 129.763C758.285 129.763 758.047 129.861 757.872 130.036C757.697 130.211 757.599 130.449 757.599 130.696V130.749C757.599 130.996 757.697 131.234 757.872 131.409C758.047 131.584 758.285 131.682 758.532 131.682C758.78 131.682 759.017 131.584 759.192 131.409C759.367 131.234 759.466 130.996 759.466 130.749V130.696C759.466 130.449 759.367 130.211 759.192 130.036C759.017 129.861 758.78 129.763 758.532 129.763Z" fill="#FBFDFA"></path><path d="M774.216 124.102L772.214 123.751C771.961 122.948 771.637 122.17 771.247 121.425L772.416 119.759C772.81 119.198 772.994 118.516 772.935 117.833C772.875 117.15 772.576 116.509 772.091 116.025L770.549 114.483C770.064 113.997 769.424 113.698 768.741 113.639C768.058 113.579 767.375 113.763 766.815 114.158L765.149 115.327C764.404 114.938 763.625 114.615 762.823 114.363L762.494 112.381C762.38 111.702 762.029 111.085 761.503 110.641C760.977 110.196 760.311 109.953 759.623 109.953H757.442C756.753 109.953 756.087 110.196 755.561 110.641C755.036 111.085 754.684 111.702 754.57 112.381L754.219 114.382C753.417 114.634 752.639 114.956 751.893 115.345L750.228 114.177C749.667 113.782 748.985 113.598 748.301 113.657C747.618 113.717 746.978 114.016 746.494 114.502L744.951 116.044C744.466 116.528 744.167 117.168 744.107 117.851C744.048 118.535 744.232 119.217 744.626 119.778L745.795 121.443C745.406 122.189 745.084 122.967 744.832 123.77L742.849 124.102C742.17 124.216 741.554 124.567 741.109 125.093C740.665 125.619 740.421 126.285 740.422 126.973V129.158C740.422 129.846 740.666 130.511 741.11 131.036C741.555 131.561 742.171 131.912 742.849 132.026L744.851 132.377C745.103 133.179 745.425 133.957 745.814 134.703L744.645 136.368C744.25 136.929 744.067 137.612 744.126 138.295C744.185 138.978 744.484 139.618 744.97 140.103L746.516 141.648C747 142.134 747.64 142.433 748.324 142.493C749.007 142.552 749.689 142.368 750.25 141.973L751.915 140.805C752.661 141.194 753.44 141.516 754.242 141.768L754.57 143.747C754.688 144.422 755.041 145.034 755.565 145.474C756.09 145.915 756.753 146.156 757.438 146.156H759.623C760.308 146.157 760.973 145.916 761.498 145.475C762.023 145.035 762.376 144.423 762.494 143.747L762.845 141.746C763.647 141.494 764.426 141.171 765.172 140.782L766.837 141.951C767.398 142.346 768.08 142.53 768.763 142.47C769.447 142.411 770.087 142.112 770.571 141.626L772.113 140.084C772.599 139.6 772.898 138.959 772.957 138.276C773.017 137.593 772.833 136.911 772.438 136.35L771.269 134.684C771.66 133.939 771.983 133.16 772.236 132.358L774.216 132.026C774.89 131.908 775.502 131.556 775.943 131.031C776.383 130.506 776.625 129.843 776.624 129.158V126.973C776.625 126.288 776.385 125.623 775.944 125.098C775.503 124.573 774.891 124.22 774.216 124.102ZM774.776 129.154C774.776 129.4 774.689 129.639 774.53 129.827C774.372 130.016 774.152 130.143 773.909 130.185L771.34 130.637C771.164 130.666 771 130.745 770.868 130.865C770.736 130.985 770.64 131.14 770.593 131.312C770.313 132.358 769.898 133.362 769.357 134.3C769.269 134.454 769.226 134.629 769.234 134.807C769.242 134.984 769.3 135.155 769.402 135.3L770.896 137.44C771.038 137.641 771.104 137.886 771.082 138.132C771.061 138.377 770.954 138.607 770.78 138.781L769.238 140.323C769.064 140.498 768.834 140.605 768.589 140.626C768.343 140.647 768.099 140.581 767.897 140.439L765.758 138.945C765.614 138.844 765.444 138.785 765.269 138.776C765.093 138.766 764.918 138.807 764.765 138.893C763.827 139.433 762.823 139.849 761.777 140.129C761.605 140.176 761.45 140.271 761.33 140.403C761.21 140.535 761.131 140.699 761.101 140.876L760.65 143.448C760.607 143.691 760.481 143.911 760.292 144.069C760.104 144.228 759.865 144.315 759.619 144.315H757.442C757.196 144.315 756.957 144.228 756.769 144.069C756.58 143.911 756.454 143.691 756.411 143.448L755.959 140.876C755.93 140.699 755.851 140.535 755.731 140.403C755.611 140.271 755.456 140.176 755.284 140.129C754.238 139.849 753.234 139.433 752.296 138.893C752.142 138.804 751.966 138.76 751.788 138.768C751.61 138.776 751.438 138.835 751.292 138.938L749.152 140.431C748.951 140.573 748.706 140.639 748.461 140.618C748.216 140.596 747.986 140.489 747.812 140.315L746.269 138.773C746.095 138.599 745.988 138.369 745.967 138.124C745.946 137.879 746.012 137.634 746.154 137.433L747.647 135.293C747.75 135.149 747.81 134.979 747.82 134.803C747.83 134.626 747.789 134.45 747.703 134.296C747.163 133.358 746.747 132.354 746.467 131.309C746.421 131.136 746.325 130.981 746.193 130.861C746.061 130.742 745.897 130.662 745.721 130.633L743.155 130.185C742.913 130.143 742.693 130.016 742.534 129.827C742.376 129.639 742.289 129.4 742.289 129.154V126.973C742.289 126.727 742.376 126.489 742.534 126.3C742.693 126.112 742.913 125.985 743.155 125.943L745.728 125.491C745.904 125.462 746.068 125.382 746.2 125.262C746.333 125.143 746.428 124.987 746.475 124.815C746.755 123.77 747.171 122.766 747.711 121.828C747.799 121.674 747.842 121.498 747.834 121.321C747.826 121.144 747.768 120.972 747.666 120.827L746.172 118.687C746.031 118.486 745.965 118.241 745.986 117.996C746.007 117.751 746.114 117.521 746.288 117.347L747.83 115.805C748.004 115.631 748.234 115.524 748.48 115.503C748.725 115.481 748.97 115.547 749.171 115.689L751.311 117.183C751.456 117.284 751.627 117.343 751.804 117.351C751.982 117.359 752.157 117.316 752.311 117.227C753.249 116.687 754.253 116.271 755.299 115.991C755.471 115.945 755.626 115.849 755.746 115.717C755.866 115.585 755.945 115.421 755.974 115.245L756.426 112.672C756.471 112.434 756.597 112.22 756.782 112.065C756.967 111.909 757.2 111.823 757.442 111.82H759.626C759.873 111.82 760.111 111.907 760.3 112.066C760.488 112.224 760.615 112.444 760.657 112.687L761.109 115.26C761.138 115.436 761.218 115.6 761.337 115.732C761.457 115.864 761.612 115.96 761.785 116.006C762.83 116.287 763.834 116.702 764.772 117.242C764.926 117.331 765.102 117.373 765.279 117.366C765.456 117.358 765.627 117.299 765.773 117.198L767.912 115.704C768.114 115.562 768.359 115.496 768.604 115.517C768.849 115.539 769.079 115.646 769.253 115.82L770.795 117.362C770.969 117.536 771.076 117.766 771.097 118.011C771.118 118.256 771.052 118.501 770.911 118.702L769.417 120.842C769.316 120.985 769.257 121.154 769.247 121.329C769.237 121.504 769.277 121.678 769.361 121.832C769.902 122.769 770.317 123.773 770.597 124.819C770.644 124.991 770.739 125.146 770.872 125.266C771.004 125.386 771.168 125.465 771.344 125.495L773.917 125.947C774.159 125.989 774.379 126.115 774.538 126.304C774.696 126.492 774.783 126.731 774.783 126.977L774.776 129.154Z" stroke="#FBFDFA" stroke-width="1.72391" mask="url(#path-18-inside-2_1484_8808)"></path><path d="M760.653 119.748C760.438 119.375 760.129 119.065 759.756 118.85C759.384 118.634 758.961 118.521 758.53 118.521C758.1 118.521 757.677 118.634 757.304 118.85C756.932 119.065 756.622 119.375 756.408 119.748L749.974 130.894C749.759 131.267 749.646 131.689 749.646 132.119C749.646 132.549 749.759 132.971 749.974 133.344C750.189 133.716 750.498 134.025 750.87 134.24C751.242 134.455 751.665 134.569 752.095 134.569H764.966C765.396 134.569 765.818 134.455 766.191 134.24C766.563 134.025 766.872 133.716 767.087 133.344C767.302 132.971 767.415 132.549 767.415 132.119C767.415 131.689 767.302 131.267 767.087 130.894L760.653 119.748ZM765.47 132.41C765.42 132.5 765.347 132.574 765.258 132.625C765.169 132.676 765.069 132.703 764.966 132.702H752.098C751.996 132.701 751.896 132.675 751.807 132.623C751.719 132.572 751.645 132.499 751.594 132.41C751.543 132.322 751.516 132.221 751.516 132.119C751.516 132.017 751.543 131.916 751.594 131.828L758.028 120.681C758.079 120.592 758.153 120.518 758.242 120.466C758.33 120.415 758.431 120.388 758.534 120.388C758.637 120.388 758.738 120.415 758.827 120.466C758.916 120.518 758.989 120.592 759.04 120.681L765.47 131.828C765.522 131.916 765.549 132.017 765.549 132.119C765.549 132.221 765.522 132.322 765.47 132.41Z" stroke="#FBFDFA" stroke-width="1.72391" mask="url(#path-18-inside-2_1484_8808)"></path><path d="M758.532 123.546C758.285 123.546 758.047 123.644 757.872 123.819C757.697 123.994 757.599 124.231 757.599 124.479V127.739C757.599 127.987 757.697 128.224 757.872 128.399C758.047 128.574 758.285 128.672 758.532 128.672C758.78 128.672 759.017 128.574 759.192 128.399C759.367 128.224 759.466 127.987 759.466 127.739V124.479C759.466 124.231 759.367 123.994 759.192 123.819C759.017 123.644 758.78 123.546 758.532 123.546Z" stroke="#FBFDFA" stroke-width="1.72391" mask="url(#path-18-inside-2_1484_8808)"></path><path d="M758.532 129.763C758.285 129.763 758.047 129.861 757.872 130.036C757.697 130.211 757.599 130.449 757.599 130.696V130.749C757.599 130.996 757.697 131.234 757.872 131.409C758.047 131.584 758.285 131.682 758.532 131.682C758.78 131.682 759.017 131.584 759.192 131.409C759.367 131.234 759.466 130.996 759.466 130.749V130.696C759.466 130.449 759.367 130.211 759.192 130.036C759.017 129.861 758.78 129.763 758.532 129.763Z" stroke="#FBFDFA" stroke-width="1.72391" mask="url(#path-18-inside-2_1484_8808)"></path><rect x="725.043" y="94.5762" width="66.9565" height="66.9565" rx="33.4783" stroke="#CA732F" stroke-width="2"></rect><path d="M190 213L186.475 203.692L180.177 211.399L190 213ZM85.4545 128.667L183.448 208.758L184.539 207.423L86.5455 127.333L85.4545 128.667Z" fill="#BEB099"></path><path d="M543 227L539.838 217.563L533.246 225.02L543 227ZM430.429 128.646L536.617 222.508L537.758 221.216L431.571 127.354L430.429 128.646Z" fill="#CA732F"></path><path d="M724 128L714.198 129.729L720.597 137.353L724 128ZM717.504 132.327L611.446 221.34L612.554 222.66L718.612 133.647L717.504 132.327Z" fill="#CA732F"></path><path d="M190 43L180.177 44.6015L186.475 52.308L190 43ZM86.5455 128.667L184.539 48.5767L183.448 47.2419L85.4545 127.333L86.5455 128.667Z" fill="#BEB099"></path><path d="M543.032 34.4784L533.226 36.1818L539.604 43.8225L543.032 34.4784ZM431.552 128.662L537.629 40.1114L536.525 38.788L430.448 127.338L431.552 128.662Z" fill="#BEB099"></path><path d="M724 128L720.573 118.656L714.194 126.296L724 128ZM718.598 122.366L612.541 33.8167L611.436 35.14L717.493 123.69L718.598 122.366Z" fill="#BEB099"></path></svg>