<svg xmlns="http://www.w3.org/2000/svg" width="58" height="58" viewBox="0 0 58 58" fill="none"><g clip-path="url(#clip0_953_1797)"><path d="M29.002 58C45.1701 58 58.002 44.9115 58.002 29C58.002 12.8319 44.9135 0 29.002 0C12.8338 0 0.00195312 13.0885 0.00195312 29C0.00195312 44.9115 13.0904 58 29.002 58Z" fill="#2C374B"></path><path fill-rule="evenodd" clip-rule="evenodd" d="M44.9132 18.4777C44.6566 18.221 32.0814 10.7786 30.5416 10.2653C30.0283 10.0086 28.7451 9.75201 27.9752 10.0086C27.2053 10.2653 13.8601 17.9644 13.3469 18.4777C13.0902 18.7343 12.8336 19.2476 12.577 19.5042C12.3203 20.0175 12.3203 20.2741 12.3203 29.2564V38.4954L14.1168 39.5219C15.1433 40.0352 15.9132 40.5485 15.9132 40.5485C16.1699 40.5485 28.2318 21.3007 28.2318 21.044C28.2318 20.7874 25.4088 20.7874 24.6389 21.044C23.6124 21.3007 22.8424 21.814 22.3292 22.3272C22.0725 22.5839 20.5327 25.1502 18.4796 27.9733C16.6831 30.7963 15.1433 33.3626 15.1433 33.3626V20.7874L15.4 20.5308C15.9132 20.0175 29.0017 12.575 29.515 12.575C29.7716 12.575 30.0283 12.575 33.1079 14.3715C34.1345 14.8848 36.9575 16.4246 39.2672 17.9644C41.577 19.2476 43.6301 20.5308 43.8867 20.7874L44.1433 21.044V34.3892L37.7274 24.3803C37.4708 23.8671 37.2141 23.3538 36.9575 23.0971C36.9575 23.0971 36.7008 23.6104 35.161 26.1768C34.9044 26.4334 34.6477 26.9467 34.6477 27.2033L34.3911 27.7166L34.6477 27.9733L34.9044 28.2299C34.9044 28.2299 34.9044 28.4865 35.161 28.4865L35.6743 29.2564C35.6743 29.2564 35.6743 29.5131 35.9309 29.5131C36.1876 29.7697 36.4442 30.283 36.4442 30.5396V30.7963L41.8336 39.5219L41.3203 39.7786C41.0637 40.0352 40.807 40.0352 40.5504 40.0352L33.8778 29.7697L33.6212 29.5131L33.1079 30.5396L30.5416 34.6458L35.6743 42.8582C34.9044 43.3715 30.5416 46.4511 30.2849 46.4511C30.0283 46.4511 24.1256 42.6016 24.3823 42.3449C24.3823 42.3449 26.1787 39.2653 28.2318 35.6724C30.0283 32.5927 32.338 28.7432 33.8778 26.1768C35.6743 23.0971 36.4442 21.5573 36.4442 21.5573H31.0548L25.1522 31.3095C23.0991 34.9025 21.046 38.2387 20.0194 40.0352C18.223 40.2918 17.7097 40.8051 17.7097 40.8051L17.4531 41.3184L22.0725 43.8848C24.6389 45.4246 26.9486 46.7078 27.4619 46.9644C28.2318 47.4777 29.515 47.4777 30.0283 47.4777C30.5415 47.221 43.8867 39.5219 44.6566 39.0086C44.9132 38.752 45.1699 38.4954 45.4265 37.9821L45.6831 37.2122V20.2741L45.4265 19.7609C45.4265 19.2476 44.9132 18.7343 44.9132 18.4777Z" fill="white"></path><path d="M43.6295 34.1329L35.9304 22.3276L33.1074 26.9471L40.5499 39.0091L43.8862 37.4692L43.6295 34.1329Z" fill="#24A2EE"></path><path d="M40.0374 40.5485L32.3382 28.7432L29.002 33.8759L35.1612 43.6281L39.0108 42.0883L40.0374 40.5485Z" fill="#24A2EE"></path><path fill-rule="evenodd" clip-rule="evenodd" d="M14.8875 20.7876L29.0025 12.5753L43.1175 20.7876V37.2124L29.0025 45.4248L18.4804 39.5222L17.1972 41.8319L28.7459 48.5045C29.0025 48.7611 29.2591 48.7611 29.5158 48.5045L45.6839 39.2655C45.9406 39.0089 46.1972 38.7522 46.1972 38.4956V20.0177C46.1972 19.7611 45.9406 19.5045 45.6839 19.2478L29.5158 10.0089C29.2591 9.75225 29.0025 9.75225 28.7459 10.0089L12.5777 18.9912C12.3211 19.2478 12.0645 19.5045 12.0645 19.7611V38.239C12.0645 38.4956 12.3211 38.7522 12.5777 39.0089L15.914 40.8053L17.4538 38.4956L15.1441 37.2124V20.7876H14.8875Z" fill="#98BCDC"></path><path d="M35.1619 20.7876H29.7725L17.1973 41.3186L21.5601 43.8849L35.1619 20.7876Z" fill="white"></path><path d="M21.56 22.8408C22.8432 20.7877 26.4361 20.7877 27.976 21.0443L15.6574 40.8054C15.1441 40.5487 14.1176 40.0354 13.3476 39.5222C12.3211 39.0089 12.0645 39.0089 12.0645 38.239V37.2124C14.8875 33.1062 20.2768 24.8939 21.56 22.8408Z" fill="white"></path></g><defs><clipPath id="clip0_953_1797"><rect width="58" height="58" fill="white" transform="translate(0.00195312)"></rect></clipPath></defs></svg>