<svg xmlns="http://www.w3.org/2000/svg" width="56" height="58" viewBox="0 0 56 58" fill="none"><g clip-path="url(#clip0_953_1840)"><path d="M54.9523 17.473C52.2336 14.9627 48.4727 11.1293 45.4096 8.41064L45.2284 8.28377C44.9268 8.0416 44.5868 7.85168 44.2224 7.7219C36.8366 6.34442 2.4631 -0.0807916 1.79248 0.000769635C1.60457 0.0270868 1.42496 0.0952163 1.26686 0.200142L1.09468 0.336077C0.88266 0.551399 0.721628 0.811528 0.623437 1.09732L0.578125 1.21513V1.95824C4.44775 12.7334 19.7269 48.0313 22.7356 56.3143C22.9168 56.8761 23.2612 57.9455 23.9046 57.9999H24.0496C24.394 57.9999 25.8621 56.0605 25.8621 56.0605C25.8621 56.0605 52.1067 24.2335 54.762 20.8442C55.1057 20.4267 55.4091 19.9776 55.6682 19.503C55.7343 19.1316 55.7032 18.7494 55.5777 18.3937C55.4522 18.0379 55.2368 17.7207 54.9523 17.473ZM32.5954 21.1795L43.7965 11.8906L50.3667 17.9442L32.5954 21.1795ZM28.2455 20.5723L8.96081 4.76757L40.1625 10.5222L28.2455 20.5723ZM29.9855 24.7138L49.7233 21.5329L27.158 48.72L29.9855 24.7138ZM6.34178 6.34442L26.6324 23.5629L23.6962 48.7381L6.34178 6.34442Z" fill="#FF060A"></path></g><defs><clipPath id="clip0_953_1840"><rect width="55.1236" height="58" fill="white" transform="translate(0.578125)"></rect></clipPath></defs></svg>