<svg xmlns="http://www.w3.org/2000/svg" width="52" height="36" viewBox="0 0 52 36" fill="none"><path d="M24.8678 10.2174V21.5217L13.5634 10.2174H24.8678Z" fill="#6C7648"></path><path d="M27.1322 10.2174V21.5217L38.4366 10.2174H27.1322Z" fill="#6C7648"></path><path d="M40.6957 6.8264V18.1307L52 6.8264H40.6957Z" fill="#6C7648"></path><path d="M11.3043 6.8264V18.1307L0 6.8264H11.3043Z" fill="#6C7648"></path><path d="M26.0788 35.2479L34.0721 27.2545H18.0854L26.0788 35.2479Z" fill="#6C7648"></path><path d="M26.0808 0.043457L18.0875 8.03683L34.0742 8.03683L26.0808 0.043457Z" fill="#6C7648"></path><path d="M13.564 24.9133L13.564 13.609L24.8683 24.9133H13.564Z" fill="#6C7648"></path><path d="M38.436 24.9133L38.436 13.609L27.1317 24.9133H38.436Z" fill="#6C7648"></path><path d="M13.564 24.9133L13.564 13.609L24.8683 24.9133H13.564Z" fill="#6C7648"></path><path d="M38.436 24.9133L38.436 13.609L27.1317 24.9133H38.436Z" fill="#6C7648"></path></svg>