<svg xmlns="http://www.w3.org/2000/svg" width="59" height="58" viewBox="0 0 59 58" fill="none"><g clip-path="url(#clip0_953_1843)"><path d="M58.7031 29C58.7031 45.0162 45.7194 58 29.7031 58C13.6869 58 0.703125 45.0162 0.703125 29C0.703125 12.9838 13.6869 0 29.7031 0C45.7194 0 58.7031 12.9838 58.7031 29Z" fill="#FF0420"></path><path d="M21.2484 36.7024C19.52 36.7024 18.1048 36.2964 17.0028 35.4844C15.9124 34.6608 15.3672 33.4776 15.3672 31.958C15.3672 31.6332 15.402 31.2504 15.4716 30.7864C15.6572 29.7424 15.924 28.4896 16.272 27.0164C17.258 23.026 19.81 21.0308 23.9164 21.0308C25.03 21.0308 26.0392 21.2164 26.9208 21.5992C27.8024 21.9588 28.4984 22.5156 29.0088 23.258C29.5192 23.9888 29.7744 24.8588 29.7744 25.868C29.7744 26.1696 29.7396 26.5524 29.67 27.0164C29.4496 28.304 29.1944 29.5684 28.8812 30.7864C28.3708 32.77 27.5008 34.2664 26.248 35.2524C25.0068 36.2268 23.3364 36.7024 21.2484 36.7024ZM21.5616 33.5704C22.3736 33.5704 23.058 33.3268 23.6264 32.8512C24.2064 32.3756 24.624 31.6448 24.8676 30.6472C25.204 29.2784 25.4592 28.0952 25.6332 27.0744C25.6912 26.7728 25.726 26.4596 25.726 26.1348C25.726 24.8124 25.0416 24.1512 23.6612 24.1512C22.8492 24.1512 22.1532 24.3948 21.5732 24.8704C21.0048 25.346 20.5988 26.0768 20.3552 27.0744C20.0884 28.0488 19.8332 29.232 19.5664 30.6472C19.5084 30.9372 19.4736 31.2388 19.4736 31.5636C19.462 32.9092 20.1696 33.5704 21.5616 33.5704Z" fill="white"></path><path d="M30.7815 36.4934C30.6191 36.4934 30.5031 36.447 30.4103 36.3426C30.3407 36.2266 30.3175 36.099 30.3407 35.9482L33.3451 21.7962C33.3683 21.6338 33.4495 21.5062 33.5887 21.4018C33.7163 21.2974 33.8555 21.251 34.0063 21.251H39.7947C41.4071 21.251 42.6947 21.5874 43.6691 22.2486C44.6551 22.9214 45.1539 23.8842 45.1539 25.1486C45.1539 25.5082 45.1075 25.891 45.0263 26.2854C44.6667 27.9558 43.9359 29.1854 42.8223 29.9858C41.7319 30.7862 40.2355 31.1806 38.3331 31.1806H35.3983L34.4007 35.9482C34.3659 36.1106 34.2963 36.2382 34.1571 36.3426C34.0295 36.447 33.8903 36.4934 33.7395 36.4934H30.7815ZM38.4839 28.1762C39.0987 28.1762 39.6207 28.0138 40.0731 27.6774C40.5371 27.341 40.8387 26.8654 40.9895 26.239C41.0359 25.9954 41.0591 25.775 41.0591 25.5894C41.0591 25.1718 40.9315 24.847 40.6879 24.6266C40.4443 24.3946 40.0151 24.2786 39.4235 24.2786H36.8135L35.9899 28.1762H38.4839Z" fill="white"></path></g><defs><clipPath id="clip0_953_1843"><rect width="58" height="58" fill="white" transform="translate(0.703125)"></rect></clipPath></defs></svg>