<svg xmlns="http://www.w3.org/2000/svg" width="249" height="192" viewBox="0 0 249 192" fill="none"><g clip-path="url(#clip0_958_5590)"><rect width="248.333" height="192" fill="#6C7648"></rect><g style="mix-blend-mode:luminosity" opacity="0.06"><path d="M293.498 158.344H267.846V158.346L280.671 174.822H280.673L293.5 158.346L293.498 158.344Z" fill="#3B5276"></path><path d="M156.656 135.127L178.731 163.487H178.736L200.809 135.127L200.806 135.125H156.658L156.656 135.127Z" fill="#3B5276"></path><path d="M222.887 163.487L200.811 135.127L178.738 163.487H222.887Z" fill="url(#paint0_linear_958_5590)" style="mix-blend-mode:multiply"></path><path d="M200.807 191.849H200.812H244.952L222.882 163.494L222.88 163.489L200.807 191.849Z" fill="#D0D9E0"></path><path d="M156.656 21.6736L134.58 50.0358H178.731L156.656 21.6736Z" fill="#333940"></path><path d="M200.804 191.849L200.807 191.849L178.733 163.489L156.658 191.849L200.799 191.849H200.804Z" fill="#333940"></path><path d="M178.731 50.0358L178.734 50.0358L200.809 21.6737L200.806 21.6712H156.658L156.656 21.6736L178.731 50.0358Z" fill="#FFCA61"></path><path d="M222.889 163.487H267.035L244.962 135.127L222.889 163.487Z" fill="#FFCA61"></path><path d="M244.962 135.127L244.96 135.125L222.887 106.765L200.811 135.125L200.806 135.125L200.809 135.127L222.884 163.487L178.736 163.487H178.731L156.656 135.127L134.583 163.487H134.578L134.58 163.489L112.505 191.849H156.653L156.656 191.854L156.658 191.849L178.733 163.489L200.806 191.849L222.879 163.489L222.882 163.494L222.887 163.489L222.889 163.487L244.962 135.127Z" fill="#E94B64"></path><path d="M200.806 135.125L200.811 135.125L222.887 106.763L222.884 106.76H178.736L178.734 106.763L200.806 135.125Z" fill="#D0D9E0"></path><path d="M200.812 191.849H200.807L200.809 191.854L200.812 191.849Z" fill="#3B5276"></path><path d="M156.653 135.125L156.656 135.127L156.658 135.125H156.653Z" fill="#3B5276"></path><path d="M112.502 191.854L112.505 191.849L112.5 191.849L112.502 191.854Z" fill="#0D2333"></path><path d="M212.478 15.3294L200.433 -0.145996L188.387 15.3294H212.478Z" fill="#3B5276"></path><path d="M200.812 21.6712H200.806L200.809 21.6737L200.812 21.6712Z" fill="#3B5276"></path><path d="M134.58 50.0358L134.578 50.0358L134.58 50.0382L134.58 50.0358Z" fill="#3B5276"></path><path d="M244.964 191.849H244.959L244.962 191.854L244.964 191.849Z" fill="#3B5276"></path><path d="M267.04 163.489L267.042 163.487L267.035 163.487L267.04 163.489Z" fill="#3B5276"></path><path d="M156.658 21.6712H156.653L156.656 21.6736L156.658 21.6712Z" fill="#3B5276"></path><path d="M222.887 106.76H222.884L222.887 106.763L222.887 106.76Z" fill="#3B5276"></path><path d="M200.807 78.3979H156.653L156.656 78.4004L178.731 106.76L178.734 106.763L178.736 106.76L200.809 78.4004L200.811 78.3979H200.807Z" fill="#E94B64"></path><path d="M178.734 50.0382L178.734 50.0358L178.731 50.0358L178.734 50.0382Z" fill="#3B5276"></path><path d="M178.734 50.0382L178.731 50.0358H134.58L134.58 50.0382L156.651 78.393L178.724 50.0358L200.797 78.3955H156.653L156.653 78.3979H200.807L178.734 50.0382Z" fill="#E94B64"></path><path d="M178.724 50.0358L156.651 78.393L156.649 78.3955H200.797L178.724 50.0358Z" fill="#333940"></path><path d="M156.648 191.852H156.653L178.724 163.497L178.719 163.492L178.721 163.489H134.576L134.573 163.492L156.648 191.852Z" fill="url(#paint1_linear_958_5590)"></path><path d="M244.952 135.122L222.88 106.763L200.807 135.122H244.952Z" fill="url(#paint2_linear_958_5590)" style="mix-blend-mode:multiply"></path><path d="M244.962 135.125H200.814L222.889 163.485L244.962 135.125Z" fill="url(#paint3_linear_958_5590)"></path><path d="M207.602 75.2662L194.352 92.2903H220.854L207.602 75.2662Z" fill="#FFCA61"></path><path d="M178.723 163.487H222.889L218.15 169.577H183.327L178.723 163.487Z" fill="url(#paint4_linear_958_5590)" style="mix-blend-mode:multiply"></path></g><g style="mix-blend-mode:luminosity" opacity="0.06"><path d="M413.496 158.344H370.838V158.346L392.165 174.822H392.169L413.5 158.346L413.496 158.344Z" fill="#3B5276"></path><path d="M185.93 135.127L222.641 163.487H222.649L259.356 135.127L259.352 135.125H185.934L185.93 135.127Z" fill="#3B5276"></path><path d="M296.071 163.487L259.36 135.127L222.653 163.487H296.071Z" fill="url(#paint5_linear_958_5590)" style="mix-blend-mode:multiply"></path><path d="M259.352 191.849H259.361H332.766L296.063 163.494L296.059 163.489L259.352 191.849Z" fill="#D0D9E0"></path><path d="M185.93 21.6736L149.219 50.0358H222.641L185.93 21.6736Z" fill="#333940"></path><path d="M259.348 191.849L259.352 191.849L222.645 163.489L185.934 191.849L259.34 191.849H259.348Z" fill="#333940"></path><path d="M222.641 50.0358L222.645 50.0358L259.356 21.6737L259.352 21.6712H185.934L185.93 21.6736L222.641 50.0358Z" fill="#FFCA61"></path><path d="M296.076 163.487H369.489L332.782 135.127L296.076 163.487Z" fill="#FFCA61"></path><path d="M332.782 135.127L332.778 135.125L296.071 106.765L259.36 135.125L259.352 135.125L259.356 135.127L296.067 163.487L222.649 163.487H222.641L185.93 135.127L149.223 163.487H149.215L149.219 163.489L112.508 191.849H185.926L185.93 191.854L185.934 191.849L222.645 163.489L259.352 191.849L296.059 163.489L296.063 163.494L296.071 163.489L296.076 163.487L332.782 135.127Z" fill="#E94B64"></path><path d="M259.352 135.125L259.36 135.125L296.071 106.763L296.067 106.76H222.649L222.645 106.763L259.352 135.125Z" fill="#D0D9E0"></path><path d="M259.361 191.849H259.352L259.357 191.854L259.361 191.849Z" fill="#3B5276"></path><path d="M185.926 135.125L185.93 135.127L185.934 135.125H185.926Z" fill="#3B5276"></path><path d="M112.504 191.854L112.508 191.849L112.5 191.849L112.504 191.854Z" fill="#0D2333"></path><path d="M278.762 15.3294L258.731 -0.145996L238.699 15.3294H278.762Z" fill="#3B5276"></path><path d="M259.361 21.6712H259.352L259.356 21.6737L259.361 21.6712Z" fill="#3B5276"></path><path d="M149.219 50.0358L149.215 50.0358L149.219 50.0382L149.219 50.0358Z" fill="#3B5276"></path><path d="M332.786 191.849H332.778L332.782 191.854L332.786 191.849Z" fill="#3B5276"></path><path d="M369.497 163.489L369.501 163.487L369.489 163.487L369.497 163.489Z" fill="#3B5276"></path><path d="M185.934 21.6712H185.926L185.93 21.6736L185.934 21.6712Z" fill="#3B5276"></path><path d="M296.072 106.76H296.067L296.071 106.763L296.072 106.76Z" fill="#3B5276"></path><path d="M259.352 78.3979H185.926L185.93 78.4004L222.641 106.76L222.645 106.763L222.649 106.76L259.356 78.4004L259.36 78.3979H259.352Z" fill="#E94B64"></path><path d="M222.645 50.0382L222.645 50.0358L222.641 50.0358L222.645 50.0382Z" fill="#3B5276"></path><path d="M222.645 50.0382L222.641 50.0358H149.219L149.219 50.0382L185.922 78.393L222.629 50.0358L259.336 78.3955H185.926L185.926 78.3979H259.352L222.645 50.0382Z" fill="#E94B64"></path><path d="M222.629 50.0358L185.922 78.393L185.918 78.3955H259.336L222.629 50.0358Z" fill="#333940"></path><path d="M185.918 191.852H185.926L222.629 163.497L222.621 163.492L222.625 163.489H149.211L149.207 163.492L185.918 191.852Z" fill="url(#paint6_linear_958_5590)"></path><path d="M332.766 135.122L296.059 106.763L259.352 135.122H332.766Z" fill="url(#paint7_linear_958_5590)" style="mix-blend-mode:multiply"></path><path d="M332.782 135.125H259.364L296.075 163.485L332.782 135.125Z" fill="url(#paint8_linear_958_5590)"></path><path d="M270.653 75.2662L248.619 92.2903H292.691L270.653 75.2662Z" fill="#FFCA61"></path><path d="M222.629 163.487H296.075L288.195 169.577H230.284L222.629 163.487Z" fill="url(#paint9_linear_958_5590)" style="mix-blend-mode:multiply"></path></g></g><defs><linearGradient id="paint0_linear_958_5590" x1="83.8632" y1="8.81544" x2="322.278" y2="112.738" gradientUnits="userSpaceOnUse"><stop offset="0.37" stop-color="#393F46"></stop><stop offset="0.4" stop-color="#62676C"></stop><stop offset="0.43" stop-color="#888B90"></stop><stop offset="0.47" stop-color="#A8ABAE"></stop><stop offset="0.51" stop-color="#C4C5C7"></stop><stop offset="0.55" stop-color="#DADBDC"></stop><stop offset="0.6" stop-color="#EBEBEC"></stop><stop offset="0.67" stop-color="#F6F7F7"></stop><stop offset="0.75" stop-color="#FDFDFD"></stop><stop offset="1" stop-color="white"></stop></linearGradient><linearGradient id="paint1_linear_958_5590" x1="203" y1="-0.145996" x2="203" y2="191.854" gradientUnits="userSpaceOnUse"><stop stop-color="#3B5276"></stop><stop offset="0.02" stop-color="#4E5174"></stop><stop offset="0.07" stop-color="#725070"></stop><stop offset="0.13" stop-color="#924E6D"></stop><stop offset="0.19" stop-color="#AE4D6A"></stop><stop offset="0.27" stop-color="#C44D68"></stop><stop offset="0.35" stop-color="#D54C66"></stop><stop offset="0.45" stop-color="#E04B65"></stop><stop offset="0.6" stop-color="#E74B64"></stop><stop offset="1" stop-color="#E94B64"></stop></linearGradient><linearGradient id="paint2_linear_958_5590" x1="83.8516" y1="8.81544" x2="322.275" y2="112.747" gradientUnits="userSpaceOnUse"><stop offset="0.37" stop-color="#3B5276"></stop><stop offset="0.4" stop-color="#647692"></stop><stop offset="0.43" stop-color="#8896AC"></stop><stop offset="0.47" stop-color="#A8B3C2"></stop><stop offset="0.51" stop-color="#C4CBD5"></stop><stop offset="0.55" stop-color="#DADEE5"></stop><stop offset="0.6" stop-color="#EBEDF1"></stop><stop offset="0.66" stop-color="#F6F7F9"></stop><stop offset="0.75" stop-color="#FDFDFE"></stop><stop offset="1" stop-color="white"></stop></linearGradient><linearGradient id="paint3_linear_958_5590" x1="112.5" y1="95.8457" x2="293.5" y2="95.8457" gradientUnits="userSpaceOnUse"><stop offset="0.03" stop-color="#3B5276"></stop><stop offset="0.1" stop-color="#394B66"></stop><stop offset="0.21" stop-color="#364355"></stop><stop offset="0.35" stop-color="#343D49"></stop><stop offset="0.53" stop-color="#333A42"></stop><stop offset="1" stop-color="#333940"></stop></linearGradient><linearGradient id="paint4_linear_958_5590" x1="200.806" y1="171.241" x2="200.806" y2="162.883" gradientUnits="userSpaceOnUse"><stop stop-color="white"></stop><stop offset="1" stop-color="#231F20"></stop></linearGradient><linearGradient id="paint5_linear_958_5590" x1="64.8776" y1="8.81544" x2="374.171" y2="233.015" gradientUnits="userSpaceOnUse"><stop offset="0.37" stop-color="#393F46"></stop><stop offset="0.4" stop-color="#62676C"></stop><stop offset="0.43" stop-color="#888B90"></stop><stop offset="0.47" stop-color="#A8ABAE"></stop><stop offset="0.51" stop-color="#C4C5C7"></stop><stop offset="0.55" stop-color="#DADBDC"></stop><stop offset="0.6" stop-color="#EBEBEC"></stop><stop offset="0.67" stop-color="#F6F7F7"></stop><stop offset="0.75" stop-color="#FDFDFD"></stop><stop offset="1" stop-color="white"></stop></linearGradient><linearGradient id="paint6_linear_958_5590" x1="263" y1="-0.145996" x2="263" y2="191.854" gradientUnits="userSpaceOnUse"><stop stop-color="#3B5276"></stop><stop offset="0.02" stop-color="#4E5174"></stop><stop offset="0.07" stop-color="#725070"></stop><stop offset="0.13" stop-color="#924E6D"></stop><stop offset="0.19" stop-color="#AE4D6A"></stop><stop offset="0.27" stop-color="#C44D68"></stop><stop offset="0.35" stop-color="#D54C66"></stop><stop offset="0.45" stop-color="#E04B65"></stop><stop offset="0.6" stop-color="#E74B64"></stop><stop offset="1" stop-color="#E94B64"></stop></linearGradient><linearGradient id="paint7_linear_958_5590" x1="64.8581" y1="8.81544" x2="374.157" y2="233.031" gradientUnits="userSpaceOnUse"><stop offset="0.37" stop-color="#3B5276"></stop><stop offset="0.4" stop-color="#647692"></stop><stop offset="0.43" stop-color="#8896AC"></stop><stop offset="0.47" stop-color="#A8B3C2"></stop><stop offset="0.51" stop-color="#C4CBD5"></stop><stop offset="0.55" stop-color="#DADEE5"></stop><stop offset="0.6" stop-color="#EBEDF1"></stop><stop offset="0.66" stop-color="#F6F7F9"></stop><stop offset="0.75" stop-color="#FDFDFE"></stop><stop offset="1" stop-color="white"></stop></linearGradient><linearGradient id="paint8_linear_958_5590" x1="112.5" y1="95.8457" x2="413.5" y2="95.8457" gradientUnits="userSpaceOnUse"><stop offset="0.03" stop-color="#3B5276"></stop><stop offset="0.1" stop-color="#394B66"></stop><stop offset="0.21" stop-color="#364355"></stop><stop offset="0.35" stop-color="#343D49"></stop><stop offset="0.53" stop-color="#333A42"></stop><stop offset="1" stop-color="#333940"></stop></linearGradient><linearGradient id="paint9_linear_958_5590" x1="259.352" y1="171.241" x2="259.352" y2="162.883" gradientUnits="userSpaceOnUse"><stop stop-color="white"></stop><stop offset="1" stop-color="#231F20"></stop></linearGradient><clipPath id="clip0_958_5590"><rect width="248.333" height="192" fill="white"></rect></clipPath></defs></svg>