<svg xmlns="http://www.w3.org/2000/svg" width="279" height="332" viewBox="0 0 279 332" fill="none"><g clip-path="url(#clip0_907_9326)"><rect width="278.667" height="331" transform="translate(0 0.145996)" fill="#6C7648"></rect><g style="mix-blend-mode:color-burn"><path d="M176 0.145996L0 0.146004L7.69344e-06 176.146L176 0.145996Z" fill="#EFEEE7" fill-opacity="0.7"></path></g><g style="mix-blend-mode:luminosity" opacity="0.06"><path d="M335.995 268.838H288.377V268.843L312.184 299.478H312.189L336 268.843L335.995 268.838Z" fill="#3B5276"></path><path d="M81.9686 225.67L122.948 278.401H122.957L163.933 225.67L163.928 225.665H81.9732L81.9686 225.67Z" fill="#3B5276"></path><path d="M204.917 278.401L163.937 225.67L122.962 278.401H204.917Z" fill="url(#paint0_linear_907_9326)" style="mix-blend-mode:multiply"></path><path d="M163.928 331.137H163.937H245.879L204.908 278.415L204.903 278.405L163.928 331.137Z" fill="#D0D9E0"></path><path d="M81.9685 14.7168L40.9888 67.4527H122.948L81.9685 14.7168Z" fill="#333940"></path><path d="M163.923 331.137L163.928 331.137L122.953 278.405L81.9731 331.137L163.914 331.137H163.923Z" fill="#333940"></path><path d="M122.948 67.4527L122.953 67.4528L163.933 14.7169L163.928 14.7124H81.9732L81.9685 14.7168L122.948 67.4527Z" fill="#FFCA61"></path><path d="M204.922 278.401H286.872L245.897 225.67L204.922 278.401Z" fill="#FFCA61"></path><path d="M245.897 225.67L245.892 225.665L204.917 172.934L163.937 225.665L163.928 225.665L163.933 225.67L204.912 278.401L122.957 278.401H122.948L81.9686 225.67L40.9932 278.401H40.9841L40.9886 278.406L0.00891099 331.137H81.9638L81.9683 331.146L81.9731 331.137L122.953 278.405L163.928 331.137L204.903 278.406L204.907 278.415L204.917 278.406L204.922 278.401L245.897 225.67Z" fill="#E94B64"></path><path d="M163.928 225.665L163.937 225.665L204.917 172.929L204.912 172.925H122.957L122.953 172.929L163.928 225.665Z" fill="#D0D9E0"></path><path d="M163.937 331.137H163.928L163.933 331.146L163.937 331.137Z" fill="#3B5276"></path><path d="M81.9642 225.665L81.9686 225.67L81.9732 225.665H81.9642Z" fill="#3B5276"></path><path d="M0.00456243 331.146L0.00891099 331.137L0 331.137L0.00456243 331.146Z" fill="#0D2333"></path><path d="M185.595 2.92054L163.234 -25.854L140.874 2.92054H185.595Z" fill="#3B5276"></path><path d="M163.937 14.7124H163.928L163.933 14.7169L163.937 14.7124Z" fill="#3B5276"></path><path d="M40.9888 67.4527L40.9843 67.4527L40.9889 67.4572L40.9888 67.4527Z" fill="#3B5276"></path><path d="M245.901 331.137H245.892L245.896 331.146L245.901 331.137Z" fill="#3B5276"></path><path d="M286.881 278.406L286.885 278.401L286.872 278.401L286.881 278.406Z" fill="#3B5276"></path><path d="M81.9732 14.7124H81.9642L81.9685 14.7168L81.9732 14.7124Z" fill="#3B5276"></path><path d="M204.917 172.925H204.912L204.917 172.929L204.917 172.925Z" fill="#3B5276"></path><path d="M163.928 120.189H81.9642L81.9687 120.193L122.948 172.924L122.953 172.929L122.957 172.925L163.933 120.193L163.937 120.189H163.928Z" fill="#E94B64"></path><path d="M122.953 67.4572L122.953 67.4528L122.948 67.4527L122.953 67.4572Z" fill="#3B5276"></path><path d="M122.953 67.4572L122.948 67.4527H40.9888L40.9889 67.4572L81.9594 120.179L122.935 67.4527L163.91 120.184H81.9639L81.9642 120.189H163.928L122.953 67.4572Z" fill="#E94B64"></path><path d="M122.935 67.4527L81.9598 120.179L81.9552 120.184H163.91L122.935 67.4527Z" fill="#333940"></path><path d="M81.9551 331.141H81.9642L122.935 278.419L122.926 278.41L122.93 278.405H40.98L40.9754 278.41L81.9551 331.141Z" fill="url(#paint1_linear_907_9326)"></path><path d="M245.879 225.661L204.903 172.929L163.928 225.661H245.879Z" fill="url(#paint2_linear_907_9326)" style="mix-blend-mode:multiply"></path><path d="M245.897 225.665H163.942L204.921 278.397L245.897 225.665Z" fill="url(#paint3_linear_907_9326)"></path><path d="M176.543 114.365L151.947 146.02H201.143L176.543 114.365Z" fill="#FFCA61"></path><path d="M122.934 278.401H204.921L196.125 289.724H131.48L122.934 278.401Z" fill="url(#paint4_linear_907_9326)" style="mix-blend-mode:multiply"></path></g></g><defs><linearGradient id="paint0_linear_907_9326" x1="-53.1599" y1="-9.19133" x2="389.651" y2="183.511" gradientUnits="userSpaceOnUse"><stop offset="0.37" stop-color="#393F46"></stop><stop offset="0.4" stop-color="#62676C"></stop><stop offset="0.43" stop-color="#888B90"></stop><stop offset="0.47" stop-color="#A8ABAE"></stop><stop offset="0.51" stop-color="#C4C5C7"></stop><stop offset="0.55" stop-color="#DADBDC"></stop><stop offset="0.6" stop-color="#EBEBEC"></stop><stop offset="0.67" stop-color="#F6F7F7"></stop><stop offset="0.75" stop-color="#FDFDFD"></stop><stop offset="1" stop-color="white"></stop></linearGradient><linearGradient id="paint1_linear_907_9326" x1="168" y1="-25.854" x2="168" y2="331.146" gradientUnits="userSpaceOnUse"><stop stop-color="#3B5276"></stop><stop offset="0.02" stop-color="#4E5174"></stop><stop offset="0.07" stop-color="#725070"></stop><stop offset="0.13" stop-color="#924E6D"></stop><stop offset="0.19" stop-color="#AE4D6A"></stop><stop offset="0.27" stop-color="#C44D68"></stop><stop offset="0.35" stop-color="#D54C66"></stop><stop offset="0.45" stop-color="#E04B65"></stop><stop offset="0.6" stop-color="#E74B64"></stop><stop offset="1" stop-color="#E94B64"></stop></linearGradient><linearGradient id="paint2_linear_907_9326" x1="-53.1816" y1="-9.19133" x2="389.646" y2="183.529" gradientUnits="userSpaceOnUse"><stop offset="0.37" stop-color="#3B5276"></stop><stop offset="0.4" stop-color="#647692"></stop><stop offset="0.43" stop-color="#8896AC"></stop><stop offset="0.47" stop-color="#A8B3C2"></stop><stop offset="0.51" stop-color="#C4CBD5"></stop><stop offset="0.55" stop-color="#DADEE5"></stop><stop offset="0.6" stop-color="#EBEDF1"></stop><stop offset="0.66" stop-color="#F6F7F9"></stop><stop offset="0.75" stop-color="#FDFDFE"></stop><stop offset="1" stop-color="white"></stop></linearGradient><linearGradient id="paint3_linear_907_9326" x1="0" y1="152.631" x2="336" y2="152.631" gradientUnits="userSpaceOnUse"><stop offset="0.03" stop-color="#3B5276"></stop><stop offset="0.1" stop-color="#394B66"></stop><stop offset="0.21" stop-color="#364355"></stop><stop offset="0.35" stop-color="#343D49"></stop><stop offset="0.53" stop-color="#333A42"></stop><stop offset="1" stop-color="#333940"></stop></linearGradient><linearGradient id="paint4_linear_907_9326" x1="163.928" y1="292.818" x2="163.928" y2="277.277" gradientUnits="userSpaceOnUse"><stop stop-color="white"></stop><stop offset="1" stop-color="#231F20"></stop></linearGradient><clipPath id="clip0_907_9326"><rect width="278.667" height="331" fill="white" transform="translate(0 0.145996)"></rect></clipPath></defs></svg>