<svg xmlns="http://www.w3.org/2000/svg" width="59" height="58" viewBox="0 0 59 58" fill="none"><g clip-path="url(#clip0_953_1817)"><path d="M58.9648 29C58.9648 45.0171 45.9819 58 29.9648 58C13.9478 58 0.964844 45.0171 0.964844 29C0.964844 12.9829 13.9478 0 29.9648 0C45.9819 0 58.9648 12.9829 58.9648 29Z" fill="#13B5EC"></path><mask id="mask0_953_1817" style="mask-type:luminance" maskUnits="userSpaceOnUse" x="19" y="10" width="169" height="38"><path fill-rule="evenodd" clip-rule="evenodd" d="M19.0898 10.875H187.834V47.125H19.0898V10.875Z" fill="white"></path></mask><g mask="url(#mask0_953_1817)"><path fill-rule="evenodd" clip-rule="evenodd" d="M32.1398 23.3812L38.6648 19.575V27.1875L32.1398 23.3812ZM38.6648 39.6937L29.9648 44.7688L21.2648 39.6937V30.8125L29.9648 35.8875L38.6648 30.8125V39.6937ZM21.2648 19.575L27.7898 23.3812L21.2648 27.1875V19.575ZM31.0523 25.1937L37.5773 29L31.0523 32.8063V25.1937ZM28.8773 32.8063L22.3523 29L28.8773 25.1937V32.8063ZM37.5773 17.7625L29.9648 22.1125L22.3523 17.7625L29.9648 13.2313L37.5773 17.7625ZM19.0898 17.0375V40.7812L29.9648 46.9437L40.8398 40.7812V17.0375L29.9648 10.875L19.0898 17.0375Z" fill="white"></path></g></g><defs><clipPath id="clip0_953_1817"><rect width="58" height="58" fill="white" transform="translate(0.964844)"></rect></clipPath></defs></svg>