<svg xmlns="http://www.w3.org/2000/svg" width="58" height="58" viewBox="0 0 58 58" fill="none"><g clip-path="url(#clip0_953_1806)"><path d="M46.8697 9.93652V42.5061H11.0586V9.93652H46.8697Z" fill="white"></path><path fill-rule="evenodd" clip-rule="evenodd" d="M57.9634 28.9998C57.9634 45.0055 44.9884 57.9805 28.9827 57.9805C12.9771 57.9805 0.00195312 45.0055 0.00195312 28.9998C0.00195312 12.9941 12.9771 0.019043 28.9827 0.019043C44.9884 0.019043 57.9634 12.9941 57.9634 28.9998ZM20.7704 40.5326H15.146C13.9642 40.5326 13.3804 40.5326 13.0244 40.3049C12.64 40.0557 12.405 39.6427 12.3766 39.187C12.3552 38.7672 12.6471 38.2544 13.2309 37.2292L27.1181 12.7511C27.709 11.7116 28.008 11.1919 28.3853 10.9997C28.7912 10.7932 29.2753 10.7932 29.6811 10.9997C30.0584 11.1919 30.3575 11.7116 30.9483 12.7511L33.8033 17.7347L33.8178 17.7601C34.4561 18.8752 34.7797 19.4407 34.921 20.0342C35.0776 20.6847 35.0776 21.363 34.921 22.0134C34.7786 22.6115 34.4583 23.181 33.8104 24.313L26.5158 37.2078L26.4969 37.2409C25.8545 38.3652 25.5289 38.935 25.0776 39.3649C24.5864 39.8349 23.9955 40.1764 23.3476 40.369C22.7567 40.5326 22.0946 40.5326 20.7704 40.5326ZM34.9737 40.5326H43.0327C44.2217 40.5326 44.8198 40.5326 45.176 40.298C45.5603 40.0487 45.8023 39.6285 45.8239 39.1731C45.8444 38.7668 45.5588 38.274 44.9992 37.3083C44.9799 37.2755 44.9607 37.242 44.941 37.208L40.9041 30.3022L40.8582 30.2244C40.2909 29.2651 40.0046 28.7807 39.6368 28.5935C39.4373 28.4917 39.2165 28.4386 38.9926 28.4386C38.7686 28.4386 38.5478 28.4917 38.3483 28.5935C37.9781 28.7857 37.6791 29.2912 37.0882 30.3093L33.0657 37.2151L33.0519 37.2389C32.4631 38.2553 32.1688 38.7633 32.19 39.1801C32.2185 39.6358 32.4534 40.0557 32.8378 40.3049C33.1867 40.5326 33.7847 40.5326 34.9737 40.5326Z" fill="#E84142"></path></g><defs><clipPath id="clip0_953_1806"><rect width="57.9614" height="58" fill="white" transform="translate(0.00195312)"></rect></clipPath></defs></svg>