<svg xmlns="http://www.w3.org/2000/svg" width="59" height="58" viewBox="0 0 59 58" fill="none"><g clip-path="url(#clip0_953_1810)"><path fill-rule="evenodd" clip-rule="evenodd" d="M29.9648 0C45.9822 0 58.9648 12.9826 58.9648 29C58.9648 45.0174 45.9822 58 29.9648 58C13.9475 58 0.964844 45.0174 0.964844 29C0.964844 12.9826 13.9475 0 29.9648 0Z" fill="#F0B90B"></path><path d="M16.904 29L16.9249 36.6682L23.4406 40.5024V44.9918L13.1117 38.9339V26.7576L16.904 29ZM16.904 21.3317V25.8002L13.1094 23.5555V19.087L16.904 16.8423L20.7172 19.087L16.904 21.3317ZM26.1617 19.087L29.9563 16.8423L33.7696 19.087L29.9563 21.3317L26.1617 19.087Z" fill="white"></path><path d="M19.6445 35.0788V30.5894L23.4392 32.8341V37.3026L19.6445 35.0788ZM26.1602 42.1104L29.9549 44.3551L33.7681 42.1104V46.5789L29.9549 48.8236L26.1602 46.5789V42.1104ZM39.2102 19.087L43.0049 16.8423L46.8181 19.087V23.5555L43.0049 25.8002V21.3317L39.2102 19.087ZM43.0049 36.6682L43.0258 29L46.8204 26.7553V38.9315L36.4915 44.9895V40.5001L43.0049 36.6682Z" fill="white"></path><path d="M40.2849 35.0788L36.4902 37.3026V32.8341L40.2849 30.5894V35.0788Z" fill="white"></path><path d="M40.2838 22.9211L40.3047 27.4105L33.7704 31.2446V38.9315L29.9758 41.1553L26.1811 38.9315V31.2446L19.6469 27.4105V22.9211L23.4578 20.6763L29.9525 24.5291L36.4868 20.6763L40.3001 22.9211H40.2838ZM19.6445 15.2551L29.9549 9.17627L40.2838 15.2551L36.4892 17.4998L29.9549 13.6471L23.4392 17.4998L19.6445 15.2551Z" fill="white"></path></g><defs><clipPath id="clip0_953_1810"><rect width="58" height="58" fill="white" transform="translate(0.964844)"></rect></clipPath></defs></svg>