<svg xmlns="http://www.w3.org/2000/svg" width="58" height="58" viewBox="0 0 58 58" fill="none"><g clip-path="url(#clip0_953_1742)"><path d="M24.349 21.0657H31.4622C35.8395 21.0657 35.8395 25.4431 31.4622 25.4431H24.349V21.0657ZM7.38672 41.311H29.2735V35.2922H24.349V30.9148H29.8207C35.8395 30.9148 32.5565 41.311 37.4811 41.311H51.1603V30.9148H47.8773V32.0091C47.8773 36.3865 42.9528 35.8393 42.4056 33.1035C41.8584 30.3676 39.6697 28.179 39.1226 28.179C47.3301 23.8016 42.4056 15.0469 35.8395 15.0469H10.1226V21.0657H15.5943V35.2922H7.38672V41.311Z" fill="black" stroke="black" stroke-linejoin="round"></path><path d="M52.5273 29C52.5273 41.9942 41.9932 52.5283 28.999 52.5283C16.0048 52.5283 5.4707 41.9942 5.4707 29C5.4707 16.0058 16.0048 5.47168 28.999 5.47168C41.9932 5.47168 52.5273 16.0058 52.5273 29Z" stroke="black" stroke-width="9"></path><path d="M54.1699 30.6414L56.9058 28.9999L54.1699 27.3584V30.6414Z" fill="black" stroke="black" stroke-width="3" stroke-linejoin="round"></path><path d="M53.3654 35.5202L56.3689 34.444L54.0059 32.3003L53.3654 35.5202Z" fill="black" stroke="black" stroke-width="3" stroke-linejoin="round"></path><path d="M51.6245 40.1483L54.7803 39.6788L52.8809 37.1152L51.6245 40.1483Z" fill="black" stroke="black" stroke-width="3" stroke-linejoin="round"></path><path d="M49.0159 44.3484L52.2026 44.5035L50.8398 41.6187L49.0159 44.3484Z" fill="black" stroke="black" stroke-width="3" stroke-linejoin="round"></path><path d="M45.6356 47.9582L48.7308 48.732L47.957 45.6367L45.6356 47.9582Z" fill="black" stroke="black" stroke-width="3" stroke-linejoin="round"></path><path d="M41.6179 50.8396L44.5027 52.2024L44.3477 49.0156L41.6179 50.8396Z" fill="black" stroke="black" stroke-width="3" stroke-linejoin="round"></path><path d="M37.1153 52.8818L39.6788 54.7813L40.1484 51.6255L37.1153 52.8818Z" fill="black" stroke="black" stroke-width="3" stroke-linejoin="round"></path><path d="M32.2996 54.0062L34.4433 56.3692L35.5195 53.3657L32.2996 54.0062Z" fill="black" stroke="black" stroke-width="3" stroke-linejoin="round"></path><path d="M27.3576 54.1699L28.9991 56.9058L30.6406 54.1699H27.3576Z" fill="black" stroke="black" stroke-width="3" stroke-linejoin="round"></path><path d="M22.4793 53.3659L23.5555 56.3694L25.6992 54.0063L22.4793 53.3659Z" fill="black" stroke="black" stroke-width="3" stroke-linejoin="round"></path><path d="M17.8517 51.6255L18.3212 54.7813L20.8848 52.8818L17.8517 51.6255Z" fill="black" stroke="black" stroke-width="3" stroke-linejoin="round"></path><path d="M13.6511 49.0159L13.496 52.2026L16.3809 50.8398L13.6511 49.0159Z" fill="black" stroke="black" stroke-width="3" stroke-linejoin="round"></path><path d="M10.0418 45.6371L9.26802 48.7323L12.3633 47.9585L10.0418 45.6371Z" fill="black" stroke="black" stroke-width="3" stroke-linejoin="round"></path><path d="M7.16043 41.6184L5.79763 44.5032L8.98438 44.3481L7.16043 41.6184Z" fill="black" stroke="black" stroke-width="3" stroke-linejoin="round"></path><path d="M5.11669 37.1153L3.21727 39.6788L6.37305 40.1484L5.11669 37.1153Z" fill="black" stroke="black" stroke-width="3" stroke-linejoin="round"></path><path d="M3.99233 32.3001L1.62929 34.4438L4.63281 35.52L3.99233 32.3001Z" fill="black" stroke="black" stroke-width="3" stroke-linejoin="round"></path><path d="M3.83008 27.3586L1.09423 29.0001L3.83008 30.6416L3.83008 27.3586Z" fill="black" stroke="black" stroke-width="3" stroke-linejoin="round"></path><path d="M4.63267 22.4798L1.62915 23.556L3.99219 25.6997L4.63267 22.4798Z" fill="black" stroke="black" stroke-width="3" stroke-linejoin="round"></path><path d="M6.37354 17.8512L3.21777 18.3208L5.11719 20.8843L6.37354 17.8512Z" fill="black" stroke="black" stroke-width="3" stroke-linejoin="round"></path><path d="M8.9841 13.6516L5.79735 13.4965L7.16016 16.3813L8.9841 13.6516Z" fill="black" stroke="black" stroke-width="3" stroke-linejoin="round"></path><path d="M12.3625 10.0413L9.2672 9.26753L10.041 12.3628L12.3625 10.0413Z" fill="black" stroke="black" stroke-width="3" stroke-linejoin="round"></path><path d="M16.3801 7.15994L13.4953 5.79714L13.6504 8.98389L16.3801 7.15994Z" fill="black" stroke="black" stroke-width="3" stroke-linejoin="round"></path><path d="M20.8847 5.11767L18.3212 3.21825L17.8516 6.37402L20.8847 5.11767Z" fill="black" stroke="black" stroke-width="3" stroke-linejoin="round"></path><path d="M25.6985 3.9933L23.5547 1.63027L22.4785 4.63379L25.6985 3.9933Z" fill="black" stroke="black" stroke-width="3" stroke-linejoin="round"></path><path d="M30.6404 3.83008L28.9989 1.09423L27.3574 3.83008L30.6404 3.83008Z" fill="black" stroke="black" stroke-width="3" stroke-linejoin="round"></path><path d="M35.5207 4.63414L34.4445 1.63061L32.3008 3.99365L35.5207 4.63414Z" fill="black" stroke="black" stroke-width="3" stroke-linejoin="round"></path><path d="M40.1483 6.37403L39.6788 3.21826L37.1152 5.11768L40.1483 6.37403Z" fill="black" stroke="black" stroke-width="3" stroke-linejoin="round"></path><path d="M44.3469 8.9841L44.502 5.79735L41.6172 7.16016L44.3469 8.9841Z" fill="black" stroke="black" stroke-width="3" stroke-linejoin="round"></path><path d="M47.9582 12.3629L48.732 9.26769L45.6367 10.0415L47.9582 12.3629Z" fill="black" stroke="black" stroke-width="3" stroke-linejoin="round"></path><path d="M50.8396 16.3811L52.2024 13.4963L49.0156 13.6514L50.8396 16.3811Z" fill="black" stroke="black" stroke-width="3" stroke-linejoin="round"></path><path d="M52.8814 20.8842L54.7808 18.3207L51.625 17.8511L52.8814 20.8842Z" fill="black" stroke="black" stroke-width="3" stroke-linejoin="round"></path><path d="M54.0057 25.6994L56.3688 23.5557L53.3652 22.4795L54.0057 25.6994Z" fill="black" stroke="black" stroke-width="3" stroke-linejoin="round"></path><path d="M25.1699 6.01855L29.0001 9.84874L32.8303 6.01855H25.1699Z" fill="black" stroke="black" stroke-width="6" stroke-linejoin="round"></path><path d="M49.6719 18.2554L47.2127 23.0817L52.0391 25.5408L49.6719 18.2554Z" fill="black" stroke="black" stroke-width="6" stroke-linejoin="round"></path><path d="M45.6055 45.3408L40.2555 44.4935L39.4081 49.8435L45.6055 45.3408Z" fill="black" stroke="black" stroke-width="6" stroke-linejoin="round"></path><path d="M18.5898 49.8433L17.7425 44.4932L12.3925 45.3406L18.5898 49.8433Z" fill="black" stroke="black" stroke-width="6" stroke-linejoin="round"></path><path d="M5.95898 25.541L10.7853 23.0819L8.32617 18.2556L5.95898 25.541Z" fill="black" stroke="black" stroke-width="6" stroke-linejoin="round"></path></g><defs><clipPath id="clip0_953_1742"><rect width="58" height="58" fill="white"></rect></clipPath></defs></svg>