<svg xmlns="http://www.w3.org/2000/svg" width="74" height="58" viewBox="0 0 74 58" fill="none"><g clip-path="url(#clip0_953_1784)"><path d="M12.0204 44.2676C12.467 43.8211 13.081 43.5605 13.7323 43.5605H72.7929C73.8722 43.5605 74.4118 44.8631 73.6489 45.626L61.9819 57.293C61.5353 57.7396 60.9212 58.0001 60.27 58.0001H1.20934C0.130098 58.0001 -0.409523 56.6975 0.35339 55.9346L12.0204 44.2676Z" fill="url(#paint0_linear_953_1784)"></path><path d="M12.0204 0.70709C12.4856 0.260507 13.0996 0 13.7323 0H72.7929C73.8722 0 74.4118 1.30253 73.6489 2.06545L61.9819 13.7324C61.5353 14.179 60.9212 14.4395 60.27 14.4395H1.20934C0.130098 14.4395 -0.409523 13.137 0.35339 12.3741L12.0204 0.70709Z" fill="url(#paint1_linear_953_1784)"></path><path d="M61.9819 22.3477C61.5353 21.9011 60.9212 21.6406 60.27 21.6406H1.20934C0.130098 21.6406 -0.409523 22.9432 0.35339 23.7061L12.0204 35.3731C12.467 35.8196 13.081 36.0801 13.7323 36.0801H72.7929C73.8722 36.0801 74.4118 34.7776 73.6489 34.0147L61.9819 22.3477Z" fill="url(#paint2_linear_953_1784)"></path></g><defs><linearGradient id="paint0_linear_953_1784" x1="67.1509" y1="-6.96942" x2="26.2762" y2="71.322" gradientUnits="userSpaceOnUse"><stop stop-color="#00FFA3"></stop><stop offset="1" stop-color="#DC1FFF"></stop></linearGradient><linearGradient id="paint1_linear_953_1784" x1="49.2783" y1="-16.3005" x2="8.40361" y2="61.991" gradientUnits="userSpaceOnUse"><stop stop-color="#00FFA3"></stop><stop offset="1" stop-color="#DC1FFF"></stop></linearGradient><linearGradient id="paint2_linear_953_1784" x1="58.1576" y1="-11.6648" x2="17.283" y2="66.6266" gradientUnits="userSpaceOnUse"><stop stop-color="#00FFA3"></stop><stop offset="1" stop-color="#DC1FFF"></stop></linearGradient><clipPath id="clip0_953_1784"><rect width="74.0026" height="58" fill="white"></rect></clipPath></defs></svg>