<svg xmlns="http://www.w3.org/2000/svg" width="432" height="431" viewBox="0 0 432 431" fill="none"><path d="M422.466 219.105C427.649 219.196 431.799 223.474 431.483 228.648C428.344 280.12 406.864 328.89 370.769 366.007C334.674 403.124 286.522 425.957 235.158 430.532C229.995 430.992 225.602 426.963 225.367 421.785L220.505 314.705C245.737 313.559 269.584 302.842 287.194 284.734C304.803 266.626 314.85 242.489 315.291 217.234L422.466 219.105Z" fill="#E7BD41"></path><path d="M220.505 314.705C245.737 313.559 269.584 302.842 287.194 284.734C304.803 266.626 314.85 242.489 315.291 217.234L220.505 314.705Z" fill="#E7BD41"></path><path d="M212.396 421.966C212.305 427.149 208.027 431.299 202.853 430.983C151.381 427.844 102.61 406.364 65.493 370.27C28.3758 334.175 5.54221 286.023 0.967466 234.66C0.507583 229.496 4.53614 225.104 9.71469 224.869L116.795 220.006C117.941 245.238 128.659 269.086 146.767 286.695C164.875 304.304 189.012 314.351 214.267 314.792L212.396 421.966Z" fill="#CA732F"></path><path d="M116.795 220.006C117.941 245.238 128.659 269.086 146.767 286.695C164.875 304.304 189.012 314.351 214.267 314.792L116.795 220.006Z" fill="#CA732F"></path><path d="M9.53406 211.894C4.35097 211.804 0.201345 207.525 0.516878 202.351C3.65568 150.88 25.1358 102.11 61.2308 64.9926C97.3258 27.8756 145.478 5.04222 196.842 0.467505C202.005 0.00762471 206.398 4.03615 206.633 9.21466L211.495 116.295C186.263 117.44 162.416 128.158 144.806 146.266C127.197 164.373 117.15 188.511 116.709 213.765L9.53406 211.894Z" fill="#6C7648"></path><path d="M211.495 116.295C186.263 117.44 162.416 128.158 144.806 146.266C127.197 164.373 117.15 188.511 116.709 213.765L211.495 116.295Z" fill="#6C7648"></path><path d="M219.603 9.03399C219.693 3.85094 223.972 -0.298653 229.146 0.0168774C280.618 3.15565 329.388 24.6357 366.506 60.7304C403.623 96.8251 426.456 144.977 431.031 196.34C431.491 201.504 427.463 205.896 422.284 206.131L315.203 210.994C314.057 185.762 303.34 161.914 285.232 144.305C267.124 126.696 242.987 116.649 217.732 116.208L219.603 9.03399Z" fill="#ADCA2F"></path><path d="M315.203 210.994C314.057 185.762 303.34 161.914 285.232 144.305C267.124 126.696 242.987 116.649 217.732 116.208L315.203 210.994Z" fill="#ADCA2F"></path><path d="M323.776 341.261V318.232H346.805L323.776 341.261Z" fill="#FBFDFA"></path><path d="M319.298 290.704V313.732H296.27L319.298 290.704Z" fill="#FBFDFA"></path><path d="M319.298 341.261V318.232H296.27L319.298 341.261Z" fill="#FBFDFA"></path><path d="M323.776 290.704V313.732H346.805L323.776 290.704Z" fill="#FBFDFA"></path><path d="M113.957 348.844L113.957 325.816L136.985 325.816L113.957 348.844Z" fill="#FBFDFA"></path><path d="M86.4297 321.316L86.4297 298.287L109.458 298.287L86.4297 321.316Z" fill="#FBFDFA"></path><path d="M109.458 348.844V325.816L86.4297 325.816L109.458 348.844Z" fill="#FBFDFA"></path><path d="M136.985 321.316V298.287L113.957 298.287L136.985 321.316Z" fill="#FBFDFA"></path><path d="M319.298 80.8915V103.92H296.27L319.298 80.8915Z" fill="#FBFDFA"></path><path d="M346.825 108.42V131.449H323.797L346.825 108.42Z" fill="#FBFDFA"></path><path d="M323.797 80.8915V103.92H346.825L323.797 80.8915Z" fill="#FBFDFA"></path><path d="M296.27 108.42V131.449H319.298L296.27 108.42Z" fill="#FBFDFA"></path><path d="M86.4297 87.2109V110.249H109.468L86.4297 87.2109Z" fill="#FBFDFA"></path><path d="M137.007 114.73H113.948V137.768L137.007 114.73Z" fill="#FBFDFA"></path><path d="M109.468 137.768V114.73H86.4297L109.468 137.768Z" fill="#FBFDFA"></path><path d="M113.948 110.249H136.986V87.2109L113.948 110.249Z" fill="#FBFDFA"></path></svg>