<svg xmlns="http://www.w3.org/2000/svg" width="471" height="669" viewBox="0 0 471 669" fill="none"><path d="M391.228 0C397.443 4.21749 402.68 9.55965 408.17 14.5785C414.497 20.2018 419.924 26.7319 425.331 33.2268C432.361 42.3647 439.243 51.6362 444.614 61.8425C456.814 84.1157 463.888 108.832 465.317 134.187C466.259 140.513 465.95 146.888 466.47 153.229C466.723 158.149 465.992 163.013 466.055 167.92C465.76 167.54 465.472 167.16 465.19 166.781C465.64 174.204 465.24 181.654 465.092 189.084C464.326 195.853 464.951 202.686 464.15 209.469C463.447 218.459 462.786 227.492 460.93 236.334C459.82 241.74 459.363 247.272 457.964 252.628C456.41 258.497 455.609 264.577 453.141 270.201C449.949 277.511 446.357 284.962 440.34 290.389C438.484 292.132 436.494 293.833 435.419 296.195C440.719 299.969 446.42 303.224 451.412 307.399C454.055 309.62 457.036 311.434 459.503 313.859C454.582 314.112 448.691 312.72 444.811 316.593C438.266 323.299 436.649 333.02 436.079 342.004C441.625 340.789 447.311 340.335 452.979 340.654C452.718 338.65 452.195 336.689 451.426 334.82C460.881 335.326 469.261 343.473 470.111 352.885C470.379 356.069 468.551 358.986 465.992 360.729C465.029 358.993 464.445 356.427 462.09 356.167C456.958 355.183 452.206 357.995 448.157 360.779C443.693 363.801 441.626 369.01 439.517 373.74C436.817 381.367 435.868 389.45 433.893 397.267C432.368 402.426 430.716 407.586 428.128 412.323C425.928 416.773 423.798 421.342 420.346 424.976C414.877 431.97 407.889 437.628 400.36 442.253C395.833 445.023 390.813 446.829 386.005 449.044C379.284 452.038 372.191 454.034 365.259 456.473C361.112 458.224 356.943 459.918 352.774 461.612C344.62 465.829 336.015 470.201 330.482 477.779C324.331 486.762 322.18 497.664 318.004 507.575C315.895 512.552 314.046 517.697 311.059 522.238C312.612 515.666 315.572 509.522 316.879 502.887C318.45 496.345 319.183 489.63 319.059 482.903C319.122 475.93 318.356 468.887 316.015 462.287C314.109 456.164 310.475 450.78 306.644 445.719C303.874 442.043 299.614 439.969 296.499 436.693C298.925 436.581 301.42 436.504 303.74 437.305C308.626 438.894 313.582 440.391 318.187 442.703C320.324 443.739 322.222 445.207 323.764 447.013C325.305 448.819 326.456 450.925 327.143 453.198C327.98 456.712 327.994 460.297 328.085 463.861C331.651 461.026 335.599 458.707 339.811 456.973C347.396 453.985 355.059 451.033 363.108 449.5C374.398 447.293 385.66 444.418 396.03 439.322C398.556 437.961 400.915 436.309 403.06 434.402C403.594 433.966 404.121 433.516 404.648 433.059C408.866 429.545 413.084 426.03 416.262 421.567C419.939 416.85 421.787 411.065 423.292 405.357C425.042 398.539 424.41 391.447 424.529 384.488C424.649 376.967 423.728 369.488 423.2 361.995C422.744 355.626 423.636 349.258 425.085 343.072C426.097 338.735 427.896 334.637 429.007 330.335C430.745 323.864 433.862 317.845 438.146 312.692C438.709 311.722 440.1 310.52 439.18 309.353C437.774 307.568 435.798 306.401 434.013 305.072C426.814 299.976 419.292 295.372 411.664 290.951C409.401 289.447 407.271 287.767 405.105 286.15C409.401 286.783 413.703 287.422 418.012 287.978C420.733 289.032 423.109 291.204 426.125 291.373C428.325 290.557 429.914 288.716 431.587 287.155C440.417 278.769 445.45 267.263 448.839 255.77C451.862 248.319 453.289 240.376 455.011 232.574C456.628 225.404 457.514 218.108 458.631 210.854C458.96 208.495 458.756 206.093 458.034 203.824C457.138 205.906 456.66 208.144 456.628 210.411C453.31 224.005 447.145 236.658 442.983 249.992C441.137 255.508 438.871 260.876 436.206 266.047C436.248 264.795 436.206 263.551 436.276 262.314C437.718 259.379 438.895 256.321 439.791 253.176C443.362 241.17 448.143 229.572 451.939 217.637C455.334 207.796 457.359 197.554 459.025 187.306C463.292 163.829 462.301 139.655 458.322 116.22C455.51 103.8 452.044 91.4423 447.074 79.6685C442.266 69.8276 437.872 59.6846 432.311 50.1952C425.394 40.2138 418.511 30.0145 409.401 21.8747C405.619 18.6202 402.012 15.0143 397.45 12.8915C398.49 23.6531 399.263 34.5413 397.773 45.3099C396.662 53.1545 394.406 61.0061 389.935 67.6275C385.464 74.249 380.325 80.1324 375.65 86.5008C368.022 96.5876 359.481 105.95 351.361 115.616C339.825 128.767 333.702 145.56 328.865 162.113C325.688 173.817 321.414 185.478 321.189 197.737C326.208 197.836 331.27 198.159 336.261 197.414C340.148 196.88 343.017 193.956 346.201 191.931C345.357 193.8 344.152 195.484 342.655 196.886C341.158 198.288 339.398 199.38 337.477 200.099C331.804 202.355 325.484 201.189 319.698 202.946C315.881 204.07 313.006 207.374 311.811 211.107C310.116 216.364 307.754 221.65 303.459 225.306C303.176 224.007 303.308 222.652 303.839 221.432C306.433 217.742 307.312 213.208 307.122 208.78C307.414 202.744 306.491 196.711 304.408 191.038C302.84 186.701 301.533 182.076 298.369 178.576C293.519 172.327 287.009 167.61 280.211 163.674C270.882 159.07 260.64 156.799 250.46 154.958C244.9 154.023 239.212 154.381 233.637 154.318C223.535 154.023 213.321 155.021 203.753 158.416C191.419 161.643 180.285 168.374 171.697 177.795C169.653 180.147 168.076 182.867 167.05 185.809C164.751 191.587 162.276 197.519 162.192 203.846C162.192 208.379 161.651 213.11 163.19 217.475C164.8 222.065 169.278 224.603 171.879 228.532C166.839 226.522 162.269 222.81 159.963 217.827C157.904 213.609 157.798 207.986 153.566 205.174C147.612 201.266 140.209 202.243 133.573 200.514C129.517 199.502 126.276 196.62 124.012 193.196C127.373 194.954 130.641 197.259 134.557 197.625C139.316 198.124 144.118 197.878 148.891 197.723C148.188 189.569 146.403 181.556 144.413 173.613C141.643 164.061 139.253 154.381 135.731 145.054C131.22 133.323 124.755 122.44 116.61 112.867C110.009 105.135 103.154 97.6842 96.8414 89.7342C91.2948 83.0214 86.3387 75.8587 80.9889 69.0052C73.1364 58.5318 71.2875 45.0428 71.0204 32.3341C70.7392 25.6916 72.0679 19.1474 72.7919 12.5822C62.9617 18.6985 54.3753 26.6162 47.4841 35.919C44.412 40.1365 41.6562 44.6281 38.549 48.8456C36.3363 51.7032 34.4874 54.8246 33.0445 58.1382C30.2325 64.8932 25.8458 70.9031 23.4697 77.8549C21.0866 84.9263 18.366 91.9133 16.2992 99.0689C13.3358 109.468 11.0509 120.048 9.459 130.742C7.99677 141.926 8.42559 153.236 8.41153 164.482C8.41153 173.936 10.3377 183.222 11.6594 192.55C14.0988 208.232 19.8282 223.112 25.0163 238.021C27.301 245.458 29.7756 252.825 32.5876 260.079C33.7134 263.037 35.1559 265.865 36.8899 268.514L35.8776 270.159C31.7229 263.242 28.7211 255.7 26.2044 248.052C23.2869 239.849 20.3695 231.646 17.213 223.527C15.2657 218.607 14.5768 213.222 12.1374 208.485C11.814 216.104 13.6348 223.604 15.1673 231.013C18.1902 243.771 21.0936 256.627 25.9443 268.844C29.6661 277.898 35.8402 285.734 43.7723 291.471C46.4225 290.438 49.0236 289.264 51.7372 288.399C56.7355 287.036 61.8814 286.368 66.9782 285.503C58.6406 290.382 49.9235 294.761 42.3733 300.862C37.9936 303.456 33.7124 306.267 30.113 309.909C34.2185 313.824 36.6439 318.983 38.4295 324.283C38.6826 324.135 38.9286 323.988 39.1887 323.854C42.3592 334.764 46.3733 345.645 46.8162 357.116C47.1115 366.071 44.8267 374.872 44.9041 383.827C44.9392 390.42 44.4401 397.098 45.8109 403.6C47.2833 411.876 51.021 419.582 56.609 425.861C59.5897 429.214 63.1468 431.97 66.711 434.662C67.6952 435.456 68.7075 436.229 69.7269 437.003C79.0275 444.032 91.0066 445.508 101.959 448.538C108.989 450.576 116.293 451.448 123.049 454.238C129.313 456.881 135.591 459.587 141.327 463.257C141.594 459.784 141.468 456.227 142.396 452.86C143.19 450.503 144.478 448.343 146.176 446.524C147.873 444.706 149.94 443.271 152.238 442.317C156.624 440.538 161.109 439.027 165.594 437.438C168.076 436.461 170.762 436.623 173.37 436.806C170.108 439.617 166.508 442.106 163.668 445.396C157.772 451.995 153.813 460.095 152.231 468.803C151.528 472.549 150.825 476.324 150.923 480.162C151.014 485.729 150.642 491.408 151.802 496.877C152.301 499.766 153.039 502.613 153.552 505.502C154.719 511.308 157.707 516.538 158.909 522.33C152.484 511.645 149.327 499.45 144.849 487.887C141.485 479.371 135.564 472.107 127.9 467.095C122.032 463.836 115.962 460.955 109.727 458.47C101.798 455.173 93.4952 452.896 85.5513 449.648C80.2859 447.469 74.7041 445.916 69.8745 442.802C59.8287 436.532 50.2539 428.743 44.5104 418.2C41.2766 411.965 37.8038 405.737 36.208 398.841C32.9813 388.867 33.1219 377.902 27.9829 368.553C25.4733 363.407 20.8546 359.527 15.6946 357.201C12.735 356.104 9.17779 355.401 6.23224 356.877C4.99496 358.002 4.46069 359.689 3.62413 361.095C1.62059 359.387 0.109139 357.074 0.00368931 354.368C-0.12285 348.667 3.01955 343.297 7.3008 339.705C10.7103 337.125 14.619 334.742 19.0479 334.785C18.0285 336.704 17.1287 338.693 16.2359 340.696C22.2535 340.478 28.2923 340.696 34.092 342.461C33.8098 336.373 32.6253 330.36 30.577 324.621C29.2049 320.569 26.4497 317.13 22.7948 314.906C18.7667 313.008 14.1831 314.098 9.89485 313.852C17.902 307.617 26.1341 301.649 34.7036 296.216C33.3749 292.989 30.2115 291.162 28.0322 288.582C23.4978 284.048 20.6296 278.242 18.0988 272.415C15.4907 266.792 14.4714 260.592 12.7209 254.666C11.7719 248.214 9.78941 241.965 9.20592 235.456C7.02663 224.982 6.60483 214.277 5.60657 203.656C5.473 191.552 4.20058 179.497 4.05296 167.392C2.8438 155.9 3.58194 144.316 4.67159 132.844C5.10744 124.514 6.07758 116.178 8.35529 108.13C10.0284 97.3116 13.909 87.042 18.0285 76.9271C22.3027 65.1603 29.0726 54.5181 36.0604 44.2064C44.9111 31.9475 54.6617 20.1877 66.2892 10.4102C70.233 7.02916 73.7129 3.02254 78.2402 0.400662C77.0872 7.78128 74.5635 14.958 74.5424 22.4933C74.212 32.9667 74.6478 43.8408 79.1119 53.513C82.8111 61.245 87.7558 68.3168 93.7483 74.4458C101.805 82.3677 110.03 90.163 118.909 97.1781C126.121 103.504 133.763 109.388 140.54 116.227C145.023 119.948 149.153 124.076 152.877 128.556C159.795 135.487 164.638 144.217 167.999 153.355C169.099 156.457 169.859 159.669 170.262 162.936C175.704 161.382 180.428 158.015 185.799 156.202C200.133 151.633 214.98 148.069 230.087 147.95C239.641 147.781 249.244 148.041 258.692 149.58C264.316 150.333 269.722 152.259 275.227 153.643C281.786 155.752 288.436 157.861 294.51 161.214C296.024 161.99 297.611 162.614 299.248 163.076C300.739 157.355 302.011 151.506 304.563 146.143C311.037 133.617 320.64 122.947 331.277 113.809C340.416 105.107 350.637 97.642 359.903 89.0594C366.306 84.0106 372.279 78.4384 377.759 72.4003C386.124 63.6068 392.824 52.6343 394.378 40.4106C395.327 34.7311 395.003 28.9601 395.081 23.2314C395.026 15.3476 393.738 7.52092 391.263 0.0351452M93.0453 80.8353C94.8871 85.2426 98.7536 88.2721 101.523 92.082C111.85 105.191 124.357 116.796 132.09 131.769C137.531 141.736 141.081 152.589 143.802 163.576C146.375 173.986 149.102 184.403 150.515 195.059C150.646 195.987 150.865 196.9 151.169 197.786C152.8 199.473 155.31 199.684 157.44 200.394C158.691 195.474 160.512 190.666 161.243 185.633C160.8 180.045 160.329 174.386 159.043 168.939C157.116 156.132 153.18 143.423 146.15 132.464C141.046 124.845 134.297 118.505 127.169 112.783C118.304 103.849 109.017 95.3364 99.8081 86.7749C97.716 84.6177 95.4545 82.6315 93.0453 80.8353ZM368.985 87.5763C364.064 92.0327 359.235 96.5947 354.286 101.03C350.475 104.425 347.115 108.319 343.312 111.764C337.083 117.464 330.454 122.884 325.477 129.765C319.433 138.337 315.177 148.038 312.964 158.29C312.204 162.992 310.306 167.427 310.018 172.242C309.653 177.486 307.684 182.786 309.069 188.03C310.109 192.29 311.101 196.556 312.261 200.788C314.489 199.895 316.985 199.382 318.806 197.702C320.408 183.848 324.535 170.471 328.029 157.017C330.897 146.22 335.25 135.872 340.964 126.272C348.261 114.217 358.609 104.481 367.129 93.3472C370.335 89.0875 374.701 85.6714 377.056 80.8002C374.04 82.6418 371.601 85.2145 368.985 87.5481M9.24106 348.161C13.9511 348.161 18.5276 349.813 22.4785 352.294C26.2799 355.133 29.4776 358.701 31.8846 362.789C33.7686 365.776 34.4224 369.509 37.1078 371.969C37.6932 367.02 37.9281 362.035 37.8108 357.053C37.6773 355.071 37.4453 352.962 36.2291 351.324C33.5155 347.81 29.5858 344.611 24.8687 344.808C19.6032 344.886 13.3677 344.183 9.2481 348.161M432.304 355.626C432.22 361.327 432.058 367.077 433.007 372.721C435.039 369.101 436.15 364.989 438.596 361.636C443.44 354.452 451.011 348.597 459.827 347.634L459.742 346.228C453.675 344.864 447.285 344.119 441.155 345.469C436.74 346.945 432.332 350.656 432.297 355.661M399.699 19.4848C402.314 20.736 404.156 22.9994 406.244 24.9465C409.725 28.2558 412.862 31.9084 415.608 35.8487C420.921 44.3201 425.683 53.1247 429.865 62.208C430.962 66.1795 433.232 69.7011 434.174 73.7218C435.116 76.906 436.283 80.048 436.48 83.415C436.684 83.0776 436.895 82.7121 437.12 82.4169C439.018 90.8519 440.016 99.4134 441.83 107.848C444.445 128.233 446.519 148.828 445.043 169.389C444.726 176.591 443.546 183.73 441.528 190.652C440.825 197.189 438.139 203.206 436.002 209.356C435.015 211.987 433.825 214.536 432.445 216.983C430.512 222.185 427.193 226.676 424.522 231.491C421.225 235.948 418.448 240.854 414.329 244.629C408.592 251.053 400.768 255.482 392.536 257.724C392.351 260.137 392.369 262.561 392.592 264.971C392.894 268.605 392.255 272.211 392.079 275.838C390.204 275.866 388.329 275.939 386.455 276.056C386.497 270.833 387.003 265.512 385.752 260.388C384.461 255.242 382.652 250.24 380.353 245.458C379.839 244.423 379.099 243.518 378.188 242.808C373.836 239.385 369.463 235.983 364.964 232.749C358.89 227.871 352.943 222.142 345.105 220.357C345.351 220.125 345.604 219.893 345.864 219.654C343.762 219.238 341.729 218.528 339.825 217.545C344.296 216.083 349.231 215.177 352.788 211.859C356.346 208.541 359.509 204.605 361.006 199.944C362.574 192.444 361.576 184.733 361.941 177.149C361.984 174.653 364.254 173.163 365.604 171.336C359.544 166.647 351.474 166.38 344.191 167.315C340.423 167.842 336.676 169.22 333.857 171.842C331.495 173.845 330.742 177.029 328.746 179.335C329.083 175.23 331.769 171.835 334.461 168.925C340.198 163.709 348.374 163.477 355.671 162.802C356.81 150.853 360.929 139.423 365.667 128.493C366.968 125.414 368.957 122.687 370.314 119.629C372.008 115.236 374.912 111.475 377.344 107.497C379.79 102.942 383.102 98.9284 385.562 94.3805C390.645 87.2529 393.935 79.064 396.641 70.7977C401.33 58.5669 401.562 45.2186 400.761 32.306C400.859 27.9981 400.508 23.6918 399.713 19.4567M363.347 211.81C362.166 214.867 360.275 217.602 359.172 220.694C359.662 221.665 360.346 222.524 361.182 223.218C366.356 227.688 371.945 231.653 377.309 235.87C379.79 237.614 382.23 240.053 385.457 240.053C389.576 240.102 393.893 240.369 397.773 238.71C401.401 237.368 404.1 234.493 406.912 231.962C408.023 231.034 407.889 229.46 408.213 228.188C406.012 229.221 403.959 230.599 401.661 231.4C397.253 231.871 392.873 229.952 389.513 227.182C386.631 224.75 382.356 224.314 380.374 220.814C384.458 221.327 388.908 222.29 392.712 220.111C395.228 218.705 396.03 215.76 396.423 213.082C392.849 213.188 389.276 212.828 385.794 212.013C386.04 211.69 386.293 211.367 386.546 211.05C381.777 210.336 377.106 209.072 372.627 207.283C370.518 206.777 368.135 205.687 366.012 206.58C364.648 207.986 364.149 209.968 363.333 211.704M53.572 37.1069C57.8673 30.6823 62.6407 24.2436 69.3402 20.1456C69.3754 27.491 68.5458 34.8224 68.82 42.1749C68.2225 55.0524 71.1118 67.8946 75.9062 79.795C79.4216 87.2402 83.5064 94.4031 88.1243 101.22C94.8871 111.061 100.406 121.668 105.313 132.528C107.984 136.879 108.87 141.961 110.733 146.656C112.315 152.116 113.398 157.709 113.966 163.365C118.937 163.59 124.188 163.133 128.835 165.234C130.876 166.45 132.836 167.796 134.705 169.262C133.545 169.002 132.399 168.735 131.253 168.461C125.694 166.858 119.853 166.483 114.135 167.364C110.55 168.44 106.824 169.564 103.808 171.856C105.341 173.262 107.225 174.759 107.197 177.086C107.71 184.051 106.88 191.074 107.562 198.046C108.265 203.67 112.146 208.253 116.223 211.936C119.689 215.05 124.364 216.09 128.736 217.299C126.206 219.563 122.726 219.992 119.872 221.657C113.545 225.453 107.857 230.092 102.044 234.591C96.9609 238.309 90.8449 241.62 88.2579 247.658C86.3879 252.157 84.0961 256.599 83.4564 261.492C82.6479 266.307 82.8378 271.213 82.9573 276.077C81.0826 275.96 79.2079 275.892 77.3333 275.873C76.6328 269.917 76.5927 263.901 77.2138 257.935C69.1153 255.426 61.0097 251.574 55.4209 245.008C53.7056 243.202 51.8145 241.543 50.3382 239.519C45.2275 232.18 40.2643 224.652 36.8618 216.322C34.0522 210.859 31.8187 205.118 30.1974 199.192C28.0884 193.991 27.765 188.325 26.1973 182.962C25.0514 176.633 24.4913 170.211 24.5242 163.779C24.5242 155.583 24.4188 147.38 24.6578 139.177C25.0936 133.224 25.5154 127.263 26.113 121.323C27.1815 113.275 28.4751 105.262 29.396 97.1922L30.1693 98.2184C30.1653 95.8163 30.4127 93.4204 30.9074 91.0698C32.3982 83.8616 34.4983 76.793 37.1852 69.9401C38.5912 66.4255 39.2942 62.5665 41.1993 59.2206C42.7248 56.409 44.0534 53.5551 45.4173 50.7083C47.6879 45.9145 51.1326 41.8235 53.5439 37.1069M89.3053 209.884C83.9415 211.289 78.7604 214.01 73.038 213.103C73.1661 214.367 73.4013 215.618 73.741 216.842C74.69 218.677 76.553 219.802 78.3175 220.772C80.56 222.178 83.2877 222.023 85.8325 222.178C85.72 222.88 85.6005 223.626 85.4881 224.35C82.5391 225.781 79.6818 227.394 76.9326 229.179C73.8956 231.379 69.9026 231.126 66.3384 230.704C64.2294 230.001 62.5704 228.279 60.7777 226.964C61.0449 228.251 61.0097 229.713 61.8814 230.795C64.3068 233.958 67.175 236.974 70.9641 238.471C74.9923 240.411 79.5758 240.088 83.9204 240.046C88.4969 240.116 91.337 236.053 94.8168 233.755C100.511 229.952 106.065 225.819 110.789 220.856C108.559 217.406 106.659 213.754 105.116 209.947C104.378 208.429 103.457 206.25 101.453 206.334C97.2351 206.959 93.3757 208.738 89.3194 209.848M396.88 286.726C398.223 287.963 399.453 289.44 399.692 291.323C400.332 295.407 400.03 299.569 400.051 303.688C400.1 308.96 397.436 313.69 395.362 318.386C393.83 321.002 391.957 323.403 389.794 325.527C385.576 329.471 383.467 334.967 381.414 340.204C377.41 351.249 371.989 361.728 365.288 371.378C358.841 379.813 352.247 388.326 343.572 394.575C335.277 400.367 325.379 404.289 315.199 404.563C308.324 404.858 301.097 402.356 294.517 405.336C288.127 408.485 283.206 414.116 280.021 420.407C277.786 424.224 276.731 428.54 275.649 432.785C274.862 432.942 274.051 432.923 273.272 432.729C272.79 430.981 272.407 429.207 272.127 427.415C271.424 416.78 272.127 405.969 275.22 395.727C276.208 393.07 277.014 390.348 277.631 387.581C277.828 387.848 278.032 388.129 278.243 388.403C279.131 384.803 280.847 381.46 283.255 378.64C286.876 374.526 289.911 369.933 292.274 364.989C295.909 358.768 300.007 352.793 303.002 346.221C305.399 340.886 308.732 336.057 311.642 330.996C314.39 326.204 317.864 321.867 321.941 318.14C326.349 313.627 332.162 310.675 338.236 309.121C344.971 307.652 351.966 308.2 358.722 309.311C365.261 310.332 371.896 310.603 378.497 310.119C382.961 309.796 386.996 307.666 390.842 305.536C392.92 304.295 394.684 302.593 396 300.561C397.315 298.53 398.145 296.223 398.427 293.819C398.223 291.394 397.401 289.081 396.88 286.719M391.369 310.176C387.221 312.558 382.624 314.653 377.745 314.646C373.379 314.789 369.009 314.553 364.683 313.943C356.669 312.797 348.683 310.379 340.5 310.942C336.802 310.893 333.561 312.889 330.489 314.702C327.031 316.762 324.373 319.841 321.667 322.758C318.976 325.61 316.787 328.897 315.192 332.479C311.965 339.972 308.921 347.634 307.558 355.675C311.319 353.756 314.32 350.699 318.039 348.702C323.24 345.72 328.643 343.103 334.208 340.872C343.347 337.449 353.351 338.32 362.764 336.036C372.853 334.374 382.15 329.538 389.302 322.231C394.293 316.678 398.441 309.627 398.202 301.93C395.636 304.454 394.61 308.32 391.327 310.14M334.876 350.052C334.173 350.755 332.83 351.345 333.119 352.533C334.996 354.642 337.484 356.048 339.874 357.517C340.001 358.649 340.134 359.794 340.219 360.94C338.039 359.267 335.748 357.018 332.753 357.426C328.633 357.665 325.561 361.538 325.442 365.516C325.09 368.103 326.756 370.268 328.05 372.327C325.688 372.074 324.148 370.219 322.841 368.447C321.273 364.588 319.073 361.017 317.786 357.046C314.623 358.114 311.094 359.359 309.273 362.36C308.57 365.376 309.66 368.44 311.234 370.999C314.489 376.06 318.707 380.98 324.69 382.745C330.707 384.207 337.702 383.672 342.595 379.539C352.24 374.661 354.862 361.053 349.744 352.02C348.338 349.686 346.778 346.601 343.692 346.397C340.366 346.172 337.414 348.161 334.869 350.073M70.3877 296.138L72.103 296.588C74.3877 302.591 79.8781 306.717 85.7692 308.84C90.5215 310.836 95.7659 310.457 100.799 310.429C108.125 310.429 115.232 308.081 122.592 308.271C131.731 308.151 141.032 311.56 147.556 318.069C150.705 321.247 154.016 324.332 156.484 328.107C162.157 336.542 166.276 345.877 171.556 354.544C174.002 358.36 175.598 362.648 178.087 366.437C180.287 369.811 181.96 373.55 184.653 376.587C187.938 380.425 190.567 384.778 192.435 389.472C195.345 399.249 197.714 409.378 197.482 419.648C197.405 424.006 197.946 428.645 196.013 432.715C195.162 432.85 194.298 432.881 193.44 432.806C192.871 428.779 192.168 424.631 190.15 421.046C187.517 415.75 183.725 411.113 179.057 407.48C173.798 403.467 166.783 403.453 160.526 404.317C148.688 405.563 136.808 402.383 127.176 395.39C117.594 388.122 109.523 379.019 102.887 369.031C98.2615 361.566 93.6358 354.031 90.4372 345.835C88.6726 341.216 86.9222 336.605 85.0592 332.022C83.3158 327.172 78.8026 324.22 76.1452 319.946L75.1329 318.632C75.0485 317.746 74.9712 316.867 74.915 315.989C75.618 316.516 76.321 317.05 77.024 317.619C81.3685 323.102 86.4371 328.241 92.8133 331.319C97.5515 333.899 102.803 335.312 108.033 336.493C114.62 337.849 121.39 337.589 127.991 338.981C135.57 340.211 142.325 344.035 149.081 347.416C153.44 349.581 157.313 352.59 161.665 354.776C161.025 348.604 158.853 342.735 156.744 336.964C153.137 327.495 146.663 318.962 137.946 313.676C131.956 309.993 124.589 310.562 117.931 311.729C109.959 313.219 101.945 314.969 93.7904 314.646C88.1021 314.848 82.5267 313.025 78.0574 309.501C75.6109 307.483 73.9589 304.721 72.3701 302.022C72.2998 301.417 72.2366 300.82 72.1733 300.222C71.5758 300.56 70.9782 300.925 70.3877 301.242C70.3877 299.526 70.3877 297.818 70.3877 296.11M124.35 346.249C121.538 347.873 119.97 350.994 118.536 353.806C115.879 358.93 116.321 365.172 118.416 370.408C120.357 374.443 123.077 378.675 127.555 380.179C132.603 384.003 139.57 383.933 145.468 382.52C148.491 381.092 151.244 379.154 153.608 376.791C156.73 374.57 158.48 371.104 159.612 367.541C157.278 364.933 154.037 361.636 150.213 362.676C147.303 364.848 146.635 368.925 143.689 371.111C142.384 371.952 140.911 372.5 139.374 372.718C137.836 372.935 136.27 372.816 134.782 372.37C131.787 371.041 129.102 368.272 128.884 364.855C128.42 361.706 129.06 358.332 131.267 355.942C132.343 354.234 134.684 352.632 134.156 350.396C132.132 347.283 128.054 345.195 124.364 346.284M10.2393 392.185C10.6119 391.264 11.0196 390.357 11.4133 389.45C11.097 392.508 10.858 395.566 10.7103 398.638C10.0073 412.506 9.8597 427.232 16.6999 439.772C19.0338 443.441 21.7966 447.603 26.2958 448.692C28.222 448.552 30.0076 447.729 31.8354 447.153C31.3644 450.442 29.8599 453.901 26.9144 455.658C23.9899 456.361 21.2271 454.667 18.9635 453.008C14.8088 450.07 12.8615 445.156 10.9423 440.651C8.66164 433.883 7.52363 426.782 7.57496 419.641C7.57496 410.461 7.43437 401.027 10.2253 392.185M458.737 390.076C459.341 392.185 459.981 394.343 460.579 396.487C461.626 400.367 461.837 404.401 462.231 408.387C462.892 420.337 462.603 432.863 457.753 444.039C455.805 447.757 453.612 451.588 450.062 453.992C447.953 455.447 445.324 456.403 442.772 455.792C440.058 453.767 438.807 450.365 438.266 447.132C440.572 447.835 443.187 449.592 445.478 447.996C451.609 444.179 454.877 437.284 456.888 430.592C460.593 418.882 459.763 406.405 458.751 394.357C458.751 392.951 458.716 391.496 458.751 390.076M63.4562 457.556C66.481 456.388 69.7177 455.869 72.9561 456.033C76.1945 456.196 79.3624 457.038 82.2543 458.505C85.0663 459.861 86.8378 462.568 89.5654 463.959C93.917 464.55 98.6552 463.531 102.585 466.068C98.5357 467.087 94.0998 466.771 90.402 468.964C86.5707 470.982 83.2033 474.827 83.372 479.388C83.1119 483.233 86.184 486.186 89.0312 488.287C94.6059 491.907 101.024 494.972 107.836 494.614C111.71 494.684 114.866 490.206 113.46 486.586C113.165 485.563 112.509 484.681 111.613 484.104C110.717 483.528 109.643 483.296 108.589 483.451C106.086 483.754 103.576 484.225 101.059 483.88C102.599 481.905 104.434 479.902 107.007 479.388C111.281 478.461 115.921 478.643 119.907 480.576C124.033 482.27 127.098 485.637 130.086 488.822C134.831 493.967 138.121 500.195 141.397 506.324C147.162 516.784 151.83 528.023 159.767 537.112C164.737 543.613 171.461 548.559 179.148 551.367C184.681 553.42 190.67 553.117 196.463 552.92C203.177 552.653 209.989 550.397 214.924 545.709C219.845 541.793 223.528 535.727 223.022 529.246C223.219 525.451 220.857 521.922 217.609 520.108C210.101 515.891 200.737 516.699 193.482 511.849C190.703 510.178 188.443 507.769 186.952 504.89C183.95 499.337 184.568 492.477 187.029 486.846C190.832 479.18 197.383 473.228 205.377 470.173C209.272 468.767 213.462 469.077 217.518 469.105C229.94 469.351 242.362 469.274 254.777 469.105C258.671 469.049 262.706 469.147 266.341 470.736C273.89 474.232 280 480.228 283.635 487.711C285.104 490.825 284.9 494.361 284.858 497.714C284.806 500.057 284.269 502.365 283.282 504.492C282.295 506.619 280.878 508.518 279.121 510.071C273.497 514.591 266.179 515.497 259.437 517.255C255.391 518.223 251.742 520.418 248.991 523.539C246.755 526.041 246.798 529.703 247.184 532.838C247.641 537.435 250.629 541.21 253.708 544.436C256.787 547.663 261.033 549.554 265.146 551.219C270.334 553.328 276.035 552.991 281.519 552.998C289.287 552.998 296.689 549.638 302.686 544.886C310.993 537.148 317.744 527.893 322.574 517.62C328.064 507.618 332.605 496.877 340.282 488.273C344.901 483.353 350.911 478.327 358.131 478.847C362.349 478.664 367.059 480.366 368.873 484.428C365.752 484.232 362.63 483.768 359.495 483.957C357.21 484.042 355.875 486.439 356.177 488.54C355.776 491.914 359.129 494.691 362.321 494.642C370.623 495.035 378.49 490.776 384.508 485.391C387.073 483.395 386.933 479.831 386.427 476.956C385.827 475.094 384.835 473.383 383.516 471.937C382.198 470.492 380.585 469.346 378.785 468.578C375.101 466.87 370.982 466.785 367.031 466.237C370.771 462.968 376.015 465.056 380.388 463.692C383.284 462.287 385.485 459.721 388.395 458.28C392.662 455.862 397.752 456.396 402.455 456.537C406.518 456.537 410.652 459.531 410.891 463.805C408.353 463.657 405.794 462.856 403.263 463.292C399.861 464.55 396.937 468.479 398.279 472.184C399.109 475.747 402.715 477.807 406.118 478.271C409.104 478.499 412.101 478.563 415.095 478.461C423.84 478.749 432.487 475.804 439.749 471.024C444.133 468.226 447.856 464.509 450.66 460.129L452.178 459.967C450.498 464.979 448.283 469.948 444.55 473.793C441.035 477.364 437.675 481.279 433.063 483.43C428.566 485.827 423.752 487.576 418.765 488.625C407.981 490.867 397.154 492.842 386.378 495.127C381.274 496.048 376.585 498.36 372.226 501.102C374.413 504.075 377.203 506.725 378.553 510.239C379.256 511.926 379.727 513.684 380.311 515.413C383.319 513.677 384.831 510.204 385.063 506.858C385.288 504.103 383.854 501.622 382.694 499.239C386.912 498.824 389.548 502.655 391.425 505.853C394.87 511.716 394.94 518.829 394.033 525.38C392.627 531.622 389.112 538.068 383.003 540.788C380.815 541.624 378.468 541.965 376.132 541.788C373.796 541.61 371.529 540.918 369.492 539.762C364.69 537.562 361.21 533.372 358.356 529.057C357.013 527.046 356.472 524.649 356.114 522.294C353.337 521.689 350.436 522.093 347.931 523.433C341.013 526.948 336.064 533.112 330.644 538.483C325.175 544.057 320.943 550.741 315.101 555.964C310.63 560.421 305.92 564.729 300.422 567.914C293.336 571.787 285.744 574.943 277.729 576.187C270.65 577.747 263.402 578.113 256.211 578.844C245.209 579.997 234.13 579.624 223.093 579.463C213.848 578.668 204.548 578.218 195.395 576.609C184.554 574.444 173.461 571.463 164.568 564.596C160.006 560.758 155.338 556.962 151.584 552.288C146.037 546.58 141.39 540.043 135.584 534.574C131.991 531.06 128.708 527.173 124.286 524.734C121.404 522.92 118.079 522.041 114.761 521.472C112.884 525.373 111.597 529.703 108.511 532.887C104.434 537.267 99.3722 541.765 93.0453 541.8C87.2034 542.278 81.7622 538.574 78.8307 533.717C75.0238 526.926 73.9886 518.928 75.9414 511.392C77.0099 507.076 79.2736 502.901 82.9362 500.265C84.2016 499.302 85.8677 499.422 87.358 499.211C85.8606 501.488 84.3422 503.991 84.7569 506.858C84.5179 510.261 86.7605 512.988 89.0171 515.237C90.9574 511.941 91.4143 507.892 94.0365 504.996C95.2853 503.588 96.3746 502.046 97.2843 500.399C93.3265 498.487 89.4741 496.181 85.1225 495.274C79.7657 494.086 74.3104 493.426 68.9536 492.196C57.5299 489.623 45.2907 488.843 35.0762 482.587C29.6955 479.428 25.2189 474.938 22.0778 469.548C20.3484 466.413 18.38 463.278 17.9301 459.651C19.3442 460.804 20.6246 462.113 21.7474 463.552C25.9178 468.458 31.1494 472.352 37.0466 474.938C42.9437 477.525 49.3519 478.736 55.7865 478.482C60.2927 478.369 65.4597 478.953 69.2207 475.923C72.6373 473.301 72.8341 467.165 69.1012 464.74C66.1908 462.694 62.4438 463.721 59.1468 463.678C59.7443 461.19 60.9043 458.561 63.4562 457.563M201.412 475.663C198.6 477.526 195.563 479.374 193.518 482.151C188.526 486.685 186.67 494.199 188.308 500.666C189.117 504.813 192.463 508.032 196.182 509.761C198.502 510.865 200.906 509.522 202.931 508.419C206.19 506.474 209.727 505.038 213.419 504.159C226.776 501.024 240.59 500.687 254.193 499.239C258.643 499.021 263.494 498.072 267.663 500.117C270.889 501.734 271.712 505.446 272.07 508.714C273.673 508.595 275.536 508.953 276.844 507.772C278.43 506.457 279.698 504.798 280.55 502.922C281.402 501.046 281.818 499 281.765 496.94C282.208 490.017 278.819 483.283 273.666 478.798C271.402 477.252 269.195 475.551 266.636 474.503C262.629 472.83 258.2 473.386 253.982 473.681C249.532 473.835 245.546 476.134 241.103 476.492C234.685 477.561 228.112 476.788 221.904 474.988C217.024 473.523 211.9 473.045 206.832 473.582C204.873 473.83 203.005 474.554 201.391 475.691M340.908 508.623C336.175 511.207 331.884 514.529 328.198 518.464C323.511 523.665 319.035 529.038 314.77 534.581C309.217 541.14 304.099 548.485 296.401 552.724C284.056 559.816 268.281 559.176 255.719 552.899C249.089 549.781 243.677 544.56 240.323 538.047C238.615 535.024 238.481 531.446 236.928 528.368C235.718 535.186 236.126 542.152 236.07 549.04C235.887 552.126 237.757 554.804 240.056 556.667C245.736 561.587 253.328 563.127 260.443 564.645C268.443 565.39 276.548 566.051 284.556 565.088C290.882 564.385 296.724 561.271 301.505 557.152C306.445 552.967 310.979 548.323 315.044 543.284C317.301 540.416 319.965 537.92 322.264 535.073C326.489 529.696 331.387 524.884 336.837 520.755C342.461 516.362 349.54 514.07 356.606 513.592C363.291 513.353 369.26 516.826 375.664 517.979C373.74 514.062 370.922 510.653 367.439 508.025C362.897 504.722 357.034 504.665 351.671 504.968C347.797 505.108 344.226 506.83 340.88 508.637M103.337 507.322C98.9364 509.6 96.1525 513.838 93.7061 517.979C98.5708 517.719 102.775 514.921 107.541 514.176C114.009 512.573 120.75 514.176 126.719 516.763C134.796 520.586 141.109 527.173 146.761 533.935C152.666 540.444 157.967 547.508 164.336 553.616C168.541 558.048 173.667 561.503 179.352 563.738C185.714 565.974 192.575 565.425 199.198 565.418C205.961 565.081 212.808 564.427 219.219 562.108C224.132 560.775 228.594 558.14 232.133 554.481C234.516 551.824 233.806 548 233.947 544.746C233.792 539.312 234.467 533.682 232.625 528.466C231.704 531.826 231.058 535.305 229.462 538.44C226.911 543.587 222.949 547.902 218.038 550.882C209.054 556.386 198.474 558.697 188.013 557.44C178.569 556.232 169.884 551.639 163.57 544.514C155.893 535.98 149.306 526.512 141.432 518.147C137.918 514.801 134.508 511.238 130.128 509.052C126.409 507.189 122.613 505.017 118.339 504.947C113.299 504.806 107.836 504.454 103.386 507.266M78.7815 511.976C78.205 516.566 78.3808 521.458 80.5811 525.64C82.7674 530.097 87.126 534.075 92.3634 533.914C96.4337 534.223 100.026 531.875 102.986 529.352C106.803 526.09 109.678 521.381 109.587 516.228C104.427 516.263 99.9698 519.04 95.4284 521.1C91.9978 522.857 87.9556 521.099 85.1787 518.892C82.0855 516.411 81.1365 512.419 80.4968 508.707C79.7446 509.677 78.8869 510.682 78.7815 511.976ZM389.611 508.735C388.571 512.25 388.008 516.383 384.957 518.871C382.335 520.98 378.63 522.744 375.298 521.381C370.588 519.581 366.159 515.947 360.852 516.566C359.404 521.788 363.439 526.287 366.933 529.612C370.623 533.126 376.226 535.235 381.196 533.372C383.899 531.922 386.204 529.83 387.909 527.281C389.614 524.732 390.667 521.803 390.975 518.752C391.284 515.399 391.362 511.723 389.569 508.756M141.208 578.985C142.895 578.535 144.68 577.944 146.431 578.507C150.895 579.554 153.988 583.371 156.111 587.209C162.389 598.392 169.236 609.336 177.524 619.163C182.347 624.674 187.542 630.143 194.185 633.461C198.484 636.035 203.336 637.541 208.337 637.854C213.258 638.001 218.256 638.297 223.043 636.961C226.151 636.075 229.455 635.232 231.88 632.961C232.871 632.259 233.68 631.099 234.91 630.797C237.989 632.905 240.759 635.64 244.499 636.56C252.689 638.768 261.518 638.374 269.659 636.111C279.009 633.201 285.828 625.806 292.345 618.903C300.35 609.247 307.342 598.794 313.21 587.708C315.319 583.961 317.997 579.912 322.349 578.661C324.324 577.958 326.398 578.542 328.352 579.02C320.443 584.123 315.466 592.298 310.974 600.29C306.658 607.446 302.601 614.777 297.814 621.63C291.213 630.867 281.497 637.369 271.234 641.931C264.344 645.122 256.921 647.287 250.678 651.772C244.611 655.436 239.652 660.679 236.33 666.94C235.845 667.679 235.522 668.663 234.615 669C233.209 666.413 232.147 663.63 230.305 661.31C227.177 657.093 222.825 654.14 218.516 651.301C210.08 645.368 199.577 643.568 190.755 638.304C182.567 633.638 175.587 627.119 170.375 619.269C162.951 608.915 157.932 596.979 149.988 586.998C147.549 583.842 144.364 581.375 141.236 579.006L141.208 578.985Z" fill="#84400A"></path><path d="M47.7331 36.33C54.6163 27.0176 63.1928 19.0918 73.0116 12.9692C72.3094 19.5412 70.9612 26.0921 71.2421 32.7414C71.5089 45.4632 73.3486 58.9659 81.1709 69.436C86.5145 76.2965 91.4649 83.4666 97.0051 90.1863C103.325 98.1444 110.157 105.666 116.75 113.343C124.886 122.925 131.344 133.819 135.85 145.562C139.361 154.9 141.755 164.561 144.522 174.151C146.509 182.088 148.285 190.124 148.995 198.286C144.227 198.441 139.431 198.687 134.677 198.187C130.794 197.822 127.529 195.514 124.144 193.754C126.405 197.181 129.643 200.087 133.694 201.079C140.295 202.81 147.738 201.832 153.664 205.744C157.877 208.559 157.997 214.188 160.054 218.41C162.357 223.399 166.921 227.114 171.956 229.126C169.358 225.193 164.885 222.653 163.277 218.058C161.739 213.689 162.252 208.953 162.28 204.415C162.364 198.082 164.864 192.164 167.146 186.366C168.171 183.421 169.746 180.699 171.787 178.345C180.366 168.914 191.487 162.176 203.807 158.946C213.364 155.554 223.566 154.548 233.657 154.843C239.274 154.907 244.891 154.548 250.46 155.484C260.627 157.327 270.823 159.6 280.176 164.209C286.966 168.149 293.468 172.871 298.313 179.126C301.473 182.644 302.779 187.26 304.345 191.601C306.432 197.276 307.361 203.313 307.077 209.354C307.266 213.801 306.375 218.34 303.797 222.02C300.525 225.496 296.705 228.479 294.009 232.483C297.387 230.656 300.544 228.446 303.418 225.897C307.709 222.224 310.068 216.946 311.76 211.683C312.954 207.947 315.826 204.647 319.639 203.514C325.418 201.755 331.73 202.923 337.397 200.664C339.316 199.944 341.073 198.851 342.569 197.448C344.064 196.045 345.268 194.359 346.111 192.488C342.93 194.514 340.065 197.413 336.182 197.976C331.197 198.722 326.141 198.398 321.127 198.3C321.352 186.029 325.621 174.376 328.795 162.64C333.626 146.069 339.742 129.259 351.265 116.094C359.396 106.419 367.907 97.0467 375.525 86.9495C380.181 80.6168 385.272 74.5726 389.688 68.0428C394.105 61.5131 396.408 53.555 397.518 45.7024C399.006 34.9227 398.22 24.0234 397.195 13.2507C401.773 15.3616 405.375 18.9853 409.132 22.2432C418.26 30.3913 425.106 40.601 432.016 50.5927C437.556 60.0918 441.945 70.2171 446.762 80.0961C451.677 91.868 455.146 104.238 457.996 116.685C461.999 140.144 462.989 164.342 458.699 187.844C457.035 198.103 455.012 208.355 451.621 218.206C447.829 230.168 443.054 241.764 439.487 253.782C438.592 256.93 437.417 259.991 435.976 262.929C433.322 267.277 431.201 271.985 427.922 275.918C424.635 279.823 421.03 283.447 417.144 286.754L419.145 286.853C418.52 287.387 417.909 287.929 417.298 288.471C415.197 287.643 413.005 287.069 410.768 286.761C405.965 285.994 401.267 284.587 396.394 284.214C401.085 287.338 406.52 288.999 411.456 291.658C419.047 296.07 426.588 300.679 433.792 305.752C435.576 307.082 437.57 308.25 438.953 310.037C439.873 311.205 438.483 312.409 437.921 313.38C433.642 318.538 430.528 324.563 428.793 331.041C427.711 335.361 425.886 339.449 424.875 343.791C423.414 350.011 422.557 356.414 422.979 362.747C423.505 370.241 424.425 377.727 424.306 385.263C424.186 392.229 424.818 399.336 423.07 406.154C421.588 411.868 419.742 417.659 416.048 422.38C412.867 426.862 408.64 430.401 404.448 433.884C406.744 429.086 406.119 422.823 401.927 419.27C399.336 416.899 395.544 417.419 392.314 417.243C397.981 411.037 403.29 403.691 404.097 395.058C404.891 389.935 404.392 384.764 404.097 379.634C403.929 370.74 402.988 361.881 403.023 352.987C403.072 349.054 404.603 344.839 407.938 342.581C411.098 340.589 415.227 343.214 418.337 341.413C419.039 336.417 416.161 329.796 410.508 329.451C406.007 329.451 401.85 332.716 400.13 336.79C397.321 343.425 397.012 350.736 396.619 357.835C395.973 365.772 395.601 373.745 394.512 381.639C393.213 390.829 389.443 400.032 382.575 406.45C374.591 413.31 363.813 415.294 353.652 416.216C348.92 416.561 343.983 417.258 340.009 420.065C337.941 421.451 336.209 423.283 334.941 425.427C333.672 427.571 332.899 429.973 332.678 432.456C332.222 436.678 334.525 440.9 337.888 443.362C339.574 444.713 341.659 443.327 343.429 442.891C342.368 440.175 341.006 437.508 340.62 434.595C340.725 430.817 343.007 426.581 346.982 425.821C350.359 425.159 354.312 425.307 357.002 427.742C357.599 428.368 358.624 429.093 358.273 430.106C357.353 431.963 355.843 433.455 354.987 435.348C354.397 436.678 355.029 438.697 356.651 438.866C359.459 439.091 362.205 438.163 364.866 437.353C370.503 435.536 375.95 433.173 381.129 430.296C384.464 428.382 388.214 426.665 392.153 427.151C394.512 427.39 397.131 428.558 397.939 430.978C398.529 433.089 398.29 435.264 398.283 437.41C399.814 436.706 401.359 436.002 402.868 435.242C400.726 437.152 398.37 438.805 395.846 440.168C385.489 445.269 374.24 448.147 362.963 450.357C354.923 451.89 347.27 454.846 339.693 457.836C335.485 459.573 331.543 461.894 327.981 464.732C327.889 461.164 327.875 457.548 327.04 454.058C326.351 451.781 325.198 449.671 323.655 447.863C322.112 446.055 320.211 444.587 318.073 443.552C313.474 441.237 308.523 439.739 303.643 438.148C301.312 437.346 298.833 437.445 296.411 437.536C293.468 437.536 290.632 436.425 287.682 436.622C282.514 436.847 277.269 437.536 272.494 439.626C270.268 440.442 267.979 441.702 265.543 441.273C263.085 439.225 262.095 435.89 259.469 433.997C254.82 430.549 249.259 428.72 244.231 425.933C241.76 424.625 239.365 423.119 236.676 422.267C233.987 421.416 231.171 422.858 228.734 424.026C225.048 425.976 221.291 427.791 217.556 429.656C213.722 431.703 209.614 433.835 207.241 437.642C206.096 439.148 205.085 441.582 202.775 441.16C199.467 440.492 196.567 438.571 193.281 437.79C189.047 436.672 184.684 436.121 180.305 436.15C177.967 436.15 175.881 437.494 173.571 437.557C170.966 437.374 168.284 437.213 165.805 438.191C161.353 439.781 156.873 441.294 152.463 443.074C150.169 444.029 148.104 445.465 146.409 447.286C144.713 449.106 143.426 451.269 142.633 453.628C141.706 457.006 141.832 460.559 141.566 464.035C135.822 460.362 129.551 457.653 123.309 455.008C116.533 452.193 109.209 451.342 102.243 449.301C91.3034 446.268 79.3383 444.805 70.0484 437.754L71.6213 436.607C71.9162 433.891 71.0595 430.085 73.9525 428.523C77.2879 426.982 81.2552 427.383 84.6889 428.41C91.2262 430.901 97.0753 434.905 103.592 437.452C107.433 438.993 111.603 439.239 115.697 439.141C115.543 437.135 115.409 435.003 114.033 433.406C113.169 431.83 110.845 430.071 112.264 428.164C115.774 423.731 123.302 424.012 126.799 428.368C129.39 431.063 129.46 435.179 128.049 438.479C127.74 439.886 126.237 442.321 128.259 443.102C130.794 444.122 133.582 442.398 134.895 440.245C137.451 436.242 137.086 431.056 135.492 426.771C133.49 421.704 128.47 418.327 123.316 417.18C117.818 416.04 112.158 416.089 106.674 414.907C99.0766 413.289 91.2262 410.559 85.8755 404.662C78.8537 397.436 75.5465 387.388 74.8864 377.502C74.4932 370.677 73.7559 363.887 73.3978 357.097C73.206 351.656 72.5529 346.242 71.4457 340.913C70.9685 338.628 69.9841 336.48 68.5655 334.629C67.147 332.778 65.3306 331.27 63.2513 330.218C59.2839 328.367 54.0316 330.302 52.4517 334.44C51.2018 336.916 51.5951 339.731 52.2832 342.306C55.7941 342.074 60.3723 340.582 62.9774 343.861C66.6779 347.478 67.352 352.896 66.8394 357.814C66.06 365.125 66.3198 372.499 65.6598 379.817C65.2665 387.444 65.0559 395.332 67.5978 402.65C69.5288 408.237 73.9174 412.438 77.0983 417.279C73.7629 417.321 69.8729 417.082 67.3942 419.769C63.3917 423.914 64.0728 430.859 67.036 435.411C63.476 432.716 59.9229 429.958 56.9457 426.602C51.3642 420.315 47.6308 412.602 46.1602 404.318C44.7909 397.809 45.2895 391.124 45.2544 384.524C45.1771 375.567 47.4592 366.758 47.1643 357.786C46.7219 346.303 42.7125 335.411 39.5456 324.49C39.2858 324.624 39.0401 324.772 38.7873 324.919C37.0037 319.614 34.5742 314.449 30.4805 310.53C34.0756 306.885 38.3519 304.071 42.7265 301.474C48.1193 298.814 52.9643 295.226 58.1745 292.278C62.3384 289.597 67.036 287.824 70.9753 284.784C67.0884 285.116 63.2362 285.775 59.4595 286.754C57.1563 287.169 54.3827 287.943 52.4377 286.149C46.5358 281.276 41.3889 275.552 37.1652 269.163C35.4259 266.513 33.978 263.682 32.8468 260.72C30.0381 253.465 27.5454 246.091 25.2843 238.646C20.0812 223.722 14.3584 208.826 11.9429 193.128C10.6228 183.791 8.67072 174.496 8.69881 165.032C8.69881 153.774 8.28453 142.459 9.74506 131.258C11.3372 120.549 13.6217 109.956 16.5843 99.5446C18.6487 92.3605 21.3662 85.3875 23.7465 78.3089C26.1199 71.3499 30.4945 65.3338 33.3103 58.6071C34.7514 55.2902 36.5983 52.1656 38.8083 49.305C41.912 45.0832 44.6645 40.6151 47.7331 36.3651M399.526 19.9141C400.32 24.1418 400.673 28.4406 400.579 32.7414C401.359 45.6672 401.148 59.0293 396.464 71.2725C393.761 79.5473 390.475 87.7447 385.398 94.8795C382.94 99.4321 379.633 103.45 377.19 108.009C374.739 111.992 371.839 115.749 370.168 120.154C368.812 123.215 366.825 125.945 365.526 129.027C360.794 139.969 356.679 151.424 355.541 163.371C348.253 164.075 340.093 164.279 334.356 169.5C331.667 172.413 328.985 175.833 328.648 179.921C330.642 177.613 331.393 174.426 333.753 172.42C336.561 169.796 340.311 168.417 344.075 167.889C351.349 166.953 359.41 167.22 365.463 171.914C364.115 173.743 361.847 175.235 361.805 177.733C361.44 185.325 362.437 193.044 360.871 200.552C359.375 205.217 356.222 209.185 352.662 212.478C349.102 215.771 344.18 216.7 339.714 218.171C341.616 219.154 343.646 219.865 345.746 220.282C345.486 220.507 345.233 220.739 344.987 220.985C352.817 222.772 358.757 228.507 364.824 233.39C369.318 236.627 373.686 240.033 378.032 243.459C378.943 244.17 379.682 245.076 380.195 246.112C382.491 250.899 384.298 255.906 385.588 261.057C386.866 266.18 386.36 271.513 386.29 276.741C388.162 276.624 390.035 276.551 391.907 276.523C392.083 272.892 392.722 269.283 392.42 265.645C392.197 263.233 392.179 260.806 392.364 258.391C400.621 256.146 408.437 251.713 414.131 245.282C418.246 241.503 421.02 236.592 424.313 232.131C426.981 227.311 430.295 222.815 432.226 217.608C433.605 215.159 434.793 212.606 435.78 209.973C437.886 203.816 440.611 197.793 441.299 191.25C443.315 184.321 444.493 177.175 444.81 169.965C446.284 149.383 444.213 128.76 441.601 108.361C439.789 99.9176 438.792 91.3262 436.896 82.9036C436.671 83.2343 436.461 83.5651 436.257 83.9028C436.067 80.5465 434.895 77.3871 433.954 74.1997C433.013 70.1749 430.745 66.6496 429.649 62.6741C425.478 53.5723 420.727 44.7491 415.423 36.2596C412.682 32.3055 409.548 28.6396 406.07 25.3181C403.964 23.3901 402.145 21.0962 399.533 19.8508M53.8069 37.5191C51.3985 42.2405 47.9578 46.3357 45.6897 51.1345C44.2854 53.949 42.9723 56.8691 41.4766 59.6555C39.5807 63.0048 38.8996 66.8467 37.4672 70.386C34.7834 77.2458 32.6857 84.3217 31.1967 91.5373C30.7026 93.8903 30.4555 96.2887 30.4594 98.6932L29.687 97.6659C28.7671 105.744 27.4751 113.765 26.4078 121.822C25.811 127.767 25.3897 133.734 24.9543 139.694C24.7156 147.899 24.849 156.11 24.8209 164.321C24.7821 170.767 25.3368 177.202 26.478 183.545C28.0439 188.913 28.3458 194.585 30.4734 199.792C32.0928 205.723 34.3238 211.47 37.1301 216.939C40.5287 225.263 45.4861 232.799 50.5909 240.159C52.0655 242.186 53.9544 243.846 55.6677 245.655C61.2852 252.227 69.3532 256.083 77.4353 258.595C76.815 264.566 76.855 270.588 77.5547 276.551C79.4272 276.551 81.2997 276.619 83.1722 276.755C83.0528 271.886 82.8632 266.975 83.6707 262.155C84.3097 257.23 86.5988 252.811 88.4666 248.307C91.0506 242.235 97.1596 238.949 102.236 235.227C108.043 230.738 113.745 226.08 120.044 222.28C122.895 220.612 126.363 220.169 128.898 217.917C124.531 216.707 119.861 215.666 116.399 212.549C112.327 208.862 108.458 204.302 107.749 198.645C107.046 191.665 107.896 184.635 107.383 177.662C107.383 175.333 105.53 173.863 103.999 172.427C107.011 170.133 110.733 169.008 114.314 167.931C120.023 167.05 125.855 167.425 131.405 169.029C134.34 171.323 136.966 173.954 139.747 176.452C138.806 171.104 134.2 166.904 128.989 165.799C124.348 163.688 119.103 164.153 114.138 163.927C113.57 158.266 112.489 152.667 110.908 147.202C109.048 142.502 108.163 137.414 105.494 133.059C100.579 122.167 95.0671 111.549 88.3191 101.698C83.7091 94.8738 79.6313 87.7036 76.1223 80.2509C71.3334 68.3384 68.4474 55.4829 69.0443 42.5923C68.7704 35.2323 69.599 27.8934 69.5639 20.5404C62.8721 24.6426 58.1043 31.0949 53.814 37.5191M226.277 160.458C223.812 163.273 222.506 167.643 224.044 171.238C225.252 173.94 229.135 174.623 229.9 177.444C226.073 180.758 221.228 182.679 217.408 186.029C214.908 187.83 212.718 190.82 209.368 190.813C207.002 188.21 206.166 184.22 202.803 182.574C196.919 179.464 188.984 182.672 186.512 188.731C185.648 192.312 185.543 196.942 188.843 199.355C189.275 199.753 189.785 200.056 190.341 200.245C190.896 200.434 191.485 200.505 192.07 200.452C192.654 200.4 193.221 200.226 193.734 199.941C194.248 199.657 194.696 199.268 195.051 198.8C196.097 196.865 196.518 194.662 197.108 192.558C197.986 194.029 199.074 195.556 198.878 197.378C199.081 201.811 195.584 204.949 193.562 208.517C189.061 216.658 188.001 226.333 189.426 235.445C190.2 238.943 191.581 242.277 193.506 245.296C197.129 251.256 204.109 255.245 211.152 254.584C212.233 254.373 213.048 253.535 213.96 252.98C210.716 250.636 206.651 249.159 204.432 245.641C200.219 239.491 200.261 231.427 202.241 224.489C203.723 218.994 206.974 213.646 212.345 211.268C216.601 209.502 221.663 207.82 226.108 209.861C229.289 211.268 231.515 215.405 229.619 218.628C227.14 220.127 223.903 220.683 222.316 223.371C219.508 226.818 220.631 231.42 220.765 235.466C217.254 232.229 217.38 227.1 217.745 222.73C218.005 219.768 220.708 217.995 222.106 215.588C221.628 213.477 218.595 214.681 217.464 215.694C211.756 221.119 207.732 228.979 208.82 237.028C209.684 241.398 211.749 246.084 215.997 248.096C218.805 249.405 221.762 250.468 224.598 251.783C223.995 253.346 223.005 254.729 221.72 255.801C216.748 259.763 211.727 263.668 206.433 267.193C198.161 272.266 189.609 276.866 180.817 280.97C175.983 283.604 170.739 285.398 165.306 286.276C161.652 286.602 157.977 286.632 154.317 286.367C150.806 286.086 148.04 283.609 145.435 281.442C142.071 278.5 138.455 275.362 137.1 270.936C135.899 267.657 136.159 263.717 138.392 260.938C140.316 258.426 143.939 258.327 146.72 259.15C148.995 260.691 151.389 264.287 149.191 266.813C147.499 267.883 145.069 266.982 143.412 268.115C142.457 269.754 143.869 271.633 145.098 272.66C148.714 276.017 154.331 275.89 158.657 274.145C164.274 270.908 165.924 263.253 163.691 257.462C161.711 252.987 158.011 249.56 154.261 246.548C151.024 243.889 146.923 242.629 142.837 242.073C134.822 240.546 126.554 241.044 118.78 243.523C111.962 246.379 106.33 251.6 101.977 257.504C99.87 260.241 98.8308 263.604 98.1076 266.94C96.3381 273.448 100.439 280.435 106.204 283.412C111.351 286.226 117.396 285.776 122.972 287.014C129.334 288.422 134.909 291.94 140.863 294.389C145.986 296.521 151.269 298.243 156.662 299.539C167.315 302.03 178.641 299.166 187.846 293.558C191.673 291.25 195.823 289.526 199.552 287.036C204.39 283.764 210.407 283.215 215.505 280.492C220.982 277.628 226.656 274.391 230.09 269.058C231.705 266.391 233.095 263.597 234.478 260.811L235.988 260.931C237.817 266.173 240.825 270.923 244.779 274.813C247.082 277.142 250.13 278.486 253.079 279.788C258.212 281.941 263.352 284.087 268.576 286.022C277.262 289.329 284.445 295.754 293.398 298.434C299.016 300.426 305.019 299.94 310.826 299.785C317.757 299.377 323.585 295.345 330.038 293.312C334.251 291.792 338.064 289.203 342.417 287.978C348.035 286.107 354.095 286.381 359.846 285.051C364.094 284.186 367.226 280.829 369.676 277.459C372.85 273.068 371.93 267.13 370.083 262.394C365.709 253.247 357.704 245.577 347.894 242.636C341.078 241.007 334.006 240.748 327.089 241.876C322.145 242.981 316.788 244.318 313.017 248.054C309.871 251.066 306.641 254.387 305.567 258.756C304.022 263.928 305.167 270.479 309.85 273.673C312.329 275.559 315.629 275.426 318.571 275.207C321.205 275.032 323.416 273.294 325.067 271.359C325.769 270.479 326.527 269.297 325.972 268.143C324.091 267.545 322.082 267.489 320.222 266.848C318.873 265.884 318.866 263.794 319.625 262.451C321.731 257.912 329.518 257.891 331.47 262.584C333.359 266.398 332.748 271.161 330.417 274.652C327.938 278.213 324.818 281.282 321.219 283.7C315.91 287.106 309.211 286.67 303.313 285.354C296.34 283.727 289.618 281.163 283.329 277.733C272.396 272.203 261.772 265.976 252.131 258.376C249.905 256.434 247.216 254.753 246.169 251.826C250.383 249.799 255.115 248.237 258.191 244.487C261.196 241.025 261 236.127 260.915 231.821C260.915 225.981 257.159 221.07 253.486 216.897C252.082 215.11 249.814 214.491 247.63 214.343C248.704 217.784 251.794 220.345 252.082 224.06C252.356 227.1 252.18 230.519 249.975 232.856C249.449 229.563 249.701 225.819 247.265 223.181C245.446 220.514 242.09 219.937 239.611 218.15C239.042 215.821 239.225 212.915 241.282 211.352C244.021 209.305 247.679 208.84 250.993 209.389C255.909 210.142 260.782 212.387 263.794 216.426C267.481 221.443 269.159 227.775 269.089 233.96C268.885 240.11 266.54 246.773 261.021 250.059C258.703 251.516 255.263 251.312 253.9 254.042C257.98 254.908 262.425 255.555 266.434 254.042C273.196 250.721 277.943 244.1 280.078 236.986C282.246 227.759 281.097 218.062 276.834 209.6C274.727 205.245 270.303 201.79 270.423 196.59C270.128 194.134 272.108 192.467 273.66 190.919C274.46 194.113 273.814 198.659 277.283 200.39C282.479 200.334 284.888 194.106 283.427 189.709C281.735 182.954 273.33 179.246 267.158 182.32C263.78 183.96 262.102 187.52 260.347 190.63C255.431 189.181 251.675 185.585 247.567 182.721C245.299 181.047 242.771 179.654 240.868 177.543C242.216 175.214 244.337 173.321 245.186 170.724C246.872 166.657 244.667 161.866 241.367 159.319C236.809 156.455 230.49 157.208 226.284 160.395M323.185 216.686C321.345 218.593 319.035 219.979 317.16 221.851C319.716 221.232 322.377 220.443 324.266 218.473C326.373 216.362 327.075 213.407 327.601 210.607C325.958 212.506 324.687 214.681 323.185 216.686ZM163.277 235.403C166.121 237.788 169.709 239.209 172.139 242.101C175.158 245.092 176.45 249.307 179.308 252.424C179.081 249.224 178.12 246.12 176.499 243.354C175.123 241.04 173.196 239.103 170.892 237.715C168.587 236.328 165.976 235.534 163.291 235.403M291.299 250.967C294.339 248.244 295.842 244.283 298.742 241.433C301.059 238.914 304.268 237.584 307.105 235.804C298.679 234.643 291.439 242.967 291.299 250.995M227.506 288.992C222.527 293.375 216.109 295.613 209.761 297.119C201.061 299.265 192.333 302.248 185.185 307.786C178.283 313.373 172.721 321.155 171.408 330.119C170.292 335.467 171.703 340.983 173.838 345.888C176.127 351.221 181.211 354.824 186.596 356.541C190.697 357.793 195.591 357.948 199.081 355.133C194.735 353.184 188.963 351.615 187.544 346.429C185.663 338.57 187.383 330.077 191.477 323.21C194.759 317.897 199.521 313.663 205.176 311.03C210.983 308.025 217.45 306.639 223.398 303.993C227.442 302.164 230.539 298.786 232.814 295.043C233.154 294.391 233.625 293.816 234.198 293.356C234.771 292.895 235.433 292.56 236.142 292.369C238.607 296.035 240.685 300.292 244.569 302.649C252.77 307.631 262.98 308.468 270.549 314.653C274.91 318.305 279.081 322.618 280.963 328.121C283.385 334.58 284.473 342.039 281.889 348.604C279.783 352.65 274.685 353.297 270.949 355.204C272.251 356.485 273.973 357.25 275.794 357.357C287.732 358.982 298.622 347.731 298.615 336.086C298.862 332.07 298.299 328.045 296.96 324.251C295.621 320.458 293.533 316.973 290.821 314.006C287.577 310.431 284.179 306.857 279.909 304.514C273.906 300.996 267.151 299.061 260.501 297.168C256.091 296.007 251.646 294.747 247.651 292.496C242.546 289.435 238.719 284.756 235.012 280.203C232.491 283.144 230.518 286.592 227.506 289.076M396.731 287.458C397.251 289.822 398.072 292.137 398.276 294.564C397.994 296.97 397.164 299.277 395.85 301.31C394.536 303.342 392.774 305.045 390.699 306.287C386.859 308.398 382.828 310.551 378.369 310.875C371.768 311.33 365.136 311.028 358.603 309.974C351.855 308.862 344.868 308.314 338.141 309.784C332.074 311.339 326.267 314.294 321.865 318.812C317.791 322.539 314.319 326.875 311.571 331.667C308.664 336.733 305.335 341.567 302.941 346.908C299.943 353.487 295.856 359.468 292.226 365.695C289.865 370.644 286.833 375.242 283.217 379.36C280.812 382.183 279.098 385.529 278.21 389.133C277.999 388.859 277.796 388.577 277.599 388.31C276.985 391.099 276.18 393.843 275.191 396.521C272.108 406.773 271.427 417.595 272.101 428.241C272.381 430.035 272.763 431.811 273.246 433.561C274.023 433.755 274.833 433.774 275.619 433.617C276.7 429.395 277.726 425.047 279.987 421.226C279.681 422.345 279.432 423.48 279.242 424.625C281.51 423.358 283.708 421.944 286.089 420.888C293.447 417.736 301.726 417.37 309.52 418.904C316.275 420.311 323.15 419.052 329.884 418.292C340.901 416.885 351.876 413.254 360.78 406.464C368.251 401.419 374.964 395.128 379.872 387.522C383.832 382.371 385.714 376.053 387.371 369.868C388.972 363.07 390.124 356.175 391.416 349.314C392.708 342.454 395.376 335.664 396.008 328.564C396.289 324.955 396.584 321.345 397.033 317.749C396.388 318.172 395.767 318.63 395.172 319.121C397.279 314.421 399.905 309.686 399.856 304.408C399.856 300.285 400.137 296.12 399.498 292.031C399.266 290.146 398.037 288.668 396.689 287.43M69.9782 296.605C69.3178 303.498 70.5615 310.44 73.5733 316.673C72.6745 320.282 73.6716 323.948 73.8191 327.586C73.9876 333.356 76.3048 338.739 77.2949 344.375C80.6443 358.025 81.0656 372.788 88.4736 385.122C91.9845 391.638 97.5599 396.599 102.735 401.756C108.675 406.97 115.732 410.798 122.986 413.852C131.18 417.37 140.119 418.313 148.882 419.326C153.868 419.861 158.881 419.284 163.811 418.51C169.829 417.575 175.979 417.996 181.815 419.741C184.911 420.698 187.579 422.605 190.437 424.083C190.381 423.52 190.283 422.401 190.227 421.838C192.249 425.455 192.965 429.578 193.492 433.638C194.349 433.713 195.212 433.682 196.062 433.547C197.993 429.473 197.466 424.829 197.529 420.466C197.761 410.186 195.423 400.061 192.488 390.259C190.622 385.561 187.996 381.203 184.715 377.361C182.025 374.322 180.354 370.578 178.156 367.201C175.671 363.408 174.077 359.116 171.633 355.295C166.36 346.619 162.245 337.275 156.578 328.832C154.114 325.053 150.806 321.964 147.66 318.784C141.144 312.268 131.868 308.855 122.726 308.975C115.395 308.785 108.296 311.121 100.958 311.135C95.9308 311.135 90.6925 311.543 85.9458 309.545C80.0615 307.434 74.5775 303.29 72.2954 297.28C72.066 295.7 71.757 294.135 71.3685 292.587C70.6289 293.82 70.1509 295.193 69.9641 296.619M327.138 298.969C321.626 300.046 315.903 301.439 311.339 304.823C308.621 306.991 306.08 309.918 305.721 313.513C305.356 315.793 306.978 317.609 308.158 319.361C312.371 316.849 315.44 312.859 319.569 310.213C323.395 307.082 328.563 307.131 333.233 306.78C335.269 306.611 337.811 306.189 338.731 304.085C338.884 303.231 338.763 302.35 338.384 301.57C338.005 300.79 337.389 300.15 336.624 299.743C333.731 298.16 330.305 298.336 327.152 298.976M138.427 298.934C136.32 299.047 133.982 299.173 132.402 300.7C131.082 302.009 130.696 304.697 132.402 305.837C135.997 306.766 139.796 306.477 143.398 307.42C148.896 308.56 153.524 312.134 157.224 316.215C158.362 317.397 159.401 318.755 160.854 319.572C162.666 320.099 163.993 318.27 164.4 316.757C165.103 313.295 164.436 309.263 161.753 306.78C158.818 304.113 155.005 302.748 151.284 301.594C147.071 300.334 142.858 298.779 138.406 298.955M227.681 314.9C227.639 320.944 230.539 326.495 230.834 332.49C231.115 337.127 231.712 342.855 227.59 346.057C228.166 347.731 229.191 349.385 229.106 351.2C228.13 352.724 226.85 354.03 225.347 355.036C223.844 356.042 222.15 356.727 220.371 357.047C218.321 357.568 215.351 357.969 215.147 360.636C214.045 364.97 218.461 367.243 220.828 370.008C223.7 372.893 223.636 377.242 223.707 381.034C223.601 384.623 224.24 388.563 222.12 391.73C221.993 387.993 222.078 384.18 220.989 380.57C219.669 375.736 216.615 371.197 212.114 368.847C208.28 366.849 203.203 368.7 201.033 372.302C200.163 374.413 199.629 377.671 201.869 379.177C203.975 379.718 206.18 379.043 208.329 379.177C210.646 379.043 212.654 381.069 212.991 383.279C213.364 385.861 213.462 389.07 211.152 390.815C209.249 392.771 205.682 393.925 205.92 397.19C205.748 398.287 205.859 399.41 206.242 400.452C206.626 401.494 207.269 402.42 208.111 403.143C210.864 406.013 215.316 405.999 218.841 404.796C222.612 403.214 225.763 400.439 227.814 396.894C231.012 391.222 233.093 384.988 233.945 378.529C234.26 375.201 234.282 371.838 235.075 368.58C236.149 373.329 235.918 378.276 237.182 382.997C238.944 390.111 241.395 397.774 247.511 402.34C251.401 405.788 257.868 406.689 261.969 403.121C264.602 401.208 264.63 397.436 263.654 394.636C262.207 392.342 259.167 391.645 257.699 389.358C256.133 386.051 256.871 381.435 260.122 379.423C262.411 378.797 264.805 379.726 267.144 379.507C267.813 379.393 268.428 379.066 268.897 378.574C269.366 378.082 269.665 377.452 269.749 376.777C270.142 373.259 268.007 369.347 264.503 368.334C262.207 367.813 259.588 367.799 257.559 369.108C254.146 371.346 251.457 374.532 249.821 378.276C248.332 381.372 248.122 384.862 247.391 388.183C246.029 385.066 246.099 381.597 246.471 378.29C246.78 374.702 247.876 370.93 250.684 368.524C252.3 366.751 255.228 365.554 255.115 362.768C255.277 360.981 254.968 358.729 253.009 358.138C249.315 356.731 244.8 356.266 242.518 352.579C240.728 350.56 242.314 347.985 243.003 345.867C241.528 344.248 239.393 342.707 239.583 340.237C239.492 335.396 239.295 330.478 240.461 325.743C241.437 321.021 243.768 316.187 242.336 311.311C240.931 307.3 238.165 303.916 235.194 300.939C232.049 305.098 227.337 309.165 227.744 314.871M217.808 320.008C215.526 321.275 215.477 324.469 216.25 326.657C217.921 328.67 220.94 328.93 222.646 330.879C223.861 333.841 222.927 337.782 225.961 339.794C227.359 336.2 227.8 332.303 227.239 328.487C226.733 325.018 226.354 321.352 224.465 318.312C222.132 318.22 219.821 318.801 217.808 319.987M243.508 324.075C242.694 329.177 242.875 334.389 244.042 339.421C244.465 339.466 244.894 339.412 245.292 339.261C245.691 339.111 246.049 338.869 246.338 338.556C246.71 335.798 246.57 332.87 247.707 330.288C249.603 329.064 252.026 328.691 253.662 327.079C254.94 324.926 254.87 321.324 252.377 320.043C250.586 318.981 248.557 318.038 246.436 318.129C244.414 319.318 244.007 321.957 243.508 324.068M234.689 388.359C232.266 393.869 230.581 400.004 226.122 404.318C221.663 408.631 214.635 409.693 209.003 407.259C207.795 406.991 206.075 405.852 205.204 407.259C203.217 409.56 202.789 412.803 203.386 415.702C204.397 420.748 204.79 425.891 205.829 430.936C212.402 429.529 218.103 425.729 223.889 422.493C227.021 420.705 229.928 418.433 233.39 417.307C235.742 416.519 238.003 417.968 240.004 419.052C245.018 422.049 249.954 425.194 255.235 427.728C257.903 428.966 260.543 430.908 263.619 430.669C264.939 429.522 264.925 427.622 265.234 426.032C265.781 421.17 266.961 416.293 266.385 411.368C266.259 409.412 264.981 407.892 263.85 406.386C260.15 407.561 256.288 409.025 252.356 408.159C246.738 407.378 242.23 403.171 239.716 398.309C237.926 395.149 237.308 391.497 235.616 388.303L234.724 388.345M89.5269 210.473C93.5785 209.34 97.4686 207.56 101.647 206.955C103.648 206.87 104.568 209.066 105.305 210.571C106.847 214.382 108.744 218.038 110.972 221.492C106.232 226.46 100.706 230.597 95.018 234.404C91.5071 236.704 88.6983 240.771 84.1341 240.701C79.7947 240.743 75.2164 241.067 71.1929 239.125C67.4082 237.626 64.5433 234.608 62.1208 231.441C61.2501 230.358 61.2852 228.894 61.0183 227.606C62.8089 228.922 64.4309 230.632 66.5726 231.35C70.0835 231.772 74.121 232.053 77.1545 229.823C79.9005 228.036 82.7545 226.422 85.7 224.989C88.2568 223.717 90.5904 222.036 92.6095 220.014C88.0172 221.126 83.2845 222.639 78.5658 221.421C76.8104 220.45 74.9426 219.311 73.9947 217.488C73.6553 216.263 73.4204 215.01 73.2925 213.745C78.9942 214.652 84.1833 211.915 89.5409 210.522M363.237 212.45C364.052 210.712 364.55 208.721 365.912 207.321C368.019 206.413 370.399 207.504 372.52 208.024C376.993 209.815 381.659 211.081 386.423 211.796C386.17 212.112 385.918 212.436 385.672 212.76C389.15 213.576 392.719 213.935 396.289 213.829C395.896 216.475 395.095 219.458 392.581 220.866C388.783 223.019 384.338 222.055 380.258 221.569C382.245 225.087 386.514 225.51 389.386 227.944C392.743 230.695 397.11 232.616 401.52 232.166C403.816 231.364 405.867 229.985 408.064 228.95C407.741 230.224 407.875 231.8 406.765 232.729C403.957 235.269 401.239 238.14 397.637 239.484C393.761 241.144 389.45 240.891 385.335 240.828C382.098 240.828 379.675 238.386 377.197 236.641C371.839 232.419 366.257 228.444 361.089 223.976C360.253 223.281 359.57 222.421 359.08 221.45C360.183 218.354 362.072 215.616 363.251 212.556M9.55547 349.061C13.6703 345.078 19.8986 345.782 25.1579 345.705C29.8696 345.508 33.7948 348.674 36.5052 352.227C37.72 353.867 37.9517 355.978 38.0851 357.962C38.2023 362.949 37.9676 367.939 37.3829 372.893C34.7006 370.431 34.0476 366.694 32.1657 363.704C29.7697 359.614 26.5855 356.043 22.7986 353.198C18.8524 350.715 14.2811 349.026 9.57654 349.061M432.142 356.534C432.142 351.524 436.58 347.809 440.99 346.331C447.113 345.015 453.496 345.726 459.555 347.091L459.64 348.498C450.834 349.462 443.272 355.323 438.434 362.515C435.99 365.906 434.881 369.987 432.851 373.611C431.896 367.982 432.058 362.205 432.149 356.499M339.77 358.286C342.683 356.292 345.982 354.935 349.453 354.303C351.026 358.124 352.002 362.296 351.146 366.427C350.373 372.056 346.567 376.622 342.495 380.324C337.579 384.461 330.621 384.996 324.61 383.532C318.635 381.745 314.422 376.82 311.163 371.746C312.217 368.066 316.149 366.117 319.758 366.568C320.994 367.116 321.865 368.207 322.756 369.192C324.062 370.972 325.565 372.823 327.96 373.076C331.126 373.702 335.094 374.666 337.516 371.831C340.472 369.34 340.22 365.21 340.114 361.712C340.03 360.566 339.897 359.419 339.77 358.286ZM118.78 369.488C117.214 365.554 117.628 361.227 118.976 357.301C121.912 358.387 124.734 359.759 127.403 361.396C127.704 363.83 127.697 366.406 128.807 368.664C130.794 372.309 134.965 374.934 139.185 374.336C142.759 374.012 145.35 371.127 148.707 370.226C151.438 370.226 153.489 372.225 155.476 373.829C154.921 375.089 154.345 376.348 153.706 377.579C151.345 379.945 148.594 381.885 145.575 383.314C139.684 384.721 132.725 384.799 127.683 380.971C123.899 377.896 120.36 374.202 118.773 369.488M227.765 442.757C230.672 440.949 232.856 438.24 235.405 435.995C237.828 439.246 240.559 442.448 244.274 444.256C250.067 447.071 256.555 448.372 262.102 451.757C263.155 452.46 264.405 453.305 264.412 454.719C262.91 455.859 261.056 456.323 259.286 456.83C254.49 458.139 249.294 459.455 244.463 457.576C240.952 456.739 237.989 454.297 234.478 453.713C229.858 455.556 225.582 458.892 220.322 458.519C215.344 458.118 209.923 457.618 205.703 454.726C206.089 452.918 207.606 451.665 209.066 450.694C214.908 447.176 222.043 446.515 227.765 442.729M175.312 462.431C176.113 459.919 178.409 458.42 180.642 457.294C180.642 459.637 180.27 462.037 180.782 464.331C182.095 466.561 184.546 467.736 186.646 469.094C182.138 471.571 177.278 474.118 174.575 478.713C171.708 483.671 170.196 489.3 170.193 495.03C170.657 500.857 171.9 506.992 175.642 511.629C178.051 515.021 182.039 516.702 184.722 519.819C178.725 519.587 173.36 515.703 170.13 510.806C165.917 504.529 162.498 497.092 163.242 489.352C163.944 484.673 165.229 479.747 168.67 476.307C170.495 474.329 172.883 472.957 174.631 470.896C175.333 468.123 174.631 465.203 175.333 462.452M289.304 464.274C289.733 461.945 289.361 459.532 289.585 457.182C293.504 459.764 295.273 464.443 295.006 469.017C294.374 472.866 298.988 473.731 300.926 476.194C304.324 480.268 307.245 485.299 307.07 490.787C307.449 497.641 304.366 503.995 301.157 509.835C298.096 515.035 292.612 518.152 287.212 520.439C284.986 521.445 282.514 521.501 280.12 521.6L280.626 520.284C286.496 518.877 292.141 515.619 295.428 510.433C297.625 506.781 300.013 502.932 300.16 498.542C300.364 492.983 300.603 487.065 297.941 481.992C296.116 478.6 293.791 475.293 290.463 473.246C287.774 471.501 284.509 470.853 281.995 468.813C284.642 467.814 288.041 467.188 289.304 464.296M201.476 476.525C203.088 475.386 204.954 474.661 206.911 474.414C211.972 473.876 217.09 474.355 221.965 475.821C228.166 477.622 234.731 478.396 241.142 477.327C245.566 477.003 249.568 474.702 254.006 474.512C258.219 474.217 262.65 473.661 266.645 475.336C269.194 476.384 271.399 478.087 273.667 479.635C272.642 480.845 271.806 482.449 270.205 482.949C266.118 484.356 261.779 484.856 257.601 485.848C244.421 488.923 231.066 491.097 217.822 493.848C211.103 495.178 204.284 496.191 197.789 498.45C194.903 499.513 191.828 499.787 188.787 499.991C188.787 496.994 188.57 493.898 189.595 491.02C190.645 488.2 191.983 485.498 193.59 482.956C195.634 480.177 198.639 478.326 201.476 476.461M162.189 529.361C165.061 531.204 166.437 534.462 168.782 536.84C173.353 541.707 179.258 545.109 185.754 546.621C189.3 547.669 193.358 547.683 196.413 549.956C196.364 550.231 196.272 550.772 196.223 551.04C189.895 552.582 183.237 552.009 177.264 549.407C169.112 546.213 162.842 538.149 162.189 529.361ZM302.484 535.841C303.826 534.195 305.293 532.689 306.74 531.106V532.154L308.249 532.225C306.255 535.912 305.04 540.098 302.197 543.272C297.401 548.089 291.006 550.974 284.228 551.378C280.829 551.504 276.806 552.468 273.99 550.013C278.343 547.691 283.371 547.465 287.949 545.791C293.624 543.895 298.658 540.449 302.484 535.841ZM178.83 583.801C179.645 580.747 183.423 581.05 185.852 581.458C187.713 584.899 189.363 588.635 192.6 591.049C196.532 594.567 202.101 594.229 207.009 594.081C215.681 593.905 223.791 590.359 232.322 589.24C239.969 588.234 247.216 591.414 254.582 592.878C259.913 594.039 265.386 594.399 270.823 593.948C274.334 593.638 277.445 591.626 279.909 589.212C281.974 587.193 282.374 584.181 283.743 581.747C286.376 580.74 289.234 581.296 291.741 582.38C291.643 586.186 292.169 590.183 290.681 593.807C288.967 598.029 286.018 601.941 281.728 603.728C277.564 605.466 272.979 606.88 268.429 606.092C258.493 604.537 249.238 600.189 239.323 598.542C233.27 597.459 227.168 599.133 221.502 601.167C215.066 603.264 208.497 604.93 201.841 606.156C197.122 607.021 192.333 605.529 188.19 603.341C181.597 599.485 177.433 591.429 178.816 583.808M236.079 617.238C236.276 615.915 237.905 616.598 238.797 616.661C244.842 618.167 250.642 620.883 256.92 621.375C262.285 621.671 267.797 621.769 272.993 620.172C276.118 619.321 278.898 617.618 281.784 616.197C281.082 619.785 277.796 621.769 275.148 623.873C271.308 626.843 266.505 628.229 261.765 628.897C257.166 629.516 252.819 627.49 248.704 625.738C243.951 623.81 240.046 620.39 236.065 617.238M187.874 616.534C191.996 617.168 195.282 620.116 199.418 620.756C206.91 622.099 214.607 621.743 221.944 619.715C225.82 618.673 229.619 617.273 233.629 616.816C228.088 622.283 221.488 627.201 213.637 628.531C208.336 629.819 202.922 628.102 198.225 625.66C194.054 623.641 189.925 620.855 187.874 616.513V616.534Z" fill="#E7BD41"></path><path d="M128.412 165.358C133.632 166.461 138.261 170.655 139.19 175.994C136.376 173.521 133.773 170.873 130.832 168.583C131.979 168.857 133.126 169.124 134.286 169.384C132.416 167.918 130.454 166.573 128.412 165.358ZM456.389 210.508C456.421 208.243 456.899 206.006 457.796 203.925C458.519 206.193 458.723 208.593 458.394 210.95C457.275 218.2 456.389 225.492 454.771 232.657C453.047 240.462 451.619 248.4 448.594 255.84C449.811 249.96 451.725 244.263 452.949 238.39C454.504 231.098 456.108 223.813 457.057 216.416C457.395 214.4 456.846 212.418 456.354 210.494M322.968 216.219C324.474 214.217 325.782 212.046 327.393 210.149C326.858 212.959 326.134 215.917 324.051 218.003C322.159 219.949 319.493 220.757 316.932 221.375C318.81 219.507 321.153 218.123 322.968 216.219ZM77.8436 220.848C82.5994 222.092 87.341 220.581 91.9139 219.443C89.891 221.462 87.553 223.14 84.9913 224.41C85.1039 223.708 85.2235 222.963 85.336 222.239C82.7893 222.071 80.0597 222.239 77.8155 220.834M293.695 231.941C296.396 227.944 300.224 224.965 303.502 221.495C302.971 222.713 302.838 224.067 303.122 225.365C300.243 227.911 297.08 230.117 293.695 231.941ZM162.729 234.891C165.42 235.022 168.036 235.815 170.345 237.2C172.654 238.585 174.583 240.519 175.962 242.829C177.586 245.591 178.549 248.69 178.776 251.885C175.913 248.773 174.619 244.565 171.594 241.579C169.159 238.692 165.564 237.273 162.715 234.891M290.965 250.43C291.106 242.415 298.38 234.104 306.801 235.264C303.987 237.069 300.744 238.397 298.423 240.884C295.517 243.694 294.012 247.684 290.965 250.402M427.876 275.292C431.161 271.365 433.286 266.665 435.945 262.324C435.889 263.56 435.945 264.803 435.875 266.054C432.244 274.196 426.068 280.799 419.131 286.223L417.126 286.124C421.027 282.837 424.649 279.233 427.953 275.348M36.4279 268.576C40.639 274.975 45.7792 280.714 51.6801 285.604C53.6147 287.396 56.3936 286.623 58.7152 286.208C62.4991 285.231 66.3585 284.573 70.2528 284.241C66.3061 287.276 61.5996 289.047 57.4277 291.723C52.1936 294.667 47.3394 298.249 41.9505 300.905C49.4992 294.807 58.2227 290.43 66.5734 285.555C61.4729 286.419 56.3232 287.087 51.3213 288.449C51.3705 288.084 51.462 287.354 51.5112 286.988C45.0878 282.528 39.6262 276.826 35.4501 270.22L36.4631 268.576M396.372 283.623C401.255 283.996 405.961 285.401 410.773 286.166C413.014 286.474 415.211 287.047 417.316 287.873L417.815 288.084C413.503 287.529 409.197 286.89 404.899 286.258C407.066 287.873 409.197 289.552 411.463 291.056C406.538 288.4 401.072 286.742 396.372 283.623ZM69.303 295.973C69.4901 294.549 69.9691 293.179 70.71 291.948C71.0993 293.493 71.4089 295.055 71.6387 296.633L69.9221 296.184C69.9221 297.891 69.9221 299.598 69.9221 301.312C70.5131 300.968 71.111 300.61 71.709 300.293C71.7723 300.891 71.8356 301.488 71.906 302.092C71.1603 307.712 73.7984 312.931 76.5703 317.652C75.8668 317.083 75.1633 316.549 74.4597 316.022C74.516 316.9 74.5934 317.779 74.6778 318.664C74.108 317.764 73.4959 316.893 72.9261 316.008C69.9014 309.788 68.648 302.857 69.303 295.973ZM123.924 346.293C127.617 345.204 131.697 347.29 133.724 350.402C134.251 352.636 131.908 354.238 130.832 355.945C128.623 358.334 127.983 361.706 128.447 364.853C128.665 368.267 131.353 371.035 134.35 372.362C135.835 372.813 137.4 372.937 138.937 372.726C140.474 372.515 141.948 371.974 143.256 371.14C146.204 368.99 146.872 364.916 149.785 362.71C153.612 361.67 156.855 364.965 159.191 367.571C158.058 371.133 156.306 374.596 153.183 376.816C153.823 375.587 154.4 374.329 154.956 373.072C152.965 371.47 150.91 369.447 148.174 369.475C144.811 370.374 142.215 373.255 138.634 373.578C134.413 374.175 130.227 371.554 128.236 367.916C127.139 365.661 127.146 363.089 126.829 360.659C124.155 359.025 121.328 357.655 118.387 356.57C117.036 360.49 116.621 364.811 118.19 368.738C119.78 373.444 123.326 377.132 127.118 380.202C122.65 378.699 119.928 374.47 117.972 370.438C115.861 365.204 115.432 358.966 118.092 353.845C119.499 351.035 121.06 347.916 123.91 346.293M334.611 350.065C337.158 348.154 340.113 346.166 343.44 346.391C346.529 346.588 348.083 349.672 349.497 352.011C354.612 361.059 351.988 374.652 342.35 379.57C346.43 375.875 350.243 371.33 351.017 365.696C351.875 361.572 350.897 357.406 349.322 353.592C345.842 354.228 342.537 355.59 339.62 357.589C337.228 356.142 334.738 354.716 332.859 352.608C332.571 351.421 333.929 350.838 334.618 350.128M308.982 362.359C310.804 359.359 314.336 358.144 317.502 357.048C318.789 361.017 321.019 364.586 322.56 368.442C321.667 367.459 320.794 366.37 319.556 365.822C315.94 365.394 312 367.318 310.945 370.992C309.369 368.435 308.265 365.373 308.982 362.359ZM9.72266 392.166C10.4262 387.508 11.2352 382.492 14.1337 378.65C13.3106 383.567 11.7347 388.393 11.2704 393.402C11.0694 395.168 10.7116 396.912 10.201 398.615C10.3417 395.545 10.5809 392.489 10.9045 389.433C10.5106 390.339 10.1025 391.245 9.72969 392.166M455.214 378.734C456.118 379.928 456.83 381.255 457.325 382.668C458.732 387.171 460.202 391.723 460.406 396.479C459.836 394.322 459.182 392.215 458.577 390.107C458.577 391.512 458.577 392.917 458.577 394.386C457.099 389.264 456.248 383.989 455.193 378.769M273.406 478.769C278.562 483.251 281.953 490.009 281.51 496.901C281.563 498.959 281.148 501.004 280.295 502.879C279.442 504.754 278.173 506.411 276.586 507.726C275.277 508.906 273.413 508.548 271.809 508.667C271.45 505.401 270.627 501.692 267.398 500.076C263.226 498.032 258.372 498.98 253.918 499.198C240.291 500.603 226.481 500.947 213.115 504.115C209.42 504.993 205.88 506.428 202.618 508.372C200.592 509.475 198.186 510.817 195.865 509.714C192.143 507.986 188.83 504.797 187.985 500.624C186.346 494.161 188.203 486.651 193.198 482.12C191.589 484.658 190.247 487.356 189.195 490.171C188.168 493.044 188.393 496.135 188.386 499.127C191.433 498.924 194.514 498.65 197.405 497.589C203.913 495.334 210.772 494.322 217.477 492.995C230.745 490.248 244.126 488.077 257.33 485.007C261.552 484.017 265.864 483.511 269.958 482.113C271.562 481.586 272.4 480.006 273.427 478.804L273.406 478.769Z" fill="#B65C16"></path><circle cx="137.793" cy="364.762" r="8.10582" fill="#FBFDFA"></circle></svg>