<svg xmlns="http://www.w3.org/2000/svg" width="264" height="225" viewBox="0 0 264 225" fill="none"><g clip-path="url(#clip0_931_1932)"><rect width="264" height="224" transform="translate(0 0.291992)" fill="#EFEEE7"></rect><g style="mix-blend-mode:luminosity" opacity="0.06"><path d="M343.498 190.636H317.846V190.638L330.671 207.114H330.673L343.5 190.638L343.498 190.636Z" fill="#3B5276"></path><path d="M206.656 167.419L228.731 195.779H228.736L250.809 167.419L250.806 167.417H206.658L206.656 167.419Z" fill="#3B5276"></path><path d="M272.887 195.779L250.811 167.419L228.738 195.779H272.887Z" fill="url(#paint0_linear_931_1932)" style="mix-blend-mode:multiply"></path><path d="M250.807 224.141H250.812H294.952L272.882 195.786L272.88 195.781L250.807 224.141Z" fill="#D0D9E0"></path><path d="M206.656 53.9656L184.58 82.3278H228.731L206.656 53.9656Z" fill="#333940"></path><path d="M250.804 224.141L250.807 224.141L228.733 195.781L206.658 224.141L250.799 224.141H250.804Z" fill="#333940"></path><path d="M228.731 82.3278L228.734 82.3278L250.809 53.9657L250.806 53.9632H206.658L206.656 53.9656L228.731 82.3278Z" fill="#FFCA61"></path><path d="M272.889 195.779H317.035L294.962 167.419L272.889 195.779Z" fill="#FFCA61"></path><path d="M294.962 167.419L294.96 167.417L272.887 139.057L250.811 167.417L250.806 167.417L250.809 167.419L272.884 195.779L228.736 195.779H228.731L206.656 167.419L184.583 195.779H184.578L184.58 195.781L162.505 224.141H206.653L206.656 224.146L206.658 224.141L228.733 195.781L250.806 224.141L272.879 195.781L272.882 195.786L272.887 195.781L272.889 195.779L294.962 167.419Z" fill="#E94B64"></path><path d="M250.806 167.417L250.811 167.417L272.887 139.055L272.884 139.052H228.736L228.734 139.055L250.806 167.417Z" fill="#D0D9E0"></path><path d="M250.812 224.141H250.807L250.809 224.146L250.812 224.141Z" fill="#3B5276"></path><path d="M206.653 167.417L206.656 167.419L206.658 167.417H206.653Z" fill="#3B5276"></path><path d="M162.502 224.146L162.505 224.141L162.5 224.141L162.502 224.146Z" fill="#0D2333"></path><path d="M262.478 47.6214L250.433 32.146L238.387 47.6214H262.478Z" fill="#3B5276"></path><path d="M250.812 53.9632H250.806L250.809 53.9657L250.812 53.9632Z" fill="#3B5276"></path><path d="M184.58 82.3278L184.578 82.3277L184.58 82.3302L184.58 82.3278Z" fill="#3B5276"></path><path d="M294.964 224.141H294.959L294.962 224.146L294.964 224.141Z" fill="#3B5276"></path><path d="M317.04 195.781L317.042 195.779L317.035 195.779L317.04 195.781Z" fill="#3B5276"></path><path d="M206.658 53.9632H206.653L206.656 53.9656L206.658 53.9632Z" fill="#3B5276"></path><path d="M272.887 139.052H272.884L272.887 139.055L272.887 139.052Z" fill="#3B5276"></path><path d="M250.807 110.69H206.653L206.656 110.692L228.731 139.052L228.734 139.055L228.736 139.052L250.809 110.692L250.811 110.69H250.807Z" fill="#E94B64"></path><path d="M228.734 82.3302L228.734 82.3278L228.731 82.3278L228.734 82.3302Z" fill="#3B5276"></path><path d="M228.734 82.3302L228.731 82.3278H184.58L184.58 82.3302L206.651 110.685L228.724 82.3277L250.797 110.687H206.653L206.653 110.69H250.807L228.734 82.3302Z" fill="#E94B64"></path><path d="M228.724 82.3277L206.651 110.685L206.649 110.687H250.797L228.724 82.3277Z" fill="#333940"></path><path d="M206.648 224.144H206.653L228.724 195.789L228.719 195.784L228.721 195.781H184.576L184.573 195.784L206.648 224.144Z" fill="url(#paint1_linear_931_1932)"></path><path d="M294.952 167.414L272.88 139.055L250.807 167.414H294.952Z" fill="url(#paint2_linear_931_1932)" style="mix-blend-mode:multiply"></path><path d="M294.962 167.417H250.814L272.889 195.777L294.962 167.417Z" fill="url(#paint3_linear_931_1932)"></path><path d="M257.602 107.558L244.352 124.582H270.854L257.602 107.558Z" fill="#FFCA61"></path><path d="M228.723 195.779H272.889L268.15 201.869H233.327L228.723 195.779Z" fill="url(#paint4_linear_931_1932)" style="mix-blend-mode:multiply"></path></g></g><defs><linearGradient id="paint0_linear_931_1932" x1="133.863" y1="41.1074" x2="372.278" y2="145.03" gradientUnits="userSpaceOnUse"><stop offset="0.37" stop-color="#393F46"></stop><stop offset="0.4" stop-color="#62676C"></stop><stop offset="0.43" stop-color="#888B90"></stop><stop offset="0.47" stop-color="#A8ABAE"></stop><stop offset="0.51" stop-color="#C4C5C7"></stop><stop offset="0.55" stop-color="#DADBDC"></stop><stop offset="0.6" stop-color="#EBEBEC"></stop><stop offset="0.67" stop-color="#F6F7F7"></stop><stop offset="0.75" stop-color="#FDFDFD"></stop><stop offset="1" stop-color="white"></stop></linearGradient><linearGradient id="paint1_linear_931_1932" x1="253" y1="32.146" x2="253" y2="224.146" gradientUnits="userSpaceOnUse"><stop stop-color="#3B5276"></stop><stop offset="0.02" stop-color="#4E5174"></stop><stop offset="0.07" stop-color="#725070"></stop><stop offset="0.13" stop-color="#924E6D"></stop><stop offset="0.19" stop-color="#AE4D6A"></stop><stop offset="0.27" stop-color="#C44D68"></stop><stop offset="0.35" stop-color="#D54C66"></stop><stop offset="0.45" stop-color="#E04B65"></stop><stop offset="0.6" stop-color="#E74B64"></stop><stop offset="1" stop-color="#E94B64"></stop></linearGradient><linearGradient id="paint2_linear_931_1932" x1="133.852" y1="41.1074" x2="372.275" y2="145.039" gradientUnits="userSpaceOnUse"><stop offset="0.37" stop-color="#3B5276"></stop><stop offset="0.4" stop-color="#647692"></stop><stop offset="0.43" stop-color="#8896AC"></stop><stop offset="0.47" stop-color="#A8B3C2"></stop><stop offset="0.51" stop-color="#C4CBD5"></stop><stop offset="0.55" stop-color="#DADEE5"></stop><stop offset="0.6" stop-color="#EBEDF1"></stop><stop offset="0.66" stop-color="#F6F7F9"></stop><stop offset="0.75" stop-color="#FDFDFE"></stop><stop offset="1" stop-color="white"></stop></linearGradient><linearGradient id="paint3_linear_931_1932" x1="162.5" y1="128.138" x2="343.5" y2="128.138" gradientUnits="userSpaceOnUse"><stop offset="0.03" stop-color="#3B5276"></stop><stop offset="0.1" stop-color="#394B66"></stop><stop offset="0.21" stop-color="#364355"></stop><stop offset="0.35" stop-color="#343D49"></stop><stop offset="0.53" stop-color="#333A42"></stop><stop offset="1" stop-color="#333940"></stop></linearGradient><linearGradient id="paint4_linear_931_1932" x1="250.806" y1="203.533" x2="250.806" y2="195.175" gradientUnits="userSpaceOnUse"><stop stop-color="white"></stop><stop offset="1" stop-color="#231F20"></stop></linearGradient><clipPath id="clip0_931_1932"><rect width="264" height="224" fill="white" transform="translate(0 0.291992)"></rect></clipPath></defs></svg>