<svg xmlns="http://www.w3.org/2000/svg" width="460" height="300" viewBox="0 0 460 300" fill="none"><g clip-path="url(#clip0_691_3665)"><path fill-rule="evenodd" clip-rule="evenodd" d="M401 0H0V300H460V65.5556L401 0Z" fill="#6C7648"></path><g style="mix-blend-mode:luminosity" opacity="0.06"><path d="M544.996 246.928H501.488V246.932L523.24 274.993H523.244L545 246.932L544.996 246.928Z" fill="#3B5276"></path><path d="M312.894 207.387L350.337 255.687H350.345L387.784 207.387L387.779 207.383H312.898L312.894 207.387Z" fill="#3B5276"></path><path d="M425.23 255.687L387.788 207.387L350.349 255.687H425.23Z" fill="url(#paint0_linear_691_3665)" style="mix-blend-mode:multiply"></path><path d="M387.78 303.992H387.788H462.657L425.223 255.7L425.218 255.691L387.78 303.992Z" fill="#D0D9E0"></path><path d="M312.894 14.1615L275.451 62.4658H350.337L312.894 14.1615Z" fill="#333940"></path><path d="M387.775 303.992L387.78 303.992L350.341 255.691L312.898 303.992L387.767 303.992H387.775Z" fill="#333940"></path><path d="M350.337 62.4658L350.341 62.4659L387.784 14.1616L387.779 14.1575H312.898L312.894 14.1615L350.337 62.4658Z" fill="#FFCA61"></path><path d="M425.235 255.687H500.112L462.673 207.387L425.235 255.687Z" fill="#FFCA61"></path><path d="M462.673 207.387L462.669 207.383L425.23 159.083L387.788 207.383L387.779 207.383L387.784 207.387L425.226 255.687L350.345 255.687H350.337L312.894 207.387L275.455 255.687H275.447L275.451 255.691L238.008 303.992H312.89L312.894 304L312.898 303.992L350.341 255.691L387.779 303.992L425.218 255.691L425.222 255.7L425.23 255.691L425.235 255.687L462.673 207.387Z" fill="#E94B64"></path><path d="M387.779 207.383L387.788 207.383L425.231 159.079L425.226 159.075H350.345L350.341 159.079L387.779 207.383Z" fill="#D0D9E0"></path><path d="M387.788 303.992H387.78L387.784 304L387.788 303.992Z" fill="#3B5276"></path><path d="M312.89 207.383L312.894 207.387L312.898 207.383H312.89Z" fill="#3B5276"></path><path d="M238.004 304L238.008 303.992L238 303.992L238.004 304Z" fill="#0D2333"></path><path d="M407.576 3.35651L387.146 -23L366.715 3.35651H407.576Z" fill="#3B5276"></path><path d="M387.788 14.1575H387.779L387.784 14.1616L387.788 14.1575Z" fill="#3B5276"></path><path d="M275.451 62.4658L275.447 62.4658L275.451 62.47L275.451 62.4658Z" fill="#3B5276"></path><path d="M462.677 303.992H462.669L462.673 304L462.677 303.992Z" fill="#3B5276"></path><path d="M500.12 255.692L500.124 255.687L500.112 255.687L500.12 255.692Z" fill="#3B5276"></path><path d="M312.898 14.1575H312.89L312.894 14.1615L312.898 14.1575Z" fill="#3B5276"></path><path d="M425.231 159.075H425.226L425.231 159.079L425.231 159.075Z" fill="#3B5276"></path><path d="M387.78 110.77H312.89L312.894 110.774L350.337 159.074L350.341 159.079L350.345 159.075L387.784 110.774L387.788 110.77H387.78Z" fill="#E94B64"></path><path d="M350.341 62.47L350.341 62.4659L350.337 62.4658L350.341 62.47Z" fill="#3B5276"></path><path d="M350.341 62.47L350.337 62.4658H275.451L275.451 62.47L312.885 110.762L350.324 62.4658L387.763 110.766H312.89L312.89 110.77H387.78L350.341 62.47Z" fill="#E94B64"></path><path d="M350.325 62.4658L312.886 110.762L312.882 110.766H387.763L350.325 62.4658Z" fill="#333940"></path><path d="M312.882 303.996H312.89L350.324 255.704L350.316 255.696L350.32 255.691H275.443L275.439 255.696L312.882 303.996Z" fill="url(#paint1_linear_691_3665)"></path><path d="M462.657 207.379L425.218 159.079L387.78 207.379H462.657Z" fill="url(#paint2_linear_691_3665)" style="mix-blend-mode:multiply"></path><path d="M462.673 207.383H387.792L425.235 255.683L462.673 207.383Z" fill="url(#paint3_linear_691_3665)"></path><path d="M399.305 105.436L376.832 134.431H421.783L399.305 105.436Z" fill="#FFCA61"></path><path d="M350.324 255.687H425.234L417.197 266.059H358.132L350.324 255.687Z" fill="url(#paint4_linear_691_3665)" style="mix-blend-mode:multiply"></path></g></g><defs><linearGradient id="paint0_linear_691_3665" x1="189.428" y1="-7.73755" x2="594.34" y2="168.035" gradientUnits="userSpaceOnUse"><stop offset="0.37" stop-color="#393F46"></stop><stop offset="0.4" stop-color="#62676C"></stop><stop offset="0.43" stop-color="#888B90"></stop><stop offset="0.47" stop-color="#A8ABAE"></stop><stop offset="0.51" stop-color="#C4C5C7"></stop><stop offset="0.55" stop-color="#DADBDC"></stop><stop offset="0.6" stop-color="#EBEBEC"></stop><stop offset="0.67" stop-color="#F6F7F7"></stop><stop offset="0.75" stop-color="#FDFDFD"></stop><stop offset="1" stop-color="white"></stop></linearGradient><linearGradient id="paint1_linear_691_3665" x1="391.5" y1="-23" x2="391.5" y2="304" gradientUnits="userSpaceOnUse"><stop stop-color="#3B5276"></stop><stop offset="0.02" stop-color="#4E5174"></stop><stop offset="0.07" stop-color="#725070"></stop><stop offset="0.13" stop-color="#924E6D"></stop><stop offset="0.19" stop-color="#AE4D6A"></stop><stop offset="0.27" stop-color="#C44D68"></stop><stop offset="0.35" stop-color="#D54C66"></stop><stop offset="0.45" stop-color="#E04B65"></stop><stop offset="0.6" stop-color="#E74B64"></stop><stop offset="1" stop-color="#E94B64"></stop></linearGradient><linearGradient id="paint2_linear_691_3665" x1="189.408" y1="-7.73755" x2="594.336" y2="168.051" gradientUnits="userSpaceOnUse"><stop offset="0.37" stop-color="#3B5276"></stop><stop offset="0.4" stop-color="#647692"></stop><stop offset="0.43" stop-color="#8896AC"></stop><stop offset="0.47" stop-color="#A8B3C2"></stop><stop offset="0.51" stop-color="#C4CBD5"></stop><stop offset="0.55" stop-color="#DADEE5"></stop><stop offset="0.6" stop-color="#EBEDF1"></stop><stop offset="0.66" stop-color="#F6F7F9"></stop><stop offset="0.75" stop-color="#FDFDFE"></stop><stop offset="1" stop-color="white"></stop></linearGradient><linearGradient id="paint3_linear_691_3665" x1="238" y1="140.486" x2="545" y2="140.486" gradientUnits="userSpaceOnUse"><stop offset="0.03" stop-color="#3B5276"></stop><stop offset="0.1" stop-color="#394B66"></stop><stop offset="0.21" stop-color="#364355"></stop><stop offset="0.35" stop-color="#343D49"></stop><stop offset="0.53" stop-color="#333A42"></stop><stop offset="1" stop-color="#333940"></stop></linearGradient><linearGradient id="paint4_linear_691_3665" x1="387.779" y1="268.893" x2="387.779" y2="254.658" gradientUnits="userSpaceOnUse"><stop stop-color="white"></stop><stop offset="1" stop-color="#231F20"></stop></linearGradient><clipPath id="clip0_691_3665"><rect width="460" height="300" fill="white"></rect></clipPath></defs></svg>