<svg xmlns="http://www.w3.org/2000/svg" width="67" height="58" viewBox="0 0 67 58" fill="none"><g clip-path="url(#clip0_953_1848)"><path d="M50.6141 17.727C49.4094 17.0386 47.8604 17.0386 46.4835 17.727L36.8456 23.4065L30.3055 27.0208L20.8396 32.7003C19.6349 33.3887 18.0859 33.3887 16.7091 32.7003L9.30847 28.2255C8.10372 27.5371 7.24318 26.1602 7.24318 24.6113V16.0059C7.24318 14.6291 7.93161 13.2522 9.30847 12.3917L16.7091 8.08902C17.9138 7.40059 19.4628 7.40059 20.8396 8.08902L28.2402 12.5638C29.445 13.2522 30.3055 14.6291 30.3055 16.178V21.8576L36.8456 18.0712V12.2196C36.8456 10.8427 36.1571 9.46588 34.7803 8.60534L21.0117 0.516321C19.807 -0.172107 18.258 -0.172107 16.8812 0.516321L2.76841 8.77745C1.39155 9.46588 0.703125 10.8427 0.703125 12.2196V28.3976C0.703125 29.7745 1.39155 31.1513 2.76841 32.0119L16.7091 40.1009C17.9138 40.7893 19.4628 40.7893 20.8396 40.1009L30.3055 34.5935L36.8456 30.8071L46.3114 25.2997C47.5162 24.6113 49.0651 24.6113 50.442 25.2997L57.8426 29.6024C59.0473 30.2908 59.9079 31.6677 59.9079 33.2166V41.822C59.9079 43.1988 59.2194 44.5757 57.8426 45.4362L50.6141 49.7389C49.4094 50.4273 47.8604 50.4273 46.4835 49.7389L39.0829 45.4362C37.8782 44.7478 37.0177 43.3709 37.0177 41.822V36.3145L30.4776 40.1009V45.7804C30.4776 47.1573 31.166 48.5341 32.5429 49.3947L46.4835 57.4837C47.6883 58.1721 49.2372 58.1721 50.6141 57.4837L64.5548 49.3947C65.7595 48.7062 66.62 47.3294 66.62 45.7804V29.4303C66.62 28.0534 65.9316 26.6766 64.5548 25.816L50.6141 17.727Z" fill="#8247E5"></path></g><defs><clipPath id="clip0_953_1848"><rect width="65.9169" height="58" fill="white" transform="translate(0.703125)"></rect></clipPath></defs></svg>