<svg xmlns="http://www.w3.org/2000/svg" width="80" height="80" viewBox="0 0 80 80" fill="none"><rect width="80" height="80" rx="40" fill="#CA732F"></rect><path d="M57.1707 22.2927H55.0244C54.8821 22.2927 54.7456 22.3493 54.645 22.4499C54.5443 22.5505 54.4878 22.687 54.4878 22.8293C54.4878 22.9716 54.5443 23.1081 54.645 23.2087C54.7456 23.3094 54.8821 23.3659 55.0244 23.3659H57.1707C58.1665 23.3671 59.1212 23.7633 59.8253 24.4674C60.5294 25.1715 60.9256 26.1262 60.9268 27.122V29.2683C60.9268 29.4106 60.9834 29.5471 61.084 29.6478C61.1846 29.7484 61.3211 29.8049 61.4634 29.8049C61.6057 29.8049 61.7422 29.7484 61.8428 29.6478C61.9435 29.5471 62 29.4106 62 29.2683V27.122C61.9984 25.8417 61.4891 24.6143 60.5838 23.7089C59.6785 22.8036 58.451 22.2943 57.1707 22.2927Z" fill="#FBFDFA"></path><path d="M61.4634 50.1952C61.3211 50.1952 61.1846 50.2517 61.084 50.3523C60.9834 50.453 60.9268 50.5894 60.9268 50.7317V52.8781C60.9256 53.8739 60.5294 54.8285 59.8253 55.5327C59.1212 56.2368 58.1665 56.6329 57.1707 56.6342H55.0244C54.8821 56.6342 54.7456 56.6907 54.645 56.7913C54.5443 56.892 54.4878 57.0285 54.4878 57.1708C54.4878 57.3131 54.5443 57.4496 54.645 57.5502C54.7456 57.6508 54.8821 57.7074 55.0244 57.7074H57.1707C58.451 57.7058 59.6785 57.1965 60.5838 56.2911C61.4891 55.3858 61.9984 54.1584 62 52.8781V50.7317C62 50.5894 61.9435 50.453 61.8428 50.3523C61.7422 50.2517 61.6057 50.1952 61.4634 50.1952Z" fill="#FBFDFA"></path><path d="M24.9756 56.6342H22.8293C21.8335 56.6329 20.8788 56.2368 20.1747 55.5327C19.4706 54.8285 19.0744 53.8739 19.0732 52.8781V50.7317C19.0732 50.5894 19.0166 50.453 18.916 50.3523C18.8154 50.2517 18.6789 50.1952 18.5366 50.1952C18.3943 50.1952 18.2578 50.2517 18.1572 50.3523C18.0565 50.453 18 50.5894 18 50.7317V52.8781C18.0016 54.1584 18.5109 55.3858 19.4162 56.2911C20.3215 57.1965 21.549 57.7058 22.8293 57.7074H24.9756C25.1179 57.7074 25.2544 57.6508 25.355 57.5502C25.4557 57.4496 25.5122 57.3131 25.5122 57.1708C25.5122 57.0285 25.4557 56.892 25.355 56.7913C25.2544 56.6907 25.1179 56.6342 24.9756 56.6342Z" fill="#FBFDFA"></path><path d="M18.5366 29.8049C18.6789 29.8049 18.8154 29.7484 18.916 29.6478C19.0166 29.5471 19.0732 29.4106 19.0732 29.2683V27.122C19.0744 26.1262 19.4706 25.1715 20.1747 24.4674C20.8788 23.7633 21.8335 23.3671 22.8293 23.3659H24.9756C25.1179 23.3659 25.2544 23.3094 25.355 23.2087C25.4557 23.1081 25.5122 22.9716 25.5122 22.8293C25.5122 22.687 25.4557 22.5505 25.355 22.4499C25.2544 22.3493 25.1179 22.2927 24.9756 22.2927H22.8293C21.549 22.2943 20.3215 22.8036 19.4162 23.7089C18.5109 24.6143 18.0016 25.8417 18 27.122V29.2683C18 29.4106 18.0565 29.5471 18.1572 29.6478C18.2578 29.7484 18.3943 29.8049 18.5366 29.8049Z" fill="#FBFDFA"></path><path d="M57.1707 44.8293C57.313 44.8293 57.4495 44.7728 57.5502 44.6721C57.6508 44.5715 57.7073 44.435 57.7073 44.2927C57.7073 44.1504 57.6508 44.0139 57.5502 43.9133C57.4495 43.8127 57.313 43.7561 57.1707 43.7561H51.2683V40C51.2683 39.8577 51.2118 39.7212 51.1111 39.6206C51.0105 39.52 50.874 39.4635 50.7317 39.4635C50.5894 39.4635 50.4529 39.52 50.3523 39.6206C50.2517 39.7212 50.1951 39.8577 50.1951 40V43.7561H44.775C44.7274 43.2759 44.6076 42.8055 44.4195 42.361L45.8438 41.5381C45.9077 41.5044 45.964 41.4581 46.0095 41.4021C46.055 41.3461 46.0888 41.2815 46.1088 41.2121C46.1287 41.1428 46.1345 41.0701 46.1257 40.9985C46.1169 40.9268 46.0938 40.8577 46.0577 40.7952C46.0216 40.7327 45.9732 40.6782 45.9156 40.6348C45.8579 40.5914 45.792 40.5601 45.722 40.5428C45.6519 40.5255 45.5791 40.5225 45.5078 40.5339C45.4365 40.5454 45.3683 40.5712 45.3073 40.6096L43.8735 41.4381C43.5353 40.9747 43.1176 40.5751 42.6398 40.2576C42.6598 40.1728 42.6742 40.0868 42.6827 40C42.6827 39.2885 42.4 38.6061 41.8969 38.1029C41.3938 37.5998 40.7113 37.3171 39.9998 37.3171C39.2882 37.3171 38.6058 37.5998 38.1027 38.1029C37.5995 38.6061 37.3169 39.2885 37.3169 40C37.3254 40.0868 37.3398 40.1728 37.3598 40.2576C36.882 40.5751 36.4643 40.9747 36.1261 41.4381L34.6923 40.6096C34.6312 40.5712 34.563 40.5454 34.4918 40.5339C34.4205 40.5225 34.3477 40.5255 34.2776 40.5428C34.2076 40.5601 34.1417 40.5914 34.084 40.6348C34.0263 40.6782 33.978 40.7327 33.9419 40.7952C33.9058 40.8577 33.8826 40.9268 33.8739 40.9985C33.8651 41.0701 33.8708 41.1428 33.8908 41.2121C33.9108 41.2815 33.9445 41.3461 33.99 41.4021C34.0356 41.4581 34.0919 41.5044 34.1557 41.5381L35.58 42.3612C35.3921 42.8057 35.2722 43.2761 35.2246 43.7564H29.8049V35.3395C29.8088 34.9158 29.8846 34.4959 30.029 34.0976H35.7073C36.4187 34.097 37.1007 33.8141 37.6037 33.3111C38.1068 32.8081 38.3896 32.126 38.3902 31.4147C38.3902 31.2724 38.3337 31.1359 38.2331 31.0353C38.1325 30.9346 37.996 30.8781 37.8537 30.8781C37.7113 30.8781 37.5749 30.9346 37.4742 31.0353C37.3736 31.1359 37.3171 31.2724 37.3171 31.4147C37.3165 31.8414 37.1466 32.2505 36.8449 32.5523C36.5431 32.854 36.1341 33.0238 35.7073 33.0244H30.6241C30.7111 32.9052 30.805 32.7911 30.9053 32.6827L36.9754 26.6127C37.0836 26.5129 37.1977 26.4197 37.3171 26.3336V29.2683C37.3171 29.4106 37.3736 29.5471 37.4742 29.6478C37.5749 29.7484 37.7113 29.8049 37.8537 29.8049C37.996 29.8049 38.1325 29.7484 38.2331 29.6478C38.3337 29.5471 38.3902 29.4106 38.3902 29.2683V25.7406C38.7879 25.5947 39.2075 25.5174 39.631 25.5122H46.439C47.4348 25.5135 48.3895 25.9096 49.0936 26.6138C49.7977 27.3179 50.1939 28.2725 50.1951 29.2683V37.8537C50.1951 37.996 50.2517 38.1325 50.3523 38.2331C50.4529 38.3338 50.5894 38.3903 50.7317 38.3903C50.874 38.3903 51.0105 38.3338 51.1111 38.2331C51.2118 38.1325 51.2683 37.996 51.2683 37.8537V29.2683C51.2667 27.988 50.7574 26.7606 49.8521 25.8553C48.9468 24.95 47.7193 24.4407 46.439 24.4391H39.631C38.3511 24.443 37.1242 24.9513 36.2166 25.8539L30.1466 31.924C29.6967 32.3715 29.34 32.9038 29.0971 33.4901C28.8543 34.0763 28.7301 34.7049 28.7317 35.3395V43.7561H22.8293C22.687 43.7561 22.5505 43.8127 22.4498 43.9133C22.3492 44.0139 22.2927 44.1504 22.2927 44.2927C22.2927 44.435 22.3492 44.5715 22.4498 44.6721C22.5505 44.7728 22.687 44.8293 22.8293 44.8293H28.7317V50.7317C28.7333 52.0121 29.2426 53.2395 30.1479 54.1448C31.0532 55.0501 32.2807 55.5594 33.561 55.561H46.439C47.7193 55.5594 48.9468 55.0501 49.8521 54.1448C50.7574 53.2395 51.2667 52.0121 51.2683 50.7317V44.8293H57.1707ZM40 38.3903C40.3782 38.394 40.7426 38.5323 41.0281 38.7804C41.3135 39.0285 41.5013 39.3701 41.5578 39.744C40.5529 39.3699 39.4471 39.3699 38.4422 39.744C38.4987 39.3701 38.6865 39.0285 38.9719 38.7804C39.2574 38.5323 39.6218 38.394 40 38.3903ZM40 40.5366C40.9008 40.5392 41.7706 40.866 42.4504 41.4571C43.1301 42.0483 43.5743 42.8644 43.7018 43.7561H36.2982C36.4257 42.8644 36.8699 42.0483 37.5496 41.4571C38.2294 40.866 39.0992 40.5392 40 40.5366ZM50.1951 50.7317C50.1939 51.7275 49.7977 52.6822 49.0936 53.3863C48.3895 54.0905 47.4348 54.4866 46.439 54.4878H33.561C32.5652 54.4866 31.6105 54.0905 30.9064 53.3863C30.2023 52.6822 29.8061 51.7275 29.8049 50.7317V44.8293H35.2422C35.2959 45.3043 35.4206 45.7686 35.612 46.2066L34.1562 47.0478C34.0923 47.0815 34.036 47.1277 33.9905 47.1838C33.945 47.2398 33.9112 47.3044 33.8912 47.3737C33.8713 47.4431 33.8655 47.5158 33.8743 47.5874C33.8831 47.659 33.9062 47.7282 33.9423 47.7907C33.9784 47.8531 34.0268 47.9077 34.0845 47.9511C34.1421 47.9944 34.208 48.0257 34.278 48.0431C34.3481 48.0604 34.4209 48.0634 34.4922 48.0519C34.5635 48.0405 34.6317 48.0147 34.6927 47.9763L36.1482 47.1353C36.5297 47.6766 37.0194 48.1329 37.5862 48.4753C37.6473 48.5137 37.7155 48.5395 37.7868 48.551C37.858 48.5624 37.9309 48.5594 38.0009 48.5421C38.071 48.5248 38.1368 48.4935 38.1945 48.4501C38.2522 48.4067 38.3006 48.3522 38.3367 48.2897C38.3728 48.2272 38.3959 48.1581 38.4047 48.0864C38.4135 48.0148 38.4077 47.9421 38.3877 47.8728C38.3678 47.8034 38.334 47.7388 38.2885 47.6828C38.243 47.6268 38.1866 47.5805 38.1228 47.5468C37.6365 47.2592 37.2214 46.8654 36.9086 46.3948C36.5958 45.9242 36.3934 45.3891 36.3165 44.8293H43.7027C43.5751 45.7212 43.1308 46.5374 42.4509 47.1286C41.771 47.7198 40.901 48.0464 40 48.0488C39.8577 48.0488 39.7212 48.1054 39.6206 48.206C39.5199 48.3066 39.4634 48.4431 39.4634 48.5854C39.4634 48.7277 39.5199 48.8642 39.6206 48.9648C39.7212 49.0655 39.8577 49.122 40 49.122C40.7553 49.1199 41.4995 48.9401 42.1725 48.5971C42.8454 48.254 43.4281 47.7574 43.8735 47.1474L45.3073 47.9756C45.3683 48.0141 45.4365 48.0398 45.5078 48.0513C45.5791 48.0628 45.6519 48.0597 45.722 48.0424C45.792 48.0251 45.8579 47.9938 45.9156 47.9504C45.9732 47.9071 46.0216 47.8525 46.0577 47.79C46.0938 47.7275 46.1169 47.6584 46.1257 47.5868C46.1345 47.5151 46.1287 47.4424 46.1088 47.3731C46.0888 47.3037 46.055 47.2391 46.0095 47.1831C45.964 47.1271 45.9077 47.0808 45.8438 47.0471L44.4195 46.2244C44.6076 45.7799 44.7274 45.3096 44.775 44.8293H50.1951V50.7317Z" fill="#FBFDFA"></path><path d="M46.439 28.7317H42.1463C42.004 28.7317 41.8675 28.7883 41.7669 28.8889C41.6663 28.9895 41.6098 29.126 41.6098 29.2683C41.6098 29.4106 41.6663 29.5471 41.7669 29.6478C41.8675 29.7484 42.004 29.8049 42.1463 29.8049H46.439C46.5813 29.8049 46.7178 29.7484 46.8184 29.6478C46.9191 29.5471 46.9756 29.4106 46.9756 29.2683C46.9756 29.126 46.9191 28.9895 46.8184 28.8889C46.7178 28.7883 46.5813 28.7317 46.439 28.7317Z" fill="#FBFDFA"></path><path d="M46.439 30.8781H42.1463C42.004 30.8781 41.8675 30.9346 41.7669 31.0353C41.6663 31.1359 41.6098 31.2724 41.6098 31.4147C41.6098 31.557 41.6663 31.6935 41.7669 31.7941C41.8675 31.8947 42.004 31.9513 42.1463 31.9513H46.439C46.5813 31.9513 46.7178 31.8947 46.8184 31.7941C46.9191 31.6935 46.9756 31.557 46.9756 31.4147C46.9756 31.2724 46.9191 31.1359 46.8184 31.0353C46.7178 30.9346 46.5813 30.8781 46.439 30.8781Z" fill="#FBFDFA"></path><path d="M57.1707 22.2927H55.0244C54.8821 22.2927 54.7456 22.3493 54.645 22.4499C54.5443 22.5505 54.4878 22.687 54.4878 22.8293C54.4878 22.9716 54.5443 23.1081 54.645 23.2087C54.7456 23.3094 54.8821 23.3659 55.0244 23.3659H57.1707C58.1665 23.3671 59.1212 23.7633 59.8253 24.4674C60.5294 25.1715 60.9256 26.1262 60.9268 27.122V29.2683C60.9268 29.4106 60.9834 29.5471 61.084 29.6478C61.1846 29.7484 61.3211 29.8049 61.4634 29.8049C61.6057 29.8049 61.7422 29.7484 61.8428 29.6478C61.9435 29.5471 62 29.4106 62 29.2683V27.122C61.9984 25.8417 61.4891 24.6143 60.5838 23.7089C59.6785 22.8036 58.451 22.2943 57.1707 22.2927Z" stroke="#FBFDFA" stroke-width="0.4"></path><path d="M61.4634 50.1952C61.3211 50.1952 61.1846 50.2517 61.084 50.3523C60.9834 50.453 60.9268 50.5894 60.9268 50.7317V52.8781C60.9256 53.8739 60.5294 54.8285 59.8253 55.5327C59.1212 56.2368 58.1665 56.6329 57.1707 56.6342H55.0244C54.8821 56.6342 54.7456 56.6907 54.645 56.7913C54.5443 56.892 54.4878 57.0285 54.4878 57.1708C54.4878 57.3131 54.5443 57.4496 54.645 57.5502C54.7456 57.6508 54.8821 57.7074 55.0244 57.7074H57.1707C58.451 57.7058 59.6785 57.1965 60.5838 56.2911C61.4891 55.3858 61.9984 54.1584 62 52.8781V50.7317C62 50.5894 61.9435 50.453 61.8428 50.3523C61.7422 50.2517 61.6057 50.1952 61.4634 50.1952Z" stroke="#FBFDFA" stroke-width="0.4"></path><path d="M24.9756 56.6342H22.8293C21.8335 56.6329 20.8788 56.2368 20.1747 55.5327C19.4706 54.8285 19.0744 53.8739 19.0732 52.8781V50.7317C19.0732 50.5894 19.0166 50.453 18.916 50.3523C18.8154 50.2517 18.6789 50.1952 18.5366 50.1952C18.3943 50.1952 18.2578 50.2517 18.1572 50.3523C18.0565 50.453 18 50.5894 18 50.7317V52.8781C18.0016 54.1584 18.5109 55.3858 19.4162 56.2911C20.3215 57.1965 21.549 57.7058 22.8293 57.7074H24.9756C25.1179 57.7074 25.2544 57.6508 25.355 57.5502C25.4557 57.4496 25.5122 57.3131 25.5122 57.1708C25.5122 57.0285 25.4557 56.892 25.355 56.7913C25.2544 56.6907 25.1179 56.6342 24.9756 56.6342Z" stroke="#FBFDFA" stroke-width="0.4"></path><path d="M18.5366 29.8049C18.6789 29.8049 18.8154 29.7484 18.916 29.6478C19.0166 29.5471 19.0732 29.4106 19.0732 29.2683V27.122C19.0744 26.1262 19.4706 25.1715 20.1747 24.4674C20.8788 23.7633 21.8335 23.3671 22.8293 23.3659H24.9756C25.1179 23.3659 25.2544 23.3094 25.355 23.2087C25.4557 23.1081 25.5122 22.9716 25.5122 22.8293C25.5122 22.687 25.4557 22.5505 25.355 22.4499C25.2544 22.3493 25.1179 22.2927 24.9756 22.2927H22.8293C21.549 22.2943 20.3215 22.8036 19.4162 23.7089C18.5109 24.6143 18.0016 25.8417 18 27.122V29.2683C18 29.4106 18.0565 29.5471 18.1572 29.6478C18.2578 29.7484 18.3943 29.8049 18.5366 29.8049Z" stroke="#FBFDFA" stroke-width="0.4"></path><path d="M57.1707 44.8293C57.313 44.8293 57.4495 44.7728 57.5502 44.6721C57.6508 44.5715 57.7073 44.435 57.7073 44.2927C57.7073 44.1504 57.6508 44.0139 57.5502 43.9133C57.4495 43.8127 57.313 43.7561 57.1707 43.7561H51.2683V40C51.2683 39.8577 51.2118 39.7212 51.1111 39.6206C51.0105 39.52 50.874 39.4635 50.7317 39.4635C50.5894 39.4635 50.4529 39.52 50.3523 39.6206C50.2517 39.7212 50.1951 39.8577 50.1951 40V43.7561H44.775C44.7274 43.2759 44.6076 42.8055 44.4195 42.361L45.8438 41.5381C45.9077 41.5044 45.964 41.4581 46.0095 41.4021C46.055 41.3461 46.0888 41.2815 46.1088 41.2121C46.1287 41.1428 46.1345 41.0701 46.1257 40.9985C46.1169 40.9268 46.0938 40.8577 46.0577 40.7952C46.0216 40.7327 45.9732 40.6782 45.9156 40.6348C45.8579 40.5914 45.792 40.5601 45.722 40.5428C45.6519 40.5255 45.5791 40.5225 45.5078 40.5339C45.4365 40.5454 45.3683 40.5712 45.3073 40.6096L43.8735 41.4381C43.5353 40.9747 43.1176 40.5751 42.6398 40.2576C42.6598 40.1728 42.6742 40.0868 42.6827 40C42.6827 39.2885 42.4 38.6061 41.8969 38.1029C41.3938 37.5998 40.7113 37.3171 39.9998 37.3171C39.2882 37.3171 38.6058 37.5998 38.1027 38.1029C37.5995 38.6061 37.3169 39.2885 37.3169 40C37.3254 40.0868 37.3398 40.1728 37.3598 40.2576C36.882 40.5751 36.4643 40.9747 36.1261 41.4381L34.6923 40.6096C34.6312 40.5712 34.563 40.5454 34.4918 40.5339C34.4205 40.5225 34.3477 40.5255 34.2776 40.5428C34.2076 40.5601 34.1417 40.5914 34.084 40.6348C34.0263 40.6782 33.978 40.7327 33.9419 40.7952C33.9058 40.8577 33.8826 40.9268 33.8739 40.9985C33.8651 41.0701 33.8708 41.1428 33.8908 41.2121C33.9108 41.2815 33.9445 41.3461 33.99 41.4021C34.0356 41.4581 34.0919 41.5044 34.1557 41.5381L35.58 42.3612C35.3921 42.8057 35.2722 43.2761 35.2246 43.7564H29.8049V35.3395C29.8088 34.9158 29.8846 34.4959 30.029 34.0976H35.7073C36.4187 34.097 37.1007 33.8141 37.6037 33.3111C38.1068 32.8081 38.3896 32.126 38.3902 31.4147C38.3902 31.2724 38.3337 31.1359 38.2331 31.0353C38.1325 30.9346 37.996 30.8781 37.8537 30.8781C37.7113 30.8781 37.5749 30.9346 37.4742 31.0353C37.3736 31.1359 37.3171 31.2724 37.3171 31.4147C37.3165 31.8414 37.1466 32.2505 36.8449 32.5523C36.5431 32.854 36.1341 33.0238 35.7073 33.0244H30.6241C30.7111 32.9052 30.805 32.7911 30.9053 32.6827L36.9754 26.6127C37.0836 26.5129 37.1977 26.4197 37.3171 26.3336V29.2683C37.3171 29.4106 37.3736 29.5471 37.4742 29.6478C37.5749 29.7484 37.7113 29.8049 37.8537 29.8049C37.996 29.8049 38.1325 29.7484 38.2331 29.6478C38.3337 29.5471 38.3902 29.4106 38.3902 29.2683V25.7406C38.7879 25.5947 39.2075 25.5174 39.631 25.5122H46.439C47.4348 25.5135 48.3895 25.9096 49.0936 26.6138C49.7977 27.3179 50.1939 28.2725 50.1951 29.2683V37.8537C50.1951 37.996 50.2517 38.1325 50.3523 38.2331C50.4529 38.3338 50.5894 38.3903 50.7317 38.3903C50.874 38.3903 51.0105 38.3338 51.1111 38.2331C51.2118 38.1325 51.2683 37.996 51.2683 37.8537V29.2683C51.2667 27.988 50.7574 26.7606 49.8521 25.8553C48.9468 24.95 47.7193 24.4407 46.439 24.4391H39.631C38.3511 24.443 37.1242 24.9513 36.2166 25.8539L30.1466 31.924C29.6967 32.3715 29.34 32.9038 29.0971 33.4901C28.8543 34.0763 28.7301 34.7049 28.7317 35.3395V43.7561H22.8293C22.687 43.7561 22.5505 43.8127 22.4498 43.9133C22.3492 44.0139 22.2927 44.1504 22.2927 44.2927C22.2927 44.435 22.3492 44.5715 22.4498 44.6721C22.5505 44.7728 22.687 44.8293 22.8293 44.8293H28.7317V50.7317C28.7333 52.0121 29.2426 53.2395 30.1479 54.1448C31.0532 55.0501 32.2807 55.5594 33.561 55.561H46.439C47.7193 55.5594 48.9468 55.0501 49.8521 54.1448C50.7574 53.2395 51.2667 52.0121 51.2683 50.7317V44.8293H57.1707ZM40 38.3903C40.3782 38.394 40.7426 38.5323 41.0281 38.7804C41.3135 39.0285 41.5013 39.3701 41.5578 39.744C40.5529 39.3699 39.4471 39.3699 38.4422 39.744C38.4987 39.3701 38.6865 39.0285 38.9719 38.7804C39.2574 38.5323 39.6218 38.394 40 38.3903ZM40 40.5366C40.9008 40.5392 41.7706 40.866 42.4504 41.4571C43.1301 42.0483 43.5743 42.8644 43.7018 43.7561H36.2982C36.4257 42.8644 36.8699 42.0483 37.5496 41.4571C38.2294 40.866 39.0992 40.5392 40 40.5366ZM50.1951 50.7317C50.1939 51.7275 49.7977 52.6822 49.0936 53.3863C48.3895 54.0905 47.4348 54.4866 46.439 54.4878H33.561C32.5652 54.4866 31.6105 54.0905 30.9064 53.3863C30.2023 52.6822 29.8061 51.7275 29.8049 50.7317V44.8293H35.2422C35.2959 45.3043 35.4206 45.7686 35.612 46.2066L34.1562 47.0478C34.0923 47.0815 34.036 47.1277 33.9905 47.1838C33.945 47.2398 33.9112 47.3044 33.8912 47.3737C33.8713 47.4431 33.8655 47.5158 33.8743 47.5874C33.8831 47.659 33.9062 47.7282 33.9423 47.7907C33.9784 47.8531 34.0268 47.9077 34.0845 47.9511C34.1421 47.9944 34.208 48.0257 34.278 48.0431C34.3481 48.0604 34.4209 48.0634 34.4922 48.0519C34.5635 48.0405 34.6317 48.0147 34.6927 47.9763L36.1482 47.1353C36.5297 47.6766 37.0194 48.1329 37.5862 48.4753C37.6473 48.5137 37.7155 48.5395 37.7868 48.551C37.858 48.5624 37.9309 48.5594 38.0009 48.5421C38.071 48.5248 38.1368 48.4935 38.1945 48.4501C38.2522 48.4067 38.3006 48.3522 38.3367 48.2897C38.3728 48.2272 38.3959 48.1581 38.4047 48.0864C38.4135 48.0148 38.4077 47.9421 38.3877 47.8728C38.3678 47.8034 38.334 47.7388 38.2885 47.6828C38.243 47.6268 38.1866 47.5805 38.1228 47.5468C37.6365 47.2592 37.2214 46.8654 36.9086 46.3948C36.5958 45.9242 36.3934 45.3891 36.3165 44.8293H43.7027C43.5751 45.7212 43.1308 46.5374 42.4509 47.1286C41.771 47.7198 40.901 48.0464 40 48.0488C39.8577 48.0488 39.7212 48.1054 39.6206 48.206C39.5199 48.3066 39.4634 48.4431 39.4634 48.5854C39.4634 48.7277 39.5199 48.8642 39.6206 48.9648C39.7212 49.0655 39.8577 49.122 40 49.122C40.7553 49.1199 41.4995 48.9401 42.1725 48.5971C42.8454 48.254 43.4281 47.7574 43.8735 47.1474L45.3073 47.9756C45.3683 48.0141 45.4365 48.0398 45.5078 48.0513C45.5791 48.0628 45.6519 48.0597 45.722 48.0424C45.792 48.0251 45.8579 47.9938 45.9156 47.9504C45.9732 47.9071 46.0216 47.8525 46.0577 47.79C46.0938 47.7275 46.1169 47.6584 46.1257 47.5868C46.1345 47.5151 46.1287 47.4424 46.1088 47.3731C46.0888 47.3037 46.055 47.2391 46.0095 47.1831C45.964 47.1271 45.9077 47.0808 45.8438 47.0471L44.4195 46.2244C44.6076 45.7799 44.7274 45.3096 44.775 44.8293H50.1951V50.7317Z" stroke="#FBFDFA" stroke-width="0.4"></path><path d="M46.439 28.7317H42.1463C42.004 28.7317 41.8675 28.7883 41.7669 28.8889C41.6663 28.9895 41.6098 29.126 41.6098 29.2683C41.6098 29.4106 41.6663 29.5471 41.7669 29.6478C41.8675 29.7484 42.004 29.8049 42.1463 29.8049H46.439C46.5813 29.8049 46.7178 29.7484 46.8184 29.6478C46.9191 29.5471 46.9756 29.4106 46.9756 29.2683C46.9756 29.126 46.9191 28.9895 46.8184 28.8889C46.7178 28.7883 46.5813 28.7317 46.439 28.7317Z" stroke="#FBFDFA" stroke-width="0.4"></path><path d="M46.439 30.8781H42.1463C42.004 30.8781 41.8675 30.9346 41.7669 31.0353C41.6663 31.1359 41.6098 31.2724 41.6098 31.4147C41.6098 31.557 41.6663 31.6935 41.7669 31.7941C41.8675 31.8947 42.004 31.9513 42.1463 31.9513H46.439C46.5813 31.9513 46.7178 31.8947 46.8184 31.7941C46.9191 31.6935 46.9756 31.557 46.9756 31.4147C46.9756 31.2724 46.9191 31.1359 46.8184 31.0353C46.7178 30.9346 46.5813 30.8781 46.439 30.8781Z" stroke="#FBFDFA" stroke-width="0.4"></path></svg>