<svg xmlns="http://www.w3.org/2000/svg" width="81" height="80" viewBox="0 0 81 80" fill="none"><rect x="0.332031" width="80" height="80" rx="40" fill="#CA732F"></rect><path d="M36.4209 43.4222H34.9048C34.8614 42.9847 34.7523 42.5561 34.5809 42.1511L35.8786 41.4014C35.9368 41.3706 35.9881 41.3285 36.0296 41.2775C36.0711 41.2264 36.1018 41.1676 36.12 41.1044C36.1382 41.0412 36.1435 40.975 36.1355 40.9097C36.1275 40.8444 36.1064 40.7815 36.0735 40.7245C36.0406 40.6676 35.9965 40.6179 35.944 40.5784C35.8914 40.5388 35.8314 40.5103 35.7676 40.4946C35.7038 40.4788 35.6374 40.476 35.5725 40.4865C35.5076 40.4969 35.4454 40.5204 35.3898 40.5554L34.0834 41.3102C33.7753 40.8881 33.3947 40.5239 32.9594 40.2347C32.9777 40.1574 32.9908 40.079 32.9987 40C32.9987 39.3517 32.7412 38.73 32.2827 38.2715C31.8243 37.8131 31.2026 37.5556 30.5543 37.5556C29.9059 37.5556 29.2842 37.8131 28.8258 38.2715C28.3673 38.73 28.1098 39.3517 28.1098 40C28.1176 40.079 28.1307 40.1574 28.1489 40.2347C27.7136 40.5239 27.333 40.8881 27.0249 41.3102L25.7186 40.5554C25.6629 40.5204 25.6008 40.4969 25.5358 40.4865C25.4709 40.476 25.4046 40.4788 25.3407 40.4946C25.2769 40.5103 25.2169 40.5388 25.1643 40.5784C25.1118 40.6179 25.0677 40.6676 25.0348 40.7245C25.0019 40.7815 24.9808 40.8444 24.9728 40.9097C24.9649 40.975 24.9701 41.0412 24.9883 41.1044C25.0065 41.1676 25.0372 41.2264 25.0787 41.2775C25.1202 41.3285 25.1715 41.3706 25.2297 41.4014L26.5274 42.1513C26.3561 42.5563 26.2469 42.9849 26.2035 43.4224H24.6876C24.5579 43.4224 24.4336 43.4739 24.3419 43.5656C24.2502 43.6573 24.1987 43.7817 24.1987 43.9113C24.1987 44.041 24.2502 44.1653 24.3419 44.257C24.4336 44.3487 24.5579 44.4002 24.6876 44.4002H26.2037C26.247 44.8378 26.356 45.2663 26.5272 45.6713L25.2299 46.4209C25.1717 46.4516 25.1204 46.4938 25.0789 46.5448C25.0374 46.5958 25.0067 46.6547 24.9885 46.7179C24.9703 46.7811 24.965 46.8473 24.973 46.9126C24.981 46.9778 25.0021 47.0408 25.035 47.0977C25.0679 47.1547 25.112 47.2044 25.1645 47.2439C25.2171 47.2834 25.2771 47.3119 25.3409 47.3277C25.4048 47.3435 25.4711 47.3463 25.536 47.3358C25.601 47.3253 25.6631 47.3019 25.7188 47.2669L27.0247 46.5124C27.4293 47.0696 27.96 47.5232 28.5735 47.8359C29.187 48.1486 29.8658 48.3116 30.5544 48.3116C31.2431 48.3116 31.9219 48.1486 32.5354 47.8359C33.1489 47.5232 33.6796 47.0696 34.0842 46.5124L35.3901 47.2669C35.4458 47.3019 35.5079 47.3253 35.5729 47.3358C35.6378 47.3463 35.7041 47.3435 35.768 47.3277C35.8318 47.3119 35.8918 47.2834 35.9444 47.2439C35.9969 47.2044 36.041 47.1547 36.0739 47.0977C36.1068 47.0408 36.1279 46.9778 36.1359 46.9126C36.1438 46.8473 36.1386 46.7811 36.1204 46.7179C36.1022 46.6547 36.0715 46.5958 36.03 46.5448C35.9885 46.4938 35.9372 46.4516 35.879 46.4209L34.5813 45.6711C34.7525 45.2661 34.8615 44.8376 34.9048 44.4H36.4209C36.5506 44.4 36.6749 44.3485 36.7666 44.2568C36.8583 44.1651 36.9098 44.0408 36.9098 43.9111C36.9098 43.7815 36.8583 43.6571 36.7666 43.5654C36.6749 43.4737 36.5506 43.4222 36.4209 43.4222ZM30.5543 38.5334C30.8988 38.5368 31.2309 38.6628 31.4909 38.8888C31.751 39.1148 31.9221 39.426 31.9736 39.7667C31.0581 39.4259 30.0505 39.4259 29.1349 39.7667C29.1864 39.426 29.3575 39.1148 29.6176 38.8888C29.8777 38.6628 30.2097 38.5368 30.5543 38.5334ZM30.5543 47.3334C29.8774 47.3334 29.2157 47.1326 28.653 46.7566C28.0902 46.3806 27.6516 45.8461 27.3925 45.2208C27.1335 44.5954 27.0657 43.9073 27.1978 43.2435C27.3298 42.5796 27.6558 41.9699 28.1344 41.4913C28.613 41.0126 29.2228 40.6867 29.8866 40.5547C30.5505 40.4226 31.2386 40.4904 31.8639 40.7494C32.4892 41.0084 33.0237 41.4471 33.3997 42.0098C33.7758 42.5726 33.9765 43.2343 33.9765 43.9111C33.9753 44.8184 33.6144 45.6882 32.9729 46.3298C32.3313 46.9713 31.4615 47.3322 30.5543 47.3334Z" fill="#FBFDFA"></path><path d="M60.8654 53.2H58.7074C59.2255 52.7922 59.6447 52.2726 59.9337 51.68C60.2227 51.0874 60.3741 50.4371 60.3765 49.7778V30.2222C60.375 29.0557 59.911 27.9374 59.0861 27.1126C58.2613 26.2877 57.143 25.8237 55.9765 25.8222H48.6052C48.5185 25.5879 48.3739 25.3793 48.1848 25.216C48.031 25.0864 47.8511 24.9913 47.6574 24.9373C47.4636 24.8834 47.2605 24.8717 47.0619 24.9031C46.1697 25.0437 45.2568 24.9686 44.3996 24.6841C43.2535 24.2889 42.2652 23.5352 41.5809 22.5346C41.4474 22.3438 41.2703 22.1878 41.0644 22.0793C40.8584 21.9709 40.6295 21.9132 40.3968 21.9111C40.1677 21.9167 39.9427 21.9729 39.738 22.0757C39.5332 22.1786 39.3538 22.3255 39.2127 22.506C38.4716 23.5122 37.444 24.2714 36.2645 24.6841C35.4085 24.9701 34.4963 25.0458 33.6049 24.9047C33.406 24.875 33.203 24.8875 33.0092 24.9414C32.8154 24.9953 32.6351 25.0894 32.4801 25.2176C32.291 25.3809 32.1464 25.5895 32.0596 25.8238H24.6876C23.5213 25.8253 22.4033 26.2891 21.5785 27.1136C20.7537 27.9381 20.2894 29.056 20.2876 30.2222V49.7778C20.29 50.4371 20.4414 51.0874 20.7304 51.68C21.0194 52.2726 21.4386 52.7922 21.9567 53.2H19.7987C19.4099 53.2006 19.0372 53.3553 18.7622 53.6302C18.4873 53.9052 18.3326 54.2779 18.332 54.6667C18.3332 55.574 18.6941 56.4438 19.3356 57.0853C19.9772 57.7268 20.847 58.0878 21.7543 58.0889H24.6876C24.8172 58.0889 24.9416 58.0374 25.0333 57.9457C25.125 57.854 25.1765 57.7297 25.1765 57.6C25.1765 57.4704 25.125 57.346 25.0333 57.2543C24.9416 57.1626 24.8172 57.1111 24.6876 57.1111H21.7543C21.1061 57.1106 20.4847 56.8528 20.0264 56.3945C19.5681 55.9362 19.3104 55.3148 19.3098 54.6667C19.3098 54.537 19.3613 54.4127 19.453 54.321C19.5447 54.2293 19.669 54.1778 19.7987 54.1778H60.8654C60.995 54.1778 61.1194 54.2293 61.2111 54.321C61.3027 54.4127 61.3543 54.537 61.3543 54.6667C61.3537 55.3148 61.096 55.9362 60.6377 56.3945C60.1794 56.8528 59.5579 57.1106 58.9098 57.1111H26.6431C26.5135 57.1111 26.3891 57.1626 26.2974 57.2543C26.2058 57.346 26.1543 57.4704 26.1543 57.6C26.1543 57.7297 26.2058 57.854 26.2974 57.9457C26.3891 58.0374 26.5135 58.0889 26.6431 58.0889H58.9098C59.8171 58.0878 60.6869 57.7268 61.3284 57.0853C61.97 56.4438 62.3309 55.574 62.332 54.6667C62.3315 54.2779 62.1768 53.9052 61.9018 53.6302C61.6269 53.3553 61.2542 53.2006 60.8654 53.2ZM24.6876 53.2C23.7803 53.1989 22.9105 52.838 22.269 52.1964C21.6274 51.5549 21.2665 50.6851 21.2654 49.7778V30.2222C21.2665 29.315 21.6274 28.4452 22.269 27.8036C22.9105 27.1621 23.7803 26.8012 24.6876 26.8H31.9286C31.9228 27.1258 31.9161 27.4514 31.9286 27.7778H24.6876C24.0395 27.7784 23.418 28.0361 22.9597 28.4944C22.5014 28.9527 22.2437 29.5741 22.2431 30.2222V47.8222C22.2437 48.4704 22.5014 49.0918 22.9597 49.5501C23.418 50.0084 24.0395 50.2661 24.6876 50.2667H48.1543C48.2839 50.2667 48.4083 50.2152 48.5 50.1235C48.5916 50.0318 48.6431 49.9075 48.6431 49.7778C48.6431 49.6481 48.5916 49.5238 48.5 49.4321C48.4083 49.3404 48.2839 49.2889 48.1543 49.2889H24.6876C24.2988 49.2883 23.9261 49.1336 23.6511 48.8587C23.3762 48.5838 23.2215 48.2111 23.2209 47.8222V30.2222C23.2215 29.8334 23.3762 29.4607 23.6511 29.1858C23.9261 28.9109 24.2988 28.7561 24.6876 28.7556H31.999C32.0098 28.8741 32.0115 28.9936 32.0248 29.1117C32.1452 30.1971 32.3625 31.2696 32.6741 32.3163C32.689 32.3814 32.717 32.4427 32.7566 32.4966C32.7961 32.5504 32.8462 32.5956 32.9039 32.6293C32.9615 32.663 33.0255 32.6845 33.0918 32.6926C33.1581 32.7006 33.2253 32.695 33.2894 32.6761C33.3534 32.6571 33.4129 32.6252 33.4642 32.5824C33.5154 32.5396 33.5573 32.4867 33.5874 32.427C33.6174 32.3674 33.6349 32.3022 33.6387 32.2355C33.6426 32.1688 33.6327 32.1021 33.6098 32.0393C33.3165 31.0475 33.1107 30.0318 32.9948 29.0039C32.8975 28.1255 32.8688 27.2408 32.9089 26.3579C32.912 26.2838 32.9306 26.2112 32.9636 26.1448C32.9965 26.0784 33.0429 26.0196 33.1 25.9722C33.1494 25.9317 33.2066 25.9018 33.268 25.8844C33.3294 25.867 33.3938 25.8624 33.4571 25.8709C34.503 26.0361 35.5733 25.9466 36.5774 25.6103C37.9458 25.1327 39.1385 24.2535 39.9996 23.0876C40.0426 23.0258 40.1 22.9754 40.1669 22.9407C40.2338 22.9061 40.3081 22.8883 40.3835 22.8889H40.3872C40.4653 22.8902 40.542 22.9102 40.6108 22.9473C40.6796 22.9844 40.7385 23.0374 40.7826 23.1019C41.5904 24.267 42.7474 25.1453 44.0867 25.6103C45.0912 25.9481 46.1625 26.0376 47.2091 25.8709C47.2721 25.861 47.3365 25.8649 47.3979 25.8824C47.4592 25.8999 47.516 25.9305 47.5643 25.9722C47.6214 26.0197 47.6679 26.0786 47.7009 26.1452C47.7338 26.2118 47.7523 26.2846 47.7553 26.3588C47.7954 27.2417 47.7667 28.1263 47.6695 29.0047C47.2043 32.6583 45.6943 36.0999 43.3209 38.9163C42.9534 39.3507 42.4957 39.6998 41.9795 39.9392C41.4634 40.1787 40.9012 40.3027 40.3322 40.3027C39.7632 40.3027 39.2011 40.1787 38.6849 39.9392C38.1688 39.6998 37.711 39.3507 37.3436 38.9163C36.0953 37.413 35.07 35.7378 34.2991 33.9423C34.2485 33.8228 34.1524 33.7283 34.0321 33.6796C33.9117 33.6309 33.7769 33.632 33.6574 33.6827C33.5379 33.7334 33.4434 33.8294 33.3947 33.9498C33.346 34.0701 33.3472 34.2049 33.3978 34.3244C34.2068 36.2052 35.2808 37.9605 36.5871 39.5369C37.0465 40.0831 37.6197 40.5221 38.2666 40.8233C38.9135 41.1245 39.6184 41.2806 40.332 41.2806C41.0456 41.2806 41.7506 41.1245 42.3975 40.8233C43.0444 40.5221 43.6176 40.0831 44.0769 39.5369C46.5716 36.5752 48.1561 32.9548 48.6392 29.1127C48.6525 28.9942 48.6543 28.8745 48.6652 28.7556H55.9765C56.3653 28.7561 56.738 28.9109 57.0129 29.1858C57.2879 29.4607 57.4426 29.8334 57.4431 30.2222V47.8222C57.4426 48.2111 57.2879 48.5838 57.0129 48.8587C56.738 49.1336 56.3653 49.2883 55.9765 49.2889H50.1098C49.9801 49.2889 49.8558 49.3404 49.7641 49.4321C49.6724 49.5238 49.6209 49.6481 49.6209 49.7778C49.6209 49.9075 49.6724 50.0318 49.7641 50.1235C49.8558 50.2152 49.9801 50.2667 50.1098 50.2667H55.9765C56.6246 50.2661 57.246 50.0084 57.7043 49.5501C58.1626 49.0918 58.4203 48.4704 58.4209 47.8222V30.2222C58.4203 29.5741 58.1626 28.9527 57.7043 28.4944C57.246 28.0361 56.6246 27.7784 55.9765 27.7778H48.7358C48.748 27.451 48.7413 27.1258 48.7358 26.8H55.9765C56.8838 26.8012 57.7536 27.1621 58.3951 27.8036C59.0366 28.4452 59.3976 29.315 59.3987 30.2222V49.7778C59.3976 50.6851 59.0366 51.5549 58.3951 52.1964C57.7536 52.838 56.8838 53.1989 55.9765 53.2H24.6876Z" fill="#FBFDFA"></path><path d="M42.2876 56.1334C42.4172 56.1334 42.5416 56.0818 42.6333 55.9902C42.725 55.8985 42.7765 55.7741 42.7765 55.6445C42.7765 55.5148 42.725 55.3905 42.6333 55.2988C42.5416 55.2071 42.4172 55.1556 42.2876 55.1556H38.3765C38.2468 55.1556 38.1225 55.2071 38.0308 55.2988C37.9391 55.3905 37.8876 55.5148 37.8876 55.6445C37.8876 55.7741 37.9391 55.8985 38.0308 55.9902C38.1225 56.0818 38.2468 56.1334 38.3765 56.1334H42.2876Z" fill="#FBFDFA"></path><path d="M44.2431 44.4H55.9765C56.1061 44.4 56.2305 44.3485 56.3222 44.2568C56.4139 44.1651 56.4654 44.0408 56.4654 43.9111C56.4654 43.7815 56.4139 43.6571 56.3222 43.5654C56.2305 43.4737 56.1061 43.4222 55.9765 43.4222H44.2431C44.1135 43.4222 43.9891 43.4737 43.8974 43.5654C43.8058 43.6571 43.7543 43.7815 43.7543 43.9111C43.7543 44.0408 43.8058 44.1651 43.8974 44.2568C43.9891 44.3485 44.1135 44.4 44.2431 44.4Z" fill="#FBFDFA"></path><path d="M44.2431 42.4445H52.0654C52.195 42.4445 52.3194 42.393 52.4111 42.3013C52.5027 42.2096 52.5543 42.0852 52.5543 41.9556C52.5543 41.8259 52.5027 41.7016 52.4111 41.6099C52.3194 41.5182 52.195 41.4667 52.0654 41.4667H44.2431C44.1135 41.4667 43.9891 41.5182 43.8974 41.6099C43.8058 41.7016 43.7543 41.8259 43.7543 41.9556C43.7543 42.0852 43.8058 42.2096 43.8974 42.3013C43.9891 42.393 44.1135 42.4445 44.2431 42.4445Z" fill="#FBFDFA"></path><path d="M48.1543 45.3778H44.2431C44.1135 45.3778 43.9891 45.4293 43.8974 45.521C43.8058 45.6127 43.7543 45.737 43.7543 45.8667C43.7543 45.9963 43.8058 46.1207 43.8974 46.2124C43.9891 46.3041 44.1135 46.3556 44.2431 46.3556H48.1543C48.2839 46.3556 48.4083 46.3041 48.5 46.2124C48.5916 46.1207 48.6431 45.9963 48.6431 45.8667C48.6431 45.737 48.5916 45.6127 48.5 45.521C48.4083 45.4293 48.2839 45.3778 48.1543 45.3778Z" fill="#FBFDFA"></path><path d="M38.3178 33.2062C38.5934 33.4801 38.9662 33.6339 39.3548 33.6339C39.7434 33.6339 40.1162 33.4801 40.3919 33.2062L43.6117 29.9864C43.6574 29.9411 43.6937 29.8872 43.7185 29.8278C43.7434 29.7684 43.7562 29.7046 43.7564 29.6402C43.7565 29.5759 43.7439 29.5121 43.7193 29.4526C43.6947 29.3931 43.6586 29.339 43.6131 29.2935C43.5676 29.248 43.5135 29.2119 43.454 29.1873C43.3945 29.1628 43.3307 29.1502 43.2663 29.1504C43.2019 29.1505 43.1382 29.1634 43.0788 29.1882C43.0194 29.2131 42.9655 29.2494 42.9202 29.2951L39.7 32.5149C39.6078 32.6058 39.4836 32.6567 39.3543 32.6567C39.2249 32.6567 39.1007 32.6058 39.0085 32.5149L37.7444 31.2507C37.6526 31.1596 37.5285 31.1087 37.3992 31.1089C37.2699 31.1092 37.146 31.1607 37.0546 31.2521C36.9631 31.3435 36.9116 31.4674 36.9113 31.5967C36.911 31.726 36.9619 31.8501 37.053 31.942L38.3178 33.2062Z" fill="#FBFDFA"></path><path d="M36.4209 43.4222H34.9048C34.8614 42.9847 34.7523 42.5561 34.5809 42.1511L35.8786 41.4014C35.9368 41.3706 35.9881 41.3285 36.0296 41.2775C36.0711 41.2264 36.1018 41.1676 36.12 41.1044C36.1382 41.0412 36.1435 40.975 36.1355 40.9097C36.1275 40.8444 36.1064 40.7815 36.0735 40.7245C36.0406 40.6676 35.9965 40.6179 35.944 40.5784C35.8914 40.5388 35.8314 40.5103 35.7676 40.4946C35.7038 40.4788 35.6374 40.476 35.5725 40.4865C35.5076 40.4969 35.4454 40.5204 35.3898 40.5554L34.0834 41.3102C33.7753 40.8881 33.3947 40.5239 32.9594 40.2347C32.9777 40.1574 32.9908 40.079 32.9987 40C32.9987 39.3517 32.7412 38.73 32.2827 38.2715C31.8243 37.8131 31.2026 37.5556 30.5543 37.5556C29.9059 37.5556 29.2842 37.8131 28.8258 38.2715C28.3673 38.73 28.1098 39.3517 28.1098 40C28.1176 40.079 28.1307 40.1574 28.1489 40.2347C27.7136 40.5239 27.333 40.8881 27.0249 41.3102L25.7186 40.5554C25.6629 40.5204 25.6008 40.4969 25.5358 40.4865C25.4709 40.476 25.4046 40.4788 25.3407 40.4946C25.2769 40.5103 25.2169 40.5388 25.1643 40.5784C25.1118 40.6179 25.0677 40.6676 25.0348 40.7245C25.0019 40.7815 24.9808 40.8444 24.9728 40.9097C24.9649 40.975 24.9701 41.0412 24.9883 41.1044C25.0065 41.1676 25.0372 41.2264 25.0787 41.2775C25.1202 41.3285 25.1715 41.3706 25.2297 41.4014L26.5274 42.1513C26.3561 42.5563 26.2469 42.9849 26.2035 43.4224H24.6876C24.5579 43.4224 24.4336 43.4739 24.3419 43.5656C24.2502 43.6573 24.1987 43.7817 24.1987 43.9113C24.1987 44.041 24.2502 44.1653 24.3419 44.257C24.4336 44.3487 24.5579 44.4002 24.6876 44.4002H26.2037C26.247 44.8378 26.356 45.2663 26.5272 45.6713L25.2299 46.4209C25.1717 46.4516 25.1204 46.4938 25.0789 46.5448C25.0374 46.5958 25.0067 46.6547 24.9885 46.7179C24.9703 46.7811 24.965 46.8473 24.973 46.9126C24.981 46.9778 25.0021 47.0408 25.035 47.0977C25.0679 47.1547 25.112 47.2044 25.1645 47.2439C25.2171 47.2834 25.2771 47.3119 25.3409 47.3277C25.4048 47.3435 25.4711 47.3463 25.536 47.3358C25.601 47.3253 25.6631 47.3019 25.7188 47.2669L27.0247 46.5124C27.4293 47.0696 27.96 47.5232 28.5735 47.8359C29.187 48.1486 29.8658 48.3116 30.5544 48.3116C31.2431 48.3116 31.9219 48.1486 32.5354 47.8359C33.1489 47.5232 33.6796 47.0696 34.0842 46.5124L35.3901 47.2669C35.4458 47.3019 35.5079 47.3253 35.5729 47.3358C35.6378 47.3463 35.7041 47.3435 35.768 47.3277C35.8318 47.3119 35.8918 47.2834 35.9444 47.2439C35.9969 47.2044 36.041 47.1547 36.0739 47.0977C36.1068 47.0408 36.1279 46.9778 36.1359 46.9126C36.1438 46.8473 36.1386 46.7811 36.1204 46.7179C36.1022 46.6547 36.0715 46.5958 36.03 46.5448C35.9885 46.4938 35.9372 46.4516 35.879 46.4209L34.5813 45.6711C34.7525 45.2661 34.8615 44.8376 34.9048 44.4H36.4209C36.5506 44.4 36.6749 44.3485 36.7666 44.2568C36.8583 44.1651 36.9098 44.0408 36.9098 43.9111C36.9098 43.7815 36.8583 43.6571 36.7666 43.5654C36.6749 43.4737 36.5506 43.4222 36.4209 43.4222ZM30.5543 38.5334C30.8988 38.5368 31.2309 38.6628 31.4909 38.8888C31.751 39.1148 31.9221 39.426 31.9736 39.7667C31.0581 39.4259 30.0505 39.4259 29.1349 39.7667C29.1864 39.426 29.3575 39.1148 29.6176 38.8888C29.8777 38.6628 30.2097 38.5368 30.5543 38.5334ZM30.5543 47.3334C29.8774 47.3334 29.2157 47.1326 28.653 46.7566C28.0902 46.3806 27.6516 45.8461 27.3925 45.2208C27.1335 44.5954 27.0657 43.9073 27.1978 43.2435C27.3298 42.5796 27.6558 41.9699 28.1344 41.4913C28.613 41.0126 29.2228 40.6867 29.8866 40.5547C30.5505 40.4226 31.2386 40.4904 31.8639 40.7494C32.4892 41.0084 33.0237 41.4471 33.3997 42.0098C33.7758 42.5726 33.9765 43.2343 33.9765 43.9111C33.9753 44.8184 33.6144 45.6882 32.9729 46.3298C32.3313 46.9713 31.4615 47.3322 30.5543 47.3334Z" stroke="#FBFDFA" stroke-width="0.4"></path><path d="M60.8654 53.2H58.7074C59.2255 52.7922 59.6447 52.2726 59.9337 51.68C60.2227 51.0874 60.3741 50.4371 60.3765 49.7778V30.2222C60.375 29.0557 59.911 27.9374 59.0861 27.1126C58.2613 26.2877 57.143 25.8237 55.9765 25.8222H48.6052C48.5185 25.5879 48.3739 25.3793 48.1848 25.216C48.031 25.0864 47.8511 24.9913 47.6574 24.9373C47.4636 24.8834 47.2605 24.8717 47.0619 24.9031C46.1697 25.0437 45.2568 24.9686 44.3996 24.6841C43.2535 24.2889 42.2652 23.5352 41.5809 22.5346C41.4474 22.3438 41.2703 22.1878 41.0644 22.0793C40.8584 21.9709 40.6295 21.9132 40.3968 21.9111C40.1677 21.9167 39.9427 21.9729 39.738 22.0757C39.5332 22.1786 39.3538 22.3255 39.2127 22.506C38.4716 23.5122 37.444 24.2714 36.2645 24.6841C35.4085 24.9701 34.4963 25.0458 33.6049 24.9047C33.406 24.875 33.203 24.8875 33.0092 24.9414C32.8154 24.9953 32.6351 25.0894 32.4801 25.2176C32.291 25.3809 32.1464 25.5895 32.0596 25.8238H24.6876C23.5213 25.8253 22.4033 26.2891 21.5785 27.1136C20.7537 27.9381 20.2894 29.056 20.2876 30.2222V49.7778C20.29 50.4371 20.4414 51.0874 20.7304 51.68C21.0194 52.2726 21.4386 52.7922 21.9567 53.2H19.7987C19.4099 53.2006 19.0372 53.3553 18.7622 53.6302C18.4873 53.9052 18.3326 54.2779 18.332 54.6667C18.3332 55.574 18.6941 56.4438 19.3356 57.0853C19.9772 57.7268 20.847 58.0878 21.7543 58.0889H24.6876C24.8172 58.0889 24.9416 58.0374 25.0333 57.9457C25.125 57.854 25.1765 57.7297 25.1765 57.6C25.1765 57.4704 25.125 57.346 25.0333 57.2543C24.9416 57.1626 24.8172 57.1111 24.6876 57.1111H21.7543C21.1061 57.1106 20.4847 56.8528 20.0264 56.3945C19.5681 55.9362 19.3104 55.3148 19.3098 54.6667C19.3098 54.537 19.3613 54.4127 19.453 54.321C19.5447 54.2293 19.669 54.1778 19.7987 54.1778H60.8654C60.995 54.1778 61.1194 54.2293 61.2111 54.321C61.3027 54.4127 61.3543 54.537 61.3543 54.6667C61.3537 55.3148 61.096 55.9362 60.6377 56.3945C60.1794 56.8528 59.5579 57.1106 58.9098 57.1111H26.6431C26.5135 57.1111 26.3891 57.1626 26.2974 57.2543C26.2058 57.346 26.1543 57.4704 26.1543 57.6C26.1543 57.7297 26.2058 57.854 26.2974 57.9457C26.3891 58.0374 26.5135 58.0889 26.6431 58.0889H58.9098C59.8171 58.0878 60.6869 57.7268 61.3284 57.0853C61.97 56.4438 62.3309 55.574 62.332 54.6667C62.3315 54.2779 62.1768 53.9052 61.9018 53.6302C61.6269 53.3553 61.2542 53.2006 60.8654 53.2ZM24.6876 53.2C23.7803 53.1989 22.9105 52.838 22.269 52.1964C21.6274 51.5549 21.2665 50.6851 21.2654 49.7778V30.2222C21.2665 29.315 21.6274 28.4452 22.269 27.8036C22.9105 27.1621 23.7803 26.8012 24.6876 26.8H31.9286C31.9228 27.1258 31.9161 27.4514 31.9286 27.7778H24.6876C24.0395 27.7784 23.418 28.0361 22.9597 28.4944C22.5014 28.9527 22.2437 29.5741 22.2431 30.2222V47.8222C22.2437 48.4704 22.5014 49.0918 22.9597 49.5501C23.418 50.0084 24.0395 50.2661 24.6876 50.2667H48.1543C48.2839 50.2667 48.4083 50.2152 48.5 50.1235C48.5916 50.0318 48.6431 49.9075 48.6431 49.7778C48.6431 49.6481 48.5916 49.5238 48.5 49.4321C48.4083 49.3404 48.2839 49.2889 48.1543 49.2889H24.6876C24.2988 49.2883 23.9261 49.1336 23.6511 48.8587C23.3762 48.5838 23.2215 48.2111 23.2209 47.8222V30.2222C23.2215 29.8334 23.3762 29.4607 23.6511 29.1858C23.9261 28.9109 24.2988 28.7561 24.6876 28.7556H31.999C32.0098 28.8741 32.0115 28.9936 32.0248 29.1117C32.1452 30.1971 32.3625 31.2696 32.6741 32.3163C32.689 32.3814 32.717 32.4427 32.7566 32.4966C32.7961 32.5504 32.8462 32.5956 32.9039 32.6293C32.9615 32.663 33.0255 32.6845 33.0918 32.6926C33.1581 32.7006 33.2253 32.695 33.2894 32.6761C33.3534 32.6571 33.4129 32.6252 33.4642 32.5824C33.5154 32.5396 33.5573 32.4867 33.5874 32.427C33.6174 32.3674 33.6349 32.3022 33.6387 32.2355C33.6426 32.1688 33.6327 32.1021 33.6098 32.0393C33.3165 31.0475 33.1107 30.0318 32.9948 29.0039C32.8975 28.1255 32.8688 27.2408 32.9089 26.3579C32.912 26.2838 32.9306 26.2112 32.9636 26.1448C32.9965 26.0784 33.0429 26.0196 33.1 25.9722C33.1494 25.9317 33.2066 25.9018 33.268 25.8844C33.3294 25.867 33.3938 25.8624 33.4571 25.8709C34.503 26.0361 35.5733 25.9466 36.5774 25.6103C37.9458 25.1327 39.1385 24.2535 39.9996 23.0876C40.0426 23.0258 40.1 22.9754 40.1669 22.9407C40.2338 22.9061 40.3081 22.8883 40.3835 22.8889H40.3872C40.4653 22.8902 40.542 22.9102 40.6108 22.9473C40.6796 22.9844 40.7385 23.0374 40.7826 23.1019C41.5904 24.267 42.7474 25.1453 44.0867 25.6103C45.0912 25.9481 46.1625 26.0376 47.2091 25.8709C47.2721 25.861 47.3365 25.8649 47.3979 25.8824C47.4592 25.8999 47.516 25.9305 47.5643 25.9722C47.6214 26.0197 47.6679 26.0786 47.7009 26.1452C47.7338 26.2118 47.7523 26.2846 47.7553 26.3588C47.7954 27.2417 47.7667 28.1263 47.6695 29.0047C47.2043 32.6583 45.6943 36.0999 43.3209 38.9163C42.9534 39.3507 42.4957 39.6998 41.9795 39.9392C41.4634 40.1787 40.9012 40.3027 40.3322 40.3027C39.7632 40.3027 39.2011 40.1787 38.6849 39.9392C38.1688 39.6998 37.711 39.3507 37.3436 38.9163C36.0953 37.413 35.07 35.7378 34.2991 33.9423C34.2485 33.8228 34.1524 33.7283 34.0321 33.6796C33.9117 33.6309 33.7769 33.632 33.6574 33.6827C33.5379 33.7334 33.4434 33.8294 33.3947 33.9498C33.346 34.0701 33.3472 34.2049 33.3978 34.3244C34.2068 36.2052 35.2808 37.9605 36.5871 39.5369C37.0465 40.0831 37.6197 40.5221 38.2666 40.8233C38.9135 41.1245 39.6184 41.2806 40.332 41.2806C41.0456 41.2806 41.7506 41.1245 42.3975 40.8233C43.0444 40.5221 43.6176 40.0831 44.0769 39.5369C46.5716 36.5752 48.1561 32.9548 48.6392 29.1127C48.6525 28.9942 48.6543 28.8745 48.6652 28.7556H55.9765C56.3653 28.7561 56.738 28.9109 57.0129 29.1858C57.2879 29.4607 57.4426 29.8334 57.4431 30.2222V47.8222C57.4426 48.2111 57.2879 48.5838 57.0129 48.8587C56.738 49.1336 56.3653 49.2883 55.9765 49.2889H50.1098C49.9801 49.2889 49.8558 49.3404 49.7641 49.4321C49.6724 49.5238 49.6209 49.6481 49.6209 49.7778C49.6209 49.9075 49.6724 50.0318 49.7641 50.1235C49.8558 50.2152 49.9801 50.2667 50.1098 50.2667H55.9765C56.6246 50.2661 57.246 50.0084 57.7043 49.5501C58.1626 49.0918 58.4203 48.4704 58.4209 47.8222V30.2222C58.4203 29.5741 58.1626 28.9527 57.7043 28.4944C57.246 28.0361 56.6246 27.7784 55.9765 27.7778H48.7358C48.748 27.451 48.7413 27.1258 48.7358 26.8H55.9765C56.8838 26.8012 57.7536 27.1621 58.3951 27.8036C59.0366 28.4452 59.3976 29.315 59.3987 30.2222V49.7778C59.3976 50.6851 59.0366 51.5549 58.3951 52.1964C57.7536 52.838 56.8838 53.1989 55.9765 53.2H24.6876Z" stroke="#FBFDFA" stroke-width="0.4"></path><path d="M42.2876 56.1334C42.4172 56.1334 42.5416 56.0818 42.6333 55.9902C42.725 55.8985 42.7765 55.7741 42.7765 55.6445C42.7765 55.5148 42.725 55.3905 42.6333 55.2988C42.5416 55.2071 42.4172 55.1556 42.2876 55.1556H38.3765C38.2468 55.1556 38.1225 55.2071 38.0308 55.2988C37.9391 55.3905 37.8876 55.5148 37.8876 55.6445C37.8876 55.7741 37.9391 55.8985 38.0308 55.9902C38.1225 56.0818 38.2468 56.1334 38.3765 56.1334H42.2876Z" stroke="#FBFDFA" stroke-width="0.4"></path><path d="M44.2431 44.4H55.9765C56.1061 44.4 56.2305 44.3485 56.3222 44.2568C56.4139 44.1651 56.4654 44.0408 56.4654 43.9111C56.4654 43.7815 56.4139 43.6571 56.3222 43.5654C56.2305 43.4737 56.1061 43.4222 55.9765 43.4222H44.2431C44.1135 43.4222 43.9891 43.4737 43.8974 43.5654C43.8058 43.6571 43.7543 43.7815 43.7543 43.9111C43.7543 44.0408 43.8058 44.1651 43.8974 44.2568C43.9891 44.3485 44.1135 44.4 44.2431 44.4Z" stroke="#FBFDFA" stroke-width="0.4"></path><path d="M44.2431 42.4445H52.0654C52.195 42.4445 52.3194 42.393 52.4111 42.3013C52.5027 42.2096 52.5543 42.0852 52.5543 41.9556C52.5543 41.8259 52.5027 41.7016 52.4111 41.6099C52.3194 41.5182 52.195 41.4667 52.0654 41.4667H44.2431C44.1135 41.4667 43.9891 41.5182 43.8974 41.6099C43.8058 41.7016 43.7543 41.8259 43.7543 41.9556C43.7543 42.0852 43.8058 42.2096 43.8974 42.3013C43.9891 42.393 44.1135 42.4445 44.2431 42.4445Z" stroke="#FBFDFA" stroke-width="0.4"></path><path d="M48.1543 45.3778H44.2431C44.1135 45.3778 43.9891 45.4293 43.8974 45.521C43.8058 45.6127 43.7543 45.737 43.7543 45.8667C43.7543 45.9963 43.8058 46.1207 43.8974 46.2124C43.9891 46.3041 44.1135 46.3556 44.2431 46.3556H48.1543C48.2839 46.3556 48.4083 46.3041 48.5 46.2124C48.5916 46.1207 48.6431 45.9963 48.6431 45.8667C48.6431 45.737 48.5916 45.6127 48.5 45.521C48.4083 45.4293 48.2839 45.3778 48.1543 45.3778Z" stroke="#FBFDFA" stroke-width="0.4"></path><path d="M38.3178 33.2062C38.5934 33.4801 38.9662 33.6339 39.3548 33.6339C39.7434 33.6339 40.1162 33.4801 40.3919 33.2062L43.6117 29.9864C43.6574 29.9411 43.6937 29.8872 43.7185 29.8278C43.7434 29.7684 43.7562 29.7046 43.7564 29.6402C43.7565 29.5759 43.7439 29.5121 43.7193 29.4526C43.6947 29.3931 43.6586 29.339 43.6131 29.2935C43.5676 29.248 43.5135 29.2119 43.454 29.1873C43.3945 29.1628 43.3307 29.1502 43.2663 29.1504C43.2019 29.1505 43.1382 29.1634 43.0788 29.1882C43.0194 29.2131 42.9655 29.2494 42.9202 29.2951L39.7 32.5149C39.6078 32.6058 39.4836 32.6567 39.3543 32.6567C39.2249 32.6567 39.1007 32.6058 39.0085 32.5149L37.7444 31.2507C37.6526 31.1596 37.5285 31.1087 37.3992 31.1089C37.2699 31.1092 37.146 31.1607 37.0546 31.2521C36.9631 31.3435 36.9116 31.4674 36.9113 31.5967C36.911 31.726 36.9619 31.8501 37.053 31.942L38.3178 33.2062Z" stroke="#FBFDFA" stroke-width="0.4"></path></svg>