<svg xmlns="http://www.w3.org/2000/svg" width="80" height="80" viewBox="0 0 80 80" fill="none"><rect width="80" height="80" rx="40" fill="#CA732F"></rect><path d="M51.5671 50.0136C51.8424 50.2881 52.2154 50.4423 52.6041 50.4423C52.9929 50.4423 53.3658 50.2881 53.6412 50.0136L56.861 46.7938C56.9501 46.7016 56.9993 46.5781 56.9982 46.4499C56.9971 46.3217 56.9457 46.1991 56.855 46.1085C56.7644 46.0178 56.6418 45.9664 56.5136 45.9653C56.3854 45.9642 56.2619 46.0135 56.1697 46.1025L52.9499 49.3224C52.8582 49.414 52.7339 49.4655 52.6042 49.4655C52.4746 49.4655 52.3503 49.414 52.2586 49.3224L50.9943 48.0581C50.9021 47.969 50.7786 47.9198 50.6504 47.9209C50.5223 47.922 50.3996 47.9734 50.309 48.064C50.2183 48.1547 50.1669 48.2773 50.1658 48.4055C50.1647 48.5337 50.214 48.6572 50.303 48.7494L51.5671 50.0136Z" fill="#FBFDFA"></path><path d="M40 34.6222C40.4835 34.6222 40.9561 34.4789 41.3581 34.2103C41.76 33.9417 42.0734 33.5599 42.2584 33.1132C42.4434 32.6666 42.4918 32.1751 42.3975 31.7009C42.3032 31.2267 42.0703 30.7912 41.7285 30.4493C41.3866 30.1075 40.9511 29.8746 40.4769 29.7803C40.0027 29.686 39.5112 29.7344 39.0646 29.9194C38.6179 30.1044 38.2361 30.4178 37.9675 30.8197C37.6989 31.2217 37.5556 31.6943 37.5556 32.1778C37.5561 32.8259 37.8138 33.4474 38.2721 33.9057C38.7304 34.364 39.3519 34.6217 40 34.6222ZM40 30.7111C40.2901 30.7111 40.5736 30.7972 40.8148 30.9583C41.056 31.1195 41.244 31.3485 41.355 31.6165C41.466 31.8845 41.4951 32.1794 41.4385 32.4639C41.3819 32.7484 41.2422 33.0098 41.0371 33.2149C40.832 33.42 40.5706 33.5597 40.2861 33.6163C40.0016 33.6729 39.7067 33.6438 39.4387 33.5328C39.1707 33.4218 38.9417 33.2338 38.7805 32.9926C38.6194 32.7514 38.5333 32.4679 38.5333 32.1778C38.5337 31.7889 38.6884 31.4161 38.9634 31.1412C39.2383 30.8662 39.6111 30.7115 40 30.7111Z" fill="#FBFDFA"></path><path d="M38.0444 46.3556H41.9556C42.0852 46.3556 42.2096 46.3041 42.3013 46.2124C42.3929 46.1207 42.4444 45.9964 42.4444 45.8667C42.4444 45.737 42.3929 45.6127 42.3013 45.521C42.2096 45.4293 42.0852 45.3778 41.9556 45.3778H38.0444C37.9148 45.3778 37.7904 45.4293 37.6987 45.521C37.6071 45.6127 37.5556 45.737 37.5556 45.8667C37.5556 45.9964 37.6071 46.1207 37.6987 46.2124C37.7904 46.3041 37.9148 46.3556 38.0444 46.3556Z" fill="#FBFDFA"></path><path d="M41.9556 51.2445H38.0444C37.9148 51.2445 37.7904 51.296 37.6987 51.3877C37.6071 51.4793 37.5556 51.6037 37.5556 51.7334C37.5556 51.863 37.6071 51.9874 37.6987 52.0791C37.7904 52.1707 37.9148 52.2222 38.0444 52.2222H41.9556C42.0852 52.2222 42.2096 52.1707 42.3013 52.0791C42.3929 51.9874 42.4444 51.863 42.4444 51.7334C42.4444 51.6037 42.3929 51.4793 42.3013 51.3877C42.2096 51.296 42.0852 51.2445 41.9556 51.2445Z" fill="#FBFDFA"></path><path d="M32.1778 43.4222H24.3556C23.7072 43.4222 23.0855 43.6798 22.6271 44.1382C22.1687 44.5966 21.9111 45.2184 21.9111 45.8667C21.9111 46.515 22.1687 47.1368 22.6271 47.5952C23.0855 48.0536 23.7072 48.3111 24.3556 48.3111H32.1778C32.8261 48.3111 33.4478 48.0536 33.9063 47.5952C34.3647 47.1368 34.6222 46.515 34.6222 45.8667C34.6222 45.2184 34.3647 44.5966 33.9063 44.1382C33.4478 43.6798 32.8261 43.4222 32.1778 43.4222ZM32.1778 47.3334H24.3556C23.9666 47.3334 23.5935 47.1788 23.3185 46.9038C23.0434 46.6287 22.8889 46.2557 22.8889 45.8667C22.8889 45.4777 23.0434 45.1047 23.3185 44.8296C23.5935 44.5545 23.9666 44.4 24.3556 44.4H32.1778C32.5668 44.4 32.9398 44.5545 33.2149 44.8296C33.4899 45.1047 33.6444 45.4777 33.6444 45.8667C33.6444 46.2557 33.4899 46.6287 33.2149 46.9038C32.9398 47.1788 32.5668 47.3334 32.1778 47.3334Z" fill="#FBFDFA"></path><path d="M32.1778 49.2889H24.3556C23.7072 49.2889 23.0855 49.5465 22.6271 50.0049C22.1687 50.4633 21.9111 51.0851 21.9111 51.7334C21.9111 52.3817 22.1687 53.0034 22.6271 53.4618C23.0855 53.9203 23.7072 54.1778 24.3556 54.1778H32.1778C32.8261 54.1778 33.4478 53.9203 33.9063 53.4618C34.3647 53.0034 34.6222 52.3817 34.6222 51.7334C34.6222 51.0851 34.3647 50.4633 33.9063 50.0049C33.4478 49.5465 32.8261 49.2889 32.1778 49.2889ZM32.1778 53.2H24.3556C23.9666 53.2 23.5935 53.0455 23.3185 52.7704C23.0434 52.4954 22.8889 52.1223 22.8889 51.7334C22.8889 51.3444 23.0434 50.9713 23.3185 50.6963C23.5935 50.4212 23.9666 50.2667 24.3556 50.2667H32.1778C32.5668 50.2667 32.9398 50.4212 33.2149 50.6963C33.4899 50.9713 33.6444 51.3444 33.6444 51.7334C33.6444 52.1223 33.4899 52.4954 33.2149 52.7704C32.9398 53.0455 32.5668 53.2 32.1778 53.2Z" fill="#FBFDFA"></path><path d="M56.6222 26.8C57.0112 26.8 57.3843 26.6455 57.6593 26.3704C57.9344 26.0954 58.0889 25.7223 58.0889 25.3334C58.0889 24.9444 57.9344 24.5713 57.6593 24.2963C57.3843 24.0212 57.0112 23.8667 56.6222 23.8667H42.9333C42.5443 23.8667 42.1713 24.0212 41.8962 24.2963C41.6212 24.5713 41.4667 24.9444 41.4667 25.3334C41.4667 25.7223 41.6212 26.0954 41.8962 26.3704C42.1713 26.6455 42.5443 26.8 42.9333 26.8H56.6222ZM42.4444 25.3334C42.4444 25.2037 42.496 25.0793 42.5876 24.9877C42.6793 24.896 42.8037 24.8445 42.9333 24.8445H56.6222C56.7519 24.8445 56.8762 24.896 56.9679 24.9877C57.0596 25.0793 57.1111 25.2037 57.1111 25.3334C57.1111 25.463 57.0596 25.5874 56.9679 25.6791C56.8762 25.7707 56.7519 25.8222 56.6222 25.8222H42.9333C42.8037 25.8222 42.6793 25.7707 42.5876 25.6791C42.496 25.5874 42.4444 25.463 42.4444 25.3334Z" fill="#FBFDFA"></path><path d="M57.6 21.9111H40C39.8703 21.9111 39.746 21.9626 39.6543 22.0543C39.5626 22.146 39.5111 22.2704 39.5111 22.4C39.5111 22.5297 39.5626 22.654 39.6543 22.7457C39.746 22.8374 39.8703 22.8889 40 22.8889H57.6C58.5073 22.89 59.3771 23.251 60.0186 23.8925C60.6602 24.5341 61.0211 25.4039 61.0222 26.3111V27.7778H18.9778V26.3111C18.9789 25.4039 19.3398 24.5341 19.9814 23.8925C20.6229 23.251 21.4927 22.89 22.4 22.8889H38.0444C38.1741 22.8889 38.2985 22.8374 38.3901 22.7457C38.4818 22.654 38.5333 22.5297 38.5333 22.4C38.5333 22.2704 38.4818 22.146 38.3901 22.0543C38.2985 21.9626 38.1741 21.9111 38.0444 21.9111H22.4C21.2334 21.9124 20.115 22.3764 19.2902 23.2013C18.4653 24.0262 18.0013 25.1446 18 26.3111V53.6889C18.0013 54.8555 18.4653 55.9739 19.2902 56.7988C20.115 57.6236 21.2334 58.0876 22.4 58.0889H57.6C58.7666 58.0876 59.885 57.6236 60.7098 56.7988C61.5347 55.9739 61.9987 54.8555 62 53.6889V26.3111C61.9987 25.1446 61.5347 24.0262 60.7098 23.2013C59.885 22.3764 58.7666 21.9124 57.6 21.9111ZM22.4 57.1111C21.4927 57.11 20.6229 56.7491 19.9814 56.1075C19.3398 55.466 18.9789 54.5962 18.9778 53.6889V28.7556H36.6499C35.7331 29.3225 34.976 30.1139 34.4501 31.0549C33.9242 31.9959 33.6469 33.0554 33.6444 34.1334C33.6444 34.263 33.696 34.3874 33.7876 34.4791C33.8793 34.5707 34.0037 34.6222 34.1333 34.6222C34.263 34.6222 34.3873 34.5707 34.479 34.4791C34.5707 34.3874 34.6222 34.263 34.6222 34.1334C34.6213 33.2493 34.8384 32.3786 35.2543 31.5984C35.6701 30.8182 36.2719 30.1526 37.0064 29.6604C37.7408 29.1683 38.5853 28.8648 39.465 28.7768C40.3447 28.6889 41.2325 28.8192 42.0499 29.1562C42.8673 29.4932 43.5889 30.0265 44.151 30.7089C44.7131 31.3913 45.0982 32.2018 45.2724 33.0686C45.4466 33.9353 45.4043 34.8317 45.1495 35.6783C44.8946 36.5248 44.4349 37.2955 43.8112 37.922C43.4504 37.2228 42.9042 36.6363 42.2324 36.2268C41.5606 35.8172 40.7891 35.6004 40.0023 35.6C39.2155 35.5996 38.4437 35.8156 37.7715 36.2245C37.0993 36.6334 36.5525 37.2193 36.191 37.9181C35.6272 37.3562 35.1959 36.6755 34.9287 35.9256C34.9072 35.8651 34.8741 35.8093 34.8311 35.7616C34.7881 35.7139 34.7361 35.675 34.6781 35.6474C34.6202 35.6197 34.5573 35.6038 34.4931 35.6004C34.429 35.597 34.3648 35.6063 34.3043 35.6278C34.2437 35.6492 34.188 35.6824 34.1402 35.7254C34.0925 35.7684 34.0537 35.8203 34.026 35.8783C33.9984 35.9363 33.9824 35.9992 33.979 36.0633C33.9757 36.1275 33.985 36.1916 34.0064 36.2522C34.3419 37.2114 34.9027 38.0762 35.6416 38.7738C36.3805 39.4715 37.2759 39.9817 38.2528 40.2616C39.2297 40.5416 40.2595 40.5831 41.2558 40.3826C42.252 40.1822 43.1857 39.7457 43.9783 39.1098C44.7709 38.4738 45.3994 37.657 45.811 36.7279C46.2226 35.7987 46.4053 34.7844 46.3438 33.7701C46.2822 32.7557 45.9782 31.771 45.4573 30.8984C44.9364 30.0259 44.2138 29.291 43.3501 28.7556H61.0222V41.8103C60.7979 41.7152 60.5524 41.6815 60.3108 41.7125C59.2663 41.8814 58.1953 41.7481 57.224 41.3284C56.2528 40.9087 55.4217 40.22 54.829 39.3435C54.6961 39.1524 54.5193 38.996 54.3134 38.8873C54.1076 38.7786 53.8786 38.7209 53.6459 38.7189H53.6316C53.4035 38.7185 53.1785 38.7723 52.9752 38.8757C52.7719 38.9791 52.596 39.1292 52.462 39.3138C51.7213 40.3199 50.6943 41.079 49.5151 41.4919C48.6586 41.7777 47.7459 41.8534 46.854 41.7125C46.6548 41.6832 46.4516 41.6958 46.2575 41.7497C46.0635 41.8036 45.8828 41.8975 45.7272 42.0254C45.5642 42.16 45.4313 42.3273 45.337 42.5164C45.2426 42.7056 45.1891 42.9125 45.1797 43.1236C45.1754 43.2234 45.1924 43.3215 45.1898 43.4215H38.0444C37.9148 43.4215 37.7904 43.473 37.6987 43.5647C37.6071 43.6563 37.5556 43.7807 37.5556 43.9104C37.5556 44.04 37.6071 44.1644 37.6987 44.256C37.7904 44.3477 37.9148 44.3992 38.0444 44.3992H45.2229C45.2364 44.9077 45.2182 45.4204 45.2737 45.9193C45.4045 47.0621 45.6427 48.19 45.9852 49.2881H38.0444C37.9148 49.2881 37.7904 49.3396 37.6987 49.4313C37.6071 49.523 37.5556 49.6474 37.5556 49.777C37.5556 49.9067 37.6071 50.031 37.6987 50.1227C37.7904 50.2144 37.9148 50.2659 38.0444 50.2659H46.3125C46.5208 50.8313 46.7494 51.3921 47.0134 51.9436C47.0694 52.0606 47.1695 52.1506 47.2918 52.1937C47.4141 52.2369 47.5486 52.2297 47.6656 52.1737C47.7826 52.1178 47.8726 52.0176 47.9157 51.8953C47.9589 51.773 47.9517 51.6386 47.8958 51.5216C47.0282 49.7246 46.4703 47.7941 46.2457 45.8113C46.1489 44.9329 46.1195 44.0483 46.1578 43.1653C46.1607 43.0913 46.1792 43.0188 46.2121 42.9525C46.245 42.8862 46.2917 42.8276 46.3489 42.7806C46.3985 42.74 46.456 42.71 46.5177 42.6926C46.5794 42.6751 46.644 42.6705 46.7076 42.6791C47.7536 42.8441 48.8239 42.7547 49.828 42.4185C51.1963 41.941 52.3887 41.0618 53.2493 39.8958C53.2922 39.8329 53.3501 39.7818 53.4178 39.7471C53.4855 39.7124 53.5608 39.6952 53.6369 39.6971C53.7152 39.6982 53.7921 39.7181 53.8611 39.7551C53.9301 39.7922 53.9891 39.8454 54.0333 39.9101C54.7305 40.9341 55.705 41.7384 56.8427 42.2288C57.9804 42.7192 59.2342 42.8754 60.4575 42.6791C60.5209 42.6695 60.5856 42.6737 60.6472 42.6914C60.7089 42.709 60.766 42.7397 60.8147 42.7814C60.8719 42.8285 60.9185 42.8871 60.9516 42.9533C60.9846 43.0196 61.0034 43.0921 61.0066 43.1661C61.0447 44.0494 61.0153 44.9343 60.9188 45.8131C60.4545 49.4667 58.9448 52.9084 56.5712 55.7244C56.2036 56.1589 55.7458 56.508 55.2296 56.7475C54.7133 56.9869 54.1511 57.111 53.582 57.111C53.013 57.111 52.4507 56.9869 51.9345 56.7475C51.4182 56.508 50.9604 56.1589 50.5929 55.7244C49.9939 54.9965 49.4433 54.23 48.9447 53.43C48.8761 53.3198 48.7665 53.2414 48.6401 53.2121C48.5137 53.1827 48.3808 53.2047 48.2706 53.2734C48.1605 53.342 48.0821 53.4515 48.0527 53.578C48.0233 53.7044 48.0454 53.8373 48.114 53.9474C48.6361 54.7833 49.2122 55.5843 49.8386 56.3451C50.0757 56.6313 50.3459 56.8884 50.6435 57.1109L22.4 57.1111ZM43.0524 38.5529C42.1567 39.1768 41.0914 39.5113 39.9998 39.5115C38.9082 39.5117 37.8428 39.1776 36.9468 38.5541C37.211 37.9656 37.6397 37.466 38.1813 37.1155C38.7228 36.7649 39.3541 36.5784 39.9992 36.5782C40.6443 36.5781 41.2757 36.7644 41.8174 37.1148C42.3591 37.4651 42.788 37.9645 43.0524 38.5529ZM57.6 57.1111H56.5201C56.8177 56.8885 57.0879 56.6314 57.3251 56.3453C58.9423 54.3855 60.1945 52.1512 61.0222 49.7489V53.6889C61.0211 54.5962 60.6602 55.466 60.0186 56.1075C59.3771 56.7491 58.5073 57.11 57.6 57.1111Z" fill="#FBFDFA"></path><path d="M21.9111 25.3334C21.9111 25.6234 21.9971 25.907 22.1583 26.1482C22.3194 26.3894 22.5485 26.5774 22.8165 26.6884C23.0845 26.7994 23.3794 26.8284 23.6639 26.7718C23.9484 26.7152 24.2098 26.5756 24.4149 26.3704C24.62 26.1653 24.7597 25.904 24.8163 25.6195C24.8729 25.335 24.8438 25.0401 24.7328 24.7721C24.6218 24.5041 24.4338 24.275 24.1926 24.1139C23.9514 23.9527 23.6679 23.8667 23.3778 23.8667C22.9889 23.8671 22.6161 24.0218 22.3411 24.2967C22.0662 24.5717 21.9115 24.9445 21.9111 25.3334ZM23.8667 25.3334C23.8667 25.43 23.838 25.5246 23.7843 25.605C23.7306 25.6854 23.6542 25.748 23.5649 25.785C23.4755 25.822 23.3772 25.8317 23.2824 25.8129C23.1876 25.794 23.1005 25.7474 23.0321 25.6791C22.9637 25.6107 22.9171 25.5236 22.8983 25.4287C22.8794 25.3339 22.8891 25.2356 22.9261 25.1463C22.9631 25.0569 23.0258 24.9806 23.1062 24.9269C23.1866 24.8731 23.2811 24.8445 23.3778 24.8445C23.5074 24.8445 23.6318 24.896 23.7235 24.9877C23.8152 25.0793 23.8667 25.2037 23.8667 25.3334Z" fill="#FBFDFA"></path><path d="M25.8222 25.3334C25.8222 25.6234 25.9082 25.907 26.0694 26.1482C26.2306 26.3894 26.4596 26.5774 26.7276 26.6884C26.9956 26.7994 27.2905 26.8284 27.575 26.7718C27.8595 26.7152 28.1209 26.5756 28.326 26.3704C28.5311 26.1653 28.6708 25.904 28.7274 25.6195C28.784 25.335 28.7549 25.0401 28.6439 24.7721C28.5329 24.5041 28.3449 24.275 28.1037 24.1139C27.8625 23.9527 27.579 23.8667 27.2889 23.8667C26.9 23.8671 26.5272 24.0218 26.2523 24.2967C25.9773 24.5717 25.8226 24.9445 25.8222 25.3334ZM27.7778 25.3334C27.7778 25.43 27.7491 25.5246 27.6954 25.605C27.6417 25.6854 27.5653 25.748 27.476 25.785C27.3866 25.822 27.2883 25.8317 27.1935 25.8129C27.0987 25.794 27.0116 25.7474 26.9432 25.6791C26.8748 25.6107 26.8283 25.5236 26.8094 25.4287C26.7905 25.3339 26.8002 25.2356 26.8372 25.1463C26.8742 25.0569 26.9369 24.9806 27.0173 24.9269C27.0977 24.8731 27.1922 24.8445 27.2889 24.8445C27.4186 24.8445 27.5429 24.896 27.6346 24.9877C27.7263 25.0793 27.7778 25.2037 27.7778 25.3334Z" fill="#FBFDFA"></path><path d="M29.7333 25.3334C29.7333 25.6234 29.8194 25.907 29.9805 26.1482C30.1417 26.3894 30.3707 26.5774 30.6387 26.6884C30.9067 26.7994 31.2016 26.8284 31.4861 26.7718C31.7706 26.7152 32.032 26.5756 32.2371 26.3704C32.4422 26.1653 32.5819 25.904 32.6385 25.6195C32.6951 25.335 32.666 25.0401 32.555 24.7721C32.444 24.5041 32.256 24.275 32.0148 24.1139C31.7736 23.9527 31.4901 23.8667 31.2 23.8667C30.8111 23.8671 30.4383 24.0218 30.1634 24.2967C29.8884 24.5717 29.7337 24.9445 29.7333 25.3334ZM31.6889 25.3334C31.6889 25.43 31.6602 25.5246 31.6065 25.605C31.5528 25.6854 31.4764 25.748 31.3871 25.785C31.2978 25.822 31.1995 25.8317 31.1046 25.8129C31.0098 25.794 30.9227 25.7474 30.8543 25.6791C30.7859 25.6107 30.7394 25.5236 30.7205 25.4287C30.7016 25.3339 30.7113 25.2356 30.7483 25.1463C30.7853 25.0569 30.848 24.9806 30.9284 24.9269C31.0088 24.8731 31.1033 24.8445 31.2 24.8445C31.3297 24.8445 31.454 24.896 31.5457 24.9877C31.6374 25.0793 31.6889 25.2037 31.6889 25.3334Z" fill="#FBFDFA"></path><path d="M51.5671 50.0136C51.8424 50.2881 52.2154 50.4423 52.6041 50.4423C52.9929 50.4423 53.3658 50.2881 53.6412 50.0136L56.861 46.7938C56.9501 46.7016 56.9993 46.5781 56.9982 46.4499C56.9971 46.3217 56.9457 46.1991 56.855 46.1085C56.7644 46.0178 56.6418 45.9664 56.5136 45.9653C56.3854 45.9642 56.2619 46.0135 56.1697 46.1025L52.9499 49.3224C52.8582 49.414 52.7339 49.4655 52.6042 49.4655C52.4746 49.4655 52.3503 49.414 52.2586 49.3224L50.9943 48.0581C50.9021 47.969 50.7786 47.9198 50.6504 47.9209C50.5223 47.922 50.3996 47.9734 50.309 48.064C50.2183 48.1547 50.1669 48.2773 50.1658 48.4055C50.1647 48.5337 50.214 48.6572 50.303 48.7494L51.5671 50.0136Z" stroke="#FBFDFA" stroke-width="0.4"></path><path d="M40 34.6222C40.4835 34.6222 40.9561 34.4789 41.3581 34.2103C41.76 33.9417 42.0734 33.5599 42.2584 33.1132C42.4434 32.6666 42.4918 32.1751 42.3975 31.7009C42.3032 31.2267 42.0703 30.7912 41.7285 30.4493C41.3866 30.1075 40.9511 29.8746 40.4769 29.7803C40.0027 29.686 39.5112 29.7344 39.0646 29.9194C38.6179 30.1044 38.2361 30.4178 37.9675 30.8197C37.6989 31.2217 37.5556 31.6943 37.5556 32.1778C37.5561 32.8259 37.8138 33.4474 38.2721 33.9057C38.7304 34.364 39.3519 34.6217 40 34.6222ZM40 30.7111C40.2901 30.7111 40.5736 30.7972 40.8148 30.9583C41.056 31.1195 41.244 31.3485 41.355 31.6165C41.466 31.8845 41.4951 32.1794 41.4385 32.4639C41.3819 32.7484 41.2422 33.0098 41.0371 33.2149C40.832 33.42 40.5706 33.5597 40.2861 33.6163C40.0016 33.6729 39.7067 33.6438 39.4387 33.5328C39.1707 33.4218 38.9417 33.2338 38.7805 32.9926C38.6194 32.7514 38.5333 32.4679 38.5333 32.1778C38.5337 31.7889 38.6884 31.4161 38.9634 31.1412C39.2383 30.8662 39.6111 30.7115 40 30.7111Z" stroke="#FBFDFA" stroke-width="0.4"></path><path d="M38.0444 46.3556H41.9556C42.0852 46.3556 42.2096 46.3041 42.3013 46.2124C42.3929 46.1207 42.4444 45.9964 42.4444 45.8667C42.4444 45.737 42.3929 45.6127 42.3013 45.521C42.2096 45.4293 42.0852 45.3778 41.9556 45.3778H38.0444C37.9148 45.3778 37.7904 45.4293 37.6987 45.521C37.6071 45.6127 37.5556 45.737 37.5556 45.8667C37.5556 45.9964 37.6071 46.1207 37.6987 46.2124C37.7904 46.3041 37.9148 46.3556 38.0444 46.3556Z" stroke="#FBFDFA" stroke-width="0.4"></path><path d="M41.9556 51.2445H38.0444C37.9148 51.2445 37.7904 51.296 37.6987 51.3877C37.6071 51.4793 37.5556 51.6037 37.5556 51.7334C37.5556 51.863 37.6071 51.9874 37.6987 52.0791C37.7904 52.1707 37.9148 52.2222 38.0444 52.2222H41.9556C42.0852 52.2222 42.2096 52.1707 42.3013 52.0791C42.3929 51.9874 42.4444 51.863 42.4444 51.7334C42.4444 51.6037 42.3929 51.4793 42.3013 51.3877C42.2096 51.296 42.0852 51.2445 41.9556 51.2445Z" stroke="#FBFDFA" stroke-width="0.4"></path><path d="M32.1778 43.4222H24.3556C23.7072 43.4222 23.0855 43.6798 22.6271 44.1382C22.1687 44.5966 21.9111 45.2184 21.9111 45.8667C21.9111 46.515 22.1687 47.1368 22.6271 47.5952C23.0855 48.0536 23.7072 48.3111 24.3556 48.3111H32.1778C32.8261 48.3111 33.4478 48.0536 33.9063 47.5952C34.3647 47.1368 34.6222 46.515 34.6222 45.8667C34.6222 45.2184 34.3647 44.5966 33.9063 44.1382C33.4478 43.6798 32.8261 43.4222 32.1778 43.4222ZM32.1778 47.3334H24.3556C23.9666 47.3334 23.5935 47.1788 23.3185 46.9038C23.0434 46.6287 22.8889 46.2557 22.8889 45.8667C22.8889 45.4777 23.0434 45.1047 23.3185 44.8296C23.5935 44.5545 23.9666 44.4 24.3556 44.4H32.1778C32.5668 44.4 32.9398 44.5545 33.2149 44.8296C33.4899 45.1047 33.6444 45.4777 33.6444 45.8667C33.6444 46.2557 33.4899 46.6287 33.2149 46.9038C32.9398 47.1788 32.5668 47.3334 32.1778 47.3334Z" stroke="#FBFDFA" stroke-width="0.4"></path><path d="M32.1778 49.2889H24.3556C23.7072 49.2889 23.0855 49.5465 22.6271 50.0049C22.1687 50.4633 21.9111 51.0851 21.9111 51.7334C21.9111 52.3817 22.1687 53.0034 22.6271 53.4618C23.0855 53.9203 23.7072 54.1778 24.3556 54.1778H32.1778C32.8261 54.1778 33.4478 53.9203 33.9063 53.4618C34.3647 53.0034 34.6222 52.3817 34.6222 51.7334C34.6222 51.0851 34.3647 50.4633 33.9063 50.0049C33.4478 49.5465 32.8261 49.2889 32.1778 49.2889ZM32.1778 53.2H24.3556C23.9666 53.2 23.5935 53.0455 23.3185 52.7704C23.0434 52.4954 22.8889 52.1223 22.8889 51.7334C22.8889 51.3444 23.0434 50.9713 23.3185 50.6963C23.5935 50.4212 23.9666 50.2667 24.3556 50.2667H32.1778C32.5668 50.2667 32.9398 50.4212 33.2149 50.6963C33.4899 50.9713 33.6444 51.3444 33.6444 51.7334C33.6444 52.1223 33.4899 52.4954 33.2149 52.7704C32.9398 53.0455 32.5668 53.2 32.1778 53.2Z" stroke="#FBFDFA" stroke-width="0.4"></path><path d="M56.6222 26.8C57.0112 26.8 57.3843 26.6455 57.6593 26.3704C57.9344 26.0954 58.0889 25.7223 58.0889 25.3334C58.0889 24.9444 57.9344 24.5713 57.6593 24.2963C57.3843 24.0212 57.0112 23.8667 56.6222 23.8667H42.9333C42.5443 23.8667 42.1713 24.0212 41.8962 24.2963C41.6212 24.5713 41.4667 24.9444 41.4667 25.3334C41.4667 25.7223 41.6212 26.0954 41.8962 26.3704C42.1713 26.6455 42.5443 26.8 42.9333 26.8H56.6222ZM42.4444 25.3334C42.4444 25.2037 42.496 25.0793 42.5876 24.9877C42.6793 24.896 42.8037 24.8445 42.9333 24.8445H56.6222C56.7519 24.8445 56.8762 24.896 56.9679 24.9877C57.0596 25.0793 57.1111 25.2037 57.1111 25.3334C57.1111 25.463 57.0596 25.5874 56.9679 25.6791C56.8762 25.7707 56.7519 25.8222 56.6222 25.8222H42.9333C42.8037 25.8222 42.6793 25.7707 42.5876 25.6791C42.496 25.5874 42.4444 25.463 42.4444 25.3334Z" stroke="#FBFDFA" stroke-width="0.4"></path><path d="M57.6 21.9111H40C39.8703 21.9111 39.746 21.9626 39.6543 22.0543C39.5626 22.146 39.5111 22.2704 39.5111 22.4C39.5111 22.5297 39.5626 22.654 39.6543 22.7457C39.746 22.8374 39.8703 22.8889 40 22.8889H57.6C58.5073 22.89 59.3771 23.251 60.0186 23.8925C60.6602 24.5341 61.0211 25.4039 61.0222 26.3111V27.7778H18.9778V26.3111C18.9789 25.4039 19.3398 24.5341 19.9814 23.8925C20.6229 23.251 21.4927 22.89 22.4 22.8889H38.0444C38.1741 22.8889 38.2985 22.8374 38.3901 22.7457C38.4818 22.654 38.5333 22.5297 38.5333 22.4C38.5333 22.2704 38.4818 22.146 38.3901 22.0543C38.2985 21.9626 38.1741 21.9111 38.0444 21.9111H22.4C21.2334 21.9124 20.115 22.3764 19.2902 23.2013C18.4653 24.0262 18.0013 25.1446 18 26.3111V53.6889C18.0013 54.8555 18.4653 55.9739 19.2902 56.7988C20.115 57.6236 21.2334 58.0876 22.4 58.0889H57.6C58.7666 58.0876 59.885 57.6236 60.7098 56.7988C61.5347 55.9739 61.9987 54.8555 62 53.6889V26.3111C61.9987 25.1446 61.5347 24.0262 60.7098 23.2013C59.885 22.3764 58.7666 21.9124 57.6 21.9111ZM22.4 57.1111C21.4927 57.11 20.6229 56.7491 19.9814 56.1075C19.3398 55.466 18.9789 54.5962 18.9778 53.6889V28.7556H36.6499C35.7331 29.3225 34.976 30.1139 34.4501 31.0549C33.9242 31.9959 33.6469 33.0554 33.6444 34.1334C33.6444 34.263 33.696 34.3874 33.7876 34.4791C33.8793 34.5707 34.0037 34.6222 34.1333 34.6222C34.263 34.6222 34.3873 34.5707 34.479 34.4791C34.5707 34.3874 34.6222 34.263 34.6222 34.1334C34.6213 33.2493 34.8384 32.3786 35.2543 31.5984C35.6701 30.8182 36.2719 30.1526 37.0064 29.6604C37.7408 29.1683 38.5853 28.8648 39.465 28.7768C40.3447 28.6889 41.2325 28.8192 42.0499 29.1562C42.8673 29.4932 43.5889 30.0265 44.151 30.7089C44.7131 31.3913 45.0982 32.2018 45.2724 33.0686C45.4466 33.9353 45.4043 34.8317 45.1495 35.6783C44.8946 36.5248 44.4349 37.2955 43.8112 37.922C43.4504 37.2228 42.9042 36.6363 42.2324 36.2268C41.5606 35.8172 40.7891 35.6004 40.0023 35.6C39.2155 35.5996 38.4437 35.8156 37.7715 36.2245C37.0993 36.6334 36.5525 37.2193 36.191 37.9181C35.6272 37.3562 35.1959 36.6755 34.9287 35.9256C34.9072 35.8651 34.8741 35.8093 34.8311 35.7616C34.7881 35.7139 34.7361 35.675 34.6781 35.6474C34.6202 35.6197 34.5573 35.6038 34.4931 35.6004C34.429 35.597 34.3648 35.6063 34.3043 35.6278C34.2437 35.6492 34.188 35.6824 34.1402 35.7254C34.0925 35.7684 34.0537 35.8203 34.026 35.8783C33.9984 35.9363 33.9824 35.9992 33.979 36.0633C33.9757 36.1275 33.985 36.1916 34.0064 36.2522C34.3419 37.2114 34.9027 38.0762 35.6416 38.7738C36.3805 39.4715 37.2759 39.9817 38.2528 40.2616C39.2297 40.5416 40.2595 40.5831 41.2558 40.3826C42.252 40.1822 43.1857 39.7457 43.9783 39.1098C44.7709 38.4738 45.3994 37.657 45.811 36.7279C46.2226 35.7987 46.4053 34.7844 46.3438 33.7701C46.2822 32.7557 45.9782 31.771 45.4573 30.8984C44.9364 30.0259 44.2138 29.291 43.3501 28.7556H61.0222V41.8103C60.7979 41.7152 60.5524 41.6815 60.3108 41.7125C59.2663 41.8814 58.1953 41.7481 57.224 41.3284C56.2528 40.9087 55.4217 40.22 54.829 39.3435C54.6961 39.1524 54.5193 38.996 54.3134 38.8873C54.1076 38.7786 53.8786 38.7209 53.6459 38.7189H53.6316C53.4035 38.7185 53.1785 38.7723 52.9752 38.8757C52.7719 38.9791 52.596 39.1292 52.462 39.3138C51.7213 40.3199 50.6943 41.079 49.5151 41.4919C48.6586 41.7777 47.7459 41.8534 46.854 41.7125C46.6548 41.6832 46.4516 41.6958 46.2575 41.7497C46.0635 41.8036 45.8828 41.8975 45.7272 42.0254C45.5642 42.16 45.4313 42.3273 45.337 42.5164C45.2426 42.7056 45.1891 42.9125 45.1797 43.1236C45.1754 43.2234 45.1924 43.3215 45.1898 43.4215H38.0444C37.9148 43.4215 37.7904 43.473 37.6987 43.5647C37.6071 43.6563 37.5556 43.7807 37.5556 43.9104C37.5556 44.04 37.6071 44.1644 37.6987 44.256C37.7904 44.3477 37.9148 44.3992 38.0444 44.3992H45.2229C45.2364 44.9077 45.2182 45.4204 45.2737 45.9193C45.4045 47.0621 45.6427 48.19 45.9852 49.2881H38.0444C37.9148 49.2881 37.7904 49.3396 37.6987 49.4313C37.6071 49.523 37.5556 49.6474 37.5556 49.777C37.5556 49.9067 37.6071 50.031 37.6987 50.1227C37.7904 50.2144 37.9148 50.2659 38.0444 50.2659H46.3125C46.5208 50.8313 46.7494 51.3921 47.0134 51.9436C47.0694 52.0606 47.1695 52.1506 47.2918 52.1937C47.4141 52.2369 47.5486 52.2297 47.6656 52.1737C47.7826 52.1178 47.8726 52.0176 47.9157 51.8953C47.9589 51.773 47.9517 51.6386 47.8958 51.5216C47.0282 49.7246 46.4703 47.7941 46.2457 45.8113C46.1489 44.9329 46.1195 44.0483 46.1578 43.1653C46.1607 43.0913 46.1792 43.0188 46.2121 42.9525C46.245 42.8862 46.2917 42.8276 46.3489 42.7806C46.3985 42.74 46.456 42.71 46.5177 42.6926C46.5794 42.6751 46.644 42.6705 46.7076 42.6791C47.7536 42.8441 48.8239 42.7547 49.828 42.4185C51.1963 41.941 52.3887 41.0618 53.2493 39.8958C53.2922 39.8329 53.3501 39.7818 53.4178 39.7471C53.4855 39.7124 53.5608 39.6952 53.6369 39.6971C53.7152 39.6982 53.7921 39.7181 53.8611 39.7551C53.9301 39.7922 53.9891 39.8454 54.0333 39.9101C54.7305 40.9341 55.705 41.7384 56.8427 42.2288C57.9804 42.7192 59.2342 42.8754 60.4575 42.6791C60.5209 42.6695 60.5856 42.6737 60.6472 42.6914C60.7089 42.709 60.766 42.7397 60.8147 42.7814C60.8719 42.8285 60.9185 42.8871 60.9516 42.9533C60.9846 43.0196 61.0034 43.0921 61.0066 43.1661C61.0447 44.0494 61.0153 44.9343 60.9188 45.8131C60.4545 49.4667 58.9448 52.9084 56.5712 55.7244C56.2036 56.1589 55.7458 56.508 55.2296 56.7475C54.7133 56.9869 54.1511 57.111 53.582 57.111C53.013 57.111 52.4507 56.9869 51.9345 56.7475C51.4182 56.508 50.9604 56.1589 50.5929 55.7244C49.9939 54.9965 49.4433 54.23 48.9447 53.43C48.8761 53.3198 48.7665 53.2414 48.6401 53.2121C48.5137 53.1827 48.3808 53.2047 48.2706 53.2734C48.1605 53.342 48.0821 53.4515 48.0527 53.578C48.0233 53.7044 48.0454 53.8373 48.114 53.9474C48.6361 54.7833 49.2122 55.5843 49.8386 56.3451C50.0757 56.6313 50.3459 56.8884 50.6435 57.1109L22.4 57.1111ZM43.0524 38.5529C42.1567 39.1768 41.0914 39.5113 39.9998 39.5115C38.9082 39.5117 37.8428 39.1776 36.9468 38.5541C37.211 37.9656 37.6397 37.466 38.1813 37.1155C38.7228 36.7649 39.3541 36.5784 39.9992 36.5782C40.6443 36.5781 41.2757 36.7644 41.8174 37.1148C42.3591 37.4651 42.788 37.9645 43.0524 38.5529ZM57.6 57.1111H56.5201C56.8177 56.8885 57.0879 56.6314 57.3251 56.3453C58.9423 54.3855 60.1945 52.1512 61.0222 49.7489V53.6889C61.0211 54.5962 60.6602 55.466 60.0186 56.1075C59.3771 56.7491 58.5073 57.11 57.6 57.1111Z" stroke="#FBFDFA" stroke-width="0.4"></path><path d="M21.9111 25.3334C21.9111 25.6234 21.9971 25.907 22.1583 26.1482C22.3194 26.3894 22.5485 26.5774 22.8165 26.6884C23.0845 26.7994 23.3794 26.8284 23.6639 26.7718C23.9484 26.7152 24.2098 26.5756 24.4149 26.3704C24.62 26.1653 24.7597 25.904 24.8163 25.6195C24.8729 25.335 24.8438 25.0401 24.7328 24.7721C24.6218 24.5041 24.4338 24.275 24.1926 24.1139C23.9514 23.9527 23.6679 23.8667 23.3778 23.8667C22.9889 23.8671 22.6161 24.0218 22.3411 24.2967C22.0662 24.5717 21.9115 24.9445 21.9111 25.3334ZM23.8667 25.3334C23.8667 25.43 23.838 25.5246 23.7843 25.605C23.7306 25.6854 23.6542 25.748 23.5649 25.785C23.4755 25.822 23.3772 25.8317 23.2824 25.8129C23.1876 25.794 23.1005 25.7474 23.0321 25.6791C22.9637 25.6107 22.9171 25.5236 22.8983 25.4287C22.8794 25.3339 22.8891 25.2356 22.9261 25.1463C22.9631 25.0569 23.0258 24.9806 23.1062 24.9269C23.1866 24.8731 23.2811 24.8445 23.3778 24.8445C23.5074 24.8445 23.6318 24.896 23.7235 24.9877C23.8152 25.0793 23.8667 25.2037 23.8667 25.3334Z" stroke="#FBFDFA" stroke-width="0.4"></path><path d="M25.8222 25.3334C25.8222 25.6234 25.9082 25.907 26.0694 26.1482C26.2306 26.3894 26.4596 26.5774 26.7276 26.6884C26.9956 26.7994 27.2905 26.8284 27.575 26.7718C27.8595 26.7152 28.1209 26.5756 28.326 26.3704C28.5311 26.1653 28.6708 25.904 28.7274 25.6195C28.784 25.335 28.7549 25.0401 28.6439 24.7721C28.5329 24.5041 28.3449 24.275 28.1037 24.1139C27.8625 23.9527 27.579 23.8667 27.2889 23.8667C26.9 23.8671 26.5272 24.0218 26.2523 24.2967C25.9773 24.5717 25.8226 24.9445 25.8222 25.3334ZM27.7778 25.3334C27.7778 25.43 27.7491 25.5246 27.6954 25.605C27.6417 25.6854 27.5653 25.748 27.476 25.785C27.3866 25.822 27.2883 25.8317 27.1935 25.8129C27.0987 25.794 27.0116 25.7474 26.9432 25.6791C26.8748 25.6107 26.8283 25.5236 26.8094 25.4287C26.7905 25.3339 26.8002 25.2356 26.8372 25.1463C26.8742 25.0569 26.9369 24.9806 27.0173 24.9269C27.0977 24.8731 27.1922 24.8445 27.2889 24.8445C27.4186 24.8445 27.5429 24.896 27.6346 24.9877C27.7263 25.0793 27.7778 25.2037 27.7778 25.3334Z" stroke="#FBFDFA" stroke-width="0.4"></path><path d="M29.7333 25.3334C29.7333 25.6234 29.8194 25.907 29.9805 26.1482C30.1417 26.3894 30.3707 26.5774 30.6387 26.6884C30.9067 26.7994 31.2016 26.8284 31.4861 26.7718C31.7706 26.7152 32.032 26.5756 32.2371 26.3704C32.4422 26.1653 32.5819 25.904 32.6385 25.6195C32.6951 25.335 32.666 25.0401 32.555 24.7721C32.444 24.5041 32.256 24.275 32.0148 24.1139C31.7736 23.9527 31.4901 23.8667 31.2 23.8667C30.8111 23.8671 30.4383 24.0218 30.1634 24.2967C29.8884 24.5717 29.7337 24.9445 29.7333 25.3334ZM31.6889 25.3334C31.6889 25.43 31.6602 25.5246 31.6065 25.605C31.5528 25.6854 31.4764 25.748 31.3871 25.785C31.2978 25.822 31.1995 25.8317 31.1046 25.8129C31.0098 25.794 30.9227 25.7474 30.8543 25.6791C30.7859 25.6107 30.7394 25.5236 30.7205 25.4287C30.7016 25.3339 30.7113 25.2356 30.7483 25.1463C30.7853 25.0569 30.848 24.9806 30.9284 24.9269C31.0088 24.8731 31.1033 24.8445 31.2 24.8445C31.3297 24.8445 31.454 24.896 31.5457 24.9877C31.6374 25.0793 31.6889 25.2037 31.6889 25.3334Z" stroke="#FBFDFA" stroke-width="0.4"></path></svg>