<svg xmlns="http://www.w3.org/2000/svg" width="81" height="80" viewBox="0 0 81 80" fill="none"><rect x="0.667969" width="80" height="80" rx="40" fill="#CA732F"></rect><path d="M61.1934 24.9795C60.6799 24.499 60.071 24.132 59.4062 23.9026C58.7415 23.6731 58.0359 23.5863 57.3353 23.6477C55.3443 23.8402 53.3407 23.4406 51.5759 22.499C50.3863 21.8478 49.3409 20.9626 48.5026 19.8967C48.0599 19.3506 47.4991 18.912 46.8623 18.6139C46.2256 18.3159 45.5295 18.1662 44.8266 18.1761H36.0916C34.8683 18.181 33.6926 18.6503 32.8022 19.4892C31.3542 20.8415 29.6243 21.8559 27.7371 22.4594C27.6705 22.4807 27.6087 22.5149 27.5553 22.5601C27.5019 22.6052 27.4579 22.6605 27.4258 22.7227C27.3938 22.7848 27.3743 22.8527 27.3684 22.9224C27.3626 22.9921 27.3706 23.0623 27.3919 23.1289C27.4131 23.1956 27.4474 23.2573 27.4925 23.3107C27.5377 23.3642 27.5929 23.4081 27.6551 23.4402C27.7173 23.4723 27.7852 23.4918 27.8549 23.4976C27.9246 23.5034 27.9947 23.4955 28.0614 23.4742C30.0973 22.8226 31.9635 21.7279 33.5257 20.2689C34.2201 19.6138 35.137 19.2464 36.0916 19.2407H44.8266C45.3692 19.2314 45.9069 19.3454 46.399 19.5741C46.8912 19.8027 47.3251 20.1401 47.668 20.5608C48.5955 21.7378 49.7511 22.7154 51.0655 23.4352C53.0119 24.4787 55.2238 24.9219 57.422 24.7089C57.9734 24.6599 58.529 24.7276 59.0526 24.9076C59.5762 25.0877 60.056 25.3759 60.4607 25.7537C60.836 26.1059 61.1318 26.5341 61.3284 27.0097C61.5251 27.4853 61.618 27.9974 61.6011 28.5118C61.5751 29.4912 61.5202 30.4768 61.4359 31.4384C61.1307 34.9472 60.4453 38.4126 59.3919 41.7734C59.3533 41.8961 59.3137 42.0064 59.2671 42.1258C58.1213 44.9849 56.7357 47.7419 55.1252 50.3675C53.9925 52.2116 52.7514 53.987 51.4085 55.6842C50.1058 57.2711 48.4674 58.5493 46.6114 59.4269C44.7554 60.3046 42.7278 60.7598 40.6748 60.7598C38.6217 60.7598 36.5942 60.3046 34.7381 59.4269C32.8821 58.5493 31.2437 57.2711 29.941 55.6842C28.5978 53.987 27.3564 52.2116 26.2233 50.3675C24.6133 47.7417 23.2285 44.9844 22.0835 42.1252C22.0356 42.0057 21.9962 41.8954 21.9576 41.7728C20.9054 38.4116 20.2201 34.9464 19.9136 31.4377C19.8072 30.213 19.7461 28.9696 19.7337 27.743C19.7282 27.2839 19.8151 26.8285 19.9892 26.4037C20.1634 25.979 20.4212 25.5936 20.7474 25.2706C21.4783 24.5522 22.4633 24.1516 23.4881 24.1561H23.5264C24.3019 24.1593 25.0765 24.1047 25.8438 23.9928C25.9833 23.9716 26.1086 23.8958 26.1923 23.7822C26.2759 23.6686 26.311 23.5264 26.2899 23.3869C26.2672 23.248 26.1911 23.1234 26.0778 23.0399C25.9646 22.9563 25.8231 22.9204 25.6837 22.9397C24.9733 23.0475 24.2554 23.0979 23.5369 23.0905C22.2153 23.086 20.9443 23.5979 19.9948 24.517C19.5681 24.9399 19.2308 25.4442 19.003 26C18.7751 26.5558 18.6613 27.1517 18.6683 27.7523C18.6817 29.0073 18.743 30.2778 18.8522 31.5284C19.1658 35.1137 19.8661 38.6545 20.941 42.0892C20.9876 42.2382 21.0355 42.3719 21.0947 42.5186C22.2623 45.4348 23.6746 48.247 25.3166 50.9249C26.4716 52.8052 27.7371 54.6153 29.1066 56.3456C30.5089 58.0581 32.274 59.438 34.2744 60.3855C36.2748 61.3329 38.4607 61.8244 40.6741 61.8244C42.8876 61.8244 45.0734 61.3329 47.0738 60.3855C49.0743 59.438 50.8393 58.0581 52.2417 56.3456C53.6111 54.6152 54.8767 52.8052 56.0316 50.9249C57.6739 48.2475 59.0866 45.436 60.2546 42.5203C60.313 42.3736 60.3611 42.2406 60.4075 42.0909C61.4832 38.6564 62.1835 35.1155 62.4962 31.5301C62.5825 30.5475 62.6385 29.5413 62.6655 28.5391C62.6871 27.8752 62.5669 27.2144 62.3131 26.6006C62.0593 25.9868 61.6775 25.4342 61.1934 24.9795Z" fill="#FBFDFA"></path><path d="M40.6742 59.6952C42.5683 59.706 44.4407 59.2918 46.1536 58.4833C47.8665 57.6747 49.3762 56.4923 50.5717 55.0231C51.8895 53.3597 53.1066 51.6189 54.2167 49.8102C55.7988 47.232 57.1592 44.5241 58.2834 41.7157L58.3771 41.4547C59.4055 38.167 60.0758 34.7778 60.3764 31.3462C60.4616 30.3565 60.5156 29.4018 60.5384 28.482C60.551 28.1357 60.4928 27.7905 60.3673 27.4675C60.2419 27.1445 60.0518 26.8504 59.8088 26.6034C59.5058 26.3128 59.1455 26.0885 58.751 25.945C58.3564 25.8014 57.9363 25.7417 57.5173 25.7696H57.508C57.143 25.7999 56.7647 25.8165 56.3767 25.8165C54.3463 25.8333 52.3447 25.3351 50.559 24.3686C49.1181 23.5812 47.8511 22.5108 46.834 21.2217C46.5888 20.9289 46.2813 20.6945 45.934 20.5359C45.5866 20.3772 45.2082 20.2982 44.8264 20.3047H36.0916C35.4055 20.3105 34.7473 20.5769 34.2503 21.0499C32.5737 22.6154 30.5707 23.7896 28.3857 24.4879C26.8008 24.9874 25.1472 25.2347 23.4855 25.2207C22.7397 25.2161 22.0225 25.5078 21.4916 26.0317C21.2673 26.2535 21.0902 26.5183 20.9709 26.8102C20.8515 27.1021 20.7924 27.4151 20.797 27.7304C20.8094 28.9353 20.8688 30.1506 20.9727 31.3453C21.274 34.7842 21.9468 38.1804 22.9792 41.4745L23.0708 41.73C24.194 44.5332 25.552 47.2366 27.1305 49.8111C28.2409 51.6198 29.4584 53.3605 30.7765 55.024C32.6953 57.4097 35.4262 59.0042 38.4469 59.5027C38.5158 59.5157 38.5866 59.5148 38.6552 59.5C38.7237 59.4852 38.7886 59.4568 38.846 59.4165C38.9034 59.3762 38.9521 59.3248 38.9893 59.2653C39.0265 59.2058 39.0513 59.1395 39.0624 59.0703C39.0866 58.9313 39.0547 58.7884 38.9736 58.673C38.8925 58.5576 38.7689 58.4791 38.63 58.4547C35.8665 58.0003 33.3674 56.5434 31.6103 54.3627C28.4808 50.413 25.9395 46.0311 24.0655 41.3533L23.9887 41.137C22.9832 37.9222 22.3277 34.6082 22.0334 31.2527C21.9317 30.0853 21.8744 28.897 21.862 27.7183C21.8588 27.5437 21.8914 27.3702 21.9579 27.2087C22.0244 27.0473 22.1234 26.9012 22.2487 26.7795C22.4138 26.6192 22.6089 26.4929 22.8228 26.408C23.0367 26.3231 23.2652 26.2812 23.4953 26.2847C25.2639 26.2985 27.0236 26.0344 28.7101 25.5018C31.0442 24.7557 33.1838 23.5015 34.975 21.8294C35.2756 21.5404 35.6747 21.3762 36.0916 21.3699H44.8255C45.0471 21.3631 45.2674 21.4057 45.4705 21.4947C45.6735 21.5838 45.8542 21.7169 45.9993 21.8845C47.1051 23.2857 48.4825 24.449 50.0488 25.3048C51.9909 26.356 54.1676 26.898 56.3759 26.8804C56.7928 26.8804 57.2003 26.8617 57.5934 26.8315C57.8576 26.8122 58.123 26.8479 58.3729 26.9363C58.6227 27.0247 58.8515 27.1638 59.0448 27.345C59.1889 27.4904 59.3013 27.664 59.3749 27.8549C59.4486 28.0458 59.482 28.2499 59.473 28.4543C59.4492 29.3526 59.3983 30.2873 59.315 31.2531C59.0217 34.6005 58.3685 37.9066 57.3668 41.114L57.2878 41.3365C56.1878 44.0827 54.8571 46.7308 53.3101 49.2524C52.2221 51.025 51.0294 52.7312 49.7384 54.3618C48.6427 55.7056 47.2596 56.7867 45.691 57.5254C44.1224 58.2642 42.4081 58.6418 40.6742 58.6306C40.5331 58.6306 40.3977 58.6867 40.2978 58.7865C40.198 58.8863 40.1419 59.0217 40.1419 59.1629C40.1419 59.3041 40.198 59.4395 40.2978 59.5393C40.3977 59.6391 40.5331 59.6952 40.6742 59.6952Z" fill="#FBFDFA"></path><path d="M46.466 37.267C46.5293 37.2336 46.5852 37.1877 46.6304 37.1321C46.6755 37.0766 46.709 37.0125 46.7288 36.9437C46.7486 36.8749 46.7544 36.8028 46.7457 36.7317C46.737 36.6606 46.714 36.5921 46.6782 36.5301C46.6424 36.4681 46.5944 36.414 46.5372 36.3709C46.4799 36.3279 46.4146 36.2969 46.3451 36.2797C46.2756 36.2625 46.2034 36.2595 46.1327 36.2709C46.062 36.2823 45.9943 36.3078 45.9337 36.3459L44.5106 37.1676C44.1856 36.7203 43.7861 36.3324 43.3295 36.0206V35.7419C43.3295 35.036 43.0491 34.3591 42.55 33.8599C42.0509 33.3608 41.3739 33.0804 40.6681 33.0804C39.9622 33.0804 39.2852 33.3608 38.7861 33.8599C38.287 34.3591 38.0066 35.036 38.0066 35.7419V36.0206C37.55 36.3324 37.1505 36.7203 36.8255 37.1676L35.4024 36.3459C35.3418 36.3078 35.2741 36.2823 35.2034 36.2709C35.1327 36.2595 35.0605 36.2625 34.991 36.2797C34.9215 36.2969 34.8562 36.3279 34.7989 36.3709C34.7417 36.414 34.6938 36.4681 34.6579 36.5301C34.6221 36.5921 34.5992 36.6606 34.5905 36.7317C34.5818 36.8028 34.5875 36.8749 34.6073 36.9437C34.6271 37.0125 34.6606 37.0766 34.7057 37.1321C34.7509 37.1877 34.8068 37.2336 34.8701 37.267L36.2839 38.0831C36.0973 38.5241 35.9785 38.9907 35.9313 39.4671H34.2805C34.1393 39.4671 34.0039 39.5232 33.9041 39.623C33.8043 39.7228 33.7482 39.8582 33.7482 39.9994C33.7482 40.1406 33.8043 40.276 33.9041 40.3758C34.0039 40.4756 34.1393 40.5317 34.2805 40.5317H35.9313C35.9784 41.0081 36.0971 41.4747 36.2834 41.9157L34.8701 42.7316C34.8068 42.765 34.7509 42.8109 34.7057 42.8665C34.6606 42.922 34.6271 42.9861 34.6073 43.0549C34.5875 43.1237 34.5818 43.1958 34.5905 43.2669C34.5992 43.3379 34.6221 43.4065 34.6579 43.4685C34.6938 43.5305 34.7417 43.5846 34.7989 43.6276C34.8562 43.6707 34.9215 43.7017 34.991 43.7189C35.0605 43.7361 35.1327 43.7391 35.2034 43.7277C35.2741 43.7163 35.3418 43.6908 35.4024 43.6526L36.8251 42.8314C37.2656 43.4379 37.8433 43.9314 38.5111 44.2718C39.1788 44.6122 39.9177 44.7897 40.6672 44.7898C41.4167 44.79 42.1556 44.6127 42.8235 44.2725C43.4914 43.9324 44.0693 43.439 44.51 42.8327L45.9337 43.6546C45.9943 43.6927 46.062 43.7182 46.1327 43.7296C46.2034 43.741 46.2756 43.738 46.3451 43.7208C46.4146 43.7036 46.4799 43.6726 46.5372 43.6296C46.5944 43.5865 46.6424 43.5324 46.6782 43.4704C46.714 43.4084 46.737 43.3399 46.7457 43.2688C46.7544 43.1977 46.7486 43.1256 46.7288 43.0568C46.709 42.988 46.6755 42.9239 46.6304 42.8684C46.5852 42.8128 46.5293 42.7669 46.466 42.7335L45.0518 41.9172C45.2387 41.4757 45.3577 41.0085 45.4049 40.5315H47.0556C47.1968 40.5315 47.3322 40.4754 47.432 40.3756C47.5318 40.2757 47.5879 40.1404 47.5879 39.9992C47.5879 39.858 47.5318 39.7226 47.432 39.6228C47.3322 39.523 47.1968 39.4669 47.0556 39.4669H45.4049C45.3576 38.9904 45.2388 38.5239 45.0523 38.0829L46.466 37.267ZM40.6681 34.145C41.0432 34.1485 41.4049 34.2856 41.6881 34.5317C41.9713 34.7778 42.1576 35.1168 42.2134 35.4879C41.2166 35.1168 40.1195 35.1168 39.1227 35.4879C39.1785 35.1168 39.3648 34.7778 39.648 34.5317C39.9312 34.2856 40.2929 34.1485 40.6681 34.145ZM40.6681 43.7263C39.9311 43.7263 39.2107 43.5078 38.598 43.0984C37.9852 42.6889 37.5076 42.107 37.2256 41.4262C36.9436 40.7453 36.8698 39.9961 37.0136 39.2733C37.1574 38.5505 37.5122 37.8866 38.0333 37.3655C38.5544 36.8444 39.2183 36.4895 39.9411 36.3458C40.6639 36.202 41.4131 36.2758 42.094 36.5578C42.7748 36.8398 43.3567 37.3174 43.7662 37.9302C44.1756 38.5429 44.3941 39.2633 44.3941 40.0002C44.3929 40.9881 43.9999 41.9351 43.3014 42.6336C42.6029 43.3321 41.6559 43.7251 40.6681 43.7263Z" fill="#FBFDFA"></path><path d="M40.6681 28.822C38.0144 28.8222 35.4473 29.7666 33.4262 31.4863C31.4051 33.206 30.0619 35.5888 29.6369 38.2083C29.2119 40.8277 29.7329 43.5129 31.1066 45.7834C32.4803 48.0539 34.6171 49.7615 37.1346 50.6007C39.6521 51.4399 42.3861 51.3558 44.8473 50.3637C47.3086 49.3715 49.3365 47.5359 50.5681 45.1853C51.7998 42.8348 52.1549 40.1226 51.5699 37.5342C50.9848 34.9458 49.4978 32.65 47.375 31.0577C47.3191 31.0156 47.2556 30.985 47.1879 30.9675C47.1202 30.95 47.0497 30.946 46.9805 30.9558C46.9113 30.9655 46.8447 30.9888 46.7845 31.0243C46.7242 31.0598 46.6716 31.1068 46.6296 31.1626C46.5875 31.2185 46.5569 31.2821 46.5394 31.3497C46.5219 31.4174 46.5179 31.4879 46.5277 31.5571C46.5374 31.6263 46.5607 31.6929 46.5962 31.7532C46.6317 31.8134 46.6787 31.866 46.7345 31.9081C48.7873 33.4514 50.1725 35.721 50.6066 38.2522C51.0407 40.7834 50.491 43.3849 49.0698 45.524C47.6487 47.6632 45.4637 49.1783 42.9621 49.7591C40.4604 50.34 37.8314 49.9427 35.6131 48.6486C33.3948 47.3545 31.755 45.2615 31.0293 42.7979C30.3037 40.3344 30.5472 37.6867 31.7098 35.3967C32.8725 33.1068 34.8664 31.3479 37.2835 30.4799C39.7006 29.612 42.358 29.7008 44.7118 30.7281C44.7762 30.7586 44.8461 30.7759 44.9173 30.7789C44.9885 30.7819 45.0596 30.7705 45.1264 30.7455C45.1931 30.7205 45.2542 30.6824 45.3059 30.6333C45.3576 30.5843 45.399 30.5254 45.4275 30.4601C45.456 30.3947 45.4712 30.3244 45.472 30.2531C45.4728 30.1818 45.4593 30.1111 45.4322 30.0451C45.4052 29.9792 45.3652 29.9193 45.3146 29.8691C45.264 29.8189 45.2038 29.7794 45.1376 29.7529C43.7284 29.1362 42.2063 28.8192 40.6681 28.822Z" fill="#FBFDFA"></path><path d="M61.1934 24.9795C60.6799 24.499 60.071 24.132 59.4062 23.9026C58.7415 23.6731 58.0359 23.5863 57.3353 23.6477C55.3443 23.8402 53.3407 23.4406 51.5759 22.499C50.3863 21.8478 49.3409 20.9626 48.5026 19.8967C48.0599 19.3506 47.4991 18.912 46.8623 18.6139C46.2256 18.3159 45.5295 18.1662 44.8266 18.1761H36.0916C34.8683 18.181 33.6926 18.6503 32.8022 19.4892C31.3542 20.8415 29.6243 21.8559 27.7371 22.4594C27.6705 22.4807 27.6087 22.5149 27.5553 22.5601C27.5019 22.6052 27.4579 22.6605 27.4258 22.7227C27.3938 22.7848 27.3743 22.8527 27.3684 22.9224C27.3626 22.9921 27.3706 23.0623 27.3919 23.1289C27.4131 23.1956 27.4474 23.2573 27.4925 23.3107C27.5377 23.3642 27.5929 23.4081 27.6551 23.4402C27.7173 23.4723 27.7852 23.4918 27.8549 23.4976C27.9246 23.5034 27.9947 23.4955 28.0614 23.4742C30.0973 22.8226 31.9635 21.7279 33.5257 20.2689C34.2201 19.6138 35.137 19.2464 36.0916 19.2407H44.8266C45.3692 19.2314 45.9069 19.3454 46.399 19.5741C46.8912 19.8027 47.3251 20.1401 47.668 20.5608C48.5955 21.7378 49.7511 22.7154 51.0655 23.4352C53.0119 24.4787 55.2238 24.9219 57.422 24.7089C57.9734 24.6599 58.529 24.7276 59.0526 24.9076C59.5762 25.0877 60.056 25.3759 60.4607 25.7537C60.836 26.1059 61.1318 26.5341 61.3284 27.0097C61.5251 27.4853 61.618 27.9974 61.6011 28.5118C61.5751 29.4912 61.5202 30.4768 61.4359 31.4384C61.1307 34.9472 60.4453 38.4126 59.3919 41.7734C59.3533 41.8961 59.3137 42.0064 59.2671 42.1258C58.1213 44.9849 56.7357 47.7419 55.1252 50.3675C53.9925 52.2116 52.7514 53.987 51.4085 55.6842C50.1058 57.2711 48.4674 58.5493 46.6114 59.4269C44.7554 60.3046 42.7278 60.7598 40.6748 60.7598C38.6217 60.7598 36.5942 60.3046 34.7381 59.4269C32.8821 58.5493 31.2437 57.2711 29.941 55.6842C28.5978 53.987 27.3564 52.2116 26.2233 50.3675C24.6133 47.7417 23.2285 44.9844 22.0835 42.1252C22.0356 42.0057 21.9962 41.8954 21.9576 41.7728C20.9054 38.4116 20.2201 34.9464 19.9136 31.4377C19.8072 30.213 19.7461 28.9696 19.7337 27.743C19.7282 27.2839 19.8151 26.8285 19.9892 26.4037C20.1634 25.979 20.4212 25.5936 20.7474 25.2706C21.4783 24.5522 22.4633 24.1516 23.4881 24.1561H23.5264C24.3019 24.1593 25.0765 24.1047 25.8438 23.9928C25.9833 23.9716 26.1086 23.8958 26.1923 23.7822C26.2759 23.6686 26.311 23.5264 26.2899 23.3869C26.2672 23.248 26.1911 23.1234 26.0778 23.0399C25.9646 22.9563 25.8231 22.9204 25.6837 22.9397C24.9733 23.0475 24.2554 23.0979 23.5369 23.0905C22.2153 23.086 20.9443 23.5979 19.9948 24.517C19.5681 24.9399 19.2308 25.4442 19.003 26C18.7751 26.5558 18.6613 27.1517 18.6683 27.7523C18.6817 29.0073 18.743 30.2778 18.8522 31.5284C19.1658 35.1137 19.8661 38.6545 20.941 42.0892C20.9876 42.2382 21.0355 42.3719 21.0947 42.5186C22.2623 45.4348 23.6746 48.247 25.3166 50.9249C26.4716 52.8052 27.7371 54.6153 29.1066 56.3456C30.5089 58.0581 32.274 59.438 34.2744 60.3855C36.2748 61.3329 38.4607 61.8244 40.6741 61.8244C42.8876 61.8244 45.0734 61.3329 47.0738 60.3855C49.0743 59.438 50.8393 58.0581 52.2417 56.3456C53.6111 54.6152 54.8767 52.8052 56.0316 50.9249C57.6739 48.2475 59.0866 45.436 60.2546 42.5203C60.313 42.3736 60.3611 42.2406 60.4075 42.0909C61.4832 38.6564 62.1835 35.1155 62.4962 31.5301C62.5825 30.5475 62.6385 29.5413 62.6655 28.5391C62.6871 27.8752 62.5669 27.2144 62.3131 26.6006C62.0593 25.9868 61.6775 25.4342 61.1934 24.9795Z" stroke="#FBFDFA" stroke-width="0.4"></path><path d="M40.6742 59.6952C42.5683 59.706 44.4407 59.2918 46.1536 58.4833C47.8665 57.6747 49.3762 56.4923 50.5717 55.0231C51.8895 53.3597 53.1066 51.6189 54.2167 49.8102C55.7988 47.232 57.1592 44.5241 58.2834 41.7157L58.3771 41.4547C59.4055 38.167 60.0758 34.7778 60.3764 31.3462C60.4616 30.3565 60.5156 29.4018 60.5384 28.482C60.551 28.1357 60.4928 27.7905 60.3673 27.4675C60.2419 27.1445 60.0518 26.8504 59.8088 26.6034C59.5058 26.3128 59.1455 26.0885 58.751 25.945C58.3564 25.8014 57.9363 25.7417 57.5173 25.7696H57.508C57.143 25.7999 56.7647 25.8165 56.3767 25.8165C54.3463 25.8333 52.3447 25.3351 50.559 24.3686C49.1181 23.5812 47.8511 22.5108 46.834 21.2217C46.5888 20.9289 46.2813 20.6945 45.934 20.5359C45.5866 20.3772 45.2082 20.2982 44.8264 20.3047H36.0916C35.4055 20.3105 34.7473 20.5769 34.2503 21.0499C32.5737 22.6154 30.5707 23.7896 28.3857 24.4879C26.8008 24.9874 25.1472 25.2347 23.4855 25.2207C22.7397 25.2161 22.0225 25.5078 21.4916 26.0317C21.2673 26.2535 21.0902 26.5183 20.9709 26.8102C20.8515 27.1021 20.7924 27.4151 20.797 27.7304C20.8094 28.9353 20.8688 30.1506 20.9727 31.3453C21.274 34.7842 21.9468 38.1804 22.9792 41.4745L23.0708 41.73C24.194 44.5332 25.552 47.2366 27.1305 49.8111C28.2409 51.6198 29.4584 53.3605 30.7765 55.024C32.6953 57.4097 35.4262 59.0042 38.4469 59.5027C38.5158 59.5157 38.5866 59.5148 38.6552 59.5C38.7237 59.4852 38.7886 59.4568 38.846 59.4165C38.9034 59.3762 38.9521 59.3248 38.9893 59.2653C39.0265 59.2058 39.0513 59.1395 39.0624 59.0703C39.0866 58.9313 39.0547 58.7884 38.9736 58.673C38.8925 58.5576 38.7689 58.4791 38.63 58.4547C35.8665 58.0003 33.3674 56.5434 31.6103 54.3627C28.4808 50.413 25.9395 46.0311 24.0655 41.3533L23.9887 41.137C22.9832 37.9222 22.3277 34.6082 22.0334 31.2527C21.9317 30.0853 21.8744 28.897 21.862 27.7183C21.8588 27.5437 21.8914 27.3702 21.9579 27.2087C22.0244 27.0473 22.1234 26.9012 22.2487 26.7795C22.4138 26.6192 22.6089 26.4929 22.8228 26.408C23.0367 26.3231 23.2652 26.2812 23.4953 26.2847C25.2639 26.2985 27.0236 26.0344 28.7101 25.5018C31.0442 24.7557 33.1838 23.5015 34.975 21.8294C35.2756 21.5404 35.6747 21.3762 36.0916 21.3699H44.8255C45.0471 21.3631 45.2674 21.4057 45.4705 21.4947C45.6735 21.5838 45.8542 21.7169 45.9993 21.8845C47.1051 23.2857 48.4825 24.449 50.0488 25.3048C51.9909 26.356 54.1676 26.898 56.3759 26.8804C56.7928 26.8804 57.2003 26.8617 57.5934 26.8315C57.8576 26.8122 58.123 26.8479 58.3729 26.9363C58.6227 27.0247 58.8515 27.1638 59.0448 27.345C59.1889 27.4904 59.3013 27.664 59.3749 27.8549C59.4486 28.0458 59.482 28.2499 59.473 28.4543C59.4492 29.3526 59.3983 30.2873 59.315 31.2531C59.0217 34.6005 58.3685 37.9066 57.3668 41.114L57.2878 41.3365C56.1878 44.0827 54.8571 46.7308 53.3101 49.2524C52.2221 51.025 51.0294 52.7312 49.7384 54.3618C48.6427 55.7056 47.2596 56.7867 45.691 57.5254C44.1224 58.2642 42.4081 58.6418 40.6742 58.6306C40.5331 58.6306 40.3977 58.6867 40.2978 58.7865C40.198 58.8863 40.1419 59.0217 40.1419 59.1629C40.1419 59.3041 40.198 59.4395 40.2978 59.5393C40.3977 59.6391 40.5331 59.6952 40.6742 59.6952Z" stroke="#FBFDFA" stroke-width="0.4"></path><path d="M46.466 37.267C46.5293 37.2336 46.5852 37.1877 46.6304 37.1321C46.6755 37.0766 46.709 37.0125 46.7288 36.9437C46.7486 36.8749 46.7544 36.8028 46.7457 36.7317C46.737 36.6606 46.714 36.5921 46.6782 36.5301C46.6424 36.4681 46.5944 36.414 46.5372 36.3709C46.4799 36.3279 46.4146 36.2969 46.3451 36.2797C46.2756 36.2625 46.2034 36.2595 46.1327 36.2709C46.062 36.2823 45.9943 36.3078 45.9337 36.3459L44.5106 37.1676C44.1856 36.7203 43.7861 36.3324 43.3295 36.0206V35.7419C43.3295 35.036 43.0491 34.3591 42.55 33.8599C42.0509 33.3608 41.3739 33.0804 40.6681 33.0804C39.9622 33.0804 39.2852 33.3608 38.7861 33.8599C38.287 34.3591 38.0066 35.036 38.0066 35.7419V36.0206C37.55 36.3324 37.1505 36.7203 36.8255 37.1676L35.4024 36.3459C35.3418 36.3078 35.2741 36.2823 35.2034 36.2709C35.1327 36.2595 35.0605 36.2625 34.991 36.2797C34.9215 36.2969 34.8562 36.3279 34.7989 36.3709C34.7417 36.414 34.6938 36.4681 34.6579 36.5301C34.6221 36.5921 34.5992 36.6606 34.5905 36.7317C34.5818 36.8028 34.5875 36.8749 34.6073 36.9437C34.6271 37.0125 34.6606 37.0766 34.7057 37.1321C34.7509 37.1877 34.8068 37.2336 34.8701 37.267L36.2839 38.0831C36.0973 38.5241 35.9785 38.9907 35.9313 39.4671H34.2805C34.1393 39.4671 34.0039 39.5232 33.9041 39.623C33.8043 39.7228 33.7482 39.8582 33.7482 39.9994C33.7482 40.1406 33.8043 40.276 33.9041 40.3758C34.0039 40.4756 34.1393 40.5317 34.2805 40.5317H35.9313C35.9784 41.0081 36.0971 41.4747 36.2834 41.9157L34.8701 42.7316C34.8068 42.765 34.7509 42.8109 34.7057 42.8665C34.6606 42.922 34.6271 42.9861 34.6073 43.0549C34.5875 43.1237 34.5818 43.1958 34.5905 43.2669C34.5992 43.3379 34.6221 43.4065 34.6579 43.4685C34.6938 43.5305 34.7417 43.5846 34.7989 43.6276C34.8562 43.6707 34.9215 43.7017 34.991 43.7189C35.0605 43.7361 35.1327 43.7391 35.2034 43.7277C35.2741 43.7163 35.3418 43.6908 35.4024 43.6526L36.8251 42.8314C37.2656 43.4379 37.8433 43.9314 38.5111 44.2718C39.1788 44.6122 39.9177 44.7897 40.6672 44.7898C41.4167 44.79 42.1556 44.6127 42.8235 44.2725C43.4914 43.9324 44.0693 43.439 44.51 42.8327L45.9337 43.6546C45.9943 43.6927 46.062 43.7182 46.1327 43.7296C46.2034 43.741 46.2756 43.738 46.3451 43.7208C46.4146 43.7036 46.4799 43.6726 46.5372 43.6296C46.5944 43.5865 46.6424 43.5324 46.6782 43.4704C46.714 43.4084 46.737 43.3399 46.7457 43.2688C46.7544 43.1977 46.7486 43.1256 46.7288 43.0568C46.709 42.988 46.6755 42.9239 46.6304 42.8684C46.5852 42.8128 46.5293 42.7669 46.466 42.7335L45.0518 41.9172C45.2387 41.4757 45.3577 41.0085 45.4049 40.5315H47.0556C47.1968 40.5315 47.3322 40.4754 47.432 40.3756C47.5318 40.2757 47.5879 40.1404 47.5879 39.9992C47.5879 39.858 47.5318 39.7226 47.432 39.6228C47.3322 39.523 47.1968 39.4669 47.0556 39.4669H45.4049C45.3576 38.9904 45.2388 38.5239 45.0523 38.0829L46.466 37.267ZM40.6681 34.145C41.0432 34.1485 41.4049 34.2856 41.6881 34.5317C41.9713 34.7778 42.1576 35.1168 42.2134 35.4879C41.2166 35.1168 40.1195 35.1168 39.1227 35.4879C39.1785 35.1168 39.3648 34.7778 39.648 34.5317C39.9312 34.2856 40.2929 34.1485 40.6681 34.145ZM40.6681 43.7263C39.9311 43.7263 39.2107 43.5078 38.598 43.0984C37.9852 42.6889 37.5076 42.107 37.2256 41.4262C36.9436 40.7453 36.8698 39.9961 37.0136 39.2733C37.1574 38.5505 37.5122 37.8866 38.0333 37.3655C38.5544 36.8444 39.2183 36.4895 39.9411 36.3458C40.6639 36.202 41.4131 36.2758 42.094 36.5578C42.7748 36.8398 43.3567 37.3174 43.7662 37.9302C44.1756 38.5429 44.3941 39.2633 44.3941 40.0002C44.3929 40.9881 43.9999 41.9351 43.3014 42.6336C42.6029 43.3321 41.6559 43.7251 40.6681 43.7263Z" stroke="#FBFDFA" stroke-width="0.4"></path><path d="M40.6681 28.822C38.0144 28.8222 35.4473 29.7666 33.4262 31.4863C31.4051 33.206 30.0619 35.5888 29.6369 38.2083C29.2119 40.8277 29.7329 43.5129 31.1066 45.7834C32.4803 48.0539 34.6171 49.7615 37.1346 50.6007C39.6521 51.4399 42.3861 51.3558 44.8473 50.3637C47.3086 49.3715 49.3365 47.5359 50.5681 45.1853C51.7998 42.8348 52.1549 40.1226 51.5699 37.5342C50.9848 34.9458 49.4978 32.65 47.375 31.0577C47.3191 31.0156 47.2556 30.985 47.1879 30.9675C47.1202 30.95 47.0497 30.946 46.9805 30.9558C46.9113 30.9655 46.8447 30.9888 46.7845 31.0243C46.7242 31.0598 46.6716 31.1068 46.6296 31.1626C46.5875 31.2185 46.5569 31.2821 46.5394 31.3497C46.5219 31.4174 46.5179 31.4879 46.5277 31.5571C46.5374 31.6263 46.5607 31.6929 46.5962 31.7532C46.6317 31.8134 46.6787 31.866 46.7345 31.9081C48.7873 33.4514 50.1725 35.721 50.6066 38.2522C51.0407 40.7834 50.491 43.3849 49.0698 45.524C47.6487 47.6632 45.4637 49.1783 42.9621 49.7591C40.4604 50.34 37.8314 49.9427 35.6131 48.6486C33.3948 47.3545 31.755 45.2615 31.0293 42.7979C30.3037 40.3344 30.5472 37.6867 31.7098 35.3967C32.8725 33.1068 34.8664 31.3479 37.2835 30.4799C39.7006 29.612 42.358 29.7008 44.7118 30.7281C44.7762 30.7586 44.8461 30.7759 44.9173 30.7789C44.9885 30.7819 45.0596 30.7705 45.1264 30.7455C45.1931 30.7205 45.2542 30.6824 45.3059 30.6333C45.3576 30.5843 45.399 30.5254 45.4275 30.4601C45.456 30.3947 45.4712 30.3244 45.472 30.2531C45.4728 30.1818 45.4593 30.1111 45.4322 30.0451C45.4052 29.9792 45.3652 29.9193 45.3146 29.8691C45.264 29.8189 45.2038 29.7794 45.1376 29.7529C43.7284 29.1362 42.2063 28.8192 40.6681 28.822Z" stroke="#FBFDFA" stroke-width="0.4"></path></svg>