<svg xmlns="http://www.w3.org/2000/svg" width="81" height="80" viewBox="0 0 81 80" fill="none"><rect x="0.332031" width="80" height="80" rx="40" fill="#CA732F"></rect><path d="M53.2101 31.9538C53.5064 31.9538 53.7467 31.7136 53.7467 31.4172C53.7467 31.1209 53.5064 30.8806 53.2101 30.8806C52.9137 30.8806 52.6735 31.1209 52.6735 31.4172C52.6735 31.7136 52.9137 31.9538 53.2101 31.9538Z" fill="#FBFDFA"></path><path d="M36.0393 36.2439C36.1817 36.2439 36.3181 36.1874 36.4188 36.0868C36.5194 35.9861 36.5759 35.8497 36.5759 35.7073C36.5759 35.565 36.5194 35.4285 36.4188 35.3279C36.3181 35.2273 36.1817 35.1708 36.0393 35.1708H34.3753C34.3277 34.6905 34.2079 34.2201 34.0199 33.7756L35.445 32.9529C35.5088 32.9192 35.5652 32.873 35.6107 32.817C35.6562 32.7609 35.69 32.6963 35.7099 32.627C35.7299 32.5576 35.7357 32.4849 35.7269 32.4133C35.7181 32.3417 35.695 32.2725 35.6589 32.2101C35.6228 32.1476 35.5744 32.093 35.5167 32.0496C35.459 32.0063 35.3932 31.975 35.3231 31.9576C35.2531 31.9403 35.1802 31.9373 35.109 31.9488C35.0377 31.9603 34.9695 31.986 34.9084 32.0244L33.4738 32.8527C33.1357 32.3893 32.7181 31.9897 32.2403 31.6722C32.2602 31.5874 32.2746 31.5014 32.2833 31.4147C32.2833 30.7031 32.0006 30.0207 31.4974 29.5175C30.9943 29.0144 30.3119 28.7317 29.6003 28.7317C28.8888 28.7317 28.2064 29.0144 27.7032 29.5175C27.2001 30.0207 26.9174 30.7031 26.9174 31.4147C26.9261 31.5014 26.9404 31.5874 26.9603 31.6722C26.4826 31.9897 26.0651 32.3894 25.727 32.8527L24.2924 32.0244C24.2313 31.986 24.1631 31.9603 24.0919 31.9488C24.0206 31.9373 23.9478 31.9403 23.8777 31.9576C23.8077 31.975 23.7418 32.0063 23.6841 32.0496C23.6264 32.093 23.5781 32.1476 23.542 32.2101C23.5059 32.2725 23.4827 32.3417 23.474 32.4133C23.4652 32.4849 23.471 32.5576 23.4909 32.627C23.5109 32.6963 23.5446 32.7609 23.5902 32.817C23.6357 32.873 23.692 32.9192 23.7558 32.9529L25.181 33.7756C24.993 34.2201 24.8732 34.6905 24.8256 35.1708H23.1613C23.019 35.1708 22.8825 35.2273 22.7819 35.3279C22.6812 35.4285 22.6247 35.565 22.6247 35.7073C22.6247 35.8497 22.6812 35.9861 22.7819 36.0868C22.8825 36.1874 23.019 36.2439 23.1613 36.2439H24.8425C24.8962 36.7188 25.0207 37.183 25.2119 37.621L23.7556 38.4617C23.6918 38.4955 23.6355 38.5417 23.5899 38.5977C23.5444 38.6537 23.5107 38.7183 23.4907 38.7877C23.4707 38.8571 23.465 38.9297 23.4737 39.0014C23.4825 39.073 23.5057 39.1421 23.5418 39.2046C23.5779 39.2671 23.6262 39.3217 23.6839 39.365C23.7416 39.4084 23.8075 39.4397 23.8775 39.457C23.9476 39.4744 24.0204 39.4774 24.0917 39.4659C24.1629 39.4544 24.2311 39.4287 24.2922 39.3902L25.7481 38.55C26.1288 39.091 26.6176 39.5473 27.1835 39.8899C27.3067 39.9614 27.4531 39.981 27.5907 39.9444C27.7283 39.9079 27.8457 39.8182 27.9172 39.695C27.9886 39.5719 28.0082 39.4254 27.9717 39.2879C27.9351 39.1503 27.8454 39.0328 27.7223 38.9614C26.9323 38.5061 26.3349 37.7792 26.0412 36.9161C25.7475 36.0529 25.7776 35.1125 26.126 34.2699C26.4743 33.4273 27.1171 32.7402 27.9345 32.3364C28.752 31.9326 29.6884 31.8398 30.5692 32.0753C31.45 32.3107 32.2151 32.8584 32.7221 33.6162C33.229 34.374 33.4432 35.2902 33.3246 36.1942C33.2061 37.0982 32.7629 37.9283 32.0777 38.5297C31.3925 39.1312 30.5121 39.463 29.6003 39.4634C29.458 39.4634 29.3215 39.52 29.2209 39.6206C29.1203 39.7212 29.0637 39.8577 29.0637 40C29.0637 40.1423 29.1203 40.2788 29.2209 40.3794C29.3215 40.4801 29.458 40.5366 29.6003 40.5366C30.3554 40.5347 31.0994 40.3551 31.7722 40.0124C32.445 39.6696 33.0277 39.1734 33.4732 38.5637L34.9084 39.3922C34.9695 39.4306 35.0377 39.4564 35.109 39.4678C35.1802 39.4793 35.2531 39.4763 35.3231 39.459C35.3932 39.4416 35.459 39.4103 35.5167 39.367C35.5744 39.3236 35.6228 39.269 35.6589 39.2066C35.695 39.1441 35.7181 39.0749 35.7269 39.0033C35.7357 38.9317 35.7299 38.859 35.7099 38.7896C35.69 38.7203 35.6562 38.6557 35.6107 38.5997C35.5652 38.5436 35.5088 38.4974 35.445 38.4637L34.0194 37.6408C34.2078 37.1957 34.3277 36.7248 34.3753 36.2439H36.0393ZM29.6003 30.8781C29.069 30.8841 28.5425 30.9789 28.0425 31.1586C28.0955 30.7832 28.2823 30.4395 28.5686 30.1909C28.8548 29.9422 29.2212 29.8053 29.6003 29.8053C29.9795 29.8053 30.3459 29.9422 30.6321 30.1909C30.9183 30.4395 31.1051 30.7832 31.1581 31.1586C30.6581 30.9789 30.1316 30.8841 29.6003 30.8781Z" fill="#FBFDFA"></path><path d="M57.5028 20.1464H29.6003C29.458 20.1464 29.3215 20.2029 29.2209 20.3035C29.1203 20.4042 29.0637 20.5406 29.0637 20.6829C29.0637 20.8253 29.1203 20.9617 29.2209 21.0624C29.3215 21.163 29.458 21.2195 29.6003 21.2195H57.5028C58.4986 21.2208 59.4532 21.6169 60.1573 22.321C60.8615 23.0252 61.2576 23.9798 61.2589 24.9756V48.5854C61.2576 49.5812 60.8615 50.5358 60.1573 51.24C59.4532 51.9441 58.4986 52.3402 57.5028 52.3415H23.1613C22.1655 52.3402 21.2109 51.9441 20.5067 51.24C19.8026 50.5358 19.4065 49.5812 19.4052 48.5854V24.9756C19.4065 23.9798 19.8026 23.0252 20.5067 22.321C21.2109 21.6169 22.1655 21.2208 23.1613 21.2195H27.454C27.5963 21.2195 27.7328 21.163 27.8334 21.0624C27.934 20.9617 27.9906 20.8253 27.9906 20.6829C27.9906 20.5406 27.934 20.4042 27.8334 20.3035C27.7328 20.2029 27.5963 20.1464 27.454 20.1464H23.1613C21.8809 20.1478 20.6534 20.657 19.7481 21.5624C18.8427 22.4677 18.3335 23.6953 18.332 24.9756V48.5854C18.3335 49.8658 18.8427 51.0933 19.7481 51.9986C20.6534 52.904 21.8809 53.4132 23.1613 53.4147H35.5028V55.0244C35.5023 55.4512 35.3326 55.8604 35.0308 56.1622C34.729 56.464 34.3198 56.6337 33.893 56.6342H32.8198C32.3929 56.6342 31.9835 56.8038 31.6816 57.1057C31.3797 57.4075 31.2101 57.817 31.2101 58.2439C31.2101 58.6709 31.3797 59.0803 31.6816 59.3822C31.9835 59.6841 32.3929 59.8537 32.8198 59.8537H47.8442C48.2712 59.8537 48.6806 59.6841 48.9825 59.3822C49.2844 59.0803 49.454 58.6709 49.454 58.2439C49.454 57.817 49.2844 57.4075 48.9825 57.1057C48.6806 56.8038 48.2712 56.6342 47.8442 56.6342H46.7711C46.3443 56.6337 45.9351 56.464 45.6333 56.1622C45.3315 55.8604 45.1618 55.4512 45.1613 55.0244V53.4147H57.5028C58.7831 53.4132 60.0107 52.904 60.916 51.9986C61.8214 51.0933 62.3306 49.8658 62.332 48.5854V24.9756C62.3306 23.6953 61.8214 22.4677 60.916 21.5624C60.0107 20.657 58.7831 20.1478 57.5028 20.1464ZM36.5759 55.0244V53.4147H44.0881V55.0244C44.1 55.6123 44.3089 56.1792 44.6814 56.6342H35.9827C36.3552 56.1792 36.5641 55.6123 36.5759 55.0244ZM47.8442 57.7073C47.9865 57.7073 48.123 57.7639 48.2237 57.8645C48.3243 57.9651 48.3808 58.1016 48.3808 58.2439C48.3808 58.3862 48.3243 58.5227 48.2237 58.6233C48.123 58.724 47.9865 58.7805 47.8442 58.7805H32.8198C32.6775 58.7805 32.541 58.724 32.4404 58.6233C32.3398 58.5227 32.2833 58.3862 32.2833 58.2439C32.2833 58.1016 32.3398 57.9651 32.4404 57.8645C32.541 57.7639 32.6775 57.7073 32.8198 57.7073H47.8442Z" fill="#FBFDFA"></path><path d="M53.2101 44.8293H57.5028C58.2141 44.8287 58.8962 44.5458 59.3992 44.0428C59.9022 43.5398 60.1851 42.8577 60.1857 42.1464V24.9756C60.1851 24.2643 59.9022 23.5822 59.3992 23.0792C58.8962 22.5762 58.2141 22.2933 57.5028 22.2927H23.1613C22.4499 22.2933 21.7679 22.5762 21.2649 23.0792C20.7619 23.5822 20.479 24.2643 20.4784 24.9756V42.1464C20.479 42.8577 20.7619 43.5398 21.2649 44.0428C21.7679 44.5458 22.4499 44.8287 23.1613 44.8293H51.0637C51.2061 44.8293 51.3425 44.7728 51.4432 44.6721C51.5438 44.5715 51.6003 44.435 51.6003 44.2927C51.6003 44.1504 51.5438 44.0139 51.4432 43.9133C51.3425 43.8127 51.2061 43.7561 51.0637 43.7561H23.1613C22.7345 43.7557 22.3253 43.5859 22.0235 43.2841C21.7217 42.9823 21.552 42.5732 21.5515 42.1464V24.9756C21.552 24.5488 21.7217 24.1397 22.0235 23.8379C22.3253 23.5361 22.7345 23.3663 23.1613 23.3659H57.5028C57.9296 23.3663 58.3387 23.5361 58.6405 23.8379C58.9423 24.1397 59.1121 24.5488 59.1125 24.9756V42.1464C59.1121 42.5732 58.9423 42.9823 58.6405 43.2841C58.3387 43.5859 57.9296 43.7557 57.5028 43.7561H53.2101C53.0678 43.7561 52.9313 43.8127 52.8307 43.9133C52.73 44.0139 52.6735 44.1504 52.6735 44.2927C52.6735 44.435 52.73 44.5715 52.8307 44.6721C52.9313 44.7728 53.0678 44.8293 53.2101 44.8293Z" fill="#FBFDFA"></path><path d="M38.1857 48.0488C38.0434 48.0488 37.9069 48.1053 37.8063 48.206C37.7056 48.3066 37.6491 48.4431 37.6491 48.5854C37.6491 48.7277 37.7056 48.8642 37.8063 48.9648C37.9069 49.0654 38.0434 49.122 38.1857 49.122H42.4784C42.6207 49.122 42.7572 49.0654 42.8578 48.9648C42.9584 48.8642 43.015 48.7277 43.015 48.5854C43.015 48.4431 42.9584 48.3066 42.8578 48.206C42.7572 48.1053 42.6207 48.0488 42.4784 48.0488H38.1857Z" fill="#FBFDFA"></path><path d="M53.2101 29.8049C53.3524 29.8049 53.4889 29.7484 53.5895 29.6477C53.6901 29.5471 53.7467 29.4106 53.7467 29.2683V27.122C53.7467 26.9797 53.6901 26.8432 53.5895 26.7425C53.4889 26.6419 53.3524 26.5854 53.2101 26.5854C53.0678 26.5854 52.9313 26.6419 52.8307 26.7425C52.73 26.8432 52.6735 26.9797 52.6735 27.122V29.2683C52.6735 29.4106 52.73 29.5471 52.8307 29.6477C52.9313 29.7484 53.0678 29.8049 53.2101 29.8049Z" fill="#FBFDFA"></path><path d="M58.0393 29.2683C58.0393 28.3132 57.7561 27.3795 57.2255 26.5853C56.6948 25.7911 55.9406 25.1722 55.0582 24.8067C54.1757 24.4411 53.2047 24.3455 52.2679 24.5318C51.3312 24.7182 50.4707 25.1781 49.7953 25.8535C49.1199 26.5289 48.6599 27.3894 48.4736 28.3262C48.2873 29.263 48.3829 30.234 48.7484 31.1164C49.1139 31.9988 49.7329 32.7531 50.5271 33.2837C51.3213 33.8144 52.2549 34.0976 53.2101 34.0976C54.4904 34.0962 55.718 33.5869 56.6233 32.6816C57.5287 31.7762 58.0379 30.5487 58.0393 29.2683ZM49.454 29.2683C49.454 28.5254 49.6743 27.7992 50.087 27.1815C50.4997 26.5638 51.0863 26.0824 51.7727 25.7981C52.459 25.5138 53.2142 25.4395 53.9429 25.5844C54.6715 25.7293 55.3407 26.0871 55.866 26.6124C56.3913 27.1377 56.7491 27.8069 56.894 28.5355C57.0389 29.2641 56.9646 30.0194 56.6803 30.7057C56.396 31.392 55.9145 31.9787 55.2969 32.3914C54.6792 32.8041 53.953 33.0244 53.2101 33.0244C52.2143 33.0232 51.2596 32.627 50.5555 31.9229C49.8514 31.2188 49.4552 30.2641 49.454 29.2683Z" fill="#FBFDFA"></path><path d="M38.1857 29.8049H42.4784C42.6207 29.8049 42.7572 29.7484 42.8578 29.6477C42.9584 29.5471 43.015 29.4106 43.015 29.2683C43.015 29.126 42.9584 28.9895 42.8578 28.8889C42.7572 28.7883 42.6207 28.7317 42.4784 28.7317H38.1857C38.0434 28.7317 37.9069 28.7883 37.8063 28.8889C37.7056 28.9895 37.6491 29.126 37.6491 29.2683C37.6491 29.4106 37.7056 29.5471 37.8063 29.6477C37.9069 29.7484 38.0434 29.8049 38.1857 29.8049Z" fill="#FBFDFA"></path><path d="M46.7711 30.8781H38.1857C38.0434 30.8781 37.9069 30.9346 37.8063 31.0352C37.7056 31.1359 37.6491 31.2723 37.6491 31.4147C37.6491 31.557 37.7056 31.6934 37.8063 31.7941C37.9069 31.8947 38.0434 31.9512 38.1857 31.9512H46.7711C46.9134 31.9512 47.0499 31.8947 47.1505 31.7941C47.2511 31.6934 47.3076 31.557 47.3076 31.4147C47.3076 31.2723 47.2511 31.1359 47.1505 31.0352C47.0499 30.9346 46.9134 30.8781 46.7711 30.8781Z" fill="#FBFDFA"></path><path d="M44.6247 35.1708H40.332C39.6205 35.1708 38.9381 35.4534 38.4349 35.9566C37.9318 36.4597 37.6491 37.1421 37.6491 37.8537C37.6491 38.5652 37.9318 39.2477 38.4349 39.7508C38.9381 40.2539 39.6205 40.5366 40.332 40.5366H44.6247C45.3363 40.5366 46.0187 40.2539 46.5218 39.7508C47.025 39.2477 47.3076 38.5652 47.3076 37.8537C47.3076 37.1421 47.025 36.4597 46.5218 35.9566C46.0187 35.4534 45.3363 35.1708 44.6247 35.1708ZM44.6247 39.4634H40.332C39.9051 39.4634 39.4957 39.2938 39.1938 38.9919C38.8919 38.6901 38.7223 38.2806 38.7223 37.8537C38.7223 37.4267 38.8919 37.0173 39.1938 36.7154C39.4957 36.4135 39.9051 36.2439 40.332 36.2439H44.6247C45.0516 36.2439 45.4611 36.4135 45.763 36.7154C46.0649 37.0173 46.2345 37.4267 46.2345 37.8537C46.2345 38.2806 46.0649 38.6901 45.763 38.9919C45.4611 39.2938 45.0516 39.4634 44.6247 39.4634Z" fill="#FBFDFA"></path><path d="M53.2101 31.9538C53.5064 31.9538 53.7467 31.7136 53.7467 31.4172C53.7467 31.1209 53.5064 30.8806 53.2101 30.8806C52.9137 30.8806 52.6735 31.1209 52.6735 31.4172C52.6735 31.7136 52.9137 31.9538 53.2101 31.9538Z" stroke="#FBFDFA" stroke-width="0.4"></path><path d="M36.0393 36.2439C36.1817 36.2439 36.3181 36.1874 36.4188 36.0868C36.5194 35.9861 36.5759 35.8497 36.5759 35.7073C36.5759 35.565 36.5194 35.4285 36.4188 35.3279C36.3181 35.2273 36.1817 35.1708 36.0393 35.1708H34.3753C34.3277 34.6905 34.2079 34.2201 34.0199 33.7756L35.445 32.9529C35.5088 32.9192 35.5652 32.873 35.6107 32.817C35.6562 32.7609 35.69 32.6963 35.7099 32.627C35.7299 32.5576 35.7357 32.4849 35.7269 32.4133C35.7181 32.3417 35.695 32.2725 35.6589 32.2101C35.6228 32.1476 35.5744 32.093 35.5167 32.0496C35.459 32.0063 35.3932 31.975 35.3231 31.9576C35.2531 31.9403 35.1802 31.9373 35.109 31.9488C35.0377 31.9603 34.9695 31.986 34.9084 32.0244L33.4738 32.8527C33.1357 32.3893 32.7181 31.9897 32.2403 31.6722C32.2602 31.5874 32.2746 31.5014 32.2833 31.4147C32.2833 30.7031 32.0006 30.0207 31.4974 29.5175C30.9943 29.0144 30.3119 28.7317 29.6003 28.7317C28.8888 28.7317 28.2064 29.0144 27.7032 29.5175C27.2001 30.0207 26.9174 30.7031 26.9174 31.4147C26.9261 31.5014 26.9404 31.5874 26.9603 31.6722C26.4826 31.9897 26.0651 32.3894 25.727 32.8527L24.2924 32.0244C24.2313 31.986 24.1631 31.9603 24.0919 31.9488C24.0206 31.9373 23.9478 31.9403 23.8777 31.9576C23.8077 31.975 23.7418 32.0063 23.6841 32.0496C23.6264 32.093 23.5781 32.1476 23.542 32.2101C23.5059 32.2725 23.4827 32.3417 23.474 32.4133C23.4652 32.4849 23.471 32.5576 23.4909 32.627C23.5109 32.6963 23.5446 32.7609 23.5902 32.817C23.6357 32.873 23.692 32.9192 23.7558 32.9529L25.181 33.7756C24.993 34.2201 24.8732 34.6905 24.8256 35.1708H23.1613C23.019 35.1708 22.8825 35.2273 22.7819 35.3279C22.6812 35.4285 22.6247 35.565 22.6247 35.7073C22.6247 35.8497 22.6812 35.9861 22.7819 36.0868C22.8825 36.1874 23.019 36.2439 23.1613 36.2439H24.8425C24.8962 36.7188 25.0207 37.183 25.2119 37.621L23.7556 38.4617C23.6918 38.4955 23.6355 38.5417 23.5899 38.5977C23.5444 38.6537 23.5107 38.7183 23.4907 38.7877C23.4707 38.8571 23.465 38.9297 23.4737 39.0014C23.4825 39.073 23.5057 39.1421 23.5418 39.2046C23.5779 39.2671 23.6262 39.3217 23.6839 39.365C23.7416 39.4084 23.8075 39.4397 23.8775 39.457C23.9476 39.4744 24.0204 39.4774 24.0917 39.4659C24.1629 39.4544 24.2311 39.4287 24.2922 39.3902L25.7481 38.55C26.1288 39.091 26.6176 39.5473 27.1835 39.8899C27.3067 39.9614 27.4531 39.981 27.5907 39.9444C27.7283 39.9079 27.8457 39.8182 27.9172 39.695C27.9886 39.5719 28.0082 39.4254 27.9717 39.2879C27.9351 39.1503 27.8454 39.0328 27.7223 38.9614C26.9323 38.5061 26.3349 37.7792 26.0412 36.9161C25.7475 36.0529 25.7776 35.1125 26.126 34.2699C26.4743 33.4273 27.1171 32.7402 27.9345 32.3364C28.752 31.9326 29.6884 31.8398 30.5692 32.0753C31.45 32.3107 32.2151 32.8584 32.7221 33.6162C33.229 34.374 33.4432 35.2902 33.3246 36.1942C33.2061 37.0982 32.7629 37.9283 32.0777 38.5297C31.3925 39.1312 30.5121 39.463 29.6003 39.4634C29.458 39.4634 29.3215 39.52 29.2209 39.6206C29.1203 39.7212 29.0637 39.8577 29.0637 40C29.0637 40.1423 29.1203 40.2788 29.2209 40.3794C29.3215 40.4801 29.458 40.5366 29.6003 40.5366C30.3554 40.5347 31.0994 40.3551 31.7722 40.0124C32.445 39.6696 33.0277 39.1734 33.4732 38.5637L34.9084 39.3922C34.9695 39.4306 35.0377 39.4564 35.109 39.4678C35.1802 39.4793 35.2531 39.4763 35.3231 39.459C35.3932 39.4416 35.459 39.4103 35.5167 39.367C35.5744 39.3236 35.6228 39.269 35.6589 39.2066C35.695 39.1441 35.7181 39.0749 35.7269 39.0033C35.7357 38.9317 35.7299 38.859 35.7099 38.7896C35.69 38.7203 35.6562 38.6557 35.6107 38.5997C35.5652 38.5436 35.5088 38.4974 35.445 38.4637L34.0194 37.6408C34.2078 37.1957 34.3277 36.7248 34.3753 36.2439H36.0393ZM29.6003 30.8781C29.069 30.8841 28.5425 30.9789 28.0425 31.1586C28.0955 30.7832 28.2823 30.4395 28.5686 30.1909C28.8548 29.9422 29.2212 29.8053 29.6003 29.8053C29.9795 29.8053 30.3459 29.9422 30.6321 30.1909C30.9183 30.4395 31.1051 30.7832 31.1581 31.1586C30.6581 30.9789 30.1316 30.8841 29.6003 30.8781Z" stroke="#FBFDFA" stroke-width="0.4"></path><path d="M57.5028 20.1464H29.6003C29.458 20.1464 29.3215 20.2029 29.2209 20.3035C29.1203 20.4042 29.0637 20.5406 29.0637 20.6829C29.0637 20.8253 29.1203 20.9617 29.2209 21.0624C29.3215 21.163 29.458 21.2195 29.6003 21.2195H57.5028C58.4986 21.2208 59.4532 21.6169 60.1573 22.321C60.8615 23.0252 61.2576 23.9798 61.2589 24.9756V48.5854C61.2576 49.5812 60.8615 50.5358 60.1573 51.24C59.4532 51.9441 58.4986 52.3402 57.5028 52.3415H23.1613C22.1655 52.3402 21.2109 51.9441 20.5067 51.24C19.8026 50.5358 19.4065 49.5812 19.4052 48.5854V24.9756C19.4065 23.9798 19.8026 23.0252 20.5067 22.321C21.2109 21.6169 22.1655 21.2208 23.1613 21.2195H27.454C27.5963 21.2195 27.7328 21.163 27.8334 21.0624C27.934 20.9617 27.9906 20.8253 27.9906 20.6829C27.9906 20.5406 27.934 20.4042 27.8334 20.3035C27.7328 20.2029 27.5963 20.1464 27.454 20.1464H23.1613C21.8809 20.1478 20.6534 20.657 19.7481 21.5624C18.8427 22.4677 18.3335 23.6953 18.332 24.9756V48.5854C18.3335 49.8658 18.8427 51.0933 19.7481 51.9986C20.6534 52.904 21.8809 53.4132 23.1613 53.4147H35.5028V55.0244C35.5023 55.4512 35.3326 55.8604 35.0308 56.1622C34.729 56.464 34.3198 56.6337 33.893 56.6342H32.8198C32.3929 56.6342 31.9835 56.8038 31.6816 57.1057C31.3797 57.4075 31.2101 57.817 31.2101 58.2439C31.2101 58.6709 31.3797 59.0803 31.6816 59.3822C31.9835 59.6841 32.3929 59.8537 32.8198 59.8537H47.8442C48.2712 59.8537 48.6806 59.6841 48.9825 59.3822C49.2844 59.0803 49.454 58.6709 49.454 58.2439C49.454 57.817 49.2844 57.4075 48.9825 57.1057C48.6806 56.8038 48.2712 56.6342 47.8442 56.6342H46.7711C46.3443 56.6337 45.9351 56.464 45.6333 56.1622C45.3315 55.8604 45.1618 55.4512 45.1613 55.0244V53.4147H57.5028C58.7831 53.4132 60.0107 52.904 60.916 51.9986C61.8214 51.0933 62.3306 49.8658 62.332 48.5854V24.9756C62.3306 23.6953 61.8214 22.4677 60.916 21.5624C60.0107 20.657 58.7831 20.1478 57.5028 20.1464ZM36.5759 55.0244V53.4147H44.0881V55.0244C44.1 55.6123 44.3089 56.1792 44.6814 56.6342H35.9827C36.3552 56.1792 36.5641 55.6123 36.5759 55.0244ZM47.8442 57.7073C47.9865 57.7073 48.123 57.7639 48.2237 57.8645C48.3243 57.9651 48.3808 58.1016 48.3808 58.2439C48.3808 58.3862 48.3243 58.5227 48.2237 58.6233C48.123 58.724 47.9865 58.7805 47.8442 58.7805H32.8198C32.6775 58.7805 32.541 58.724 32.4404 58.6233C32.3398 58.5227 32.2833 58.3862 32.2833 58.2439C32.2833 58.1016 32.3398 57.9651 32.4404 57.8645C32.541 57.7639 32.6775 57.7073 32.8198 57.7073H47.8442Z" stroke="#FBFDFA" stroke-width="0.4"></path><path d="M53.2101 44.8293H57.5028C58.2141 44.8287 58.8962 44.5458 59.3992 44.0428C59.9022 43.5398 60.1851 42.8577 60.1857 42.1464V24.9756C60.1851 24.2643 59.9022 23.5822 59.3992 23.0792C58.8962 22.5762 58.2141 22.2933 57.5028 22.2927H23.1613C22.4499 22.2933 21.7679 22.5762 21.2649 23.0792C20.7619 23.5822 20.479 24.2643 20.4784 24.9756V42.1464C20.479 42.8577 20.7619 43.5398 21.2649 44.0428C21.7679 44.5458 22.4499 44.8287 23.1613 44.8293H51.0637C51.2061 44.8293 51.3425 44.7728 51.4432 44.6721C51.5438 44.5715 51.6003 44.435 51.6003 44.2927C51.6003 44.1504 51.5438 44.0139 51.4432 43.9133C51.3425 43.8127 51.2061 43.7561 51.0637 43.7561H23.1613C22.7345 43.7557 22.3253 43.5859 22.0235 43.2841C21.7217 42.9823 21.552 42.5732 21.5515 42.1464V24.9756C21.552 24.5488 21.7217 24.1397 22.0235 23.8379C22.3253 23.5361 22.7345 23.3663 23.1613 23.3659H57.5028C57.9296 23.3663 58.3387 23.5361 58.6405 23.8379C58.9423 24.1397 59.1121 24.5488 59.1125 24.9756V42.1464C59.1121 42.5732 58.9423 42.9823 58.6405 43.2841C58.3387 43.5859 57.9296 43.7557 57.5028 43.7561H53.2101C53.0678 43.7561 52.9313 43.8127 52.8307 43.9133C52.73 44.0139 52.6735 44.1504 52.6735 44.2927C52.6735 44.435 52.73 44.5715 52.8307 44.6721C52.9313 44.7728 53.0678 44.8293 53.2101 44.8293Z" stroke="#FBFDFA" stroke-width="0.4"></path><path d="M38.1857 48.0488C38.0434 48.0488 37.9069 48.1053 37.8063 48.206C37.7056 48.3066 37.6491 48.4431 37.6491 48.5854C37.6491 48.7277 37.7056 48.8642 37.8063 48.9648C37.9069 49.0654 38.0434 49.122 38.1857 49.122H42.4784C42.6207 49.122 42.7572 49.0654 42.8578 48.9648C42.9584 48.8642 43.015 48.7277 43.015 48.5854C43.015 48.4431 42.9584 48.3066 42.8578 48.206C42.7572 48.1053 42.6207 48.0488 42.4784 48.0488H38.1857Z" stroke="#FBFDFA" stroke-width="0.4"></path><path d="M53.2101 29.8049C53.3524 29.8049 53.4889 29.7484 53.5895 29.6477C53.6901 29.5471 53.7467 29.4106 53.7467 29.2683V27.122C53.7467 26.9797 53.6901 26.8432 53.5895 26.7425C53.4889 26.6419 53.3524 26.5854 53.2101 26.5854C53.0678 26.5854 52.9313 26.6419 52.8307 26.7425C52.73 26.8432 52.6735 26.9797 52.6735 27.122V29.2683C52.6735 29.4106 52.73 29.5471 52.8307 29.6477C52.9313 29.7484 53.0678 29.8049 53.2101 29.8049Z" stroke="#FBFDFA" stroke-width="0.4"></path><path d="M58.0393 29.2683C58.0393 28.3132 57.7561 27.3795 57.2255 26.5853C56.6948 25.7911 55.9406 25.1722 55.0582 24.8067C54.1757 24.4411 53.2047 24.3455 52.2679 24.5318C51.3312 24.7182 50.4707 25.1781 49.7953 25.8535C49.1199 26.5289 48.6599 27.3894 48.4736 28.3262C48.2873 29.263 48.3829 30.234 48.7484 31.1164C49.1139 31.9988 49.7329 32.7531 50.5271 33.2837C51.3213 33.8144 52.2549 34.0976 53.2101 34.0976C54.4904 34.0962 55.718 33.5869 56.6233 32.6816C57.5287 31.7762 58.0379 30.5487 58.0393 29.2683ZM49.454 29.2683C49.454 28.5254 49.6743 27.7992 50.087 27.1815C50.4997 26.5638 51.0863 26.0824 51.7727 25.7981C52.459 25.5138 53.2142 25.4395 53.9429 25.5844C54.6715 25.7293 55.3407 26.0871 55.866 26.6124C56.3913 27.1377 56.7491 27.8069 56.894 28.5355C57.0389 29.2641 56.9646 30.0194 56.6803 30.7057C56.396 31.392 55.9145 31.9787 55.2969 32.3914C54.6792 32.8041 53.953 33.0244 53.2101 33.0244C52.2143 33.0232 51.2596 32.627 50.5555 31.9229C49.8514 31.2188 49.4552 30.2641 49.454 29.2683Z" stroke="#FBFDFA" stroke-width="0.4"></path><path d="M38.1857 29.8049H42.4784C42.6207 29.8049 42.7572 29.7484 42.8578 29.6477C42.9584 29.5471 43.015 29.4106 43.015 29.2683C43.015 29.126 42.9584 28.9895 42.8578 28.8889C42.7572 28.7883 42.6207 28.7317 42.4784 28.7317H38.1857C38.0434 28.7317 37.9069 28.7883 37.8063 28.8889C37.7056 28.9895 37.6491 29.126 37.6491 29.2683C37.6491 29.4106 37.7056 29.5471 37.8063 29.6477C37.9069 29.7484 38.0434 29.8049 38.1857 29.8049Z" stroke="#FBFDFA" stroke-width="0.4"></path><path d="M46.7711 30.8781H38.1857C38.0434 30.8781 37.9069 30.9346 37.8063 31.0352C37.7056 31.1359 37.6491 31.2723 37.6491 31.4147C37.6491 31.557 37.7056 31.6934 37.8063 31.7941C37.9069 31.8947 38.0434 31.9512 38.1857 31.9512H46.7711C46.9134 31.9512 47.0499 31.8947 47.1505 31.7941C47.2511 31.6934 47.3076 31.557 47.3076 31.4147C47.3076 31.2723 47.2511 31.1359 47.1505 31.0352C47.0499 30.9346 46.9134 30.8781 46.7711 30.8781Z" stroke="#FBFDFA" stroke-width="0.4"></path><path d="M44.6247 35.1708H40.332C39.6205 35.1708 38.9381 35.4534 38.4349 35.9566C37.9318 36.4597 37.6491 37.1421 37.6491 37.8537C37.6491 38.5652 37.9318 39.2477 38.4349 39.7508C38.9381 40.2539 39.6205 40.5366 40.332 40.5366H44.6247C45.3363 40.5366 46.0187 40.2539 46.5218 39.7508C47.025 39.2477 47.3076 38.5652 47.3076 37.8537C47.3076 37.1421 47.025 36.4597 46.5218 35.9566C46.0187 35.4534 45.3363 35.1708 44.6247 35.1708ZM44.6247 39.4634H40.332C39.9051 39.4634 39.4957 39.2938 39.1938 38.9919C38.8919 38.6901 38.7223 38.2806 38.7223 37.8537C38.7223 37.4267 38.8919 37.0173 39.1938 36.7154C39.4957 36.4135 39.9051 36.2439 40.332 36.2439H44.6247C45.0516 36.2439 45.4611 36.4135 45.763 36.7154C46.0649 37.0173 46.2345 37.4267 46.2345 37.8537C46.2345 38.2806 46.0649 38.6901 45.763 38.9919C45.4611 39.2938 45.0516 39.4634 44.6247 39.4634Z" stroke="#FBFDFA" stroke-width="0.4"></path></svg>