<svg xmlns="http://www.w3.org/2000/svg" width="81" height="80" viewBox="0 0 81 80" fill="none"><rect x="0.667969" width="80" height="80" rx="40" fill="#CA732F"></rect><path d="M62.668 34.6345V32.4881C62.6673 32.0614 62.4975 31.6523 62.1958 31.3505C61.894 31.0488 61.485 30.879 61.0582 30.8784H54.6192C54.2234 30.8822 53.8433 31.0334 53.5531 31.3025C53.259 31.0305 52.8734 30.8791 52.4728 30.8784H49.6568C49.6905 30.6502 49.7616 30.4259 49.7867 30.1971C49.8981 29.1781 49.9324 28.1521 49.8895 27.1279C49.8791 26.8963 49.8204 26.6694 49.7172 26.4619C49.614 26.2543 49.4685 26.0707 49.29 25.9227C49.1204 25.7796 48.9221 25.6747 48.7083 25.615C48.4946 25.5553 48.2706 25.5423 48.0514 25.5769C46.9052 25.7627 45.7298 25.6167 44.6639 25.1562C43.5979 24.6956 42.6861 23.9397 42.0358 22.9777C41.8902 22.7677 41.6962 22.5959 41.4702 22.4766C41.2442 22.3573 40.9928 22.2941 40.7373 22.2924H40.7227C40.4722 22.2918 40.2251 22.3508 40.0019 22.4645C39.7786 22.5782 39.5856 22.7434 39.4388 22.9464C38.6244 24.0498 37.4973 24.8832 36.2036 25.3384C36.1368 25.3609 36.0751 25.3962 36.0221 25.4425C35.969 25.4888 35.9256 25.5452 35.8944 25.6083C35.8631 25.6714 35.8447 25.7401 35.84 25.8103C35.8353 25.8806 35.8446 25.9511 35.8672 26.0178C35.889 26.085 35.9241 26.1473 35.9703 26.2007C36.0166 26.2542 36.0731 26.2979 36.1365 26.3291C36.1999 26.3604 36.2689 26.3786 36.3395 26.3827C36.4101 26.3868 36.4808 26.3767 36.5474 26.353C38.0491 25.8289 39.3578 24.8639 40.3024 23.5842C40.35 23.5167 40.4131 23.4616 40.4864 23.4237C40.5598 23.3857 40.6412 23.366 40.7238 23.3662C40.8945 23.3846 41.0517 23.4679 41.1629 23.5988C41.9268 24.724 42.996 25.6078 44.2448 26.1461C45.4937 26.6845 46.8703 26.8552 48.2128 26.6381C48.2827 26.628 48.354 26.6329 48.4219 26.6524C48.4898 26.6719 48.5529 26.7056 48.6069 26.7512C48.6696 26.8031 48.7207 26.8676 48.7568 26.9406C48.793 27.0135 48.8133 27.0933 48.8166 27.1746C48.8584 28.144 48.8262 29.1152 48.7202 30.0797C48.6702 30.5304 48.5897 30.9636 48.5101 31.3959L48.5021 31.415L48.5058 31.4233C47.8075 34.9317 46.241 38.2092 43.9495 40.9561C43.5466 41.4336 43.0442 41.8175 42.4775 42.0808C41.9109 42.344 41.2936 42.4805 40.6687 42.4805C40.0439 42.4805 39.4266 42.344 38.8599 42.0808C38.2932 41.8175 37.7909 41.4336 37.3879 40.9561C35.0956 38.2095 33.5286 34.932 32.8304 31.4233L32.8338 31.415L32.8259 31.3959C32.7463 30.9636 32.6658 30.5315 32.6158 30.0797C32.5098 29.1152 32.4776 28.144 32.5194 27.1746C32.5226 27.0933 32.543 27.0135 32.5791 26.9406C32.6152 26.8676 32.6663 26.8031 32.7291 26.7512C32.7825 26.7049 32.8453 26.6709 32.9131 26.6513C32.981 26.6318 33.0523 26.6273 33.1221 26.6381C33.4872 26.6945 33.856 26.724 34.2255 26.7261H34.2289C34.3713 26.7265 34.5079 26.6704 34.6088 26.57C34.7098 26.4697 34.7667 26.3334 34.7671 26.1911C34.7676 26.0488 34.7114 25.9121 34.6111 25.8112C34.5108 25.7103 34.3745 25.6533 34.2322 25.6529C33.9143 25.65 33.5969 25.6247 33.2826 25.5769C33.0638 25.5447 32.8406 25.5589 32.6275 25.6184C32.4145 25.678 32.2163 25.7816 32.0459 25.9227C31.8675 26.0707 31.722 26.2543 31.6187 26.4619C31.5155 26.6694 31.4568 26.8963 31.4464 27.1279C31.4035 28.1521 31.4379 29.1781 31.5492 30.1971C31.5744 30.4259 31.6456 30.6502 31.6791 30.8784H28.8631C28.4625 30.8791 28.0769 31.0305 27.7828 31.3025C27.4926 31.0334 27.1125 30.8822 26.7167 30.8784H20.2777C19.851 30.879 19.4419 31.0488 19.1401 31.3505C18.8384 31.6523 18.6686 32.0614 18.668 32.4881V34.6345C18.6686 35.0612 18.8384 35.4703 19.1401 35.772C19.4419 36.0738 19.851 36.2436 20.2777 36.2442H23.0693C23.002 36.4154 22.9653 36.597 22.9607 36.7808V38.9272C22.9653 39.111 23.002 39.2926 23.0693 39.4637H20.2777C19.851 39.4644 19.4419 39.6342 19.1401 39.9359C18.8384 40.2377 18.6686 40.6467 18.668 41.0735V42.1467C18.668 42.289 18.7245 42.4255 18.8251 42.5261C18.9258 42.6267 19.0622 42.6832 19.2046 42.6832C19.3469 42.6832 19.4833 42.6267 19.584 42.5261C19.6846 42.4255 19.7411 42.289 19.7411 42.1467V41.0735C19.7411 40.9312 19.7977 40.7947 19.8983 40.6941C19.9989 40.5934 20.1354 40.5369 20.2777 40.5369H26.7167C26.8591 40.5369 26.9955 40.5934 27.0962 40.6941C27.1968 40.7947 27.2533 40.9312 27.2533 41.0735V43.2198C27.2533 43.3621 27.1968 43.4986 27.0962 43.5993C26.9955 43.6999 26.8591 43.7564 26.7167 43.7564H20.2777C20.2674 43.7564 20.2614 43.7667 20.2513 43.7674C20.2376 43.7663 20.2277 43.7521 20.2138 43.7521C20.1432 43.7418 20.0712 43.7462 20.0024 43.765C19.9336 43.7839 19.8694 43.8169 19.814 43.8618C19.7585 43.9067 19.713 43.9626 19.6802 44.026C19.6475 44.0894 19.6283 44.1589 19.6237 44.2301C19.6162 44.3003 19.6225 44.3712 19.6424 44.4389C19.6623 44.5066 19.6953 44.5697 19.7396 44.6246C19.7839 44.6795 19.8386 44.7251 19.9006 44.7588C19.9625 44.7926 20.0305 44.8138 20.1007 44.8212C20.1195 44.8234 20.2588 44.8296 20.2777 44.8296H23.0693C23.002 45.0008 22.9653 45.1823 22.9607 45.3662V47.5125C22.9653 47.6963 23.002 47.8779 23.0693 48.0491H20.2777C19.851 48.0497 19.4419 48.2195 19.1401 48.5213C18.8384 48.823 18.6686 49.2321 18.668 49.6589V51.8052C18.6686 52.2319 18.8384 52.641 19.1401 52.9428C19.4419 53.2445 19.851 53.4143 20.2777 53.415H23.0693C23.002 53.5861 22.9653 53.7677 22.9607 53.9515V56.0979C22.9613 56.5246 23.1311 56.9337 23.4328 57.2355C23.7346 57.5372 24.1437 57.707 24.5704 57.7076H31.0094C31.4083 57.7041 31.7913 57.5509 32.0826 57.2784C32.3739 57.5509 32.7569 57.7041 33.1558 57.7076H39.5948C39.9937 57.7041 40.3767 57.5509 40.668 57.2784C40.9593 57.5509 41.3423 57.7041 41.7411 57.7076H48.1802C48.579 57.7041 48.962 57.5509 49.2533 57.2784C49.5446 57.5509 49.9276 57.7041 50.3265 57.7076H53.546C53.6883 57.7076 53.8248 57.6511 53.9254 57.5505C54.0261 57.4498 54.0826 57.3134 54.0826 57.1711C54.0826 57.0287 54.0261 56.8923 53.9254 56.7916C53.8248 56.691 53.6883 56.6345 53.546 56.6345H50.3265C50.1842 56.6345 50.0477 56.5779 49.9471 56.4773C49.8465 56.3767 49.7899 56.2402 49.7899 56.0979V53.9515C49.7899 53.8092 49.8465 53.6727 49.9471 53.5721C50.0477 53.4715 50.1842 53.415 50.3265 53.415H56.7655C56.9078 53.415 57.0443 53.4715 57.145 53.5721C57.2456 53.6727 57.3021 53.8092 57.3021 53.9515V56.0979C57.3021 56.2402 57.2456 56.3767 57.145 56.4773C57.0443 56.5779 56.9078 56.6345 56.7655 56.6345H55.6924C55.55 56.6345 55.4136 56.691 55.3129 56.7916C55.2123 56.8923 55.1558 57.0287 55.1558 57.1711C55.1558 57.3134 55.2123 57.4498 55.3129 57.5505C55.4136 57.6511 55.55 57.7076 55.6924 57.7076H56.7655C57.1923 57.707 57.6014 57.5372 57.9031 57.2355C58.2049 56.9337 58.3747 56.5246 58.3753 56.0979V53.9515C58.3706 53.7677 58.3339 53.5861 58.2667 53.415H61.0582C61.485 53.4143 61.894 53.2445 62.1958 52.9428C62.4975 52.641 62.6673 52.2319 62.668 51.8052V49.6589C62.6673 49.2321 62.4975 48.823 62.1958 48.5213C61.894 48.2195 61.485 48.0497 61.0582 48.0491H58.2667C58.3339 47.8779 58.3706 47.6963 58.3753 47.5125V45.3662C58.3706 45.1823 58.3339 45.0008 58.2667 44.8296H61.0582C61.485 44.829 61.894 44.6592 62.1958 44.3574C62.4975 44.0557 62.6673 43.6466 62.668 43.2198V41.0735C62.6673 40.6467 62.4975 40.2377 62.1958 39.9359C61.894 39.6342 61.485 39.4644 61.0582 39.4637H58.2667C58.3339 39.2926 58.3706 39.111 58.3753 38.9272V36.7808C58.3706 36.597 58.3339 36.4154 58.2667 36.2442H61.0582C61.485 36.2436 61.894 36.0738 62.1958 35.772C62.4975 35.4703 62.6673 35.0612 62.668 34.6345ZM54.6192 31.9515H61.0582C61.2005 31.9515 61.337 32.0081 61.4376 32.1087C61.5383 32.2093 61.5948 32.3458 61.5948 32.4881V34.6345C61.5948 34.7768 61.5383 34.9133 61.4376 35.0139C61.337 35.1145 61.2005 35.1711 61.0582 35.1711H54.6192C54.4769 35.1711 54.3404 35.1145 54.2398 35.0139C54.1391 34.9133 54.0826 34.7768 54.0826 34.6345V32.4881C54.0826 32.3458 54.1391 32.2093 54.2398 32.1087C54.3404 32.0081 54.4769 31.9515 54.6192 31.9515ZM52.4728 31.9515C52.5438 31.9499 52.6143 31.9627 52.6801 31.989C52.746 32.0154 52.8058 32.0549 52.8559 32.105C52.9061 32.1552 52.9456 32.215 52.9719 32.2809C52.9983 32.3467 53.0111 32.4172 53.0094 32.4881V34.6345C53.0111 34.7054 52.9983 34.7759 52.9719 34.8417C52.9456 34.9076 52.9061 34.9674 52.8559 35.0176C52.8058 35.0677 52.746 35.1072 52.6801 35.1336C52.6143 35.1599 52.5438 35.1727 52.4728 35.1711H48.5186C48.9171 34.1251 49.2294 33.0484 49.4523 31.9515H52.4728ZM53.0094 41.0735V43.2198C53.0094 43.3621 52.9529 43.4986 52.8523 43.5993C52.7516 43.6999 52.6152 43.7564 52.4728 43.7564H46.0338C45.8915 43.7564 45.755 43.6999 45.6544 43.5993C45.5538 43.4986 45.4972 43.3621 45.4972 43.2198V41.0735C45.4972 40.9312 45.5538 40.7947 45.6544 40.6941C45.755 40.5934 45.8915 40.5369 46.0338 40.5369H52.4728C52.6152 40.5369 52.7516 40.5934 52.8523 40.6941C52.9529 40.7947 53.0094 40.9312 53.0094 41.0735ZM48.7168 47.5125C48.7168 47.6548 48.6602 47.7913 48.5596 47.8919C48.459 47.9926 48.3225 48.0491 48.1802 48.0491H41.7411C41.5988 48.0491 41.4623 47.9926 41.3617 47.8919C41.2611 47.7913 41.2046 47.6548 41.2046 47.5125V45.3662C41.2046 45.2239 41.2611 45.0874 41.3617 44.9868C41.4623 44.8861 41.5988 44.8296 41.7411 44.8296H48.1802C48.3225 44.8296 48.459 44.8861 48.5596 44.9868C48.6602 45.0874 48.7168 45.2239 48.7168 45.3662V47.5125ZM44.4241 51.8052C44.4241 51.9475 44.3675 52.084 44.2669 52.1846C44.1663 52.2853 44.0298 52.3418 43.8875 52.3418H37.4485C37.3061 52.3418 37.1697 52.2853 37.069 52.1846C36.9684 52.084 36.9119 51.9475 36.9119 51.8052V49.6589C36.9119 49.5165 36.9684 49.3801 37.069 49.2794C37.1697 49.1788 37.3061 49.1223 37.4485 49.1223H43.8875C44.0298 49.1223 44.1663 49.1788 44.2669 49.2794C44.3675 49.3801 44.4241 49.5165 44.4241 49.6589V51.8052ZM28.8631 52.3418C28.7208 52.3418 28.5843 52.2853 28.4837 52.1846C28.383 52.084 28.3265 51.9475 28.3265 51.8052V49.6589C28.3265 49.5165 28.383 49.3801 28.4837 49.2794C28.5843 49.1788 28.7208 49.1223 28.8631 49.1223H35.3021C35.4444 49.1223 35.5809 49.1788 35.6815 49.2794C35.7822 49.3801 35.8387 49.5165 35.8387 49.6589V51.8052C35.8387 51.9475 35.7822 52.084 35.6815 52.1846C35.5809 52.2853 35.4444 52.3418 35.3021 52.3418H28.8631ZM28.3265 43.2198V41.0735C28.3265 40.9312 28.383 40.7947 28.4837 40.6941C28.5843 40.5934 28.7208 40.5369 28.8631 40.5369H35.3021C35.4444 40.5369 35.5809 40.5934 35.6815 40.6941C35.7822 40.7947 35.8387 40.9312 35.8387 41.0735V43.2198C35.8387 43.3621 35.7822 43.4986 35.6815 43.5993C35.5809 43.6999 35.4444 43.7564 35.3021 43.7564H28.8631C28.7208 43.7564 28.5843 43.6999 28.4837 43.5993C28.383 43.4986 28.3265 43.3621 28.3265 43.2198ZM32.6192 36.7808C32.6175 36.7099 32.6303 36.6394 32.6567 36.5735C32.6831 36.5077 32.7225 36.4479 32.7727 36.3977C32.8228 36.3476 32.8827 36.3081 32.9485 36.2817C33.0143 36.2553 33.0849 36.2426 33.1558 36.2442H33.2142C33.7225 37.3635 34.32 38.4402 35.0008 39.4637H33.1558C33.0849 39.4654 33.0143 39.4526 32.9485 39.4262C32.8827 39.3999 32.8228 39.3604 32.7727 39.3102C32.7225 39.2601 32.6831 39.2003 32.6567 39.1344C32.6303 39.0686 32.6175 38.9981 32.6192 38.9272V36.7808ZM32.6192 45.3662C32.6192 45.2239 32.6757 45.0874 32.7764 44.9868C32.877 44.8861 33.0135 44.8296 33.1558 44.8296H39.5948C39.7371 44.8296 39.8736 44.8861 39.9742 44.9868C40.0749 45.0874 40.1314 45.2239 40.1314 45.3662V47.5125C40.1314 47.6548 40.0749 47.7913 39.9742 47.8919C39.8736 47.9926 39.7371 48.0491 39.5948 48.0491H33.1558C33.0135 48.0491 32.877 47.9926 32.7764 47.8919C32.6757 47.7913 32.6192 47.6548 32.6192 47.5125V45.3662ZM48.7168 38.9272C48.7184 38.9981 48.7056 39.0686 48.6793 39.1344C48.6529 39.2003 48.6134 39.2601 48.5633 39.3102C48.5131 39.3604 48.4533 39.3999 48.3874 39.4262C48.3216 39.4526 48.2511 39.4654 48.1802 39.4637H46.3358C47.0164 38.4401 47.6137 37.3635 48.1218 36.2442H48.1802C48.2511 36.2426 48.3216 36.2553 48.3874 36.2817C48.4533 36.3081 48.5131 36.3476 48.5633 36.3977C48.6134 36.4479 48.6529 36.5077 48.6793 36.5735C48.7056 36.6394 48.7184 36.7099 48.7168 36.7808V38.9272ZM40.668 43.5532C41.3668 43.5527 42.0586 43.4137 42.7033 43.1441C43.348 42.8745 43.9329 42.4798 44.4241 41.9827V43.2198C44.4257 43.2907 44.413 43.3613 44.3866 43.4271C44.3602 43.493 44.3207 43.5528 44.2706 43.6029C44.2204 43.6531 44.1606 43.6925 44.0948 43.7189C44.0289 43.7453 43.9584 43.7581 43.8875 43.7564H37.4485C37.3775 43.7581 37.307 43.7453 37.2412 43.7189C37.1753 43.6925 37.1155 43.6531 37.0654 43.6029C37.0152 43.5528 36.9758 43.493 36.9494 43.4271C36.923 43.3613 36.9102 43.2907 36.9119 43.2198V41.9818C37.4029 42.4792 37.9877 42.8742 38.6325 43.1439C39.2772 43.4136 39.9691 43.5527 40.668 43.5532ZM28.8631 31.9515H31.8836C32.1066 33.0484 32.4189 34.1251 32.8173 35.1711H28.8631C28.7922 35.1727 28.7217 35.1599 28.6558 35.1336C28.59 35.1072 28.5302 35.0677 28.48 35.0176C28.4298 34.9674 28.3904 34.9076 28.364 34.8417C28.3376 34.7759 28.3249 34.7054 28.3265 34.6345V32.4881C28.3249 32.4172 28.3376 32.3467 28.364 32.2809C28.3904 32.215 28.4298 32.1552 28.48 32.105C28.5302 32.0549 28.59 32.0154 28.6558 31.989C28.7217 31.9627 28.7922 31.9499 28.8631 31.9515ZM19.7411 34.6345V32.4881C19.7411 32.3458 19.7977 32.2093 19.8983 32.1087C19.9989 32.0081 20.1354 31.9515 20.2777 31.9515H26.7167C26.8591 31.9515 26.9955 32.0081 27.0962 32.1087C27.1968 32.2093 27.2533 32.3458 27.2533 32.4881V34.6345C27.2533 34.7768 27.1968 34.9133 27.0962 35.0139C26.9955 35.1145 26.8591 35.1711 26.7167 35.1711H20.2777C20.1354 35.1711 19.9989 35.1145 19.8983 35.0139C19.7977 34.9133 19.7411 34.7768 19.7411 34.6345ZM24.5704 39.4637C24.4281 39.4637 24.2916 39.4072 24.191 39.3066C24.0904 39.2059 24.0338 39.0695 24.0338 38.9272V36.7808C24.0338 36.6385 24.0904 36.502 24.191 36.4014C24.2916 36.3008 24.4281 36.2442 24.5704 36.2442H31.0094C31.1517 36.2442 31.2882 36.3008 31.3889 36.4014C31.4895 36.502 31.546 36.6385 31.546 36.7808V38.9272C31.546 39.0695 31.4895 39.2059 31.3889 39.3066C31.2882 39.4072 31.1517 39.4637 31.0094 39.4637H24.5704ZM24.0338 47.5125V45.3662C24.0338 45.2239 24.0904 45.0874 24.191 44.9868C24.2916 44.8861 24.4281 44.8296 24.5704 44.8296H31.0094C31.1517 44.8296 31.2882 44.8861 31.3889 44.9868C31.4895 45.0874 31.546 45.2239 31.546 45.3662V47.5125C31.546 47.6548 31.4895 47.7913 31.3889 47.8919C31.2882 47.9926 31.1517 48.0491 31.0094 48.0491H24.5704C24.4281 48.0491 24.2916 47.9926 24.191 47.8919C24.0904 47.7913 24.0338 47.6548 24.0338 47.5125ZM19.7411 51.8052V49.6589C19.7411 49.5165 19.7977 49.3801 19.8983 49.2794C19.9989 49.1788 20.1354 49.1223 20.2777 49.1223H26.7167C26.8591 49.1223 26.9955 49.1788 27.0962 49.2794C27.1968 49.3801 27.2533 49.5165 27.2533 49.6589V51.8052C27.2533 51.9475 27.1968 52.084 27.0962 52.1846C26.9955 52.2853 26.8591 52.3418 26.7167 52.3418H20.2777C20.1354 52.3418 19.9989 52.2853 19.8983 52.1846C19.7977 52.084 19.7411 51.9475 19.7411 51.8052ZM31.0094 56.6345H24.5704C24.4281 56.6345 24.2916 56.5779 24.191 56.4773C24.0904 56.3767 24.0338 56.2402 24.0338 56.0979V53.9515C24.0338 53.8092 24.0904 53.6727 24.191 53.5721C24.2916 53.4715 24.4281 53.415 24.5704 53.415H31.0094C31.1517 53.415 31.2882 53.4715 31.3889 53.5721C31.4895 53.6727 31.546 53.8092 31.546 53.9515V56.0979C31.546 56.2402 31.4895 56.3767 31.3889 56.4773C31.2882 56.5779 31.1517 56.6345 31.0094 56.6345ZM39.5948 56.6345H33.1558C33.0135 56.6345 32.877 56.5779 32.7764 56.4773C32.6757 56.3767 32.6192 56.2402 32.6192 56.0979V53.9515C32.6192 53.8092 32.6757 53.6727 32.7764 53.5721C32.877 53.4715 33.0135 53.415 33.1558 53.415H39.5948C39.7371 53.415 39.8736 53.4715 39.9742 53.5721C40.0749 53.6727 40.1314 53.8092 40.1314 53.9515V56.0979C40.1314 56.2402 40.0749 56.3767 39.9742 56.4773C39.8736 56.5779 39.7371 56.6345 39.5948 56.6345ZM48.1802 56.6345H41.7411C41.5988 56.6345 41.4623 56.5779 41.3617 56.4773C41.2611 56.3767 41.2046 56.2402 41.2046 56.0979V53.9515C41.2046 53.8092 41.2611 53.6727 41.3617 53.5721C41.4623 53.4715 41.5988 53.415 41.7411 53.415H48.1802C48.3225 53.415 48.459 53.4715 48.5596 53.5721C48.6602 53.6727 48.7168 53.8092 48.7168 53.9515V56.0979C48.7168 56.2402 48.6602 56.3767 48.5596 56.4773C48.459 56.5779 48.3225 56.6345 48.1802 56.6345ZM46.0338 52.3418C45.8915 52.3418 45.755 52.2853 45.6544 52.1846C45.5538 52.084 45.4972 51.9475 45.4972 51.8052V49.6589C45.4972 49.5165 45.5538 49.3801 45.6544 49.2794C45.755 49.1788 45.8915 49.1223 46.0338 49.1223H52.4728C52.6152 49.1223 52.7516 49.1788 52.8523 49.2794C52.9529 49.3801 53.0094 49.5165 53.0094 49.6589V51.8052C53.0094 51.9475 52.9529 52.084 52.8523 52.1846C52.7516 52.2853 52.6152 52.3418 52.4728 52.3418H46.0338ZM61.5948 49.6589V51.8052C61.5948 51.9475 61.5383 52.084 61.4376 52.1846C61.337 52.2853 61.2005 52.3418 61.0582 52.3418H54.6192C54.4769 52.3418 54.3404 52.2853 54.2398 52.1846C54.1391 52.084 54.0826 51.9475 54.0826 51.8052V49.6589C54.0826 49.5165 54.1391 49.3801 54.2398 49.2794C54.3404 49.1788 54.4769 49.1223 54.6192 49.1223H61.0582C61.2005 49.1223 61.337 49.1788 61.4376 49.2794C61.5383 49.3801 61.5948 49.5165 61.5948 49.6589ZM57.3021 45.3662V47.5125C57.3021 47.6548 57.2456 47.7913 57.145 47.8919C57.0443 47.9926 56.9078 48.0491 56.7655 48.0491H50.3265C50.1842 48.0491 50.0477 47.9926 49.9471 47.8919C49.8465 47.7913 49.7899 47.6548 49.7899 47.5125V45.3662C49.7899 45.2239 49.8465 45.0874 49.9471 44.9868C50.0477 44.8861 50.1842 44.8296 50.3265 44.8296H56.7655C56.9078 44.8296 57.0443 44.8861 57.145 44.9868C57.2456 45.0874 57.3021 45.2239 57.3021 45.3662ZM61.5948 41.0735V43.2198C61.5948 43.3621 61.5383 43.4986 61.4376 43.5993C61.337 43.6999 61.2005 43.7564 61.0582 43.7564H54.6192C54.4769 43.7564 54.3404 43.6999 54.2398 43.5993C54.1391 43.4986 54.0826 43.3621 54.0826 43.2198V41.0735C54.0826 40.9312 54.1391 40.7947 54.2398 40.6941C54.3404 40.5934 54.4769 40.5369 54.6192 40.5369H61.0582C61.2005 40.5369 61.337 40.5934 61.4376 40.6941C61.5383 40.7947 61.5948 40.9312 61.5948 41.0735ZM57.3021 36.7808V38.9272C57.3021 39.0695 57.2456 39.2059 57.145 39.3066C57.0443 39.4072 56.9078 39.4637 56.7655 39.4637H50.3265C50.1842 39.4637 50.0477 39.4072 49.9471 39.3066C49.8465 39.2059 49.7899 39.0695 49.7899 38.9272V36.7808C49.7899 36.6385 49.8465 36.502 49.9471 36.4014C50.0477 36.3008 50.1842 36.2442 50.3265 36.2442H56.7655C56.9078 36.2442 57.0443 36.3008 57.145 36.4014C57.2456 36.502 57.3021 36.6385 57.3021 36.7808Z" fill="#FBFDFA"></path><path d="M39.5948 35.1605C39.8062 35.1607 40.0155 35.1191 40.2108 35.0381C40.406 34.957 40.5833 34.8382 40.7324 34.6883L44.2663 31.1544C44.3165 31.1046 44.3563 31.0455 44.3836 30.9803C44.4108 30.9151 44.4249 30.8451 44.4251 30.7745C44.4252 30.7038 44.4114 30.6338 44.3844 30.5685C44.3575 30.5032 44.3178 30.4438 44.2679 30.3939C44.2179 30.3439 44.1585 30.3043 44.0932 30.2774C44.0279 30.2504 43.9579 30.2366 43.8872 30.2368C43.8166 30.2369 43.7467 30.2511 43.6815 30.2783C43.6163 30.3056 43.5571 30.3455 43.5074 30.3957L39.9743 33.9303C39.9244 33.9801 39.8653 34.0196 39.8002 34.0466C39.7351 34.0736 39.6653 34.0875 39.5948 34.0875C39.5243 34.0875 39.4545 34.0736 39.3894 34.0466C39.3243 34.0196 39.2652 33.9801 39.2153 33.9303L37.8279 32.5426C37.7272 32.4427 37.5909 32.3868 37.449 32.3871C37.3071 32.3874 37.1711 32.4439 37.0707 32.5442C36.9704 32.6445 36.9139 32.7805 36.9135 32.9224C36.9132 33.0643 36.9691 33.2006 37.069 33.3014L38.4566 34.689C38.6058 34.8388 38.7832 34.9576 38.9786 35.0385C39.1739 35.1194 39.3834 35.1609 39.5948 35.1605Z" fill="#FBFDFA"></path><path d="M62.668 34.6345V32.4881C62.6673 32.0614 62.4975 31.6523 62.1958 31.3505C61.894 31.0488 61.485 30.879 61.0582 30.8784H54.6192C54.2234 30.8822 53.8433 31.0334 53.5531 31.3025C53.259 31.0305 52.8734 30.8791 52.4728 30.8784H49.6568C49.6905 30.6502 49.7616 30.4259 49.7867 30.1971C49.8981 29.1781 49.9324 28.1521 49.8895 27.1279C49.8791 26.8963 49.8204 26.6694 49.7172 26.4619C49.614 26.2543 49.4685 26.0707 49.29 25.9227C49.1204 25.7796 48.9221 25.6747 48.7083 25.615C48.4946 25.5553 48.2706 25.5423 48.0514 25.5769C46.9052 25.7627 45.7298 25.6167 44.6639 25.1562C43.5979 24.6956 42.6861 23.9397 42.0358 22.9777C41.8902 22.7677 41.6962 22.5959 41.4702 22.4766C41.2442 22.3573 40.9928 22.2941 40.7373 22.2924H40.7227C40.4722 22.2918 40.2251 22.3508 40.0019 22.4645C39.7786 22.5782 39.5856 22.7434 39.4388 22.9464C38.6244 24.0498 37.4973 24.8832 36.2036 25.3384C36.1368 25.3609 36.0751 25.3962 36.0221 25.4425C35.969 25.4888 35.9256 25.5452 35.8944 25.6083C35.8631 25.6714 35.8447 25.7401 35.84 25.8103C35.8353 25.8806 35.8446 25.9511 35.8672 26.0178C35.889 26.085 35.9241 26.1473 35.9703 26.2007C36.0166 26.2542 36.0731 26.2979 36.1365 26.3291C36.1999 26.3604 36.2689 26.3786 36.3395 26.3827C36.4101 26.3868 36.4808 26.3767 36.5474 26.353C38.0491 25.8289 39.3578 24.8639 40.3024 23.5842C40.35 23.5167 40.4131 23.4616 40.4864 23.4237C40.5598 23.3857 40.6412 23.366 40.7238 23.3662C40.8945 23.3846 41.0517 23.4679 41.1629 23.5988C41.9268 24.724 42.996 25.6078 44.2448 26.1461C45.4937 26.6845 46.8703 26.8552 48.2128 26.6381C48.2827 26.628 48.354 26.6329 48.4219 26.6524C48.4898 26.6719 48.5529 26.7056 48.6069 26.7512C48.6696 26.8031 48.7207 26.8676 48.7568 26.9406C48.793 27.0135 48.8133 27.0933 48.8166 27.1746C48.8584 28.144 48.8262 29.1152 48.7202 30.0797C48.6702 30.5304 48.5897 30.9636 48.5101 31.3959L48.5021 31.415L48.5058 31.4233C47.8075 34.9317 46.241 38.2092 43.9495 40.9561C43.5466 41.4336 43.0442 41.8175 42.4775 42.0808C41.9109 42.344 41.2936 42.4805 40.6687 42.4805C40.0439 42.4805 39.4266 42.344 38.8599 42.0808C38.2932 41.8175 37.7909 41.4336 37.3879 40.9561C35.0956 38.2095 33.5286 34.932 32.8304 31.4233L32.8338 31.415L32.8259 31.3959C32.7463 30.9636 32.6658 30.5315 32.6158 30.0797C32.5098 29.1152 32.4776 28.144 32.5194 27.1746C32.5226 27.0933 32.543 27.0135 32.5791 26.9406C32.6152 26.8676 32.6663 26.8031 32.7291 26.7512C32.7825 26.7049 32.8453 26.6709 32.9131 26.6513C32.981 26.6318 33.0523 26.6273 33.1221 26.6381C33.4872 26.6945 33.856 26.724 34.2255 26.7261H34.2289C34.3713 26.7265 34.5079 26.6704 34.6088 26.57C34.7098 26.4697 34.7667 26.3334 34.7671 26.1911C34.7676 26.0488 34.7114 25.9121 34.6111 25.8112C34.5108 25.7103 34.3745 25.6533 34.2322 25.6529C33.9143 25.65 33.5969 25.6247 33.2826 25.5769C33.0638 25.5447 32.8406 25.5589 32.6275 25.6184C32.4145 25.678 32.2163 25.7816 32.0459 25.9227C31.8675 26.0707 31.722 26.2543 31.6187 26.4619C31.5155 26.6694 31.4568 26.8963 31.4464 27.1279C31.4035 28.1521 31.4379 29.1781 31.5492 30.1971C31.5744 30.4259 31.6456 30.6502 31.6791 30.8784H28.8631C28.4625 30.8791 28.0769 31.0305 27.7828 31.3025C27.4926 31.0334 27.1125 30.8822 26.7167 30.8784H20.2777C19.851 30.879 19.4419 31.0488 19.1401 31.3505C18.8384 31.6523 18.6686 32.0614 18.668 32.4881V34.6345C18.6686 35.0612 18.8384 35.4703 19.1401 35.772C19.4419 36.0738 19.851 36.2436 20.2777 36.2442H23.0693C23.002 36.4154 22.9653 36.597 22.9607 36.7808V38.9272C22.9653 39.111 23.002 39.2926 23.0693 39.4637H20.2777C19.851 39.4644 19.4419 39.6342 19.1401 39.9359C18.8384 40.2377 18.6686 40.6467 18.668 41.0735V42.1467C18.668 42.289 18.7245 42.4255 18.8251 42.5261C18.9258 42.6267 19.0622 42.6832 19.2046 42.6832C19.3469 42.6832 19.4833 42.6267 19.584 42.5261C19.6846 42.4255 19.7411 42.289 19.7411 42.1467V41.0735C19.7411 40.9312 19.7977 40.7947 19.8983 40.6941C19.9989 40.5934 20.1354 40.5369 20.2777 40.5369H26.7167C26.8591 40.5369 26.9955 40.5934 27.0962 40.6941C27.1968 40.7947 27.2533 40.9312 27.2533 41.0735V43.2198C27.2533 43.3621 27.1968 43.4986 27.0962 43.5993C26.9955 43.6999 26.8591 43.7564 26.7167 43.7564H20.2777C20.2674 43.7564 20.2614 43.7667 20.2513 43.7674C20.2376 43.7663 20.2277 43.7521 20.2138 43.7521C20.1432 43.7418 20.0712 43.7462 20.0024 43.765C19.9336 43.7839 19.8694 43.8169 19.814 43.8618C19.7585 43.9067 19.713 43.9626 19.6802 44.026C19.6475 44.0894 19.6283 44.1589 19.6237 44.2301C19.6162 44.3003 19.6225 44.3712 19.6424 44.4389C19.6623 44.5066 19.6953 44.5697 19.7396 44.6246C19.7839 44.6795 19.8386 44.7251 19.9006 44.7588C19.9625 44.7926 20.0305 44.8138 20.1007 44.8212C20.1195 44.8234 20.2588 44.8296 20.2777 44.8296H23.0693C23.002 45.0008 22.9653 45.1823 22.9607 45.3662V47.5125C22.9653 47.6963 23.002 47.8779 23.0693 48.0491H20.2777C19.851 48.0497 19.4419 48.2195 19.1401 48.5213C18.8384 48.823 18.6686 49.2321 18.668 49.6589V51.8052C18.6686 52.2319 18.8384 52.641 19.1401 52.9428C19.4419 53.2445 19.851 53.4143 20.2777 53.415H23.0693C23.002 53.5861 22.9653 53.7677 22.9607 53.9515V56.0979C22.9613 56.5246 23.1311 56.9337 23.4328 57.2355C23.7346 57.5372 24.1437 57.707 24.5704 57.7076H31.0094C31.4083 57.7041 31.7913 57.5509 32.0826 57.2784C32.3739 57.5509 32.7569 57.7041 33.1558 57.7076H39.5948C39.9937 57.7041 40.3767 57.5509 40.668 57.2784C40.9593 57.5509 41.3423 57.7041 41.7411 57.7076H48.1802C48.579 57.7041 48.962 57.5509 49.2533 57.2784C49.5446 57.5509 49.9276 57.7041 50.3265 57.7076H53.546C53.6883 57.7076 53.8248 57.6511 53.9254 57.5505C54.0261 57.4498 54.0826 57.3134 54.0826 57.1711C54.0826 57.0287 54.0261 56.8923 53.9254 56.7916C53.8248 56.691 53.6883 56.6345 53.546 56.6345H50.3265C50.1842 56.6345 50.0477 56.5779 49.9471 56.4773C49.8465 56.3767 49.7899 56.2402 49.7899 56.0979V53.9515C49.7899 53.8092 49.8465 53.6727 49.9471 53.5721C50.0477 53.4715 50.1842 53.415 50.3265 53.415H56.7655C56.9078 53.415 57.0443 53.4715 57.145 53.5721C57.2456 53.6727 57.3021 53.8092 57.3021 53.9515V56.0979C57.3021 56.2402 57.2456 56.3767 57.145 56.4773C57.0443 56.5779 56.9078 56.6345 56.7655 56.6345H55.6924C55.55 56.6345 55.4136 56.691 55.3129 56.7916C55.2123 56.8923 55.1558 57.0287 55.1558 57.1711C55.1558 57.3134 55.2123 57.4498 55.3129 57.5505C55.4136 57.6511 55.55 57.7076 55.6924 57.7076H56.7655C57.1923 57.707 57.6014 57.5372 57.9031 57.2355C58.2049 56.9337 58.3747 56.5246 58.3753 56.0979V53.9515C58.3706 53.7677 58.3339 53.5861 58.2667 53.415H61.0582C61.485 53.4143 61.894 53.2445 62.1958 52.9428C62.4975 52.641 62.6673 52.2319 62.668 51.8052V49.6589C62.6673 49.2321 62.4975 48.823 62.1958 48.5213C61.894 48.2195 61.485 48.0497 61.0582 48.0491H58.2667C58.3339 47.8779 58.3706 47.6963 58.3753 47.5125V45.3662C58.3706 45.1823 58.3339 45.0008 58.2667 44.8296H61.0582C61.485 44.829 61.894 44.6592 62.1958 44.3574C62.4975 44.0557 62.6673 43.6466 62.668 43.2198V41.0735C62.6673 40.6467 62.4975 40.2377 62.1958 39.9359C61.894 39.6342 61.485 39.4644 61.0582 39.4637H58.2667C58.3339 39.2926 58.3706 39.111 58.3753 38.9272V36.7808C58.3706 36.597 58.3339 36.4154 58.2667 36.2442H61.0582C61.485 36.2436 61.894 36.0738 62.1958 35.772C62.4975 35.4703 62.6673 35.0612 62.668 34.6345ZM54.6192 31.9515H61.0582C61.2005 31.9515 61.337 32.0081 61.4376 32.1087C61.5383 32.2093 61.5948 32.3458 61.5948 32.4881V34.6345C61.5948 34.7768 61.5383 34.9133 61.4376 35.0139C61.337 35.1145 61.2005 35.1711 61.0582 35.1711H54.6192C54.4769 35.1711 54.3404 35.1145 54.2398 35.0139C54.1391 34.9133 54.0826 34.7768 54.0826 34.6345V32.4881C54.0826 32.3458 54.1391 32.2093 54.2398 32.1087C54.3404 32.0081 54.4769 31.9515 54.6192 31.9515ZM52.4728 31.9515C52.5438 31.9499 52.6143 31.9627 52.6801 31.989C52.746 32.0154 52.8058 32.0549 52.8559 32.105C52.9061 32.1552 52.9456 32.215 52.9719 32.2809C52.9983 32.3467 53.0111 32.4172 53.0094 32.4881V34.6345C53.0111 34.7054 52.9983 34.7759 52.9719 34.8417C52.9456 34.9076 52.9061 34.9674 52.8559 35.0176C52.8058 35.0677 52.746 35.1072 52.6801 35.1336C52.6143 35.1599 52.5438 35.1727 52.4728 35.1711H48.5186C48.9171 34.1251 49.2294 33.0484 49.4523 31.9515H52.4728ZM53.0094 41.0735V43.2198C53.0094 43.3621 52.9529 43.4986 52.8523 43.5993C52.7516 43.6999 52.6152 43.7564 52.4728 43.7564H46.0338C45.8915 43.7564 45.755 43.6999 45.6544 43.5993C45.5538 43.4986 45.4972 43.3621 45.4972 43.2198V41.0735C45.4972 40.9312 45.5538 40.7947 45.6544 40.6941C45.755 40.5934 45.8915 40.5369 46.0338 40.5369H52.4728C52.6152 40.5369 52.7516 40.5934 52.8523 40.6941C52.9529 40.7947 53.0094 40.9312 53.0094 41.0735ZM48.7168 47.5125C48.7168 47.6548 48.6602 47.7913 48.5596 47.8919C48.459 47.9926 48.3225 48.0491 48.1802 48.0491H41.7411C41.5988 48.0491 41.4623 47.9926 41.3617 47.8919C41.2611 47.7913 41.2046 47.6548 41.2046 47.5125V45.3662C41.2046 45.2239 41.2611 45.0874 41.3617 44.9868C41.4623 44.8861 41.5988 44.8296 41.7411 44.8296H48.1802C48.3225 44.8296 48.459 44.8861 48.5596 44.9868C48.6602 45.0874 48.7168 45.2239 48.7168 45.3662V47.5125ZM44.4241 51.8052C44.4241 51.9475 44.3675 52.084 44.2669 52.1846C44.1663 52.2853 44.0298 52.3418 43.8875 52.3418H37.4485C37.3061 52.3418 37.1697 52.2853 37.069 52.1846C36.9684 52.084 36.9119 51.9475 36.9119 51.8052V49.6589C36.9119 49.5165 36.9684 49.3801 37.069 49.2794C37.1697 49.1788 37.3061 49.1223 37.4485 49.1223H43.8875C44.0298 49.1223 44.1663 49.1788 44.2669 49.2794C44.3675 49.3801 44.4241 49.5165 44.4241 49.6589V51.8052ZM28.8631 52.3418C28.7208 52.3418 28.5843 52.2853 28.4837 52.1846C28.383 52.084 28.3265 51.9475 28.3265 51.8052V49.6589C28.3265 49.5165 28.383 49.3801 28.4837 49.2794C28.5843 49.1788 28.7208 49.1223 28.8631 49.1223H35.3021C35.4444 49.1223 35.5809 49.1788 35.6815 49.2794C35.7822 49.3801 35.8387 49.5165 35.8387 49.6589V51.8052C35.8387 51.9475 35.7822 52.084 35.6815 52.1846C35.5809 52.2853 35.4444 52.3418 35.3021 52.3418H28.8631ZM28.3265 43.2198V41.0735C28.3265 40.9312 28.383 40.7947 28.4837 40.6941C28.5843 40.5934 28.7208 40.5369 28.8631 40.5369H35.3021C35.4444 40.5369 35.5809 40.5934 35.6815 40.6941C35.7822 40.7947 35.8387 40.9312 35.8387 41.0735V43.2198C35.8387 43.3621 35.7822 43.4986 35.6815 43.5993C35.5809 43.6999 35.4444 43.7564 35.3021 43.7564H28.8631C28.7208 43.7564 28.5843 43.6999 28.4837 43.5993C28.383 43.4986 28.3265 43.3621 28.3265 43.2198ZM32.6192 36.7808C32.6175 36.7099 32.6303 36.6394 32.6567 36.5735C32.6831 36.5077 32.7225 36.4479 32.7727 36.3977C32.8228 36.3476 32.8827 36.3081 32.9485 36.2817C33.0143 36.2553 33.0849 36.2426 33.1558 36.2442H33.2142C33.7225 37.3635 34.32 38.4402 35.0008 39.4637H33.1558C33.0849 39.4654 33.0143 39.4526 32.9485 39.4262C32.8827 39.3999 32.8228 39.3604 32.7727 39.3102C32.7225 39.2601 32.6831 39.2003 32.6567 39.1344C32.6303 39.0686 32.6175 38.9981 32.6192 38.9272V36.7808ZM32.6192 45.3662C32.6192 45.2239 32.6757 45.0874 32.7764 44.9868C32.877 44.8861 33.0135 44.8296 33.1558 44.8296H39.5948C39.7371 44.8296 39.8736 44.8861 39.9742 44.9868C40.0749 45.0874 40.1314 45.2239 40.1314 45.3662V47.5125C40.1314 47.6548 40.0749 47.7913 39.9742 47.8919C39.8736 47.9926 39.7371 48.0491 39.5948 48.0491H33.1558C33.0135 48.0491 32.877 47.9926 32.7764 47.8919C32.6757 47.7913 32.6192 47.6548 32.6192 47.5125V45.3662ZM48.7168 38.9272C48.7184 38.9981 48.7056 39.0686 48.6793 39.1344C48.6529 39.2003 48.6134 39.2601 48.5633 39.3102C48.5131 39.3604 48.4533 39.3999 48.3874 39.4262C48.3216 39.4526 48.2511 39.4654 48.1802 39.4637H46.3358C47.0164 38.4401 47.6137 37.3635 48.1218 36.2442H48.1802C48.2511 36.2426 48.3216 36.2553 48.3874 36.2817C48.4533 36.3081 48.5131 36.3476 48.5633 36.3977C48.6134 36.4479 48.6529 36.5077 48.6793 36.5735C48.7056 36.6394 48.7184 36.7099 48.7168 36.7808V38.9272ZM40.668 43.5532C41.3668 43.5527 42.0586 43.4137 42.7033 43.1441C43.348 42.8745 43.9329 42.4798 44.4241 41.9827V43.2198C44.4257 43.2907 44.413 43.3613 44.3866 43.4271C44.3602 43.493 44.3207 43.5528 44.2706 43.6029C44.2204 43.6531 44.1606 43.6925 44.0948 43.7189C44.0289 43.7453 43.9584 43.7581 43.8875 43.7564H37.4485C37.3775 43.7581 37.307 43.7453 37.2412 43.7189C37.1753 43.6925 37.1155 43.6531 37.0654 43.6029C37.0152 43.5528 36.9758 43.493 36.9494 43.4271C36.923 43.3613 36.9102 43.2907 36.9119 43.2198V41.9818C37.4029 42.4792 37.9877 42.8742 38.6325 43.1439C39.2772 43.4136 39.9691 43.5527 40.668 43.5532ZM28.8631 31.9515H31.8836C32.1066 33.0484 32.4189 34.1251 32.8173 35.1711H28.8631C28.7922 35.1727 28.7217 35.1599 28.6558 35.1336C28.59 35.1072 28.5302 35.0677 28.48 35.0176C28.4298 34.9674 28.3904 34.9076 28.364 34.8417C28.3376 34.7759 28.3249 34.7054 28.3265 34.6345V32.4881C28.3249 32.4172 28.3376 32.3467 28.364 32.2809C28.3904 32.215 28.4298 32.1552 28.48 32.105C28.5302 32.0549 28.59 32.0154 28.6558 31.989C28.7217 31.9627 28.7922 31.9499 28.8631 31.9515ZM19.7411 34.6345V32.4881C19.7411 32.3458 19.7977 32.2093 19.8983 32.1087C19.9989 32.0081 20.1354 31.9515 20.2777 31.9515H26.7167C26.8591 31.9515 26.9955 32.0081 27.0962 32.1087C27.1968 32.2093 27.2533 32.3458 27.2533 32.4881V34.6345C27.2533 34.7768 27.1968 34.9133 27.0962 35.0139C26.9955 35.1145 26.8591 35.1711 26.7167 35.1711H20.2777C20.1354 35.1711 19.9989 35.1145 19.8983 35.0139C19.7977 34.9133 19.7411 34.7768 19.7411 34.6345ZM24.5704 39.4637C24.4281 39.4637 24.2916 39.4072 24.191 39.3066C24.0904 39.2059 24.0338 39.0695 24.0338 38.9272V36.7808C24.0338 36.6385 24.0904 36.502 24.191 36.4014C24.2916 36.3008 24.4281 36.2442 24.5704 36.2442H31.0094C31.1517 36.2442 31.2882 36.3008 31.3889 36.4014C31.4895 36.502 31.546 36.6385 31.546 36.7808V38.9272C31.546 39.0695 31.4895 39.2059 31.3889 39.3066C31.2882 39.4072 31.1517 39.4637 31.0094 39.4637H24.5704ZM24.0338 47.5125V45.3662C24.0338 45.2239 24.0904 45.0874 24.191 44.9868C24.2916 44.8861 24.4281 44.8296 24.5704 44.8296H31.0094C31.1517 44.8296 31.2882 44.8861 31.3889 44.9868C31.4895 45.0874 31.546 45.2239 31.546 45.3662V47.5125C31.546 47.6548 31.4895 47.7913 31.3889 47.8919C31.2882 47.9926 31.1517 48.0491 31.0094 48.0491H24.5704C24.4281 48.0491 24.2916 47.9926 24.191 47.8919C24.0904 47.7913 24.0338 47.6548 24.0338 47.5125ZM19.7411 51.8052V49.6589C19.7411 49.5165 19.7977 49.3801 19.8983 49.2794C19.9989 49.1788 20.1354 49.1223 20.2777 49.1223H26.7167C26.8591 49.1223 26.9955 49.1788 27.0962 49.2794C27.1968 49.3801 27.2533 49.5165 27.2533 49.6589V51.8052C27.2533 51.9475 27.1968 52.084 27.0962 52.1846C26.9955 52.2853 26.8591 52.3418 26.7167 52.3418H20.2777C20.1354 52.3418 19.9989 52.2853 19.8983 52.1846C19.7977 52.084 19.7411 51.9475 19.7411 51.8052ZM31.0094 56.6345H24.5704C24.4281 56.6345 24.2916 56.5779 24.191 56.4773C24.0904 56.3767 24.0338 56.2402 24.0338 56.0979V53.9515C24.0338 53.8092 24.0904 53.6727 24.191 53.5721C24.2916 53.4715 24.4281 53.415 24.5704 53.415H31.0094C31.1517 53.415 31.2882 53.4715 31.3889 53.5721C31.4895 53.6727 31.546 53.8092 31.546 53.9515V56.0979C31.546 56.2402 31.4895 56.3767 31.3889 56.4773C31.2882 56.5779 31.1517 56.6345 31.0094 56.6345ZM39.5948 56.6345H33.1558C33.0135 56.6345 32.877 56.5779 32.7764 56.4773C32.6757 56.3767 32.6192 56.2402 32.6192 56.0979V53.9515C32.6192 53.8092 32.6757 53.6727 32.7764 53.5721C32.877 53.4715 33.0135 53.415 33.1558 53.415H39.5948C39.7371 53.415 39.8736 53.4715 39.9742 53.5721C40.0749 53.6727 40.1314 53.8092 40.1314 53.9515V56.0979C40.1314 56.2402 40.0749 56.3767 39.9742 56.4773C39.8736 56.5779 39.7371 56.6345 39.5948 56.6345ZM48.1802 56.6345H41.7411C41.5988 56.6345 41.4623 56.5779 41.3617 56.4773C41.2611 56.3767 41.2046 56.2402 41.2046 56.0979V53.9515C41.2046 53.8092 41.2611 53.6727 41.3617 53.5721C41.4623 53.4715 41.5988 53.415 41.7411 53.415H48.1802C48.3225 53.415 48.459 53.4715 48.5596 53.5721C48.6602 53.6727 48.7168 53.8092 48.7168 53.9515V56.0979C48.7168 56.2402 48.6602 56.3767 48.5596 56.4773C48.459 56.5779 48.3225 56.6345 48.1802 56.6345ZM46.0338 52.3418C45.8915 52.3418 45.755 52.2853 45.6544 52.1846C45.5538 52.084 45.4972 51.9475 45.4972 51.8052V49.6589C45.4972 49.5165 45.5538 49.3801 45.6544 49.2794C45.755 49.1788 45.8915 49.1223 46.0338 49.1223H52.4728C52.6152 49.1223 52.7516 49.1788 52.8523 49.2794C52.9529 49.3801 53.0094 49.5165 53.0094 49.6589V51.8052C53.0094 51.9475 52.9529 52.084 52.8523 52.1846C52.7516 52.2853 52.6152 52.3418 52.4728 52.3418H46.0338ZM61.5948 49.6589V51.8052C61.5948 51.9475 61.5383 52.084 61.4376 52.1846C61.337 52.2853 61.2005 52.3418 61.0582 52.3418H54.6192C54.4769 52.3418 54.3404 52.2853 54.2398 52.1846C54.1391 52.084 54.0826 51.9475 54.0826 51.8052V49.6589C54.0826 49.5165 54.1391 49.3801 54.2398 49.2794C54.3404 49.1788 54.4769 49.1223 54.6192 49.1223H61.0582C61.2005 49.1223 61.337 49.1788 61.4376 49.2794C61.5383 49.3801 61.5948 49.5165 61.5948 49.6589ZM57.3021 45.3662V47.5125C57.3021 47.6548 57.2456 47.7913 57.145 47.8919C57.0443 47.9926 56.9078 48.0491 56.7655 48.0491H50.3265C50.1842 48.0491 50.0477 47.9926 49.9471 47.8919C49.8465 47.7913 49.7899 47.6548 49.7899 47.5125V45.3662C49.7899 45.2239 49.8465 45.0874 49.9471 44.9868C50.0477 44.8861 50.1842 44.8296 50.3265 44.8296H56.7655C56.9078 44.8296 57.0443 44.8861 57.145 44.9868C57.2456 45.0874 57.3021 45.2239 57.3021 45.3662ZM61.5948 41.0735V43.2198C61.5948 43.3621 61.5383 43.4986 61.4376 43.5993C61.337 43.6999 61.2005 43.7564 61.0582 43.7564H54.6192C54.4769 43.7564 54.3404 43.6999 54.2398 43.5993C54.1391 43.4986 54.0826 43.3621 54.0826 43.2198V41.0735C54.0826 40.9312 54.1391 40.7947 54.2398 40.6941C54.3404 40.5934 54.4769 40.5369 54.6192 40.5369H61.0582C61.2005 40.5369 61.337 40.5934 61.4376 40.6941C61.5383 40.7947 61.5948 40.9312 61.5948 41.0735ZM57.3021 36.7808V38.9272C57.3021 39.0695 57.2456 39.2059 57.145 39.3066C57.0443 39.4072 56.9078 39.4637 56.7655 39.4637H50.3265C50.1842 39.4637 50.0477 39.4072 49.9471 39.3066C49.8465 39.2059 49.7899 39.0695 49.7899 38.9272V36.7808C49.7899 36.6385 49.8465 36.502 49.9471 36.4014C50.0477 36.3008 50.1842 36.2442 50.3265 36.2442H56.7655C56.9078 36.2442 57.0443 36.3008 57.145 36.4014C57.2456 36.502 57.3021 36.6385 57.3021 36.7808Z" stroke="#FBFDFA" stroke-width="0.4"></path><path d="M39.5948 35.1605C39.8062 35.1607 40.0155 35.1191 40.2108 35.0381C40.406 34.957 40.5833 34.8382 40.7324 34.6883L44.2663 31.1544C44.3165 31.1046 44.3563 31.0455 44.3836 30.9803C44.4108 30.9151 44.4249 30.8451 44.4251 30.7745C44.4252 30.7038 44.4114 30.6338 44.3844 30.5685C44.3575 30.5032 44.3178 30.4438 44.2679 30.3939C44.2179 30.3439 44.1585 30.3043 44.0932 30.2774C44.0279 30.2504 43.9579 30.2366 43.8872 30.2368C43.8166 30.2369 43.7467 30.2511 43.6815 30.2783C43.6163 30.3056 43.5571 30.3455 43.5074 30.3957L39.9743 33.9303C39.9244 33.9801 39.8653 34.0196 39.8002 34.0466C39.7351 34.0736 39.6653 34.0875 39.5948 34.0875C39.5243 34.0875 39.4545 34.0736 39.3894 34.0466C39.3243 34.0196 39.2652 33.9801 39.2153 33.9303L37.8279 32.5426C37.7272 32.4427 37.5909 32.3868 37.449 32.3871C37.3071 32.3874 37.1711 32.4439 37.0707 32.5442C36.9704 32.6445 36.9139 32.7805 36.9135 32.9224C36.9132 33.0643 36.9691 33.2006 37.069 33.3014L38.4566 34.689C38.6058 34.8388 38.7832 34.9576 38.9786 35.0385C39.1739 35.1194 39.3834 35.1609 39.5948 35.1605Z" stroke="#FBFDFA" stroke-width="0.4"></path></svg>