<?xml version="1.0" encoding="UTF-8"?>
<svg xmlns="http://www.w3.org/2000/svg" width="227" height="330" viewBox="0 0 227 330" fill="none">
  <g clip-path="url(#clip0_536_3463)">
    <rect width="226.333" height="330" fill="#EEF0ED"></rect>
    <path d="M226 40L226 0L186 0L226 40Z" fill="#FBFDFA"></path>
    <path d="M61.3115 192.26C59.9248 192.26 58.6595 192.026 57.5155 191.558C56.3715 191.09 55.3748 190.431 54.5255 189.582C53.6762 188.733 53.0175 187.736 52.5495 186.592C52.0815 185.448 51.8475 184.191 51.8475 182.822C51.8475 181.453 52.0815 180.196 52.5495 179.052C53.0175 177.908 53.6762 176.911 54.5255 176.062C55.3748 175.213 56.3715 174.554 57.5155 174.086C58.6595 173.618 59.9162 173.384 61.2855 173.384C62.6548 173.384 63.9115 173.618 65.0555 174.086C66.1995 174.554 67.1962 175.213 68.0455 176.062C68.8948 176.911 69.5448 177.908 69.9955 179.052C70.4635 180.196 70.6975 181.453 70.6975 182.822C70.6975 184.174 70.4635 185.431 69.9955 186.592C69.5448 187.736 68.8948 188.733 68.0455 189.582C67.1962 190.431 66.1995 191.09 65.0555 191.558C63.9115 192.026 62.6635 192.26 61.3115 192.26ZM61.2855 188.1C61.9962 188.1 62.6462 187.97 63.2355 187.71C63.8422 187.45 64.3622 187.086 64.7955 186.618C65.2462 186.133 65.5928 185.569 65.8355 184.928C66.0782 184.287 66.1995 183.585 66.1995 182.822C66.1995 182.059 66.0782 181.357 65.8355 180.716C65.5928 180.075 65.2462 179.52 64.7955 179.052C64.3622 178.567 63.8422 178.194 63.2355 177.934C62.6462 177.674 61.9962 177.544 61.2855 177.544C60.5748 177.544 59.9162 177.674 59.3095 177.934C58.7202 178.194 58.2002 178.567 57.7495 179.052C57.2988 179.52 56.9522 180.075 56.7095 180.716C56.4842 181.357 56.3715 182.059 56.3715 182.822C56.3715 183.585 56.4842 184.295 56.7095 184.954C56.9522 185.595 57.2988 186.15 57.7495 186.618C58.2002 187.086 58.7202 187.45 59.3095 187.71C59.9162 187.97 60.5748 188.1 61.2855 188.1ZM74.5331 192V177.518C74.5331 176.617 74.7238 175.802 75.1051 175.074C75.5038 174.346 76.0498 173.774 76.7431 173.358C77.4538 172.925 78.2771 172.708 79.2131 172.708C79.8718 172.708 80.4784 172.803 81.0331 172.994C81.5878 173.185 82.0818 173.453 82.5151 173.8L81.3191 176.842C81.0938 176.721 80.8771 176.625 80.6691 176.556C80.4611 176.487 80.2704 176.452 80.0971 176.452C79.7851 176.452 79.5251 176.504 79.3171 176.608C79.1091 176.712 78.9531 176.877 78.8491 177.102C78.7624 177.31 78.7191 177.57 78.7191 177.882V192H76.6391C76.1711 192 75.7551 192 75.3911 192C75.0444 192 74.7584 192 74.5331 192ZM72.5311 182.016V178.584H81.5531V182.016H72.5311ZM84.7511 192V177.518C84.7511 176.617 84.9418 175.802 85.3231 175.074C85.7218 174.346 86.2678 173.774 86.9611 173.358C87.6718 172.925 88.4951 172.708 89.4311 172.708C90.0898 172.708 90.6964 172.803 91.2511 172.994C91.8058 173.185 92.2998 173.453 92.7331 173.8L91.5371 176.842C91.3118 176.721 91.0951 176.625 90.8871 176.556C90.6791 176.487 90.4884 176.452 90.3151 176.452C90.0031 176.452 89.7431 176.504 89.5351 176.608C89.3271 176.712 89.1711 176.877 89.0671 177.102C88.9804 177.31 88.9371 177.57 88.9371 177.882V192H86.8571C86.3891 192 85.9731 192 85.6091 192C85.2624 192 84.9764 192 84.7511 192ZM82.7491 182.016V178.584H91.7711V182.016H82.7491ZM100.185 192.26C98.6594 192.26 97.3334 191.957 96.2067 191.35C95.0801 190.726 94.2047 189.885 93.5807 188.828C92.9567 187.753 92.6447 186.531 92.6447 185.162C92.6447 184.105 92.8181 183.134 93.1647 182.25C93.5114 181.366 93.9967 180.603 94.6207 179.962C95.2447 179.303 95.9814 178.801 96.8307 178.454C97.6974 178.09 98.6421 177.908 99.6647 177.908C100.635 177.908 101.519 178.081 102.317 178.428C103.131 178.775 103.833 179.26 104.423 179.884C105.012 180.508 105.463 181.245 105.775 182.094C106.087 182.943 106.225 183.871 106.191 184.876L106.165 185.994H95.1667L94.5687 183.654H102.785L102.343 184.148V183.628C102.308 183.195 102.169 182.813 101.927 182.484C101.701 182.137 101.398 181.869 101.017 181.678C100.635 181.487 100.202 181.392 99.7167 181.392C99.0407 181.392 98.4601 181.531 97.9747 181.808C97.5067 182.068 97.1514 182.458 96.9087 182.978C96.6661 183.481 96.5447 184.105 96.5447 184.85C96.5447 185.613 96.7007 186.28 97.0127 186.852C97.3421 187.407 97.8101 187.84 98.4167 188.152C99.0407 188.464 99.7774 188.62 100.627 188.62C101.216 188.62 101.736 188.533 102.187 188.36C102.655 188.187 103.157 187.892 103.695 187.476L105.645 190.232C105.107 190.7 104.535 191.081 103.929 191.376C103.322 191.671 102.698 191.887 102.057 192.026C101.433 192.182 100.809 192.26 100.185 192.26ZM108.841 192V178.194H112.793L112.923 181.002L112.091 181.314C112.282 180.69 112.62 180.127 113.105 179.624C113.608 179.104 114.206 178.688 114.899 178.376C115.592 178.064 116.32 177.908 117.083 177.908C118.123 177.908 118.998 178.125 119.709 178.558C120.42 178.974 120.957 179.607 121.321 180.456C121.685 181.288 121.867 182.311 121.867 183.524V192H117.681V183.862C117.681 183.307 117.603 182.848 117.447 182.484C117.291 182.12 117.048 181.851 116.719 181.678C116.407 181.487 116.017 181.401 115.549 181.418C115.185 181.418 114.847 181.479 114.535 181.6C114.223 181.704 113.954 181.869 113.729 182.094C113.504 182.302 113.322 182.545 113.183 182.822C113.062 183.099 113.001 183.403 113.001 183.732V192H110.947C110.462 192 110.046 192 109.699 192C109.352 192 109.066 192 108.841 192ZM129.999 192.26C128.647 192.26 127.451 192.043 126.411 191.61C125.388 191.177 124.574 190.596 123.967 189.868L126.489 187.684C127.026 188.221 127.633 188.62 128.309 188.88C128.985 189.123 129.626 189.244 130.233 189.244C130.476 189.244 130.692 189.218 130.883 189.166C131.074 189.114 131.23 189.045 131.351 188.958C131.49 188.854 131.594 188.741 131.663 188.62C131.732 188.481 131.767 188.325 131.767 188.152C131.767 187.805 131.611 187.537 131.299 187.346C131.143 187.259 130.883 187.155 130.519 187.034C130.155 186.913 129.687 186.774 129.115 186.618C128.3 186.41 127.59 186.167 126.983 185.89C126.394 185.595 125.908 185.257 125.527 184.876C125.18 184.512 124.912 184.113 124.721 183.68C124.53 183.229 124.435 182.727 124.435 182.172C124.435 181.531 124.582 180.95 124.877 180.43C125.189 179.91 125.596 179.459 126.099 179.078C126.619 178.697 127.208 178.411 127.867 178.22C128.543 178.012 129.236 177.908 129.947 177.908C130.71 177.908 131.438 177.995 132.131 178.168C132.824 178.341 133.466 178.584 134.055 178.896C134.662 179.208 135.199 179.581 135.667 180.014L133.483 182.458C133.171 182.163 132.816 181.903 132.417 181.678C132.036 181.435 131.637 181.245 131.221 181.106C130.805 180.967 130.424 180.898 130.077 180.898C129.817 180.898 129.583 180.924 129.375 180.976C129.184 181.011 129.02 181.08 128.881 181.184C128.742 181.271 128.638 181.383 128.569 181.522C128.5 181.643 128.465 181.791 128.465 181.964C128.465 182.137 128.508 182.302 128.595 182.458C128.699 182.614 128.838 182.744 129.011 182.848C129.184 182.952 129.462 183.073 129.843 183.212C130.224 183.333 130.744 183.489 131.403 183.68C132.218 183.905 132.92 184.157 133.509 184.434C134.098 184.711 134.566 185.041 134.913 185.422C135.19 185.717 135.398 186.063 135.537 186.462C135.676 186.843 135.745 187.259 135.745 187.71C135.745 188.594 135.494 189.383 134.991 190.076C134.506 190.752 133.83 191.289 132.963 191.688C132.096 192.069 131.108 192.26 129.999 192.26ZM138.452 192V178.194H142.612V192H138.452ZM140.532 175.464C139.752 175.464 139.137 175.282 138.686 174.918C138.253 174.537 138.036 173.999 138.036 173.306C138.036 172.682 138.261 172.171 138.712 171.772C139.163 171.373 139.769 171.174 140.532 171.174C141.312 171.174 141.919 171.365 142.352 171.746C142.785 172.11 143.002 172.63 143.002 173.306C143.002 173.947 142.777 174.467 142.326 174.866C141.893 175.265 141.295 175.464 140.532 175.464ZM150.759 192L144.987 178.194H149.589L153.021 188.516L152.007 188.62L155.543 178.194H160.093L154.035 192H150.759ZM168.46 192.26C166.935 192.26 165.609 191.957 164.482 191.35C163.355 190.726 162.48 189.885 161.856 188.828C161.232 187.753 160.92 186.531 160.92 185.162C160.92 184.105 161.093 183.134 161.44 182.25C161.787 181.366 162.272 180.603 162.896 179.962C163.52 179.303 164.257 178.801 165.106 178.454C165.973 178.09 166.917 177.908 167.94 177.908C168.911 177.908 169.795 178.081 170.592 178.428C171.407 178.775 172.109 179.26 172.698 179.884C173.287 180.508 173.738 181.245 174.05 182.094C174.362 182.943 174.501 183.871 174.466 184.876L174.44 185.994H163.442L162.844 183.654H171.06L170.618 184.148V183.628C170.583 183.195 170.445 182.813 170.202 182.484C169.977 182.137 169.673 181.869 169.292 181.678C168.911 181.487 168.477 181.392 167.992 181.392C167.316 181.392 166.735 181.531 166.25 181.808C165.782 182.068 165.427 182.458 165.184 182.978C164.941 183.481 164.82 184.105 164.82 184.85C164.82 185.613 164.976 186.28 165.288 186.852C165.617 187.407 166.085 187.84 166.692 188.152C167.316 188.464 168.053 188.62 168.902 188.62C169.491 188.62 170.011 188.533 170.462 188.36C170.93 188.187 171.433 187.892 171.97 187.476L173.92 190.232C173.383 190.7 172.811 191.081 172.204 191.376C171.597 191.671 170.973 191.887 170.332 192.026C169.708 192.182 169.084 192.26 168.46 192.26ZM65.7399 225.26C64.5439 225.26 63.4606 225.121 62.4899 224.844C61.5366 224.549 60.6873 224.133 59.9419 223.596C59.1966 223.041 58.5293 222.391 57.9399 221.646L60.6179 218.604C61.4846 219.765 62.3513 220.545 63.2179 220.944C64.1019 221.343 65.0119 221.542 65.9479 221.542C66.4159 221.542 66.8406 221.481 67.2219 221.36C67.6033 221.239 67.8979 221.065 68.1059 220.84C68.3139 220.597 68.4179 220.303 68.4179 219.956C68.4179 219.696 68.3486 219.462 68.2099 219.254C68.0886 219.046 67.9153 218.864 67.6899 218.708C67.4646 218.552 67.1959 218.413 66.8839 218.292C66.5719 218.153 66.2426 218.041 65.8959 217.954C65.5493 217.85 65.1939 217.763 64.8299 217.694C63.8246 217.469 62.9493 217.191 62.2039 216.862C61.4586 216.533 60.8346 216.134 60.3319 215.666C59.8466 215.181 59.4826 214.635 59.2399 214.028C58.9973 213.404 58.8759 212.711 58.8759 211.948C58.8759 211.133 59.0579 210.388 59.4219 209.712C59.8033 209.019 60.3059 208.429 60.9299 207.944C61.5713 207.441 62.3079 207.06 63.1399 206.8C63.9719 206.523 64.8386 206.384 65.7399 206.384C66.9359 206.384 67.9586 206.514 68.8079 206.774C69.6746 207.017 70.4113 207.372 71.0179 207.84C71.6419 208.308 72.1706 208.871 72.6039 209.53L69.8739 212.156C69.5099 211.705 69.1113 211.333 68.6779 211.038C68.2619 210.743 67.8113 210.518 67.3259 210.362C66.8579 210.206 66.3726 210.128 65.8699 210.128C65.3499 210.128 64.8993 210.197 64.5179 210.336C64.1539 210.457 63.8679 210.639 63.6599 210.882C63.4519 211.107 63.3479 211.385 63.3479 211.714C63.3479 212.009 63.4346 212.26 63.6079 212.468C63.7813 212.676 64.0153 212.867 64.3099 213.04C64.6046 213.196 64.9426 213.335 65.3239 213.456C65.7053 213.56 66.1039 213.647 66.5199 213.716C67.4733 213.907 68.3313 214.158 69.0939 214.47C69.8739 214.782 70.5413 215.163 71.0959 215.614C71.6679 216.065 72.1013 216.602 72.3959 217.226C72.7079 217.833 72.8639 218.543 72.8639 219.358C72.8639 220.623 72.5519 221.698 71.9279 222.582C71.3213 223.449 70.4806 224.116 69.4059 224.584C68.3486 225.035 67.1266 225.26 65.7399 225.26ZM82.3224 225.26C80.7971 225.26 79.4711 224.957 78.3444 224.35C77.2178 223.726 76.3424 222.885 75.7184 221.828C75.0944 220.753 74.7824 219.531 74.7824 218.162C74.7824 217.105 74.9558 216.134 75.3024 215.25C75.6491 214.366 76.1344 213.603 76.7584 212.962C77.3824 212.303 78.1191 211.801 78.9684 211.454C79.8351 211.09 80.7798 210.908 81.8024 210.908C82.7731 210.908 83.6571 211.081 84.4544 211.428C85.2691 211.775 85.9711 212.26 86.5604 212.884C87.1498 213.508 87.6004 214.245 87.9124 215.094C88.2244 215.943 88.3631 216.871 88.3284 217.876L88.3024 218.994H77.3044L76.7064 216.654H84.9224L84.4804 217.148V216.628C84.4458 216.195 84.3071 215.813 84.0644 215.484C83.8391 215.137 83.5358 214.869 83.1544 214.678C82.7731 214.487 82.3398 214.392 81.8544 214.392C81.1784 214.392 80.5978 214.531 80.1124 214.808C79.6444 215.068 79.2891 215.458 79.0464 215.978C78.8038 216.481 78.6824 217.105 78.6824 217.85C78.6824 218.613 78.8384 219.28 79.1504 219.852C79.4798 220.407 79.9478 220.84 80.5544 221.152C81.1784 221.464 81.9151 221.62 82.7644 221.62C83.3538 221.62 83.8738 221.533 84.3244 221.36C84.7924 221.187 85.2951 220.892 85.8324 220.476L87.7824 223.232C87.2451 223.7 86.6731 224.081 86.0664 224.376C85.4598 224.671 84.8358 224.887 84.1944 225.026C83.5704 225.182 82.9464 225.26 82.3224 225.26ZM90.9788 225V211.194H94.9308L95.1128 215.692L94.3328 214.834C94.5408 214.089 94.8788 213.421 95.3468 212.832C95.8321 212.243 96.3955 211.775 97.0368 211.428C97.6781 211.081 98.3628 210.908 99.0908 210.908C99.4028 210.908 99.6888 210.934 99.9488 210.986C100.226 211.038 100.477 211.099 100.703 211.168L99.5588 215.77C99.3681 215.649 99.1081 215.553 98.7788 215.484C98.4668 215.397 98.1375 215.354 97.7908 215.354C97.4095 215.354 97.0541 215.423 96.7248 215.562C96.3955 215.683 96.1181 215.865 95.8928 216.108C95.6675 216.351 95.4855 216.637 95.3468 216.966C95.2255 217.295 95.1648 217.668 95.1648 218.084V225H90.9788ZM108.344 225L102.572 211.194H107.174L110.606 221.516L109.592 221.62L113.128 211.194H117.678L111.62 225H108.344ZM120.082 225V211.194H124.242V225H120.082ZM122.162 208.464C121.382 208.464 120.767 208.282 120.316 207.918C119.883 207.537 119.666 206.999 119.666 206.306C119.666 205.682 119.891 205.171 120.342 204.772C120.793 204.373 121.399 204.174 122.162 204.174C122.942 204.174 123.549 204.365 123.982 204.746C124.415 205.11 124.632 205.63 124.632 206.306C124.632 206.947 124.407 207.467 123.956 207.866C123.523 208.265 122.925 208.464 122.162 208.464ZM134.209 225.26C132.874 225.26 131.678 224.948 130.621 224.324C129.563 223.7 128.723 222.851 128.099 221.776C127.492 220.684 127.189 219.453 127.189 218.084C127.189 216.715 127.492 215.493 128.099 214.418C128.723 213.326 129.563 212.468 130.621 211.844C131.678 211.22 132.874 210.908 134.209 210.908C135.439 210.908 136.566 211.125 137.589 211.558C138.629 211.991 139.452 212.598 140.059 213.378L137.797 216.082C137.554 215.805 137.268 215.545 136.939 215.302C136.609 215.059 136.245 214.869 135.847 214.73C135.448 214.591 135.032 214.522 134.599 214.522C133.94 214.522 133.359 214.678 132.857 214.99C132.354 215.285 131.964 215.701 131.687 216.238C131.409 216.775 131.271 217.391 131.271 218.084C131.271 218.743 131.409 219.341 131.687 219.878C131.981 220.415 132.38 220.84 132.883 221.152C133.385 221.464 133.957 221.62 134.599 221.62C135.049 221.62 135.465 221.568 135.847 221.464C136.228 221.343 136.575 221.169 136.887 220.944C137.216 220.719 137.519 220.441 137.797 220.112L140.033 222.842C139.443 223.587 138.62 224.177 137.563 224.61C136.523 225.043 135.405 225.26 134.209 225.26ZM148.897 225.26C147.371 225.26 146.045 224.957 144.919 224.35C143.792 223.726 142.917 222.885 142.293 221.828C141.669 220.753 141.357 219.531 141.357 218.162C141.357 217.105 141.53 216.134 141.877 215.25C142.223 214.366 142.709 213.603 143.333 212.962C143.957 212.303 144.693 211.801 145.543 211.454C146.409 211.09 147.354 210.908 148.377 210.908C149.347 210.908 150.231 211.081 151.029 211.428C151.843 211.775 152.545 212.26 153.135 212.884C153.724 213.508 154.175 214.245 154.487 215.094C154.799 215.943 154.937 216.871 154.903 217.876L154.877 218.994H143.879L143.281 216.654H151.497L151.055 217.148V216.628C151.02 216.195 150.881 215.813 150.639 215.484C150.413 215.137 150.11 214.869 149.729 214.678C149.347 214.487 148.914 214.392 148.429 214.392C147.753 214.392 147.172 214.531 146.687 214.808C146.219 215.068 145.863 215.458 145.621 215.978C145.378 216.481 145.257 217.105 145.257 217.85C145.257 218.613 145.413 219.28 145.725 219.852C146.054 220.407 146.522 220.84 147.129 221.152C147.753 221.464 148.489 221.62 149.339 221.62C149.928 221.62 150.448 221.533 150.899 221.36C151.367 221.187 151.869 220.892 152.407 220.476L154.357 223.232C153.819 223.7 153.247 224.081 152.641 224.376C152.034 224.671 151.41 224.887 150.769 225.026C150.145 225.182 149.521 225.26 148.897 225.26ZM162.207 225.26C160.855 225.26 159.659 225.043 158.619 224.61C157.596 224.177 156.782 223.596 156.175 222.868L158.697 220.684C159.234 221.221 159.841 221.62 160.517 221.88C161.193 222.123 161.834 222.244 162.441 222.244C162.684 222.244 162.9 222.218 163.091 222.166C163.282 222.114 163.438 222.045 163.559 221.958C163.698 221.854 163.802 221.741 163.871 221.62C163.94 221.481 163.975 221.325 163.975 221.152C163.975 220.805 163.819 220.537 163.507 220.346C163.351 220.259 163.091 220.155 162.727 220.034C162.363 219.913 161.895 219.774 161.323 219.618C160.508 219.41 159.798 219.167 159.191 218.89C158.602 218.595 158.116 218.257 157.735 217.876C157.388 217.512 157.12 217.113 156.929 216.68C156.738 216.229 156.643 215.727 156.643 215.172C156.643 214.531 156.79 213.95 157.085 213.43C157.397 212.91 157.804 212.459 158.307 212.078C158.827 211.697 159.416 211.411 160.075 211.22C160.751 211.012 161.444 210.908 162.155 210.908C162.918 210.908 163.646 210.995 164.339 211.168C165.032 211.341 165.674 211.584 166.263 211.896C166.87 212.208 167.407 212.581 167.875 213.014L165.691 215.458C165.379 215.163 165.024 214.903 164.625 214.678C164.244 214.435 163.845 214.245 163.429 214.106C163.013 213.967 162.632 213.898 162.285 213.898C162.025 213.898 161.791 213.924 161.583 213.976C161.392 214.011 161.228 214.08 161.089 214.184C160.95 214.271 160.846 214.383 160.777 214.522C160.708 214.643 160.673 214.791 160.673 214.964C160.673 215.137 160.716 215.302 160.803 215.458C160.907 215.614 161.046 215.744 161.219 215.848C161.392 215.952 161.67 216.073 162.051 216.212C162.432 216.333 162.952 216.489 163.611 216.68C164.426 216.905 165.128 217.157 165.717 217.434C166.306 217.711 166.774 218.041 167.121 218.422C167.398 218.717 167.606 219.063 167.745 219.462C167.884 219.843 167.953 220.259 167.953 220.71C167.953 221.594 167.702 222.383 167.199 223.076C166.714 223.752 166.038 224.289 165.171 224.688C164.304 225.069 163.316 225.26 162.207 225.26Z" fill="#1A1A1A"></path>
    <g style="mix-blend-mode:luminosity" opacity="0.06">
      <path d="M431.993 237.847H361.558V237.854L396.772 283.163H396.779L432 237.854L431.993 237.847Z" fill="#3B5276"></path>
      <path d="M56.2453 174.001L116.861 251.991H116.875L177.484 174.001L177.477 173.995H56.252L56.2453 174.001Z" fill="#3B5276"></path>
      <path d="M238.106 251.991L177.49 174.001L116.881 251.991H238.106Z" fill="url(#paint0_linear_536_3463)" style="mix-blend-mode:multiply"></path>
      <path d="M177.477 329.986H177.491H298.695L238.093 252.011L238.086 251.997L177.477 329.986Z" fill="#D0D9E0"></path>
      <path d="M56.245 -137.996L-4.37078 -60.0001H116.861L56.245 -137.996Z" fill="#333940"></path>
      <path d="M177.47 329.987L177.477 329.986L116.868 251.997L56.2518 329.986L177.456 329.987H177.47Z" fill="#333940"></path>
      <path d="M116.861 -60.0001L116.868 -60L177.484 -137.996L177.477 -138.003H56.252L56.245 -137.996L116.861 -60.0001Z" fill="#FFCA61"></path>
      <path d="M238.113 251.991H359.331L298.722 174.001L238.113 251.991Z" fill="#FFCA61"></path>
      <path d="M298.722 174.001L298.715 173.995L238.106 96.0054L177.49 173.995L177.477 173.995L177.484 174.001L238.099 251.991L116.875 251.991H116.861L56.2453 174.001L-4.36424 251.991H-4.37774L-4.37099 251.997L-64.9868 329.987H56.2381L56.2448 330L56.2518 329.986L116.868 251.997L177.477 329.986L238.086 251.997L238.093 252.011L238.106 251.997L238.113 251.991L298.722 174.001Z" fill="#E94B64"></path>
      <path d="M177.477 173.995L177.49 173.995L238.106 95.999L238.1 95.9923H116.875L116.868 95.999L177.477 173.995Z" fill="#D0D9E0"></path>
      <path d="M177.491 329.986H177.477L177.484 330L177.491 329.986Z" fill="#3B5276"></path>
      <path d="M56.2387 173.995L56.2453 174.001L56.252 173.995H56.2387Z" fill="#3B5276"></path>
      <path d="M-64.9933 330L-64.9868 329.987H-65L-64.9933 330Z" fill="#0D2333"></path>
      <path d="M209.526 -155.443L176.451 -198L143.376 -155.443H209.526Z" fill="#3B5276"></path>
      <path d="M177.491 -138.003H177.477L177.484 -137.996L177.491 -138.003Z" fill="#3B5276"></path>
      <path d="M-4.37078 -60.0001L-4.37737 -60.0002L-4.37063 -59.9934L-4.37078 -60.0001Z" fill="#3B5276"></path>
      <path d="M298.728 329.987H298.715L298.721 330L298.728 329.987Z" fill="#3B5276"></path>
      <path d="M359.344 251.997L359.351 251.991L359.331 251.991L359.344 251.997Z" fill="#3B5276"></path>
      <path d="M56.252 -138.003H56.2387L56.245 -137.996L56.252 -138.003Z" fill="#3B5276"></path>
      <path d="M238.107 95.9923H238.1L238.106 95.999L238.107 95.9923Z" fill="#3B5276"></path>
      <path d="M177.477 17.9957H56.2387L56.2454 18.0025L116.861 95.9917L116.868 95.999L116.875 95.9923L177.484 18.0025L177.491 17.9957H177.477Z" fill="#E94B64"></path>
      <path d="M116.868 -59.9934L116.868 -60L116.861 -60.0001L116.868 -59.9934Z" fill="#3B5276"></path>
      <path d="M116.868 -59.9934L116.861 -60.0001H-4.37078L-4.37063 -59.9934L56.2315 17.9823L116.841 -60.0002L177.45 17.989H56.2383L56.2387 17.9957H177.477L116.868 -59.9934Z" fill="#E94B64"></path>
      <path d="M116.841 -60.0002L56.2315 17.9823L56.2255 17.989H177.45L116.841 -60.0002Z" fill="#333940"></path>
      <path d="M56.2253 329.993H56.2388L116.841 252.017L116.828 252.004L116.834 251.997H-4.3838L-4.39055 252.004L56.2253 329.993Z" fill="url(#paint1_linear_536_3463)"></path>
      <path d="M298.695 173.988L238.086 95.9988L177.477 173.988H298.695Z" fill="url(#paint2_linear_536_3463)" style="mix-blend-mode:multiply"></path>
      <path d="M298.722 173.995H177.497L238.113 251.984L298.722 173.995Z" fill="url(#paint3_linear_536_3463)"></path>
      <path d="M196.136 9.38345L159.754 56.1998H232.524L196.136 9.38345Z" fill="#FFCA61"></path>
      <path d="M116.84 251.991L238.113 251.991L225.101 268.738H129.48L116.84 251.991Z" fill="url(#paint4_linear_536_3463)" style="mix-blend-mode:multiply"></path>
    </g>
    <path d="M111.867 118.174V129.478L100.562 118.174H111.867Z" fill="#6C7648"></path>
    <path d="M114.133 118.174V129.478L125.438 118.174H114.133Z" fill="#6C7648"></path>
    <path d="M127.696 114.783V126.087L139 114.783H127.696Z" fill="#6C7648"></path>
    <path d="M98.3043 114.783V126.087L87 114.783H98.3043Z" fill="#6C7648"></path>
    <path d="M113.079 143.204L121.073 135.211H105.086L113.079 143.204Z" fill="#6C7648"></path>
    <path d="M113.081 108L105.087 115.993L121.074 115.993L113.081 108Z" fill="#6C7648"></path>
    <path d="M100.565 132.87L100.565 121.565L111.869 132.87L100.565 132.87Z" fill="#6C7648"></path>
    <path d="M125.435 132.87L125.435 121.565L114.131 132.87L125.435 132.87Z" fill="#6C7648"></path>
    <path d="M100.565 132.87L100.565 121.565L111.869 132.87L100.565 132.87Z" fill="#6C7648"></path>
    <path d="M125.435 132.87L125.435 121.565L114.131 132.87L125.435 132.87Z" fill="#6C7648"></path>
  </g>
  <defs>
    <linearGradient id="paint0_linear_536_3463" x1="-143.632" y1="-173.356" x2="511.334" y2="111.706" gradientUnits="userSpaceOnUse">
      <stop offset="0.37" stop-color="#393F46"></stop>
      <stop offset="0.4" stop-color="#62676C"></stop>
      <stop offset="0.43" stop-color="#888B90"></stop>
      <stop offset="0.47" stop-color="#A8ABAE"></stop>
      <stop offset="0.51" stop-color="#C4C5C7"></stop>
      <stop offset="0.55" stop-color="#DADBDC"></stop>
      <stop offset="0.6" stop-color="#EBEBEC"></stop>
      <stop offset="0.67" stop-color="#F6F7F7"></stop>
      <stop offset="0.75" stop-color="#FDFDFD"></stop>
      <stop offset="1" stop-color="white"></stop>
    </linearGradient>
    <linearGradient id="paint1_linear_536_3463" x1="183.5" y1="-198" x2="183.5" y2="330" gradientUnits="userSpaceOnUse">
      <stop stop-color="#3B5276"></stop>
      <stop offset="0.02" stop-color="#4E5174"></stop>
      <stop offset="0.07" stop-color="#725070"></stop>
      <stop offset="0.13" stop-color="#924E6D"></stop>
      <stop offset="0.19" stop-color="#AE4D6A"></stop>
      <stop offset="0.27" stop-color="#C44D68"></stop>
      <stop offset="0.35" stop-color="#D54C66"></stop>
      <stop offset="0.45" stop-color="#E04B65"></stop>
      <stop offset="0.6" stop-color="#E74B64"></stop>
      <stop offset="1" stop-color="#E94B64"></stop>
    </linearGradient>
    <linearGradient id="paint2_linear_536_3463" x1="-143.664" y1="-173.356" x2="511.327" y2="111.733" gradientUnits="userSpaceOnUse">
      <stop offset="0.37" stop-color="#3B5276"></stop>
      <stop offset="0.4" stop-color="#647692"></stop>
      <stop offset="0.43" stop-color="#8896AC"></stop>
      <stop offset="0.47" stop-color="#A8B3C2"></stop>
      <stop offset="0.51" stop-color="#C4CBD5"></stop>
      <stop offset="0.55" stop-color="#DADEE5"></stop>
      <stop offset="0.6" stop-color="#EBEDF1"></stop>
      <stop offset="0.66" stop-color="#F6F7F9"></stop>
      <stop offset="0.75" stop-color="#FDFDFE"></stop>
      <stop offset="1" stop-color="white"></stop>
    </linearGradient>
    <linearGradient id="paint3_linear_536_3463" x1="-65" y1="65.9772" x2="432" y2="65.9772" gradientUnits="userSpaceOnUse">
      <stop offset="0.03" stop-color="#3B5276"></stop>
      <stop offset="0.1" stop-color="#394B66"></stop>
      <stop offset="0.21" stop-color="#364355"></stop>
      <stop offset="0.35" stop-color="#343D49"></stop>
      <stop offset="0.53" stop-color="#333A42"></stop>
      <stop offset="1" stop-color="#333940"></stop>
    </linearGradient>
    <linearGradient id="paint4_linear_536_3463" x1="177.476" y1="273.313" x2="177.476" y2="250.329" gradientUnits="userSpaceOnUse">
      <stop stop-color="white"></stop>
      <stop offset="1" stop-color="#231F20"></stop>
    </linearGradient>
    <clipPath id="clip0_536_3463">
      <rect width="226.333" height="330" fill="white"></rect>
    </clipPath>
  </defs>
</svg>
