<?xml version="1.0" encoding="UTF-8"?>
<svg xmlns="http://www.w3.org/2000/svg" width="227" height="330" viewBox="0 0 227 330" fill="none">
  <g clip-path="url(#clip0_536_3488)">
    <rect width="226.333" height="330" transform="translate(0.666016)" fill="#EEF0ED"></rect>
    <path d="M226.666 40L226.666 0L186.666 0L226.666 40Z" fill="#FBFDFA"></path>
    <path d="M114.55 127.598L124.299 137.347L124.299 127.598L114.55 127.598Z" fill="#6C7648"></path>
    <path d="M130.284 125.718H116.497L123.391 118.824L130.284 125.718Z" fill="#6C7648"></path>
    <path d="M110.786 125.718H96.9991L103.893 118.824L110.786 125.718Z" fill="#6C7648"></path>
    <path d="M106.816 118.893L120.602 118.893L113.709 125.787L106.816 118.893Z" fill="#6C7648"></path>
    <path d="M102.849 127.598L102.849 137.347L112.598 127.598L102.849 127.598Z" fill="#6C7648"></path>
    <path d="M54.331 192V173.8H58.283L64.913 184.59L62.079 184.564L68.787 173.8H72.583V192H68.293V186.332C68.293 184.772 68.3276 183.368 68.397 182.12C68.4836 180.872 68.6223 179.633 68.813 178.402L69.307 179.754L64.263 187.58H62.547L57.607 179.806L58.101 178.402C58.2916 179.563 58.4216 180.759 58.491 181.99C58.5776 183.203 58.621 184.651 58.621 186.332V192H54.331ZM81.8111 192.234C80.6498 192.234 79.6098 191.931 78.6911 191.324C77.7898 190.7 77.0705 189.851 76.5331 188.776C75.9958 187.684 75.7271 186.453 75.7271 185.084C75.7271 183.68 75.9958 182.441 76.5331 181.366C77.0705 180.291 77.8071 179.451 78.7431 178.844C79.6791 178.22 80.7451 177.908 81.9411 177.908C82.5998 177.908 83.1978 178.003 83.7351 178.194C84.2898 178.385 84.7751 178.653 85.1911 179C85.6071 179.329 85.9625 179.719 86.2571 180.17C86.5518 180.603 86.7685 181.071 86.9071 181.574L86.0491 181.47V178.194H90.1831V192H85.9711V188.672L86.9071 188.646C86.7685 189.131 86.5431 189.591 86.2311 190.024C85.9191 190.457 85.5378 190.839 85.0871 191.168C84.6365 191.497 84.1338 191.757 83.5791 191.948C83.0245 192.139 82.4351 192.234 81.8111 192.234ZM82.9551 188.724C83.5965 188.724 84.1511 188.577 84.6191 188.282C85.0871 187.987 85.4511 187.571 85.7111 187.034C85.9711 186.479 86.1011 185.829 86.1011 185.084C86.1011 184.339 85.9711 183.697 85.7111 183.16C85.4511 182.605 85.0871 182.181 84.6191 181.886C84.1511 181.574 83.5965 181.418 82.9551 181.418C82.3311 181.418 81.7851 181.574 81.3171 181.886C80.8665 182.181 80.5111 182.605 80.2511 183.16C79.9911 183.697 79.8611 184.339 79.8611 185.084C79.8611 185.829 79.9911 186.479 80.2511 187.034C80.5111 187.571 80.8665 187.987 81.3171 188.282C81.7851 188.577 82.3311 188.724 82.9551 188.724ZM93.8538 192V178.194H97.8058L97.9358 181.002L97.1038 181.314C97.2945 180.69 97.6325 180.127 98.1178 179.624C98.6205 179.104 99.2185 178.688 99.9118 178.376C100.605 178.064 101.333 177.908 102.096 177.908C103.136 177.908 104.011 178.125 104.722 178.558C105.432 178.974 105.97 179.607 106.334 180.456C106.698 181.288 106.88 182.311 106.88 183.524V192H102.694V183.862C102.694 183.307 102.616 182.848 102.46 182.484C102.304 182.12 102.061 181.851 101.732 181.678C101.42 181.487 101.03 181.401 100.562 181.418C100.198 181.418 99.8598 181.479 99.5478 181.6C99.2358 181.704 98.9671 181.869 98.7418 182.094C98.5165 182.302 98.3345 182.545 98.1958 182.822C98.0745 183.099 98.0138 183.403 98.0138 183.732V192H95.9598C95.4745 192 95.0585 192 94.7118 192C94.3651 192 94.0791 192 93.8538 192ZM115.454 192.234C114.292 192.234 113.252 191.931 112.334 191.324C111.432 190.7 110.713 189.851 110.176 188.776C109.638 187.684 109.37 186.453 109.37 185.084C109.37 183.68 109.638 182.441 110.176 181.366C110.713 180.291 111.45 179.451 112.386 178.844C113.322 178.22 114.388 177.908 115.584 177.908C116.242 177.908 116.84 178.003 117.378 178.194C117.932 178.385 118.418 178.653 118.834 179C119.25 179.329 119.605 179.719 119.9 180.17C120.194 180.603 120.411 181.071 120.55 181.574L119.692 181.47V178.194H123.826V192H119.614V188.672L120.55 188.646C120.411 189.131 120.186 189.591 119.874 190.024C119.562 190.457 119.18 190.839 118.73 191.168C118.279 191.497 117.776 191.757 117.222 191.948C116.667 192.139 116.078 192.234 115.454 192.234ZM116.598 188.724C117.239 188.724 117.794 188.577 118.262 188.282C118.73 187.987 119.094 187.571 119.354 187.034C119.614 186.479 119.744 185.829 119.744 185.084C119.744 184.339 119.614 183.697 119.354 183.16C119.094 182.605 118.73 182.181 118.262 181.886C117.794 181.574 117.239 181.418 116.598 181.418C115.974 181.418 115.428 181.574 114.96 181.886C114.509 182.181 114.154 182.605 113.894 183.16C113.634 183.697 113.504 184.339 113.504 185.084C113.504 185.829 113.634 186.479 113.894 187.034C114.154 187.571 114.509 187.987 114.96 188.282C115.428 188.577 115.974 188.724 116.598 188.724ZM133.814 197.98C132.688 197.98 131.561 197.815 130.434 197.486C129.325 197.157 128.424 196.732 127.73 196.212L129.186 193.3C129.55 193.543 129.949 193.751 130.382 193.924C130.833 194.115 131.301 194.262 131.786 194.366C132.272 194.47 132.766 194.522 133.268 194.522C134.152 194.522 134.872 194.392 135.426 194.132C135.981 193.872 136.397 193.473 136.674 192.936C136.952 192.416 137.09 191.757 137.09 190.96V188.646L137.896 188.776C137.775 189.348 137.472 189.868 136.986 190.336C136.518 190.804 135.938 191.185 135.244 191.48C134.551 191.757 133.814 191.896 133.034 191.896C131.786 191.896 130.668 191.61 129.68 191.038C128.71 190.449 127.938 189.643 127.366 188.62C126.812 187.58 126.534 186.384 126.534 185.032C126.534 183.645 126.812 182.423 127.366 181.366C127.921 180.291 128.684 179.451 129.654 178.844C130.625 178.22 131.717 177.908 132.93 177.908C133.45 177.908 133.944 177.969 134.412 178.09C134.898 178.211 135.34 178.376 135.738 178.584C136.154 178.775 136.518 179.009 136.83 179.286C137.16 179.546 137.42 179.832 137.61 180.144C137.818 180.456 137.957 180.777 138.026 181.106L137.168 181.314L137.324 178.194H141.276V190.882C141.276 192.009 141.103 193.005 140.756 193.872C140.427 194.756 139.933 195.501 139.274 196.108C138.633 196.732 137.853 197.2 136.934 197.512C136.016 197.824 134.976 197.98 133.814 197.98ZM133.918 188.672C134.594 188.672 135.175 188.525 135.66 188.23C136.163 187.918 136.544 187.493 136.804 186.956C137.082 186.419 137.22 185.786 137.22 185.058C137.22 184.33 137.082 183.697 136.804 183.16C136.544 182.605 136.163 182.181 135.66 181.886C135.175 181.574 134.594 181.418 133.918 181.418C133.26 181.418 132.688 181.574 132.202 181.886C131.717 182.181 131.336 182.605 131.058 183.16C130.798 183.697 130.668 184.33 130.668 185.058C130.668 185.786 130.798 186.419 131.058 186.956C131.336 187.493 131.717 187.918 132.202 188.23C132.688 188.525 133.26 188.672 133.918 188.672ZM151.467 192.26C149.942 192.26 148.616 191.957 147.489 191.35C146.362 190.726 145.487 189.885 144.863 188.828C144.239 187.753 143.927 186.531 143.927 185.162C143.927 184.105 144.1 183.134 144.447 182.25C144.794 181.366 145.279 180.603 145.903 179.962C146.527 179.303 147.264 178.801 148.113 178.454C148.98 178.09 149.924 177.908 150.947 177.908C151.918 177.908 152.802 178.081 153.599 178.428C154.414 178.775 155.116 179.26 155.705 179.884C156.294 180.508 156.745 181.245 157.057 182.094C157.369 182.943 157.508 183.871 157.473 184.876L157.447 185.994H146.449L145.851 183.654H154.067L153.625 184.148V183.628C153.59 183.195 153.452 182.813 153.209 182.484C152.984 182.137 152.68 181.869 152.299 181.678C151.918 181.487 151.484 181.392 150.999 181.392C150.323 181.392 149.742 181.531 149.257 181.808C148.789 182.068 148.434 182.458 148.191 182.978C147.948 183.481 147.827 184.105 147.827 184.85C147.827 185.613 147.983 186.28 148.295 186.852C148.624 187.407 149.092 187.84 149.699 188.152C150.323 188.464 151.06 188.62 151.909 188.62C152.498 188.62 153.018 188.533 153.469 188.36C153.937 188.187 154.44 187.892 154.977 187.476L156.927 190.232C156.39 190.7 155.818 191.081 155.211 191.376C154.604 191.671 153.98 191.887 153.339 192.026C152.715 192.182 152.091 192.26 151.467 192.26ZM165.349 192.286C164.153 192.286 163.087 191.983 162.151 191.376C161.233 190.752 160.505 189.903 159.967 188.828C159.43 187.736 159.161 186.497 159.161 185.11C159.161 183.723 159.43 182.493 159.967 181.418C160.505 180.326 161.241 179.468 162.177 178.844C163.113 178.22 164.188 177.908 165.401 177.908C166.025 177.908 166.623 178.003 167.195 178.194C167.767 178.385 168.287 178.645 168.755 178.974C169.223 179.303 169.605 179.685 169.899 180.118C170.194 180.534 170.367 180.967 170.419 181.418L169.431 181.652V172.76H173.617V192H169.743L169.509 188.854L170.341 188.984C170.289 189.417 170.116 189.833 169.821 190.232C169.544 190.631 169.18 190.986 168.729 191.298C168.279 191.593 167.759 191.827 167.169 192C166.597 192.191 165.991 192.286 165.349 192.286ZM166.415 188.828C167.057 188.828 167.611 188.672 168.079 188.36C168.547 188.048 168.903 187.615 169.145 187.06C169.405 186.505 169.535 185.855 169.535 185.11C169.535 184.347 169.405 183.689 169.145 183.134C168.903 182.579 168.547 182.146 168.079 181.834C167.611 181.522 167.057 181.366 166.415 181.366C165.774 181.366 165.219 181.522 164.751 181.834C164.301 182.146 163.945 182.579 163.685 183.134C163.425 183.689 163.295 184.347 163.295 185.11C163.295 185.855 163.425 186.505 163.685 187.06C163.945 187.615 164.301 188.048 164.751 188.36C165.219 188.672 165.774 188.828 166.415 188.828ZM66.4059 225.26C65.2099 225.26 64.1266 225.121 63.1559 224.844C62.2026 224.549 61.3533 224.133 60.6079 223.596C59.8626 223.041 59.1953 222.391 58.6059 221.646L61.2839 218.604C62.1506 219.765 63.0173 220.545 63.8839 220.944C64.7679 221.343 65.6779 221.542 66.6139 221.542C67.0819 221.542 67.5066 221.481 67.8879 221.36C68.2693 221.239 68.5639 221.065 68.7719 220.84C68.9799 220.597 69.0839 220.303 69.0839 219.956C69.0839 219.696 69.0146 219.462 68.8759 219.254C68.7546 219.046 68.5813 218.864 68.3559 218.708C68.1306 218.552 67.8619 218.413 67.5499 218.292C67.2379 218.153 66.9086 218.041 66.5619 217.954C66.2153 217.85 65.8599 217.763 65.4959 217.694C64.4906 217.469 63.6153 217.191 62.8699 216.862C62.1246 216.533 61.5006 216.134 60.9979 215.666C60.5126 215.181 60.1486 214.635 59.9059 214.028C59.6633 213.404 59.5419 212.711 59.5419 211.948C59.5419 211.133 59.7239 210.388 60.0879 209.712C60.4693 209.019 60.9719 208.429 61.5959 207.944C62.2373 207.441 62.9739 207.06 63.8059 206.8C64.6379 206.523 65.5046 206.384 66.4059 206.384C67.6019 206.384 68.6246 206.514 69.4739 206.774C70.3406 207.017 71.0773 207.372 71.6839 207.84C72.3079 208.308 72.8366 208.871 73.2699 209.53L70.5399 212.156C70.1759 211.705 69.7773 211.333 69.3439 211.038C68.9279 210.743 68.4773 210.518 67.9919 210.362C67.5239 210.206 67.0386 210.128 66.5359 210.128C66.0159 210.128 65.5653 210.197 65.1839 210.336C64.8199 210.457 64.5339 210.639 64.3259 210.882C64.1179 211.107 64.0139 211.385 64.0139 211.714C64.0139 212.009 64.1006 212.26 64.2739 212.468C64.4473 212.676 64.6813 212.867 64.9759 213.04C65.2706 213.196 65.6086 213.335 65.9899 213.456C66.3713 213.56 66.7699 213.647 67.1859 213.716C68.1393 213.907 68.9973 214.158 69.7599 214.47C70.5399 214.782 71.2073 215.163 71.7619 215.614C72.3339 216.065 72.7673 216.602 73.0619 217.226C73.3739 217.833 73.5299 218.543 73.5299 219.358C73.5299 220.623 73.2179 221.698 72.5939 222.582C71.9873 223.449 71.1466 224.116 70.0719 224.584C69.0146 225.035 67.7926 225.26 66.4059 225.26ZM82.9885 225.26C81.4631 225.26 80.1371 224.957 79.0105 224.35C77.8838 223.726 77.0085 222.885 76.3845 221.828C75.7605 220.753 75.4485 219.531 75.4485 218.162C75.4485 217.105 75.6218 216.134 75.9685 215.25C76.3151 214.366 76.8005 213.603 77.4245 212.962C78.0485 212.303 78.7851 211.801 79.6345 211.454C80.5011 211.09 81.4458 210.908 82.4685 210.908C83.4391 210.908 84.3231 211.081 85.1205 211.428C85.9351 211.775 86.6371 212.26 87.2265 212.884C87.8158 213.508 88.2665 214.245 88.5785 215.094C88.8905 215.943 89.0291 216.871 88.9945 217.876L88.9685 218.994H77.9705L77.3725 216.654H85.5885L85.1465 217.148V216.628C85.1118 216.195 84.9731 215.813 84.7305 215.484C84.5051 215.137 84.2018 214.869 83.8205 214.678C83.4391 214.487 83.0058 214.392 82.5205 214.392C81.8445 214.392 81.2638 214.531 80.7785 214.808C80.3105 215.068 79.9551 215.458 79.7125 215.978C79.4698 216.481 79.3485 217.105 79.3485 217.85C79.3485 218.613 79.5045 219.28 79.8165 219.852C80.1458 220.407 80.6138 220.84 81.2205 221.152C81.8445 221.464 82.5811 221.62 83.4305 221.62C84.0198 221.62 84.5398 221.533 84.9905 221.36C85.4585 221.187 85.9611 220.892 86.4985 220.476L88.4485 223.232C87.9111 223.7 87.3391 224.081 86.7325 224.376C86.1258 224.671 85.5018 224.887 84.8605 225.026C84.2365 225.182 83.6125 225.26 82.9885 225.26ZM91.6448 225V211.194H95.5968L95.7788 215.692L94.9988 214.834C95.2068 214.089 95.5448 213.421 96.0128 212.832C96.4982 212.243 97.0615 211.775 97.7028 211.428C98.3442 211.081 99.0288 210.908 99.7568 210.908C100.069 210.908 100.355 210.934 100.615 210.986C100.892 211.038 101.143 211.099 101.369 211.168L100.225 215.77C100.034 215.649 99.7742 215.553 99.4448 215.484C99.1328 215.397 98.8035 215.354 98.4568 215.354C98.0755 215.354 97.7202 215.423 97.3908 215.562C97.0615 215.683 96.7842 215.865 96.5588 216.108C96.3335 216.351 96.1515 216.637 96.0128 216.966C95.8915 217.295 95.8308 217.668 95.8308 218.084V225H91.6448ZM109.01 225L103.238 211.194H107.84L111.272 221.516L110.258 221.62L113.794 211.194H118.344L112.286 225H109.01ZM120.748 225V211.194H124.908V225H120.748ZM122.828 208.464C122.048 208.464 121.433 208.282 120.982 207.918C120.549 207.537 120.332 206.999 120.332 206.306C120.332 205.682 120.557 205.171 121.008 204.772C121.459 204.373 122.065 204.174 122.828 204.174C123.608 204.174 124.215 204.365 124.648 204.746C125.081 205.11 125.298 205.63 125.298 206.306C125.298 206.947 125.073 207.467 124.622 207.866C124.189 208.265 123.591 208.464 122.828 208.464ZM134.875 225.26C133.54 225.26 132.344 224.948 131.287 224.324C130.229 223.7 129.389 222.851 128.765 221.776C128.158 220.684 127.855 219.453 127.855 218.084C127.855 216.715 128.158 215.493 128.765 214.418C129.389 213.326 130.229 212.468 131.287 211.844C132.344 211.22 133.54 210.908 134.875 210.908C136.105 210.908 137.232 211.125 138.255 211.558C139.295 211.991 140.118 212.598 140.725 213.378L138.463 216.082C138.22 215.805 137.934 215.545 137.605 215.302C137.275 215.059 136.911 214.869 136.513 214.73C136.114 214.591 135.698 214.522 135.265 214.522C134.606 214.522 134.025 214.678 133.523 214.99C133.02 215.285 132.63 215.701 132.353 216.238C132.075 216.775 131.937 217.391 131.937 218.084C131.937 218.743 132.075 219.341 132.353 219.878C132.647 220.415 133.046 220.84 133.549 221.152C134.051 221.464 134.623 221.62 135.265 221.62C135.715 221.62 136.131 221.568 136.513 221.464C136.894 221.343 137.241 221.169 137.553 220.944C137.882 220.719 138.185 220.441 138.463 220.112L140.699 222.842C140.109 223.587 139.286 224.177 138.229 224.61C137.189 225.043 136.071 225.26 134.875 225.26ZM149.563 225.26C148.037 225.26 146.711 224.957 145.585 224.35C144.458 223.726 143.583 222.885 142.959 221.828C142.335 220.753 142.023 219.531 142.023 218.162C142.023 217.105 142.196 216.134 142.543 215.25C142.889 214.366 143.375 213.603 143.999 212.962C144.623 212.303 145.359 211.801 146.209 211.454C147.075 211.09 148.02 210.908 149.043 210.908C150.013 210.908 150.897 211.081 151.695 211.428C152.509 211.775 153.211 212.26 153.801 212.884C154.39 213.508 154.841 214.245 155.153 215.094C155.465 215.943 155.603 216.871 155.569 217.876L155.543 218.994H144.545L143.947 216.654H152.163L151.721 217.148V216.628C151.686 216.195 151.547 215.813 151.305 215.484C151.079 215.137 150.776 214.869 150.395 214.678C150.013 214.487 149.58 214.392 149.095 214.392C148.419 214.392 147.838 214.531 147.353 214.808C146.885 215.068 146.529 215.458 146.287 215.978C146.044 216.481 145.923 217.105 145.923 217.85C145.923 218.613 146.079 219.28 146.391 219.852C146.72 220.407 147.188 220.84 147.795 221.152C148.419 221.464 149.155 221.62 150.005 221.62C150.594 221.62 151.114 221.533 151.565 221.36C152.033 221.187 152.535 220.892 153.073 220.476L155.023 223.232C154.485 223.7 153.913 224.081 153.307 224.376C152.7 224.671 152.076 224.887 151.435 225.026C150.811 225.182 150.187 225.26 149.563 225.26ZM162.873 225.26C161.521 225.26 160.325 225.043 159.285 224.61C158.262 224.177 157.448 223.596 156.841 222.868L159.363 220.684C159.9 221.221 160.507 221.62 161.183 221.88C161.859 222.123 162.5 222.244 163.107 222.244C163.35 222.244 163.566 222.218 163.757 222.166C163.948 222.114 164.104 222.045 164.225 221.958C164.364 221.854 164.468 221.741 164.537 221.62C164.606 221.481 164.641 221.325 164.641 221.152C164.641 220.805 164.485 220.537 164.173 220.346C164.017 220.259 163.757 220.155 163.393 220.034C163.029 219.913 162.561 219.774 161.989 219.618C161.174 219.41 160.464 219.167 159.857 218.89C159.268 218.595 158.782 218.257 158.401 217.876C158.054 217.512 157.786 217.113 157.595 216.68C157.404 216.229 157.309 215.727 157.309 215.172C157.309 214.531 157.456 213.95 157.751 213.43C158.063 212.91 158.47 212.459 158.973 212.078C159.493 211.697 160.082 211.411 160.741 211.22C161.417 211.012 162.11 210.908 162.821 210.908C163.584 210.908 164.312 210.995 165.005 211.168C165.698 211.341 166.34 211.584 166.929 211.896C167.536 212.208 168.073 212.581 168.541 213.014L166.357 215.458C166.045 215.163 165.69 214.903 165.291 214.678C164.91 214.435 164.511 214.245 164.095 214.106C163.679 213.967 163.298 213.898 162.951 213.898C162.691 213.898 162.457 213.924 162.249 213.976C162.058 214.011 161.894 214.08 161.755 214.184C161.616 214.271 161.512 214.383 161.443 214.522C161.374 214.643 161.339 214.791 161.339 214.964C161.339 215.137 161.382 215.302 161.469 215.458C161.573 215.614 161.712 215.744 161.885 215.848C162.058 215.952 162.336 216.073 162.717 216.212C163.098 216.333 163.618 216.489 164.277 216.68C165.092 216.905 165.794 217.157 166.383 217.434C166.972 217.711 167.44 218.041 167.787 218.422C168.064 218.717 168.272 219.063 168.411 219.462C168.55 219.843 168.619 220.259 168.619 220.71C168.619 221.594 168.368 222.383 167.865 223.076C167.38 223.752 166.704 224.289 165.837 224.688C164.97 225.069 163.982 225.26 162.873 225.26Z" fill="#1A1A1A"></path>
    <g style="mix-blend-mode:luminosity" opacity="0.06">
      <path d="M432.993 237.847H362.558V237.854L397.772 283.163H397.779L433 237.854L432.993 237.847Z" fill="#3B5276"></path>
      <path d="M57.2452 174.001L117.861 251.991H117.875L178.484 174.001L178.477 173.995H57.252L57.2452 174.001Z" fill="#3B5276"></path>
      <path d="M239.106 251.991L178.49 174.001L117.881 251.991H239.106Z" fill="url(#paint0_linear_536_3488)" style="mix-blend-mode:multiply"></path>
      <path d="M178.477 329.986H178.491H299.695L239.093 252.011L239.086 251.997L178.477 329.986Z" fill="#D0D9E0"></path>
      <path d="M57.245 -137.996L-3.37079 -60.0001H117.861L57.245 -137.996Z" fill="#333940"></path>
      <path d="M178.47 329.987L178.477 329.986L117.868 251.997L57.2518 329.986L178.456 329.987H178.47Z" fill="#333940"></path>
      <path d="M117.861 -60.0001L117.868 -60L178.484 -137.996L178.477 -138.003H57.252L57.245 -137.996L117.861 -60.0001Z" fill="#FFCA61"></path>
      <path d="M239.113 251.991H360.331L299.722 174.001L239.113 251.991Z" fill="#FFCA61"></path>
      <path d="M299.722 174.001L299.715 173.995L239.106 96.0054L178.49 173.995L178.477 173.995L178.484 174.001L239.099 251.991L117.875 251.991H117.861L57.2452 174.001L-3.36425 251.991H-3.37775L-3.371 251.997L-63.9868 329.987H57.2381L57.2448 330L57.2518 329.986L117.868 251.997L178.476 329.987L239.086 251.997L239.092 252.011L239.106 251.997L239.113 251.991L299.722 174.001Z" fill="#E94B64"></path>
      <path d="M178.477 173.995L178.49 173.995L239.106 95.999L239.1 95.9923H117.875L117.868 95.999L178.477 173.995Z" fill="#D0D9E0"></path>
      <path d="M178.491 329.986H178.477L178.484 330L178.491 329.986Z" fill="#3B5276"></path>
      <path d="M57.2386 173.995L57.2452 174.001L57.252 173.995H57.2386Z" fill="#3B5276"></path>
      <path d="M-63.9933 330L-63.9868 329.987H-64L-63.9933 330Z" fill="#0D2333"></path>
      <path d="M210.526 -155.443L177.451 -198L144.376 -155.443H210.526Z" fill="#3B5276"></path>
      <path d="M178.491 -138.003H178.477L178.484 -137.996L178.491 -138.003Z" fill="#3B5276"></path>
      <path d="M-3.37079 -60.0001L-3.37738 -60.0002L-3.37064 -59.9934L-3.37079 -60.0001Z" fill="#3B5276"></path>
      <path d="M299.728 329.987H299.715L299.721 330L299.728 329.987Z" fill="#3B5276"></path>
      <path d="M360.344 251.997L360.351 251.991L360.331 251.991L360.344 251.997Z" fill="#3B5276"></path>
      <path d="M57.252 -138.003H57.2386L57.245 -137.996L57.252 -138.003Z" fill="#3B5276"></path>
      <path d="M239.107 95.9923H239.1L239.106 95.999L239.107 95.9923Z" fill="#3B5276"></path>
      <path d="M178.477 17.9957H57.2386L57.2454 18.0025L117.861 95.9917L117.868 95.999L117.875 95.9923L178.484 18.0025L178.491 17.9957H178.477Z" fill="#E94B64"></path>
      <path d="M117.868 -59.9934L117.868 -60L117.861 -60.0001L117.868 -59.9934Z" fill="#3B5276"></path>
      <path d="M117.868 -59.9934L117.861 -60.0001H-3.37079L-3.37064 -59.9934L57.2315 17.9823L117.841 -60.0002L178.45 17.989H57.2383L57.2386 17.9957H178.477L117.868 -59.9934Z" fill="#E94B64"></path>
      <path d="M117.841 -60.0002L57.2322 17.9823L57.2255 17.989H178.45L117.841 -60.0002Z" fill="#333940"></path>
      <path d="M57.2253 329.993H57.2388L117.841 252.017L117.828 252.004L117.834 251.997H-3.38381L-3.39056 252.004L57.2253 329.993Z" fill="url(#paint1_linear_536_3488)"></path>
      <path d="M299.695 173.988L239.086 95.9988L178.477 173.988H299.695Z" fill="url(#paint2_linear_536_3488)" style="mix-blend-mode:multiply"></path>
      <path d="M299.722 173.995H178.497L239.113 251.984L299.722 173.995Z" fill="url(#paint3_linear_536_3488)"></path>
      <path d="M197.136 9.38345L160.754 56.1998H233.524L197.136 9.38345Z" fill="#FFCA61"></path>
      <path d="M117.84 251.991H239.112L226.101 268.738H130.48L117.84 251.991Z" fill="url(#paint4_linear_536_3488)" style="mix-blend-mode:multiply"></path>
    </g>
  </g>
  <defs>
    <linearGradient id="paint0_linear_536_3488" x1="-142.632" y1="-173.356" x2="512.334" y2="111.706" gradientUnits="userSpaceOnUse">
      <stop offset="0.37" stop-color="#393F46"></stop>
      <stop offset="0.4" stop-color="#62676C"></stop>
      <stop offset="0.43" stop-color="#888B90"></stop>
      <stop offset="0.47" stop-color="#A8ABAE"></stop>
      <stop offset="0.51" stop-color="#C4C5C7"></stop>
      <stop offset="0.55" stop-color="#DADBDC"></stop>
      <stop offset="0.6" stop-color="#EBEBEC"></stop>
      <stop offset="0.67" stop-color="#F6F7F7"></stop>
      <stop offset="0.75" stop-color="#FDFDFD"></stop>
      <stop offset="1" stop-color="white"></stop>
    </linearGradient>
    <linearGradient id="paint1_linear_536_3488" x1="184.5" y1="-198" x2="184.5" y2="330" gradientUnits="userSpaceOnUse">
      <stop stop-color="#3B5276"></stop>
      <stop offset="0.02" stop-color="#4E5174"></stop>
      <stop offset="0.07" stop-color="#725070"></stop>
      <stop offset="0.13" stop-color="#924E6D"></stop>
      <stop offset="0.19" stop-color="#AE4D6A"></stop>
      <stop offset="0.27" stop-color="#C44D68"></stop>
      <stop offset="0.35" stop-color="#D54C66"></stop>
      <stop offset="0.45" stop-color="#E04B65"></stop>
      <stop offset="0.6" stop-color="#E74B64"></stop>
      <stop offset="1" stop-color="#E94B64"></stop>
    </linearGradient>
    <linearGradient id="paint2_linear_536_3488" x1="-142.664" y1="-173.356" x2="512.327" y2="111.733" gradientUnits="userSpaceOnUse">
      <stop offset="0.37" stop-color="#3B5276"></stop>
      <stop offset="0.4" stop-color="#647692"></stop>
      <stop offset="0.43" stop-color="#8896AC"></stop>
      <stop offset="0.47" stop-color="#A8B3C2"></stop>
      <stop offset="0.51" stop-color="#C4CBD5"></stop>
      <stop offset="0.55" stop-color="#DADEE5"></stop>
      <stop offset="0.6" stop-color="#EBEDF1"></stop>
      <stop offset="0.66" stop-color="#F6F7F9"></stop>
      <stop offset="0.75" stop-color="#FDFDFE"></stop>
      <stop offset="1" stop-color="white"></stop>
    </linearGradient>
    <linearGradient id="paint3_linear_536_3488" x1="-64" y1="65.9772" x2="433" y2="65.9772" gradientUnits="userSpaceOnUse">
      <stop offset="0.03" stop-color="#3B5276"></stop>
      <stop offset="0.1" stop-color="#394B66"></stop>
      <stop offset="0.21" stop-color="#364355"></stop>
      <stop offset="0.35" stop-color="#343D49"></stop>
      <stop offset="0.53" stop-color="#333A42"></stop>
      <stop offset="1" stop-color="#333940"></stop>
    </linearGradient>
    <linearGradient id="paint4_linear_536_3488" x1="178.476" y1="273.313" x2="178.476" y2="250.329" gradientUnits="userSpaceOnUse">
      <stop stop-color="white"></stop>
      <stop offset="1" stop-color="#231F20"></stop>
    </linearGradient>
    <clipPath id="clip0_536_3488">
      <rect width="226.333" height="330" fill="white" transform="translate(0.666016)"></rect>
    </clipPath>
  </defs>
</svg>
