<?xml version="1.0" encoding="UTF-8"?>
<svg xmlns="http://www.w3.org/2000/svg" width="227" height="330" viewBox="0 0 227 330" fill="none">
  <g clip-path="url(#clip0_536_3463)">
    <rect width="226.333" height="330" fill="#EEF0ED"></rect>
    <path d="M226 40L226 0L186 0L226 40Z" fill="#FBFDFA"></path>
    <path d="M103.789 120.711L93 131.5V120.711H103.789Z" fill="#6C7648"></path>
    <path d="M133.996 120.711L133.996 131.5L123.207 120.711H133.996Z" fill="#6C7648"></path>
    <path d="M113.576 128.417L105.947 120.788L121.205 120.788L113.576 128.417Z" fill="#6C7648"></path>
    <path d="M113.578 111L121.208 118.629L105.949 118.629L113.578 111Z" fill="#6C7648"></path>
    <path d="M122.202 122.869L129.831 130.498L114.572 130.498L122.202 122.869Z" fill="#6C7648"></path>
    <path d="M104.946 122.869L112.575 130.498L97.3164 130.498L104.946 122.869Z" fill="#6C7648"></path>
    <path d="M51.0243 192V173.8H58.6423C59.977 173.8 61.199 174.025 62.3083 174.476C63.4177 174.909 64.371 175.533 65.1683 176.348C65.983 177.163 66.607 178.125 67.0403 179.234C67.4737 180.343 67.6903 181.565 67.6903 182.9C67.6903 184.235 67.4737 185.465 67.0403 186.592C66.607 187.701 65.983 188.663 65.1683 189.478C64.371 190.275 63.4177 190.899 62.3083 191.35C61.199 191.783 59.977 192 58.6423 192H51.0243ZM55.4443 188.984L54.8463 188.1H58.5123C59.2403 188.1 59.8903 187.979 60.4623 187.736C61.0343 187.476 61.5197 187.121 61.9183 186.67C62.3343 186.219 62.655 185.673 62.8803 185.032C63.1057 184.391 63.2183 183.68 63.2183 182.9C63.2183 182.12 63.1057 181.409 62.8803 180.768C62.655 180.127 62.3343 179.581 61.9183 179.13C61.5197 178.679 61.0343 178.333 60.4623 178.09C59.8903 177.83 59.2403 177.7 58.5123 177.7H54.7683L55.4443 176.868V188.984ZM77.2443 192.26C75.719 192.26 74.393 191.957 73.2663 191.35C72.1396 190.726 71.2643 189.885 70.6403 188.828C70.0163 187.753 69.7043 186.531 69.7043 185.162C69.7043 184.105 69.8776 183.134 70.2243 182.25C70.571 181.366 71.0563 180.603 71.6803 179.962C72.3043 179.303 73.041 178.801 73.8903 178.454C74.757 178.09 75.7016 177.908 76.7243 177.908C77.695 177.908 78.579 178.081 79.3763 178.428C80.191 178.775 80.893 179.26 81.4823 179.884C82.0716 180.508 82.5223 181.245 82.8343 182.094C83.1463 182.943 83.285 183.871 83.2503 184.876L83.2243 185.994H72.2263L71.6283 183.654H79.8443L79.4023 184.148V183.628C79.3676 183.195 79.229 182.813 78.9863 182.484C78.761 182.137 78.4576 181.869 78.0763 181.678C77.695 181.487 77.2616 181.392 76.7763 181.392C76.1003 181.392 75.5196 181.531 75.0343 181.808C74.5663 182.068 74.211 182.458 73.9683 182.978C73.7256 183.481 73.6043 184.105 73.6043 184.85C73.6043 185.613 73.7603 186.28 74.0723 186.852C74.4016 187.407 74.8696 187.84 75.4763 188.152C76.1003 188.464 76.837 188.62 77.6863 188.62C78.2756 188.62 78.7956 188.533 79.2463 188.36C79.7143 188.187 80.217 187.892 80.7543 187.476L82.7043 190.232C82.167 190.7 81.595 191.081 80.9883 191.376C80.3816 191.671 79.7576 191.887 79.1163 192.026C78.4923 192.182 77.8683 192.26 77.2443 192.26ZM86.7587 192V177.518C86.7587 176.617 86.9494 175.802 87.3307 175.074C87.7294 174.346 88.2754 173.774 88.9687 173.358C89.6794 172.925 90.5027 172.708 91.4387 172.708C92.0974 172.708 92.704 172.803 93.2587 172.994C93.8134 173.185 94.3074 173.453 94.7407 173.8L93.5447 176.842C93.3194 176.721 93.1027 176.625 92.8947 176.556C92.6867 176.487 92.496 176.452 92.3227 176.452C92.0107 176.452 91.7507 176.504 91.5427 176.608C91.3347 176.712 91.1787 176.877 91.0747 177.102C90.988 177.31 90.9447 177.57 90.9447 177.882V192H88.8647C88.3967 192 87.9807 192 87.6167 192C87.27 192 86.984 192 86.7587 192ZM84.7567 182.016V178.584H93.7787V182.016H84.7567ZM102.178 192.26C100.653 192.26 99.3266 191.957 98.1999 191.35C97.0732 190.726 96.1979 189.885 95.5739 188.828C94.9499 187.753 94.6379 186.531 94.6379 185.162C94.6379 184.105 94.8112 183.134 95.1579 182.25C95.5046 181.366 95.9899 180.603 96.6139 179.962C97.2379 179.303 97.9746 178.801 98.8239 178.454C99.6906 178.09 100.635 177.908 101.658 177.908C102.629 177.908 103.513 178.081 104.31 178.428C105.125 178.775 105.827 179.26 106.416 179.884C107.005 180.508 107.456 181.245 107.768 182.094C108.08 182.943 108.219 183.871 108.184 184.876L108.158 185.994H97.1599L96.5619 183.654H104.778L104.336 184.148V183.628C104.301 183.195 104.163 182.813 103.92 182.484C103.695 182.137 103.391 181.869 103.01 181.678C102.629 181.487 102.195 181.392 101.71 181.392C101.034 181.392 100.453 181.531 99.9679 181.808C99.4999 182.068 99.1446 182.458 98.9019 182.978C98.6592 183.481 98.5379 184.105 98.5379 184.85C98.5379 185.613 98.6939 186.28 99.0059 186.852C99.3352 187.407 99.8032 187.84 100.41 188.152C101.034 188.464 101.771 188.62 102.62 188.62C103.209 188.62 103.729 188.533 104.18 188.36C104.648 188.187 105.151 187.892 105.688 187.476L107.638 190.232C107.101 190.7 106.529 191.081 105.922 191.376C105.315 191.671 104.691 191.887 104.05 192.026C103.426 192.182 102.802 192.26 102.178 192.26ZM110.834 192V178.194H114.786L114.916 181.002L114.084 181.314C114.275 180.69 114.613 180.127 115.098 179.624C115.601 179.104 116.199 178.688 116.892 178.376C117.586 178.064 118.314 177.908 119.076 177.908C120.116 177.908 120.992 178.125 121.702 178.558C122.413 178.974 122.95 179.607 123.314 180.456C123.678 181.288 123.86 182.311 123.86 183.524V192H119.674V183.862C119.674 183.307 119.596 182.848 119.44 182.484C119.284 182.12 119.042 181.851 118.712 181.678C118.4 181.487 118.01 181.401 117.542 181.418C117.178 181.418 116.84 181.479 116.528 181.6C116.216 181.704 115.948 181.869 115.722 182.094C115.497 182.302 115.315 182.545 115.176 182.822C115.055 183.099 114.994 183.403 114.994 183.732V192H112.94C112.455 192 112.039 192 111.692 192C111.346 192 111.06 192 110.834 192ZM131.992 192.26C130.64 192.26 129.444 192.043 128.404 191.61C127.382 191.177 126.567 190.596 125.96 189.868L128.482 187.684C129.02 188.221 129.626 188.62 130.302 188.88C130.978 189.123 131.62 189.244 132.226 189.244C132.469 189.244 132.686 189.218 132.876 189.166C133.067 189.114 133.223 189.045 133.344 188.958C133.483 188.854 133.587 188.741 133.656 188.62C133.726 188.481 133.76 188.325 133.76 188.152C133.76 187.805 133.604 187.537 133.292 187.346C133.136 187.259 132.876 187.155 132.512 187.034C132.148 186.913 131.68 186.774 131.108 186.618C130.294 186.41 129.583 186.167 128.976 185.89C128.387 185.595 127.902 185.257 127.52 184.876C127.174 184.512 126.905 184.113 126.714 183.68C126.524 183.229 126.428 182.727 126.428 182.172C126.428 181.531 126.576 180.95 126.87 180.43C127.182 179.91 127.59 179.459 128.092 179.078C128.612 178.697 129.202 178.411 129.86 178.22C130.536 178.012 131.23 177.908 131.94 177.908C132.703 177.908 133.431 177.995 134.124 178.168C134.818 178.341 135.459 178.584 136.048 178.896C136.655 179.208 137.192 179.581 137.66 180.014L135.476 182.458C135.164 182.163 134.809 181.903 134.41 181.678C134.029 181.435 133.63 181.245 133.214 181.106C132.798 180.967 132.417 180.898 132.07 180.898C131.81 180.898 131.576 180.924 131.368 180.976C131.178 181.011 131.013 181.08 130.874 181.184C130.736 181.271 130.632 181.383 130.562 181.522C130.493 181.643 130.458 181.791 130.458 181.964C130.458 182.137 130.502 182.302 130.588 182.458C130.692 182.614 130.831 182.744 131.004 182.848C131.178 182.952 131.455 183.073 131.836 183.212C132.218 183.333 132.738 183.489 133.396 183.68C134.211 183.905 134.913 184.157 135.502 184.434C136.092 184.711 136.56 185.041 136.906 185.422C137.184 185.717 137.392 186.063 137.53 186.462C137.669 186.843 137.738 187.259 137.738 187.71C137.738 188.594 137.487 189.383 136.984 190.076C136.499 190.752 135.823 191.289 134.956 191.688C134.09 192.069 133.102 192.26 131.992 192.26ZM140.445 192V178.194H144.605V192H140.445ZM142.525 175.464C141.745 175.464 141.13 175.282 140.679 174.918C140.246 174.537 140.029 173.999 140.029 173.306C140.029 172.682 140.255 172.171 140.705 171.772C141.156 171.373 141.763 171.174 142.525 171.174C143.305 171.174 143.912 171.365 144.345 171.746C144.779 172.11 144.995 172.63 144.995 173.306C144.995 173.947 144.77 174.467 144.319 174.866C143.886 175.265 143.288 175.464 142.525 175.464ZM152.752 192L146.98 178.194H151.582L155.014 188.516L154 188.62L157.536 178.194H162.086L156.028 192H152.752ZM170.453 192.26C168.928 192.26 167.602 191.957 166.475 191.35C165.349 190.726 164.473 189.885 163.849 188.828C163.225 187.753 162.913 186.531 162.913 185.162C162.913 184.105 163.087 183.134 163.433 182.25C163.78 181.366 164.265 180.603 164.889 179.962C165.513 179.303 166.25 178.801 167.099 178.454C167.966 178.09 168.911 177.908 169.933 177.908C170.904 177.908 171.788 178.081 172.585 178.428C173.4 178.775 174.102 179.26 174.691 179.884C175.281 180.508 175.731 181.245 176.043 182.094C176.355 182.943 176.494 183.871 176.459 184.876L176.433 185.994H165.435L164.837 183.654H173.053L172.611 184.148V183.628C172.577 183.195 172.438 182.813 172.195 182.484C171.97 182.137 171.667 181.869 171.285 181.678C170.904 181.487 170.471 181.392 169.985 181.392C169.309 181.392 168.729 181.531 168.243 181.808C167.775 182.068 167.42 182.458 167.177 182.978C166.935 183.481 166.813 184.105 166.813 184.85C166.813 185.613 166.969 186.28 167.281 186.852C167.611 187.407 168.079 187.84 168.685 188.152C169.309 188.464 170.046 188.62 170.895 188.62C171.485 188.62 172.005 188.533 172.455 188.36C172.923 188.187 173.426 187.892 173.963 187.476L175.913 190.232C175.376 190.7 174.804 191.081 174.197 191.376C173.591 191.671 172.967 191.887 172.325 192.026C171.701 192.182 171.077 192.26 170.453 192.26ZM65.7399 225.26C64.5439 225.26 63.4606 225.121 62.4899 224.844C61.5366 224.549 60.6873 224.133 59.9419 223.596C59.1966 223.041 58.5293 222.391 57.9399 221.646L60.6179 218.604C61.4846 219.765 62.3513 220.545 63.2179 220.944C64.1019 221.343 65.0119 221.542 65.9479 221.542C66.4159 221.542 66.8406 221.481 67.2219 221.36C67.6033 221.239 67.8979 221.065 68.1059 220.84C68.3139 220.597 68.4179 220.303 68.4179 219.956C68.4179 219.696 68.3486 219.462 68.2099 219.254C68.0886 219.046 67.9153 218.864 67.6899 218.708C67.4646 218.552 67.1959 218.413 66.8839 218.292C66.5719 218.153 66.2426 218.041 65.8959 217.954C65.5493 217.85 65.1939 217.763 64.8299 217.694C63.8246 217.469 62.9493 217.191 62.2039 216.862C61.4586 216.533 60.8346 216.134 60.3319 215.666C59.8466 215.181 59.4826 214.635 59.2399 214.028C58.9973 213.404 58.8759 212.711 58.8759 211.948C58.8759 211.133 59.0579 210.388 59.4219 209.712C59.8033 209.019 60.3059 208.429 60.9299 207.944C61.5713 207.441 62.3079 207.06 63.1399 206.8C63.9719 206.523 64.8386 206.384 65.7399 206.384C66.9359 206.384 67.9586 206.514 68.8079 206.774C69.6746 207.017 70.4113 207.372 71.0179 207.84C71.6419 208.308 72.1706 208.871 72.6039 209.53L69.8739 212.156C69.5099 211.705 69.1113 211.333 68.6779 211.038C68.2619 210.743 67.8113 210.518 67.3259 210.362C66.8579 210.206 66.3726 210.128 65.8699 210.128C65.3499 210.128 64.8993 210.197 64.5179 210.336C64.1539 210.457 63.8679 210.639 63.6599 210.882C63.4519 211.107 63.3479 211.385 63.3479 211.714C63.3479 212.009 63.4346 212.26 63.6079 212.468C63.7813 212.676 64.0153 212.867 64.3099 213.04C64.6046 213.196 64.9426 213.335 65.3239 213.456C65.7053 213.56 66.1039 213.647 66.5199 213.716C67.4733 213.907 68.3313 214.158 69.0939 214.47C69.8739 214.782 70.5413 215.163 71.0959 215.614C71.6679 216.065 72.1013 216.602 72.3959 217.226C72.7079 217.833 72.8639 218.543 72.8639 219.358C72.8639 220.623 72.5519 221.698 71.9279 222.582C71.3213 223.449 70.4806 224.116 69.4059 224.584C68.3486 225.035 67.1266 225.26 65.7399 225.26ZM82.3224 225.26C80.7971 225.26 79.4711 224.957 78.3444 224.35C77.2178 223.726 76.3424 222.885 75.7184 221.828C75.0944 220.753 74.7824 219.531 74.7824 218.162C74.7824 217.105 74.9558 216.134 75.3024 215.25C75.6491 214.366 76.1344 213.603 76.7584 212.962C77.3824 212.303 78.1191 211.801 78.9684 211.454C79.8351 211.09 80.7798 210.908 81.8024 210.908C82.7731 210.908 83.6571 211.081 84.4544 211.428C85.2691 211.775 85.9711 212.26 86.5604 212.884C87.1498 213.508 87.6004 214.245 87.9124 215.094C88.2244 215.943 88.3631 216.871 88.3284 217.876L88.3024 218.994H77.3044L76.7064 216.654H84.9224L84.4804 217.148V216.628C84.4458 216.195 84.3071 215.813 84.0644 215.484C83.8391 215.137 83.5358 214.869 83.1544 214.678C82.7731 214.487 82.3398 214.392 81.8544 214.392C81.1784 214.392 80.5978 214.531 80.1124 214.808C79.6444 215.068 79.2891 215.458 79.0464 215.978C78.8038 216.481 78.6824 217.105 78.6824 217.85C78.6824 218.613 78.8384 219.28 79.1504 219.852C79.4798 220.407 79.9478 220.84 80.5544 221.152C81.1784 221.464 81.9151 221.62 82.7644 221.62C83.3538 221.62 83.8738 221.533 84.3244 221.36C84.7924 221.187 85.2951 220.892 85.8324 220.476L87.7824 223.232C87.2451 223.7 86.6731 224.081 86.0664 224.376C85.4598 224.671 84.8358 224.887 84.1944 225.026C83.5704 225.182 82.9464 225.26 82.3224 225.26ZM90.9788 225V211.194H94.9308L95.1128 215.692L94.3328 214.834C94.5408 214.089 94.8788 213.421 95.3468 212.832C95.8321 212.243 96.3955 211.775 97.0368 211.428C97.6781 211.081 98.3628 210.908 99.0908 210.908C99.4028 210.908 99.6888 210.934 99.9488 210.986C100.226 211.038 100.477 211.099 100.703 211.168L99.5588 215.77C99.3681 215.649 99.1081 215.553 98.7788 215.484C98.4668 215.397 98.1375 215.354 97.7908 215.354C97.4095 215.354 97.0541 215.423 96.7248 215.562C96.3955 215.683 96.1181 215.865 95.8928 216.108C95.6675 216.351 95.4855 216.637 95.3468 216.966C95.2255 217.295 95.1648 217.668 95.1648 218.084V225H90.9788ZM108.344 225L102.572 211.194H107.174L110.606 221.516L109.592 221.62L113.128 211.194H117.678L111.62 225H108.344ZM120.082 225V211.194H124.242V225H120.082ZM122.162 208.464C121.382 208.464 120.767 208.282 120.316 207.918C119.883 207.537 119.666 206.999 119.666 206.306C119.666 205.682 119.891 205.171 120.342 204.772C120.793 204.373 121.399 204.174 122.162 204.174C122.942 204.174 123.549 204.365 123.982 204.746C124.415 205.11 124.632 205.63 124.632 206.306C124.632 206.947 124.407 207.467 123.956 207.866C123.523 208.265 122.925 208.464 122.162 208.464ZM134.209 225.26C132.874 225.26 131.678 224.948 130.621 224.324C129.563 223.7 128.723 222.851 128.099 221.776C127.492 220.684 127.189 219.453 127.189 218.084C127.189 216.715 127.492 215.493 128.099 214.418C128.723 213.326 129.563 212.468 130.621 211.844C131.678 211.22 132.874 210.908 134.209 210.908C135.439 210.908 136.566 211.125 137.589 211.558C138.629 211.991 139.452 212.598 140.059 213.378L137.797 216.082C137.554 215.805 137.268 215.545 136.939 215.302C136.609 215.059 136.245 214.869 135.847 214.73C135.448 214.591 135.032 214.522 134.599 214.522C133.94 214.522 133.359 214.678 132.857 214.99C132.354 215.285 131.964 215.701 131.687 216.238C131.409 216.775 131.271 217.391 131.271 218.084C131.271 218.743 131.409 219.341 131.687 219.878C131.981 220.415 132.38 220.84 132.883 221.152C133.385 221.464 133.957 221.62 134.599 221.62C135.049 221.62 135.465 221.568 135.847 221.464C136.228 221.343 136.575 221.169 136.887 220.944C137.216 220.719 137.519 220.441 137.797 220.112L140.033 222.842C139.443 223.587 138.62 224.177 137.563 224.61C136.523 225.043 135.405 225.26 134.209 225.26ZM148.897 225.26C147.371 225.26 146.045 224.957 144.919 224.35C143.792 223.726 142.917 222.885 142.293 221.828C141.669 220.753 141.357 219.531 141.357 218.162C141.357 217.105 141.53 216.134 141.877 215.25C142.223 214.366 142.709 213.603 143.333 212.962C143.957 212.303 144.693 211.801 145.543 211.454C146.409 211.09 147.354 210.908 148.377 210.908C149.347 210.908 150.231 211.081 151.029 211.428C151.843 211.775 152.545 212.26 153.135 212.884C153.724 213.508 154.175 214.245 154.487 215.094C154.799 215.943 154.937 216.871 154.903 217.876L154.877 218.994H143.879L143.281 216.654H151.497L151.055 217.148V216.628C151.02 216.195 150.881 215.813 150.639 215.484C150.413 215.137 150.11 214.869 149.729 214.678C149.347 214.487 148.914 214.392 148.429 214.392C147.753 214.392 147.172 214.531 146.687 214.808C146.219 215.068 145.863 215.458 145.621 215.978C145.378 216.481 145.257 217.105 145.257 217.85C145.257 218.613 145.413 219.28 145.725 219.852C146.054 220.407 146.522 220.84 147.129 221.152C147.753 221.464 148.489 221.62 149.339 221.62C149.928 221.62 150.448 221.533 150.899 221.36C151.367 221.187 151.869 220.892 152.407 220.476L154.357 223.232C153.819 223.7 153.247 224.081 152.641 224.376C152.034 224.671 151.41 224.887 150.769 225.026C150.145 225.182 149.521 225.26 148.897 225.26ZM162.207 225.26C160.855 225.26 159.659 225.043 158.619 224.61C157.596 224.177 156.782 223.596 156.175 222.868L158.697 220.684C159.234 221.221 159.841 221.62 160.517 221.88C161.193 222.123 161.834 222.244 162.441 222.244C162.684 222.244 162.9 222.218 163.091 222.166C163.282 222.114 163.438 222.045 163.559 221.958C163.698 221.854 163.802 221.741 163.871 221.62C163.94 221.481 163.975 221.325 163.975 221.152C163.975 220.805 163.819 220.537 163.507 220.346C163.351 220.259 163.091 220.155 162.727 220.034C162.363 219.913 161.895 219.774 161.323 219.618C160.508 219.41 159.798 219.167 159.191 218.89C158.602 218.595 158.116 218.257 157.735 217.876C157.388 217.512 157.12 217.113 156.929 216.68C156.738 216.229 156.643 215.727 156.643 215.172C156.643 214.531 156.79 213.95 157.085 213.43C157.397 212.91 157.804 212.459 158.307 212.078C158.827 211.697 159.416 211.411 160.075 211.22C160.751 211.012 161.444 210.908 162.155 210.908C162.918 210.908 163.646 210.995 164.339 211.168C165.032 211.341 165.674 211.584 166.263 211.896C166.87 212.208 167.407 212.581 167.875 213.014L165.691 215.458C165.379 215.163 165.024 214.903 164.625 214.678C164.244 214.435 163.845 214.245 163.429 214.106C163.013 213.967 162.632 213.898 162.285 213.898C162.025 213.898 161.791 213.924 161.583 213.976C161.392 214.011 161.228 214.08 161.089 214.184C160.95 214.271 160.846 214.383 160.777 214.522C160.708 214.643 160.673 214.791 160.673 214.964C160.673 215.137 160.716 215.302 160.803 215.458C160.907 215.614 161.046 215.744 161.219 215.848C161.392 215.952 161.67 216.073 162.051 216.212C162.432 216.333 162.952 216.489 163.611 216.68C164.426 216.905 165.128 217.157 165.717 217.434C166.306 217.711 166.774 218.041 167.121 218.422C167.398 218.717 167.606 219.063 167.745 219.462C167.884 219.843 167.953 220.259 167.953 220.71C167.953 221.594 167.702 222.383 167.199 223.076C166.714 223.752 166.038 224.289 165.171 224.688C164.304 225.069 163.316 225.26 162.207 225.26Z" fill="#1A1A1A"></path>
    <g style="mix-blend-mode:luminosity" opacity="0.06">
      <path d="M431.993 237.847H361.558V237.854L396.772 283.163H396.779L432 237.854L431.993 237.847Z" fill="#3B5276"></path>
      <path d="M56.2453 174.001L116.861 251.991H116.875L177.484 174.001L177.477 173.995H56.252L56.2453 174.001Z" fill="#3B5276"></path>
      <path d="M238.106 251.991L177.49 174.001L116.881 251.991H238.106Z" fill="url(#paint0_linear_536_3463)" style="mix-blend-mode:multiply"></path>
      <path d="M177.477 329.986H177.491H298.695L238.093 252.011L238.086 251.997L177.477 329.986Z" fill="#D0D9E0"></path>
      <path d="M56.245 -137.996L-4.37078 -60.0001H116.861L56.245 -137.996Z" fill="#333940"></path>
      <path d="M177.47 329.987L177.477 329.986L116.868 251.997L56.2518 329.986L177.456 329.987H177.47Z" fill="#333940"></path>
      <path d="M116.861 -60.0001L116.868 -60L177.484 -137.996L177.477 -138.003H56.252L56.245 -137.996L116.861 -60.0001Z" fill="#FFCA61"></path>
      <path d="M238.113 251.991H359.331L298.722 174.001L238.113 251.991Z" fill="#FFCA61"></path>
      <path d="M298.722 174.001L298.715 173.995L238.106 96.0054L177.49 173.995L177.477 173.995L177.484 174.001L238.099 251.991L116.875 251.991H116.861L56.2453 174.001L-4.36424 251.991H-4.37774L-4.37099 251.997L-64.9868 329.987H56.2381L56.2448 330L56.2518 329.986L116.868 251.997L177.477 329.986L238.086 251.997L238.093 252.011L238.106 251.997L238.113 251.991L298.722 174.001Z" fill="#E94B64"></path>
      <path d="M177.477 173.995L177.49 173.995L238.106 95.999L238.1 95.9923H116.875L116.868 95.999L177.477 173.995Z" fill="#D0D9E0"></path>
      <path d="M177.491 329.986H177.477L177.484 330L177.491 329.986Z" fill="#3B5276"></path>
      <path d="M56.2387 173.995L56.2453 174.001L56.252 173.995H56.2387Z" fill="#3B5276"></path>
      <path d="M-64.9933 330L-64.9868 329.987H-65L-64.9933 330Z" fill="#0D2333"></path>
      <path d="M209.526 -155.443L176.451 -198L143.376 -155.443H209.526Z" fill="#3B5276"></path>
      <path d="M177.491 -138.003H177.477L177.484 -137.996L177.491 -138.003Z" fill="#3B5276"></path>
      <path d="M-4.37078 -60.0001L-4.37737 -60.0002L-4.37063 -59.9934L-4.37078 -60.0001Z" fill="#3B5276"></path>
      <path d="M298.728 329.987H298.715L298.721 330L298.728 329.987Z" fill="#3B5276"></path>
      <path d="M359.344 251.997L359.351 251.991L359.331 251.991L359.344 251.997Z" fill="#3B5276"></path>
      <path d="M56.252 -138.003H56.2387L56.245 -137.996L56.252 -138.003Z" fill="#3B5276"></path>
      <path d="M238.107 95.9923H238.1L238.106 95.999L238.107 95.9923Z" fill="#3B5276"></path>
      <path d="M177.477 17.9957H56.2387L56.2454 18.0025L116.861 95.9917L116.868 95.999L116.875 95.9923L177.484 18.0025L177.491 17.9957H177.477Z" fill="#E94B64"></path>
      <path d="M116.868 -59.9934L116.868 -60L116.861 -60.0001L116.868 -59.9934Z" fill="#3B5276"></path>
      <path d="M116.868 -59.9934L116.861 -60.0001H-4.37078L-4.37063 -59.9934L56.2315 17.9823L116.841 -60.0002L177.45 17.989H56.2383L56.2387 17.9957H177.477L116.868 -59.9934Z" fill="#E94B64"></path>
      <path d="M116.841 -60.0002L56.2315 17.9823L56.2255 17.989H177.45L116.841 -60.0002Z" fill="#333940"></path>
      <path d="M56.2253 329.993H56.2388L116.841 252.017L116.828 252.004L116.834 251.997H-4.3838L-4.39055 252.004L56.2253 329.993Z" fill="url(#paint1_linear_536_3463)"></path>
      <path d="M298.695 173.988L238.086 95.9988L177.477 173.988H298.695Z" fill="url(#paint2_linear_536_3463)" style="mix-blend-mode:multiply"></path>
      <path d="M298.722 173.995H177.497L238.113 251.984L298.722 173.995Z" fill="url(#paint3_linear_536_3463)"></path>
      <path d="M196.136 9.38345L159.754 56.1998H232.524L196.136 9.38345Z" fill="#FFCA61"></path>
      <path d="M116.84 251.991L238.113 251.991L225.101 268.738H129.48L116.84 251.991Z" fill="url(#paint4_linear_536_3463)" style="mix-blend-mode:multiply"></path>
    </g>
  </g>
  <defs>
    <linearGradient id="paint0_linear_536_3463" x1="-143.632" y1="-173.356" x2="511.334" y2="111.706" gradientUnits="userSpaceOnUse">
      <stop offset="0.37" stop-color="#393F46"></stop>
      <stop offset="0.4" stop-color="#62676C"></stop>
      <stop offset="0.43" stop-color="#888B90"></stop>
      <stop offset="0.47" stop-color="#A8ABAE"></stop>
      <stop offset="0.51" stop-color="#C4C5C7"></stop>
      <stop offset="0.55" stop-color="#DADBDC"></stop>
      <stop offset="0.6" stop-color="#EBEBEC"></stop>
      <stop offset="0.67" stop-color="#F6F7F7"></stop>
      <stop offset="0.75" stop-color="#FDFDFD"></stop>
      <stop offset="1" stop-color="white"></stop>
    </linearGradient>
    <linearGradient id="paint1_linear_536_3463" x1="183.5" y1="-198" x2="183.5" y2="330" gradientUnits="userSpaceOnUse">
      <stop stop-color="#3B5276"></stop>
      <stop offset="0.02" stop-color="#4E5174"></stop>
      <stop offset="0.07" stop-color="#725070"></stop>
      <stop offset="0.13" stop-color="#924E6D"></stop>
      <stop offset="0.19" stop-color="#AE4D6A"></stop>
      <stop offset="0.27" stop-color="#C44D68"></stop>
      <stop offset="0.35" stop-color="#D54C66"></stop>
      <stop offset="0.45" stop-color="#E04B65"></stop>
      <stop offset="0.6" stop-color="#E74B64"></stop>
      <stop offset="1" stop-color="#E94B64"></stop>
    </linearGradient>
    <linearGradient id="paint2_linear_536_3463" x1="-143.664" y1="-173.356" x2="511.327" y2="111.733" gradientUnits="userSpaceOnUse">
      <stop offset="0.37" stop-color="#3B5276"></stop>
      <stop offset="0.4" stop-color="#647692"></stop>
      <stop offset="0.43" stop-color="#8896AC"></stop>
      <stop offset="0.47" stop-color="#A8B3C2"></stop>
      <stop offset="0.51" stop-color="#C4CBD5"></stop>
      <stop offset="0.55" stop-color="#DADEE5"></stop>
      <stop offset="0.6" stop-color="#EBEDF1"></stop>
      <stop offset="0.66" stop-color="#F6F7F9"></stop>
      <stop offset="0.75" stop-color="#FDFDFE"></stop>
      <stop offset="1" stop-color="white"></stop>
    </linearGradient>
    <linearGradient id="paint3_linear_536_3463" x1="-65" y1="65.9772" x2="432" y2="65.9772" gradientUnits="userSpaceOnUse">
      <stop offset="0.03" stop-color="#3B5276"></stop>
      <stop offset="0.1" stop-color="#394B66"></stop>
      <stop offset="0.21" stop-color="#364355"></stop>
      <stop offset="0.35" stop-color="#343D49"></stop>
      <stop offset="0.53" stop-color="#333A42"></stop>
      <stop offset="1" stop-color="#333940"></stop>
    </linearGradient>
    <linearGradient id="paint4_linear_536_3463" x1="177.476" y1="273.313" x2="177.476" y2="250.329" gradientUnits="userSpaceOnUse">
      <stop stop-color="white"></stop>
      <stop offset="1" stop-color="#231F20"></stop>
    </linearGradient>
    <clipPath id="clip0_536_3463">
      <rect width="226.333" height="330" fill="white"></rect>
    </clipPath>
  </defs>
</svg>
