<?xml version="1.0" encoding="UTF-8"?>
<svg xmlns="http://www.w3.org/2000/svg" width="227" height="330" viewBox="0 0 227 330" fill="none">
  <g clip-path="url(#clip0_536_3475)">
    <rect width="226.333" height="330" transform="translate(0.333984)" fill="#EEF0ED"></rect>
    <path d="M226.334 40L226.334 0L186.334 0L226.334 40Z" fill="#FBFDFA"></path>
    <path d="M103.419 119V130.86L91.5586 119H103.419Z" fill="#6C7648"></path>
    <path d="M121.214 119V130.86L109.354 119H121.214Z" fill="#6C7648"></path>
    <path d="M138.999 119V130.86L127.139 119H138.999Z" fill="#6C7648"></path>
    <path d="M88.0008 130.86L88.0008 119L99.8613 130.86L88.0008 130.86Z" fill="#6C7648"></path>
    <path d="M88.0008 130.86L88.0008 119L99.8613 130.86L88.0008 130.86Z" fill="#6C7648"></path>
    <path d="M105.792 130.86L105.792 119L117.652 130.86L105.792 130.86Z" fill="#6C7648"></path>
    <path d="M123.585 130.86L123.585 119L135.445 130.86L123.585 130.86Z" fill="#6C7648"></path>
    <path d="M43.1571 192V173.8H51.1911C52.4391 173.8 53.4965 173.982 54.3631 174.346C55.2298 174.693 55.8798 175.204 56.3131 175.88C56.7638 176.539 56.9891 177.336 56.9891 178.272C56.9891 179.312 56.7291 180.187 56.2091 180.898C55.7065 181.609 54.9698 182.085 53.9991 182.328L53.9471 181.834C54.7618 182.007 55.4638 182.311 56.0531 182.744C56.6598 183.177 57.1278 183.715 57.4571 184.356C57.7865 184.98 57.9511 185.691 57.9511 186.488C57.9511 187.407 57.7951 188.213 57.4831 188.906C57.1711 189.582 56.7205 190.154 56.1311 190.622C55.5418 191.09 54.8485 191.437 54.0511 191.662C53.2711 191.887 52.4045 192 51.4511 192H43.1571ZM47.3171 188.308H51.2951C51.7805 188.308 52.1878 188.23 52.5171 188.074C52.8638 187.918 53.1325 187.693 53.3231 187.398C53.5138 187.086 53.6091 186.713 53.6091 186.28C53.6091 185.881 53.5051 185.543 53.2971 185.266C53.1065 184.989 52.8291 184.781 52.4651 184.642C52.1011 184.486 51.6678 184.408 51.1651 184.408H47.3171V188.308ZM47.3171 181.106H50.5671C51.0178 181.106 51.3991 181.037 51.7111 180.898C52.0405 180.742 52.2831 180.534 52.4391 180.274C52.6125 179.997 52.6991 179.667 52.6991 179.286C52.6991 178.731 52.5085 178.298 52.1271 177.986C51.7458 177.657 51.1738 177.492 50.4111 177.492H47.3171V181.106ZM60.8954 192V172.76H65.0554V192H60.8954ZM75.012 192.26C73.5733 192.26 72.2907 191.948 71.164 191.324C70.0547 190.7 69.1707 189.851 68.512 188.776C67.8707 187.701 67.55 186.471 67.55 185.084C67.55 183.697 67.8707 182.467 68.512 181.392C69.1707 180.317 70.0547 179.468 71.164 178.844C72.2907 178.22 73.5733 177.908 75.012 177.908C76.4507 177.908 77.7247 178.22 78.834 178.844C79.9607 179.468 80.8447 180.317 81.486 181.392C82.1274 182.467 82.448 183.697 82.448 185.084C82.448 186.471 82.1274 187.701 81.486 188.776C80.8447 189.851 79.9607 190.7 78.834 191.324C77.7247 191.948 76.4507 192.26 75.012 192.26ZM75.012 188.672C75.636 188.672 76.1907 188.516 76.676 188.204C77.1613 187.892 77.5427 187.467 77.82 186.93C78.0973 186.393 78.2273 185.777 78.21 185.084C78.2273 184.391 78.0973 183.775 77.82 183.238C77.5427 182.683 77.1613 182.25 76.676 181.938C76.1907 181.626 75.636 181.47 75.012 181.47C74.388 181.47 73.8247 181.626 73.322 181.938C72.8367 182.25 72.4553 182.683 72.178 183.238C71.9007 183.775 71.7707 184.391 71.788 185.084C71.7707 185.777 71.9007 186.393 72.178 186.93C72.4553 187.467 72.8367 187.892 73.322 188.204C73.8247 188.516 74.388 188.672 75.012 188.672ZM91.2263 192.26C89.8916 192.26 88.6956 191.948 87.6383 191.324C86.5809 190.7 85.7403 189.851 85.1163 188.776C84.5096 187.684 84.2063 186.453 84.2063 185.084C84.2063 183.715 84.5096 182.493 85.1163 181.418C85.7403 180.326 86.5809 179.468 87.6383 178.844C88.6956 178.22 89.8916 177.908 91.2263 177.908C92.4569 177.908 93.5836 178.125 94.6063 178.558C95.6463 178.991 96.4696 179.598 97.0763 180.378L94.8143 183.082C94.5716 182.805 94.2856 182.545 93.9563 182.302C93.6269 182.059 93.2629 181.869 92.8643 181.73C92.4656 181.591 92.0496 181.522 91.6163 181.522C90.9576 181.522 90.3769 181.678 89.8743 181.99C89.3716 182.285 88.9816 182.701 88.7043 183.238C88.4269 183.775 88.2883 184.391 88.2883 185.084C88.2883 185.743 88.4269 186.341 88.7043 186.878C88.9989 187.415 89.3976 187.84 89.9003 188.152C90.4029 188.464 90.9749 188.62 91.6163 188.62C92.0669 188.62 92.4829 188.568 92.8643 188.464C93.2456 188.343 93.5923 188.169 93.9043 187.944C94.2336 187.719 94.5369 187.441 94.8143 187.112L97.0503 189.842C96.4609 190.587 95.6376 191.177 94.5803 191.61C93.5403 192.043 92.4223 192.26 91.2263 192.26ZM103.34 187.944L101.806 184.824L108.254 178.194H113.74L103.34 187.944ZM99.3362 192V172.76H103.496V192H99.3362ZM108.696 192L103.834 185.708L106.772 183.42L113.61 192H108.696ZM121.086 192.26C119.751 192.26 118.555 191.948 117.498 191.324C116.44 190.7 115.6 189.851 114.976 188.776C114.369 187.684 114.066 186.453 114.066 185.084C114.066 183.715 114.369 182.493 114.976 181.418C115.6 180.326 116.44 179.468 117.498 178.844C118.555 178.22 119.751 177.908 121.086 177.908C122.316 177.908 123.443 178.125 124.466 178.558C125.506 178.991 126.329 179.598 126.936 180.378L124.674 183.082C124.431 182.805 124.145 182.545 123.816 182.302C123.486 182.059 123.122 181.869 122.724 181.73C122.325 181.591 121.909 181.522 121.476 181.522C120.817 181.522 120.236 181.678 119.734 181.99C119.231 182.285 118.841 182.701 118.564 183.238C118.286 183.775 118.148 184.391 118.148 185.084C118.148 185.743 118.286 186.341 118.564 186.878C118.858 187.415 119.257 187.84 119.76 188.152C120.262 188.464 120.834 188.62 121.476 188.62C121.926 188.62 122.342 188.568 122.724 188.464C123.105 188.343 123.452 188.169 123.764 187.944C124.093 187.719 124.396 187.441 124.674 187.112L126.91 189.842C126.32 190.587 125.497 191.177 124.44 191.61C123.4 192.043 122.282 192.26 121.086 192.26ZM129.196 192V172.76H133.278V181.002L132.446 181.314C132.636 180.69 132.974 180.127 133.46 179.624C133.962 179.104 134.56 178.688 135.254 178.376C135.947 178.064 136.675 177.908 137.438 177.908C138.478 177.908 139.353 178.125 140.064 178.558C140.774 178.974 141.312 179.607 141.676 180.456C142.04 181.288 142.222 182.311 142.222 183.524V192H138.036V183.862C138.036 183.307 137.958 182.848 137.802 182.484C137.646 182.12 137.403 181.851 137.074 181.678C136.762 181.487 136.372 181.401 135.904 181.418C135.54 181.418 135.202 181.479 134.89 181.6C134.578 181.704 134.309 181.869 134.084 182.094C133.858 182.302 133.676 182.545 133.538 182.822C133.416 183.099 133.356 183.403 133.356 183.732V192H131.302C130.816 192 130.4 192 130.054 192C129.707 192 129.421 192 129.196 192ZM150.796 192.234C149.634 192.234 148.594 191.931 147.676 191.324C146.774 190.7 146.055 189.851 145.518 188.776C144.98 187.684 144.712 186.453 144.712 185.084C144.712 183.68 144.98 182.441 145.518 181.366C146.055 180.291 146.792 179.451 147.728 178.844C148.664 178.22 149.73 177.908 150.926 177.908C151.584 177.908 152.182 178.003 152.72 178.194C153.274 178.385 153.76 178.653 154.176 179C154.592 179.329 154.947 179.719 155.242 180.17C155.536 180.603 155.753 181.071 155.892 181.574L155.034 181.47V178.194H159.168V192H154.956V188.672L155.892 188.646C155.753 189.131 155.528 189.591 155.216 190.024C154.904 190.457 154.522 190.839 154.072 191.168C153.621 191.497 153.118 191.757 152.564 191.948C152.009 192.139 151.42 192.234 150.796 192.234ZM151.94 188.724C152.581 188.724 153.136 188.577 153.604 188.282C154.072 187.987 154.436 187.571 154.696 187.034C154.956 186.479 155.086 185.829 155.086 185.084C155.086 184.339 154.956 183.697 154.696 183.16C154.436 182.605 154.072 182.181 153.604 181.886C153.136 181.574 152.581 181.418 151.94 181.418C151.316 181.418 150.77 181.574 150.302 181.886C149.851 182.181 149.496 182.605 149.236 183.16C148.976 183.697 148.846 184.339 148.846 185.084C148.846 185.829 148.976 186.479 149.236 187.034C149.496 187.571 149.851 187.987 150.302 188.282C150.77 188.577 151.316 188.724 151.94 188.724ZM163.072 192V178.194H167.232V192H163.072ZM165.152 175.464C164.372 175.464 163.757 175.282 163.306 174.918C162.873 174.537 162.656 173.999 162.656 173.306C162.656 172.682 162.882 172.171 163.332 171.772C163.783 171.373 164.39 171.174 165.152 171.174C165.932 171.174 166.539 171.365 166.972 171.746C167.406 172.11 167.622 172.63 167.622 173.306C167.622 173.947 167.397 174.467 166.946 174.866C166.513 175.265 165.915 175.464 165.152 175.464ZM171.141 192V178.194H175.093L175.223 181.002L174.391 181.314C174.582 180.69 174.92 180.127 175.405 179.624C175.908 179.104 176.506 178.688 177.199 178.376C177.892 178.064 178.62 177.908 179.383 177.908C180.423 177.908 181.298 178.125 182.009 178.558C182.72 178.974 183.257 179.607 183.621 180.456C183.985 181.288 184.167 182.311 184.167 183.524V192H179.981V183.862C179.981 183.307 179.903 182.848 179.747 182.484C179.591 182.12 179.348 181.851 179.019 181.678C178.707 181.487 178.317 181.401 177.849 181.418C177.485 181.418 177.147 181.479 176.835 181.6C176.523 181.704 176.254 181.869 176.029 182.094C175.804 182.302 175.622 182.545 175.483 182.822C175.362 183.099 175.301 183.403 175.301 183.732V192H173.247C172.762 192 172.346 192 171.999 192C171.652 192 171.366 192 171.141 192ZM67.0641 225.26C65.8681 225.26 64.7848 225.121 63.8141 224.844C62.8608 224.549 62.0115 224.133 61.2661 223.596C60.5208 223.041 59.8535 222.391 59.2641 221.646L61.9421 218.604C62.8088 219.765 63.6755 220.545 64.5421 220.944C65.4261 221.343 66.3361 221.542 67.2721 221.542C67.7401 221.542 68.1648 221.481 68.5461 221.36C68.9275 221.239 69.2221 221.065 69.4301 220.84C69.6381 220.597 69.7421 220.303 69.7421 219.956C69.7421 219.696 69.6728 219.462 69.5341 219.254C69.4128 219.046 69.2395 218.864 69.0141 218.708C68.7888 218.552 68.5201 218.413 68.2081 218.292C67.8961 218.153 67.5668 218.041 67.2201 217.954C66.8735 217.85 66.5181 217.763 66.1541 217.694C65.1488 217.469 64.2735 217.191 63.5281 216.862C62.7828 216.533 62.1588 216.134 61.6561 215.666C61.1708 215.181 60.8068 214.635 60.5641 214.028C60.3215 213.404 60.2001 212.711 60.2001 211.948C60.2001 211.133 60.3821 210.388 60.7461 209.712C61.1275 209.019 61.6301 208.429 62.2541 207.944C62.8955 207.441 63.6321 207.06 64.4641 206.8C65.2961 206.523 66.1628 206.384 67.0641 206.384C68.2601 206.384 69.2828 206.514 70.1321 206.774C70.9988 207.017 71.7355 207.372 72.3421 207.84C72.9661 208.308 73.4948 208.871 73.9281 209.53L71.1981 212.156C70.8341 211.705 70.4355 211.333 70.0021 211.038C69.5861 210.743 69.1355 210.518 68.6501 210.362C68.1821 210.206 67.6968 210.128 67.1941 210.128C66.6741 210.128 66.2235 210.197 65.8421 210.336C65.4781 210.457 65.1921 210.639 64.9841 210.882C64.7761 211.107 64.6721 211.385 64.6721 211.714C64.6721 212.009 64.7588 212.26 64.9321 212.468C65.1055 212.676 65.3395 212.867 65.6341 213.04C65.9288 213.196 66.2668 213.335 66.6481 213.456C67.0295 213.56 67.4281 213.647 67.8441 213.716C68.7975 213.907 69.6555 214.158 70.4181 214.47C71.1981 214.782 71.8655 215.163 72.4201 215.614C72.9921 216.065 73.4255 216.602 73.7201 217.226C74.0321 217.833 74.1881 218.543 74.1881 219.358C74.1881 220.623 73.8761 221.698 73.2521 222.582C72.6455 223.449 71.8048 224.116 70.7301 224.584C69.6728 225.035 68.4508 225.26 67.0641 225.26ZM83.6467 225.26C82.1213 225.26 80.7953 224.957 79.6687 224.35C78.542 223.726 77.6667 222.885 77.0427 221.828C76.4187 220.753 76.1067 219.531 76.1067 218.162C76.1067 217.105 76.28 216.134 76.6267 215.25C76.9733 214.366 77.4587 213.603 78.0827 212.962C78.7067 212.303 79.4433 211.801 80.2927 211.454C81.1593 211.09 82.104 210.908 83.1267 210.908C84.0973 210.908 84.9813 211.081 85.7787 211.428C86.5933 211.775 87.2953 212.26 87.8847 212.884C88.474 213.508 88.9247 214.245 89.2367 215.094C89.5487 215.943 89.6873 216.871 89.6527 217.876L89.6267 218.994H78.6287L78.0307 216.654H86.2467L85.8047 217.148V216.628C85.77 216.195 85.6313 215.813 85.3887 215.484C85.1633 215.137 84.86 214.869 84.4787 214.678C84.0973 214.487 83.664 214.392 83.1787 214.392C82.5027 214.392 81.922 214.531 81.4367 214.808C80.9687 215.068 80.6133 215.458 80.3707 215.978C80.128 216.481 80.0067 217.105 80.0067 217.85C80.0067 218.613 80.1627 219.28 80.4747 219.852C80.804 220.407 81.272 220.84 81.8787 221.152C82.5027 221.464 83.2393 221.62 84.0887 221.62C84.678 221.62 85.198 221.533 85.6487 221.36C86.1167 221.187 86.6193 220.892 87.1567 220.476L89.1067 223.232C88.5693 223.7 87.9973 224.081 87.3907 224.376C86.784 224.671 86.16 224.887 85.5187 225.026C84.8947 225.182 84.2707 225.26 83.6467 225.26ZM98.361 225.26C97.0264 225.26 95.8304 224.948 94.773 224.324C93.7157 223.7 92.875 222.851 92.251 221.776C91.6444 220.684 91.341 219.453 91.341 218.084C91.341 216.715 91.6444 215.493 92.251 214.418C92.875 213.326 93.7157 212.468 94.773 211.844C95.8304 211.22 97.0264 210.908 98.361 210.908C99.5917 210.908 100.718 211.125 101.741 211.558C102.781 211.991 103.604 212.598 104.211 213.378L101.949 216.082C101.706 215.805 101.42 215.545 101.091 215.302C100.762 215.059 100.398 214.869 99.999 214.73C99.6004 214.591 99.1844 214.522 98.751 214.522C98.0924 214.522 97.5117 214.678 97.009 214.99C96.5064 215.285 96.1164 215.701 95.839 216.238C95.5617 216.775 95.423 217.391 95.423 218.084C95.423 218.743 95.5617 219.341 95.839 219.878C96.1337 220.415 96.5324 220.84 97.035 221.152C97.5377 221.464 98.1097 221.62 98.751 221.62C99.2017 221.62 99.6177 221.568 99.999 221.464C100.38 221.343 100.727 221.169 101.039 220.944C101.368 220.719 101.672 220.441 101.949 220.112L104.185 222.842C103.596 223.587 102.772 224.177 101.715 224.61C100.675 225.043 99.557 225.26 98.361 225.26ZM111.177 225.286C110.154 225.286 109.279 225.069 108.551 224.636C107.84 224.185 107.286 223.544 106.887 222.712C106.506 221.88 106.315 220.883 106.315 219.722V211.194H110.501V219.15C110.501 219.705 110.588 220.181 110.761 220.58C110.934 220.979 111.194 221.291 111.541 221.516C111.888 221.724 112.304 221.828 112.789 221.828C113.153 221.828 113.482 221.767 113.777 221.646C114.089 221.525 114.349 221.36 114.557 221.152C114.782 220.927 114.956 220.675 115.077 220.398C115.198 220.103 115.259 219.783 115.259 219.436V211.194H119.445V225H115.519L115.337 222.166L116.117 221.854C115.909 222.513 115.562 223.102 115.077 223.622C114.592 224.125 114.011 224.532 113.335 224.844C112.659 225.139 111.94 225.286 111.177 225.286ZM123.153 225V211.194H127.105L127.287 215.692L126.507 214.834C126.715 214.089 127.053 213.421 127.521 212.832C128.006 212.243 128.569 211.775 129.211 211.428C129.852 211.081 130.537 210.908 131.265 210.908C131.577 210.908 131.863 210.934 132.123 210.986C132.4 211.038 132.651 211.099 132.877 211.168L131.733 215.77C131.542 215.649 131.282 215.553 130.953 215.484C130.641 215.397 130.311 215.354 129.965 215.354C129.583 215.354 129.228 215.423 128.899 215.562C128.569 215.683 128.292 215.865 128.067 216.108C127.841 216.351 127.659 216.637 127.521 216.966C127.399 217.295 127.339 217.668 127.339 218.084V225H123.153ZM135.219 225V211.194H139.379V225H135.219ZM137.299 208.464C136.519 208.464 135.903 208.282 135.453 207.918C135.019 207.537 134.803 206.999 134.803 206.306C134.803 205.682 135.028 205.171 135.479 204.772C135.929 204.373 136.536 204.174 137.299 204.174C138.079 204.174 138.685 204.365 139.119 204.746C139.552 205.11 139.769 205.63 139.769 206.306C139.769 206.947 139.543 207.467 139.093 207.866C138.659 208.265 138.061 208.464 137.299 208.464ZM144.431 225V207.71H148.591V225H144.431ZM141.987 214.834V211.194H151.269V214.834H141.987ZM155.389 230.98L158.535 223.57L158.587 225.702L151.931 211.194H156.637L159.549 218.136C159.705 218.483 159.852 218.855 159.991 219.254C160.129 219.653 160.233 220.034 160.303 220.398L159.731 220.736C159.835 220.476 159.947 220.155 160.069 219.774C160.207 219.375 160.355 218.951 160.511 218.5L163.059 211.194H167.791L161.915 225L159.523 230.98H155.389Z" fill="#1A1A1A"></path>
    <g style="mix-blend-mode:luminosity" opacity="0.06">
      <path d="M431.993 237.847H361.558V237.854L396.772 283.163H396.779L432 237.854L431.993 237.847Z" fill="#3B5276"></path>
      <path d="M56.2452 174.001L116.861 251.991H116.875L177.484 174.001L177.477 173.995H56.252L56.2452 174.001Z" fill="#3B5276"></path>
      <path d="M238.106 251.991L177.49 174.001L116.881 251.991H238.106Z" fill="url(#paint0_linear_536_3475)" style="mix-blend-mode:multiply"></path>
      <path d="M177.477 329.986H177.491H298.695L238.093 252.011L238.086 251.997L177.477 329.986Z" fill="#D0D9E0"></path>
      <path d="M56.245 -137.996L-4.37079 -60.0001H116.861L56.245 -137.996Z" fill="#333940"></path>
      <path d="M177.47 329.987L177.477 329.986L116.868 251.997L56.2518 329.986L177.456 329.987H177.47Z" fill="#333940"></path>
      <path d="M116.861 -60.0001L116.868 -60L177.484 -137.996L177.477 -138.003H56.252L56.245 -137.996L116.861 -60.0001Z" fill="#FFCA61"></path>
      <path d="M238.113 251.991H359.331L298.722 174.001L238.113 251.991Z" fill="#FFCA61"></path>
      <path d="M298.722 174.001L298.715 173.995L238.106 96.0054L177.49 173.995L177.477 173.995L177.484 174.001L238.099 251.991L116.875 251.991H116.861L56.2452 174.001L-4.36425 251.991H-4.37775L-4.371 251.997L-64.9868 329.987H56.2381L56.2448 330L56.2518 329.986L116.868 251.997L177.476 329.987L238.086 251.997L238.092 252.011L238.106 251.997L238.113 251.991L298.722 174.001Z" fill="#E94B64"></path>
      <path d="M177.477 173.995L177.49 173.995L238.106 95.999L238.1 95.9923H116.875L116.868 95.999L177.477 173.995Z" fill="#D0D9E0"></path>
      <path d="M177.491 329.986H177.477L177.484 330L177.491 329.986Z" fill="#3B5276"></path>
      <path d="M56.2386 173.995L56.2452 174.001L56.252 173.995H56.2386Z" fill="#3B5276"></path>
      <path d="M-64.9933 330L-64.9868 329.987L-65 329.987L-64.9933 330Z" fill="#0D2333"></path>
      <path d="M209.526 -155.443L176.451 -198L143.376 -155.443H209.526Z" fill="#3B5276"></path>
      <path d="M177.491 -138.003H177.477L177.484 -137.996L177.491 -138.003Z" fill="#3B5276"></path>
      <path d="M-4.37079 -60.0001L-4.37738 -60.0002L-4.37064 -59.9934L-4.37079 -60.0001Z" fill="#3B5276"></path>
      <path d="M298.728 329.987H298.715L298.721 330L298.728 329.987Z" fill="#3B5276"></path>
      <path d="M359.344 251.997L359.351 251.991L359.331 251.991L359.344 251.997Z" fill="#3B5276"></path>
      <path d="M56.252 -138.003H56.2386L56.245 -137.996L56.252 -138.003Z" fill="#3B5276"></path>
      <path d="M238.107 95.9923H238.1L238.106 95.999L238.107 95.9923Z" fill="#3B5276"></path>
      <path d="M177.477 17.9957H56.2386L56.2454 18.0025L116.861 95.9917L116.868 95.999L116.875 95.9923L177.484 18.0025L177.491 17.9957H177.477Z" fill="#E94B64"></path>
      <path d="M116.868 -59.9934L116.868 -60L116.861 -60.0001L116.868 -59.9934Z" fill="#3B5276"></path>
      <path d="M116.868 -59.9934L116.861 -60.0001H-4.37079L-4.37064 -59.9934L56.2315 17.9823L116.841 -60.0002L177.45 17.989H56.2383L56.2386 17.9957H177.477L116.868 -59.9934Z" fill="#E94B64"></path>
      <path d="M116.841 -60.0002L56.2322 17.9823L56.2255 17.989H177.45L116.841 -60.0002Z" fill="#333940"></path>
      <path d="M56.2253 329.993H56.2388L116.841 252.017L116.828 252.004L116.834 251.997H-4.38381L-4.39056 252.004L56.2253 329.993Z" fill="url(#paint1_linear_536_3475)"></path>
      <path d="M298.695 173.988L238.086 95.9988L177.477 173.988H298.695Z" fill="url(#paint2_linear_536_3475)" style="mix-blend-mode:multiply"></path>
      <path d="M298.722 173.995H177.497L238.113 251.984L298.722 173.995Z" fill="url(#paint3_linear_536_3475)"></path>
      <path d="M196.136 9.38346L159.754 56.1998H232.524L196.136 9.38346Z" fill="#FFCA61"></path>
      <path d="M116.84 251.991H238.112L225.101 268.738H129.48L116.84 251.991Z" fill="url(#paint4_linear_536_3475)" style="mix-blend-mode:multiply"></path>
    </g>
  </g>
  <defs>
    <linearGradient id="paint0_linear_536_3475" x1="-143.632" y1="-173.356" x2="511.334" y2="111.706" gradientUnits="userSpaceOnUse">
      <stop offset="0.37" stop-color="#393F46"></stop>
      <stop offset="0.4" stop-color="#62676C"></stop>
      <stop offset="0.43" stop-color="#888B90"></stop>
      <stop offset="0.47" stop-color="#A8ABAE"></stop>
      <stop offset="0.51" stop-color="#C4C5C7"></stop>
      <stop offset="0.55" stop-color="#DADBDC"></stop>
      <stop offset="0.6" stop-color="#EBEBEC"></stop>
      <stop offset="0.67" stop-color="#F6F7F7"></stop>
      <stop offset="0.75" stop-color="#FDFDFD"></stop>
      <stop offset="1" stop-color="white"></stop>
    </linearGradient>
    <linearGradient id="paint1_linear_536_3475" x1="183.5" y1="-198" x2="183.5" y2="330" gradientUnits="userSpaceOnUse">
      <stop stop-color="#3B5276"></stop>
      <stop offset="0.02" stop-color="#4E5174"></stop>
      <stop offset="0.07" stop-color="#725070"></stop>
      <stop offset="0.13" stop-color="#924E6D"></stop>
      <stop offset="0.19" stop-color="#AE4D6A"></stop>
      <stop offset="0.27" stop-color="#C44D68"></stop>
      <stop offset="0.35" stop-color="#D54C66"></stop>
      <stop offset="0.45" stop-color="#E04B65"></stop>
      <stop offset="0.6" stop-color="#E74B64"></stop>
      <stop offset="1" stop-color="#E94B64"></stop>
    </linearGradient>
    <linearGradient id="paint2_linear_536_3475" x1="-143.664" y1="-173.356" x2="511.327" y2="111.733" gradientUnits="userSpaceOnUse">
      <stop offset="0.37" stop-color="#3B5276"></stop>
      <stop offset="0.4" stop-color="#647692"></stop>
      <stop offset="0.43" stop-color="#8896AC"></stop>
      <stop offset="0.47" stop-color="#A8B3C2"></stop>
      <stop offset="0.51" stop-color="#C4CBD5"></stop>
      <stop offset="0.55" stop-color="#DADEE5"></stop>
      <stop offset="0.6" stop-color="#EBEDF1"></stop>
      <stop offset="0.66" stop-color="#F6F7F9"></stop>
      <stop offset="0.75" stop-color="#FDFDFE"></stop>
      <stop offset="1" stop-color="white"></stop>
    </linearGradient>
    <linearGradient id="paint3_linear_536_3475" x1="-65" y1="65.9772" x2="432" y2="65.9772" gradientUnits="userSpaceOnUse">
      <stop offset="0.03" stop-color="#3B5276"></stop>
      <stop offset="0.1" stop-color="#394B66"></stop>
      <stop offset="0.21" stop-color="#364355"></stop>
      <stop offset="0.35" stop-color="#343D49"></stop>
      <stop offset="0.53" stop-color="#333A42"></stop>
      <stop offset="1" stop-color="#333940"></stop>
    </linearGradient>
    <linearGradient id="paint4_linear_536_3475" x1="177.476" y1="273.313" x2="177.476" y2="250.329" gradientUnits="userSpaceOnUse">
      <stop stop-color="white"></stop>
      <stop offset="1" stop-color="#231F20"></stop>
    </linearGradient>
    <clipPath id="clip0_536_3475">
      <rect width="226.333" height="330" fill="white" transform="translate(0.333984)"></rect>
    </clipPath>
  </defs>
</svg>
