<svg xmlns="http://www.w3.org/2000/svg" width="41" height="54" viewBox="0 0 41 54" fill="none"><path d="M40.5788 7.5C40.5788 3.91611 37.663 1 34.0788 1H6.83398C3.24978 1 0.333984 3.91611 0.333984 7.5V46.5C0.333984 50.0839 3.24978 53 6.83398 53H34.0788C37.663 53 40.5788 50.0839 40.5788 46.5V7.5ZM6.83398 2.3H34.0788C36.946 2.3 39.2788 4.63276 39.2788 7.5V41.1235H1.63398V7.5C1.63398 4.63276 3.96675 2.3 6.83398 2.3ZM34.0788 51.7H6.83398C3.96675 51.7 1.63398 49.3672 1.63398 46.5V42.4235H39.2788V46.5C39.2788 49.3672 36.946 51.7 34.0788 51.7Z" fill="#6C7648"></path><path d="M22.0779 44.4795H18.8349C17.433 44.4795 16.2926 45.6202 16.2926 47.0218C16.2926 48.4233 17.433 49.564 18.8349 49.564H22.0779C23.4798 49.564 24.6201 48.4233 24.6201 47.0218C24.6201 45.6202 23.4798 44.4795 22.0779 44.4795ZM22.0779 48.264H18.8349C18.15 48.264 17.5926 47.7067 17.5926 47.0218C17.5926 46.3369 18.15 45.7795 18.8349 45.7795H22.0779C22.7628 45.7795 23.3201 46.3369 23.3201 47.0218C23.3201 47.7067 22.7628 48.264 22.0779 48.264Z" fill="#6C7648"></path><path d="M15.2615 6.89126H20.788C21.147 6.89126 21.438 6.60054 21.438 6.24126C21.438 5.88198 21.147 5.59126 20.788 5.59126H15.2615C14.9025 5.59126 14.6115 5.88198 14.6115 6.24126C14.6115 6.60054 14.9025 6.89126 15.2615 6.89126Z" fill="#6C7648"></path><path d="M24.3545 6.89126H25.6513C26.0103 6.89126 26.3013 6.60054 26.3013 6.24126C26.3013 5.88198 26.0103 5.59126 25.6513 5.59126H24.3545C23.9955 5.59126 23.7045 5.88198 23.7045 6.24126C23.7045 6.60054 23.9955 6.89126 24.3545 6.89126Z" fill="#6C7648"></path><path d="M20.5106 38.2233C26.293 38.2233 30.9976 33.519 30.9976 27.7363C30.9976 24.6519 29.6511 21.883 27.5245 19.9625V17.2722C27.5245 13.3843 24.3615 10.2212 20.4735 10.2212C16.5856 10.2212 13.4225 13.3843 13.4225 17.2722V20.0298C11.3389 21.9476 10.0234 24.6878 10.0234 27.7363C10.0234 33.519 14.7279 38.2233 20.5106 38.2233ZM14.7225 17.2722C14.7225 14.1009 17.3025 11.5212 20.4735 11.5212C23.6445 11.5212 26.2245 14.1009 26.2245 17.2722V18.9543C24.5789 17.88 22.6183 17.2494 20.5106 17.2494C18.372 17.2494 16.3828 17.8959 14.7225 18.9994V17.2722ZM20.5106 18.5494C25.5764 18.5494 29.6976 22.6709 29.6976 27.7363C29.6976 32.8018 25.5764 36.9233 20.5106 36.9233C15.4449 36.9233 11.3234 32.8018 11.3234 27.7363C11.3234 22.6709 15.4449 18.5494 20.5106 18.5494Z" fill="#6C7648"></path><path d="M20.5106 34.993C24.5119 34.993 27.767 31.7379 27.767 27.7363C27.767 23.7348 24.5119 20.4797 20.5106 20.4797C16.5094 20.4797 13.254 23.7348 13.254 27.7363C13.254 31.7379 16.5094 34.993 20.5106 34.993ZM15.5934 27.0419H14.598C14.7332 25.8848 15.1986 24.8274 15.9011 23.9694L16.5589 24.6272C16.6859 24.7542 16.8522 24.8177 17.0185 24.8177C17.1848 24.8177 17.3511 24.7542 17.4781 24.6272C17.732 24.3733 17.732 23.962 17.4781 23.7081L16.8312 23.0613C17.6883 22.3853 18.7321 21.9368 19.874 21.8149V22.7083C19.874 23.0676 20.165 23.3583 20.524 23.3583C20.8829 23.3583 21.174 23.0676 21.174 22.7083V21.819C22.3025 21.9447 23.3346 22.3887 24.1836 23.0566L23.5696 23.6707C23.3157 23.9246 23.3157 24.3359 23.5696 24.5898C23.6965 24.7167 23.8628 24.7802 24.0292 24.7802C24.1955 24.7802 24.3618 24.7167 24.4887 24.5898L25.1153 23.9632C25.8205 24.8224 26.2874 25.8821 26.4229 27.0419H25.5615C25.2025 27.0419 24.9115 27.3326 24.9115 27.6919C24.9115 28.0512 25.2025 28.3419 25.5615 28.3419H26.4363C26.3192 29.496 25.8676 30.5507 25.1855 31.4156L24.5268 30.7565C24.2729 30.5026 23.8613 30.5026 23.6073 30.7565C23.3534 31.0098 23.3534 31.4218 23.607 31.6757L24.277 32.3461C23.4114 33.0548 22.3431 33.5234 21.174 33.6537V32.6761C21.174 32.3168 20.8829 32.0261 20.524 32.0261C20.165 32.0261 19.874 32.3168 19.874 32.6761V33.6578C18.6912 33.5315 17.6109 33.0583 16.7374 32.3412L17.4403 31.6382C17.6942 31.3843 17.6942 30.973 17.4403 30.7191C17.1864 30.4652 16.775 30.4652 16.5211 30.7191L15.8309 31.4094C15.1514 30.5456 14.7015 29.4932 14.5847 28.3419H15.5934C15.9524 28.3419 16.2434 28.0512 16.2434 27.6919C16.2434 27.3326 15.9524 27.0419 15.5934 27.0419Z" fill="#6C7648"></path><path d="M20.524 30.2405C21.9662 30.2405 23.1392 29.0674 23.1392 27.6252C23.1392 26.1831 21.9662 25.01 20.524 25.01C19.0818 25.01 17.9087 26.1831 17.9087 27.6252C17.9087 29.0674 19.0818 30.2405 20.524 30.2405ZM20.524 26.31C21.2492 26.31 21.8392 26.8997 21.8392 27.6252C21.8392 28.3508 21.2492 28.9405 20.524 28.9405C19.7988 28.9405 19.2087 28.3508 19.2087 27.6252C19.2087 26.8997 19.7988 26.31 20.524 26.31Z" fill="#6C7648"></path><path d="M40.5788 7.5C40.5788 3.91611 37.663 1 34.0788 1H6.83398C3.24978 1 0.333984 3.91611 0.333984 7.5V46.5C0.333984 50.0839 3.24978 53 6.83398 53H34.0788C37.663 53 40.5788 50.0839 40.5788 46.5V7.5ZM6.83398 2.3H34.0788C36.946 2.3 39.2788 4.63276 39.2788 7.5V41.1235H1.63398V7.5C1.63398 4.63276 3.96675 2.3 6.83398 2.3ZM34.0788 51.7H6.83398C3.96675 51.7 1.63398 49.3672 1.63398 46.5V42.4235H39.2788V46.5C39.2788 49.3672 36.946 51.7 34.0788 51.7Z" stroke="#6C7648" stroke-width="0.4"></path><path d="M22.0779 44.4795H18.8349C17.433 44.4795 16.2926 45.6202 16.2926 47.0218C16.2926 48.4233 17.433 49.564 18.8349 49.564H22.0779C23.4798 49.564 24.6201 48.4233 24.6201 47.0218C24.6201 45.6202 23.4798 44.4795 22.0779 44.4795ZM22.0779 48.264H18.8349C18.15 48.264 17.5926 47.7067 17.5926 47.0218C17.5926 46.3369 18.15 45.7795 18.8349 45.7795H22.0779C22.7628 45.7795 23.3201 46.3369 23.3201 47.0218C23.3201 47.7067 22.7628 48.264 22.0779 48.264Z" stroke="#6C7648" stroke-width="0.4"></path><path d="M15.2615 6.89126H20.788C21.147 6.89126 21.438 6.60054 21.438 6.24126C21.438 5.88198 21.147 5.59126 20.788 5.59126H15.2615C14.9025 5.59126 14.6115 5.88198 14.6115 6.24126C14.6115 6.60054 14.9025 6.89126 15.2615 6.89126Z" stroke="#6C7648" stroke-width="0.4"></path><path d="M24.3545 6.89126H25.6513C26.0103 6.89126 26.3013 6.60054 26.3013 6.24126C26.3013 5.88198 26.0103 5.59126 25.6513 5.59126H24.3545C23.9955 5.59126 23.7045 5.88198 23.7045 6.24126C23.7045 6.60054 23.9955 6.89126 24.3545 6.89126Z" stroke="#6C7648" stroke-width="0.4"></path><path d="M20.5106 38.2233C26.293 38.2233 30.9976 33.519 30.9976 27.7363C30.9976 24.6519 29.6511 21.883 27.5245 19.9625V17.2722C27.5245 13.3843 24.3615 10.2212 20.4735 10.2212C16.5856 10.2212 13.4225 13.3843 13.4225 17.2722V20.0298C11.3389 21.9476 10.0234 24.6878 10.0234 27.7363C10.0234 33.519 14.7279 38.2233 20.5106 38.2233ZM14.7225 17.2722C14.7225 14.1009 17.3025 11.5212 20.4735 11.5212C23.6445 11.5212 26.2245 14.1009 26.2245 17.2722V18.9543C24.5789 17.88 22.6183 17.2494 20.5106 17.2494C18.372 17.2494 16.3828 17.8959 14.7225 18.9994V17.2722ZM20.5106 18.5494C25.5764 18.5494 29.6976 22.6709 29.6976 27.7363C29.6976 32.8018 25.5764 36.9233 20.5106 36.9233C15.4449 36.9233 11.3234 32.8018 11.3234 27.7363C11.3234 22.6709 15.4449 18.5494 20.5106 18.5494Z" stroke="#6C7648" stroke-width="0.4"></path><path d="M20.5106 34.993C24.5119 34.993 27.767 31.7379 27.767 27.7363C27.767 23.7348 24.5119 20.4797 20.5106 20.4797C16.5094 20.4797 13.254 23.7348 13.254 27.7363C13.254 31.7379 16.5094 34.993 20.5106 34.993ZM15.5934 27.0419H14.598C14.7332 25.8848 15.1986 24.8274 15.9011 23.9694L16.5589 24.6272C16.6859 24.7542 16.8522 24.8177 17.0185 24.8177C17.1848 24.8177 17.3511 24.7542 17.4781 24.6272C17.732 24.3733 17.732 23.962 17.4781 23.7081L16.8312 23.0613C17.6883 22.3853 18.7321 21.9368 19.874 21.8149V22.7083C19.874 23.0676 20.165 23.3583 20.524 23.3583C20.8829 23.3583 21.174 23.0676 21.174 22.7083V21.819C22.3025 21.9447 23.3346 22.3887 24.1836 23.0566L23.5696 23.6707C23.3157 23.9246 23.3157 24.3359 23.5696 24.5898C23.6965 24.7167 23.8628 24.7802 24.0292 24.7802C24.1955 24.7802 24.3618 24.7167 24.4887 24.5898L25.1153 23.9632C25.8205 24.8224 26.2874 25.8821 26.4229 27.0419H25.5615C25.2025 27.0419 24.9115 27.3326 24.9115 27.6919C24.9115 28.0512 25.2025 28.3419 25.5615 28.3419H26.4363C26.3192 29.496 25.8676 30.5507 25.1855 31.4156L24.5268 30.7565C24.2729 30.5026 23.8613 30.5026 23.6073 30.7565C23.3534 31.0098 23.3534 31.4218 23.607 31.6757L24.277 32.3461C23.4114 33.0548 22.3431 33.5234 21.174 33.6537V32.6761C21.174 32.3168 20.8829 32.0261 20.524 32.0261C20.165 32.0261 19.874 32.3168 19.874 32.6761V33.6578C18.6912 33.5315 17.6109 33.0583 16.7374 32.3412L17.4403 31.6382C17.6942 31.3843 17.6942 30.973 17.4403 30.7191C17.1864 30.4652 16.775 30.4652 16.5211 30.7191L15.8309 31.4094C15.1514 30.5456 14.7015 29.4932 14.5847 28.3419H15.5934C15.9524 28.3419 16.2434 28.0512 16.2434 27.6919C16.2434 27.3326 15.9524 27.0419 15.5934 27.0419Z" stroke="#6C7648" stroke-width="0.4"></path><path d="M20.524 30.2405C21.9662 30.2405 23.1392 29.0674 23.1392 27.6252C23.1392 26.1831 21.9662 25.01 20.524 25.01C19.0818 25.01 17.9087 26.1831 17.9087 27.6252C17.9087 29.0674 19.0818 30.2405 20.524 30.2405ZM20.524 26.31C21.2492 26.31 21.8392 26.8997 21.8392 27.6252C21.8392 28.3508 21.2492 28.9405 20.524 28.9405C19.7988 28.9405 19.2087 28.3508 19.2087 27.6252C19.2087 26.8997 19.7988 26.31 20.524 26.31Z" stroke="#6C7648" stroke-width="0.4"></path></svg>