<svg xmlns="http://www.w3.org/2000/svg" width="52" height="54" viewBox="0 0 52 54" fill="none"><path fill-rule="evenodd" clip-rule="evenodd" d="M33.7067 37.0996L37.5791 39.3354L38.0495 38.5207C38.2661 38.1467 38.745 38.0191 39.119 38.2357L49.9383 44.4823L49.9808 44.5075L49.9813 44.5068C50.5624 44.8943 50.9203 45.3419 51.0944 45.9917C51.2573 46.5999 51.1896 47.29 50.8452 47.8769L50.8466 47.8777L50.8219 47.9204L50.8221 47.9205L50.8206 47.9227L48.6054 51.7595C48.2304 52.3632 47.7459 52.7413 47.096 52.9154C46.4863 53.0788 45.7998 53.0105 45.2108 52.6663L45.21 52.6676L34.3906 46.4211C34.0166 46.2044 33.8889 45.7255 34.1056 45.3515L34.5118 44.6479L30.3028 42.2178C24.6997 48.0953 15.8054 49.3419 8.79905 45.2968C4.89953 43.0455 1.8594 39.3086 0.60316 34.62C-0.42277 30.7913 -0.101676 26.9181 1.27583 23.5035C2.63305 20.1392 5.01732 17.2206 8.15014 15.2289C8.38651 10.275 12.4794 6.35086 17.4694 6.35086C22.4051 6.35086 26.4689 10.1921 26.7803 15.0787C30.598 17.4187 33.3954 21.1171 34.5747 25.5185C35.6475 29.522 35.2474 33.574 33.7067 37.0996ZM16.6849 22.0652V24.0825C16.6849 24.5158 17.0362 24.867 17.4695 24.867C17.9027 24.867 18.254 24.5158 18.254 24.0825V22.0652C18.254 21.6319 17.9027 21.2806 17.4695 21.2806C17.0362 21.2806 16.6849 21.6319 16.6849 22.0652ZM15.8415 3.96479C15.9531 4.38283 15.7047 4.8123 15.2868 4.92393C14.8688 5.03555 14.4393 4.78731 14.3277 4.36927L13.6891 1.9859C13.5775 1.56786 13.8257 1.13839 14.2437 1.02676C14.6618 0.915137 15.0912 1.16338 15.2029 1.58142L15.8415 3.96479ZM20.518 4.36927C20.4064 4.78731 19.9768 5.03567 19.5589 4.92393C19.1408 4.8123 18.8925 4.38272 19.0042 3.96479L19.6428 1.58142C19.7544 1.16338 20.184 0.915025 20.6019 1.02676C21.02 1.13839 21.2683 1.56786 21.1566 1.9859L20.518 4.36927ZM24.315 5.87174L25.5487 3.73493C25.7653 3.36094 25.6377 2.88204 25.2637 2.6654C24.8897 2.44876 24.4108 2.57642 24.1942 2.95041L22.9604 5.08722C22.7438 5.46121 22.8715 5.94011 23.2454 6.15675C23.6194 6.37339 24.0983 6.24573 24.315 5.87174ZM11.633 5.09025L10.3994 2.95344C10.1844 2.57944 9.70697 2.45044 9.33286 2.6654C8.95887 2.88036 8.82987 3.3578 9.04483 3.7319L10.2784 5.86872C10.4934 6.24271 10.9708 6.37171 11.3449 6.15675C11.7189 5.94179 11.8479 5.46424 11.633 5.09025ZM27.6613 9.19979L29.7981 7.96608C30.1721 7.74944 30.2997 7.27054 30.0831 6.89655C29.8665 6.52256 29.3876 6.3949 29.0136 6.61154L26.8768 7.84526C26.5028 8.0619 26.3751 8.54079 26.5918 8.91479C26.8084 9.28878 27.2873 9.41643 27.6613 9.19979ZM8.06205 7.84526L5.92524 6.61154C5.55125 6.3949 5.07235 6.52256 4.85571 6.89655C4.63907 7.27054 4.76673 7.74944 5.14072 7.96608L7.27753 9.19979C7.65152 9.41643 8.13042 9.28878 8.34706 8.91479C8.56358 8.54079 8.43604 8.0619 8.06205 7.84526ZM14.0859 13.7971L15.9057 12.3769L16.4275 12.8987C16.7101 13.1812 17.1545 13.2032 17.4623 12.9645L20.4329 11.0689C20.7968 10.837 20.9039 10.354 20.672 9.99014C20.4401 9.62623 19.9572 9.51932 19.5933 9.75109L17.0937 11.3461L16.5266 10.779L16.5247 10.7809C16.2496 10.5052 15.8056 10.4719 15.4908 10.7177L13.1238 12.5652C12.7836 12.8309 12.7232 13.3221 12.989 13.6623C13.2545 14.0024 13.7457 14.0628 14.0859 13.7971ZM16.5157 18.1965H15.7102V16.6328C15.7102 16.1995 15.359 15.8483 14.9257 15.8483C14.4924 15.8483 14.1412 16.1995 14.1412 16.6328V18.1965H12.7784C12.3451 18.1965 11.9938 18.5477 11.9938 18.981C11.9938 19.4143 12.3451 19.7655 12.7784 19.7655H22.1601C22.5934 19.7655 22.9446 19.4143 22.9446 18.981C22.9446 18.5477 22.5934 18.1965 22.1601 18.1965H20.7974V13.2995C20.7974 12.8662 20.4462 12.515 20.0129 12.515C19.5796 12.515 19.2284 12.8662 19.2284 13.2995V18.1965H18.0846V14.9182C18.0846 14.4849 17.7334 14.1336 17.3001 14.1336C16.8668 14.1336 16.5156 14.4849 16.5156 14.9182V18.1965H16.5157ZM11.0418 27.7576C11.0418 26.5423 12.0206 25.5461 13.2326 25.5214L12.3974 23.5107C11.4581 22.9011 10.6355 22.1276 9.97045 21.2306C8.40556 22.5808 7.23113 24.3201 6.5607 26.2529C5.82269 28.3801 5.69246 30.7457 6.3203 33.0892C7.98853 39.3151 14.382 43.0064 20.6091 41.3379C26.8382 39.6689 30.5261 33.2757 28.8578 27.0492C28.2257 24.69 26.9009 22.637 25.0599 21.1051C24.3794 22.0554 23.5243 22.8729 22.5415 23.5107L21.7062 25.5214C22.9182 25.5461 23.897 26.5423 23.897 27.7576V30.8602C23.897 32.092 22.8921 33.097 21.6603 33.097H21.0208C21.0208 33.8945 21.1136 34.5424 20.4949 35.161C20.1706 35.4855 19.7223 35.6869 19.2287 35.6869H15.7101C14.723 35.6869 13.9181 34.882 13.9181 33.8948V33.0971H13.2786C12.0467 33.0971 11.0418 32.0921 11.0418 30.8603V27.7576ZM12.6108 28.5244H22.328V27.7576C22.328 27.3919 22.026 27.0899 21.6603 27.0899H13.2786C12.9129 27.0899 12.6108 27.3919 12.6108 27.7576V28.5244ZM22.328 30.0935H12.6108V30.8603C12.6108 31.226 12.9129 31.528 13.2786 31.528H21.6603C22.0261 31.528 22.328 31.226 22.328 30.8603V30.0935ZM14.9283 25.5209H20.0104L21.19 22.6812L21.1906 22.6814C21.2519 22.5336 21.3587 22.4032 21.5057 22.3135C25.7868 19.702 26.5223 13.7577 22.9574 10.193C19.9266 7.16217 15.0122 7.16217 11.9814 10.193C9.53101 12.6434 8.99272 16.443 10.6974 19.4775C11.3233 20.5916 12.3186 21.6561 13.4111 22.2999C13.558 22.3829 13.6792 22.5136 13.7489 22.6812L14.9283 25.5209ZM19.4517 33.097H15.4871V33.8947C15.4871 34.0159 15.589 34.1177 15.7101 34.1177H19.2287C19.3499 34.1177 19.4517 34.0159 19.4517 33.8947V33.097ZM8.23991 17.0552C5.75545 18.8404 3.85444 21.2944 2.72832 24.0859C1.47364 27.1958 1.18169 30.7251 2.11695 34.2156C4.40797 42.766 13.1873 47.8316 21.7352 45.5413C24.8686 44.7017 27.5343 42.9903 29.5411 40.7388C29.5574 40.7184 29.5745 40.699 29.5924 40.6806C30.2359 39.988 30.9875 38.899 31.4621 38.0778C35.6384 30.8501 33.5477 21.6383 26.7194 16.907C26.5872 17.9125 26.2944 18.8679 25.8679 19.7469C30.9547 23.8198 32.322 31.0128 29.0481 36.6835C25.393 43.0143 17.3023 45.1864 10.9717 41.5284C8.03975 39.8343 5.7504 37.0171 4.80629 33.4938C4.09585 30.8424 4.24513 28.1604 5.08345 25.7443C5.87312 23.4684 7.27204 21.432 9.13763 19.8818C8.6965 19.0088 8.3883 18.0577 8.23991 17.0552ZM36.7979 40.6882L33.017 38.5053C32.5403 39.377 31.9641 40.2414 31.3498 41.015L35.2943 43.2925L36.7979 40.6882ZM39.0132 39.982L35.852 45.4573L45.9945 51.3131L45.9942 51.3137L46.0038 51.3193L46.0035 51.3198C46.4345 51.56 46.9933 51.4124 47.2509 50.9748L49.4645 47.1407L49.5166 47.0499L49.5167 47.05C49.7311 46.6233 49.563 46.0724 49.1876 45.8572L49.1108 45.812L49.1109 45.8119L39.0132 39.982Z" fill="#6C7648" stroke="#6C7648" stroke-width="0.4"></path></svg>