<svg xmlns="http://www.w3.org/2000/svg" width="80" height="80" viewBox="0 0 80 80" fill="none"><rect width="80" height="80" rx="40" fill="#CA732F"></rect><path fill-rule="evenodd" clip-rule="evenodd" d="M47.1807 48.9343L50.6063 50.9121L51.0224 50.1914C51.2141 49.8606 51.6377 49.7476 51.9685 49.9393L61.5395 55.4651L61.5771 55.4874L61.5775 55.4868C62.0915 55.8295 62.4082 56.2255 62.5621 56.8003C62.7063 57.3384 62.6464 57.9488 62.3418 58.468L62.3429 58.4687L62.3211 58.5065L62.3213 58.5066L62.3199 58.5086L60.3604 61.9026C60.0287 62.4367 59.6001 62.7711 59.0251 62.9252C58.4858 63.0697 57.8784 63.0093 57.3575 62.7048L57.3568 62.706L47.7857 57.1802C47.4549 56.9885 47.3419 56.5649 47.5336 56.234L47.893 55.6116L44.1696 53.4619C39.213 58.6613 31.345 59.764 25.1471 56.1857C21.6975 54.1941 19.0081 50.8884 17.8968 46.7407C16.9893 43.3538 17.2733 39.9275 18.4919 36.907C19.6925 33.9308 21.8017 31.349 24.573 29.5871C24.7821 25.2048 28.4027 21.7335 32.8169 21.7335C37.1832 21.7335 40.7781 25.1315 41.0535 29.4542C44.4307 31.5242 46.9053 34.7959 47.9486 38.6894C48.8976 42.231 48.5437 45.8154 47.1807 48.9343ZM32.123 35.6346V37.4191C32.123 37.8024 32.4338 38.1131 32.817 38.1131C33.2003 38.1131 33.511 37.8024 33.511 37.4191V35.6346C33.511 35.2513 33.2003 34.9406 32.817 34.9406C32.4338 34.9406 32.123 35.2513 32.123 35.6346ZM31.3769 19.6227C31.4756 19.9925 31.2559 20.3724 30.8862 20.4712C30.5164 20.5699 30.1365 20.3503 30.0378 19.9805L29.4729 17.8721C29.3741 17.5023 29.5937 17.1224 29.9635 17.0237C30.3333 16.9249 30.7132 17.1445 30.812 17.5143L31.3769 19.6227ZM35.5138 19.9805C35.4151 20.3503 35.0351 20.57 34.6654 20.4712C34.2956 20.3724 34.0759 19.9924 34.1747 19.6227L34.7396 17.5143C34.8384 17.1445 35.2184 16.9248 35.5881 17.0237C35.9579 17.1224 36.1776 17.5023 36.0787 17.8721L35.5138 19.9805ZM38.8727 21.3096L39.964 19.4194C40.1557 19.0885 40.0428 18.6649 39.7119 18.4732C39.3811 18.2816 38.9574 18.3945 38.7658 18.7254L37.6744 20.6156C37.4828 20.9465 37.5957 21.3701 37.9266 21.5617C38.2574 21.7534 38.681 21.6405 38.8727 21.3096ZM27.654 20.6183L26.5627 18.728C26.3726 18.3972 25.9502 18.2831 25.6193 18.4732C25.2884 18.6634 25.1743 19.0857 25.3645 19.4167L26.4557 21.3069C26.6459 21.6378 27.0682 21.7519 27.3992 21.5617C27.73 21.3716 27.8441 20.9491 27.654 20.6183ZM41.8329 24.2537L43.7231 23.1623C44.054 22.9707 44.1669 22.547 43.9753 22.2162C43.7836 21.8853 43.36 21.7724 43.0291 21.9641L41.1389 23.0554C40.808 23.2471 40.6951 23.6707 40.8868 24.0015C41.0784 24.3324 41.502 24.4453 41.8329 24.2537ZM24.4951 23.0554L22.6048 21.9641C22.274 21.7724 21.8504 21.8853 21.6587 22.2162C21.4671 22.547 21.58 22.9707 21.9108 23.1623L23.8011 24.2537C24.1319 24.4453 24.5556 24.3324 24.7472 24.0015C24.9388 23.6707 24.8259 23.2471 24.4951 23.0554ZM29.8239 28.3205L31.4337 27.0642L31.8953 27.5258C32.1452 27.7757 32.5384 27.7951 32.8107 27.584L35.4386 25.9071C35.7605 25.7019 35.8552 25.2747 35.65 24.9528C35.4449 24.6309 35.0177 24.5363 34.6958 24.7413L32.4846 26.1523L31.983 25.6507L31.9813 25.6524C31.738 25.4085 31.3452 25.379 31.0667 25.5965L28.9728 27.2307C28.6719 27.4658 28.6184 27.9003 28.8535 28.2012C29.0884 28.5021 29.5229 28.5556 29.8239 28.3205ZM31.9733 32.2122H31.2608V30.829C31.2608 30.4457 30.9501 30.135 30.5668 30.135C30.1835 30.135 29.8728 30.4457 29.8728 30.829V32.2122H28.6672C28.2839 32.2122 27.9732 32.523 27.9732 32.9062C27.9732 33.2895 28.2839 33.6002 28.6672 33.6002H36.9665C37.3497 33.6002 37.6605 33.2895 37.6605 32.9062C37.6605 32.523 37.3497 32.2122 36.9665 32.2122H35.761V27.8803C35.761 27.497 35.4503 27.1863 35.067 27.1863C34.6837 27.1863 34.373 27.497 34.373 27.8803V32.2122H33.3612V29.3122C33.3612 28.9289 33.0505 28.6182 32.6672 28.6182C32.2839 28.6182 31.9732 28.9289 31.9732 29.3122V32.2122H31.9733ZM27.131 40.6702C27.131 39.5951 27.9969 38.7138 29.069 38.692L28.3302 36.9133C27.4993 36.3741 26.7716 35.6898 26.1833 34.8963C24.799 36.0907 23.76 37.6293 23.167 39.3391C22.5141 41.2209 22.3989 43.3135 22.9543 45.3866C24.4301 50.8941 30.0859 54.1595 35.5944 52.6835C41.1048 51.2071 44.3672 45.5516 42.8913 40.0435C42.3322 37.9566 41.1602 36.1404 39.5317 34.7853C38.9297 35.6259 38.1732 36.3491 37.3038 36.9133L36.5649 38.692C37.6371 38.7138 38.503 39.5951 38.503 40.6702V43.4148C38.503 44.5045 37.614 45.3935 36.5243 45.3935H35.9586C35.9586 46.099 36.0407 46.6721 35.4934 47.2194C35.2065 47.5064 34.8099 47.6846 34.3733 47.6846H31.2607C30.3874 47.6846 29.6754 46.9725 29.6754 46.0993V45.3936H29.1097C28.02 45.3936 27.131 44.5046 27.131 43.4149V40.6702ZM28.519 41.3486H37.115V40.6702C37.115 40.3467 36.8478 40.0795 36.5243 40.0795H29.1097C28.7862 40.0795 28.519 40.3467 28.519 40.6702V41.3486ZM37.115 42.7365H28.519V43.4149C28.519 43.7384 28.7862 44.0056 29.1097 44.0056H36.5243C36.8479 44.0056 37.115 43.7384 37.115 43.4149V42.7365ZM30.5691 38.6915H35.0648L36.1083 36.1795L36.1088 36.1797C36.163 36.049 36.2575 35.9336 36.3876 35.8543C40.1747 33.544 40.8253 28.2857 37.6718 25.1323C34.9906 22.4511 30.6433 22.4511 27.9622 25.1323C25.7946 27.2999 25.3184 30.6612 26.8263 33.3454C27.3801 34.331 28.2605 35.2727 29.227 35.8423C29.3569 35.9156 29.4641 36.0312 29.5258 36.1795L30.5691 38.6915ZM34.5706 45.3935H31.0634V46.0992C31.0634 46.2064 31.1535 46.2965 31.2607 46.2965H34.3733C34.4805 46.2965 34.5706 46.2064 34.5706 46.0992V45.3935ZM24.6524 31.2027C22.4546 32.7819 20.773 34.9528 19.7768 37.4221C18.6669 40.1732 18.4086 43.2953 19.236 46.383C21.2626 53.9468 29.029 58.428 36.5906 56.4019C39.3624 55.6592 41.7206 54.1453 43.4958 52.1535C43.5102 52.1355 43.5253 52.1183 43.5412 52.1021C44.1104 51.4894 44.7753 50.526 45.1951 49.7996C48.8896 43.4059 47.0401 35.2569 40.9997 31.0716C40.8827 31.961 40.6237 32.8062 40.2464 33.5838C44.7463 37.1867 45.9558 43.5498 43.0597 48.5661C39.8263 54.1665 32.6691 56.088 27.069 52.8521C24.4754 51.3534 22.4502 48.8613 21.615 45.7445C20.9865 43.399 21.1186 41.0265 21.8602 38.8892C22.5587 36.8759 23.7962 35.0745 25.4466 33.7032C25.0563 32.9308 24.7837 32.0895 24.6524 31.2027ZM49.9153 52.1088L46.5706 50.1778C46.149 50.9488 45.6392 51.7135 45.0958 52.3979L48.5852 54.4126L49.9153 52.1088ZM51.875 51.4841L49.0785 56.3276L58.0508 61.5077L58.0505 61.5082L58.059 61.5132L58.0587 61.5137C58.44 61.7262 58.9343 61.5956 59.1621 61.2084L61.1203 57.8168L61.1664 57.7365L61.1665 57.7366C61.3562 57.3591 61.2075 56.8717 60.8754 56.6814L60.8074 56.6414L60.8075 56.6413L51.875 51.4841Z" fill="#FBFDFA" stroke="#FBFDFA" stroke-width="0.4"></path></svg>