<svg xmlns="http://www.w3.org/2000/svg" width="53" height="54" viewBox="0 0 53 54" fill="none"><path d="M22.3457 35.6667H31.0123C31.7019 35.6667 32.3632 35.3927 32.8508 34.9051C33.3384 34.4175 33.6123 33.7562 33.6123 33.0667V25.2667C33.6123 24.5771 33.3384 23.9158 32.8508 23.4282C32.3632 22.9406 31.7019 22.6667 31.0123 22.6667V20.9333C31.0123 19.7841 30.5558 18.6819 29.7431 17.8692C28.9305 17.0565 27.8283 16.6 26.679 16.6C25.5297 16.6 24.4275 17.0565 23.6149 17.8692C22.8022 18.6819 22.3457 19.7841 22.3457 20.9333V22.6667C21.6561 22.6667 20.9948 22.9406 20.5072 23.4282C20.0196 23.9158 19.7457 24.5771 19.7457 25.2667V33.0667C19.7457 33.7562 20.0196 34.4175 20.5072 34.9051C20.9948 35.3927 21.6561 35.6667 22.3457 35.6667ZM24.079 20.9333C24.079 20.2438 24.3529 19.5825 24.8405 19.0949C25.3281 18.6073 25.9894 18.3333 26.679 18.3333C27.3685 18.3333 28.0299 18.6073 28.5175 19.0949C29.0051 19.5825 29.279 20.2438 29.279 20.9333V22.6667H24.079V20.9333ZM21.479 25.2667C21.479 25.0368 21.5703 24.8164 21.7328 24.6538C21.8954 24.4913 22.1158 24.4 22.3457 24.4H31.0123C31.2422 24.4 31.4626 24.4913 31.6251 24.6538C31.7877 24.8164 31.879 25.0368 31.879 25.2667V33.0667C31.879 33.2965 31.7877 33.517 31.6251 33.6795C31.4626 33.842 31.2422 33.9333 31.0123 33.9333H22.3457C22.1158 33.9333 21.8954 33.842 21.7328 33.6795C21.5703 33.517 21.479 33.2965 21.479 33.0667V25.2667Z" fill="#6C7648"></path><path d="M25.8123 31.1739V31.3333C25.8123 31.5632 25.9036 31.7836 26.0662 31.9462C26.2287 32.1087 26.4491 32.2 26.679 32.2C26.9088 32.2 27.1293 32.1087 27.2918 31.9462C27.4543 31.7836 27.5457 31.5632 27.5457 31.3333V31.1739C28.1239 30.9694 28.6113 30.5671 28.9216 30.0381C29.2319 29.5091 29.3453 28.8874 29.2415 28.2829C29.1378 27.6784 28.8237 27.13 28.3548 26.7347C27.8859 26.3394 27.2923 26.1226 26.679 26.1226C26.0657 26.1226 25.4721 26.3394 25.0031 26.7347C24.5342 27.13 24.2201 27.6784 24.1164 28.2829C24.0127 28.8874 24.126 29.5091 24.4364 30.0381C24.7467 30.5671 25.2341 30.9694 25.8123 31.1739ZM26.679 27.8667C26.8504 27.8667 27.018 27.9175 27.1605 28.0127C27.303 28.108 27.4141 28.2433 27.4797 28.4017C27.5453 28.56 27.5624 28.7343 27.529 28.9024C27.4956 29.0705 27.413 29.225 27.2918 29.3462C27.1706 29.4674 27.0162 29.5499 26.8481 29.5833C26.6799 29.6168 26.5057 29.5996 26.3473 29.534C26.189 29.4684 26.0536 29.3573 25.9584 29.2148C25.8631 29.0723 25.8123 28.9047 25.8123 28.7333C25.8123 28.5035 25.9036 28.283 26.0662 28.1205C26.2287 27.958 26.4491 27.8667 26.679 27.8667Z" fill="#6C7648"></path><path d="M11.9457 27C11.9457 29.914 12.8098 32.7625 14.4287 35.1854C16.0476 37.6083 18.3486 39.4967 21.0408 40.6118C23.733 41.7269 26.6953 42.0187 29.5533 41.4502C32.4113 40.8817 35.0365 39.4785 37.097 37.418C39.1575 35.3575 40.5607 32.7323 41.1292 29.8743C41.6977 27.0163 41.4059 24.054 40.2908 21.3618C39.1757 18.6696 37.2873 16.3686 34.8644 14.7497C32.4415 13.1308 29.593 12.2667 26.679 12.2667C22.7728 12.271 19.0279 13.8247 16.2658 16.5868C13.5037 19.3489 11.95 23.0938 11.9457 27ZM26.679 14C29.2501 14 31.7636 14.7624 33.9014 16.1909C36.0392 17.6194 37.7055 19.6497 38.6894 22.0251C39.6734 24.4006 39.9308 27.0144 39.4292 29.5362C38.9276 32.0579 37.6895 34.3743 35.8714 36.1924C34.0533 38.0105 31.7369 39.2486 29.2152 39.7502C26.6934 40.2518 24.0795 39.9944 21.7041 39.0104C19.3287 38.0265 17.2983 36.3602 15.8699 34.2224C14.4414 32.0846 13.679 29.5712 13.679 27C13.6829 23.5534 15.0538 20.249 17.4909 17.8119C19.928 15.3748 23.2324 14.0039 26.679 14Z" fill="#6C7648"></path><path d="M44.0123 46.0667C43.246 46.0695 42.5022 46.3262 41.8973 46.7966C41.2923 47.2671 40.8603 47.9247 40.6687 48.6667H34.479V43.4485C36.4179 42.5294 38.1785 41.2738 39.679 39.74C39.7606 39.6591 39.8252 39.5629 39.8693 39.4568C39.9133 39.3507 39.9358 39.2369 39.9355 39.1221C39.9352 39.0072 39.912 38.8936 39.8674 38.7878C39.8228 38.6819 39.7576 38.586 39.6756 38.5056C39.5936 38.4252 39.4964 38.3619 39.3897 38.3194C39.283 38.2769 39.1689 38.256 39.0541 38.2579C38.9392 38.2599 38.8259 38.2847 38.7208 38.3308C38.6156 38.3769 38.5206 38.4435 38.4414 38.5267C36.9845 40.0166 35.2574 41.2157 33.3523 42.0601C33.1765 42.1153 33.0229 42.2252 32.9138 42.3738C32.8047 42.5223 32.7458 42.7017 32.7457 42.886V48.6667C32.7457 49.1264 32.9283 49.5672 33.2533 49.8923C33.5784 50.2174 34.0193 50.4 34.479 50.4H40.6687C40.8319 51.0262 41.1674 51.5941 41.6372 52.0392C42.1069 52.4843 42.6921 52.7888 43.3261 52.9181C43.9602 53.0474 44.6179 52.9963 45.2244 52.7706C45.8309 52.5449 46.3619 52.1536 46.7573 51.6413C47.1526 51.1289 47.3963 50.516 47.4608 49.8721C47.5253 49.2282 47.408 48.5791 47.1221 47.9985C46.8362 47.418 46.3933 46.9292 45.8436 46.5877C45.2939 46.2462 44.6594 46.0657 44.0123 46.0667ZM44.0123 51.2667C43.6695 51.2667 43.3344 51.165 43.0493 50.9745C42.7643 50.7841 42.5421 50.5134 42.4109 50.1966C42.2797 49.8799 42.2454 49.5314 42.3123 49.1952C42.3792 48.8589 42.5442 48.5501 42.7867 48.3077C43.0291 48.0653 43.3379 47.9002 43.6742 47.8333C44.0104 47.7664 44.3589 47.8007 44.6756 47.9319C44.9924 48.0631 45.2631 48.2853 45.4535 48.5703C45.644 48.8554 45.7456 49.1905 45.7456 49.5333C45.7456 49.993 45.563 50.4339 45.238 50.759C44.9129 51.084 44.472 51.2667 44.0123 51.2667Z" fill="#6C7648"></path><path d="M7.48926 36.5333H11.677C11.8405 36.5333 12.0006 36.4871 12.1389 36.4C12.2772 36.3128 12.3881 36.1884 12.4587 36.0409C12.5293 35.8935 12.5567 35.7291 12.5379 35.5667C12.519 35.4043 12.4546 35.2506 12.3521 35.1233C11.4966 33.6193 10.8855 31.989 10.5417 30.2933C10.5189 30.1818 10.4744 30.0758 10.4107 29.9815C10.347 29.8872 10.2653 29.8063 10.1703 29.7435C10.0754 29.6808 9.96897 29.6373 9.85722 29.6157C9.74546 29.594 9.63053 29.5946 9.519 29.6173C9.40746 29.6401 9.3015 29.6846 9.20716 29.7483C9.11283 29.812 9.03197 29.8937 8.9692 29.9887C8.90642 30.0836 8.86297 30.19 8.84132 30.3018C8.81966 30.4135 8.82023 30.5285 8.843 30.64C9.13459 32.0778 9.60024 33.4748 10.2297 34.8H7.48926C7.27832 33.983 6.77667 33.271 6.07832 32.7975C5.37998 32.3239 4.5329 32.1213 3.69587 32.2276C2.85883 32.3339 2.0893 32.7419 1.53152 33.375C0.973745 34.0081 0.666016 34.8229 0.666016 35.6667C0.666016 36.5104 0.973745 37.3252 1.53152 37.9583C2.0893 38.5914 2.85883 38.9994 3.69587 39.1057C4.5329 39.212 5.37998 39.0094 6.07832 38.5358C6.77667 38.0623 7.27832 37.3503 7.48926 36.5333ZM4.14567 37.4C3.80285 37.4 3.46772 37.2983 3.18268 37.1079C2.89763 36.9174 2.67547 36.6467 2.54428 36.33C2.41308 36.0133 2.37876 35.6647 2.44564 35.3285C2.51252 34.9923 2.6776 34.6834 2.92001 34.441C3.16243 34.1986 3.47128 34.0335 3.80751 33.9666C4.14374 33.8998 4.49226 33.9341 4.80898 34.0653C5.12571 34.1965 5.39642 34.4186 5.58688 34.7037C5.77734 34.9887 5.879 35.3238 5.879 35.6667C5.879 36.1264 5.69638 36.5673 5.37132 36.8923C5.04625 37.2174 4.60537 37.4 4.14567 37.4Z" fill="#6C7648"></path><path d="M0.679001 18.3333C0.677952 19.176 0.984489 19.9901 1.54108 20.6228C2.09767 21.2555 2.86604 21.6633 3.70197 21.7697C4.5379 21.8761 5.38393 21.6737 6.08124 21.2006C6.77856 20.7274 7.27922 20.0161 7.48926 19.2H11.677C11.8518 19.2001 12.0226 19.1474 12.1669 19.0487C12.3112 18.9501 12.4223 18.81 12.4856 18.6471C13.5895 16.7701 15.0557 15.1315 16.799 13.8267C16.89 13.7584 16.9668 13.6728 17.0247 13.5749C17.0827 13.477 17.1209 13.3686 17.1369 13.2559C17.153 13.1432 17.1468 13.0285 17.1185 12.9182C17.0903 12.808 17.0406 12.7044 16.9723 12.6133C16.904 12.5223 16.8185 12.4456 16.7206 12.3876C16.6226 12.3296 16.5142 12.2915 16.4016 12.2754C16.2889 12.2593 16.1742 12.2655 16.0639 12.2938C15.9537 12.322 15.85 12.3717 15.759 12.44C13.9273 13.8118 12.3713 15.5173 11.1726 17.4667H7.48926C7.27922 16.6506 6.77856 15.9392 6.08124 15.4661C5.38393 14.993 4.5379 14.7906 3.70197 14.897C2.86604 15.0034 2.09767 15.4112 1.54108 16.0439C0.984489 16.6766 0.677952 17.4907 0.679001 18.3333ZM5.879 18.3333C5.879 18.6762 5.77734 19.0113 5.58688 19.2963C5.39642 19.5814 5.12571 19.8035 4.80898 19.9347C4.49226 20.0659 4.14374 20.1002 3.80751 20.0334C3.47128 19.9665 3.16243 19.8014 2.92001 19.559C2.6776 19.3166 2.51252 19.0077 2.44564 18.6715C2.37876 18.3353 2.41308 17.9867 2.54428 17.67C2.67547 17.3533 2.89763 17.0826 3.18268 16.8921C3.46772 16.7017 3.80285 16.6 4.14567 16.6C4.60537 16.6 5.04625 16.7826 5.37132 17.1077C5.69638 17.4327 5.879 17.8736 5.879 18.3333Z" fill="#6C7648"></path><path d="M49.2123 32.2C48.446 32.2029 47.7022 32.4596 47.0973 32.93C46.4923 33.4004 46.0603 34.058 45.8687 34.8H43.1274C43.7571 33.4749 44.2227 32.0779 44.5141 30.64C44.5601 30.4146 44.5146 30.1802 44.3878 29.9884C44.2609 29.7965 44.063 29.6629 43.8377 29.6169C43.6123 29.5709 43.3779 29.6164 43.186 29.7432C42.9942 29.8701 42.8605 30.068 42.8146 30.2933C42.4716 31.9879 41.861 33.6171 41.0058 35.1198C40.9023 35.2471 40.837 35.4012 40.8176 35.5641C40.7982 35.727 40.8254 35.8921 40.8961 36.0402C40.9669 36.1883 41.0782 36.3132 41.2171 36.4005C41.356 36.4878 41.5169 36.5339 41.681 36.5333H45.8687C46.0319 37.1595 46.3674 37.7275 46.8372 38.1726C47.3069 38.6177 47.8921 38.9222 48.5261 39.0514C49.1602 39.1807 49.8179 39.1296 50.4244 38.9039C51.0309 38.6782 51.5619 38.287 51.9573 37.7746C52.3526 37.2623 52.5963 36.6494 52.6608 36.0054C52.7253 35.3615 52.608 34.7124 52.3221 34.1319C52.0362 33.5513 51.5933 33.0625 51.0436 32.721C50.4939 32.3795 49.8594 32.199 49.2123 32.2ZM49.2123 37.4C48.8695 37.4 48.5344 37.2983 48.2493 37.1079C47.9643 36.9174 47.7421 36.6467 47.6109 36.33C47.4797 36.0133 47.4454 35.6647 47.5123 35.3285C47.5792 34.9923 47.7442 34.6834 47.9867 34.441C48.2291 34.1986 48.5379 34.0335 48.8741 33.9666C49.2104 33.8997 49.5589 33.9341 49.8756 34.0653C50.1924 34.1965 50.4631 34.4186 50.6535 34.7037C50.844 34.9887 50.9456 35.3238 50.9456 35.6667C50.9456 36.1264 50.763 36.5672 50.438 36.8923C50.1129 37.2174 49.672 37.4 49.2123 37.4Z" fill="#6C7648"></path><path d="M49.2123 21.8C49.8612 21.8024 50.4978 21.6227 51.0496 21.2812C51.6014 20.9397 52.0463 20.4501 52.3336 19.8683C52.621 19.2864 52.7392 18.6356 52.6749 17.9899C52.6106 17.3441 52.3663 16.7294 51.9699 16.2156C51.5735 15.7018 51.0408 15.3097 50.4325 15.0837C49.8242 14.8577 49.1646 14.807 48.5289 14.9374C47.8932 15.0677 47.3069 15.3739 46.8366 15.821C46.3663 16.2682 46.0309 16.8383 45.8687 17.4667H41.6792C41.5157 17.4669 41.3555 17.5134 41.2173 17.6008C41.0791 17.6882 40.9684 17.813 40.898 17.9606C40.8277 18.1083 40.8006 18.2728 40.8198 18.4352C40.839 18.5977 40.9038 18.7513 41.0067 18.8785C42.41 21.3551 43.147 24.1534 43.1456 27C43.1456 27.2299 43.2369 27.4503 43.3995 27.6128C43.562 27.7754 43.7825 27.8667 44.0123 27.8667H51.8123C52.0422 27.8667 52.2626 27.7754 52.4251 27.6128C52.5877 27.4503 52.679 27.2299 52.679 27C52.679 26.7701 52.5877 26.5497 52.4251 26.3872C52.2626 26.2246 52.0422 26.1333 51.8123 26.1333H44.859C44.7442 23.7305 44.1551 21.3742 43.1257 19.2H45.867C46.0586 19.9423 46.4909 20.6001 47.0962 21.0705C47.7015 21.541 48.4457 21.7975 49.2123 21.8ZM49.2123 16.6C49.5551 16.6 49.8902 16.7017 50.1753 16.8921C50.4603 17.0826 50.6825 17.3533 50.8137 17.67C50.9449 17.9867 50.9792 18.3353 50.9123 18.6715C50.8455 19.0077 50.6804 19.3166 50.438 19.559C50.1955 19.8014 49.8867 19.9665 49.5505 20.0334C49.2142 20.1002 48.8657 20.0659 48.549 19.9347C48.2323 19.8035 47.9616 19.5814 47.7711 19.2963C47.5806 19.0113 47.479 18.6762 47.479 18.3333C47.479 17.8736 47.6616 17.4327 47.9867 17.1077C48.3117 16.7826 48.7526 16.6 49.2123 16.6Z" fill="#6C7648"></path><path d="M29.9723 43.1373C27.7985 43.5739 25.5595 43.5739 23.3857 43.1373C23.273 43.1115 23.1563 43.1084 23.0425 43.1284C22.9287 43.1483 22.82 43.1908 22.7228 43.2533C22.6256 43.3159 22.5419 43.3972 22.4767 43.4926C22.4114 43.588 22.3659 43.6954 22.3427 43.8087C22.3196 43.9219 22.3194 44.0386 22.342 44.1519C22.3647 44.2653 22.4098 44.3729 22.4746 44.4686C22.5395 44.5642 22.6229 44.6459 22.7198 44.7089C22.8167 44.7718 22.9252 44.8147 23.039 44.8351C23.9539 45.0129 24.881 45.1204 25.8123 45.1567V52.1333C25.8123 52.3632 25.9036 52.5836 26.0662 52.7461C26.2287 52.9087 26.4491 53 26.679 53C26.9088 53 27.1293 52.9087 27.2918 52.7461C27.4543 52.5836 27.5457 52.3632 27.5457 52.1333V45.1567C28.4769 45.1204 29.4041 45.0129 30.319 44.8351C30.5395 44.7845 30.7315 44.6497 30.8539 44.4595C30.9764 44.2693 31.0196 44.0387 30.9744 43.817C30.9291 43.5953 30.7989 43.4002 30.6117 43.2732C30.4245 43.1462 30.195 43.0974 29.9723 43.1373Z" fill="#6C7648"></path><path d="M18.879 3.60001H12.6893C12.4783 2.78304 11.9767 2.07104 11.2783 1.59749C10.58 1.12393 9.7329 0.921321 8.89586 1.02764C8.05883 1.13396 7.2893 1.5419 6.73152 2.17501C6.17374 2.80811 5.86601 3.62291 5.86601 4.46667C5.86601 5.31044 6.17374 6.12524 6.73152 6.75834C7.2893 7.39145 8.05883 7.79939 8.89586 7.90571C9.7329 8.01203 10.58 7.80942 11.2783 7.33586C11.9767 6.8623 12.4783 6.15031 12.6893 5.33334H18.879V11.114C18.8789 11.2655 18.9186 11.4143 18.994 11.5457C19.0694 11.6771 19.1779 11.7864 19.3087 11.8628C19.4395 11.9392 19.5881 11.9799 19.7396 11.981C19.8911 11.9821 20.0402 11.9434 20.1721 11.8689C21.2054 11.4239 22.2821 11.087 23.3848 10.8635C23.4964 10.8408 23.6024 10.7963 23.6968 10.7325C23.7912 10.6688 23.8721 10.5871 23.9349 10.4921C23.9977 10.3971 24.0412 10.2906 24.0629 10.1788C24.0845 10.067 24.084 9.95203 24.0612 9.84044C24.0385 9.72884 23.9939 9.62283 23.9302 9.52844C23.8665 9.43405 23.7848 9.35314 23.6898 9.29033C23.5948 9.22752 23.4883 9.18403 23.3765 9.16236C23.2647 9.14068 23.1497 9.14124 23.0381 9.16401C22.2149 9.33301 21.4043 9.55888 20.6123 9.84V5.33334C20.6123 4.87363 20.4297 4.43275 20.1046 4.10769C19.7796 3.78263 19.3387 3.60001 18.879 3.60001ZM9.34566 6.20001C9.00284 6.20001 8.66772 6.09835 8.38268 5.90789C8.09763 5.71743 7.87546 5.44672 7.74427 5.12999C7.61308 4.81327 7.57875 4.46475 7.64564 4.12852C7.71252 3.79228 7.8776 3.48343 8.12001 3.24102C8.36242 2.99861 8.67127 2.83353 9.00751 2.76665C9.34374 2.69977 9.69226 2.73409 10.009 2.86528C10.3257 2.99648 10.5964 3.21864 10.7869 3.50369C10.9773 3.78873 11.079 4.12385 11.079 4.46667C11.079 4.92638 10.8964 5.36726 10.5713 5.69232C10.2463 6.01739 9.80537 6.20001 9.34566 6.20001Z" fill="#6C7648"></path><path d="M40.6687 5.33334C40.8797 6.15031 41.3813 6.8623 42.0797 7.33586C42.778 7.80942 43.6251 8.01203 44.4621 7.90571C45.2992 7.79939 46.0687 7.39145 46.6265 6.75834C47.1842 6.12524 47.492 5.31044 47.492 4.46667C47.492 3.62291 47.1842 2.80811 46.6265 2.17501C46.0687 1.5419 45.2992 1.13396 44.4621 1.02764C43.6251 0.921321 42.778 1.12393 42.0797 1.59749C41.3813 2.07104 40.8797 2.78304 40.6687 3.60001H34.479C34.0193 3.60001 33.5784 3.78263 33.2533 4.10769C32.9283 4.43275 32.7457 4.87363 32.7457 5.33334V11.1157C32.7462 11.2997 32.8053 11.4788 32.9143 11.6269C33.0234 11.7751 33.1768 11.8847 33.3523 11.9399C35.2562 12.7847 36.9821 13.9838 38.4379 15.4733C38.5176 15.5548 38.6125 15.6198 38.7173 15.6646C38.8221 15.7094 38.9347 15.7331 39.0486 15.7344C39.1626 15.7357 39.2757 15.7145 39.3815 15.6721C39.4872 15.6297 39.5836 15.5669 39.6651 15.4872C39.7466 15.4075 39.8116 15.3126 39.8564 15.2078C39.9012 15.103 39.9249 14.9904 39.9262 14.8765C39.9275 14.7625 39.9063 14.6494 39.8639 14.5437C39.8215 14.4379 39.7586 14.3415 39.679 14.26C38.1785 12.7262 36.4179 11.4706 34.479 10.5515V5.33334H40.6687ZM44.0123 2.73334C44.3551 2.73334 44.6903 2.835 44.9753 3.02546C45.2603 3.21592 45.4825 3.48663 45.6137 3.80336C45.7449 4.12008 45.7792 4.4686 45.7123 4.80483C45.6455 5.14106 45.4804 5.44991 45.238 5.69232C44.9956 5.93474 44.6867 6.09982 44.3505 6.1667C44.0142 6.23358 43.6657 6.19926 43.349 6.06806C43.0323 5.93687 42.7616 5.71471 42.5711 5.42966C42.3806 5.14462 42.279 4.80949 42.279 4.46667C42.279 4.00697 42.4616 3.56609 42.7867 3.24102C43.1117 2.91596 43.5526 2.73334 44.0123 2.73334Z" fill="#6C7648"></path><path d="M20.0057 42.0601C17.7591 41.0585 15.763 39.5704 14.1617 37.7033C14.0888 37.6135 13.9986 37.5392 13.8965 37.4849C13.7944 37.4305 13.6825 37.3971 13.5672 37.3866C13.452 37.3762 13.3359 37.3889 13.2257 37.4241C13.1155 37.4592 13.0134 37.5161 12.9255 37.5913C12.8376 37.6665 12.7657 37.7586 12.7139 37.862C12.6622 37.9655 12.6316 38.0783 12.6242 38.1937C12.6167 38.3092 12.6324 38.4249 12.6704 38.5342C12.7083 38.6435 12.7678 38.7441 12.8453 38.83C14.5125 40.7733 16.5678 42.3465 18.879 43.4485V48.6667H12.6893C12.4783 47.8497 11.9767 47.1377 11.2783 46.6641C10.58 46.1906 9.7329 45.988 8.89586 46.0943C8.05883 46.2006 7.2893 46.6085 6.73152 47.2417C6.17374 47.8748 5.86601 48.6896 5.86601 49.5333C5.86601 50.3771 6.17374 51.1919 6.73152 51.825C7.2893 52.4581 8.05883 52.866 8.89586 52.9724C9.7329 53.0787 10.58 52.8761 11.2783 52.4025C11.9767 51.929 12.4783 51.217 12.6893 50.4H18.879C19.3387 50.4 19.7796 50.2174 20.1046 49.8923C20.4297 49.5672 20.6123 49.1264 20.6123 48.6667V42.886C20.6122 42.7017 20.5532 42.5223 20.4441 42.3737C20.3351 42.2252 20.1815 42.1153 20.0057 42.0601ZM9.34566 51.2667C9.00284 51.2667 8.66772 51.165 8.38268 50.9745C8.09763 50.7841 7.87546 50.5134 7.74427 50.1966C7.61308 49.8799 7.57875 49.5314 7.64564 49.1952C7.71252 48.8589 7.8776 48.5501 8.12001 48.3077C8.36242 48.0653 8.67127 47.9002 9.00751 47.8333C9.34374 47.7664 9.69226 47.8007 10.009 47.9319C10.3257 48.0631 10.5964 48.2853 10.7869 48.5703C10.9773 48.8554 11.079 49.1905 11.079 49.5333C11.079 49.993 10.8964 50.4339 10.5713 50.759C10.2463 51.084 9.80537 51.2667 9.34566 51.2667Z" fill="#6C7648"></path><path d="M26.679 1.00001C26.4491 1.00001 26.2287 1.09132 26.0662 1.25385C25.9036 1.41638 25.8123 1.63682 25.8123 1.86667V9.66667C25.8123 9.89653 25.9036 10.117 26.0662 10.2795C26.2287 10.442 26.4491 10.5333 26.679 10.5333C27.785 10.5331 28.8883 10.6434 29.9723 10.8627C30.0293 10.8744 30.0874 10.8802 30.1457 10.88C30.3598 10.8792 30.5662 10.7991 30.7248 10.6551C30.8834 10.5112 30.9831 10.3136 31.0046 10.1005C31.0261 9.88738 30.968 9.67384 30.8414 9.50107C30.7148 9.3283 30.5287 9.20853 30.319 9.16487C29.4048 8.97834 28.4776 8.86244 27.5457 8.8182V1.86667C27.5457 1.63682 27.4543 1.41638 27.2918 1.25385C27.1293 1.09132 26.9088 1.00001 26.679 1.00001Z" fill="#6C7648"></path><path d="M1.54567 27.8667H9.34566C9.57552 27.8667 9.79596 27.7754 9.95849 27.6128C10.121 27.4503 10.2123 27.2299 10.2123 27C10.2105 25.2489 10.4881 23.5087 11.0348 21.8451C11.0704 21.7369 11.0843 21.6229 11.0758 21.5094C11.0672 21.3959 11.0365 21.2852 10.9852 21.1836C10.9339 21.082 10.863 20.9915 10.7768 20.9172C10.6905 20.843 10.5904 20.7865 10.4823 20.7509C10.3742 20.7153 10.2601 20.7014 10.1466 20.7099C10.0331 20.7184 9.92239 20.7492 9.82079 20.8005C9.71918 20.8518 9.62868 20.9227 9.55445 21.0089C9.48021 21.0952 9.4237 21.1953 9.38813 21.3034C8.87449 22.8657 8.57536 24.4905 8.49893 26.1333H1.54567C1.31581 26.1333 1.09537 26.2246 0.932842 26.3872C0.77031 26.5497 0.679001 26.7701 0.679001 27C0.679001 27.2299 0.77031 27.4503 0.932842 27.6128C1.09537 27.7754 1.31581 27.8667 1.54567 27.8667Z" fill="#6C7648"></path><path d="M22.3457 35.6667H31.0123C31.7019 35.6667 32.3632 35.3927 32.8508 34.9051C33.3384 34.4175 33.6123 33.7562 33.6123 33.0667V25.2667C33.6123 24.5771 33.3384 23.9158 32.8508 23.4282C32.3632 22.9406 31.7019 22.6667 31.0123 22.6667V20.9333C31.0123 19.7841 30.5558 18.6819 29.7431 17.8692C28.9305 17.0565 27.8283 16.6 26.679 16.6C25.5297 16.6 24.4275 17.0565 23.6149 17.8692C22.8022 18.6819 22.3457 19.7841 22.3457 20.9333V22.6667C21.6561 22.6667 20.9948 22.9406 20.5072 23.4282C20.0196 23.9158 19.7457 24.5771 19.7457 25.2667V33.0667C19.7457 33.7562 20.0196 34.4175 20.5072 34.9051C20.9948 35.3927 21.6561 35.6667 22.3457 35.6667ZM24.079 20.9333C24.079 20.2438 24.3529 19.5825 24.8405 19.0949C25.3281 18.6073 25.9894 18.3333 26.679 18.3333C27.3685 18.3333 28.0299 18.6073 28.5175 19.0949C29.0051 19.5825 29.279 20.2438 29.279 20.9333V22.6667H24.079V20.9333ZM21.479 25.2667C21.479 25.0368 21.5703 24.8164 21.7328 24.6538C21.8954 24.4913 22.1158 24.4 22.3457 24.4H31.0123C31.2422 24.4 31.4626 24.4913 31.6251 24.6538C31.7877 24.8164 31.879 25.0368 31.879 25.2667V33.0667C31.879 33.2965 31.7877 33.517 31.6251 33.6795C31.4626 33.842 31.2422 33.9333 31.0123 33.9333H22.3457C22.1158 33.9333 21.8954 33.842 21.7328 33.6795C21.5703 33.517 21.479 33.2965 21.479 33.0667V25.2667Z" stroke="#6C7648" stroke-width="0.4"></path><path d="M25.8123 31.1739V31.3333C25.8123 31.5632 25.9036 31.7836 26.0662 31.9462C26.2287 32.1087 26.4491 32.2 26.679 32.2C26.9088 32.2 27.1293 32.1087 27.2918 31.9462C27.4543 31.7836 27.5457 31.5632 27.5457 31.3333V31.1739C28.1239 30.9694 28.6113 30.5671 28.9216 30.0381C29.2319 29.5091 29.3453 28.8874 29.2415 28.2829C29.1378 27.6784 28.8237 27.13 28.3548 26.7347C27.8859 26.3394 27.2923 26.1226 26.679 26.1226C26.0657 26.1226 25.4721 26.3394 25.0031 26.7347C24.5342 27.13 24.2201 27.6784 24.1164 28.2829C24.0127 28.8874 24.126 29.5091 24.4364 30.0381C24.7467 30.5671 25.2341 30.9694 25.8123 31.1739ZM26.679 27.8667C26.8504 27.8667 27.018 27.9175 27.1605 28.0127C27.303 28.108 27.4141 28.2433 27.4797 28.4017C27.5453 28.56 27.5624 28.7343 27.529 28.9024C27.4956 29.0705 27.413 29.225 27.2918 29.3462C27.1706 29.4674 27.0162 29.5499 26.8481 29.5833C26.6799 29.6168 26.5057 29.5996 26.3473 29.534C26.189 29.4684 26.0536 29.3573 25.9584 29.2148C25.8631 29.0723 25.8123 28.9047 25.8123 28.7333C25.8123 28.5035 25.9036 28.283 26.0662 28.1205C26.2287 27.958 26.4491 27.8667 26.679 27.8667Z" stroke="#6C7648" stroke-width="0.4"></path><path d="M11.9457 27C11.9457 29.914 12.8098 32.7625 14.4287 35.1854C16.0476 37.6083 18.3486 39.4967 21.0408 40.6118C23.733 41.7269 26.6953 42.0187 29.5533 41.4502C32.4113 40.8817 35.0365 39.4785 37.097 37.418C39.1575 35.3575 40.5607 32.7323 41.1292 29.8743C41.6977 27.0163 41.4059 24.054 40.2908 21.3618C39.1757 18.6696 37.2873 16.3686 34.8644 14.7497C32.4415 13.1308 29.593 12.2667 26.679 12.2667C22.7728 12.271 19.0279 13.8247 16.2658 16.5868C13.5037 19.3489 11.95 23.0938 11.9457 27ZM26.679 14C29.2501 14 31.7636 14.7624 33.9014 16.1909C36.0392 17.6194 37.7055 19.6497 38.6894 22.0251C39.6734 24.4006 39.9308 27.0144 39.4292 29.5362C38.9276 32.0579 37.6895 34.3743 35.8714 36.1924C34.0533 38.0105 31.7369 39.2486 29.2152 39.7502C26.6934 40.2518 24.0795 39.9944 21.7041 39.0104C19.3287 38.0265 17.2983 36.3602 15.8699 34.2224C14.4414 32.0846 13.679 29.5712 13.679 27C13.6829 23.5534 15.0538 20.249 17.4909 17.8119C19.928 15.3748 23.2324 14.0039 26.679 14Z" stroke="#6C7648" stroke-width="0.4"></path><path d="M44.0123 46.0667C43.246 46.0695 42.5022 46.3262 41.8973 46.7966C41.2923 47.2671 40.8603 47.9247 40.6687 48.6667H34.479V43.4485C36.4179 42.5294 38.1785 41.2738 39.679 39.74C39.7606 39.6591 39.8252 39.5629 39.8693 39.4568C39.9133 39.3507 39.9358 39.2369 39.9355 39.1221C39.9352 39.0072 39.912 38.8936 39.8674 38.7878C39.8228 38.6819 39.7576 38.586 39.6756 38.5056C39.5936 38.4252 39.4964 38.3619 39.3897 38.3194C39.283 38.2769 39.1689 38.256 39.0541 38.2579C38.9392 38.2599 38.8259 38.2847 38.7208 38.3308C38.6156 38.3769 38.5206 38.4435 38.4414 38.5267C36.9845 40.0166 35.2574 41.2157 33.3523 42.0601C33.1765 42.1153 33.0229 42.2252 32.9138 42.3738C32.8047 42.5223 32.7458 42.7017 32.7457 42.886V48.6667C32.7457 49.1264 32.9283 49.5672 33.2533 49.8923C33.5784 50.2174 34.0193 50.4 34.479 50.4H40.6687C40.8319 51.0262 41.1674 51.5941 41.6372 52.0392C42.1069 52.4843 42.6921 52.7888 43.3261 52.9181C43.9602 53.0474 44.6179 52.9963 45.2244 52.7706C45.8309 52.5449 46.3619 52.1536 46.7573 51.6413C47.1526 51.1289 47.3963 50.516 47.4608 49.8721C47.5253 49.2282 47.408 48.5791 47.1221 47.9985C46.8362 47.418 46.3933 46.9292 45.8436 46.5877C45.2939 46.2462 44.6594 46.0657 44.0123 46.0667ZM44.0123 51.2667C43.6695 51.2667 43.3344 51.165 43.0493 50.9745C42.7643 50.7841 42.5421 50.5134 42.4109 50.1966C42.2797 49.8799 42.2454 49.5314 42.3123 49.1952C42.3792 48.8589 42.5442 48.5501 42.7867 48.3077C43.0291 48.0653 43.3379 47.9002 43.6742 47.8333C44.0104 47.7664 44.3589 47.8007 44.6756 47.9319C44.9924 48.0631 45.2631 48.2853 45.4535 48.5703C45.644 48.8554 45.7456 49.1905 45.7456 49.5333C45.7456 49.993 45.563 50.4339 45.238 50.759C44.9129 51.084 44.472 51.2667 44.0123 51.2667Z" stroke="#6C7648" stroke-width="0.4"></path><path d="M7.48926 36.5333H11.677C11.8405 36.5333 12.0006 36.4871 12.1389 36.4C12.2772 36.3128 12.3881 36.1884 12.4587 36.0409C12.5293 35.8935 12.5567 35.7291 12.5379 35.5667C12.519 35.4043 12.4546 35.2506 12.3521 35.1233C11.4966 33.6193 10.8855 31.989 10.5417 30.2933C10.5189 30.1818 10.4744 30.0758 10.4107 29.9815C10.347 29.8872 10.2653 29.8063 10.1703 29.7435C10.0754 29.6808 9.96897 29.6373 9.85722 29.6157C9.74546 29.594 9.63053 29.5946 9.519 29.6173C9.40746 29.6401 9.3015 29.6846 9.20716 29.7483C9.11283 29.812 9.03197 29.8937 8.9692 29.9887C8.90642 30.0836 8.86297 30.19 8.84132 30.3018C8.81966 30.4135 8.82023 30.5285 8.843 30.64C9.13459 32.0778 9.60024 33.4748 10.2297 34.8H7.48926C7.27832 33.983 6.77667 33.271 6.07832 32.7975C5.37998 32.3239 4.5329 32.1213 3.69587 32.2276C2.85883 32.3339 2.0893 32.7419 1.53152 33.375C0.973745 34.0081 0.666016 34.8229 0.666016 35.6667C0.666016 36.5104 0.973745 37.3252 1.53152 37.9583C2.0893 38.5914 2.85883 38.9994 3.69587 39.1057C4.5329 39.212 5.37998 39.0094 6.07832 38.5358C6.77667 38.0623 7.27832 37.3503 7.48926 36.5333ZM4.14567 37.4C3.80285 37.4 3.46772 37.2983 3.18268 37.1079C2.89763 36.9174 2.67547 36.6467 2.54428 36.33C2.41308 36.0133 2.37876 35.6647 2.44564 35.3285C2.51252 34.9923 2.6776 34.6834 2.92001 34.441C3.16243 34.1986 3.47128 34.0335 3.80751 33.9666C4.14374 33.8998 4.49226 33.9341 4.80898 34.0653C5.12571 34.1965 5.39642 34.4186 5.58688 34.7037C5.77734 34.9887 5.879 35.3238 5.879 35.6667C5.879 36.1264 5.69638 36.5673 5.37132 36.8923C5.04625 37.2174 4.60537 37.4 4.14567 37.4Z" stroke="#6C7648" stroke-width="0.4"></path><path d="M0.679001 18.3333C0.677952 19.176 0.984489 19.9901 1.54108 20.6228C2.09767 21.2555 2.86604 21.6633 3.70197 21.7697C4.5379 21.8761 5.38393 21.6737 6.08124 21.2006C6.77856 20.7274 7.27922 20.0161 7.48926 19.2H11.677C11.8518 19.2001 12.0226 19.1474 12.1669 19.0487C12.3112 18.9501 12.4223 18.81 12.4856 18.6471C13.5895 16.7701 15.0557 15.1315 16.799 13.8267C16.89 13.7584 16.9668 13.6728 17.0247 13.5749C17.0827 13.477 17.1209 13.3686 17.1369 13.2559C17.153 13.1432 17.1468 13.0285 17.1185 12.9182C17.0903 12.808 17.0406 12.7044 16.9723 12.6133C16.904 12.5223 16.8185 12.4456 16.7206 12.3876C16.6226 12.3296 16.5142 12.2915 16.4016 12.2754C16.2889 12.2593 16.1742 12.2655 16.0639 12.2938C15.9537 12.322 15.85 12.3717 15.759 12.44C13.9273 13.8118 12.3713 15.5173 11.1726 17.4667H7.48926C7.27922 16.6506 6.77856 15.9392 6.08124 15.4661C5.38393 14.993 4.5379 14.7906 3.70197 14.897C2.86604 15.0034 2.09767 15.4112 1.54108 16.0439C0.984489 16.6766 0.677952 17.4907 0.679001 18.3333ZM5.879 18.3333C5.879 18.6762 5.77734 19.0113 5.58688 19.2963C5.39642 19.5814 5.12571 19.8035 4.80898 19.9347C4.49226 20.0659 4.14374 20.1002 3.80751 20.0334C3.47128 19.9665 3.16243 19.8014 2.92001 19.559C2.6776 19.3166 2.51252 19.0077 2.44564 18.6715C2.37876 18.3353 2.41308 17.9867 2.54428 17.67C2.67547 17.3533 2.89763 17.0826 3.18268 16.8921C3.46772 16.7017 3.80285 16.6 4.14567 16.6C4.60537 16.6 5.04625 16.7826 5.37132 17.1077C5.69638 17.4327 5.879 17.8736 5.879 18.3333Z" stroke="#6C7648" stroke-width="0.4"></path><path d="M49.2123 32.2C48.446 32.2029 47.7022 32.4596 47.0973 32.93C46.4923 33.4004 46.0603 34.058 45.8687 34.8H43.1274C43.7571 33.4749 44.2227 32.0779 44.5141 30.64C44.5601 30.4146 44.5146 30.1802 44.3878 29.9884C44.2609 29.7965 44.063 29.6629 43.8377 29.6169C43.6123 29.5709 43.3779 29.6164 43.186 29.7432C42.9942 29.8701 42.8605 30.068 42.8146 30.2933C42.4716 31.9879 41.861 33.6171 41.0058 35.1198C40.9023 35.2471 40.837 35.4012 40.8176 35.5641C40.7982 35.727 40.8254 35.8921 40.8961 36.0402C40.9669 36.1883 41.0782 36.3132 41.2171 36.4005C41.356 36.4878 41.5169 36.5339 41.681 36.5333H45.8687C46.0319 37.1595 46.3674 37.7275 46.8372 38.1726C47.3069 38.6177 47.8921 38.9222 48.5261 39.0514C49.1602 39.1807 49.8179 39.1296 50.4244 38.9039C51.0309 38.6782 51.5619 38.287 51.9573 37.7746C52.3526 37.2623 52.5963 36.6494 52.6608 36.0054C52.7253 35.3615 52.608 34.7124 52.3221 34.1319C52.0362 33.5513 51.5933 33.0625 51.0436 32.721C50.4939 32.3795 49.8594 32.199 49.2123 32.2ZM49.2123 37.4C48.8695 37.4 48.5344 37.2983 48.2493 37.1079C47.9643 36.9174 47.7421 36.6467 47.6109 36.33C47.4797 36.0133 47.4454 35.6647 47.5123 35.3285C47.5792 34.9923 47.7442 34.6834 47.9867 34.441C48.2291 34.1986 48.5379 34.0335 48.8741 33.9666C49.2104 33.8997 49.5589 33.9341 49.8756 34.0653C50.1924 34.1965 50.4631 34.4186 50.6535 34.7037C50.844 34.9887 50.9456 35.3238 50.9456 35.6667C50.9456 36.1264 50.763 36.5672 50.438 36.8923C50.1129 37.2174 49.672 37.4 49.2123 37.4Z" stroke="#6C7648" stroke-width="0.4"></path><path d="M49.2123 21.8C49.8612 21.8024 50.4978 21.6227 51.0496 21.2812C51.6014 20.9397 52.0463 20.4501 52.3336 19.8683C52.621 19.2864 52.7392 18.6356 52.6749 17.9899C52.6106 17.3441 52.3663 16.7294 51.9699 16.2156C51.5735 15.7018 51.0408 15.3097 50.4325 15.0837C49.8242 14.8577 49.1646 14.807 48.5289 14.9374C47.8932 15.0677 47.3069 15.3739 46.8366 15.821C46.3663 16.2682 46.0309 16.8383 45.8687 17.4667H41.6792C41.5157 17.4669 41.3555 17.5134 41.2173 17.6008C41.0791 17.6882 40.9684 17.813 40.898 17.9606C40.8277 18.1083 40.8006 18.2728 40.8198 18.4352C40.839 18.5977 40.9038 18.7513 41.0067 18.8785C42.41 21.3551 43.147 24.1534 43.1456 27C43.1456 27.2299 43.2369 27.4503 43.3995 27.6128C43.562 27.7754 43.7825 27.8667 44.0123 27.8667H51.8123C52.0422 27.8667 52.2626 27.7754 52.4251 27.6128C52.5877 27.4503 52.679 27.2299 52.679 27C52.679 26.7701 52.5877 26.5497 52.4251 26.3872C52.2626 26.2246 52.0422 26.1333 51.8123 26.1333H44.859C44.7442 23.7305 44.1551 21.3742 43.1257 19.2H45.867C46.0586 19.9423 46.4909 20.6001 47.0962 21.0705C47.7015 21.541 48.4457 21.7975 49.2123 21.8ZM49.2123 16.6C49.5551 16.6 49.8902 16.7017 50.1753 16.8921C50.4603 17.0826 50.6825 17.3533 50.8137 17.67C50.9449 17.9867 50.9792 18.3353 50.9123 18.6715C50.8455 19.0077 50.6804 19.3166 50.438 19.559C50.1955 19.8014 49.8867 19.9665 49.5505 20.0334C49.2142 20.1002 48.8657 20.0659 48.549 19.9347C48.2323 19.8035 47.9616 19.5814 47.7711 19.2963C47.5806 19.0113 47.479 18.6762 47.479 18.3333C47.479 17.8736 47.6616 17.4327 47.9867 17.1077C48.3117 16.7826 48.7526 16.6 49.2123 16.6Z" stroke="#6C7648" stroke-width="0.4"></path><path d="M29.9723 43.1373C27.7985 43.5739 25.5595 43.5739 23.3857 43.1373C23.273 43.1115 23.1563 43.1084 23.0425 43.1284C22.9287 43.1483 22.82 43.1908 22.7228 43.2533C22.6256 43.3159 22.5419 43.3972 22.4767 43.4926C22.4114 43.588 22.3659 43.6954 22.3427 43.8087C22.3196 43.9219 22.3194 44.0386 22.342 44.1519C22.3647 44.2653 22.4098 44.3729 22.4746 44.4686C22.5395 44.5642 22.6229 44.6459 22.7198 44.7089C22.8167 44.7718 22.9252 44.8147 23.039 44.8351C23.9539 45.0129 24.881 45.1204 25.8123 45.1567V52.1333C25.8123 52.3632 25.9036 52.5836 26.0662 52.7461C26.2287 52.9087 26.4491 53 26.679 53C26.9088 53 27.1293 52.9087 27.2918 52.7461C27.4543 52.5836 27.5457 52.3632 27.5457 52.1333V45.1567C28.4769 45.1204 29.4041 45.0129 30.319 44.8351C30.5395 44.7845 30.7315 44.6497 30.8539 44.4595C30.9764 44.2693 31.0196 44.0387 30.9744 43.817C30.9291 43.5953 30.7989 43.4002 30.6117 43.2732C30.4245 43.1462 30.195 43.0974 29.9723 43.1373Z" stroke="#6C7648" stroke-width="0.4"></path><path d="M18.879 3.60001H12.6893C12.4783 2.78304 11.9767 2.07104 11.2783 1.59749C10.58 1.12393 9.7329 0.921321 8.89586 1.02764C8.05883 1.13396 7.2893 1.5419 6.73152 2.17501C6.17374 2.80811 5.86601 3.62291 5.86601 4.46667C5.86601 5.31044 6.17374 6.12524 6.73152 6.75834C7.2893 7.39145 8.05883 7.79939 8.89586 7.90571C9.7329 8.01203 10.58 7.80942 11.2783 7.33586C11.9767 6.8623 12.4783 6.15031 12.6893 5.33334H18.879V11.114C18.8789 11.2655 18.9186 11.4143 18.994 11.5457C19.0694 11.6771 19.1779 11.7864 19.3087 11.8628C19.4395 11.9392 19.5881 11.9799 19.7396 11.981C19.8911 11.9821 20.0402 11.9434 20.1721 11.8689C21.2054 11.4239 22.2821 11.087 23.3848 10.8635C23.4964 10.8408 23.6024 10.7963 23.6968 10.7325C23.7912 10.6688 23.8721 10.5871 23.9349 10.4921C23.9977 10.3971 24.0412 10.2906 24.0629 10.1788C24.0845 10.067 24.084 9.95203 24.0612 9.84044C24.0385 9.72884 23.9939 9.62283 23.9302 9.52844C23.8665 9.43405 23.7848 9.35314 23.6898 9.29033C23.5948 9.22752 23.4883 9.18403 23.3765 9.16236C23.2647 9.14068 23.1497 9.14124 23.0381 9.16401C22.2149 9.33301 21.4043 9.55888 20.6123 9.84V5.33334C20.6123 4.87363 20.4297 4.43275 20.1046 4.10769C19.7796 3.78263 19.3387 3.60001 18.879 3.60001ZM9.34566 6.20001C9.00284 6.20001 8.66772 6.09835 8.38268 5.90789C8.09763 5.71743 7.87546 5.44672 7.74427 5.12999C7.61308 4.81327 7.57875 4.46475 7.64564 4.12852C7.71252 3.79228 7.8776 3.48343 8.12001 3.24102C8.36242 2.99861 8.67127 2.83353 9.00751 2.76665C9.34374 2.69977 9.69226 2.73409 10.009 2.86528C10.3257 2.99648 10.5964 3.21864 10.7869 3.50369C10.9773 3.78873 11.079 4.12385 11.079 4.46667C11.079 4.92638 10.8964 5.36726 10.5713 5.69232C10.2463 6.01739 9.80537 6.20001 9.34566 6.20001Z" stroke="#6C7648" stroke-width="0.4"></path><path d="M40.6687 5.33334C40.8797 6.15031 41.3813 6.8623 42.0797 7.33586C42.778 7.80942 43.6251 8.01203 44.4621 7.90571C45.2992 7.79939 46.0687 7.39145 46.6265 6.75834C47.1842 6.12524 47.492 5.31044 47.492 4.46667C47.492 3.62291 47.1842 2.80811 46.6265 2.17501C46.0687 1.5419 45.2992 1.13396 44.4621 1.02764C43.6251 0.921321 42.778 1.12393 42.0797 1.59749C41.3813 2.07104 40.8797 2.78304 40.6687 3.60001H34.479C34.0193 3.60001 33.5784 3.78263 33.2533 4.10769C32.9283 4.43275 32.7457 4.87363 32.7457 5.33334V11.1157C32.7462 11.2997 32.8053 11.4788 32.9143 11.6269C33.0234 11.7751 33.1768 11.8847 33.3523 11.9399C35.2562 12.7847 36.9821 13.9838 38.4379 15.4733C38.5176 15.5548 38.6125 15.6198 38.7173 15.6646C38.8221 15.7094 38.9347 15.7331 39.0486 15.7344C39.1626 15.7357 39.2757 15.7145 39.3815 15.6721C39.4872 15.6297 39.5836 15.5669 39.6651 15.4872C39.7466 15.4075 39.8116 15.3126 39.8564 15.2078C39.9012 15.103 39.9249 14.9904 39.9262 14.8765C39.9275 14.7625 39.9063 14.6494 39.8639 14.5437C39.8215 14.4379 39.7586 14.3415 39.679 14.26C38.1785 12.7262 36.4179 11.4706 34.479 10.5515V5.33334H40.6687ZM44.0123 2.73334C44.3551 2.73334 44.6903 2.835 44.9753 3.02546C45.2603 3.21592 45.4825 3.48663 45.6137 3.80336C45.7449 4.12008 45.7792 4.4686 45.7123 4.80483C45.6455 5.14106 45.4804 5.44991 45.238 5.69232C44.9956 5.93474 44.6867 6.09982 44.3505 6.1667C44.0142 6.23358 43.6657 6.19926 43.349 6.06806C43.0323 5.93687 42.7616 5.71471 42.5711 5.42966C42.3806 5.14462 42.279 4.80949 42.279 4.46667C42.279 4.00697 42.4616 3.56609 42.7867 3.24102C43.1117 2.91596 43.5526 2.73334 44.0123 2.73334Z" stroke="#6C7648" stroke-width="0.4"></path><path d="M20.0057 42.0601C17.7591 41.0585 15.763 39.5704 14.1617 37.7033C14.0888 37.6135 13.9986 37.5392 13.8965 37.4849C13.7944 37.4305 13.6825 37.3971 13.5672 37.3866C13.452 37.3762 13.3359 37.3889 13.2257 37.4241C13.1155 37.4592 13.0134 37.5161 12.9255 37.5913C12.8376 37.6665 12.7657 37.7586 12.7139 37.862C12.6622 37.9655 12.6316 38.0783 12.6242 38.1937C12.6167 38.3092 12.6324 38.4249 12.6704 38.5342C12.7083 38.6435 12.7678 38.7441 12.8453 38.83C14.5125 40.7733 16.5678 42.3465 18.879 43.4485V48.6667H12.6893C12.4783 47.8497 11.9767 47.1377 11.2783 46.6641C10.58 46.1906 9.7329 45.988 8.89586 46.0943C8.05883 46.2006 7.2893 46.6085 6.73152 47.2417C6.17374 47.8748 5.86601 48.6896 5.86601 49.5333C5.86601 50.3771 6.17374 51.1919 6.73152 51.825C7.2893 52.4581 8.05883 52.866 8.89586 52.9724C9.7329 53.0787 10.58 52.8761 11.2783 52.4025C11.9767 51.929 12.4783 51.217 12.6893 50.4H18.879C19.3387 50.4 19.7796 50.2174 20.1046 49.8923C20.4297 49.5672 20.6123 49.1264 20.6123 48.6667V42.886C20.6122 42.7017 20.5532 42.5223 20.4441 42.3737C20.3351 42.2252 20.1815 42.1153 20.0057 42.0601ZM9.34566 51.2667C9.00284 51.2667 8.66772 51.165 8.38268 50.9745C8.09763 50.7841 7.87546 50.5134 7.74427 50.1966C7.61308 49.8799 7.57875 49.5314 7.64564 49.1952C7.71252 48.8589 7.8776 48.5501 8.12001 48.3077C8.36242 48.0653 8.67127 47.9002 9.00751 47.8333C9.34374 47.7664 9.69226 47.8007 10.009 47.9319C10.3257 48.0631 10.5964 48.2853 10.7869 48.5703C10.9773 48.8554 11.079 49.1905 11.079 49.5333C11.079 49.993 10.8964 50.4339 10.5713 50.759C10.2463 51.084 9.80537 51.2667 9.34566 51.2667Z" stroke="#6C7648" stroke-width="0.4"></path><path d="M26.679 1.00001C26.4491 1.00001 26.2287 1.09132 26.0662 1.25385C25.9036 1.41638 25.8123 1.63682 25.8123 1.86667V9.66667C25.8123 9.89653 25.9036 10.117 26.0662 10.2795C26.2287 10.442 26.4491 10.5333 26.679 10.5333C27.785 10.5331 28.8883 10.6434 29.9723 10.8627C30.0293 10.8744 30.0874 10.8802 30.1457 10.88C30.3598 10.8792 30.5662 10.7991 30.7248 10.6551C30.8834 10.5112 30.9831 10.3136 31.0046 10.1005C31.0261 9.88738 30.968 9.67384 30.8414 9.50107C30.7148 9.3283 30.5287 9.20853 30.319 9.16487C29.4048 8.97834 28.4776 8.86244 27.5457 8.8182V1.86667C27.5457 1.63682 27.4543 1.41638 27.2918 1.25385C27.1293 1.09132 26.9088 1.00001 26.679 1.00001Z" stroke="#6C7648" stroke-width="0.4"></path><path d="M1.54567 27.8667H9.34566C9.57552 27.8667 9.79596 27.7754 9.95849 27.6128C10.121 27.4503 10.2123 27.2299 10.2123 27C10.2105 25.2489 10.4881 23.5087 11.0348 21.8451C11.0704 21.7369 11.0843 21.6229 11.0758 21.5094C11.0672 21.3959 11.0365 21.2852 10.9852 21.1836C10.9339 21.082 10.863 20.9915 10.7768 20.9172C10.6905 20.843 10.5904 20.7865 10.4823 20.7509C10.3742 20.7153 10.2601 20.7014 10.1466 20.7099C10.0331 20.7184 9.92239 20.7492 9.82079 20.8005C9.71918 20.8518 9.62868 20.9227 9.55445 21.0089C9.48021 21.0952 9.4237 21.1953 9.38813 21.3034C8.87449 22.8657 8.57536 24.4905 8.49893 26.1333H1.54567C1.31581 26.1333 1.09537 26.2246 0.932842 26.3872C0.77031 26.5497 0.679001 26.7701 0.679001 27C0.679001 27.2299 0.77031 27.4503 0.932842 27.6128C1.09537 27.7754 1.31581 27.8667 1.54567 27.8667Z" stroke="#6C7648" stroke-width="0.4"></path></svg>