<svg xmlns="http://www.w3.org/2000/svg" width="81" height="80" viewBox="0 0 81 80" fill="none"><rect x="0.332031" width="80" height="80" rx="40" fill="#CA732F"></rect><path d="M56.5835 24.25C56.5835 21.3553 54.2285 19 51.3335 19H29.3281C26.4332 19 24.0781 21.3553 24.0781 24.25V55.75C24.0781 58.6447 26.4332 61 29.3281 61H51.3335C54.2285 61 56.5835 58.6447 56.5835 55.75V24.25ZM29.3281 20.05H51.3335C53.6494 20.05 55.5335 21.9342 55.5335 24.25V51.4075H25.1281V24.25C25.1281 21.9342 27.0123 20.05 29.3281 20.05ZM51.3335 59.95H29.3281C27.0123 59.95 25.1281 58.0658 25.1281 55.75V52.4575H55.5335V55.75C55.5335 58.0658 53.6494 59.95 51.3335 59.95Z" fill="#FBFDFA"></path><path d="M41.6405 54.1181H39.0211C37.8889 54.1181 36.9678 55.0394 36.9678 56.1714C36.9678 57.3035 37.8889 58.2248 39.0211 58.2248H41.6405C42.7728 58.2248 43.6938 57.3035 43.6938 56.1714C43.6938 55.0394 42.7728 54.1181 41.6405 54.1181ZM41.6405 57.1748H39.0211C38.4679 57.1748 38.0178 56.7246 38.0178 56.1714C38.0178 55.6182 38.4679 55.1681 39.0211 55.1681H41.6405C42.1937 55.1681 42.6438 55.6182 42.6438 56.1714C42.6438 56.7246 42.1937 57.1748 41.6405 57.1748Z" fill="#FBFDFA"></path><path d="M36.1349 23.7583H40.5987C40.8886 23.7583 41.1237 23.5235 41.1237 23.2333C41.1237 22.9431 40.8886 22.7083 40.5987 22.7083H36.1349C35.845 22.7083 35.6099 22.9431 35.6099 23.2333C35.6099 23.5235 35.845 23.7583 36.1349 23.7583Z" fill="#FBFDFA"></path><path d="M43.4793 23.7583H44.5267C44.8167 23.7583 45.0517 23.5235 45.0517 23.2333C45.0517 22.9431 44.8167 22.7083 44.5267 22.7083H43.4793C43.1894 22.7083 42.9543 22.9431 42.9543 23.2333C42.9543 23.5235 43.1894 23.7583 43.4793 23.7583Z" fill="#FBFDFA"></path><path d="M40.3747 49.065C45.0451 49.065 48.8449 45.2654 48.8449 40.5947C48.8449 38.1034 47.7573 35.8671 46.0397 34.3158V32.1429C46.0397 29.0027 43.4849 26.4479 40.3447 26.4479C37.2044 26.4479 34.6496 29.0027 34.6496 32.1429V34.3702C32.9667 35.9192 31.9042 38.1324 31.9042 40.5947C31.9042 45.2654 35.704 49.065 40.3747 49.065ZM35.6996 32.1429C35.6996 29.5815 37.7835 27.4979 40.3447 27.4979C42.9058 27.4979 44.9897 29.5815 44.9897 32.1429V33.5016C43.6605 32.6338 42.077 32.1245 40.3747 32.1245C38.6473 32.1245 37.0406 32.6467 35.6996 33.538V32.1429ZM40.3747 33.1745C44.4662 33.1745 47.7949 36.5034 47.7949 40.5947C47.7949 44.686 44.4662 48.015 40.3747 48.015C36.2831 48.015 32.9542 44.686 32.9542 40.5947C32.9542 36.5034 36.2831 33.1745 40.3747 33.1745Z" fill="#FBFDFA"></path><path d="M40.3747 46.4559C43.6064 46.4559 46.2355 43.8268 46.2355 40.5947C46.2355 37.3627 43.6064 34.7336 40.3747 34.7336C37.1429 34.7336 34.5135 37.3627 34.5135 40.5947C34.5135 43.8268 37.1429 46.4559 40.3747 46.4559ZM36.4031 40.0338H35.5991C35.7083 39.0993 36.0842 38.2452 36.6516 37.5522L37.1829 38.0835C37.2854 38.1861 37.4197 38.2374 37.5541 38.2374C37.6884 38.2374 37.8227 38.1861 37.9253 38.0835C38.1303 37.8785 38.1303 37.5462 37.9253 37.3412L37.4028 36.8187C38.0951 36.2727 38.9381 35.9105 39.8604 35.812V36.5337C39.8604 36.8239 40.0955 37.0587 40.3854 37.0587C40.6754 37.0587 40.9104 36.8239 40.9104 36.5337V35.8153C41.8219 35.9169 42.6555 36.2755 43.3413 36.815L42.8453 37.3109C42.6403 37.516 42.6403 37.8482 42.8453 38.0533C42.9479 38.1558 43.0822 38.2071 43.2165 38.2071C43.3509 38.2071 43.4852 38.1558 43.5877 38.0533L44.0938 37.5472C44.6634 38.2411 45.0405 39.0971 45.15 40.0338H44.4542C44.1642 40.0338 43.9292 40.2687 43.9292 40.5588C43.9292 40.849 44.1642 41.0838 44.4542 41.0838H45.1607C45.0662 42.016 44.7015 42.8679 44.1505 43.5665L43.6185 43.0341C43.4134 42.8291 43.0809 42.8291 42.8758 43.0341C42.6708 43.2387 42.6708 43.5714 42.8756 43.7765L43.4167 44.318C42.7175 44.8904 41.8547 45.2689 40.9104 45.3741V44.5845C40.9104 44.2943 40.6754 44.0595 40.3854 44.0595C40.0955 44.0595 39.8604 44.2943 39.8604 44.5845V45.3774C38.9051 45.2754 38.0325 44.8932 37.327 44.314L37.8948 43.7463C38.0998 43.5412 38.0998 43.209 37.8948 43.0039C37.6897 42.7988 37.3574 42.7988 37.1524 43.0039L36.5948 43.5614C36.0461 42.8637 35.6827 42.0138 35.5883 41.0838H36.4031C36.693 41.0838 36.9281 40.849 36.9281 40.5588C36.9281 40.2687 36.693 40.0338 36.4031 40.0338Z" fill="#FBFDFA"></path><path d="M40.3854 42.6173C41.5503 42.6173 42.4977 41.6698 42.4977 40.505C42.4977 39.3402 41.5503 38.3927 40.3854 38.3927C39.2206 38.3927 38.2731 39.3402 38.2731 40.505C38.2731 41.6698 39.2206 42.6173 40.3854 42.6173ZM40.3854 39.4427C40.9712 39.4427 41.4477 39.919 41.4477 40.505C41.4477 41.091 40.9712 41.5673 40.3854 41.5673C39.7997 41.5673 39.3231 41.091 39.3231 40.505C39.3231 39.919 39.7997 39.4427 40.3854 39.4427Z" fill="#FBFDFA"></path><path d="M56.5835 24.25C56.5835 21.3553 54.2285 19 51.3335 19H29.3281C26.4332 19 24.0781 21.3553 24.0781 24.25V55.75C24.0781 58.6447 26.4332 61 29.3281 61H51.3335C54.2285 61 56.5835 58.6447 56.5835 55.75V24.25ZM29.3281 20.05H51.3335C53.6494 20.05 55.5335 21.9342 55.5335 24.25V51.4075H25.1281V24.25C25.1281 21.9342 27.0123 20.05 29.3281 20.05ZM51.3335 59.95H29.3281C27.0123 59.95 25.1281 58.0658 25.1281 55.75V52.4575H55.5335V55.75C55.5335 58.0658 53.6494 59.95 51.3335 59.95Z" stroke="#FBFDFA" stroke-width="0.4"></path><path d="M41.6405 54.1181H39.0211C37.8889 54.1181 36.9678 55.0394 36.9678 56.1714C36.9678 57.3035 37.8889 58.2248 39.0211 58.2248H41.6405C42.7728 58.2248 43.6938 57.3035 43.6938 56.1714C43.6938 55.0394 42.7728 54.1181 41.6405 54.1181ZM41.6405 57.1748H39.0211C38.4679 57.1748 38.0178 56.7246 38.0178 56.1714C38.0178 55.6182 38.4679 55.1681 39.0211 55.1681H41.6405C42.1937 55.1681 42.6438 55.6182 42.6438 56.1714C42.6438 56.7246 42.1937 57.1748 41.6405 57.1748Z" stroke="#FBFDFA" stroke-width="0.4"></path><path d="M36.1349 23.7583H40.5987C40.8886 23.7583 41.1237 23.5235 41.1237 23.2333C41.1237 22.9431 40.8886 22.7083 40.5987 22.7083H36.1349C35.845 22.7083 35.6099 22.9431 35.6099 23.2333C35.6099 23.5235 35.845 23.7583 36.1349 23.7583Z" stroke="#FBFDFA" stroke-width="0.4"></path><path d="M43.4793 23.7583H44.5267C44.8167 23.7583 45.0517 23.5235 45.0517 23.2333C45.0517 22.9431 44.8167 22.7083 44.5267 22.7083H43.4793C43.1894 22.7083 42.9543 22.9431 42.9543 23.2333C42.9543 23.5235 43.1894 23.7583 43.4793 23.7583Z" stroke="#FBFDFA" stroke-width="0.4"></path><path d="M40.3747 49.065C45.0451 49.065 48.8449 45.2654 48.8449 40.5947C48.8449 38.1034 47.7573 35.8671 46.0397 34.3158V32.1429C46.0397 29.0027 43.4849 26.4479 40.3447 26.4479C37.2044 26.4479 34.6496 29.0027 34.6496 32.1429V34.3702C32.9667 35.9192 31.9042 38.1324 31.9042 40.5947C31.9042 45.2654 35.704 49.065 40.3747 49.065ZM35.6996 32.1429C35.6996 29.5815 37.7835 27.4979 40.3447 27.4979C42.9058 27.4979 44.9897 29.5815 44.9897 32.1429V33.5016C43.6605 32.6338 42.077 32.1245 40.3747 32.1245C38.6473 32.1245 37.0406 32.6467 35.6996 33.538V32.1429ZM40.3747 33.1745C44.4662 33.1745 47.7949 36.5034 47.7949 40.5947C47.7949 44.686 44.4662 48.015 40.3747 48.015C36.2831 48.015 32.9542 44.686 32.9542 40.5947C32.9542 36.5034 36.2831 33.1745 40.3747 33.1745Z" stroke="#FBFDFA" stroke-width="0.4"></path><path d="M40.3747 46.4559C43.6064 46.4559 46.2355 43.8268 46.2355 40.5947C46.2355 37.3627 43.6064 34.7336 40.3747 34.7336C37.1429 34.7336 34.5135 37.3627 34.5135 40.5947C34.5135 43.8268 37.1429 46.4559 40.3747 46.4559ZM36.4031 40.0338H35.5991C35.7083 39.0993 36.0842 38.2452 36.6516 37.5522L37.1829 38.0835C37.2854 38.1861 37.4197 38.2374 37.5541 38.2374C37.6884 38.2374 37.8227 38.1861 37.9253 38.0835C38.1303 37.8785 38.1303 37.5462 37.9253 37.3412L37.4028 36.8187C38.0951 36.2727 38.9381 35.9105 39.8604 35.812V36.5337C39.8604 36.8239 40.0955 37.0587 40.3854 37.0587C40.6754 37.0587 40.9104 36.8239 40.9104 36.5337V35.8153C41.8219 35.9169 42.6555 36.2755 43.3413 36.815L42.8453 37.3109C42.6403 37.516 42.6403 37.8482 42.8453 38.0533C42.9479 38.1558 43.0822 38.2071 43.2165 38.2071C43.3509 38.2071 43.4852 38.1558 43.5877 38.0533L44.0938 37.5472C44.6634 38.2411 45.0405 39.0971 45.15 40.0338H44.4542C44.1642 40.0338 43.9292 40.2687 43.9292 40.5588C43.9292 40.849 44.1642 41.0838 44.4542 41.0838H45.1607C45.0662 42.016 44.7015 42.8679 44.1505 43.5665L43.6185 43.0341C43.4134 42.8291 43.0809 42.8291 42.8758 43.0341C42.6708 43.2387 42.6708 43.5714 42.8756 43.7765L43.4167 44.318C42.7175 44.8904 41.8547 45.2689 40.9104 45.3741V44.5845C40.9104 44.2943 40.6754 44.0595 40.3854 44.0595C40.0955 44.0595 39.8604 44.2943 39.8604 44.5845V45.3774C38.9051 45.2754 38.0325 44.8932 37.327 44.314L37.8948 43.7463C38.0998 43.5412 38.0998 43.209 37.8948 43.0039C37.6897 42.7988 37.3574 42.7988 37.1524 43.0039L36.5948 43.5614C36.0461 42.8637 35.6827 42.0138 35.5883 41.0838H36.4031C36.693 41.0838 36.9281 40.849 36.9281 40.5588C36.9281 40.2687 36.693 40.0338 36.4031 40.0338Z" stroke="#FBFDFA" stroke-width="0.4"></path><path d="M40.3854 42.6173C41.5503 42.6173 42.4977 41.6698 42.4977 40.505C42.4977 39.3402 41.5503 38.3927 40.3854 38.3927C39.2206 38.3927 38.2731 39.3402 38.2731 40.505C38.2731 41.6698 39.2206 42.6173 40.3854 42.6173ZM40.3854 39.4427C40.9712 39.4427 41.4477 39.919 41.4477 40.505C41.4477 41.091 40.9712 41.5673 40.3854 41.5673C39.7997 41.5673 39.3231 41.091 39.3231 40.505C39.3231 39.919 39.7997 39.4427 40.3854 39.4427Z" stroke="#FBFDFA" stroke-width="0.4"></path></svg>