<svg xmlns="http://www.w3.org/2000/svg" width="81" height="80" viewBox="0 0 81 80" fill="none"><rect x="0.667969" width="80" height="80" rx="40" fill="#CA732F"></rect><path d="M37.3329 46.6667H43.9996C44.53 46.6667 45.0387 46.4559 45.4138 46.0809C45.7888 45.7058 45.9996 45.1971 45.9996 44.6667V38.6667C45.9996 38.1362 45.7888 37.6275 45.4138 37.2525C45.0387 36.8774 44.53 36.6667 43.9996 36.6667V35.3333C43.9996 34.4493 43.6484 33.6014 43.0233 32.9763C42.3981 32.3512 41.5503 32 40.6662 32C39.7822 32 38.9343 32.3512 38.3092 32.9763C37.6841 33.6014 37.3329 34.4493 37.3329 35.3333V36.6667C36.8025 36.6667 36.2938 36.8774 35.9187 37.2525C35.5436 37.6275 35.3329 38.1362 35.3329 38.6667V44.6667C35.3329 45.1971 35.5436 45.7058 35.9187 46.0809C36.2938 46.4559 36.8025 46.6667 37.3329 46.6667ZM38.6662 35.3333C38.6662 34.8029 38.8769 34.2942 39.252 33.9191C39.6271 33.544 40.1358 33.3333 40.6662 33.3333C41.1967 33.3333 41.7054 33.544 42.0804 33.9191C42.4555 34.2942 42.6662 34.8029 42.6662 35.3333V36.6667H38.6662V35.3333ZM36.6662 38.6667C36.6662 38.4899 36.7365 38.3203 36.8615 38.1953C36.9865 38.0702 37.1561 38 37.3329 38H43.9996C44.1764 38 44.3459 38.0702 44.471 38.1953C44.596 38.3203 44.6662 38.4899 44.6662 38.6667V44.6667C44.6662 44.8435 44.596 45.013 44.471 45.1381C44.3459 45.2631 44.1764 45.3333 43.9996 45.3333H37.3329C37.1561 45.3333 36.9865 45.2631 36.8615 45.1381C36.7365 45.013 36.6662 44.8435 36.6662 44.6667V38.6667Z" fill="#FBFDFA"></path><path d="M39.9996 43.2107V43.3333C39.9996 43.5101 40.0698 43.6797 40.1948 43.8047C40.3198 43.9298 40.4894 44 40.6662 44C40.843 44 41.0126 43.9298 41.1376 43.8047C41.2627 43.6797 41.3329 43.5101 41.3329 43.3333V43.2107C41.7777 43.0534 42.1526 42.744 42.3913 42.337C42.63 41.9301 42.7172 41.4518 42.6374 40.9868C42.5576 40.5218 42.316 40.1 41.9553 39.7959C41.5946 39.4918 41.138 39.325 40.6662 39.325C40.1944 39.325 39.7378 39.4918 39.3771 39.7959C39.0164 40.1 38.7748 40.5218 38.695 40.9868C38.6153 41.4518 38.7024 41.9301 38.9411 42.337C39.1799 42.744 39.5548 43.0534 39.9996 43.2107ZM40.6662 40.6667C40.7981 40.6667 40.927 40.7058 41.0366 40.779C41.1462 40.8523 41.2317 40.9564 41.2821 41.0782C41.3326 41.2 41.3458 41.3341 41.3201 41.4634C41.2944 41.5927 41.2309 41.7115 41.1376 41.8047C41.0444 41.898 40.9256 41.9615 40.7963 41.9872C40.667 42.0129 40.5329 41.9997 40.4111 41.9493C40.2893 41.8988 40.1852 41.8133 40.1119 41.7037C40.0387 41.5941 39.9996 41.4652 39.9996 41.3333C39.9996 41.1565 40.0698 40.9869 40.1948 40.8619C40.3198 40.7369 40.4894 40.6667 40.6662 40.6667Z" fill="#FBFDFA"></path><path d="M29.3329 40C29.3329 42.2415 29.9976 44.4327 31.2429 46.2965C32.4882 48.1602 34.2583 49.6128 36.3292 50.4706C38.4 51.3284 40.6788 51.5529 42.8773 51.1156C45.0757 50.6783 47.0951 49.5989 48.6801 48.0139C50.2651 46.4289 51.3445 44.4095 51.7818 42.211C52.2191 40.0126 51.9947 37.7338 51.1369 35.6629C50.2791 33.592 48.8264 31.822 46.9627 30.5767C45.0989 29.3314 42.9077 28.6667 40.6662 28.6667C37.6615 28.67 34.7807 29.8651 32.6561 31.9898C30.5314 34.1145 29.3363 36.9952 29.3329 40ZM40.6662 30C42.644 30 44.5774 30.5865 46.2219 31.6853C47.8664 32.7841 49.1481 34.3459 49.905 36.1732C50.6619 38.0004 50.8599 40.0111 50.4741 41.9509C50.0882 43.8907 49.1358 45.6725 47.7373 47.0711C46.3388 48.4696 44.5569 49.422 42.6171 49.8078C40.6773 50.1937 38.6667 49.9957 36.8394 49.2388C35.0121 48.4819 33.4504 47.2002 32.3515 45.5557C31.2527 43.9112 30.6662 41.9778 30.6662 40C30.6692 37.3488 31.7238 34.807 33.5985 32.9322C35.4732 31.0575 38.015 30.003 40.6662 30Z" fill="#FBFDFA"></path><path d="M53.9996 54.6667C53.4101 54.6689 52.8379 54.8663 52.3726 55.2282C51.9073 55.59 51.5749 56.0959 51.4276 56.6667H46.6662V52.6527C48.1577 51.9457 49.512 50.9799 50.6662 49.8C50.729 49.7378 50.7787 49.6637 50.8126 49.5822C50.8465 49.5006 50.8638 49.413 50.8636 49.3247C50.8633 49.2363 50.8455 49.1489 50.8112 49.0675C50.7769 48.9861 50.7267 48.9123 50.6636 48.8505C50.6005 48.7886 50.5258 48.7399 50.4437 48.7072C50.3616 48.6745 50.2739 48.6585 50.1855 48.66C50.0972 48.6615 50.01 48.6805 49.9291 48.716C49.8482 48.7515 49.7752 48.8027 49.7142 48.8667C48.5935 50.0128 47.265 50.9352 45.7996 51.5847C45.6643 51.6272 45.5462 51.7117 45.4623 51.826C45.3783 51.9402 45.333 52.0782 45.3329 52.22V56.6667C45.3329 57.0203 45.4734 57.3594 45.7234 57.6095C45.9735 57.8595 46.3126 58 46.6662 58H51.4276C51.5531 58.4817 51.8112 58.9185 52.1725 59.2609C52.5339 59.6033 52.984 59.8376 53.4717 59.937C53.9595 60.0364 54.4654 59.9971 54.9319 59.8235C55.3984 59.6499 55.807 59.349 56.1111 58.9548C56.4152 58.5607 56.6027 58.0892 56.6523 57.5939C56.7019 57.0986 56.6116 56.5993 56.3917 56.1527C56.1718 55.7061 55.8311 55.3301 55.4082 55.0675C54.9854 54.8048 54.4973 54.6659 53.9996 54.6667ZM53.9996 58.6667C53.7358 58.6667 53.4781 58.5885 53.2588 58.442C53.0395 58.2954 52.8686 58.0872 52.7677 57.8436C52.6668 57.5999 52.6404 57.3318 52.6918 57.0732C52.7433 56.8146 52.8703 56.577 53.0567 56.3905C53.2432 56.204 53.4808 56.0771 53.7394 56.0256C53.9981 55.9742 54.2662 56.0006 54.5098 56.1015C54.7534 56.2024 54.9617 56.3733 55.1082 56.5926C55.2547 56.8118 55.3329 57.0696 55.3329 57.3333C55.3329 57.6869 55.1924 58.0261 54.9424 58.2761C54.6923 58.5262 54.3532 58.6667 53.9996 58.6667Z" fill="#FBFDFA"></path><path d="M25.9049 47.3333H29.1262C29.252 47.3333 29.3752 47.2978 29.4816 47.2307C29.5879 47.1637 29.6732 47.068 29.7275 46.9546C29.7818 46.8411 29.8029 46.7147 29.7884 46.5898C29.7739 46.4649 29.7244 46.3466 29.6456 46.2487C28.9875 45.0918 28.5174 43.8377 28.2529 42.5333C28.2354 42.4475 28.2012 42.366 28.1521 42.2935C28.1031 42.2209 28.0403 42.1587 27.9673 42.1104C27.8942 42.0621 27.8124 42.0287 27.7264 42.012C27.6404 41.9954 27.552 41.9958 27.4662 42.0133C27.3804 42.0308 27.2989 42.0651 27.2264 42.1141C27.1538 42.1631 27.0916 42.2259 27.0433 42.299C26.995 42.372 26.9616 42.4539 26.9449 42.5398C26.9283 42.6258 26.9287 42.7142 26.9462 42.8C27.1705 43.906 27.5287 44.9806 28.0129 46H25.9049C25.7426 45.3716 25.3568 44.8239 24.8196 44.4596C24.2824 44.0953 23.6308 43.9395 22.9869 44.0212C22.343 44.103 21.7511 44.4168 21.322 44.9038C20.893 45.3908 20.6562 46.0176 20.6562 46.6667C20.6562 47.3157 20.893 47.9425 21.322 48.4295C21.7511 48.9165 22.343 49.2303 22.9869 49.3121C23.6308 49.3939 24.2824 49.238 24.8196 48.8737C25.3568 48.5095 25.7426 47.9618 25.9049 47.3333ZM23.3329 48C23.0692 48 22.8114 47.9218 22.5921 47.7753C22.3729 47.6288 22.202 47.4205 22.1011 47.1769C22.0001 46.9333 21.9737 46.6652 22.0252 46.4065C22.0766 46.1479 22.2036 45.9103 22.3901 45.7239C22.5766 45.5374 22.8141 45.4104 23.0728 45.3589C23.3314 45.3075 23.5995 45.3339 23.8431 45.4348C24.0868 45.5357 24.295 45.7066 24.4415 45.9259C24.588 46.1452 24.6662 46.403 24.6662 46.6667C24.6662 47.0203 24.5258 47.3594 24.2757 47.6095C24.0257 47.8595 23.6865 48 23.3329 48Z" fill="#FBFDFA"></path><path d="M20.6662 33.3333C20.6654 33.9815 20.9012 34.6078 21.3294 35.0945C21.7575 35.5812 22.3486 35.8949 22.9916 35.9767C23.6346 36.0585 24.2854 35.9029 24.8218 35.5389C25.3582 35.175 25.7433 34.6278 25.9049 34H29.1262C29.2607 34.0001 29.3921 33.9595 29.5031 33.8836C29.6141 33.8077 29.6996 33.7 29.7482 33.5747C30.5974 32.1308 31.7253 30.8704 33.0662 29.8667C33.1363 29.8141 33.1953 29.7483 33.2399 29.673C33.2845 29.5977 33.3138 29.5143 33.3262 29.4276C33.3386 29.3409 33.3338 29.2527 33.312 29.1679C33.2903 29.0831 33.2521 29.0034 33.1996 28.9333C33.147 28.8633 33.0812 28.8043 33.0059 28.7597C32.9306 28.7151 32.8472 28.6858 32.7605 28.6734C32.6738 28.661 32.5856 28.6658 32.5008 28.6875C32.416 28.7093 32.3363 28.7475 32.2662 28.8C30.8573 29.8553 29.6603 31.1671 28.7382 32.6667H25.9049C25.7433 32.0389 25.3582 31.4917 24.8218 31.1278C24.2854 30.7638 23.6346 30.6081 22.9916 30.69C22.3486 30.7718 21.7575 31.0855 21.3294 31.5722C20.9012 32.0589 20.6654 32.6851 20.6662 33.3333ZM24.6662 33.3333C24.6662 33.597 24.588 33.8548 24.4415 34.0741C24.295 34.2934 24.0868 34.4643 23.8431 34.5652C23.5995 34.6661 23.3314 34.6925 23.0728 34.641C22.8141 34.5896 22.5766 34.4626 22.3901 34.2761C22.2036 34.0897 22.0766 33.8521 22.0252 33.5935C21.9737 33.3348 22.0001 33.0667 22.1011 32.8231C22.202 32.5795 22.3729 32.3712 22.5921 32.2247C22.8114 32.0782 23.0692 32 23.3329 32C23.6865 32 24.0257 32.1405 24.2757 32.3905C24.5258 32.6406 24.6662 32.9797 24.6662 33.3333Z" fill="#FBFDFA"></path><path d="M57.9996 44C57.4101 44.0022 56.8379 44.1997 56.3726 44.5615C55.9073 44.9234 55.5749 45.4292 55.4276 46H53.3189C53.8032 44.9807 54.1614 43.9061 54.3856 42.8C54.4209 42.6266 54.386 42.4463 54.2884 42.2987C54.1908 42.1511 54.0386 42.0484 53.8652 42.013C53.6919 41.9776 53.5115 42.0126 53.364 42.1102C53.2164 42.2078 53.1136 42.36 53.0782 42.5333C52.8144 43.8369 52.3447 45.0901 51.6869 46.246C51.6072 46.3439 51.557 46.4624 51.5421 46.5878C51.5272 46.7131 51.5481 46.8401 51.6025 46.954C51.6569 47.0679 51.7425 47.164 51.8494 47.2311C51.9563 47.2983 52.08 47.3337 52.2062 47.3333H55.4276C55.5531 47.815 55.8112 48.2519 56.1725 48.5943C56.5339 48.9367 56.984 49.1709 57.4717 49.2703C57.9595 49.3698 58.4654 49.3305 58.9319 49.1568C59.3984 48.9832 59.807 48.6823 60.1111 48.2882C60.4152 47.8941 60.6027 47.4226 60.6523 46.9273C60.7019 46.4319 60.6116 45.9326 60.3917 45.486C60.1718 45.0395 59.8311 44.6635 59.4082 44.4008C58.9854 44.1381 58.4973 43.9993 57.9996 44ZM57.9996 48C57.7358 48 57.4781 47.9218 57.2588 47.7753C57.0395 47.6288 56.8686 47.4205 56.7677 47.1769C56.6668 46.9333 56.6404 46.6652 56.6918 46.4065C56.7433 46.1479 56.8703 45.9103 57.0567 45.7239C57.2432 45.5374 57.4808 45.4104 57.7394 45.3589C57.9981 45.3075 58.2662 45.3339 58.5098 45.4348C58.7534 45.5357 58.9617 45.7066 59.1082 45.9259C59.2547 46.1452 59.3329 46.403 59.3329 46.6667C59.3329 47.0203 59.1924 47.3594 58.9424 47.6095C58.6923 47.8595 58.3532 48 57.9996 48Z" fill="#FBFDFA"></path><path d="M57.9995 36C58.4987 36.0019 58.9884 35.8636 59.4129 35.6009C59.8373 35.3382 60.1796 34.9616 60.4006 34.5141C60.6216 34.0665 60.7125 33.5658 60.6631 33.0691C60.6136 32.5724 60.4257 32.0995 60.1208 31.7043C59.8158 31.3091 59.4061 31.0074 58.9381 30.8336C58.4702 30.6598 57.9629 30.6208 57.4739 30.721C56.9849 30.8213 56.5338 31.0568 56.1721 31.4008C55.8103 31.7447 55.5523 32.1833 55.4276 32.6667H52.2049C52.0791 32.6668 51.9559 32.7026 51.8495 32.7699C51.7432 32.8371 51.6581 32.933 51.604 33.0466C51.5499 33.1602 51.529 33.2868 51.5438 33.4117C51.5586 33.5367 51.6084 33.6549 51.6876 33.7527C52.767 35.6578 53.3339 37.8103 53.3329 40C53.3329 40.1768 53.4031 40.3464 53.5281 40.4714C53.6532 40.5964 53.8227 40.6667 53.9996 40.6667H59.9995C60.1764 40.6667 60.3459 40.5964 60.471 40.4714C60.596 40.3464 60.6662 40.1768 60.6662 40C60.6662 39.8232 60.596 39.6536 60.471 39.5286C60.3459 39.4036 60.1764 39.3333 59.9995 39.3333H54.6509C54.5625 37.485 54.1094 35.6725 53.3176 34H55.4262C55.5736 34.571 55.9062 35.077 56.3718 35.4389C56.8374 35.8008 57.4098 35.9981 57.9995 36ZM57.9995 32C58.2633 32 58.521 32.0782 58.7403 32.2247C58.9596 32.3712 59.1305 32.5795 59.2314 32.8231C59.3323 33.0667 59.3587 33.3348 59.3073 33.5935C59.2558 33.8521 59.1288 34.0897 58.9424 34.2761C58.7559 34.4626 58.5183 34.5896 58.2597 34.641C58.001 34.6925 57.7329 34.6661 57.4893 34.5652C57.2457 34.4643 57.0374 34.2934 56.8909 34.0741C56.7444 33.8548 56.6662 33.597 56.6662 33.3333C56.6662 32.9797 56.8067 32.6406 57.0567 32.3905C57.3068 32.1405 57.6459 32 57.9995 32Z" fill="#FBFDFA"></path><path d="M43.1996 52.4133C41.5274 52.7491 39.8051 52.7491 38.1329 52.4133C38.0462 52.3934 37.9565 52.3911 37.8689 52.4064C37.7814 52.4217 37.6977 52.4544 37.623 52.5025C37.5482 52.5507 37.4839 52.6132 37.4337 52.6866C37.3835 52.76 37.3484 52.8426 37.3306 52.9297C37.3129 53.0168 37.3127 53.1066 37.3301 53.1938C37.3475 53.281 37.3822 53.3638 37.4321 53.4374C37.482 53.5109 37.5461 53.5738 37.6207 53.6222C37.6952 53.6706 37.7787 53.7036 37.8662 53.7193C38.57 53.8561 39.2832 53.9388 39.9996 53.9667V59.3333C39.9996 59.5101 40.0698 59.6797 40.1948 59.8047C40.3198 59.9298 40.4894 60 40.6662 60C40.843 60 41.0126 59.9298 41.1376 59.8047C41.2627 59.6797 41.3329 59.5101 41.3329 59.3333V53.9667C42.0493 53.9388 42.7625 53.8561 43.4662 53.7193C43.6359 53.6804 43.7835 53.5767 43.8777 53.4304C43.9719 53.284 44.0052 53.1067 43.9704 52.9362C43.9355 52.7657 43.8354 52.6155 43.6914 52.5178C43.5474 52.4201 43.3709 52.3826 43.1996 52.4133Z" fill="#FBFDFA"></path><path d="M34.6662 22H29.9049C29.7426 21.3716 29.3567 20.8239 28.8196 20.4596C28.2824 20.0953 27.6308 19.9395 26.9869 20.0213C26.343 20.103 25.7511 20.4168 25.322 20.9039C24.893 21.3909 24.6562 22.0176 24.6562 22.6667C24.6562 23.3157 24.893 23.9425 25.322 24.4295C25.7511 24.9165 26.343 25.2303 26.9869 25.3121C27.6308 25.3939 28.2824 25.238 28.8196 24.8737C29.3567 24.5095 29.7426 23.9618 29.9049 23.3333H34.6662V27.78C34.6662 27.8965 34.6967 28.011 34.7547 28.1121C34.8127 28.2132 34.8962 28.2973 34.9968 28.356C35.0974 28.4148 35.2117 28.4461 35.3282 28.4469C35.4447 28.4477 35.5595 28.418 35.6609 28.3607C36.4558 28.0184 37.284 27.7592 38.1322 27.5873C38.2181 27.5698 38.2996 27.5356 38.3722 27.4866C38.4448 27.4375 38.5071 27.3747 38.5554 27.3016C38.6037 27.2285 38.6372 27.1466 38.6538 27.0606C38.6705 26.9746 38.6701 26.8862 38.6526 26.8003C38.6351 26.7145 38.6008 26.6329 38.5518 26.5603C38.5028 26.4877 38.4399 26.4255 38.3668 26.3772C38.2937 26.3289 38.2119 26.2954 38.1259 26.2787C38.0399 26.2621 37.9514 26.2625 37.8656 26.28C37.2323 26.41 36.6088 26.5838 35.9996 26.8V23.3333C35.9996 22.9797 35.8591 22.6406 35.609 22.3905C35.359 22.1405 35.0199 22 34.6662 22ZM27.3329 24C27.0692 24 26.8114 23.9218 26.5921 23.7753C26.3729 23.6288 26.202 23.4206 26.1011 23.1769C26.0001 22.9333 25.9737 22.6652 26.0252 22.4066C26.0766 22.1479 26.2036 21.9103 26.3901 21.7239C26.5766 21.5374 26.8141 21.4104 27.0728 21.359C27.3314 21.3075 27.5995 21.3339 27.8431 21.4348C28.0868 21.5358 28.295 21.7066 28.4415 21.9259C28.588 22.1452 28.6662 22.403 28.6662 22.6667C28.6662 23.0203 28.5258 23.3594 28.2757 23.6095C28.0257 23.8595 27.6865 24 27.3329 24Z" fill="#FBFDFA"></path><path d="M51.4276 23.3333C51.5898 23.9618 51.9757 24.5095 52.5129 24.8737C53.0501 25.238 53.7017 25.3939 54.3456 25.3121C54.9894 25.2303 55.5814 24.9165 56.0104 24.4295C56.4395 23.9425 56.6762 23.3157 56.6762 22.6667C56.6762 22.0176 56.4395 21.3909 56.0104 20.9039C55.5814 20.4168 54.9894 20.103 54.3456 20.0213C53.7017 19.9395 53.0501 20.0953 52.5129 20.4596C51.9757 20.8239 51.5898 21.3716 51.4276 22H46.6662C46.3126 22 45.9735 22.1405 45.7234 22.3905C45.4734 22.6406 45.3329 22.9797 45.3329 23.3333V27.7813C45.3333 27.9229 45.3788 28.0606 45.4627 28.1746C45.5466 28.2886 45.6645 28.3729 45.7996 28.4153C47.2641 29.0651 48.5917 29.9875 49.7116 31.1333C49.7728 31.196 49.8459 31.246 49.9265 31.2805C50.0071 31.3149 50.0937 31.3332 50.1813 31.3342C50.269 31.3352 50.356 31.3189 50.4374 31.2863C50.5187 31.2536 50.5929 31.2053 50.6556 31.144C50.7182 31.0827 50.7682 31.0097 50.8027 30.9291C50.8372 30.8485 50.8554 30.7619 50.8564 30.6742C50.8574 30.5866 50.8411 30.4996 50.8085 30.4182C50.7758 30.3368 50.7275 30.2627 50.6662 30.2C49.512 29.0201 48.1577 28.0543 46.6662 27.3473V23.3333H51.4276ZM53.9996 21.3333C54.2633 21.3333 54.521 21.4115 54.7403 21.558C54.9596 21.7046 55.1305 21.9128 55.2314 22.1564C55.3323 22.4001 55.3587 22.6682 55.3073 22.9268C55.2558 23.1854 55.1288 23.423 54.9424 23.6095C54.7559 23.796 54.5183 23.9229 54.2597 23.9744C54.001 24.0258 53.7329 23.9994 53.4893 23.8985C53.2457 23.7976 53.0374 23.6267 52.8909 23.4074C52.7444 23.1882 52.6662 22.9304 52.6662 22.6667C52.6662 22.3131 52.8067 21.9739 53.0567 21.7239C53.3068 21.4738 53.6459 21.3333 53.9996 21.3333Z" fill="#FBFDFA"></path><path d="M35.5329 51.5847C33.8048 50.8142 32.2693 49.6695 31.0376 48.2333C30.9815 48.1643 30.9121 48.1071 30.8336 48.0653C30.755 48.0234 30.6689 47.9977 30.5803 47.9897C30.4916 47.9817 30.4023 47.9915 30.3175 48.0185C30.2327 48.0455 30.1542 48.0893 30.0866 48.1472C30.019 48.205 29.9637 48.2758 29.9239 48.3554C29.8841 48.435 29.8606 48.5218 29.8548 48.6106C29.8491 48.6994 29.8612 48.7884 29.8904 48.8725C29.9196 48.9565 29.9653 49.0339 30.0249 49.1C31.3074 50.5948 32.8884 51.805 34.6662 52.6527V56.6667H29.9049C29.7426 56.0382 29.3567 55.4905 28.8196 55.1263C28.2824 54.762 27.6308 54.6061 26.9869 54.6879C26.343 54.7697 25.7511 55.0835 25.322 55.5705C24.893 56.0575 24.6562 56.6843 24.6562 57.3333C24.6562 57.9824 24.893 58.6091 25.322 59.0961C25.7511 59.5832 26.343 59.897 26.9869 59.9787C27.6308 60.0605 28.2824 59.9047 28.8196 59.5404C29.3567 59.1761 29.7426 58.6284 29.9049 58H34.6662C35.0199 58 35.359 57.8595 35.609 57.6095C35.8591 57.3594 35.9996 57.0203 35.9996 56.6667V52.22C35.9994 52.0782 35.9541 51.9402 35.8702 51.826C35.7863 51.7117 35.6681 51.6272 35.5329 51.5847ZM27.3329 58.6667C27.0692 58.6667 26.8114 58.5885 26.5921 58.4419C26.3729 58.2954 26.202 58.0872 26.1011 57.8436C26.0001 57.5999 25.9737 57.3318 26.0252 57.0732C26.0766 56.8146 26.2036 56.577 26.3901 56.3905C26.5766 56.204 26.8141 56.0771 27.0728 56.0256C27.3314 55.9742 27.5995 56.0006 27.8431 56.1015C28.0868 56.2024 28.295 56.3733 28.4415 56.5926C28.588 56.8118 28.6662 57.0696 28.6662 57.3333C28.6662 57.6869 28.5258 58.0261 28.2757 58.2761C28.0257 58.5262 27.6865 58.6667 27.3329 58.6667Z" fill="#FBFDFA"></path><path d="M40.6662 20C40.4894 20 40.3198 20.0702 40.1948 20.1953C40.0698 20.3203 39.9996 20.4899 39.9996 20.6667V26.6667C39.9996 26.8435 40.0698 27.0131 40.1948 27.1381C40.3198 27.2631 40.4894 27.3333 40.6662 27.3333C41.517 27.3332 42.3657 27.418 43.1996 27.5867C43.2434 27.5957 43.2881 27.6002 43.3329 27.6C43.4977 27.5994 43.6564 27.5378 43.7784 27.427C43.9004 27.3163 43.9771 27.1643 43.9936 27.0004C44.0102 26.8364 43.9655 26.6722 43.8681 26.5393C43.7707 26.4064 43.6275 26.3143 43.4662 26.2807C42.763 26.1372 42.0498 26.048 41.3329 26.014V20.6667C41.3329 20.4899 41.2627 20.3203 41.1376 20.1953C41.0126 20.0702 40.843 20 40.6662 20Z" fill="#FBFDFA"></path><path d="M21.3329 40.6667H27.3329C27.5097 40.6667 27.6793 40.5964 27.8043 40.4714C27.9293 40.3464 27.9996 40.1768 27.9996 40C27.9982 38.653 28.2117 37.3144 28.6322 36.0347C28.6596 35.9515 28.6703 35.8638 28.6638 35.7764C28.6572 35.6891 28.6335 35.604 28.594 35.5258C28.5546 35.4477 28.5001 35.378 28.4337 35.3209C28.3674 35.2638 28.2904 35.2204 28.2072 35.193C28.1241 35.1656 28.0363 35.1549 27.949 35.1615C27.8617 35.168 27.7765 35.1917 27.6984 35.2312C27.6202 35.2706 27.5506 35.3251 27.4935 35.3915C27.4364 35.4579 27.3929 35.5348 27.3656 35.618C26.9705 36.8198 26.7404 38.0696 26.6816 39.3333H21.3329C21.1561 39.3333 20.9865 39.4036 20.8615 39.5286C20.7365 39.6536 20.6662 39.8232 20.6662 40C20.6662 40.1768 20.7365 40.3464 20.8615 40.4714C20.9865 40.5964 21.1561 40.6667 21.3329 40.6667Z" fill="#FBFDFA"></path><path d="M37.3329 46.6667H43.9996C44.53 46.6667 45.0387 46.4559 45.4138 46.0809C45.7888 45.7058 45.9996 45.1971 45.9996 44.6667V38.6667C45.9996 38.1362 45.7888 37.6275 45.4138 37.2525C45.0387 36.8774 44.53 36.6667 43.9996 36.6667V35.3333C43.9996 34.4493 43.6484 33.6014 43.0233 32.9763C42.3981 32.3512 41.5503 32 40.6662 32C39.7822 32 38.9343 32.3512 38.3092 32.9763C37.6841 33.6014 37.3329 34.4493 37.3329 35.3333V36.6667C36.8025 36.6667 36.2938 36.8774 35.9187 37.2525C35.5436 37.6275 35.3329 38.1362 35.3329 38.6667V44.6667C35.3329 45.1971 35.5436 45.7058 35.9187 46.0809C36.2938 46.4559 36.8025 46.6667 37.3329 46.6667ZM38.6662 35.3333C38.6662 34.8029 38.8769 34.2942 39.252 33.9191C39.6271 33.544 40.1358 33.3333 40.6662 33.3333C41.1967 33.3333 41.7054 33.544 42.0804 33.9191C42.4555 34.2942 42.6662 34.8029 42.6662 35.3333V36.6667H38.6662V35.3333ZM36.6662 38.6667C36.6662 38.4899 36.7365 38.3203 36.8615 38.1953C36.9865 38.0702 37.1561 38 37.3329 38H43.9996C44.1764 38 44.3459 38.0702 44.471 38.1953C44.596 38.3203 44.6662 38.4899 44.6662 38.6667V44.6667C44.6662 44.8435 44.596 45.013 44.471 45.1381C44.3459 45.2631 44.1764 45.3333 43.9996 45.3333H37.3329C37.1561 45.3333 36.9865 45.2631 36.8615 45.1381C36.7365 45.013 36.6662 44.8435 36.6662 44.6667V38.6667Z" stroke="#FBFDFA" stroke-width="0.4"></path><path d="M39.9996 43.2107V43.3333C39.9996 43.5101 40.0698 43.6797 40.1948 43.8047C40.3198 43.9298 40.4894 44 40.6662 44C40.843 44 41.0126 43.9298 41.1376 43.8047C41.2627 43.6797 41.3329 43.5101 41.3329 43.3333V43.2107C41.7777 43.0534 42.1526 42.744 42.3913 42.337C42.63 41.9301 42.7172 41.4518 42.6374 40.9868C42.5576 40.5218 42.316 40.1 41.9553 39.7959C41.5946 39.4918 41.138 39.325 40.6662 39.325C40.1944 39.325 39.7378 39.4918 39.3771 39.7959C39.0164 40.1 38.7748 40.5218 38.695 40.9868C38.6153 41.4518 38.7024 41.9301 38.9411 42.337C39.1799 42.744 39.5548 43.0534 39.9996 43.2107ZM40.6662 40.6667C40.7981 40.6667 40.927 40.7058 41.0366 40.779C41.1462 40.8523 41.2317 40.9564 41.2821 41.0782C41.3326 41.2 41.3458 41.3341 41.3201 41.4634C41.2944 41.5927 41.2309 41.7115 41.1376 41.8047C41.0444 41.898 40.9256 41.9615 40.7963 41.9872C40.667 42.0129 40.5329 41.9997 40.4111 41.9493C40.2893 41.8988 40.1852 41.8133 40.1119 41.7037C40.0387 41.5941 39.9996 41.4652 39.9996 41.3333C39.9996 41.1565 40.0698 40.9869 40.1948 40.8619C40.3198 40.7369 40.4894 40.6667 40.6662 40.6667Z" stroke="#FBFDFA" stroke-width="0.4"></path><path d="M29.3329 40C29.3329 42.2415 29.9976 44.4327 31.2429 46.2965C32.4882 48.1602 34.2583 49.6128 36.3292 50.4706C38.4 51.3284 40.6788 51.5529 42.8773 51.1156C45.0757 50.6783 47.0951 49.5989 48.6801 48.0139C50.2651 46.4289 51.3445 44.4095 51.7818 42.211C52.2191 40.0126 51.9947 37.7338 51.1369 35.6629C50.2791 33.592 48.8264 31.822 46.9627 30.5767C45.0989 29.3314 42.9077 28.6667 40.6662 28.6667C37.6615 28.67 34.7807 29.8651 32.6561 31.9898C30.5314 34.1145 29.3363 36.9952 29.3329 40ZM40.6662 30C42.644 30 44.5774 30.5865 46.2219 31.6853C47.8664 32.7841 49.1481 34.3459 49.905 36.1732C50.6619 38.0004 50.8599 40.0111 50.4741 41.9509C50.0882 43.8907 49.1358 45.6725 47.7373 47.0711C46.3388 48.4696 44.5569 49.422 42.6171 49.8078C40.6773 50.1937 38.6667 49.9957 36.8394 49.2388C35.0121 48.4819 33.4504 47.2002 32.3515 45.5557C31.2527 43.9112 30.6662 41.9778 30.6662 40C30.6692 37.3488 31.7238 34.807 33.5985 32.9322C35.4732 31.0575 38.015 30.003 40.6662 30Z" stroke="#FBFDFA" stroke-width="0.4"></path><path d="M53.9996 54.6667C53.4101 54.6689 52.8379 54.8663 52.3726 55.2282C51.9073 55.59 51.5749 56.0959 51.4276 56.6667H46.6662V52.6527C48.1577 51.9457 49.512 50.9799 50.6662 49.8C50.729 49.7378 50.7787 49.6637 50.8126 49.5822C50.8465 49.5006 50.8638 49.413 50.8636 49.3247C50.8633 49.2363 50.8455 49.1489 50.8112 49.0675C50.7769 48.9861 50.7267 48.9123 50.6636 48.8505C50.6005 48.7886 50.5258 48.7399 50.4437 48.7072C50.3616 48.6745 50.2739 48.6585 50.1855 48.66C50.0972 48.6615 50.01 48.6805 49.9291 48.716C49.8482 48.7515 49.7752 48.8027 49.7142 48.8667C48.5935 50.0128 47.265 50.9352 45.7996 51.5847C45.6643 51.6272 45.5462 51.7117 45.4623 51.826C45.3783 51.9402 45.333 52.0782 45.3329 52.22V56.6667C45.3329 57.0203 45.4734 57.3594 45.7234 57.6095C45.9735 57.8595 46.3126 58 46.6662 58H51.4276C51.5531 58.4817 51.8112 58.9185 52.1725 59.2609C52.5339 59.6033 52.984 59.8376 53.4717 59.937C53.9595 60.0364 54.4654 59.9971 54.9319 59.8235C55.3984 59.6499 55.807 59.349 56.1111 58.9548C56.4152 58.5607 56.6027 58.0892 56.6523 57.5939C56.7019 57.0986 56.6116 56.5993 56.3917 56.1527C56.1718 55.7061 55.8311 55.3301 55.4082 55.0675C54.9854 54.8048 54.4973 54.6659 53.9996 54.6667ZM53.9996 58.6667C53.7358 58.6667 53.4781 58.5885 53.2588 58.442C53.0395 58.2954 52.8686 58.0872 52.7677 57.8436C52.6668 57.5999 52.6404 57.3318 52.6918 57.0732C52.7433 56.8146 52.8703 56.577 53.0567 56.3905C53.2432 56.204 53.4808 56.0771 53.7394 56.0256C53.9981 55.9742 54.2662 56.0006 54.5098 56.1015C54.7534 56.2024 54.9617 56.3733 55.1082 56.5926C55.2547 56.8118 55.3329 57.0696 55.3329 57.3333C55.3329 57.6869 55.1924 58.0261 54.9424 58.2761C54.6923 58.5262 54.3532 58.6667 53.9996 58.6667Z" stroke="#FBFDFA" stroke-width="0.4"></path><path d="M25.9049 47.3333H29.1262C29.252 47.3333 29.3752 47.2978 29.4816 47.2307C29.5879 47.1637 29.6732 47.068 29.7275 46.9546C29.7818 46.8411 29.8029 46.7147 29.7884 46.5898C29.7739 46.4649 29.7244 46.3466 29.6456 46.2487C28.9875 45.0918 28.5174 43.8377 28.2529 42.5333C28.2354 42.4475 28.2012 42.366 28.1521 42.2935C28.1031 42.2209 28.0403 42.1587 27.9673 42.1104C27.8942 42.0621 27.8124 42.0287 27.7264 42.012C27.6404 41.9954 27.552 41.9958 27.4662 42.0133C27.3804 42.0308 27.2989 42.0651 27.2264 42.1141C27.1538 42.1631 27.0916 42.2259 27.0433 42.299C26.995 42.372 26.9616 42.4539 26.9449 42.5398C26.9283 42.6258 26.9287 42.7142 26.9462 42.8C27.1705 43.906 27.5287 44.9806 28.0129 46H25.9049C25.7426 45.3716 25.3568 44.8239 24.8196 44.4596C24.2824 44.0953 23.6308 43.9395 22.9869 44.0212C22.343 44.103 21.7511 44.4168 21.322 44.9038C20.893 45.3908 20.6562 46.0176 20.6562 46.6667C20.6562 47.3157 20.893 47.9425 21.322 48.4295C21.7511 48.9165 22.343 49.2303 22.9869 49.3121C23.6308 49.3939 24.2824 49.238 24.8196 48.8737C25.3568 48.5095 25.7426 47.9618 25.9049 47.3333ZM23.3329 48C23.0692 48 22.8114 47.9218 22.5921 47.7753C22.3729 47.6288 22.202 47.4205 22.1011 47.1769C22.0001 46.9333 21.9737 46.6652 22.0252 46.4065C22.0766 46.1479 22.2036 45.9103 22.3901 45.7239C22.5766 45.5374 22.8141 45.4104 23.0728 45.3589C23.3314 45.3075 23.5995 45.3339 23.8431 45.4348C24.0868 45.5357 24.295 45.7066 24.4415 45.9259C24.588 46.1452 24.6662 46.403 24.6662 46.6667C24.6662 47.0203 24.5258 47.3594 24.2757 47.6095C24.0257 47.8595 23.6865 48 23.3329 48Z" stroke="#FBFDFA" stroke-width="0.4"></path><path d="M20.6662 33.3333C20.6654 33.9815 20.9012 34.6078 21.3294 35.0945C21.7575 35.5812 22.3486 35.8949 22.9916 35.9767C23.6346 36.0585 24.2854 35.9029 24.8218 35.5389C25.3582 35.175 25.7433 34.6278 25.9049 34H29.1262C29.2607 34.0001 29.3921 33.9595 29.5031 33.8836C29.6141 33.8077 29.6996 33.7 29.7482 33.5747C30.5974 32.1308 31.7253 30.8704 33.0662 29.8667C33.1363 29.8141 33.1953 29.7483 33.2399 29.673C33.2845 29.5977 33.3138 29.5143 33.3262 29.4276C33.3386 29.3409 33.3338 29.2527 33.312 29.1679C33.2903 29.0831 33.2521 29.0034 33.1996 28.9333C33.147 28.8633 33.0812 28.8043 33.0059 28.7597C32.9306 28.7151 32.8472 28.6858 32.7605 28.6734C32.6738 28.661 32.5856 28.6658 32.5008 28.6875C32.416 28.7093 32.3363 28.7475 32.2662 28.8C30.8573 29.8553 29.6603 31.1671 28.7382 32.6667H25.9049C25.7433 32.0389 25.3582 31.4917 24.8218 31.1278C24.2854 30.7638 23.6346 30.6081 22.9916 30.69C22.3486 30.7718 21.7575 31.0855 21.3294 31.5722C20.9012 32.0589 20.6654 32.6851 20.6662 33.3333ZM24.6662 33.3333C24.6662 33.597 24.588 33.8548 24.4415 34.0741C24.295 34.2934 24.0868 34.4643 23.8431 34.5652C23.5995 34.6661 23.3314 34.6925 23.0728 34.641C22.8141 34.5896 22.5766 34.4626 22.3901 34.2761C22.2036 34.0897 22.0766 33.8521 22.0252 33.5935C21.9737 33.3348 22.0001 33.0667 22.1011 32.8231C22.202 32.5795 22.3729 32.3712 22.5921 32.2247C22.8114 32.0782 23.0692 32 23.3329 32C23.6865 32 24.0257 32.1405 24.2757 32.3905C24.5258 32.6406 24.6662 32.9797 24.6662 33.3333Z" stroke="#FBFDFA" stroke-width="0.4"></path><path d="M57.9996 44C57.4101 44.0022 56.8379 44.1997 56.3726 44.5615C55.9073 44.9234 55.5749 45.4292 55.4276 46H53.3189C53.8032 44.9807 54.1614 43.9061 54.3856 42.8C54.4209 42.6266 54.386 42.4463 54.2884 42.2987C54.1908 42.1511 54.0386 42.0484 53.8652 42.013C53.6919 41.9776 53.5115 42.0126 53.364 42.1102C53.2164 42.2078 53.1136 42.36 53.0782 42.5333C52.8144 43.8369 52.3447 45.0901 51.6869 46.246C51.6072 46.3439 51.557 46.4624 51.5421 46.5878C51.5272 46.7131 51.5481 46.8401 51.6025 46.954C51.6569 47.0679 51.7425 47.164 51.8494 47.2311C51.9563 47.2983 52.08 47.3337 52.2062 47.3333H55.4276C55.5531 47.815 55.8112 48.2519 56.1725 48.5943C56.5339 48.9367 56.984 49.1709 57.4717 49.2703C57.9595 49.3698 58.4654 49.3305 58.9319 49.1568C59.3984 48.9832 59.807 48.6823 60.1111 48.2882C60.4152 47.8941 60.6027 47.4226 60.6523 46.9273C60.7019 46.4319 60.6116 45.9326 60.3917 45.486C60.1718 45.0395 59.8311 44.6635 59.4082 44.4008C58.9854 44.1381 58.4973 43.9993 57.9996 44ZM57.9996 48C57.7358 48 57.4781 47.9218 57.2588 47.7753C57.0395 47.6288 56.8686 47.4205 56.7677 47.1769C56.6668 46.9333 56.6404 46.6652 56.6918 46.4065C56.7433 46.1479 56.8703 45.9103 57.0567 45.7239C57.2432 45.5374 57.4808 45.4104 57.7394 45.3589C57.9981 45.3075 58.2662 45.3339 58.5098 45.4348C58.7534 45.5357 58.9617 45.7066 59.1082 45.9259C59.2547 46.1452 59.3329 46.403 59.3329 46.6667C59.3329 47.0203 59.1924 47.3594 58.9424 47.6095C58.6923 47.8595 58.3532 48 57.9996 48Z" stroke="#FBFDFA" stroke-width="0.4"></path><path d="M57.9995 36C58.4987 36.0019 58.9884 35.8636 59.4129 35.6009C59.8373 35.3382 60.1796 34.9616 60.4006 34.5141C60.6216 34.0665 60.7125 33.5658 60.6631 33.0691C60.6136 32.5724 60.4257 32.0995 60.1208 31.7043C59.8158 31.3091 59.4061 31.0074 58.9381 30.8336C58.4702 30.6598 57.9629 30.6208 57.4739 30.721C56.9849 30.8213 56.5338 31.0568 56.1721 31.4008C55.8103 31.7447 55.5523 32.1833 55.4276 32.6667H52.2049C52.0791 32.6668 51.9559 32.7026 51.8495 32.7699C51.7432 32.8371 51.6581 32.933 51.604 33.0466C51.5499 33.1602 51.529 33.2868 51.5438 33.4117C51.5586 33.5367 51.6084 33.6549 51.6876 33.7527C52.767 35.6578 53.3339 37.8103 53.3329 40C53.3329 40.1768 53.4031 40.3464 53.5281 40.4714C53.6532 40.5964 53.8227 40.6667 53.9996 40.6667H59.9995C60.1764 40.6667 60.3459 40.5964 60.471 40.4714C60.596 40.3464 60.6662 40.1768 60.6662 40C60.6662 39.8232 60.596 39.6536 60.471 39.5286C60.3459 39.4036 60.1764 39.3333 59.9995 39.3333H54.6509C54.5625 37.485 54.1094 35.6725 53.3176 34H55.4262C55.5736 34.571 55.9062 35.077 56.3718 35.4389C56.8374 35.8008 57.4098 35.9981 57.9995 36ZM57.9995 32C58.2633 32 58.521 32.0782 58.7403 32.2247C58.9596 32.3712 59.1305 32.5795 59.2314 32.8231C59.3323 33.0667 59.3587 33.3348 59.3073 33.5935C59.2558 33.8521 59.1288 34.0897 58.9424 34.2761C58.7559 34.4626 58.5183 34.5896 58.2597 34.641C58.001 34.6925 57.7329 34.6661 57.4893 34.5652C57.2457 34.4643 57.0374 34.2934 56.8909 34.0741C56.7444 33.8548 56.6662 33.597 56.6662 33.3333C56.6662 32.9797 56.8067 32.6406 57.0567 32.3905C57.3068 32.1405 57.6459 32 57.9995 32Z" stroke="#FBFDFA" stroke-width="0.4"></path><path d="M43.1996 52.4133C41.5274 52.7491 39.8051 52.7491 38.1329 52.4133C38.0462 52.3934 37.9565 52.3911 37.8689 52.4064C37.7814 52.4217 37.6977 52.4544 37.623 52.5025C37.5482 52.5507 37.4839 52.6132 37.4337 52.6866C37.3835 52.76 37.3484 52.8426 37.3306 52.9297C37.3129 53.0168 37.3127 53.1066 37.3301 53.1938C37.3475 53.281 37.3822 53.3638 37.4321 53.4374C37.482 53.5109 37.5461 53.5738 37.6207 53.6222C37.6952 53.6706 37.7787 53.7036 37.8662 53.7193C38.57 53.8561 39.2832 53.9388 39.9996 53.9667V59.3333C39.9996 59.5101 40.0698 59.6797 40.1948 59.8047C40.3198 59.9298 40.4894 60 40.6662 60C40.843 60 41.0126 59.9298 41.1376 59.8047C41.2627 59.6797 41.3329 59.5101 41.3329 59.3333V53.9667C42.0493 53.9388 42.7625 53.8561 43.4662 53.7193C43.6359 53.6804 43.7835 53.5767 43.8777 53.4304C43.9719 53.284 44.0052 53.1067 43.9704 52.9362C43.9355 52.7657 43.8354 52.6155 43.6914 52.5178C43.5474 52.4201 43.3709 52.3826 43.1996 52.4133Z" stroke="#FBFDFA" stroke-width="0.4"></path><path d="M34.6662 22H29.9049C29.7426 21.3716 29.3567 20.8239 28.8196 20.4596C28.2824 20.0953 27.6308 19.9395 26.9869 20.0213C26.343 20.103 25.7511 20.4168 25.322 20.9039C24.893 21.3909 24.6562 22.0176 24.6562 22.6667C24.6562 23.3157 24.893 23.9425 25.322 24.4295C25.7511 24.9165 26.343 25.2303 26.9869 25.3121C27.6308 25.3939 28.2824 25.238 28.8196 24.8737C29.3567 24.5095 29.7426 23.9618 29.9049 23.3333H34.6662V27.78C34.6662 27.8965 34.6967 28.011 34.7547 28.1121C34.8127 28.2132 34.8962 28.2973 34.9968 28.356C35.0974 28.4148 35.2117 28.4461 35.3282 28.4469C35.4447 28.4477 35.5595 28.418 35.6609 28.3607C36.4558 28.0184 37.284 27.7592 38.1322 27.5873C38.2181 27.5698 38.2996 27.5356 38.3722 27.4866C38.4448 27.4375 38.5071 27.3747 38.5554 27.3016C38.6037 27.2285 38.6372 27.1466 38.6538 27.0606C38.6705 26.9746 38.6701 26.8862 38.6526 26.8003C38.6351 26.7145 38.6008 26.6329 38.5518 26.5603C38.5028 26.4877 38.4399 26.4255 38.3668 26.3772C38.2937 26.3289 38.2119 26.2954 38.1259 26.2787C38.0399 26.2621 37.9514 26.2625 37.8656 26.28C37.2323 26.41 36.6088 26.5838 35.9996 26.8V23.3333C35.9996 22.9797 35.8591 22.6406 35.609 22.3905C35.359 22.1405 35.0199 22 34.6662 22ZM27.3329 24C27.0692 24 26.8114 23.9218 26.5921 23.7753C26.3729 23.6288 26.202 23.4206 26.1011 23.1769C26.0001 22.9333 25.9737 22.6652 26.0252 22.4066C26.0766 22.1479 26.2036 21.9103 26.3901 21.7239C26.5766 21.5374 26.8141 21.4104 27.0728 21.359C27.3314 21.3075 27.5995 21.3339 27.8431 21.4348C28.0868 21.5358 28.295 21.7066 28.4415 21.9259C28.588 22.1452 28.6662 22.403 28.6662 22.6667C28.6662 23.0203 28.5258 23.3594 28.2757 23.6095C28.0257 23.8595 27.6865 24 27.3329 24Z" stroke="#FBFDFA" stroke-width="0.4"></path><path d="M51.4276 23.3333C51.5898 23.9618 51.9757 24.5095 52.5129 24.8737C53.0501 25.238 53.7017 25.3939 54.3456 25.3121C54.9894 25.2303 55.5814 24.9165 56.0104 24.4295C56.4395 23.9425 56.6762 23.3157 56.6762 22.6667C56.6762 22.0176 56.4395 21.3909 56.0104 20.9039C55.5814 20.4168 54.9894 20.103 54.3456 20.0213C53.7017 19.9395 53.0501 20.0953 52.5129 20.4596C51.9757 20.8239 51.5898 21.3716 51.4276 22H46.6662C46.3126 22 45.9735 22.1405 45.7234 22.3905C45.4734 22.6406 45.3329 22.9797 45.3329 23.3333V27.7813C45.3333 27.9229 45.3788 28.0606 45.4627 28.1746C45.5466 28.2886 45.6645 28.3729 45.7996 28.4153C47.2641 29.0651 48.5917 29.9875 49.7116 31.1333C49.7728 31.196 49.8459 31.246 49.9265 31.2805C50.0071 31.3149 50.0937 31.3332 50.1813 31.3342C50.269 31.3352 50.356 31.3189 50.4374 31.2863C50.5187 31.2536 50.5929 31.2053 50.6556 31.144C50.7182 31.0827 50.7682 31.0097 50.8027 30.9291C50.8372 30.8485 50.8554 30.7619 50.8564 30.6742C50.8574 30.5866 50.8411 30.4996 50.8085 30.4182C50.7758 30.3368 50.7275 30.2627 50.6662 30.2C49.512 29.0201 48.1577 28.0543 46.6662 27.3473V23.3333H51.4276ZM53.9996 21.3333C54.2633 21.3333 54.521 21.4115 54.7403 21.558C54.9596 21.7046 55.1305 21.9128 55.2314 22.1564C55.3323 22.4001 55.3587 22.6682 55.3073 22.9268C55.2558 23.1854 55.1288 23.423 54.9424 23.6095C54.7559 23.796 54.5183 23.9229 54.2597 23.9744C54.001 24.0258 53.7329 23.9994 53.4893 23.8985C53.2457 23.7976 53.0374 23.6267 52.8909 23.4074C52.7444 23.1882 52.6662 22.9304 52.6662 22.6667C52.6662 22.3131 52.8067 21.9739 53.0567 21.7239C53.3068 21.4738 53.6459 21.3333 53.9996 21.3333Z" stroke="#FBFDFA" stroke-width="0.4"></path><path d="M35.5329 51.5847C33.8048 50.8142 32.2693 49.6695 31.0376 48.2333C30.9815 48.1643 30.9121 48.1071 30.8336 48.0653C30.755 48.0234 30.6689 47.9977 30.5803 47.9897C30.4916 47.9817 30.4023 47.9915 30.3175 48.0185C30.2327 48.0455 30.1542 48.0893 30.0866 48.1472C30.019 48.205 29.9637 48.2758 29.9239 48.3554C29.8841 48.435 29.8606 48.5218 29.8548 48.6106C29.8491 48.6994 29.8612 48.7884 29.8904 48.8725C29.9196 48.9565 29.9653 49.0339 30.0249 49.1C31.3074 50.5948 32.8884 51.805 34.6662 52.6527V56.6667H29.9049C29.7426 56.0382 29.3567 55.4905 28.8196 55.1263C28.2824 54.762 27.6308 54.6061 26.9869 54.6879C26.343 54.7697 25.7511 55.0835 25.322 55.5705C24.893 56.0575 24.6562 56.6843 24.6562 57.3333C24.6562 57.9824 24.893 58.6091 25.322 59.0961C25.7511 59.5832 26.343 59.897 26.9869 59.9787C27.6308 60.0605 28.2824 59.9047 28.8196 59.5404C29.3567 59.1761 29.7426 58.6284 29.9049 58H34.6662C35.0199 58 35.359 57.8595 35.609 57.6095C35.8591 57.3594 35.9996 57.0203 35.9996 56.6667V52.22C35.9994 52.0782 35.9541 51.9402 35.8702 51.826C35.7863 51.7117 35.6681 51.6272 35.5329 51.5847ZM27.3329 58.6667C27.0692 58.6667 26.8114 58.5885 26.5921 58.4419C26.3729 58.2954 26.202 58.0872 26.1011 57.8436C26.0001 57.5999 25.9737 57.3318 26.0252 57.0732C26.0766 56.8146 26.2036 56.577 26.3901 56.3905C26.5766 56.204 26.8141 56.0771 27.0728 56.0256C27.3314 55.9742 27.5995 56.0006 27.8431 56.1015C28.0868 56.2024 28.295 56.3733 28.4415 56.5926C28.588 56.8118 28.6662 57.0696 28.6662 57.3333C28.6662 57.6869 28.5258 58.0261 28.2757 58.2761C28.0257 58.5262 27.6865 58.6667 27.3329 58.6667Z" stroke="#FBFDFA" stroke-width="0.4"></path><path d="M40.6662 20C40.4894 20 40.3198 20.0702 40.1948 20.1953C40.0698 20.3203 39.9996 20.4899 39.9996 20.6667V26.6667C39.9996 26.8435 40.0698 27.0131 40.1948 27.1381C40.3198 27.2631 40.4894 27.3333 40.6662 27.3333C41.517 27.3332 42.3657 27.418 43.1996 27.5867C43.2434 27.5957 43.2881 27.6002 43.3329 27.6C43.4977 27.5994 43.6564 27.5378 43.7784 27.427C43.9004 27.3163 43.9771 27.1643 43.9936 27.0004C44.0102 26.8364 43.9655 26.6722 43.8681 26.5393C43.7707 26.4064 43.6275 26.3143 43.4662 26.2807C42.763 26.1372 42.0498 26.048 41.3329 26.014V20.6667C41.3329 20.4899 41.2627 20.3203 41.1376 20.1953C41.0126 20.0702 40.843 20 40.6662 20Z" stroke="#FBFDFA" stroke-width="0.4"></path><path d="M21.3329 40.6667H27.3329C27.5097 40.6667 27.6793 40.5964 27.8043 40.4714C27.9293 40.3464 27.9996 40.1768 27.9996 40C27.9982 38.653 28.2117 37.3144 28.6322 36.0347C28.6596 35.9515 28.6703 35.8638 28.6638 35.7764C28.6572 35.6891 28.6335 35.604 28.594 35.5258C28.5546 35.4477 28.5001 35.378 28.4337 35.3209C28.3674 35.2638 28.2904 35.2204 28.2072 35.193C28.1241 35.1656 28.0363 35.1549 27.949 35.1615C27.8617 35.168 27.7765 35.1917 27.6984 35.2312C27.6202 35.2706 27.5506 35.3251 27.4935 35.3915C27.4364 35.4579 27.3929 35.5348 27.3656 35.618C26.9705 36.8198 26.7404 38.0696 26.6816 39.3333H21.3329C21.1561 39.3333 20.9865 39.4036 20.8615 39.5286C20.7365 39.6536 20.6662 39.8232 20.6662 40C20.6662 40.1768 20.7365 40.3464 20.8615 40.4714C20.9865 40.5964 21.1561 40.6667 21.3329 40.6667Z" stroke="#FBFDFA" stroke-width="0.4"></path></svg>