<svg xmlns="http://www.w3.org/2000/svg" xmlns:xlink="http://www.w3.org/1999/xlink" id="a" x="0px" y="0px" viewBox="0 0 617.3 657.1" style="enable-background:new 0 0 617.3 657.1;" xml:space="preserve"><path d="M307.3,657.1c-1.2-1.4-2.3-2.8-3.6-4.1C204,553.4,104.3,453.7,4.7,353.9C3,352.3,2,350.1,0,347.2h309.3v309.9L307.3,657.1  L307.3,657.1z"></path><path d="M617.3,383.1c-1-0.8-2.1-1.6-3-2.5c-94.4-94.4-188.8-188.7-283.1-283.1c-0.8-0.8-1.6-1.7-3.2-3.4h289.4L617.3,383.1  L617.3,383.1z"></path><path d="M1.5,327.6V21.1C103.7,123.3,205.9,225.5,308,327.6H1.5z"></path><path d="M326.5,327.7v-210c69.8,69.8,140.2,140.2,209.9,209.9L326.5,327.7L326.5,327.7z"></path><path d="M212.9,590.9H2.5V380.5C72.5,450.4,142.8,520.8,212.9,590.9z"></path><path d="M328.5,556.9V347.4H538C468.2,417.2,398.1,487.4,328.5,556.9L328.5,556.9z"></path><path d="M432.9,582.9H329.5c34.4-34.4,69-69,103.3-103.3V582.9z"></path><path d="M20.4,17.3H123v102.6C89.1,86,54.6,51.5,20.4,17.3z"></path></svg>