<svg xmlns="http://www.w3.org/2000/svg" width="57" height="46" viewBox="0 0 57 46" fill="none"><path d="M50.2313 0.29248H47.4789C47.2964 0.29248 47.1214 0.364977 46.9924 0.494021C46.8633 0.623064 46.7908 0.798085 46.7908 0.980581C46.7908 1.16308 46.8633 1.3381 46.9924 1.46714C47.1214 1.59619 47.2964 1.66868 47.4789 1.66868H50.2313C51.5083 1.67028 52.7325 2.17827 53.6355 3.08123C54.5385 3.98419 55.0464 5.20841 55.048 6.48538V9.23779C55.048 9.42028 55.1205 9.5953 55.2496 9.72435C55.3786 9.85339 55.5536 9.92589 55.7361 9.92589C55.9186 9.92589 56.0937 9.85339 56.2227 9.72435C56.3517 9.5953 56.4242 9.42028 56.4242 9.23779V6.48538C56.4222 4.84355 55.7691 3.26955 54.6081 2.10859C53.4472 0.94764 51.8732 0.29452 50.2313 0.29248Z" fill="#6C7648"></path><path d="M55.7361 36.0737C55.5536 36.0737 55.3786 36.1462 55.2496 36.2752C55.1205 36.4043 55.048 36.5793 55.048 36.7618V39.5142C55.0464 40.7912 54.5385 42.0154 53.6355 42.9184C52.7325 43.8213 51.5083 44.3293 50.2313 44.3309H47.4789C47.2964 44.3309 47.1214 44.4034 46.9924 44.5324C46.8633 44.6615 46.7908 44.8365 46.7908 45.019C46.7908 45.2015 46.8633 45.3765 46.9924 45.5056C47.1214 45.6346 47.2964 45.7071 47.4789 45.7071H50.2313C51.8732 45.7051 53.4472 45.052 54.6081 43.891C55.7691 42.73 56.4222 41.156 56.4242 39.5142V36.7618C56.4242 36.5793 56.3517 36.4043 56.2227 36.2752C56.0937 36.1462 55.9186 36.0737 55.7361 36.0737Z" fill="#6C7648"></path><path d="M8.94531 44.3309H6.1929C4.91593 44.3293 3.69171 43.8213 2.78875 42.9184C1.88579 42.0154 1.3778 40.7912 1.3762 39.5142V36.7618C1.3762 36.5793 1.3037 36.4043 1.17466 36.2752C1.04562 36.1462 0.870596 36.0737 0.688101 36.0737C0.505605 36.0737 0.330584 36.1462 0.20154 36.2752C0.0724962 36.4043 0 36.5793 0 36.7618V39.5142C0.00203937 41.156 0.655159 42.73 1.81611 43.891C2.97707 45.052 4.55107 45.7051 6.1929 45.7071H8.94531C9.1278 45.7071 9.30282 45.6346 9.43187 45.5056C9.56091 45.3765 9.63341 45.2015 9.63341 45.019C9.63341 44.8365 9.56091 44.6615 9.43187 44.5324C9.30282 44.4034 9.1278 44.3309 8.94531 44.3309Z" fill="#6C7648"></path><path d="M0.688101 9.92589C0.870596 9.92589 1.04562 9.85339 1.17466 9.72435C1.3037 9.5953 1.3762 9.42028 1.3762 9.23779V6.48538C1.3778 5.20841 1.88579 3.98419 2.78875 3.08123C3.69171 2.17827 4.91593 1.67028 6.1929 1.66868H8.94531C9.1278 1.66868 9.30282 1.59619 9.43187 1.46714C9.56091 1.3381 9.63341 1.16308 9.63341 0.980581C9.63341 0.798085 9.56091 0.623064 9.43187 0.494021C9.30282 0.364977 9.1278 0.29248 8.94531 0.29248H6.1929C4.55107 0.29452 2.97707 0.94764 1.81611 2.10859C0.655159 3.26955 0.00203937 4.84355 0 6.48538V9.23779C0 9.42028 0.0724962 9.5953 0.20154 9.72435C0.330584 9.85339 0.505605 9.92589 0.688101 9.92589Z" fill="#6C7648"></path><path d="M50.2313 29.1927C50.4138 29.1927 50.5889 29.1202 50.7179 28.9912C50.8469 28.8621 50.9194 28.6871 50.9194 28.5046C50.9194 28.3221 50.8469 28.1471 50.7179 28.018C50.5889 27.889 50.4138 27.8165 50.2313 27.8165H42.6622V22.9998C42.6622 22.8173 42.5897 22.6423 42.4607 22.5132C42.3316 22.3842 42.1566 22.3117 41.9741 22.3117C41.7916 22.3117 41.6166 22.3842 41.4876 22.5132C41.3585 22.6423 41.286 22.8173 41.286 22.9998V27.8165H34.3354C34.2744 27.2006 34.1207 26.5974 33.8796 26.0274L35.7061 24.9722C35.7879 24.9289 35.8602 24.8696 35.9185 24.7978C35.9769 24.726 36.0202 24.6431 36.0458 24.5542C36.0714 24.4652 36.0788 24.372 36.0676 24.2802C36.0563 24.1883 36.0266 24.0996 35.9803 24.0195C35.934 23.9394 35.872 23.8694 35.798 23.8138C35.7241 23.7582 35.6396 23.7181 35.5498 23.6958C35.4599 23.6736 35.3665 23.6697 35.2752 23.6845C35.1838 23.6992 35.0963 23.7322 35.018 23.7815L33.1794 24.8439C32.7457 24.2497 32.21 23.7372 31.5973 23.3301C31.623 23.2213 31.6414 23.111 31.6523 22.9998C31.6523 22.0873 31.2899 21.2122 30.6446 20.567C29.9994 19.9218 29.1243 19.5593 28.2118 19.5593C27.2994 19.5593 26.4243 19.9218 25.779 20.567C25.1338 21.2122 24.7713 22.0873 24.7713 22.9998C24.7823 23.111 24.8007 23.2213 24.8264 23.3301C24.2137 23.7372 23.678 24.2497 23.2443 24.8439L21.4057 23.7815C21.3274 23.7322 21.2399 23.6992 21.1485 23.6845C21.0572 23.6697 20.9638 23.6736 20.8739 23.6958C20.7841 23.7181 20.6996 23.7582 20.6257 23.8138C20.5517 23.8694 20.4897 23.9394 20.4434 24.0195C20.3971 24.0996 20.3674 24.1883 20.3561 24.2802C20.3449 24.372 20.3523 24.4652 20.3779 24.5542C20.4035 24.6431 20.4468 24.726 20.5051 24.7978C20.5635 24.8696 20.6358 24.9289 20.7176 24.9722L22.5441 26.0277C22.303 26.5977 22.1494 27.2009 22.0883 27.8168H15.1382V17.0232C15.1433 16.48 15.2404 15.9415 15.4256 15.4307H22.7073C23.6195 15.4299 24.4942 15.0672 25.1392 14.4221C25.7843 13.7771 26.147 12.9024 26.1478 11.9902C26.1478 11.8077 26.0753 11.6327 25.9463 11.5036C25.8172 11.3746 25.6422 11.3021 25.4597 11.3021C25.2772 11.3021 25.1022 11.3746 24.9732 11.5036C24.8441 11.6327 24.7716 11.8077 24.7716 11.9902C24.7708 12.5374 24.5531 13.062 24.1661 13.449C23.7792 13.8359 23.2546 14.0537 22.7073 14.0545H16.1888C16.3004 13.9015 16.4207 13.7552 16.5494 13.6163L24.3334 5.83224C24.4722 5.70429 24.6185 5.5848 24.7716 5.47443V9.23779C24.7716 9.42028 24.8441 9.5953 24.9732 9.72435C25.1022 9.85339 25.2772 9.92589 25.4597 9.92589C25.6422 9.92589 25.8172 9.85339 25.9463 9.72435C26.0753 9.5953 26.1478 9.42028 26.1478 9.23779V4.71394C26.6578 4.52679 27.1958 4.42776 27.739 4.42108H36.4693C37.7463 4.42269 38.9705 4.93067 39.8735 5.83363C40.7764 6.73659 41.2844 7.96081 41.286 9.23779V20.2474C41.286 20.4299 41.3585 20.6049 41.4876 20.734C41.6166 20.863 41.7916 20.9355 41.9741 20.9355C42.1566 20.9355 42.3316 20.863 42.4607 20.734C42.5897 20.6049 42.6622 20.4299 42.6622 20.2474V9.23779C42.6602 7.59595 42.0071 6.02195 40.8461 4.86099C39.6852 3.70004 38.1112 3.04692 36.4693 3.04488H27.739C26.0976 3.04987 24.5243 3.7018 23.3605 4.85927L15.5764 12.6433C14.9995 13.2172 14.5421 13.8998 14.2306 14.6516C13.9192 15.4034 13.7599 16.2095 13.762 17.0232V27.8165H6.1929C6.01041 27.8165 5.83539 27.889 5.70634 28.018C5.5773 28.1471 5.5048 28.3221 5.5048 28.5046C5.5048 28.6871 5.5773 28.8621 5.70634 28.9912C5.83539 29.1202 6.01041 29.1927 6.1929 29.1927H13.762V36.7618C13.764 38.4036 14.4172 39.9776 15.5781 41.1386C16.7391 42.2995 18.3131 42.9527 19.9549 42.9547H36.4693C38.1112 42.9527 39.6852 42.2995 40.8461 41.1386C42.0071 39.9776 42.6602 38.4036 42.6622 36.7618V29.1927H50.2313ZM28.2121 20.9355C28.6971 20.9403 29.1644 21.1177 29.5305 21.4358C29.8965 21.7539 30.1374 22.1919 30.2098 22.6714C28.9212 22.1918 27.503 22.1918 26.2144 22.6714C26.2869 22.1919 26.5277 21.7539 26.8938 21.4358C27.2598 21.1177 27.7272 20.9403 28.2121 20.9355ZM28.2121 23.6879C29.3673 23.6912 30.4827 24.1102 31.3544 24.8683C32.226 25.6264 32.7957 26.6729 32.9592 27.8165H23.4651C23.6285 26.6729 24.1982 25.6264 25.0699 24.8683C25.9415 24.1102 27.0569 23.6912 28.2121 23.6879ZM41.286 36.7618C41.2844 38.0388 40.7764 39.263 39.8735 40.166C38.9705 41.0689 37.7463 41.5769 36.4693 41.5785H19.9549C18.6779 41.5769 17.4537 41.0689 16.5508 40.166C15.6478 39.263 15.1398 38.0388 15.1382 36.7618V29.1927H22.1109C22.1797 29.8018 22.3396 30.3972 22.5851 30.9589L20.7182 32.0376C20.6363 32.0808 20.5641 32.1401 20.5057 32.212C20.4473 32.2838 20.404 32.3666 20.3784 32.4556C20.3528 32.5445 20.3454 32.6377 20.3567 32.7296C20.3679 32.8215 20.3976 32.9101 20.4439 32.9902C20.4902 33.0704 20.5522 33.1403 20.6262 33.196C20.7002 33.2516 20.7846 33.2917 20.8745 33.3139C20.9643 33.3361 21.0577 33.34 21.1491 33.3253C21.2405 33.3106 21.3279 33.2776 21.4063 33.2283L23.2727 32.1499C23.7619 32.844 24.3899 33.4291 25.1168 33.8682C25.1951 33.9175 25.2826 33.9505 25.3739 33.9652C25.4653 33.9799 25.5587 33.9761 25.6486 33.9538C25.7384 33.9316 25.8228 33.8915 25.8968 33.8359C25.9708 33.7803 26.0328 33.7103 26.0791 33.6302C26.1254 33.55 26.1551 33.4614 26.1663 33.3695C26.1776 33.2777 26.1702 33.1845 26.1446 33.0955C26.119 33.0066 26.0757 32.9237 26.0173 32.8519C25.959 32.7801 25.8867 32.7208 25.8049 32.6775C25.1812 32.3087 24.6489 31.8037 24.2478 31.2002C23.8467 30.5968 23.5871 29.9105 23.4884 29.1927H32.9603C32.7968 30.3365 32.227 31.3831 31.3551 32.1412C30.4832 32.8994 29.3675 33.3183 28.2121 33.3213C28.0296 33.3213 27.8546 33.3938 27.7256 33.5228C27.5965 33.6519 27.524 33.8269 27.524 34.0094C27.524 34.1919 27.5965 34.3669 27.7256 34.496C27.8546 34.625 28.0296 34.6975 28.2121 34.6975C29.1807 34.6949 30.1351 34.4643 30.998 34.0243C31.861 33.5844 32.6082 32.9476 33.1794 32.1653L35.018 33.2274C35.0963 33.2768 35.1838 33.3097 35.2752 33.3245C35.3665 33.3392 35.4599 33.3353 35.5498 33.3131C35.6396 33.2909 35.7241 33.2507 35.798 33.1951C35.872 33.1395 35.934 33.0695 35.9803 32.9894C36.0266 32.9093 36.0563 32.8206 36.0676 32.7288C36.0788 32.6369 36.0714 32.5437 36.0458 32.4548C36.0202 32.3658 35.9769 32.283 35.9185 32.2111C35.8602 32.1393 35.7879 32.08 35.7061 32.0368L33.8796 30.9818C34.1208 30.4118 34.2744 29.8086 34.3354 29.1927H41.286V36.7618Z" fill="#6C7648"></path><path d="M36.4693 8.54969H30.9645C30.782 8.54969 30.607 8.62218 30.478 8.75123C30.3489 8.88027 30.2764 9.05529 30.2764 9.23779C30.2764 9.42028 30.3489 9.5953 30.478 9.72435C30.607 9.85339 30.782 9.92589 30.9645 9.92589H36.4693C36.6518 9.92589 36.8268 9.85339 36.9559 9.72435C37.0849 9.5953 37.1574 9.42028 37.1574 9.23779C37.1574 9.05529 37.0849 8.88027 36.9559 8.75123C36.8268 8.62218 36.6518 8.54969 36.4693 8.54969Z" fill="#6C7648"></path><path d="M36.4693 11.3021H30.9645C30.782 11.3021 30.607 11.3746 30.478 11.5036C30.3489 11.6327 30.2764 11.8077 30.2764 11.9902C30.2764 12.1727 30.3489 12.3477 30.478 12.4767C30.607 12.6058 30.782 12.6783 30.9645 12.6783H36.4693C36.6518 12.6783 36.8268 12.6058 36.9559 12.4767C37.0849 12.3477 37.1574 12.1727 37.1574 11.9902C37.1574 11.8077 37.0849 11.6327 36.9559 11.5036C36.8268 11.3746 36.6518 11.3021 36.4693 11.3021Z" fill="#6C7648"></path><path d="M50.2313 0.29248H47.4789C47.2964 0.29248 47.1214 0.364977 46.9924 0.494021C46.8633 0.623064 46.7908 0.798085 46.7908 0.980581C46.7908 1.16308 46.8633 1.3381 46.9924 1.46714C47.1214 1.59619 47.2964 1.66868 47.4789 1.66868H50.2313C51.5083 1.67028 52.7325 2.17827 53.6355 3.08123C54.5385 3.98419 55.0464 5.20841 55.048 6.48538V9.23779C55.048 9.42028 55.1205 9.5953 55.2496 9.72435C55.3786 9.85339 55.5536 9.92589 55.7361 9.92589C55.9186 9.92589 56.0937 9.85339 56.2227 9.72435C56.3517 9.5953 56.4242 9.42028 56.4242 9.23779V6.48538C56.4222 4.84355 55.7691 3.26955 54.6081 2.10859C53.4472 0.94764 51.8732 0.29452 50.2313 0.29248Z" stroke="#6C7648" stroke-width="0.4"></path><path d="M55.7361 36.0737C55.5536 36.0737 55.3786 36.1462 55.2496 36.2752C55.1205 36.4043 55.048 36.5793 55.048 36.7618V39.5142C55.0464 40.7912 54.5385 42.0154 53.6355 42.9184C52.7325 43.8213 51.5083 44.3293 50.2313 44.3309H47.4789C47.2964 44.3309 47.1214 44.4034 46.9924 44.5324C46.8633 44.6615 46.7908 44.8365 46.7908 45.019C46.7908 45.2015 46.8633 45.3765 46.9924 45.5056C47.1214 45.6346 47.2964 45.7071 47.4789 45.7071H50.2313C51.8732 45.7051 53.4472 45.052 54.6081 43.891C55.7691 42.73 56.4222 41.156 56.4242 39.5142V36.7618C56.4242 36.5793 56.3517 36.4043 56.2227 36.2752C56.0937 36.1462 55.9186 36.0737 55.7361 36.0737Z" stroke="#6C7648" stroke-width="0.4"></path><path d="M8.94531 44.3309H6.1929C4.91593 44.3293 3.69171 43.8213 2.78875 42.9184C1.88579 42.0154 1.3778 40.7912 1.3762 39.5142V36.7618C1.3762 36.5793 1.3037 36.4043 1.17466 36.2752C1.04562 36.1462 0.870596 36.0737 0.688101 36.0737C0.505605 36.0737 0.330584 36.1462 0.20154 36.2752C0.0724962 36.4043 0 36.5793 0 36.7618V39.5142C0.00203937 41.156 0.655159 42.73 1.81611 43.891C2.97707 45.052 4.55107 45.7051 6.1929 45.7071H8.94531C9.1278 45.7071 9.30282 45.6346 9.43187 45.5056C9.56091 45.3765 9.63341 45.2015 9.63341 45.019C9.63341 44.8365 9.56091 44.6615 9.43187 44.5324C9.30282 44.4034 9.1278 44.3309 8.94531 44.3309Z" stroke="#6C7648" stroke-width="0.4"></path><path d="M0.688101 9.92589C0.870596 9.92589 1.04562 9.85339 1.17466 9.72435C1.3037 9.5953 1.3762 9.42028 1.3762 9.23779V6.48538C1.3778 5.20841 1.88579 3.98419 2.78875 3.08123C3.69171 2.17827 4.91593 1.67028 6.1929 1.66868H8.94531C9.1278 1.66868 9.30282 1.59619 9.43187 1.46714C9.56091 1.3381 9.63341 1.16308 9.63341 0.980581C9.63341 0.798085 9.56091 0.623064 9.43187 0.494021C9.30282 0.364977 9.1278 0.29248 8.94531 0.29248H6.1929C4.55107 0.29452 2.97707 0.94764 1.81611 2.10859C0.655159 3.26955 0.00203937 4.84355 0 6.48538V9.23779C0 9.42028 0.0724962 9.5953 0.20154 9.72435C0.330584 9.85339 0.505605 9.92589 0.688101 9.92589Z" stroke="#6C7648" stroke-width="0.4"></path><path d="M50.2313 29.1927C50.4138 29.1927 50.5889 29.1202 50.7179 28.9912C50.8469 28.8621 50.9194 28.6871 50.9194 28.5046C50.9194 28.3221 50.8469 28.1471 50.7179 28.018C50.5889 27.889 50.4138 27.8165 50.2313 27.8165H42.6622V22.9998C42.6622 22.8173 42.5897 22.6423 42.4607 22.5132C42.3316 22.3842 42.1566 22.3117 41.9741 22.3117C41.7916 22.3117 41.6166 22.3842 41.4876 22.5132C41.3585 22.6423 41.286 22.8173 41.286 22.9998V27.8165H34.3354C34.2744 27.2006 34.1207 26.5974 33.8796 26.0274L35.7061 24.9722C35.7879 24.9289 35.8602 24.8696 35.9185 24.7978C35.9769 24.726 36.0202 24.6431 36.0458 24.5542C36.0714 24.4652 36.0788 24.372 36.0676 24.2802C36.0563 24.1883 36.0266 24.0996 35.9803 24.0195C35.934 23.9394 35.872 23.8694 35.798 23.8138C35.7241 23.7582 35.6396 23.7181 35.5498 23.6958C35.4599 23.6736 35.3665 23.6697 35.2752 23.6845C35.1838 23.6992 35.0963 23.7322 35.018 23.7815L33.1794 24.8439C32.7457 24.2497 32.21 23.7372 31.5973 23.3301C31.623 23.2213 31.6414 23.111 31.6523 22.9998C31.6523 22.0873 31.2899 21.2122 30.6446 20.567C29.9994 19.9218 29.1243 19.5593 28.2118 19.5593C27.2994 19.5593 26.4243 19.9218 25.779 20.567C25.1338 21.2122 24.7713 22.0873 24.7713 22.9998C24.7823 23.111 24.8007 23.2213 24.8264 23.3301C24.2137 23.7372 23.678 24.2497 23.2443 24.8439L21.4057 23.7815C21.3274 23.7322 21.2399 23.6992 21.1485 23.6845C21.0572 23.6697 20.9638 23.6736 20.8739 23.6958C20.7841 23.7181 20.6996 23.7582 20.6257 23.8138C20.5517 23.8694 20.4897 23.9394 20.4434 24.0195C20.3971 24.0996 20.3674 24.1883 20.3561 24.2802C20.3449 24.372 20.3523 24.4652 20.3779 24.5542C20.4035 24.6431 20.4468 24.726 20.5051 24.7978C20.5635 24.8696 20.6358 24.9289 20.7176 24.9722L22.5441 26.0277C22.303 26.5977 22.1494 27.2009 22.0883 27.8168H15.1382V17.0232C15.1433 16.48 15.2404 15.9415 15.4256 15.4307H22.7073C23.6195 15.4299 24.4942 15.0672 25.1392 14.4221C25.7843 13.7771 26.147 12.9024 26.1478 11.9902C26.1478 11.8077 26.0753 11.6327 25.9463 11.5036C25.8172 11.3746 25.6422 11.3021 25.4597 11.3021C25.2772 11.3021 25.1022 11.3746 24.9732 11.5036C24.8441 11.6327 24.7716 11.8077 24.7716 11.9902C24.7708 12.5374 24.5531 13.062 24.1661 13.449C23.7792 13.8359 23.2546 14.0537 22.7073 14.0545H16.1888C16.3004 13.9015 16.4207 13.7552 16.5494 13.6163L24.3334 5.83224C24.4722 5.70429 24.6185 5.5848 24.7716 5.47443V9.23779C24.7716 9.42028 24.8441 9.5953 24.9732 9.72435C25.1022 9.85339 25.2772 9.92589 25.4597 9.92589C25.6422 9.92589 25.8172 9.85339 25.9463 9.72435C26.0753 9.5953 26.1478 9.42028 26.1478 9.23779V4.71394C26.6578 4.52679 27.1958 4.42776 27.739 4.42108H36.4693C37.7463 4.42269 38.9705 4.93067 39.8735 5.83363C40.7764 6.73659 41.2844 7.96081 41.286 9.23779V20.2474C41.286 20.4299 41.3585 20.6049 41.4876 20.734C41.6166 20.863 41.7916 20.9355 41.9741 20.9355C42.1566 20.9355 42.3316 20.863 42.4607 20.734C42.5897 20.6049 42.6622 20.4299 42.6622 20.2474V9.23779C42.6602 7.59595 42.0071 6.02195 40.8461 4.86099C39.6852 3.70004 38.1112 3.04692 36.4693 3.04488H27.739C26.0976 3.04987 24.5243 3.7018 23.3605 4.85927L15.5764 12.6433C14.9995 13.2172 14.5421 13.8998 14.2306 14.6516C13.9192 15.4034 13.7599 16.2095 13.762 17.0232V27.8165H6.1929C6.01041 27.8165 5.83539 27.889 5.70634 28.018C5.5773 28.1471 5.5048 28.3221 5.5048 28.5046C5.5048 28.6871 5.5773 28.8621 5.70634 28.9912C5.83539 29.1202 6.01041 29.1927 6.1929 29.1927H13.762V36.7618C13.764 38.4036 14.4172 39.9776 15.5781 41.1386C16.7391 42.2995 18.3131 42.9527 19.9549 42.9547H36.4693C38.1112 42.9527 39.6852 42.2995 40.8461 41.1386C42.0071 39.9776 42.6602 38.4036 42.6622 36.7618V29.1927H50.2313ZM28.2121 20.9355C28.6971 20.9403 29.1644 21.1177 29.5305 21.4358C29.8965 21.7539 30.1374 22.1919 30.2098 22.6714C28.9212 22.1918 27.503 22.1918 26.2144 22.6714C26.2869 22.1919 26.5277 21.7539 26.8938 21.4358C27.2598 21.1177 27.7272 20.9403 28.2121 20.9355ZM28.2121 23.6879C29.3673 23.6912 30.4827 24.1102 31.3544 24.8683C32.226 25.6264 32.7957 26.6729 32.9592 27.8165H23.4651C23.6285 26.6729 24.1982 25.6264 25.0699 24.8683C25.9415 24.1102 27.0569 23.6912 28.2121 23.6879ZM41.286 36.7618C41.2844 38.0388 40.7764 39.263 39.8735 40.166C38.9705 41.0689 37.7463 41.5769 36.4693 41.5785H19.9549C18.6779 41.5769 17.4537 41.0689 16.5508 40.166C15.6478 39.263 15.1398 38.0388 15.1382 36.7618V29.1927H22.1109C22.1797 29.8018 22.3396 30.3972 22.5851 30.9589L20.7182 32.0376C20.6363 32.0808 20.5641 32.1401 20.5057 32.212C20.4473 32.2838 20.404 32.3666 20.3784 32.4556C20.3528 32.5445 20.3454 32.6377 20.3567 32.7296C20.3679 32.8215 20.3976 32.9101 20.4439 32.9902C20.4902 33.0704 20.5522 33.1403 20.6262 33.196C20.7002 33.2516 20.7846 33.2917 20.8745 33.3139C20.9643 33.3361 21.0577 33.34 21.1491 33.3253C21.2405 33.3106 21.3279 33.2776 21.4063 33.2283L23.2727 32.1499C23.7619 32.844 24.3899 33.4291 25.1168 33.8682C25.1951 33.9175 25.2826 33.9505 25.3739 33.9652C25.4653 33.9799 25.5587 33.9761 25.6486 33.9538C25.7384 33.9316 25.8228 33.8915 25.8968 33.8359C25.9708 33.7803 26.0328 33.7103 26.0791 33.6302C26.1254 33.55 26.1551 33.4614 26.1663 33.3695C26.1776 33.2777 26.1702 33.1845 26.1446 33.0955C26.119 33.0066 26.0757 32.9237 26.0173 32.8519C25.959 32.7801 25.8867 32.7208 25.8049 32.6775C25.1812 32.3087 24.6489 31.8037 24.2478 31.2002C23.8467 30.5968 23.5871 29.9105 23.4884 29.1927H32.9603C32.7968 30.3365 32.227 31.3831 31.3551 32.1412C30.4832 32.8994 29.3675 33.3183 28.2121 33.3213C28.0296 33.3213 27.8546 33.3938 27.7256 33.5228C27.5965 33.6519 27.524 33.8269 27.524 34.0094C27.524 34.1919 27.5965 34.3669 27.7256 34.496C27.8546 34.625 28.0296 34.6975 28.2121 34.6975C29.1807 34.6949 30.1351 34.4643 30.998 34.0243C31.861 33.5844 32.6082 32.9476 33.1794 32.1653L35.018 33.2274C35.0963 33.2768 35.1838 33.3097 35.2752 33.3245C35.3665 33.3392 35.4599 33.3353 35.5498 33.3131C35.6396 33.2909 35.7241 33.2507 35.798 33.1951C35.872 33.1395 35.934 33.0695 35.9803 32.9894C36.0266 32.9093 36.0563 32.8206 36.0676 32.7288C36.0788 32.6369 36.0714 32.5437 36.0458 32.4548C36.0202 32.3658 35.9769 32.283 35.9185 32.2111C35.8602 32.1393 35.7879 32.08 35.7061 32.0368L33.8796 30.9818C34.1208 30.4118 34.2744 29.8086 34.3354 29.1927H41.286V36.7618Z" stroke="#6C7648" stroke-width="0.4"></path><path d="M36.4693 8.54969H30.9645C30.782 8.54969 30.607 8.62218 30.478 8.75123C30.3489 8.88027 30.2764 9.05529 30.2764 9.23779C30.2764 9.42028 30.3489 9.5953 30.478 9.72435C30.607 9.85339 30.782 9.92589 30.9645 9.92589H36.4693C36.6518 9.92589 36.8268 9.85339 36.9559 9.72435C37.0849 9.5953 37.1574 9.42028 37.1574 9.23779C37.1574 9.05529 37.0849 8.88027 36.9559 8.75123C36.8268 8.62218 36.6518 8.54969 36.4693 8.54969Z" stroke="#6C7648" stroke-width="0.4"></path><path d="M36.4693 11.3021H30.9645C30.782 11.3021 30.607 11.3746 30.478 11.5036C30.3489 11.6327 30.2764 11.8077 30.2764 11.9902C30.2764 12.1727 30.3489 12.3477 30.478 12.4767C30.607 12.6058 30.782 12.6783 30.9645 12.6783H36.4693C36.6518 12.6783 36.8268 12.6058 36.9559 12.4767C37.0849 12.3477 37.1574 12.1727 37.1574 11.9902C37.1574 11.8077 37.0849 11.6327 36.9559 11.5036C36.8268 11.3746 36.6518 11.3021 36.4693 11.3021Z" stroke="#6C7648" stroke-width="0.4"></path></svg>