<svg xmlns="http://www.w3.org/2000/svg" width="55" height="56" viewBox="0 0 55 56" fill="none"><path d="M52.935 9.53839C52.3039 8.94778 51.5555 8.49677 50.7385 8.21473C49.9214 7.93268 49.0541 7.82595 48.1931 7.90147C45.7459 8.13812 43.2833 7.64697 41.1141 6.48961C39.6521 5.68928 38.3672 4.60127 37.3368 3.29113C36.7927 2.61987 36.1033 2.08079 35.3207 1.71448C34.5381 1.34817 33.6826 1.16418 32.8186 1.17635H22.0824C20.5789 1.18235 19.1338 1.75922 18.0394 2.79024C16.2596 4.45237 14.1334 5.69919 11.8139 6.44093C11.732 6.4671 11.656 6.50915 11.5904 6.56466C11.5247 6.62018 11.4707 6.68809 11.4313 6.7645C11.3919 6.84092 11.3679 6.92434 11.3607 7.01002C11.3536 7.0957 11.3634 7.18195 11.3895 7.26384C11.4157 7.34574 11.4577 7.42168 11.5133 7.48732C11.5688 7.55297 11.6367 7.60704 11.7131 7.64644C11.7895 7.68585 11.8729 7.70982 11.9586 7.71698C12.0443 7.72414 12.1305 7.71435 12.2124 7.68818C14.7148 6.88732 17.0085 5.54186 18.9287 3.74858C19.7821 2.94343 20.9091 2.49183 22.0824 2.48484H32.8186C33.4855 2.4734 34.1464 2.61349 34.7513 2.89455C35.3563 3.1756 35.8895 3.59029 36.3109 4.10737C37.451 5.554 38.8713 6.75563 40.4868 7.64029C42.8791 8.92287 45.5979 9.46764 48.2996 9.20577C48.9774 9.14558 49.6603 9.22882 50.3038 9.45007C50.9473 9.67133 51.537 10.0256 52.0345 10.4899C52.4958 10.9229 52.8593 11.4492 53.101 12.0338C53.3427 12.6183 53.457 13.2477 53.4362 13.88C53.4043 15.0838 53.3368 16.2952 53.2331 17.477C52.858 21.7897 52.0156 26.049 50.7208 30.1798C50.6734 30.3306 50.6248 30.4661 50.5675 30.6129C49.1591 34.127 47.4561 37.5157 45.4766 40.7428C44.0845 43.0095 42.5591 45.1916 40.9084 47.2776C39.3073 49.228 37.2936 50.7991 35.0123 51.8778C32.7311 52.9565 30.239 53.516 27.7156 53.516C25.1921 53.516 22.7001 52.9565 20.4189 51.8778C18.1376 50.7991 16.1239 49.228 14.5227 47.2776C12.8717 45.1916 11.3459 43.0094 9.9532 40.7428C7.97444 37.5155 6.2723 34.1265 4.86501 30.6122C4.80612 30.4654 4.75771 30.3298 4.71034 30.1791C3.41707 26.0478 2.57473 21.7887 2.19804 17.4762C2.06719 15.9709 1.99208 14.4426 1.9769 12.935C1.9701 12.3708 2.07691 11.811 2.29096 11.2889C2.50501 10.7668 2.82193 10.2932 3.22285 9.89613C4.12111 9.01315 5.33186 8.52084 6.59143 8.5264H6.63853C7.59164 8.53032 8.54372 8.46322 9.48686 8.32568C9.65829 8.29955 9.81234 8.20642 9.91514 8.06676C10.0179 7.9271 10.0611 7.75235 10.0351 7.58089C10.0072 7.41016 9.9137 7.25709 9.77449 7.1544C9.63527 7.05171 9.46141 7.00754 9.29006 7.03132C8.41688 7.16371 7.53447 7.22567 6.65136 7.21661C5.02706 7.21115 3.46487 7.84031 2.29775 8.96998C1.77337 9.48972 1.35883 10.1096 1.07875 10.7927C0.798667 11.4758 0.658769 12.2082 0.667366 12.9465C0.683853 14.4889 0.759222 16.0505 0.893473 17.5877C1.27883 21.9943 2.13958 26.3464 3.46073 30.5679C3.51804 30.7511 3.57693 30.9155 3.64968 31.0958C5.08473 34.6801 6.82067 38.1365 8.83889 41.4279C10.2584 43.739 11.8139 45.9638 13.4971 48.0905C15.2207 50.1954 17.3902 51.8914 19.8489 53.0559C22.3076 54.2205 24.9942 54.8246 27.7148 54.8246C30.4354 54.8246 33.122 54.2205 35.5807 53.0559C38.0394 51.8914 40.2089 50.1954 41.9325 48.0905C43.6157 45.9637 45.1711 43.739 46.5907 41.4279C48.6092 38.1371 50.3456 34.6815 51.7812 31.0979C51.8529 30.9176 51.9121 30.754 51.9691 30.57C53.2912 26.3487 54.152 21.9966 54.5364 17.5898C54.6424 16.3821 54.7112 15.1453 54.7444 13.9135C54.7709 13.0975 54.6233 12.2853 54.3113 11.5309C53.9993 10.7765 53.5301 10.0973 52.935 9.53839Z" fill="#6C7648"></path><path d="M27.7149 52.2075C30.043 52.2207 32.3443 51.7117 34.4496 50.7179C36.5549 49.7241 38.4106 48.2708 39.88 46.4651C41.4996 44.4205 42.9956 42.281 44.36 40.0579C46.3045 36.8889 47.9767 33.5607 49.3584 30.1089L49.4736 29.7881C50.7375 25.7471 51.5614 21.5815 51.9309 17.3637C52.0356 16.1473 52.102 14.9739 52.1301 13.8433C52.1455 13.4177 52.074 12.9934 51.9198 12.5964C51.7655 12.1993 51.5319 11.838 51.2332 11.5344C50.8608 11.1771 50.418 10.9015 49.9331 10.725C49.4481 10.5486 48.9317 10.4752 48.4168 10.5096H48.4053C47.9568 10.5467 47.4917 10.5671 47.0149 10.5671C44.5193 10.5877 42.0591 9.9755 39.8643 8.78758C38.0933 7.8197 36.536 6.5041 35.2859 4.91968C34.9846 4.55975 34.6066 4.27174 34.1797 4.07672C33.7528 3.8817 33.2876 3.78461 32.8183 3.79255H22.0824C21.2391 3.79968 20.4301 4.12711 19.8192 4.70849C17.7585 6.63269 15.2966 8.07589 12.611 8.93413C10.663 9.54814 8.63066 9.8521 6.58829 9.8349C5.67152 9.82918 4.79 10.1877 4.13748 10.8317C3.86188 11.1043 3.6442 11.4297 3.4975 11.7885C3.35081 12.1472 3.27813 12.532 3.28382 12.9195C3.299 14.4005 3.37202 15.8943 3.49973 17.3626C3.87011 21.5894 4.69701 25.7637 5.96597 29.8124L6.0785 30.1265C7.459 33.5719 9.12821 36.8946 11.0683 40.0589C12.4331 42.282 13.9295 44.4216 15.5496 46.4661C17.908 49.3983 21.2645 51.3583 24.9773 51.9709C25.062 51.9869 25.149 51.9858 25.2333 51.9676C25.3176 51.9494 25.3973 51.9145 25.4678 51.865C25.5384 51.8154 25.5983 51.7522 25.644 51.6791C25.6896 51.606 25.7202 51.5245 25.7339 51.4394C25.7636 51.2686 25.7243 51.093 25.6247 50.9512C25.525 50.8093 25.3731 50.7128 25.2024 50.6828C21.8058 50.1242 18.7341 48.3337 16.5744 45.6533C12.7279 40.7988 9.60443 35.413 7.30115 29.6635L7.20668 29.3976C5.97089 25.4463 5.16517 21.3731 4.80351 17.2488C4.67841 15.8139 4.60802 14.3534 4.59284 12.9046C4.5888 12.69 4.62891 12.4768 4.71066 12.2784C4.79241 12.0799 4.91406 11.9003 5.06808 11.7508C5.27098 11.5537 5.51075 11.3985 5.77366 11.2942C6.03658 11.1898 6.31749 11.1383 6.60033 11.1426C8.77405 11.1596 10.9369 10.8349 13.0098 10.1803C15.8786 9.26329 18.5084 7.72172 20.71 5.66657C21.0795 5.31138 21.5699 5.10955 22.0824 5.10182H32.8173C33.0896 5.09343 33.3604 5.14585 33.61 5.25526C33.8596 5.36468 34.0816 5.52834 34.26 5.73435C35.6191 7.45648 37.312 8.88638 39.2372 9.93827C41.6243 11.2302 44.2997 11.8965 47.0139 11.8748C47.5263 11.8748 48.0272 11.8518 48.5103 11.8146C48.8351 11.791 49.1613 11.8349 49.4683 11.9435C49.7754 12.0521 50.0566 12.2232 50.2942 12.4459C50.4713 12.6245 50.6094 12.8379 50.7 13.0725C50.7906 13.3072 50.8316 13.558 50.8205 13.8093C50.7912 14.9134 50.7287 16.0623 50.6263 17.2493C50.2658 21.3636 49.463 25.4271 48.2318 29.3694L48.1347 29.6428C46.7827 33.0182 45.1471 36.273 43.2457 39.3722C41.9085 41.551 40.4425 43.648 38.8557 45.6522C37.509 47.3039 35.8091 48.6326 33.8811 49.5406C31.9531 50.4486 29.846 50.9128 27.7149 50.899C27.5414 50.899 27.375 50.9679 27.2523 51.0906C27.1296 51.2133 27.0607 51.3797 27.0607 51.5533C27.0607 51.7268 27.1296 51.8932 27.2523 52.0159C27.375 52.1386 27.5414 52.2075 27.7149 52.2075Z" fill="#6C7648"></path><path d="M34.8336 24.641C34.9114 24.5999 34.9801 24.5435 35.0356 24.4752C35.0911 24.4069 35.1323 24.3281 35.1566 24.2436C35.181 24.159 35.188 24.0704 35.1773 23.983C35.1666 23.8957 35.1384 23.8114 35.0944 23.7352C35.0504 23.659 34.9914 23.5925 34.9211 23.5396C34.8507 23.4867 34.7704 23.4486 34.685 23.4275C34.5996 23.4063 34.5108 23.4027 34.4239 23.4166C34.337 23.4306 34.2539 23.462 34.1794 23.5089L32.4302 24.5188C32.0308 23.9691 31.5397 23.4922 30.9786 23.109V22.7665C30.9786 21.8989 30.6339 21.0668 30.0204 20.4533C29.407 19.8399 28.5749 19.4952 27.7073 19.4952C26.8398 19.4952 26.0077 19.8399 25.3942 20.4533C24.7808 21.0668 24.4361 21.8989 24.4361 22.7665V23.109C23.875 23.4922 23.3839 23.9691 22.9845 24.5188L21.2353 23.5089C21.1608 23.462 21.0776 23.4306 20.9908 23.4166C20.9039 23.4027 20.8151 23.4063 20.7296 23.4275C20.6442 23.4486 20.5639 23.4867 20.4936 23.5396C20.4233 23.5925 20.3643 23.659 20.3203 23.7352C20.2763 23.8114 20.248 23.8957 20.2373 23.983C20.2266 24.0704 20.2337 24.159 20.258 24.2436C20.2824 24.3281 20.3235 24.4069 20.379 24.4752C20.4345 24.5435 20.5032 24.5999 20.581 24.641L22.3187 25.6441C22.0895 26.1861 21.9434 26.7595 21.8853 27.3451H19.8564C19.6829 27.3451 19.5165 27.4141 19.3938 27.5367C19.2711 27.6594 19.2021 27.8259 19.2021 27.9994C19.2021 28.1729 19.2711 28.3393 19.3938 28.462C19.5165 28.5847 19.6829 28.6536 19.8564 28.6536H21.8853C21.9432 29.2392 22.0892 29.8126 22.3182 30.3547L20.581 31.3575C20.5032 31.3986 20.4345 31.455 20.379 31.5233C20.3235 31.5916 20.2824 31.6704 20.258 31.7549C20.2337 31.8395 20.2266 31.9281 20.2373 32.0154C20.248 32.1028 20.2763 32.1871 20.3203 32.2633C20.3643 32.3395 20.4233 32.406 20.4936 32.4589C20.5639 32.5117 20.6442 32.5499 20.7296 32.571C20.8151 32.5921 20.9039 32.5958 20.9908 32.5818C21.0776 32.5678 21.1608 32.5365 21.2353 32.4896L22.9839 31.4802C23.5253 32.2256 24.2354 32.8323 25.0562 33.2506C25.8769 33.669 26.785 33.8871 27.7063 33.8873C28.6275 33.8875 29.5357 33.6696 30.3566 33.2515C31.1775 32.8334 31.8878 32.227 32.4294 31.4818L34.1794 32.4919C34.2539 32.5388 34.337 32.5702 34.4239 32.5842C34.5108 32.5982 34.5996 32.5945 34.685 32.5734C34.7704 32.5522 34.8507 32.5141 34.9211 32.4612C34.9914 32.4083 35.0504 32.3418 35.0944 32.2656C35.1384 32.1894 35.1666 32.1051 35.1773 32.0178C35.188 31.9304 35.181 31.8418 35.1566 31.7573C35.1323 31.6727 35.0911 31.5939 35.0356 31.5256C34.9801 31.4573 34.9114 31.401 34.8336 31.3598L33.0954 30.3565C33.3251 29.8139 33.4714 29.2397 33.5293 28.6534H35.5583C35.7318 28.6534 35.8982 28.5844 36.0209 28.4617C36.1436 28.339 36.2125 28.1726 36.2125 27.9991C36.2125 27.8256 36.1436 27.6592 36.0209 27.5365C35.8982 27.4138 35.7318 27.3449 35.5583 27.3449H33.5293C33.4713 26.7593 33.3252 26.1858 33.096 25.6438L34.8336 24.641ZM27.7073 20.8037C28.1685 20.808 28.613 20.9766 28.9611 21.2791C29.3092 21.5816 29.5381 21.9982 29.6067 22.4542C28.3815 21.9982 27.0331 21.9982 25.8079 22.4542C25.8766 21.9982 26.1055 21.5816 26.4536 21.2791C26.8017 20.9766 27.2462 20.808 27.7073 20.8037ZM27.7073 32.5801C26.8016 32.5801 25.9161 32.3115 25.163 31.8083C24.4098 31.3051 23.8229 30.5898 23.4762 29.753C23.1296 28.9162 23.0389 27.9953 23.2156 27.107C23.3923 26.2186 23.8285 25.4025 24.469 24.7621C25.1095 24.1216 25.9255 23.6854 26.8139 23.5087C27.7023 23.332 28.6231 23.4227 29.4599 23.7693C30.2968 24.1159 31.012 24.7029 31.5152 25.4561C32.0185 26.2092 32.2871 27.0946 32.2871 28.0004C32.2855 29.2146 31.8025 30.3785 30.944 31.2371C30.0855 32.0956 28.9215 32.5786 27.7073 32.5801Z" fill="#6C7648"></path><path d="M27.7073 14.2613C24.4457 14.2615 21.2905 15.4223 18.8064 17.536C16.3223 19.6497 14.6713 22.5783 14.149 25.7979C13.6266 29.0175 14.2669 32.3178 15.9553 35.1085C17.6437 37.8992 20.27 39.998 23.3643 41.0294C26.4586 42.0609 29.819 41.9576 32.8441 40.7381C35.8692 39.5186 38.3617 37.2625 39.8755 34.3734C41.3894 31.4843 41.8258 28.1509 41.1068 24.9694C40.3877 21.788 38.56 18.9663 35.9508 17.0091C35.8822 16.9574 35.8041 16.9197 35.7209 16.8983C35.6377 16.8768 35.5511 16.8719 35.466 16.8838C35.3809 16.8958 35.299 16.9244 35.225 16.9681C35.151 17.0117 35.0863 17.0695 35.0346 17.1381C34.9829 17.2067 34.9453 17.2849 34.9238 17.3681C34.9023 17.4513 34.8974 17.5379 34.9094 17.6229C34.9214 17.708 34.95 17.7899 34.9936 17.8639C35.0372 17.9379 35.095 18.0026 35.1636 18.0543C37.6867 19.9512 39.3892 22.7408 39.9228 25.8519C40.4564 28.963 39.7807 32.1605 38.034 34.7897C36.2873 37.4189 33.6017 39.2811 30.5269 39.9951C27.4521 40.709 24.2208 40.2207 21.4942 38.6302C18.7677 37.0396 16.7522 34.467 15.8604 31.4391C14.9685 28.4111 15.2677 25.1568 16.6967 22.3422C18.1258 19.5277 20.5765 17.3657 23.5474 16.299C26.5182 15.2322 29.7845 15.3414 32.6775 16.604C32.7567 16.6415 32.8426 16.6627 32.9301 16.6664C33.0176 16.6701 33.105 16.6562 33.1871 16.6254C33.2691 16.5947 33.3441 16.5478 33.4077 16.4875C33.4713 16.4273 33.5221 16.3548 33.5572 16.2746C33.5923 16.1943 33.6108 16.1078 33.6118 16.0202C33.6128 15.9326 33.5962 15.8456 33.563 15.7646C33.5298 15.6835 33.4806 15.61 33.4184 15.5483C33.3562 15.4866 33.2822 15.438 33.2009 15.4054C31.4688 14.6474 29.598 14.2578 27.7073 14.2613Z" fill="#6C7648"></path><path d="M52.935 9.53839C52.3039 8.94778 51.5555 8.49677 50.7385 8.21473C49.9214 7.93268 49.0541 7.82595 48.1931 7.90147C45.7459 8.13812 43.2833 7.64697 41.1141 6.48961C39.6521 5.68928 38.3672 4.60127 37.3368 3.29113C36.7927 2.61987 36.1033 2.08079 35.3207 1.71448C34.5381 1.34817 33.6826 1.16418 32.8186 1.17635H22.0824C20.5789 1.18235 19.1338 1.75922 18.0394 2.79024C16.2596 4.45237 14.1334 5.69919 11.8139 6.44093C11.732 6.4671 11.656 6.50915 11.5904 6.56466C11.5247 6.62018 11.4707 6.68809 11.4313 6.7645C11.3919 6.84092 11.3679 6.92434 11.3607 7.01002C11.3536 7.0957 11.3634 7.18195 11.3895 7.26384C11.4157 7.34574 11.4577 7.42168 11.5133 7.48732C11.5688 7.55297 11.6367 7.60704 11.7131 7.64644C11.7895 7.68585 11.8729 7.70982 11.9586 7.71698C12.0443 7.72414 12.1305 7.71435 12.2124 7.68818C14.7148 6.88732 17.0085 5.54186 18.9287 3.74858C19.7821 2.94343 20.9091 2.49183 22.0824 2.48484H32.8186C33.4855 2.4734 34.1464 2.61349 34.7513 2.89455C35.3563 3.1756 35.8895 3.59029 36.3109 4.10737C37.451 5.554 38.8713 6.75563 40.4868 7.64029C42.8791 8.92287 45.5979 9.46764 48.2996 9.20577C48.9774 9.14558 49.6603 9.22882 50.3038 9.45007C50.9473 9.67133 51.537 10.0256 52.0345 10.4899C52.4958 10.9229 52.8593 11.4492 53.101 12.0338C53.3427 12.6183 53.457 13.2477 53.4362 13.88C53.4043 15.0838 53.3368 16.2952 53.2331 17.477C52.858 21.7897 52.0156 26.049 50.7208 30.1798C50.6734 30.3306 50.6248 30.4661 50.5675 30.6129C49.1591 34.127 47.4561 37.5157 45.4766 40.7428C44.0845 43.0095 42.5591 45.1916 40.9084 47.2776C39.3073 49.228 37.2936 50.7991 35.0123 51.8778C32.7311 52.9565 30.239 53.516 27.7156 53.516C25.1921 53.516 22.7001 52.9565 20.4189 51.8778C18.1376 50.7991 16.1239 49.228 14.5227 47.2776C12.8717 45.1916 11.3459 43.0094 9.9532 40.7428C7.97444 37.5155 6.2723 34.1265 4.86501 30.6122C4.80612 30.4654 4.75771 30.3298 4.71034 30.1791C3.41707 26.0478 2.57473 21.7887 2.19804 17.4762C2.06719 15.9709 1.99208 14.4426 1.9769 12.935C1.9701 12.3708 2.07691 11.811 2.29096 11.2889C2.50501 10.7668 2.82193 10.2932 3.22285 9.89613C4.12111 9.01315 5.33186 8.52084 6.59143 8.5264H6.63853C7.59164 8.53032 8.54372 8.46322 9.48686 8.32568C9.65829 8.29955 9.81234 8.20642 9.91514 8.06676C10.0179 7.9271 10.0611 7.75235 10.0351 7.58089C10.0072 7.41016 9.9137 7.25709 9.77449 7.1544C9.63527 7.05171 9.46141 7.00754 9.29006 7.03132C8.41688 7.16371 7.53447 7.22567 6.65136 7.21661C5.02706 7.21115 3.46487 7.84031 2.29775 8.96998C1.77337 9.48972 1.35883 10.1096 1.07875 10.7927C0.798667 11.4758 0.658769 12.2082 0.667366 12.9465C0.683853 14.4889 0.759222 16.0505 0.893473 17.5877C1.27883 21.9943 2.13958 26.3464 3.46073 30.5679C3.51804 30.7511 3.57693 30.9155 3.64968 31.0958C5.08473 34.6801 6.82067 38.1365 8.83889 41.4279C10.2584 43.739 11.8139 45.9638 13.4971 48.0905C15.2207 50.1954 17.3902 51.8914 19.8489 53.0559C22.3076 54.2205 24.9942 54.8246 27.7148 54.8246C30.4354 54.8246 33.122 54.2205 35.5807 53.0559C38.0394 51.8914 40.2089 50.1954 41.9325 48.0905C43.6157 45.9637 45.1711 43.739 46.5907 41.4279C48.6092 38.1371 50.3456 34.6815 51.7812 31.0979C51.8529 30.9176 51.9121 30.754 51.9691 30.57C53.2912 26.3487 54.152 21.9966 54.5364 17.5898C54.6424 16.3821 54.7112 15.1453 54.7444 13.9135C54.7709 13.0975 54.6233 12.2853 54.3113 11.5309C53.9993 10.7765 53.5301 10.0973 52.935 9.53839Z" stroke="#6C7648" stroke-width="0.4"></path><path d="M27.7149 52.2075C30.043 52.2207 32.3443 51.7117 34.4496 50.7179C36.5549 49.7241 38.4106 48.2708 39.88 46.4651C41.4996 44.4205 42.9956 42.281 44.36 40.0579C46.3045 36.8889 47.9767 33.5607 49.3584 30.1089L49.4736 29.7881C50.7375 25.7471 51.5614 21.5815 51.9309 17.3637C52.0356 16.1473 52.102 14.9739 52.1301 13.8433C52.1455 13.4177 52.074 12.9934 51.9198 12.5964C51.7655 12.1993 51.5319 11.838 51.2332 11.5344C50.8608 11.1771 50.418 10.9015 49.9331 10.725C49.4481 10.5486 48.9317 10.4752 48.4168 10.5096H48.4053C47.9568 10.5467 47.4917 10.5671 47.0149 10.5671C44.5193 10.5877 42.0591 9.9755 39.8643 8.78758C38.0933 7.8197 36.536 6.5041 35.2859 4.91968C34.9846 4.55975 34.6066 4.27174 34.1797 4.07672C33.7528 3.8817 33.2876 3.78461 32.8183 3.79255H22.0824C21.2391 3.79968 20.4301 4.12711 19.8192 4.70849C17.7585 6.63269 15.2966 8.07589 12.611 8.93413C10.663 9.54814 8.63066 9.8521 6.58829 9.8349C5.67152 9.82918 4.79 10.1877 4.13748 10.8317C3.86188 11.1043 3.6442 11.4297 3.4975 11.7885C3.35081 12.1472 3.27813 12.532 3.28382 12.9195C3.299 14.4005 3.37202 15.8943 3.49973 17.3626C3.87011 21.5894 4.69701 25.7637 5.96597 29.8124L6.0785 30.1265C7.459 33.5719 9.12821 36.8946 11.0683 40.0589C12.4331 42.282 13.9295 44.4216 15.5496 46.4661C17.908 49.3983 21.2645 51.3583 24.9773 51.9709C25.062 51.9869 25.149 51.9858 25.2333 51.9676C25.3176 51.9494 25.3973 51.9145 25.4678 51.865C25.5384 51.8154 25.5983 51.7522 25.644 51.6791C25.6896 51.606 25.7202 51.5245 25.7339 51.4394C25.7636 51.2686 25.7243 51.093 25.6247 50.9512C25.525 50.8093 25.3731 50.7128 25.2024 50.6828C21.8058 50.1242 18.7341 48.3337 16.5744 45.6533C12.7279 40.7988 9.60443 35.413 7.30115 29.6635L7.20668 29.3976C5.97089 25.4463 5.16517 21.3731 4.80351 17.2488C4.67841 15.8139 4.60802 14.3534 4.59284 12.9046C4.5888 12.69 4.62891 12.4768 4.71066 12.2784C4.79241 12.0799 4.91406 11.9003 5.06808 11.7508C5.27098 11.5537 5.51075 11.3985 5.77366 11.2942C6.03658 11.1898 6.31749 11.1383 6.60033 11.1426C8.77405 11.1596 10.9369 10.8349 13.0098 10.1803C15.8786 9.26329 18.5084 7.72172 20.71 5.66657C21.0795 5.31138 21.5699 5.10955 22.0824 5.10182H32.8173C33.0896 5.09343 33.3604 5.14585 33.61 5.25526C33.8596 5.36468 34.0816 5.52834 34.26 5.73435C35.6191 7.45648 37.312 8.88638 39.2372 9.93827C41.6243 11.2302 44.2997 11.8965 47.0139 11.8748C47.5263 11.8748 48.0272 11.8518 48.5103 11.8146C48.8351 11.791 49.1613 11.8349 49.4683 11.9435C49.7754 12.0521 50.0566 12.2232 50.2942 12.4459C50.4713 12.6245 50.6094 12.8379 50.7 13.0725C50.7906 13.3072 50.8316 13.558 50.8205 13.8093C50.7912 14.9134 50.7287 16.0623 50.6263 17.2493C50.2658 21.3636 49.463 25.4271 48.2318 29.3694L48.1347 29.6428C46.7827 33.0182 45.1471 36.273 43.2457 39.3722C41.9085 41.551 40.4425 43.648 38.8557 45.6522C37.509 47.3039 35.8091 48.6326 33.8811 49.5406C31.9531 50.4486 29.846 50.9128 27.7149 50.899C27.5414 50.899 27.375 50.9679 27.2523 51.0906C27.1296 51.2133 27.0607 51.3797 27.0607 51.5533C27.0607 51.7268 27.1296 51.8932 27.2523 52.0159C27.375 52.1386 27.5414 52.2075 27.7149 52.2075Z" stroke="#6C7648" stroke-width="0.4"></path><path d="M34.8336 24.641C34.9114 24.5999 34.9801 24.5435 35.0356 24.4752C35.0911 24.4069 35.1323 24.3281 35.1566 24.2436C35.181 24.159 35.188 24.0704 35.1773 23.983C35.1666 23.8957 35.1384 23.8114 35.0944 23.7352C35.0504 23.659 34.9914 23.5925 34.9211 23.5396C34.8507 23.4867 34.7704 23.4486 34.685 23.4275C34.5996 23.4063 34.5108 23.4027 34.4239 23.4166C34.337 23.4306 34.2539 23.462 34.1794 23.5089L32.4302 24.5188C32.0308 23.9691 31.5397 23.4922 30.9786 23.109V22.7665C30.9786 21.8989 30.6339 21.0668 30.0204 20.4533C29.407 19.8399 28.5749 19.4952 27.7073 19.4952C26.8398 19.4952 26.0077 19.8399 25.3942 20.4533C24.7808 21.0668 24.4361 21.8989 24.4361 22.7665V23.109C23.875 23.4922 23.3839 23.9691 22.9845 24.5188L21.2353 23.5089C21.1608 23.462 21.0776 23.4306 20.9908 23.4166C20.9039 23.4027 20.8151 23.4063 20.7296 23.4275C20.6442 23.4486 20.5639 23.4867 20.4936 23.5396C20.4233 23.5925 20.3643 23.659 20.3203 23.7352C20.2763 23.8114 20.248 23.8957 20.2373 23.983C20.2266 24.0704 20.2337 24.159 20.258 24.2436C20.2824 24.3281 20.3235 24.4069 20.379 24.4752C20.4345 24.5435 20.5032 24.5999 20.581 24.641L22.3187 25.6441C22.0895 26.1861 21.9434 26.7595 21.8853 27.3451H19.8564C19.6829 27.3451 19.5165 27.4141 19.3938 27.5367C19.2711 27.6594 19.2021 27.8259 19.2021 27.9994C19.2021 28.1729 19.2711 28.3393 19.3938 28.462C19.5165 28.5847 19.6829 28.6536 19.8564 28.6536H21.8853C21.9432 29.2392 22.0892 29.8126 22.3182 30.3547L20.581 31.3575C20.5032 31.3986 20.4345 31.455 20.379 31.5233C20.3235 31.5916 20.2824 31.6704 20.258 31.7549C20.2337 31.8395 20.2266 31.9281 20.2373 32.0154C20.248 32.1028 20.2763 32.1871 20.3203 32.2633C20.3643 32.3395 20.4233 32.406 20.4936 32.4589C20.5639 32.5117 20.6442 32.5499 20.7296 32.571C20.8151 32.5921 20.9039 32.5958 20.9908 32.5818C21.0776 32.5678 21.1608 32.5365 21.2353 32.4896L22.9839 31.4802C23.5253 32.2256 24.2354 32.8323 25.0562 33.2506C25.8769 33.669 26.785 33.8871 27.7063 33.8873C28.6275 33.8875 29.5357 33.6696 30.3566 33.2515C31.1775 32.8334 31.8878 32.227 32.4294 31.4818L34.1794 32.4919C34.2539 32.5388 34.337 32.5702 34.4239 32.5842C34.5108 32.5982 34.5996 32.5945 34.685 32.5734C34.7704 32.5522 34.8507 32.5141 34.9211 32.4612C34.9914 32.4083 35.0504 32.3418 35.0944 32.2656C35.1384 32.1894 35.1666 32.1051 35.1773 32.0178C35.188 31.9304 35.181 31.8418 35.1566 31.7573C35.1323 31.6727 35.0911 31.5939 35.0356 31.5256C34.9801 31.4573 34.9114 31.401 34.8336 31.3598L33.0954 30.3565C33.3251 29.8139 33.4714 29.2397 33.5293 28.6534H35.5583C35.7318 28.6534 35.8982 28.5844 36.0209 28.4617C36.1436 28.339 36.2125 28.1726 36.2125 27.9991C36.2125 27.8256 36.1436 27.6592 36.0209 27.5365C35.8982 27.4138 35.7318 27.3449 35.5583 27.3449H33.5293C33.4713 26.7593 33.3252 26.1858 33.096 25.6438L34.8336 24.641ZM27.7073 20.8037C28.1685 20.808 28.613 20.9766 28.9611 21.2791C29.3092 21.5816 29.5381 21.9982 29.6067 22.4542C28.3815 21.9982 27.0331 21.9982 25.8079 22.4542C25.8766 21.9982 26.1055 21.5816 26.4536 21.2791C26.8017 20.9766 27.2462 20.808 27.7073 20.8037ZM27.7073 32.5801C26.8016 32.5801 25.9161 32.3115 25.163 31.8083C24.4098 31.3051 23.8229 30.5898 23.4762 29.753C23.1296 28.9162 23.0389 27.9953 23.2156 27.107C23.3923 26.2186 23.8285 25.4025 24.469 24.7621C25.1095 24.1216 25.9255 23.6854 26.8139 23.5087C27.7023 23.332 28.6231 23.4227 29.4599 23.7693C30.2968 24.1159 31.012 24.7029 31.5152 25.4561C32.0185 26.2092 32.2871 27.0946 32.2871 28.0004C32.2855 29.2146 31.8025 30.3785 30.944 31.2371C30.0855 32.0956 28.9215 32.5786 27.7073 32.5801Z" stroke="#6C7648" stroke-width="0.4"></path><path d="M27.7073 14.2613C24.4457 14.2615 21.2905 15.4223 18.8064 17.536C16.3223 19.6497 14.6713 22.5783 14.149 25.7979C13.6266 29.0175 14.2669 32.3178 15.9553 35.1085C17.6437 37.8992 20.27 39.998 23.3643 41.0294C26.4586 42.0609 29.819 41.9576 32.8441 40.7381C35.8692 39.5186 38.3617 37.2625 39.8755 34.3734C41.3894 31.4843 41.8258 28.1509 41.1068 24.9694C40.3877 21.788 38.56 18.9663 35.9508 17.0091C35.8822 16.9574 35.8041 16.9197 35.7209 16.8983C35.6377 16.8768 35.5511 16.8719 35.466 16.8838C35.3809 16.8958 35.299 16.9244 35.225 16.9681C35.151 17.0117 35.0863 17.0695 35.0346 17.1381C34.9829 17.2067 34.9453 17.2849 34.9238 17.3681C34.9023 17.4513 34.8974 17.5379 34.9094 17.6229C34.9214 17.708 34.95 17.7899 34.9936 17.8639C35.0372 17.9379 35.095 18.0026 35.1636 18.0543C37.6867 19.9512 39.3892 22.7408 39.9228 25.8519C40.4564 28.963 39.7807 32.1605 38.034 34.7897C36.2873 37.4189 33.6017 39.2811 30.5269 39.9951C27.4521 40.709 24.2208 40.2207 21.4942 38.6302C18.7677 37.0396 16.7522 34.467 15.8604 31.4391C14.9685 28.4111 15.2677 25.1568 16.6967 22.3422C18.1258 19.5277 20.5765 17.3657 23.5474 16.299C26.5182 15.2322 29.7845 15.3414 32.6775 16.604C32.7567 16.6415 32.8426 16.6627 32.9301 16.6664C33.0176 16.6701 33.105 16.6562 33.1871 16.6254C33.2691 16.5947 33.3441 16.5478 33.4077 16.4875C33.4713 16.4273 33.5221 16.3548 33.5572 16.2746C33.5923 16.1943 33.6108 16.1078 33.6118 16.0202C33.6128 15.9326 33.5962 15.8456 33.563 15.7646C33.5298 15.6835 33.4806 15.61 33.4184 15.5483C33.3562 15.4866 33.2822 15.438 33.2009 15.4054C31.4688 14.6474 29.598 14.2578 27.7073 14.2613Z" stroke="#6C7648" stroke-width="0.4"></path></svg>