<svg xmlns="http://www.w3.org/2000/svg" width="56" height="52" viewBox="0 0 56 52" fill="none"><path d="M43.9948 15.9276C44.3658 15.9276 44.6666 15.6268 44.6666 15.2558C44.6666 14.8849 44.3658 14.5841 43.9948 14.5841C43.6239 14.5841 43.3231 14.8849 43.3231 15.2558C43.3231 15.6268 43.6239 15.9276 43.9948 15.9276Z" fill="#6C7648"></path><path d="M22.4998 21.2981C22.6779 21.2981 22.8488 21.2273 22.9748 21.1014C23.1007 20.9754 23.1715 20.8045 23.1715 20.6264C23.1715 20.4482 23.1007 20.2774 22.9748 20.1514C22.8488 20.0254 22.6779 19.9547 22.4998 19.9547H20.4166C20.3571 19.3534 20.2071 18.7646 19.9717 18.2082L21.7558 17.1783C21.8357 17.1361 21.9062 17.0782 21.9632 17.0081C22.0202 16.938 22.0624 16.8571 22.0874 16.7702C22.1124 16.6834 22.1196 16.5925 22.1087 16.5028C22.0977 16.4131 22.0687 16.3266 22.0235 16.2483C21.9783 16.1701 21.9178 16.1018 21.8456 16.0475C21.7733 15.9932 21.6909 15.9541 21.6032 15.9324C21.5155 15.9107 21.4243 15.9069 21.3351 15.9213C21.2459 15.9356 21.1605 15.9678 21.0841 16.016L19.2882 17.0528C18.8649 16.4728 18.3421 15.9724 17.744 15.575C17.7689 15.4689 17.7869 15.3611 17.7977 15.2526C17.7977 14.3619 17.4439 13.5076 16.814 12.8777C16.1842 12.2479 15.3299 11.894 14.4391 11.894C13.5484 11.894 12.6941 12.2479 12.0642 12.8777C11.4344 13.5076 11.0805 14.3619 11.0805 15.2526C11.0914 15.3611 11.1093 15.4689 11.1343 15.575C10.5363 15.9725 10.0136 16.4728 9.59039 17.0528L7.79448 16.016C7.71802 15.9678 7.63263 15.9356 7.54343 15.9213C7.45423 15.9069 7.36305 15.9107 7.27535 15.9324C7.18764 15.9541 7.10521 15.9932 7.03299 16.0475C6.96078 16.1018 6.90025 16.1701 6.85505 16.2483C6.80984 16.3266 6.78088 16.4131 6.7699 16.5028C6.75891 16.5925 6.76613 16.6834 6.79113 16.7702C6.81612 16.8571 6.85837 16.938 6.91536 17.0081C6.97234 17.0782 7.04288 17.1361 7.12276 17.1783L8.90685 18.2082C8.67148 18.7646 8.52148 19.3534 8.4619 19.9547H6.37849C6.20034 19.9547 6.02949 20.0254 5.90351 20.1514C5.77754 20.2774 5.70677 20.4482 5.70677 20.6264C5.70677 20.8045 5.77754 20.9754 5.90351 21.1014C6.02949 21.2273 6.20034 21.2981 6.37849 21.2981H8.48313C8.5503 21.8926 8.70617 22.4737 8.94554 23.022L7.12249 24.0745C7.04261 24.1167 6.97207 24.1746 6.91509 24.2447C6.8581 24.3148 6.81585 24.3957 6.79086 24.4825C6.76586 24.5693 6.75864 24.6603 6.76963 24.75C6.78061 24.8397 6.80957 24.9262 6.85478 25.0044C6.89998 25.0827 6.96051 25.151 7.03273 25.2053C7.10494 25.2595 7.18737 25.2987 7.27508 25.3204C7.36278 25.3421 7.45396 25.3459 7.54316 25.3315C7.63236 25.3171 7.71775 25.2849 7.79421 25.2368L9.61672 24.1849C10.0933 24.8622 10.7052 25.4334 11.4137 25.8623C11.5678 25.9517 11.7512 25.9763 11.9234 25.9305C12.0957 25.8848 12.2427 25.7725 12.3321 25.6183C12.4215 25.4642 12.4461 25.2809 12.4003 25.1086C12.3545 24.9364 12.2423 24.7894 12.0881 24.7C11.0993 24.13 10.3513 23.22 9.98367 22.1395C9.61602 21.059 9.65374 19.8817 10.0898 18.8269C10.5259 17.7722 11.3305 16.9119 12.3538 16.4065C13.3772 15.901 14.5493 15.7849 15.652 16.0796C16.7546 16.3744 17.7125 17.0599 18.3471 18.0086C18.9817 18.9572 19.2498 20.1042 19.1014 21.2359C18.953 22.3675 18.3982 23.4066 17.5405 24.1596C16.6827 24.9125 15.5805 25.3279 14.4391 25.3284C14.261 25.3284 14.0901 25.3992 13.9642 25.5252C13.8382 25.6511 13.7674 25.822 13.7674 26.0001C13.7674 26.1783 13.8382 26.3491 13.9642 26.4751C14.0901 26.6011 14.261 26.6719 14.4391 26.6719C15.3844 26.6695 16.3158 26.4446 17.158 26.0156C18.0002 25.5865 18.7297 24.9653 19.2873 24.2021L21.0841 25.2392C21.1605 25.2873 21.2459 25.3196 21.3351 25.3339C21.4243 25.3483 21.5155 25.3445 21.6032 25.3228C21.6909 25.3011 21.7733 25.262 21.8456 25.2077C21.9178 25.1534 21.9783 25.0851 22.0235 25.0069C22.0687 24.9286 22.0977 24.8421 22.1087 24.7524C22.1196 24.6627 22.1124 24.5718 22.0874 24.4849C22.0624 24.3981 22.0202 24.3172 21.9632 24.2471C21.9062 24.177 21.8357 24.1191 21.7558 24.0769L19.9712 23.0467C20.2069 22.4896 20.3571 21.9001 20.4166 21.2981H22.4998ZM14.4391 14.5809C13.7741 14.5884 13.1149 14.7071 12.489 14.9321C12.5554 14.4621 12.7892 14.0319 13.1475 13.7206C13.5058 13.4094 13.9645 13.238 14.4391 13.238C14.9138 13.238 15.3724 13.4094 15.7308 13.7206C16.0891 14.0319 16.3229 14.4621 16.3893 14.9321C15.7634 14.7071 15.1042 14.5884 14.4391 14.5809Z" fill="#6C7648"></path><path d="M49.3686 1.14648H14.4391C14.261 1.14648 14.0901 1.21725 13.9642 1.34323C13.8382 1.4692 13.7674 1.64005 13.7674 1.8182C13.7674 1.99636 13.8382 2.16721 13.9642 2.29318C14.0901 2.41915 14.261 2.48993 14.4391 2.48993H49.3686C50.6152 2.49149 51.8103 2.98738 52.6917 3.86885C53.5732 4.75031 54.0691 5.94539 54.0706 7.19197V36.7477C54.0691 37.9943 53.5732 39.1893 52.6917 40.0708C51.8103 40.9523 50.6152 41.4482 49.3686 41.4497H6.37849C5.13191 41.4482 3.93684 40.9523 3.05537 40.0708C2.17391 39.1893 1.67801 37.9943 1.67645 36.7477V7.19197C1.67801 5.94539 2.17391 4.75031 3.05537 3.86885C3.93684 2.98738 5.13191 2.49149 6.37849 2.48993H11.7523C11.9304 2.48993 12.1013 2.41915 12.2272 2.29318C12.3532 2.16721 12.424 1.99636 12.424 1.8182C12.424 1.64005 12.3532 1.4692 12.2272 1.34323C12.1013 1.21725 11.9304 1.14648 11.7523 1.14648H6.37849C4.77568 1.14826 3.23902 1.78577 2.10565 2.91913C0.97229 4.05249 0.334786 5.58915 0.333008 7.19197V36.7477C0.334786 38.3505 0.97229 39.8871 2.10565 41.0205C3.23902 42.1539 4.77568 42.7914 6.37849 42.7932H21.8281V44.8083C21.8275 45.3426 21.615 45.8548 21.2372 46.2326C20.8594 46.6104 20.3472 46.8229 19.8129 46.8235H18.4695C17.935 46.8235 17.4224 47.0358 17.0445 47.4137C16.6666 47.7916 16.4543 48.3042 16.4543 48.8386C16.4543 49.3731 16.6666 49.8857 17.0445 50.2636C17.4224 50.6415 17.935 50.8538 18.4695 50.8538H37.2776C37.8121 50.8538 38.3247 50.6415 38.7026 50.2636C39.0805 49.8857 39.2928 49.3731 39.2928 48.8386C39.2928 48.3042 39.0805 47.7916 38.7026 47.4137C38.3247 47.0358 37.8121 46.8235 37.2776 46.8235H35.9342C35.3999 46.8229 34.8877 46.6104 34.5099 46.2326C34.1321 45.8548 33.9196 45.3426 33.919 44.8083V42.7932H49.3686C50.9714 42.7914 52.5081 42.1539 53.6414 41.0205C54.7748 39.8871 55.4123 38.3505 55.4141 36.7477V7.19197C55.4123 5.58915 54.7748 4.05249 53.6414 2.91913C52.5081 1.78577 50.9714 1.14826 49.3686 1.14648ZM23.1715 44.8083V42.7932H32.5756V44.8083C32.5904 45.5443 32.852 46.2539 33.3182 46.8235H22.4289C22.8951 46.2539 23.1567 45.5443 23.1715 44.8083ZM37.2776 48.1669C37.4558 48.1669 37.6266 48.2377 37.7526 48.3637C37.8786 48.4896 37.9494 48.6605 37.9494 48.8386C37.9494 49.0168 37.8786 49.1876 37.7526 49.3136C37.6266 49.4396 37.4558 49.5104 37.2776 49.5104H18.4695C18.2913 49.5104 18.1205 49.4396 17.9945 49.3136C17.8685 49.1876 17.7977 49.0168 17.7977 48.8386C17.7977 48.6605 17.8685 48.4896 17.9945 48.3637C18.1205 48.2377 18.2913 48.1669 18.4695 48.1669H37.2776Z" fill="#6C7648"></path><path d="M43.9948 32.0456H49.3686C50.2591 32.0448 51.1129 31.6907 51.7426 31.0611C52.3723 30.4314 52.7264 29.5775 52.7272 28.687V7.19197C52.7264 6.30145 52.3723 5.44763 51.7426 4.81794C51.1129 4.18825 50.2591 3.83415 49.3686 3.83337H6.37849C5.48798 3.83415 4.63416 4.18825 4.00447 4.81794C3.37478 5.44763 3.02067 6.30145 3.01989 7.19197V28.687C3.02067 29.5775 3.37478 30.4314 4.00447 31.0611C4.63416 31.6907 5.48798 32.0448 6.37849 32.0456H41.308C41.4861 32.0456 41.657 31.9749 41.7829 31.8489C41.9089 31.7229 41.9797 31.5521 41.9797 31.3739C41.9797 31.1958 41.9089 31.0249 41.7829 30.8989C41.657 30.773 41.4861 30.7022 41.308 30.7022H6.37849C5.84421 30.7016 5.33198 30.4891 4.95419 30.1113C4.57639 29.7335 4.3639 29.2213 4.36333 28.687V7.19197C4.3639 6.65769 4.57639 6.14546 4.95419 5.76766C5.33198 5.38987 5.84421 5.17738 6.37849 5.17681H49.3686C49.9029 5.17738 50.4151 5.38987 50.7929 5.76766C51.1707 6.14546 51.3832 6.65769 51.3838 7.19197V28.687C51.3832 29.2213 51.1707 29.7335 50.7929 30.1113C50.4151 30.4891 49.9029 30.7016 49.3686 30.7022H43.9948C43.8167 30.7022 43.6458 30.773 43.5199 30.8989C43.3939 31.0249 43.3231 31.1958 43.3231 31.3739C43.3231 31.5521 43.3939 31.7229 43.5199 31.8489C43.6458 31.9749 43.8167 32.0456 43.9948 32.0456Z" fill="#6C7648"></path><path d="M25.1867 36.076C25.0085 36.076 24.8377 36.1467 24.7117 36.2727C24.5857 36.3987 24.5149 36.5695 24.5149 36.7477C24.5149 36.9258 24.5857 37.0967 24.7117 37.2226C24.8377 37.3486 25.0085 37.4194 25.1867 37.4194H30.5604C30.7386 37.4194 30.9094 37.3486 31.0354 37.2226C31.1614 37.0967 31.2322 36.9258 31.2322 36.7477C31.2322 36.5695 31.1614 36.3987 31.0354 36.2727C30.9094 36.1467 30.7386 36.076 30.5604 36.076H25.1867Z" fill="#6C7648"></path><path d="M43.9948 13.2375C44.173 13.2375 44.3438 13.1667 44.4698 13.0407C44.5958 12.9147 44.6666 12.7439 44.6666 12.5657V9.87885C44.6666 9.7007 44.5958 9.52984 44.4698 9.40387C44.3438 9.2779 44.173 9.20713 43.9948 9.20713C43.8167 9.20713 43.6458 9.2779 43.5199 9.40387C43.3939 9.52984 43.3231 9.7007 43.3231 9.87885V12.5657C43.3231 12.7439 43.3939 12.9147 43.5199 13.0407C43.6458 13.1667 43.8167 13.2375 43.9948 13.2375Z" fill="#6C7648"></path><path d="M50.0403 12.5657C50.0403 11.37 49.6858 10.2012 49.0215 9.20704C48.3572 8.21287 47.413 7.438 46.3083 6.98043C45.2037 6.52286 43.9881 6.40314 42.8154 6.63641C41.6427 6.86968 40.5655 7.44545 39.72 8.29093C38.8746 9.13641 38.2988 10.2136 38.0655 11.3863C37.8323 12.559 37.952 13.7746 38.4095 14.8792C38.8671 15.9839 39.642 16.9281 40.6362 17.5924C41.6303 18.2567 42.7992 18.6112 43.9948 18.6112C45.5977 18.6094 47.1343 17.9719 48.2677 16.8386C49.401 15.7052 50.0385 14.1685 50.0403 12.5657ZM39.2928 12.5657C39.2928 11.6358 39.5686 10.7267 40.0852 9.95342C40.6019 9.18017 41.3363 8.5775 42.1954 8.22161C43.0546 7.86572 44.0001 7.77261 44.9122 7.95404C45.8243 8.13547 46.6621 8.58329 47.3197 9.24089C47.9773 9.89848 48.4251 10.7363 48.6065 11.6484C48.788 12.5605 48.6948 13.5059 48.339 14.3651C47.9831 15.2243 47.3804 15.9587 46.6072 16.4753C45.8339 16.992 44.9248 17.2678 43.9948 17.2678C42.7483 17.2662 41.5532 16.7703 40.6717 15.8889C39.7903 15.0074 39.2944 13.8123 39.2928 12.5657Z" fill="#6C7648"></path><path d="M25.1867 13.2375H30.5604C30.7386 13.2375 30.9094 13.1667 31.0354 13.0407C31.1614 12.9147 31.2322 12.7439 31.2322 12.5657C31.2322 12.3876 31.1614 12.2167 31.0354 12.0908C30.9094 11.9648 30.7386 11.894 30.5604 11.894H25.1867C25.0085 11.894 24.8377 11.9648 24.7117 12.0908C24.5857 12.2167 24.5149 12.3876 24.5149 12.5657C24.5149 12.7439 24.5857 12.9147 24.7117 13.0407C24.8377 13.1667 25.0085 13.2375 25.1867 13.2375Z" fill="#6C7648"></path><path d="M35.9342 14.5809H25.1867C25.0085 14.5809 24.8377 14.6517 24.7117 14.7776C24.5857 14.9036 24.5149 15.0745 24.5149 15.2526C24.5149 15.4308 24.5857 15.6016 24.7117 15.7276C24.8377 15.8536 25.0085 15.9243 25.1867 15.9243H35.9342C36.1123 15.9243 36.2832 15.8536 36.4092 15.7276C36.5351 15.6016 36.6059 15.4308 36.6059 15.2526C36.6059 15.0745 36.5351 14.9036 36.4092 14.7776C36.2832 14.6517 36.1123 14.5809 35.9342 14.5809Z" fill="#6C7648"></path><path d="M33.2473 19.9547H27.8735C26.9828 19.9547 26.1285 20.3085 25.4987 20.9384C24.8688 21.5682 24.5149 22.4225 24.5149 23.3133C24.5149 24.204 24.8688 25.0583 25.4987 25.6882C26.1285 26.318 26.9828 26.6719 27.8735 26.6719H33.2473C34.1381 26.6719 34.9923 26.318 35.6222 25.6882C36.2521 25.0583 36.6059 24.204 36.6059 23.3133C36.6059 22.4225 36.2521 21.5682 35.6222 20.9384C34.9923 20.3085 34.1381 19.9547 33.2473 19.9547ZM33.2473 25.3284H27.8735C27.3391 25.3284 26.8265 25.1161 26.4486 24.7382C26.0707 24.3603 25.8584 23.8477 25.8584 23.3133C25.8584 22.7788 26.0707 22.2662 26.4486 21.8883C26.8265 21.5104 27.3391 21.2981 27.8735 21.2981H33.2473C33.7818 21.2981 34.2943 21.5104 34.6722 21.8883C35.0502 22.2662 35.2625 22.7788 35.2625 23.3133C35.2625 23.8477 35.0502 24.3603 34.6722 24.7382C34.2943 25.1161 33.7818 25.3284 33.2473 25.3284Z" fill="#6C7648"></path><path d="M43.9948 15.9276C44.3658 15.9276 44.6666 15.6268 44.6666 15.2558C44.6666 14.8849 44.3658 14.5841 43.9948 14.5841C43.6239 14.5841 43.3231 14.8849 43.3231 15.2558C43.3231 15.6268 43.6239 15.9276 43.9948 15.9276Z" stroke="#6C7648" stroke-width="0.4"></path><path d="M22.4998 21.2981C22.6779 21.2981 22.8488 21.2273 22.9748 21.1014C23.1007 20.9754 23.1715 20.8045 23.1715 20.6264C23.1715 20.4482 23.1007 20.2774 22.9748 20.1514C22.8488 20.0254 22.6779 19.9547 22.4998 19.9547H20.4166C20.3571 19.3534 20.2071 18.7646 19.9717 18.2082L21.7558 17.1783C21.8357 17.1361 21.9062 17.0782 21.9632 17.0081C22.0202 16.938 22.0624 16.8571 22.0874 16.7702C22.1124 16.6834 22.1196 16.5925 22.1087 16.5028C22.0977 16.4131 22.0687 16.3266 22.0235 16.2483C21.9783 16.1701 21.9178 16.1018 21.8456 16.0475C21.7733 15.9932 21.6909 15.9541 21.6032 15.9324C21.5155 15.9107 21.4243 15.9069 21.3351 15.9213C21.2459 15.9356 21.1605 15.9678 21.0841 16.016L19.2882 17.0528C18.8649 16.4728 18.3421 15.9724 17.744 15.575C17.7689 15.4689 17.7869 15.3611 17.7977 15.2526C17.7977 14.3619 17.4439 13.5076 16.814 12.8777C16.1842 12.2479 15.3299 11.894 14.4391 11.894C13.5484 11.894 12.6941 12.2479 12.0642 12.8777C11.4344 13.5076 11.0805 14.3619 11.0805 15.2526C11.0914 15.3611 11.1093 15.4689 11.1343 15.575C10.5363 15.9725 10.0136 16.4728 9.59039 17.0528L7.79448 16.016C7.71802 15.9678 7.63263 15.9356 7.54343 15.9213C7.45423 15.9069 7.36305 15.9107 7.27535 15.9324C7.18764 15.9541 7.10521 15.9932 7.03299 16.0475C6.96078 16.1018 6.90025 16.1701 6.85505 16.2483C6.80984 16.3266 6.78088 16.4131 6.7699 16.5028C6.75891 16.5925 6.76613 16.6834 6.79113 16.7702C6.81612 16.8571 6.85837 16.938 6.91536 17.0081C6.97234 17.0782 7.04288 17.1361 7.12276 17.1783L8.90685 18.2082C8.67148 18.7646 8.52148 19.3534 8.4619 19.9547H6.37849C6.20034 19.9547 6.02949 20.0254 5.90351 20.1514C5.77754 20.2774 5.70677 20.4482 5.70677 20.6264C5.70677 20.8045 5.77754 20.9754 5.90351 21.1014C6.02949 21.2273 6.20034 21.2981 6.37849 21.2981H8.48313C8.5503 21.8926 8.70617 22.4737 8.94554 23.022L7.12249 24.0745C7.04261 24.1167 6.97207 24.1746 6.91509 24.2447C6.8581 24.3148 6.81585 24.3957 6.79086 24.4825C6.76586 24.5693 6.75864 24.6603 6.76963 24.75C6.78061 24.8397 6.80957 24.9262 6.85478 25.0044C6.89998 25.0827 6.96051 25.151 7.03273 25.2053C7.10494 25.2595 7.18737 25.2987 7.27508 25.3204C7.36278 25.3421 7.45396 25.3459 7.54316 25.3315C7.63236 25.3171 7.71775 25.2849 7.79421 25.2368L9.61672 24.1849C10.0933 24.8622 10.7052 25.4334 11.4137 25.8623C11.5678 25.9517 11.7512 25.9763 11.9234 25.9305C12.0957 25.8848 12.2427 25.7725 12.3321 25.6183C12.4215 25.4642 12.4461 25.2809 12.4003 25.1086C12.3545 24.9364 12.2423 24.7894 12.0881 24.7C11.0993 24.13 10.3513 23.22 9.98367 22.1395C9.61602 21.059 9.65374 19.8817 10.0898 18.8269C10.5259 17.7722 11.3305 16.9119 12.3538 16.4065C13.3772 15.901 14.5493 15.7849 15.652 16.0796C16.7546 16.3744 17.7125 17.0599 18.3471 18.0086C18.9817 18.9572 19.2498 20.1042 19.1014 21.2359C18.953 22.3675 18.3982 23.4066 17.5405 24.1596C16.6827 24.9125 15.5805 25.3279 14.4391 25.3284C14.261 25.3284 14.0901 25.3992 13.9642 25.5252C13.8382 25.6511 13.7674 25.822 13.7674 26.0001C13.7674 26.1783 13.8382 26.3491 13.9642 26.4751C14.0901 26.6011 14.261 26.6719 14.4391 26.6719C15.3844 26.6695 16.3158 26.4446 17.158 26.0156C18.0002 25.5865 18.7297 24.9653 19.2873 24.2021L21.0841 25.2392C21.1605 25.2873 21.2459 25.3196 21.3351 25.3339C21.4243 25.3483 21.5155 25.3445 21.6032 25.3228C21.6909 25.3011 21.7733 25.262 21.8456 25.2077C21.9178 25.1534 21.9783 25.0851 22.0235 25.0069C22.0687 24.9286 22.0977 24.8421 22.1087 24.7524C22.1196 24.6627 22.1124 24.5718 22.0874 24.4849C22.0624 24.3981 22.0202 24.3172 21.9632 24.2471C21.9062 24.177 21.8357 24.1191 21.7558 24.0769L19.9712 23.0467C20.2069 22.4896 20.3571 21.9001 20.4166 21.2981H22.4998ZM14.4391 14.5809C13.7741 14.5884 13.1149 14.7071 12.489 14.9321C12.5554 14.4621 12.7892 14.0319 13.1475 13.7206C13.5058 13.4094 13.9645 13.238 14.4391 13.238C14.9138 13.238 15.3724 13.4094 15.7308 13.7206C16.0891 14.0319 16.3229 14.4621 16.3893 14.9321C15.7634 14.7071 15.1042 14.5884 14.4391 14.5809Z" stroke="#6C7648" stroke-width="0.4"></path><path d="M49.3686 1.14648H14.4391C14.261 1.14648 14.0901 1.21725 13.9642 1.34323C13.8382 1.4692 13.7674 1.64005 13.7674 1.8182C13.7674 1.99636 13.8382 2.16721 13.9642 2.29318C14.0901 2.41915 14.261 2.48993 14.4391 2.48993H49.3686C50.6152 2.49149 51.8103 2.98738 52.6917 3.86885C53.5732 4.75031 54.0691 5.94539 54.0706 7.19197V36.7477C54.0691 37.9943 53.5732 39.1893 52.6917 40.0708C51.8103 40.9523 50.6152 41.4482 49.3686 41.4497H6.37849C5.13191 41.4482 3.93684 40.9523 3.05537 40.0708C2.17391 39.1893 1.67801 37.9943 1.67645 36.7477V7.19197C1.67801 5.94539 2.17391 4.75031 3.05537 3.86885C3.93684 2.98738 5.13191 2.49149 6.37849 2.48993H11.7523C11.9304 2.48993 12.1013 2.41915 12.2272 2.29318C12.3532 2.16721 12.424 1.99636 12.424 1.8182C12.424 1.64005 12.3532 1.4692 12.2272 1.34323C12.1013 1.21725 11.9304 1.14648 11.7523 1.14648H6.37849C4.77568 1.14826 3.23902 1.78577 2.10565 2.91913C0.97229 4.05249 0.334786 5.58915 0.333008 7.19197V36.7477C0.334786 38.3505 0.97229 39.8871 2.10565 41.0205C3.23902 42.1539 4.77568 42.7914 6.37849 42.7932H21.8281V44.8083C21.8275 45.3426 21.615 45.8548 21.2372 46.2326C20.8594 46.6104 20.3472 46.8229 19.8129 46.8235H18.4695C17.935 46.8235 17.4224 47.0358 17.0445 47.4137C16.6666 47.7916 16.4543 48.3042 16.4543 48.8386C16.4543 49.3731 16.6666 49.8857 17.0445 50.2636C17.4224 50.6415 17.935 50.8538 18.4695 50.8538H37.2776C37.8121 50.8538 38.3247 50.6415 38.7026 50.2636C39.0805 49.8857 39.2928 49.3731 39.2928 48.8386C39.2928 48.3042 39.0805 47.7916 38.7026 47.4137C38.3247 47.0358 37.8121 46.8235 37.2776 46.8235H35.9342C35.3999 46.8229 34.8877 46.6104 34.5099 46.2326C34.1321 45.8548 33.9196 45.3426 33.919 44.8083V42.7932H49.3686C50.9714 42.7914 52.5081 42.1539 53.6414 41.0205C54.7748 39.8871 55.4123 38.3505 55.4141 36.7477V7.19197C55.4123 5.58915 54.7748 4.05249 53.6414 2.91913C52.5081 1.78577 50.9714 1.14826 49.3686 1.14648ZM23.1715 44.8083V42.7932H32.5756V44.8083C32.5904 45.5443 32.852 46.2539 33.3182 46.8235H22.4289C22.8951 46.2539 23.1567 45.5443 23.1715 44.8083ZM37.2776 48.1669C37.4558 48.1669 37.6266 48.2377 37.7526 48.3637C37.8786 48.4896 37.9494 48.6605 37.9494 48.8386C37.9494 49.0168 37.8786 49.1876 37.7526 49.3136C37.6266 49.4396 37.4558 49.5104 37.2776 49.5104H18.4695C18.2913 49.5104 18.1205 49.4396 17.9945 49.3136C17.8685 49.1876 17.7977 49.0168 17.7977 48.8386C17.7977 48.6605 17.8685 48.4896 17.9945 48.3637C18.1205 48.2377 18.2913 48.1669 18.4695 48.1669H37.2776Z" stroke="#6C7648" stroke-width="0.4"></path><path d="M43.9948 32.0456H49.3686C50.2591 32.0448 51.1129 31.6907 51.7426 31.0611C52.3723 30.4314 52.7264 29.5775 52.7272 28.687V7.19197C52.7264 6.30145 52.3723 5.44763 51.7426 4.81794C51.1129 4.18825 50.2591 3.83415 49.3686 3.83337H6.37849C5.48798 3.83415 4.63416 4.18825 4.00447 4.81794C3.37478 5.44763 3.02067 6.30145 3.01989 7.19197V28.687C3.02067 29.5775 3.37478 30.4314 4.00447 31.0611C4.63416 31.6907 5.48798 32.0448 6.37849 32.0456H41.308C41.4861 32.0456 41.657 31.9749 41.7829 31.8489C41.9089 31.7229 41.9797 31.5521 41.9797 31.3739C41.9797 31.1958 41.9089 31.0249 41.7829 30.8989C41.657 30.773 41.4861 30.7022 41.308 30.7022H6.37849C5.84421 30.7016 5.33198 30.4891 4.95419 30.1113C4.57639 29.7335 4.3639 29.2213 4.36333 28.687V7.19197C4.3639 6.65769 4.57639 6.14546 4.95419 5.76766C5.33198 5.38987 5.84421 5.17738 6.37849 5.17681H49.3686C49.9029 5.17738 50.4151 5.38987 50.7929 5.76766C51.1707 6.14546 51.3832 6.65769 51.3838 7.19197V28.687C51.3832 29.2213 51.1707 29.7335 50.7929 30.1113C50.4151 30.4891 49.9029 30.7016 49.3686 30.7022H43.9948C43.8167 30.7022 43.6458 30.773 43.5199 30.8989C43.3939 31.0249 43.3231 31.1958 43.3231 31.3739C43.3231 31.5521 43.3939 31.7229 43.5199 31.8489C43.6458 31.9749 43.8167 32.0456 43.9948 32.0456Z" stroke="#6C7648" stroke-width="0.4"></path><path d="M25.1867 36.076C25.0085 36.076 24.8377 36.1467 24.7117 36.2727C24.5857 36.3987 24.5149 36.5695 24.5149 36.7477C24.5149 36.9258 24.5857 37.0967 24.7117 37.2226C24.8377 37.3486 25.0085 37.4194 25.1867 37.4194H30.5604C30.7386 37.4194 30.9094 37.3486 31.0354 37.2226C31.1614 37.0967 31.2322 36.9258 31.2322 36.7477C31.2322 36.5695 31.1614 36.3987 31.0354 36.2727C30.9094 36.1467 30.7386 36.076 30.5604 36.076H25.1867Z" stroke="#6C7648" stroke-width="0.4"></path><path d="M43.9948 13.2375C44.173 13.2375 44.3438 13.1667 44.4698 13.0407C44.5958 12.9147 44.6666 12.7439 44.6666 12.5657V9.87885C44.6666 9.7007 44.5958 9.52984 44.4698 9.40387C44.3438 9.2779 44.173 9.20713 43.9948 9.20713C43.8167 9.20713 43.6458 9.2779 43.5199 9.40387C43.3939 9.52984 43.3231 9.7007 43.3231 9.87885V12.5657C43.3231 12.7439 43.3939 12.9147 43.5199 13.0407C43.6458 13.1667 43.8167 13.2375 43.9948 13.2375Z" stroke="#6C7648" stroke-width="0.4"></path><path d="M50.0403 12.5657C50.0403 11.37 49.6858 10.2012 49.0215 9.20704C48.3572 8.21287 47.413 7.438 46.3083 6.98043C45.2037 6.52286 43.9881 6.40314 42.8154 6.63641C41.6427 6.86968 40.5655 7.44545 39.72 8.29093C38.8746 9.13641 38.2988 10.2136 38.0655 11.3863C37.8323 12.559 37.952 13.7746 38.4095 14.8792C38.8671 15.9839 39.642 16.9281 40.6362 17.5924C41.6303 18.2567 42.7992 18.6112 43.9948 18.6112C45.5977 18.6094 47.1343 17.9719 48.2677 16.8386C49.401 15.7052 50.0385 14.1685 50.0403 12.5657ZM39.2928 12.5657C39.2928 11.6358 39.5686 10.7267 40.0852 9.95342C40.6019 9.18017 41.3363 8.5775 42.1954 8.22161C43.0546 7.86572 44.0001 7.77261 44.9122 7.95404C45.8243 8.13547 46.6621 8.58329 47.3197 9.24089C47.9773 9.89848 48.4251 10.7363 48.6065 11.6484C48.788 12.5605 48.6948 13.5059 48.339 14.3651C47.9831 15.2243 47.3804 15.9587 46.6072 16.4753C45.8339 16.992 44.9248 17.2678 43.9948 17.2678C42.7483 17.2662 41.5532 16.7703 40.6717 15.8889C39.7903 15.0074 39.2944 13.8123 39.2928 12.5657Z" stroke="#6C7648" stroke-width="0.4"></path><path d="M25.1867 13.2375H30.5604C30.7386 13.2375 30.9094 13.1667 31.0354 13.0407C31.1614 12.9147 31.2322 12.7439 31.2322 12.5657C31.2322 12.3876 31.1614 12.2167 31.0354 12.0908C30.9094 11.9648 30.7386 11.894 30.5604 11.894H25.1867C25.0085 11.894 24.8377 11.9648 24.7117 12.0908C24.5857 12.2167 24.5149 12.3876 24.5149 12.5657C24.5149 12.7439 24.5857 12.9147 24.7117 13.0407C24.8377 13.1667 25.0085 13.2375 25.1867 13.2375Z" stroke="#6C7648" stroke-width="0.4"></path><path d="M35.9342 14.5809H25.1867C25.0085 14.5809 24.8377 14.6517 24.7117 14.7776C24.5857 14.9036 24.5149 15.0745 24.5149 15.2526C24.5149 15.4308 24.5857 15.6016 24.7117 15.7276C24.8377 15.8536 25.0085 15.9243 25.1867 15.9243H35.9342C36.1123 15.9243 36.2832 15.8536 36.4092 15.7276C36.5351 15.6016 36.6059 15.4308 36.6059 15.2526C36.6059 15.0745 36.5351 14.9036 36.4092 14.7776C36.2832 14.6517 36.1123 14.5809 35.9342 14.5809Z" stroke="#6C7648" stroke-width="0.4"></path><path d="M33.2473 19.9547H27.8735C26.9828 19.9547 26.1285 20.3085 25.4987 20.9384C24.8688 21.5682 24.5149 22.4225 24.5149 23.3133C24.5149 24.204 24.8688 25.0583 25.4987 25.6882C26.1285 26.318 26.9828 26.6719 27.8735 26.6719H33.2473C34.1381 26.6719 34.9923 26.318 35.6222 25.6882C36.2521 25.0583 36.6059 24.204 36.6059 23.3133C36.6059 22.4225 36.2521 21.5682 35.6222 20.9384C34.9923 20.3085 34.1381 19.9547 33.2473 19.9547ZM33.2473 25.3284H27.8735C27.3391 25.3284 26.8265 25.1161 26.4486 24.7382C26.0707 24.3603 25.8584 23.8477 25.8584 23.3133C25.8584 22.7788 26.0707 22.2662 26.4486 21.8883C26.8265 21.5104 27.3391 21.2981 27.8735 21.2981H33.2473C33.7818 21.2981 34.2943 21.5104 34.6722 21.8883C35.0502 22.2662 35.2625 22.7788 35.2625 23.3133C35.2625 23.8477 35.0502 24.3603 34.6722 24.7382C34.2943 25.1161 33.7818 25.3284 33.2473 25.3284Z" stroke="#6C7648" stroke-width="0.4"></path></svg>