<svg xmlns="http://www.w3.org/2000/svg" width="57" height="48" viewBox="0 0 57 48" fill="none"><path d="M42.8455 36.7815C43.1969 37.1319 43.6729 37.3286 44.1692 37.3286C44.6654 37.3286 45.1414 37.1319 45.4928 36.7815L49.6027 32.6717C49.7163 32.554 49.7792 32.3964 49.7778 32.2328C49.7764 32.0692 49.7108 31.9126 49.5951 31.7969C49.4794 31.6812 49.3229 31.6156 49.1592 31.6142C48.9956 31.6128 48.838 31.6757 48.7203 31.7893L44.6105 35.8992C44.4935 36.0161 44.3348 36.0819 44.1693 36.0819C44.0038 36.0819 43.8451 36.0161 43.7281 35.8992L42.1144 34.2854C41.9967 34.1718 41.8391 34.1089 41.6754 34.1103C41.5118 34.1117 41.3553 34.1773 41.2396 34.293C41.1239 34.4087 41.0583 34.5653 41.0569 34.7289C41.0554 34.8925 41.1183 35.0501 41.232 35.1678L42.8455 36.7815Z" fill="#6C7648"></path><path d="M28.0811 17.1358C28.6982 17.1358 29.3014 16.9528 29.8145 16.6099C30.3276 16.2671 30.7275 15.7798 30.9637 15.2097C31.1999 14.6395 31.2616 14.0122 31.1413 13.4069C31.0209 12.8017 30.7237 12.2457 30.2873 11.8094C29.851 11.373 29.295 11.0759 28.6898 10.9555C28.0845 10.8351 27.4572 10.8969 26.8871 11.133C26.3169 11.3692 25.8296 11.7691 25.4868 12.2822C25.144 12.7953 24.961 13.3985 24.961 14.0156C24.9617 14.8429 25.2906 15.6361 25.8756 16.2211C26.4606 16.8061 27.2538 17.135 28.0811 17.1358ZM28.0811 12.1436C28.4513 12.1436 28.8133 12.2534 29.1211 12.4591C29.429 12.6648 29.669 12.9572 29.8106 13.2992C29.9523 13.6413 29.9894 14.0177 29.9172 14.3809C29.8449 14.744 29.6666 15.0776 29.4048 15.3394C29.143 15.6012 28.8095 15.7795 28.4463 15.8517C28.0832 15.924 27.7067 15.8869 27.3647 15.7452C27.0226 15.6035 26.7302 15.3636 26.5245 15.0557C26.3188 14.7478 26.209 14.3859 26.209 14.0156C26.2095 13.5193 26.4069 13.0434 26.7579 12.6925C27.1089 12.3415 27.5847 12.1441 28.0811 12.1436Z" fill="#6C7648"></path><path d="M25.585 32.1123H30.5772C30.7427 32.1123 30.9014 32.0466 31.0184 31.9296C31.1355 31.8125 31.2012 31.6538 31.2012 31.4883C31.2012 31.3228 31.1355 31.1641 31.0184 31.0471C30.9014 30.93 30.7427 30.8643 30.5772 30.8643H25.585C25.4195 30.8643 25.2608 30.93 25.1437 31.0471C25.0267 31.1641 24.961 31.3228 24.961 31.4883C24.961 31.6538 25.0267 31.8125 25.1437 31.9296C25.2608 32.0466 25.4195 32.1123 25.585 32.1123Z" fill="#6C7648"></path><path d="M30.5772 38.3526H25.585C25.4195 38.3526 25.2608 38.4183 25.1437 38.5353C25.0267 38.6524 24.961 38.8111 24.961 38.9766C24.961 39.1421 25.0267 39.3008 25.1437 39.4179C25.2608 39.5349 25.4195 39.6006 25.585 39.6006H30.5772C30.7427 39.6006 30.9014 39.5349 31.0184 39.4179C31.1355 39.3008 31.2012 39.1421 31.2012 38.9766C31.2012 38.8111 31.1355 38.6524 31.0184 38.5353C30.9014 38.4183 30.7427 38.3526 30.5772 38.3526Z" fill="#6C7648"></path><path d="M18.0967 28.3682H8.11231C7.28481 28.3682 6.49119 28.6969 5.90605 29.2821C5.32092 29.8672 4.99219 30.6608 4.99219 31.4883C4.99219 32.3158 5.32092 33.1094 5.90605 33.6946C6.49119 34.2797 7.28481 34.6084 8.11231 34.6084H18.0967C18.9242 34.6084 19.7178 34.2797 20.303 33.6946C20.8881 33.1094 21.2168 32.3158 21.2168 31.4883C21.2168 30.6608 20.8881 29.8672 20.303 29.2821C19.7178 28.6969 18.9242 28.3682 18.0967 28.3682ZM18.0967 33.3604H8.11231C7.61581 33.3604 7.13964 33.1631 6.78856 32.8121C6.43748 32.461 6.24024 31.9848 6.24024 31.4883C6.24024 30.9918 6.43748 30.5156 6.78856 30.1646C7.13964 29.8135 7.61581 29.6162 8.11231 29.6162H18.0967C18.5932 29.6162 19.0694 29.8135 19.4205 30.1646C19.7715 30.5156 19.9688 30.9918 19.9688 31.4883C19.9688 31.9848 19.7715 32.461 19.4205 32.8121C19.0694 33.1631 18.5932 33.3604 18.0967 33.3604Z" fill="#6C7648"></path><path d="M18.0967 35.8565H8.11231C7.28481 35.8565 6.49119 36.1852 5.90605 36.7703C5.32092 37.3555 4.99219 38.1491 4.99219 38.9766C4.99219 39.8041 5.32092 40.5977 5.90605 41.1829C6.49119 41.768 7.28481 42.0967 8.11231 42.0967H18.0967C18.9242 42.0967 19.7178 41.768 20.303 41.1829C20.8881 40.5977 21.2168 39.8041 21.2168 38.9766C21.2168 38.1491 20.8881 37.3555 20.303 36.7703C19.7178 36.1852 18.9242 35.8565 18.0967 35.8565ZM18.0967 40.8487H8.11231C7.61581 40.8487 7.13964 40.6514 6.78856 40.3004C6.43748 39.9493 6.24024 39.4731 6.24024 38.9766C6.24024 38.4801 6.43748 38.0039 6.78856 37.6528C7.13964 37.3018 7.61581 37.1045 8.11231 37.1045H18.0967C18.5932 37.1045 19.0694 37.3018 19.4205 37.6528C19.7715 38.0039 19.9688 38.4801 19.9688 38.9766C19.9688 39.4731 19.7715 39.9493 19.4205 40.3004C19.0694 40.6514 18.5932 40.8487 18.0967 40.8487Z" fill="#6C7648"></path><path d="M49.2979 7.15137C49.7944 7.15137 50.2706 6.95414 50.6217 6.60306C50.9727 6.25197 51.17 5.77581 51.17 5.2793C51.17 4.7828 50.9727 4.30663 50.6217 3.95555C50.2706 3.60446 49.7944 3.40723 49.2979 3.40723H31.8252C31.3287 3.40723 30.8526 3.60446 30.5015 3.95555C30.1504 4.30663 29.9532 4.7828 29.9532 5.2793C29.9532 5.77581 30.1504 6.25197 30.5015 6.60306C30.8526 6.95414 31.3287 7.15137 31.8252 7.15137H49.2979ZM31.2012 5.2793C31.2012 5.1138 31.2669 4.95508 31.384 4.83805C31.501 4.72102 31.6597 4.65528 31.8252 4.65528H49.2979C49.4634 4.65528 49.6221 4.72102 49.7392 4.83805C49.8562 4.95508 49.9219 5.1138 49.9219 5.2793C49.9219 5.4448 49.8562 5.60353 49.7392 5.72055C49.6221 5.83758 49.4634 5.90333 49.2979 5.90333H31.8252C31.6597 5.90333 31.501 5.83758 31.384 5.72055C31.2669 5.60353 31.2012 5.4448 31.2012 5.2793Z" fill="#6C7648"></path><path d="M50.5459 0.911133H28.0811C27.9156 0.911133 27.7569 0.976878 27.6398 1.09391C27.5228 1.21093 27.4571 1.36966 27.4571 1.53516C27.4571 1.70066 27.5228 1.85938 27.6398 1.97641C27.7569 2.09344 27.9156 2.15918 28.0811 2.15918H50.5459C51.704 2.16063 52.8142 2.62132 53.6331 3.44019C54.452 4.25907 54.9127 5.36929 54.9141 6.52735V8.39942H1.24805V6.52735C1.2495 5.36929 1.71018 4.25907 2.52906 3.44019C3.34794 2.62132 4.45815 2.16063 5.61622 2.15918H25.585C25.7505 2.15918 25.9092 2.09344 26.0262 1.97641C26.1433 1.85938 26.209 1.70066 26.209 1.53516C26.209 1.36966 26.1433 1.21093 26.0262 1.09391C25.9092 0.976878 25.7505 0.911133 25.585 0.911133H5.61622C4.12721 0.912785 2.69966 1.50502 1.64678 2.55791C0.593889 3.6108 0.0016517 5.03834 0 6.52735V41.4727C0.0016517 42.9617 0.593889 44.3892 1.64678 45.4421C2.69966 46.495 4.12721 47.0873 5.61622 47.0889H50.5459C52.035 47.0873 53.4625 46.495 54.5154 45.4421C55.5683 44.3892 56.1605 42.9617 56.1622 41.4727V6.52735C56.1605 5.03834 55.5683 3.6108 54.5154 2.55791C53.4625 1.50502 52.035 0.912785 50.5459 0.911133ZM5.61622 45.8409C4.45815 45.8394 3.34794 45.3787 2.52906 44.5598C1.71018 43.741 1.2495 42.6308 1.24805 41.4727V9.64747H23.805C22.6348 10.3711 21.6684 11.3812 20.9971 12.5823C20.3259 13.7834 19.9719 15.1358 19.9688 16.5117C19.9688 16.6772 20.0345 16.836 20.1515 16.953C20.2686 17.07 20.4273 17.1358 20.5928 17.1358C20.7583 17.1358 20.917 17.07 21.034 16.953C21.1511 16.836 21.2168 16.6772 21.2168 16.5117C21.2157 15.3833 21.4928 14.2719 22.0236 13.2761C22.5544 12.2802 23.3225 11.4306 24.26 10.8024C25.1974 10.1742 26.2753 9.78685 27.3982 9.67459C28.5211 9.56233 29.6543 9.72863 30.6976 10.1588C31.7409 10.5889 32.662 11.2697 33.3795 12.1407C34.0969 13.0118 34.5885 14.0463 34.8108 15.1526C35.0331 16.259 34.9792 17.4031 34.6539 18.4837C34.3286 19.5642 33.7419 20.5479 32.9457 21.3477C32.4852 20.4552 31.7881 19.7066 30.9306 19.1838C30.0731 18.661 29.0883 18.3842 28.084 18.3837C27.0797 18.3832 26.0946 18.659 25.2366 19.1809C24.3785 19.7028 23.6806 20.4507 23.2192 21.3427C22.4995 20.6254 21.9491 19.7565 21.608 18.7994C21.5806 18.7221 21.5383 18.651 21.4834 18.59C21.4285 18.5291 21.3622 18.4796 21.2882 18.4443C21.2142 18.409 21.1339 18.3886 21.0521 18.3843C20.9702 18.38 20.8882 18.3919 20.811 18.4193C20.7337 18.4466 20.6625 18.4889 20.6016 18.5438C20.5406 18.5987 20.4911 18.665 20.4558 18.739C20.4205 18.813 20.4001 18.8933 20.3958 18.9751C20.3915 19.057 20.4034 19.139 20.4308 19.2163C20.859 20.4406 21.5748 21.5444 22.5179 22.4349C23.461 23.3254 24.6041 23.9766 25.851 24.334C27.0979 24.6913 28.4123 24.7442 29.684 24.4884C30.9556 24.2326 32.1473 23.6754 33.159 22.8637C34.1707 22.0519 34.973 21.0093 35.4983 19.8234C36.0237 18.6375 36.2569 17.3428 36.1784 16.0481C36.0998 14.7533 35.7118 13.4963 35.0469 12.3826C34.382 11.2689 33.4596 10.3309 32.3571 9.64747H54.9141V26.3107C54.6278 26.1893 54.3144 26.1462 54.006 26.1859C52.6728 26.4014 51.3058 26.2313 50.066 25.6956C48.8263 25.1598 47.7656 24.2808 47.009 23.1621C46.8393 22.9181 46.6137 22.7184 46.3509 22.5797C46.0882 22.441 45.796 22.3673 45.4988 22.3648H45.4806C45.1895 22.3643 44.9023 22.4329 44.6428 22.5649C44.3833 22.6969 44.1588 22.8885 43.9877 23.1241C43.0423 24.4083 41.7314 25.3773 40.2263 25.9043C39.133 26.2691 37.9681 26.3656 36.8296 26.1859C36.5753 26.1484 36.316 26.1646 36.0683 26.2334C35.8206 26.3021 35.59 26.422 35.3914 26.5852C35.1833 26.757 35.0136 26.9705 34.8933 27.212C34.7729 27.4535 34.7045 27.7175 34.6925 27.987C34.687 28.1143 34.7087 28.2396 34.7055 28.3672H25.585C25.4195 28.3672 25.2608 28.4329 25.1437 28.55C25.0267 28.667 24.961 28.8257 24.961 28.9912C24.961 29.1567 25.0267 29.3154 25.1437 29.4325C25.2608 29.5495 25.4195 29.6152 25.585 29.6152H34.7477C34.7649 30.2642 34.7417 30.9187 34.8126 31.5555C34.9795 33.0141 35.2835 34.4538 35.7206 35.8555H25.585C25.4195 35.8555 25.2608 35.9212 25.1437 36.0382C25.0267 36.1553 24.961 36.314 24.961 36.4795C24.961 36.645 25.0267 36.8037 25.1437 36.9208C25.2608 37.0378 25.4195 37.1035 25.585 37.1035H36.1385C36.4043 37.8251 36.6961 38.541 37.0331 39.2449C37.1045 39.3943 37.2323 39.5091 37.3885 39.5642C37.5446 39.6193 37.7162 39.6102 37.8655 39.5387C38.0149 39.4673 38.1297 39.3395 38.1848 39.1833C38.2399 39.0272 38.2307 38.8556 38.1593 38.7063C37.052 36.4126 36.3399 33.9484 36.0531 31.4177C35.9296 30.2964 35.8921 29.1672 35.941 28.0402C35.9447 27.9458 35.9683 27.8532 36.0103 27.7686C36.0523 27.6839 36.1119 27.6092 36.1849 27.5492C36.2482 27.4974 36.3216 27.4591 36.4003 27.4368C36.4791 27.4146 36.5616 27.4087 36.6427 27.4197C37.9778 27.6302 39.344 27.5161 40.6257 27.0869C42.3722 26.4775 43.8941 25.3552 44.9926 23.867C45.0474 23.7868 45.1213 23.7215 45.2077 23.6772C45.2941 23.6329 45.3903 23.611 45.4874 23.6134C45.5873 23.6147 45.6855 23.6401 45.7736 23.6875C45.8616 23.7348 45.937 23.8026 45.9933 23.8852C46.8833 25.1923 48.1271 26.2189 49.5793 26.8449C51.0315 27.4708 52.6319 27.6702 54.1932 27.4197C54.2742 27.4074 54.3568 27.4128 54.4355 27.4353C54.5142 27.4578 54.5871 27.497 54.6493 27.5502C54.7222 27.6103 54.7818 27.6851 54.8239 27.7697C54.8661 27.8543 54.89 27.9468 54.8941 28.0412C54.9428 29.1687 54.9053 30.2982 54.7821 31.4199C54.1895 36.0834 52.2625 40.4765 49.2327 44.0709C48.7636 44.6254 48.1792 45.071 47.5203 45.3767C46.8613 45.6823 46.1437 45.8406 45.4173 45.8406C44.691 45.8406 43.9733 45.6823 43.3144 45.3767C42.6555 45.071 42.0711 44.6254 41.6019 44.0709C40.8374 43.1417 40.1347 42.1634 39.4982 41.1422C39.4106 41.0016 39.2708 40.9015 39.1094 40.864C38.9481 40.8266 38.7784 40.8547 38.6378 40.9423C38.4972 41.0299 38.3972 41.1697 38.3597 41.3311C38.3222 41.4924 38.3503 41.6621 38.4379 41.8027C39.1043 42.8696 39.8397 43.8919 40.6392 44.8631C40.9418 45.2284 41.2867 45.5566 41.6666 45.8406L5.61622 45.8409ZM31.9772 22.1529C30.8339 22.9492 29.4741 23.3762 28.0808 23.3765C26.6875 23.3768 25.3276 22.9503 24.1839 22.1544C24.5212 21.4032 25.0684 20.7656 25.7596 20.3181C26.4509 19.8707 27.2567 19.6326 28.0801 19.6324C28.9035 19.6323 29.7094 19.8701 30.4008 20.3172C31.0922 20.7644 31.6397 21.4019 31.9772 22.1529ZM50.5459 45.8409H49.1676C49.5474 45.5567 49.8923 45.2286 50.195 44.8634C52.2592 42.3618 53.8576 39.51 54.9141 36.4436V41.4727C54.9127 42.6308 54.452 43.741 53.6331 44.5598C52.8142 45.3787 51.704 45.8394 50.5459 45.8409Z" fill="#6C7648"></path><path d="M4.99219 5.2793C4.99219 5.64956 5.10199 6.01151 5.30769 6.31937C5.5134 6.62723 5.80578 6.86718 6.14785 7.00887C6.48993 7.15056 6.86634 7.18764 7.22949 7.1154C7.59263 7.04317 7.92621 6.86487 8.18802 6.60306C8.44983 6.34124 8.62813 6.00767 8.70037 5.64452C8.7726 5.28138 8.73553 4.90497 8.59383 4.56289C8.45214 4.22081 8.21219 3.92844 7.90433 3.72273C7.59647 3.51702 7.23453 3.40723 6.86426 3.40723C6.36792 3.40776 5.89206 3.60516 5.54109 3.95613C5.19013 4.3071 4.99272 4.78296 4.99219 5.2793ZM7.48829 5.2793C7.48829 5.40272 7.45169 5.52337 7.38312 5.62599C7.31455 5.72861 7.21709 5.80859 7.10307 5.85582C6.98904 5.90306 6.86357 5.91541 6.74252 5.89133C6.62147 5.86726 6.51028 5.80782 6.42301 5.72055C6.33574 5.63328 6.27631 5.52209 6.25223 5.40104C6.22815 5.27999 6.24051 5.15452 6.28774 5.0405C6.33497 4.92647 6.41495 4.82901 6.51757 4.76044C6.6202 4.69187 6.74084 4.65528 6.86426 4.65528C7.02977 4.65528 7.18849 4.72102 7.30552 4.83805C7.42254 4.95508 7.48829 5.1138 7.48829 5.2793Z" fill="#6C7648"></path><path d="M9.98438 5.2793C9.98438 5.64956 10.0942 6.01151 10.2999 6.31937C10.5056 6.62723 10.798 6.86718 11.14 7.00887C11.4821 7.15056 11.8585 7.18764 12.2217 7.1154C12.5848 7.04317 12.9184 6.86487 13.1802 6.60306C13.442 6.34124 13.6203 6.00767 13.6926 5.64452C13.7648 5.28138 13.7277 4.90497 13.586 4.56289C13.4443 4.22081 13.2044 3.92844 12.8965 3.72273C12.5887 3.51702 12.2267 3.40723 11.8565 3.40723C11.3601 3.40776 10.8843 3.60516 10.5333 3.95613C10.1823 4.3071 9.98491 4.78296 9.98438 5.2793ZM12.4805 5.2793C12.4805 5.40272 12.4439 5.52337 12.3753 5.62599C12.3067 5.72861 12.2093 5.80859 12.0953 5.85582C11.9812 5.90306 11.8558 5.91541 11.7347 5.89133C11.6137 5.86726 11.5025 5.80782 11.4152 5.72055C11.3279 5.63328 11.2685 5.52209 11.2444 5.40104C11.2203 5.27999 11.2327 5.15452 11.2799 5.0405C11.3272 4.92647 11.4071 4.82901 11.5098 4.76044C11.6124 4.69187 11.733 4.65528 11.8565 4.65528C12.022 4.65528 12.1807 4.72102 12.2977 4.83805C12.4147 4.95508 12.4805 5.1138 12.4805 5.2793Z" fill="#6C7648"></path><path d="M14.9766 5.2793C14.9766 5.64956 15.0864 6.01151 15.2921 6.31937C15.4978 6.62723 15.7902 6.86718 16.1322 7.00887C16.4743 7.15056 16.8507 7.18764 17.2139 7.1154C17.577 7.04317 17.9106 6.86487 18.1724 6.60306C18.4342 6.34124 18.6125 6.00767 18.6847 5.64452C18.757 5.28138 18.7199 4.90497 18.5782 4.56289C18.4365 4.22081 18.1966 3.92844 17.8887 3.72273C17.5809 3.51702 17.2189 3.40723 16.8486 3.40723C16.3523 3.40776 15.8764 3.60516 15.5255 3.95613C15.1745 4.3071 14.9771 4.78296 14.9766 5.2793ZM17.4727 5.2793C17.4727 5.40272 17.4361 5.52337 17.3675 5.62599C17.2989 5.72861 17.2015 5.80859 17.0875 5.85582C16.9734 5.90306 16.848 5.91541 16.7269 5.89133C16.6059 5.86726 16.4947 5.80782 16.4074 5.72055C16.3201 5.63328 16.2607 5.52209 16.2366 5.40104C16.2125 5.27999 16.2249 5.15452 16.2721 5.0405C16.3194 4.92647 16.3993 4.82901 16.502 4.76044C16.6046 4.69187 16.7252 4.65528 16.8486 4.65528C17.0142 4.65528 17.1729 4.72102 17.2899 4.83805C17.4069 4.95508 17.4727 5.1138 17.4727 5.2793Z" fill="#6C7648"></path><path d="M42.8455 36.7815C43.1969 37.1319 43.6729 37.3286 44.1692 37.3286C44.6654 37.3286 45.1414 37.1319 45.4928 36.7815L49.6027 32.6717C49.7163 32.554 49.7792 32.3964 49.7778 32.2328C49.7764 32.0692 49.7108 31.9126 49.5951 31.7969C49.4794 31.6812 49.3229 31.6156 49.1592 31.6142C48.9956 31.6128 48.838 31.6757 48.7203 31.7893L44.6105 35.8992C44.4935 36.0161 44.3348 36.0819 44.1693 36.0819C44.0038 36.0819 43.8451 36.0161 43.7281 35.8992L42.1144 34.2854C41.9967 34.1718 41.8391 34.1089 41.6754 34.1103C41.5118 34.1117 41.3553 34.1773 41.2396 34.293C41.1239 34.4087 41.0583 34.5653 41.0569 34.7289C41.0554 34.8925 41.1183 35.0501 41.232 35.1678L42.8455 36.7815Z" stroke="#6C7648" stroke-width="0.4"></path><path d="M28.0811 17.1358C28.6982 17.1358 29.3014 16.9528 29.8145 16.6099C30.3276 16.2671 30.7275 15.7798 30.9637 15.2097C31.1999 14.6395 31.2616 14.0122 31.1413 13.4069C31.0209 12.8017 30.7237 12.2457 30.2873 11.8094C29.851 11.373 29.295 11.0759 28.6898 10.9555C28.0845 10.8351 27.4572 10.8969 26.8871 11.133C26.3169 11.3692 25.8296 11.7691 25.4868 12.2822C25.144 12.7953 24.961 13.3985 24.961 14.0156C24.9617 14.8429 25.2906 15.6361 25.8756 16.2211C26.4606 16.8061 27.2538 17.135 28.0811 17.1358ZM28.0811 12.1436C28.4513 12.1436 28.8133 12.2534 29.1211 12.4591C29.429 12.6648 29.669 12.9572 29.8106 13.2992C29.9523 13.6413 29.9894 14.0177 29.9172 14.3809C29.8449 14.744 29.6666 15.0776 29.4048 15.3394C29.143 15.6012 28.8095 15.7795 28.4463 15.8517C28.0832 15.924 27.7067 15.8869 27.3647 15.7452C27.0226 15.6035 26.7302 15.3636 26.5245 15.0557C26.3188 14.7478 26.209 14.3859 26.209 14.0156C26.2095 13.5193 26.4069 13.0434 26.7579 12.6925C27.1089 12.3415 27.5847 12.1441 28.0811 12.1436Z" stroke="#6C7648" stroke-width="0.4"></path><path d="M25.585 32.1123H30.5772C30.7427 32.1123 30.9014 32.0466 31.0184 31.9296C31.1355 31.8125 31.2012 31.6538 31.2012 31.4883C31.2012 31.3228 31.1355 31.1641 31.0184 31.0471C30.9014 30.93 30.7427 30.8643 30.5772 30.8643H25.585C25.4195 30.8643 25.2608 30.93 25.1437 31.0471C25.0267 31.1641 24.961 31.3228 24.961 31.4883C24.961 31.6538 25.0267 31.8125 25.1437 31.9296C25.2608 32.0466 25.4195 32.1123 25.585 32.1123Z" stroke="#6C7648" stroke-width="0.4"></path><path d="M30.5772 38.3526H25.585C25.4195 38.3526 25.2608 38.4183 25.1437 38.5353C25.0267 38.6524 24.961 38.8111 24.961 38.9766C24.961 39.1421 25.0267 39.3008 25.1437 39.4179C25.2608 39.5349 25.4195 39.6006 25.585 39.6006H30.5772C30.7427 39.6006 30.9014 39.5349 31.0184 39.4179C31.1355 39.3008 31.2012 39.1421 31.2012 38.9766C31.2012 38.8111 31.1355 38.6524 31.0184 38.5353C30.9014 38.4183 30.7427 38.3526 30.5772 38.3526Z" stroke="#6C7648" stroke-width="0.4"></path><path d="M18.0967 28.3682H8.11231C7.28481 28.3682 6.49119 28.6969 5.90605 29.2821C5.32092 29.8672 4.99219 30.6608 4.99219 31.4883C4.99219 32.3158 5.32092 33.1094 5.90605 33.6946C6.49119 34.2797 7.28481 34.6084 8.11231 34.6084H18.0967C18.9242 34.6084 19.7178 34.2797 20.303 33.6946C20.8881 33.1094 21.2168 32.3158 21.2168 31.4883C21.2168 30.6608 20.8881 29.8672 20.303 29.2821C19.7178 28.6969 18.9242 28.3682 18.0967 28.3682ZM18.0967 33.3604H8.11231C7.61581 33.3604 7.13964 33.1631 6.78856 32.8121C6.43748 32.461 6.24024 31.9848 6.24024 31.4883C6.24024 30.9918 6.43748 30.5156 6.78856 30.1646C7.13964 29.8135 7.61581 29.6162 8.11231 29.6162H18.0967C18.5932 29.6162 19.0694 29.8135 19.4205 30.1646C19.7715 30.5156 19.9688 30.9918 19.9688 31.4883C19.9688 31.9848 19.7715 32.461 19.4205 32.8121C19.0694 33.1631 18.5932 33.3604 18.0967 33.3604Z" stroke="#6C7648" stroke-width="0.4"></path><path d="M18.0967 35.8565H8.11231C7.28481 35.8565 6.49119 36.1852 5.90605 36.7703C5.32092 37.3555 4.99219 38.1491 4.99219 38.9766C4.99219 39.8041 5.32092 40.5977 5.90605 41.1829C6.49119 41.768 7.28481 42.0967 8.11231 42.0967H18.0967C18.9242 42.0967 19.7178 41.768 20.303 41.1829C20.8881 40.5977 21.2168 39.8041 21.2168 38.9766C21.2168 38.1491 20.8881 37.3555 20.303 36.7703C19.7178 36.1852 18.9242 35.8565 18.0967 35.8565ZM18.0967 40.8487H8.11231C7.61581 40.8487 7.13964 40.6514 6.78856 40.3004C6.43748 39.9493 6.24024 39.4731 6.24024 38.9766C6.24024 38.4801 6.43748 38.0039 6.78856 37.6528C7.13964 37.3018 7.61581 37.1045 8.11231 37.1045H18.0967C18.5932 37.1045 19.0694 37.3018 19.4205 37.6528C19.7715 38.0039 19.9688 38.4801 19.9688 38.9766C19.9688 39.4731 19.7715 39.9493 19.4205 40.3004C19.0694 40.6514 18.5932 40.8487 18.0967 40.8487Z" stroke="#6C7648" stroke-width="0.4"></path><path d="M49.2979 7.15137C49.7944 7.15137 50.2706 6.95414 50.6217 6.60306C50.9727 6.25197 51.17 5.77581 51.17 5.2793C51.17 4.7828 50.9727 4.30663 50.6217 3.95555C50.2706 3.60446 49.7944 3.40723 49.2979 3.40723H31.8252C31.3287 3.40723 30.8526 3.60446 30.5015 3.95555C30.1504 4.30663 29.9532 4.7828 29.9532 5.2793C29.9532 5.77581 30.1504 6.25197 30.5015 6.60306C30.8526 6.95414 31.3287 7.15137 31.8252 7.15137H49.2979ZM31.2012 5.2793C31.2012 5.1138 31.2669 4.95508 31.384 4.83805C31.501 4.72102 31.6597 4.65528 31.8252 4.65528H49.2979C49.4634 4.65528 49.6221 4.72102 49.7392 4.83805C49.8562 4.95508 49.9219 5.1138 49.9219 5.2793C49.9219 5.4448 49.8562 5.60353 49.7392 5.72055C49.6221 5.83758 49.4634 5.90333 49.2979 5.90333H31.8252C31.6597 5.90333 31.501 5.83758 31.384 5.72055C31.2669 5.60353 31.2012 5.4448 31.2012 5.2793Z" stroke="#6C7648" stroke-width="0.4"></path><path d="M50.5459 0.911133H28.0811C27.9156 0.911133 27.7569 0.976878 27.6398 1.09391C27.5228 1.21093 27.4571 1.36966 27.4571 1.53516C27.4571 1.70066 27.5228 1.85938 27.6398 1.97641C27.7569 2.09344 27.9156 2.15918 28.0811 2.15918H50.5459C51.704 2.16063 52.8142 2.62132 53.6331 3.44019C54.452 4.25907 54.9127 5.36929 54.9141 6.52735V8.39942H1.24805V6.52735C1.2495 5.36929 1.71018 4.25907 2.52906 3.44019C3.34794 2.62132 4.45815 2.16063 5.61622 2.15918H25.585C25.7505 2.15918 25.9092 2.09344 26.0262 1.97641C26.1433 1.85938 26.209 1.70066 26.209 1.53516C26.209 1.36966 26.1433 1.21093 26.0262 1.09391C25.9092 0.976878 25.7505 0.911133 25.585 0.911133H5.61622C4.12721 0.912785 2.69966 1.50502 1.64678 2.55791C0.593889 3.6108 0.0016517 5.03834 0 6.52735V41.4727C0.0016517 42.9617 0.593889 44.3892 1.64678 45.4421C2.69966 46.495 4.12721 47.0873 5.61622 47.0889H50.5459C52.035 47.0873 53.4625 46.495 54.5154 45.4421C55.5683 44.3892 56.1605 42.9617 56.1622 41.4727V6.52735C56.1605 5.03834 55.5683 3.6108 54.5154 2.55791C53.4625 1.50502 52.035 0.912785 50.5459 0.911133ZM5.61622 45.8409C4.45815 45.8394 3.34794 45.3787 2.52906 44.5598C1.71018 43.741 1.2495 42.6308 1.24805 41.4727V9.64747H23.805C22.6348 10.3711 21.6684 11.3812 20.9971 12.5823C20.3259 13.7834 19.9719 15.1358 19.9688 16.5117C19.9688 16.6772 20.0345 16.836 20.1515 16.953C20.2686 17.07 20.4273 17.1358 20.5928 17.1358C20.7583 17.1358 20.917 17.07 21.034 16.953C21.1511 16.836 21.2168 16.6772 21.2168 16.5117C21.2157 15.3833 21.4928 14.2719 22.0236 13.2761C22.5544 12.2802 23.3225 11.4306 24.26 10.8024C25.1974 10.1742 26.2753 9.78685 27.3982 9.67459C28.5211 9.56233 29.6543 9.72863 30.6976 10.1588C31.7409 10.5889 32.662 11.2697 33.3795 12.1407C34.0969 13.0118 34.5885 14.0463 34.8108 15.1526C35.0331 16.259 34.9792 17.4031 34.6539 18.4837C34.3286 19.5642 33.7419 20.5479 32.9457 21.3477C32.4852 20.4552 31.7881 19.7066 30.9306 19.1838C30.0731 18.661 29.0883 18.3842 28.084 18.3837C27.0797 18.3832 26.0946 18.659 25.2366 19.1809C24.3785 19.7028 23.6806 20.4507 23.2192 21.3427C22.4995 20.6254 21.9491 19.7565 21.608 18.7994C21.5806 18.7221 21.5383 18.651 21.4834 18.59C21.4285 18.5291 21.3622 18.4796 21.2882 18.4443C21.2142 18.409 21.1339 18.3886 21.0521 18.3843C20.9702 18.38 20.8882 18.3919 20.811 18.4193C20.7337 18.4466 20.6625 18.4889 20.6016 18.5438C20.5406 18.5987 20.4911 18.665 20.4558 18.739C20.4205 18.813 20.4001 18.8933 20.3958 18.9751C20.3915 19.057 20.4034 19.139 20.4308 19.2163C20.859 20.4406 21.5748 21.5444 22.5179 22.4349C23.461 23.3254 24.6041 23.9766 25.851 24.334C27.0979 24.6913 28.4123 24.7442 29.684 24.4884C30.9556 24.2326 32.1473 23.6754 33.159 22.8637C34.1707 22.0519 34.973 21.0093 35.4983 19.8234C36.0237 18.6375 36.2569 17.3428 36.1784 16.0481C36.0998 14.7533 35.7118 13.4963 35.0469 12.3826C34.382 11.2689 33.4596 10.3309 32.3571 9.64747H54.9141V26.3107C54.6278 26.1893 54.3144 26.1462 54.006 26.1859C52.6728 26.4014 51.3058 26.2313 50.066 25.6956C48.8263 25.1598 47.7656 24.2808 47.009 23.1621C46.8393 22.9181 46.6137 22.7184 46.3509 22.5797C46.0882 22.441 45.796 22.3673 45.4988 22.3648H45.4806C45.1895 22.3643 44.9023 22.4329 44.6428 22.5649C44.3833 22.6969 44.1588 22.8885 43.9877 23.1241C43.0423 24.4083 41.7314 25.3773 40.2263 25.9043C39.133 26.2691 37.9681 26.3656 36.8296 26.1859C36.5753 26.1484 36.316 26.1646 36.0683 26.2334C35.8206 26.3021 35.59 26.422 35.3914 26.5852C35.1833 26.757 35.0136 26.9705 34.8933 27.212C34.7729 27.4535 34.7045 27.7175 34.6925 27.987C34.687 28.1143 34.7087 28.2396 34.7055 28.3672H25.585C25.4195 28.3672 25.2608 28.4329 25.1437 28.55C25.0267 28.667 24.961 28.8257 24.961 28.9912C24.961 29.1567 25.0267 29.3154 25.1437 29.4325C25.2608 29.5495 25.4195 29.6152 25.585 29.6152H34.7477C34.7649 30.2642 34.7417 30.9187 34.8126 31.5555C34.9795 33.0141 35.2835 34.4538 35.7206 35.8555H25.585C25.4195 35.8555 25.2608 35.9212 25.1437 36.0382C25.0267 36.1553 24.961 36.314 24.961 36.4795C24.961 36.645 25.0267 36.8037 25.1437 36.9208C25.2608 37.0378 25.4195 37.1035 25.585 37.1035H36.1385C36.4043 37.8251 36.6961 38.541 37.0331 39.2449C37.1045 39.3943 37.2323 39.5091 37.3885 39.5642C37.5446 39.6193 37.7162 39.6102 37.8655 39.5387C38.0149 39.4673 38.1297 39.3395 38.1848 39.1833C38.2399 39.0272 38.2307 38.8556 38.1593 38.7063C37.052 36.4126 36.3399 33.9484 36.0531 31.4177C35.9296 30.2964 35.8921 29.1672 35.941 28.0402C35.9447 27.9458 35.9683 27.8532 36.0103 27.7686C36.0523 27.6839 36.1119 27.6092 36.1849 27.5492C36.2482 27.4974 36.3216 27.4591 36.4003 27.4368C36.4791 27.4146 36.5616 27.4087 36.6427 27.4197C37.9778 27.6302 39.344 27.5161 40.6257 27.0869C42.3722 26.4775 43.8941 25.3552 44.9926 23.867C45.0474 23.7868 45.1213 23.7215 45.2077 23.6772C45.2941 23.6329 45.3903 23.611 45.4874 23.6134C45.5873 23.6147 45.6855 23.6401 45.7736 23.6875C45.8616 23.7348 45.937 23.8026 45.9933 23.8852C46.8833 25.1923 48.1271 26.2189 49.5793 26.8449C51.0315 27.4708 52.6319 27.6702 54.1932 27.4197C54.2742 27.4074 54.3568 27.4128 54.4355 27.4353C54.5142 27.4578 54.5871 27.497 54.6493 27.5502C54.7222 27.6103 54.7818 27.6851 54.8239 27.7697C54.8661 27.8543 54.89 27.9468 54.8941 28.0412C54.9428 29.1687 54.9053 30.2982 54.7821 31.4199C54.1895 36.0834 52.2625 40.4765 49.2327 44.0709C48.7636 44.6254 48.1792 45.071 47.5203 45.3767C46.8613 45.6823 46.1437 45.8406 45.4173 45.8406C44.691 45.8406 43.9733 45.6823 43.3144 45.3767C42.6555 45.071 42.0711 44.6254 41.6019 44.0709C40.8374 43.1417 40.1347 42.1634 39.4982 41.1422C39.4106 41.0016 39.2708 40.9015 39.1094 40.864C38.9481 40.8266 38.7784 40.8547 38.6378 40.9423C38.4972 41.0299 38.3972 41.1697 38.3597 41.3311C38.3222 41.4924 38.3503 41.6621 38.4379 41.8027C39.1043 42.8696 39.8397 43.8919 40.6392 44.8631C40.9418 45.2284 41.2867 45.5566 41.6666 45.8406L5.61622 45.8409ZM31.9772 22.1529C30.8339 22.9492 29.4741 23.3762 28.0808 23.3765C26.6875 23.3768 25.3276 22.9503 24.1839 22.1544C24.5212 21.4032 25.0684 20.7656 25.7596 20.3181C26.4509 19.8707 27.2567 19.6326 28.0801 19.6324C28.9035 19.6323 29.7094 19.8701 30.4008 20.3172C31.0922 20.7644 31.6397 21.4019 31.9772 22.1529ZM50.5459 45.8409H49.1676C49.5474 45.5567 49.8923 45.2286 50.195 44.8634C52.2592 42.3618 53.8576 39.51 54.9141 36.4436V41.4727C54.9127 42.6308 54.452 43.741 53.6331 44.5598C52.8142 45.3787 51.704 45.8394 50.5459 45.8409Z" stroke="#6C7648" stroke-width="0.4"></path><path d="M4.99219 5.2793C4.99219 5.64956 5.10199 6.01151 5.30769 6.31937C5.5134 6.62723 5.80578 6.86718 6.14785 7.00887C6.48993 7.15056 6.86634 7.18764 7.22949 7.1154C7.59263 7.04317 7.92621 6.86487 8.18802 6.60306C8.44983 6.34124 8.62813 6.00767 8.70037 5.64452C8.7726 5.28138 8.73553 4.90497 8.59383 4.56289C8.45214 4.22081 8.21219 3.92844 7.90433 3.72273C7.59647 3.51702 7.23453 3.40723 6.86426 3.40723C6.36792 3.40776 5.89206 3.60516 5.54109 3.95613C5.19013 4.3071 4.99272 4.78296 4.99219 5.2793ZM7.48829 5.2793C7.48829 5.40272 7.45169 5.52337 7.38312 5.62599C7.31455 5.72861 7.21709 5.80859 7.10307 5.85582C6.98904 5.90306 6.86357 5.91541 6.74252 5.89133C6.62147 5.86726 6.51028 5.80782 6.42301 5.72055C6.33574 5.63328 6.27631 5.52209 6.25223 5.40104C6.22815 5.27999 6.24051 5.15452 6.28774 5.0405C6.33497 4.92647 6.41495 4.82901 6.51757 4.76044C6.6202 4.69187 6.74084 4.65528 6.86426 4.65528C7.02977 4.65528 7.18849 4.72102 7.30552 4.83805C7.42254 4.95508 7.48829 5.1138 7.48829 5.2793Z" stroke="#6C7648" stroke-width="0.4"></path><path d="M9.98438 5.2793C9.98438 5.64956 10.0942 6.01151 10.2999 6.31937C10.5056 6.62723 10.798 6.86718 11.14 7.00887C11.4821 7.15056 11.8585 7.18764 12.2217 7.1154C12.5848 7.04317 12.9184 6.86487 13.1802 6.60306C13.442 6.34124 13.6203 6.00767 13.6926 5.64452C13.7648 5.28138 13.7277 4.90497 13.586 4.56289C13.4443 4.22081 13.2044 3.92844 12.8965 3.72273C12.5887 3.51702 12.2267 3.40723 11.8565 3.40723C11.3601 3.40776 10.8843 3.60516 10.5333 3.95613C10.1823 4.3071 9.98491 4.78296 9.98438 5.2793ZM12.4805 5.2793C12.4805 5.40272 12.4439 5.52337 12.3753 5.62599C12.3067 5.72861 12.2093 5.80859 12.0953 5.85582C11.9812 5.90306 11.8558 5.91541 11.7347 5.89133C11.6137 5.86726 11.5025 5.80782 11.4152 5.72055C11.3279 5.63328 11.2685 5.52209 11.2444 5.40104C11.2203 5.27999 11.2327 5.15452 11.2799 5.0405C11.3272 4.92647 11.4071 4.82901 11.5098 4.76044C11.6124 4.69187 11.733 4.65528 11.8565 4.65528C12.022 4.65528 12.1807 4.72102 12.2977 4.83805C12.4147 4.95508 12.4805 5.1138 12.4805 5.2793Z" stroke="#6C7648" stroke-width="0.4"></path><path d="M14.9766 5.2793C14.9766 5.64956 15.0864 6.01151 15.2921 6.31937C15.4978 6.62723 15.7902 6.86718 16.1322 7.00887C16.4743 7.15056 16.8507 7.18764 17.2139 7.1154C17.577 7.04317 17.9106 6.86487 18.1724 6.60306C18.4342 6.34124 18.6125 6.00767 18.6847 5.64452C18.757 5.28138 18.7199 4.90497 18.5782 4.56289C18.4365 4.22081 18.1966 3.92844 17.8887 3.72273C17.5809 3.51702 17.2189 3.40723 16.8486 3.40723C16.3523 3.40776 15.8764 3.60516 15.5255 3.95613C15.1745 4.3071 14.9771 4.78296 14.9766 5.2793ZM17.4727 5.2793C17.4727 5.40272 17.4361 5.52337 17.3675 5.62599C17.2989 5.72861 17.2015 5.80859 17.0875 5.85582C16.9734 5.90306 16.848 5.91541 16.7269 5.89133C16.6059 5.86726 16.4947 5.80782 16.4074 5.72055C16.3201 5.63328 16.2607 5.52209 16.2366 5.40104C16.2125 5.27999 16.2249 5.15452 16.2721 5.0405C16.3194 4.92647 16.3993 4.82901 16.502 4.76044C16.6046 4.69187 16.7252 4.65528 16.8486 4.65528C17.0142 4.65528 17.1729 4.72102 17.2899 4.83805C17.4069 4.95508 17.4727 5.1138 17.4727 5.2793Z" stroke="#6C7648" stroke-width="0.4"></path></svg>