<svg xmlns="http://www.w3.org/2000/svg" width="57" height="48" viewBox="0 0 57 48" fill="none"><path d="M23.4219 28.3682H21.4867C21.4314 27.8096 21.292 27.2627 21.0733 26.7457L22.7297 25.7887C22.8039 25.7495 22.8695 25.6957 22.9224 25.6306C22.9753 25.5654 23.0146 25.4903 23.0378 25.4096C23.061 25.329 23.0677 25.2445 23.0575 25.1612C23.0473 25.0778 23.0204 24.9975 22.9784 24.9248C22.9364 24.8521 22.8802 24.7887 22.8131 24.7382C22.746 24.6878 22.6695 24.6514 22.588 24.6312C22.5065 24.6111 22.4218 24.6076 22.3389 24.6209C22.2561 24.6343 22.1767 24.6642 22.1057 24.7089L20.4383 25.6724C20.045 25.1336 19.5592 24.6687 19.0036 24.2996C19.0269 24.2009 19.0437 24.1009 19.0537 24C19.0537 23.1725 18.725 22.3789 18.1399 21.7938C17.5547 21.2086 16.7611 20.8799 15.9336 20.8799C15.1061 20.8799 14.3125 21.2086 13.7274 21.7938C13.1422 22.3789 12.8135 23.1725 12.8135 24C12.8234 24.1009 12.8401 24.2009 12.8634 24.2996C12.3077 24.6687 11.822 25.1336 11.4287 25.6724L9.76126 24.7089C9.69023 24.6642 9.61091 24.6343 9.52804 24.6209C9.44518 24.6076 9.36047 24.6111 9.27899 24.6312C9.19751 24.6514 9.12094 24.6878 9.05385 24.7382C8.98676 24.7887 8.93053 24.8521 8.88854 24.9248C8.84654 24.9975 8.81963 25.0778 8.80943 25.1612C8.79923 25.2445 8.80593 25.329 8.82915 25.4096C8.85237 25.4903 8.89163 25.5654 8.94456 25.6306C8.9975 25.6957 9.06303 25.7495 9.13724 25.7887L10.7936 26.746C10.575 27.2629 10.4357 27.8099 10.3803 28.3684H8.44532C8.27982 28.3684 8.1211 28.4342 8.00407 28.5512C7.88704 28.6682 7.8213 28.827 7.8213 28.9925C7.8213 29.158 7.88704 29.3167 8.00407 29.4337C8.1211 29.5507 8.27982 29.6165 8.44532 29.6165H10.3805C10.4357 30.175 10.5749 30.722 10.7934 31.239L9.13749 32.1957C9.06328 32.2349 8.99775 32.2887 8.94481 32.3538C8.89188 32.419 8.85262 32.4941 8.8294 32.5748C8.80619 32.6554 8.79948 32.74 8.80968 32.8233C8.81988 32.9066 8.84679 32.987 8.88878 33.0596C8.93078 33.1323 8.98701 33.1958 9.0541 33.2462C9.12119 33.2966 9.19776 33.333 9.27924 33.3532C9.36072 33.3733 9.44543 33.3768 9.52829 33.3635C9.61116 33.3502 9.69048 33.3202 9.76151 33.2755L11.4284 32.3125C11.9448 33.0238 12.6223 33.6026 13.4054 34.0018C14.1884 34.401 15.0549 34.609 15.9339 34.609C16.8128 34.609 17.6793 34.401 18.4624 34.0018C19.2454 33.6026 19.9229 33.0238 20.4393 32.3125L22.1062 33.2755C22.1772 33.3202 22.2566 33.3502 22.3394 33.3635C22.4223 33.3768 22.507 33.3733 22.5885 33.3532C22.67 33.333 22.7465 33.2966 22.8136 33.2462C22.8807 33.1958 22.9369 33.1323 22.9789 33.0596C23.0209 32.987 23.0478 32.9066 23.058 32.8233C23.0682 32.74 23.0615 32.6554 23.0383 32.5748C23.0151 32.4941 22.9758 32.419 22.9229 32.3538C22.87 32.2887 22.8044 32.2349 22.7302 32.1957L21.0738 31.2387C21.2923 30.7217 21.4315 30.1748 21.4867 29.6162H23.4219C23.5874 29.6162 23.7461 29.5505 23.8631 29.4335C23.9802 29.3164 24.0459 29.1577 24.0459 28.9922C24.0459 28.8267 23.9802 28.668 23.8631 28.551C23.7461 28.4339 23.5874 28.3682 23.4219 28.3682ZM15.9336 22.128C16.3734 22.1323 16.7972 22.2932 17.1292 22.5816C17.4612 22.8701 17.6796 23.2674 17.7453 23.7022C16.5767 23.2673 15.2906 23.2673 14.1219 23.7022C14.1876 23.2674 14.406 22.8701 14.738 22.5816C15.07 22.2932 15.4938 22.1323 15.9336 22.128ZM15.9336 33.3604C15.0697 33.3604 14.2251 33.1042 13.5068 32.6242C12.7884 32.1442 12.2286 31.462 11.8979 30.6638C11.5673 29.8657 11.4808 28.9874 11.6494 28.14C11.8179 27.2927 12.2339 26.5144 12.8448 25.9035C13.4557 25.2926 14.2341 24.8765 15.0814 24.708C15.9288 24.5394 16.8071 24.6259 17.6052 24.9566C18.4034 25.2872 19.0856 25.847 19.5656 26.5654C20.0456 27.2837 20.3018 28.1283 20.3018 28.9922C20.3003 30.1503 19.8396 31.2605 19.0208 32.0794C18.2019 32.8982 17.0917 33.3589 15.9336 33.3604Z" fill="#6C7648"></path><path d="M54.6231 40.8487H51.8687C52.5299 40.3281 53.065 39.6649 53.4339 38.9085C53.8028 38.1521 53.996 37.3221 53.9991 36.4805V11.5195C53.9972 10.0306 53.4049 8.60316 52.3521 7.55032C51.2992 6.49748 49.8718 5.90517 48.3829 5.90333H38.9741C38.8635 5.60419 38.6788 5.33797 38.4374 5.12954C38.2411 4.96405 38.0116 4.84273 37.7643 4.77382C37.517 4.70491 37.2577 4.69002 37.0042 4.73016C35.8653 4.90957 34.7001 4.81371 33.606 4.4506C32.1431 3.94621 30.8816 2.98416 30.0081 1.70689C29.8378 1.46344 29.6118 1.26421 29.3489 1.1258C29.086 0.98738 28.7938 0.913782 28.4967 0.911133C28.2043 0.918201 27.9172 0.98996 27.6558 1.12125C27.3945 1.25254 27.1655 1.4401 26.9853 1.67045C26.0394 2.95481 24.7278 3.92377 23.2222 4.4506C22.1297 4.81565 20.9653 4.91222 19.8275 4.73216C19.5736 4.69424 19.3145 4.71021 19.0671 4.77902C18.8198 4.84783 18.5897 4.96794 18.3918 5.13153C18.1504 5.34002 17.9658 5.60622 17.8551 5.90532H8.44532C6.95672 5.90717 5.52959 6.4992 4.4768 7.55161C3.42402 8.60402 2.83148 10.0309 2.8291 11.5195V36.4805C2.83218 37.3221 3.02538 38.1521 3.39429 38.9085C3.7632 39.6649 4.29827 40.3281 4.95952 40.8487H2.20508C1.7088 40.8494 1.23305 41.0469 0.882127 41.3978C0.531203 41.7487 0.333734 42.2245 0.333008 42.7207C0.334461 43.8788 0.795144 44.989 1.61402 45.8079C2.4329 46.6268 3.54311 47.0875 4.70118 47.0889H8.44532C8.61082 47.0889 8.76955 47.0232 8.88657 46.9061C9.0036 46.7891 9.06934 46.6304 9.06934 46.4649C9.06934 46.2994 9.0036 46.1407 8.88657 46.0236C8.76955 45.9066 8.61082 45.8409 8.44532 45.8409H4.70118C3.87389 45.8401 3.0807 45.5112 2.49572 44.9262C1.91074 44.3412 1.58178 43.548 1.58106 42.7207C1.58106 42.5552 1.6468 42.3965 1.76383 42.2795C1.88086 42.1625 2.03958 42.0967 2.20508 42.0967H54.6231C54.7886 42.0967 54.9473 42.1625 55.0644 42.2795C55.1814 42.3965 55.2471 42.5552 55.2471 42.7207C55.2464 43.548 54.9174 44.3412 54.3325 44.9262C53.7475 45.5112 52.9543 45.8401 52.127 45.8409H10.9414C10.7759 45.8409 10.6172 45.9066 10.5002 46.0236C10.3831 46.1407 10.3174 46.2994 10.3174 46.4649C10.3174 46.6304 10.3831 46.7891 10.5002 46.9061C10.6172 47.0232 10.7759 47.0889 10.9414 47.0889H52.127C53.2851 47.0875 54.3953 46.6268 55.2142 45.8079C56.033 44.989 56.4937 43.8788 56.4952 42.7207C56.4944 42.2245 56.297 41.7487 55.946 41.3978C55.5951 41.0469 55.1194 40.8494 54.6231 40.8487ZM8.44532 40.8487C7.28726 40.8472 6.17704 40.3865 5.35816 39.5677C4.53929 38.7488 4.07861 37.6386 4.07715 36.4805V11.5195C4.07861 10.3615 4.53929 9.25126 5.35816 8.43238C6.17704 7.61351 7.28726 7.15283 8.44532 7.15137H17.6879C17.6804 7.56722 17.6719 7.98282 17.6879 8.39942H8.44532C7.61804 8.40015 6.82484 8.72911 6.23986 9.31409C5.65489 9.89907 5.32593 10.6923 5.3252 11.5195V33.9844C5.32593 34.8117 5.65489 35.6049 6.23986 36.1899C6.82484 36.7748 7.61804 37.1038 8.44532 37.1045H38.3985C38.564 37.1045 38.7227 37.0388 38.8397 36.9218C38.9568 36.8047 39.0225 36.646 39.0225 36.4805C39.0225 36.315 38.9568 36.1563 38.8397 36.0392C38.7227 35.9222 38.564 35.8565 38.3985 35.8565H8.44532C7.94904 35.8558 7.47329 35.6583 7.12237 35.3074C6.77144 34.9564 6.57397 34.4807 6.57325 33.9844V11.5195C6.57397 11.0233 6.77144 10.5475 7.12237 10.1966C7.47329 9.84566 7.94904 9.6482 8.44532 9.64747H17.7777C17.7915 9.79873 17.7937 9.95124 17.8107 10.102C17.9643 11.4875 18.2417 12.8564 18.6394 14.1924C18.6584 14.2755 18.6942 14.3538 18.7447 14.4225C18.7951 14.4912 18.8591 14.5489 18.9327 14.5919C19.0063 14.635 19.0879 14.6625 19.1726 14.6727C19.2572 14.683 19.343 14.6758 19.4248 14.6516C19.5065 14.6274 19.5824 14.5867 19.6479 14.5321C19.7133 14.4774 19.7668 14.4099 19.8051 14.3338C19.8434 14.2576 19.8657 14.1744 19.8707 14.0893C19.8756 14.0042 19.863 13.919 19.8338 13.8389C19.4593 12.5729 19.1966 11.2764 19.0487 9.96447C18.9246 8.8432 18.8879 7.71397 18.9392 6.58701C18.9431 6.49247 18.9669 6.39981 19.0089 6.31502C19.0509 6.23023 19.1102 6.1552 19.183 6.09478C19.246 6.04308 19.319 6.00493 19.3975 5.98268C19.4759 5.96044 19.558 5.95458 19.6388 5.96548C20.9739 6.17623 22.34 6.0621 23.6216 5.63275C25.3683 5.02315 26.8907 3.90098 27.9898 2.41278C28.0447 2.33387 28.118 2.26953 28.2034 2.22533C28.2887 2.18114 28.3836 2.15844 28.4797 2.15918H28.4845C28.5842 2.16086 28.6821 2.18641 28.7699 2.23371C28.8577 2.281 28.9329 2.34866 28.9892 2.43101C30.0202 3.91814 31.4971 5.0393 33.2066 5.63275C34.4887 6.06398 35.8562 6.17815 37.1921 5.96548C37.2725 5.95278 37.3547 5.95777 37.433 5.9801C37.5113 6.00243 37.5838 6.04156 37.6454 6.09478C37.7183 6.15536 37.7777 6.2306 37.8198 6.31561C37.8618 6.40062 37.8854 6.49351 37.8893 6.58825C37.9405 7.71513 37.9038 8.84428 37.7797 9.96547C37.1859 14.6289 35.2586 19.0219 32.2291 22.6167C31.7601 23.1712 31.1758 23.6168 30.517 23.9224C29.8582 24.2281 29.1406 24.3864 28.4143 24.3864C27.6881 24.3864 26.9705 24.2281 26.3117 23.9224C25.6529 23.6168 25.0686 23.1712 24.5996 22.6167C23.0063 20.6979 21.6975 18.5597 20.7136 16.2679C20.649 16.1153 20.5263 15.9947 20.3727 15.9325C20.2191 15.8704 20.0471 15.8718 19.8945 15.9365C19.742 16.0012 19.6214 16.1238 19.5592 16.2774C19.4971 16.431 19.4985 16.603 19.5632 16.7556C20.5958 19.1562 21.9667 21.3967 23.6341 23.4089C24.2204 24.106 24.952 24.6664 25.7777 25.0509C26.6034 25.4353 27.5033 25.6345 28.4141 25.6345C29.3249 25.6345 30.2247 25.4353 31.0505 25.0509C31.8762 24.6664 32.6078 24.106 33.1941 23.4089C36.3784 19.6285 38.4008 15.0075 39.0175 10.1033C39.0345 9.95199 39.0367 9.79923 39.0507 9.64747H48.3829C48.8791 9.6482 49.3549 9.84566 49.7058 10.1966C50.0567 10.5475 50.2542 11.0233 50.2549 11.5195V33.9844C50.2542 34.4807 50.0567 34.9564 49.7058 35.3074C49.3549 35.6583 48.8791 35.8558 48.3829 35.8565H40.8946C40.7291 35.8565 40.5703 35.9222 40.4533 36.0392C40.3363 36.1563 40.2705 36.315 40.2705 36.4805C40.2705 36.646 40.3363 36.8047 40.4533 36.9218C40.5703 37.0388 40.7291 37.1045 40.8946 37.1045H48.3829C49.2101 37.1038 50.0033 36.7748 50.5883 36.1899C51.1733 35.6049 51.5023 34.8117 51.503 33.9844V11.5195C51.5023 10.6923 51.1733 9.89907 50.5883 9.31409C50.0033 8.72911 49.2101 8.40015 48.3829 8.39942H39.1408C39.1563 7.98232 39.1478 7.56722 39.1408 7.15137H48.3829C49.5409 7.15283 50.6511 7.61351 51.47 8.43238C52.2889 9.25126 52.7496 10.3615 52.751 11.5195V36.4805C52.7496 37.6386 52.2889 38.7488 51.47 39.5677C50.6511 40.3865 49.5409 40.8472 48.3829 40.8487H8.44532Z" fill="#6C7648"></path><path d="M30.9102 44.5928C31.0757 44.5928 31.2344 44.5271 31.3514 44.41C31.4685 44.293 31.5342 44.1343 31.5342 43.9688C31.5342 43.8033 31.4685 43.6446 31.3514 43.5275C31.2344 43.4105 31.0757 43.3448 30.9102 43.3448H25.918C25.7525 43.3448 25.5938 43.4105 25.4767 43.5275C25.3597 43.6446 25.294 43.8033 25.294 43.9688C25.294 44.1343 25.3597 44.293 25.4767 44.41C25.5938 44.5271 25.7525 44.5928 25.918 44.5928H30.9102Z" fill="#6C7648"></path><path d="M33.4063 29.6162H48.3829C48.5484 29.6162 48.7071 29.5505 48.8241 29.4335C48.9411 29.3164 49.0069 29.1577 49.0069 28.9922C49.0069 28.8267 48.9411 28.668 48.8241 28.551C48.7071 28.4339 48.5484 28.3682 48.3829 28.3682H33.4063C33.2408 28.3682 33.0821 28.4339 32.965 28.551C32.848 28.668 32.7823 28.8267 32.7823 28.9922C32.7823 29.1577 32.848 29.3164 32.965 29.4335C33.0821 29.5505 33.2408 29.6162 33.4063 29.6162Z" fill="#6C7648"></path><path d="M33.4063 27.1201H43.3907C43.5562 27.1201 43.7149 27.0544 43.8319 26.9374C43.9489 26.8203 44.0147 26.6616 44.0147 26.4961C44.0147 26.3306 43.9489 26.1719 43.8319 26.0549C43.7149 25.9378 43.5562 25.8721 43.3907 25.8721H33.4063C33.2408 25.8721 33.0821 25.9378 32.965 26.0549C32.848 26.1719 32.7823 26.3306 32.7823 26.4961C32.7823 26.6616 32.848 26.8203 32.965 26.9374C33.0821 27.0544 33.2408 27.1201 33.4063 27.1201Z" fill="#6C7648"></path><path d="M38.3985 30.8643H33.4063C33.2408 30.8643 33.0821 30.93 32.965 31.0471C32.848 31.1641 32.7823 31.3228 32.7823 31.4883C32.7823 31.6538 32.848 31.8125 32.965 31.9296C33.0821 32.0466 33.2408 32.1123 33.4063 32.1123H38.3985C38.564 32.1123 38.7227 32.0466 38.8397 31.9296C38.9568 31.8125 39.0225 31.6538 39.0225 31.4883C39.0225 31.3228 38.9568 31.1641 38.8397 31.0471C38.7227 30.93 38.564 30.8643 38.3985 30.8643Z" fill="#6C7648"></path><path d="M25.8431 15.3283C26.1949 15.678 26.6708 15.8742 27.1668 15.8742C27.6628 15.8742 28.1387 15.678 28.4905 15.3283L32.6003 11.2185C32.6586 11.1607 32.705 11.0918 32.7367 11.016C32.7684 10.9402 32.7848 10.8589 32.7849 10.7767C32.7851 10.6945 32.769 10.6131 32.7377 10.5371C32.7063 10.4612 32.6602 10.3922 32.6021 10.3341C32.544 10.276 32.475 10.2299 32.399 10.1986C32.323 10.1672 32.2416 10.1512 32.1595 10.1514C32.0773 10.1516 31.996 10.168 31.9201 10.1997C31.8443 10.2314 31.7755 10.2778 31.7177 10.3361L27.6074 14.446C27.4897 14.5619 27.3312 14.6269 27.166 14.6269C27.0009 14.6269 26.8424 14.5619 26.7247 14.446L25.1113 12.8322C24.9941 12.716 24.8356 12.651 24.6706 12.6513C24.5056 12.6517 24.3474 12.7174 24.2307 12.834C24.114 12.9507 24.0482 13.1089 24.0479 13.2739C24.0475 13.4389 24.1125 13.5974 24.2286 13.7146L25.8431 15.3283Z" fill="#6C7648"></path><path d="M23.4219 28.3682H21.4867C21.4314 27.8096 21.292 27.2627 21.0733 26.7457L22.7297 25.7887C22.8039 25.7495 22.8695 25.6957 22.9224 25.6306C22.9753 25.5654 23.0146 25.4903 23.0378 25.4096C23.061 25.329 23.0677 25.2445 23.0575 25.1612C23.0473 25.0778 23.0204 24.9975 22.9784 24.9248C22.9364 24.8521 22.8802 24.7887 22.8131 24.7382C22.746 24.6878 22.6695 24.6514 22.588 24.6312C22.5065 24.6111 22.4218 24.6076 22.3389 24.6209C22.2561 24.6343 22.1767 24.6642 22.1057 24.7089L20.4383 25.6724C20.045 25.1336 19.5592 24.6687 19.0036 24.2996C19.0269 24.2009 19.0437 24.1009 19.0537 24C19.0537 23.1725 18.725 22.3789 18.1399 21.7938C17.5547 21.2086 16.7611 20.8799 15.9336 20.8799C15.1061 20.8799 14.3125 21.2086 13.7274 21.7938C13.1422 22.3789 12.8135 23.1725 12.8135 24C12.8234 24.1009 12.8401 24.2009 12.8634 24.2996C12.3077 24.6687 11.822 25.1336 11.4287 25.6724L9.76126 24.7089C9.69023 24.6642 9.61091 24.6343 9.52804 24.6209C9.44518 24.6076 9.36047 24.6111 9.27899 24.6312C9.19751 24.6514 9.12094 24.6878 9.05385 24.7382C8.98676 24.7887 8.93053 24.8521 8.88854 24.9248C8.84654 24.9975 8.81963 25.0778 8.80943 25.1612C8.79923 25.2445 8.80593 25.329 8.82915 25.4096C8.85237 25.4903 8.89163 25.5654 8.94456 25.6306C8.9975 25.6957 9.06303 25.7495 9.13724 25.7887L10.7936 26.746C10.575 27.2629 10.4357 27.8099 10.3803 28.3684H8.44532C8.27982 28.3684 8.1211 28.4342 8.00407 28.5512C7.88704 28.6682 7.8213 28.827 7.8213 28.9925C7.8213 29.158 7.88704 29.3167 8.00407 29.4337C8.1211 29.5507 8.27982 29.6165 8.44532 29.6165H10.3805C10.4357 30.175 10.5749 30.722 10.7934 31.239L9.13749 32.1957C9.06328 32.2349 8.99775 32.2887 8.94481 32.3538C8.89188 32.419 8.85262 32.4941 8.8294 32.5748C8.80619 32.6554 8.79948 32.74 8.80968 32.8233C8.81988 32.9066 8.84679 32.987 8.88878 33.0596C8.93078 33.1323 8.98701 33.1958 9.0541 33.2462C9.12119 33.2966 9.19776 33.333 9.27924 33.3532C9.36072 33.3733 9.44543 33.3768 9.52829 33.3635C9.61116 33.3502 9.69048 33.3202 9.76151 33.2755L11.4284 32.3125C11.9448 33.0238 12.6223 33.6026 13.4054 34.0018C14.1884 34.401 15.0549 34.609 15.9339 34.609C16.8128 34.609 17.6793 34.401 18.4624 34.0018C19.2454 33.6026 19.9229 33.0238 20.4393 32.3125L22.1062 33.2755C22.1772 33.3202 22.2566 33.3502 22.3394 33.3635C22.4223 33.3768 22.507 33.3733 22.5885 33.3532C22.67 33.333 22.7465 33.2966 22.8136 33.2462C22.8807 33.1958 22.9369 33.1323 22.9789 33.0596C23.0209 32.987 23.0478 32.9066 23.058 32.8233C23.0682 32.74 23.0615 32.6554 23.0383 32.5748C23.0151 32.4941 22.9758 32.419 22.9229 32.3538C22.87 32.2887 22.8044 32.2349 22.7302 32.1957L21.0738 31.2387C21.2923 30.7217 21.4315 30.1748 21.4867 29.6162H23.4219C23.5874 29.6162 23.7461 29.5505 23.8631 29.4335C23.9802 29.3164 24.0459 29.1577 24.0459 28.9922C24.0459 28.8267 23.9802 28.668 23.8631 28.551C23.7461 28.4339 23.5874 28.3682 23.4219 28.3682ZM15.9336 22.128C16.3734 22.1323 16.7972 22.2932 17.1292 22.5816C17.4612 22.8701 17.6796 23.2674 17.7453 23.7022C16.5767 23.2673 15.2906 23.2673 14.1219 23.7022C14.1876 23.2674 14.406 22.8701 14.738 22.5816C15.07 22.2932 15.4938 22.1323 15.9336 22.128ZM15.9336 33.3604C15.0697 33.3604 14.2251 33.1042 13.5068 32.6242C12.7884 32.1442 12.2286 31.462 11.8979 30.6638C11.5673 29.8657 11.4808 28.9874 11.6494 28.14C11.8179 27.2927 12.2339 26.5144 12.8448 25.9035C13.4557 25.2926 14.2341 24.8765 15.0814 24.708C15.9288 24.5394 16.8071 24.6259 17.6052 24.9566C18.4034 25.2872 19.0856 25.847 19.5656 26.5654C20.0456 27.2837 20.3018 28.1283 20.3018 28.9922C20.3003 30.1503 19.8396 31.2605 19.0208 32.0794C18.2019 32.8982 17.0917 33.3589 15.9336 33.3604Z" stroke="#6C7648" stroke-width="0.4"></path><path d="M54.6231 40.8487H51.8687C52.5299 40.3281 53.065 39.6649 53.4339 38.9085C53.8028 38.1521 53.996 37.3221 53.9991 36.4805V11.5195C53.9972 10.0306 53.4049 8.60316 52.3521 7.55032C51.2992 6.49748 49.8718 5.90517 48.3829 5.90333H38.9741C38.8635 5.60419 38.6788 5.33797 38.4374 5.12954C38.2411 4.96405 38.0116 4.84273 37.7643 4.77382C37.517 4.70491 37.2577 4.69002 37.0042 4.73016C35.8653 4.90957 34.7001 4.81371 33.606 4.4506C32.1431 3.94621 30.8816 2.98416 30.0081 1.70689C29.8378 1.46344 29.6118 1.26421 29.3489 1.1258C29.086 0.98738 28.7938 0.913782 28.4967 0.911133C28.2043 0.918201 27.9172 0.98996 27.6558 1.12125C27.3945 1.25254 27.1655 1.4401 26.9853 1.67045C26.0394 2.95481 24.7278 3.92377 23.2222 4.4506C22.1297 4.81565 20.9653 4.91222 19.8275 4.73216C19.5736 4.69424 19.3145 4.71021 19.0671 4.77902C18.8198 4.84783 18.5897 4.96794 18.3918 5.13153C18.1504 5.34002 17.9658 5.60622 17.8551 5.90532H8.44532C6.95672 5.90717 5.52959 6.4992 4.4768 7.55161C3.42402 8.60402 2.83148 10.0309 2.8291 11.5195V36.4805C2.83218 37.3221 3.02538 38.1521 3.39429 38.9085C3.7632 39.6649 4.29827 40.3281 4.95952 40.8487H2.20508C1.7088 40.8494 1.23305 41.0469 0.882127 41.3978C0.531203 41.7487 0.333734 42.2245 0.333008 42.7207C0.334461 43.8788 0.795144 44.989 1.61402 45.8079C2.4329 46.6268 3.54311 47.0875 4.70118 47.0889H8.44532C8.61082 47.0889 8.76955 47.0232 8.88657 46.9061C9.0036 46.7891 9.06934 46.6304 9.06934 46.4649C9.06934 46.2994 9.0036 46.1407 8.88657 46.0236C8.76955 45.9066 8.61082 45.8409 8.44532 45.8409H4.70118C3.87389 45.8401 3.0807 45.5112 2.49572 44.9262C1.91074 44.3412 1.58178 43.548 1.58106 42.7207C1.58106 42.5552 1.6468 42.3965 1.76383 42.2795C1.88086 42.1625 2.03958 42.0967 2.20508 42.0967H54.6231C54.7886 42.0967 54.9473 42.1625 55.0644 42.2795C55.1814 42.3965 55.2471 42.5552 55.2471 42.7207C55.2464 43.548 54.9174 44.3412 54.3325 44.9262C53.7475 45.5112 52.9543 45.8401 52.127 45.8409H10.9414C10.7759 45.8409 10.6172 45.9066 10.5002 46.0236C10.3831 46.1407 10.3174 46.2994 10.3174 46.4649C10.3174 46.6304 10.3831 46.7891 10.5002 46.9061C10.6172 47.0232 10.7759 47.0889 10.9414 47.0889H52.127C53.2851 47.0875 54.3953 46.6268 55.2142 45.8079C56.033 44.989 56.4937 43.8788 56.4952 42.7207C56.4944 42.2245 56.297 41.7487 55.946 41.3978C55.5951 41.0469 55.1194 40.8494 54.6231 40.8487ZM8.44532 40.8487C7.28726 40.8472 6.17704 40.3865 5.35816 39.5677C4.53929 38.7488 4.07861 37.6386 4.07715 36.4805V11.5195C4.07861 10.3615 4.53929 9.25126 5.35816 8.43238C6.17704 7.61351 7.28726 7.15283 8.44532 7.15137H17.6879C17.6804 7.56722 17.6719 7.98282 17.6879 8.39942H8.44532C7.61804 8.40015 6.82484 8.72911 6.23986 9.31409C5.65489 9.89907 5.32593 10.6923 5.3252 11.5195V33.9844C5.32593 34.8117 5.65489 35.6049 6.23986 36.1899C6.82484 36.7748 7.61804 37.1038 8.44532 37.1045H38.3985C38.564 37.1045 38.7227 37.0388 38.8397 36.9218C38.9568 36.8047 39.0225 36.646 39.0225 36.4805C39.0225 36.315 38.9568 36.1563 38.8397 36.0392C38.7227 35.9222 38.564 35.8565 38.3985 35.8565H8.44532C7.94904 35.8558 7.47329 35.6583 7.12237 35.3074C6.77144 34.9564 6.57397 34.4807 6.57325 33.9844V11.5195C6.57397 11.0233 6.77144 10.5475 7.12237 10.1966C7.47329 9.84566 7.94904 9.6482 8.44532 9.64747H17.7777C17.7915 9.79873 17.7937 9.95124 17.8107 10.102C17.9643 11.4875 18.2417 12.8564 18.6394 14.1924C18.6584 14.2755 18.6942 14.3538 18.7447 14.4225C18.7951 14.4912 18.8591 14.5489 18.9327 14.5919C19.0063 14.635 19.0879 14.6625 19.1726 14.6727C19.2572 14.683 19.343 14.6758 19.4248 14.6516C19.5065 14.6274 19.5824 14.5867 19.6479 14.5321C19.7133 14.4774 19.7668 14.4099 19.8051 14.3338C19.8434 14.2576 19.8657 14.1744 19.8707 14.0893C19.8756 14.0042 19.863 13.919 19.8338 13.8389C19.4593 12.5729 19.1966 11.2764 19.0487 9.96447C18.9246 8.8432 18.8879 7.71397 18.9392 6.58701C18.9431 6.49247 18.9669 6.39981 19.0089 6.31502C19.0509 6.23023 19.1102 6.1552 19.183 6.09478C19.246 6.04308 19.319 6.00493 19.3975 5.98268C19.4759 5.96044 19.558 5.95458 19.6388 5.96548C20.9739 6.17623 22.34 6.0621 23.6216 5.63275C25.3683 5.02315 26.8907 3.90098 27.9898 2.41278C28.0447 2.33387 28.118 2.26953 28.2034 2.22533C28.2887 2.18114 28.3836 2.15844 28.4797 2.15918H28.4845C28.5842 2.16086 28.6821 2.18641 28.7699 2.23371C28.8577 2.281 28.9329 2.34866 28.9892 2.43101C30.0202 3.91814 31.4971 5.0393 33.2066 5.63275C34.4887 6.06398 35.8562 6.17815 37.1921 5.96548C37.2725 5.95278 37.3547 5.95777 37.433 5.9801C37.5113 6.00243 37.5838 6.04156 37.6454 6.09478C37.7183 6.15536 37.7777 6.2306 37.8198 6.31561C37.8618 6.40062 37.8854 6.49351 37.8893 6.58825C37.9405 7.71513 37.9038 8.84428 37.7797 9.96547C37.1859 14.6289 35.2586 19.0219 32.2291 22.6167C31.7601 23.1712 31.1758 23.6168 30.517 23.9224C29.8582 24.2281 29.1406 24.3864 28.4143 24.3864C27.6881 24.3864 26.9705 24.2281 26.3117 23.9224C25.6529 23.6168 25.0686 23.1712 24.5996 22.6167C23.0063 20.6979 21.6975 18.5597 20.7136 16.2679C20.649 16.1153 20.5263 15.9947 20.3727 15.9325C20.2191 15.8704 20.0471 15.8718 19.8945 15.9365C19.742 16.0012 19.6214 16.1238 19.5592 16.2774C19.4971 16.431 19.4985 16.603 19.5632 16.7556C20.5958 19.1562 21.9667 21.3967 23.6341 23.4089C24.2204 24.106 24.952 24.6664 25.7777 25.0509C26.6034 25.4353 27.5033 25.6345 28.4141 25.6345C29.3249 25.6345 30.2247 25.4353 31.0505 25.0509C31.8762 24.6664 32.6078 24.106 33.1941 23.4089C36.3784 19.6285 38.4008 15.0075 39.0175 10.1033C39.0345 9.95199 39.0367 9.79923 39.0507 9.64747H48.3829C48.8791 9.6482 49.3549 9.84566 49.7058 10.1966C50.0567 10.5475 50.2542 11.0233 50.2549 11.5195V33.9844C50.2542 34.4807 50.0567 34.9564 49.7058 35.3074C49.3549 35.6583 48.8791 35.8558 48.3829 35.8565H40.8946C40.7291 35.8565 40.5703 35.9222 40.4533 36.0392C40.3363 36.1563 40.2705 36.315 40.2705 36.4805C40.2705 36.646 40.3363 36.8047 40.4533 36.9218C40.5703 37.0388 40.7291 37.1045 40.8946 37.1045H48.3829C49.2101 37.1038 50.0033 36.7748 50.5883 36.1899C51.1733 35.6049 51.5023 34.8117 51.503 33.9844V11.5195C51.5023 10.6923 51.1733 9.89907 50.5883 9.31409C50.0033 8.72911 49.2101 8.40015 48.3829 8.39942H39.1408C39.1563 7.98232 39.1478 7.56722 39.1408 7.15137H48.3829C49.5409 7.15283 50.6511 7.61351 51.47 8.43238C52.2889 9.25126 52.7496 10.3615 52.751 11.5195V36.4805C52.7496 37.6386 52.2889 38.7488 51.47 39.5677C50.6511 40.3865 49.5409 40.8472 48.3829 40.8487H8.44532Z" stroke="#6C7648" stroke-width="0.4"></path><path d="M30.9102 44.5928C31.0757 44.5928 31.2344 44.5271 31.3514 44.41C31.4685 44.293 31.5342 44.1343 31.5342 43.9688C31.5342 43.8033 31.4685 43.6446 31.3514 43.5275C31.2344 43.4105 31.0757 43.3448 30.9102 43.3448H25.918C25.7525 43.3448 25.5938 43.4105 25.4767 43.5275C25.3597 43.6446 25.294 43.8033 25.294 43.9688C25.294 44.1343 25.3597 44.293 25.4767 44.41C25.5938 44.5271 25.7525 44.5928 25.918 44.5928H30.9102Z" stroke="#6C7648" stroke-width="0.4"></path><path d="M33.4063 29.6162H48.3829C48.5484 29.6162 48.7071 29.5505 48.8241 29.4335C48.9411 29.3164 49.0069 29.1577 49.0069 28.9922C49.0069 28.8267 48.9411 28.668 48.8241 28.551C48.7071 28.4339 48.5484 28.3682 48.3829 28.3682H33.4063C33.2408 28.3682 33.0821 28.4339 32.965 28.551C32.848 28.668 32.7823 28.8267 32.7823 28.9922C32.7823 29.1577 32.848 29.3164 32.965 29.4335C33.0821 29.5505 33.2408 29.6162 33.4063 29.6162Z" stroke="#6C7648" stroke-width="0.4"></path><path d="M33.4063 27.1201H43.3907C43.5562 27.1201 43.7149 27.0544 43.8319 26.9374C43.9489 26.8203 44.0147 26.6616 44.0147 26.4961C44.0147 26.3306 43.9489 26.1719 43.8319 26.0549C43.7149 25.9378 43.5562 25.8721 43.3907 25.8721H33.4063C33.2408 25.8721 33.0821 25.9378 32.965 26.0549C32.848 26.1719 32.7823 26.3306 32.7823 26.4961C32.7823 26.6616 32.848 26.8203 32.965 26.9374C33.0821 27.0544 33.2408 27.1201 33.4063 27.1201Z" stroke="#6C7648" stroke-width="0.4"></path><path d="M38.3985 30.8643H33.4063C33.2408 30.8643 33.0821 30.93 32.965 31.0471C32.848 31.1641 32.7823 31.3228 32.7823 31.4883C32.7823 31.6538 32.848 31.8125 32.965 31.9296C33.0821 32.0466 33.2408 32.1123 33.4063 32.1123H38.3985C38.564 32.1123 38.7227 32.0466 38.8397 31.9296C38.9568 31.8125 39.0225 31.6538 39.0225 31.4883C39.0225 31.3228 38.9568 31.1641 38.8397 31.0471C38.7227 30.93 38.564 30.8643 38.3985 30.8643Z" stroke="#6C7648" stroke-width="0.4"></path><path d="M25.8431 15.3283C26.1949 15.678 26.6708 15.8742 27.1668 15.8742C27.6628 15.8742 28.1387 15.678 28.4905 15.3283L32.6003 11.2185C32.6586 11.1607 32.705 11.0918 32.7367 11.016C32.7684 10.9402 32.7848 10.8589 32.7849 10.7767C32.7851 10.6945 32.769 10.6131 32.7377 10.5371C32.7063 10.4612 32.6602 10.3922 32.6021 10.3341C32.544 10.276 32.475 10.2299 32.399 10.1986C32.323 10.1672 32.2416 10.1512 32.1595 10.1514C32.0773 10.1516 31.996 10.168 31.9201 10.1997C31.8443 10.2314 31.7755 10.2778 31.7177 10.3361L27.6074 14.446C27.4897 14.5619 27.3312 14.6269 27.166 14.6269C27.0009 14.6269 26.8424 14.5619 26.7247 14.446L25.1113 12.8322C24.9941 12.716 24.8356 12.651 24.6706 12.6513C24.5056 12.6517 24.3474 12.7174 24.2307 12.834C24.114 12.9507 24.0482 13.1089 24.0479 13.2739C24.0475 13.4389 24.1125 13.5974 24.2286 13.7146L25.8431 15.3283Z" stroke="#6C7648" stroke-width="0.4"></path></svg>