<svg xmlns="http://www.w3.org/2000/svg" width="58" height="46" viewBox="0 0 58 46" fill="none"><path d="M57.091 16.1196V13.3672C57.0902 12.8199 56.8725 12.2953 56.4855 11.9084C56.0985 11.5214 55.574 11.3037 55.0267 11.3029H46.7695C46.262 11.3078 45.7746 11.5017 45.4024 11.8467C45.0253 11.498 44.5308 11.3038 44.0171 11.3029H40.406C40.4492 11.0103 40.5403 10.7227 40.5725 10.4293C40.7153 9.12247 40.7594 7.80677 40.7044 6.49335C40.6911 6.19638 40.6158 5.90548 40.4834 5.63932C40.351 5.37317 40.1644 5.13765 39.9356 4.94788C39.7182 4.76438 39.4637 4.62982 39.1897 4.55331C38.9156 4.4768 38.6283 4.46015 38.3472 4.50447C36.8774 4.74276 35.3701 4.55555 34.0032 3.96494C32.6363 3.37434 31.4669 2.40499 30.6331 1.17132C30.4463 0.902077 30.1975 0.681689 29.9077 0.528738C29.6179 0.375788 29.2956 0.29476 28.9679 0.292486H28.9492C28.6279 0.291762 28.3111 0.367428 28.0248 0.513245C27.7385 0.659062 27.491 0.870849 27.3027 1.13114C26.2584 2.54619 24.813 3.61489 23.154 4.19868C23.0684 4.22743 22.9893 4.27279 22.9213 4.33217C22.8532 4.39155 22.7976 4.46377 22.7575 4.5447C22.7175 4.62563 22.6938 4.71368 22.6878 4.80379C22.6818 4.8939 22.6937 4.9843 22.7227 5.06981C22.7506 5.15607 22.7956 5.23586 22.8549 5.30445C22.9142 5.37303 22.9867 5.42903 23.068 5.46911C23.1493 5.5092 23.2379 5.53256 23.3284 5.53782C23.4189 5.54308 23.5095 5.53013 23.595 5.49973C25.5207 4.8276 27.1989 3.59017 28.4103 1.94915C28.4712 1.86255 28.5522 1.79192 28.6462 1.74324C28.7403 1.69456 28.8447 1.66927 28.9506 1.66951C29.1696 1.69318 29.3711 1.79997 29.5137 1.96787C30.4932 3.41076 31.8643 4.54402 33.4658 5.23443C35.0673 5.92483 36.8326 6.14368 38.5542 5.86525C38.6439 5.85241 38.7353 5.85869 38.8224 5.88369C38.9095 5.90869 38.9903 5.95184 39.0595 6.0103C39.14 6.07685 39.2055 6.1596 39.2519 6.25317C39.2982 6.34674 39.3243 6.44902 39.3284 6.55335C39.3821 7.79647 39.3408 9.04187 39.2049 10.2787C39.1407 10.8567 39.0375 11.4121 38.9354 11.9665L38.9252 11.991L38.9299 12.0017C38.0345 16.5008 36.0257 20.7037 33.0871 24.2262C32.5704 24.8386 31.9262 25.3308 31.1995 25.6684C30.4729 26.006 29.6812 26.181 28.88 26.181C28.0787 26.181 27.2871 26.006 26.5604 25.6684C25.8337 25.3308 25.1895 24.8386 24.6728 24.2262C21.7332 20.7041 19.7238 16.5011 18.8284 12.0017L18.8328 11.991L18.8226 11.9665C18.7205 11.4121 18.6173 10.8581 18.5531 10.2787C18.4172 9.04187 18.3759 7.79647 18.4295 6.55335C18.4337 6.44902 18.4598 6.34674 18.5061 6.25317C18.5525 6.1596 18.618 6.07685 18.6985 6.0103C18.7669 5.951 18.8474 5.90731 18.9345 5.88226C19.0215 5.85721 19.1129 5.85141 19.2024 5.86525C19.6707 5.93769 20.1436 5.97541 20.6174 5.9781H20.6218C20.8043 5.97865 20.9796 5.90668 21.109 5.77802C21.2384 5.64936 21.3114 5.47456 21.312 5.29207C21.3125 5.10957 21.2406 4.93433 21.1119 4.8049C20.9833 4.67547 20.8084 4.60245 20.626 4.6019C20.2183 4.59826 19.8114 4.5657 19.4083 4.50447C19.1276 4.46318 18.8414 4.48132 18.5682 4.5577C18.295 4.63409 18.0409 4.76702 17.8224 4.94788C17.5936 5.13765 17.407 5.37317 17.2746 5.63932C17.1422 5.90548 17.0669 6.19638 17.0536 6.49335C16.9986 7.80677 17.0427 9.12247 17.1855 10.4293C17.2177 10.7227 17.309 11.0103 17.352 11.3029H13.7408C13.2272 11.3038 12.7327 11.498 12.3556 11.8467C11.9834 11.5017 11.496 11.3078 10.9885 11.3029H2.73129C2.18405 11.3037 1.65945 11.5214 1.27249 11.9084C0.885538 12.2953 0.667793 12.8199 0.666992 13.3672V16.1196C0.667793 16.6668 0.885538 17.1914 1.27249 17.5783C1.65945 17.9653 2.18405 18.1831 2.73129 18.1839H6.31105C6.22486 18.4033 6.17772 18.6362 6.17177 18.872V21.6243C6.17772 21.8601 6.22486 22.0929 6.31105 22.3124H2.73129C2.18405 22.3132 1.65945 22.531 1.27249 22.9179C0.885538 23.3049 0.667793 23.8295 0.666992 24.3767V25.7529C0.666992 25.9354 0.739488 26.1104 0.868531 26.2395C0.997575 26.3685 1.1726 26.441 1.35509 26.441C1.53758 26.441 1.7126 26.3685 1.84165 26.2395C1.97069 26.1104 2.04319 25.9354 2.04319 25.7529V24.3767C2.04319 24.1942 2.11568 24.0192 2.24473 23.8902C2.37377 23.7611 2.54879 23.6886 2.73129 23.6886H10.9885C11.171 23.6886 11.346 23.7611 11.475 23.8902C11.6041 24.0192 11.6766 24.1942 11.6766 24.3767V27.1291C11.6766 27.3116 11.6041 27.4866 11.475 27.6157C11.346 27.7447 11.171 27.8172 10.9885 27.8172H2.73129C2.71807 27.8172 2.71037 27.8304 2.69743 27.8313C2.67982 27.8299 2.66715 27.8117 2.64926 27.8117C2.55873 27.7984 2.46643 27.8041 2.37818 27.8283C2.28994 27.8525 2.20767 27.8947 2.13657 27.9523C2.06547 28.0099 2.00708 28.0816 1.9651 28.1629C1.92311 28.2442 1.89844 28.3334 1.89263 28.4247C1.88294 28.5146 1.89107 28.6056 1.91657 28.6924C1.94207 28.7792 1.98444 28.8601 2.04124 28.9305C2.09804 29.0009 2.16817 29.0594 2.24762 29.1027C2.32706 29.146 2.41425 29.1731 2.50421 29.1827C2.52843 29.1854 2.70706 29.1934 2.73129 29.1934H6.31105C6.22486 29.4129 6.17772 29.6458 6.17177 29.8815V32.6339C6.17772 32.8696 6.22486 33.1025 6.31105 33.322H2.73129C2.18405 33.3228 1.65945 33.5405 1.27249 33.9275C0.885538 34.3145 0.667793 34.8391 0.666992 35.3863V38.1387C0.667793 38.6859 0.885538 39.2105 1.27249 39.5975C1.65945 39.9844 2.18405 40.2022 2.73129 40.203H6.31105C6.22486 40.4225 6.17772 40.6553 6.17177 40.8911V43.6435C6.17257 44.1907 6.39032 44.7153 6.77728 45.1023C7.16423 45.4892 7.68883 45.707 8.23607 45.7078H16.4932C17.0047 45.7032 17.4959 45.5068 17.8694 45.1573C18.243 45.5068 18.7341 45.7032 19.2456 45.7078H27.5028C28.0143 45.7032 28.5055 45.5068 28.879 45.1573C29.2525 45.5068 29.7437 45.7032 30.2552 45.7078H38.5124C39.0239 45.7032 39.515 45.5068 39.8886 45.1573C40.2621 45.5068 40.7533 45.7032 41.2648 45.7078H45.3933C45.5758 45.7078 45.7509 45.6353 45.8799 45.5062C46.0089 45.3772 46.0814 45.2022 46.0814 45.0197C46.0814 44.8372 46.0089 44.6621 45.8799 44.5331C45.7509 44.4041 45.5758 44.3316 45.3933 44.3316H41.2648C41.0823 44.3316 40.9072 44.2591 40.7782 44.13C40.6492 44.001 40.5767 43.826 40.5767 43.6435V40.8911C40.5767 40.7086 40.6492 40.5336 40.7782 40.4045C40.9072 40.2755 41.0823 40.203 41.2648 40.203H49.5219C49.7044 40.203 49.8794 40.2755 50.0085 40.4045C50.1375 40.5336 50.21 40.7086 50.21 40.8911V43.6435C50.21 43.826 50.1375 44.001 50.0085 44.13C49.8794 44.2591 49.7044 44.3316 49.5219 44.3316H48.1457C47.9632 44.3316 47.7882 44.4041 47.6592 44.5331C47.5301 44.6621 47.4576 44.8372 47.4576 45.0197C47.4576 45.2022 47.5301 45.3772 47.6592 45.5062C47.7882 45.6353 47.9632 45.7078 48.1457 45.7078H49.5219C50.0692 45.707 50.5938 45.4892 50.9807 45.1023C51.3677 44.7153 51.5854 44.1907 51.5862 43.6435V40.8911C51.5803 40.6553 51.5331 40.4225 51.447 40.203H55.0267C55.574 40.2022 56.0985 39.9844 56.4855 39.5975C56.8725 39.2105 57.0902 38.6859 57.091 38.1387V35.3863C57.0902 34.8391 56.8725 34.3145 56.4855 33.9275C56.0985 33.5405 55.574 33.3228 55.0267 33.322H51.447C51.5331 33.1025 51.5803 32.8696 51.5862 32.6339V29.8815C51.5803 29.6458 51.5331 29.4129 51.447 29.1934H55.0267C55.574 29.1926 56.0985 28.9749 56.4855 28.5879C56.8725 28.201 57.0902 27.6764 57.091 27.1291V24.3767C57.0902 23.8295 56.8725 23.3049 56.4855 22.9179C56.0985 22.531 55.574 22.3132 55.0267 22.3124H51.447C51.5331 22.0929 51.5803 21.8601 51.5862 21.6243V18.872C51.5803 18.6362 51.5331 18.4033 51.447 18.1839H55.0267C55.574 18.1831 56.0985 17.9653 56.4855 17.5783C56.8725 17.1914 57.0902 16.6668 57.091 16.1196ZM46.7695 12.6791H55.0267C55.2092 12.6791 55.3842 12.7516 55.5133 12.8806C55.6423 13.0097 55.7148 13.1847 55.7148 13.3672V16.1196C55.7148 16.3021 55.6423 16.4771 55.5133 16.6061C55.3842 16.7352 55.2092 16.8077 55.0267 16.8077H46.7695C46.587 16.8077 46.412 16.7352 46.283 16.6061C46.1539 16.4771 46.0814 16.3021 46.0814 16.1196V13.3672C46.0814 13.1847 46.1539 13.0097 46.283 12.8806C46.412 12.7516 46.587 12.6791 46.7695 12.6791ZM44.0171 12.6791C44.1081 12.677 44.1985 12.6933 44.2829 12.7272C44.3674 12.761 44.4441 12.8116 44.5084 12.8759C44.5727 12.9402 44.6233 13.0169 44.6572 13.1014C44.691 13.1858 44.7074 13.2762 44.7052 13.3672V16.1196C44.7074 16.2105 44.691 16.3009 44.6572 16.3854C44.6233 16.4698 44.5727 16.5465 44.5084 16.6108C44.4441 16.6751 44.3674 16.7257 44.2829 16.7596C44.1985 16.7934 44.1081 16.8098 44.0171 16.8077H38.9464C39.4574 15.4664 39.8579 14.0856 40.1437 12.6791H44.0171ZM44.7052 24.3767V27.1291C44.7052 27.3116 44.6328 27.4866 44.5037 27.6157C44.3747 27.7447 44.1996 27.8172 44.0171 27.8172H35.76C35.5775 27.8172 35.4025 27.7447 35.2734 27.6157C35.1444 27.4866 35.0719 27.3116 35.0719 27.1291V24.3767C35.0719 24.1942 35.1444 24.0192 35.2734 23.8902C35.4025 23.7611 35.5775 23.6886 35.76 23.6886H44.0171C44.1996 23.6886 44.3747 23.7611 44.5037 23.8902C44.6328 24.0192 44.7052 24.1942 44.7052 24.3767ZM39.2005 32.6339C39.2005 32.8164 39.128 32.9914 38.9989 33.1205C38.8699 33.2495 38.6949 33.322 38.5124 33.322H30.2552C30.0727 33.322 29.8977 33.2495 29.7686 33.1205C29.6396 32.9914 29.5671 32.8164 29.5671 32.6339V29.8815C29.5671 29.699 29.6396 29.524 29.7686 29.395C29.8977 29.2659 30.0727 29.1934 30.2552 29.1934H38.5124C38.6949 29.1934 38.8699 29.2659 38.9989 29.395C39.128 29.524 39.2005 29.699 39.2005 29.8815V32.6339ZM33.6957 38.1387C33.6957 38.3212 33.6232 38.4962 33.4941 38.6252C33.3651 38.7543 33.1901 38.8268 33.0076 38.8268H24.7504C24.5679 38.8268 24.3929 38.7543 24.2639 38.6252C24.1348 38.4962 24.0623 38.3212 24.0623 38.1387V35.3863C24.0623 35.2038 24.1348 35.0288 24.2639 34.8997C24.3929 34.7707 24.5679 34.6982 24.7504 34.6982H33.0076C33.1901 34.6982 33.3651 34.7707 33.4941 34.8997C33.6232 35.0288 33.6957 35.2038 33.6957 35.3863V38.1387ZM13.7408 38.8268C13.5584 38.8268 13.3833 38.7543 13.2543 38.6252C13.1252 38.4962 13.0528 38.3212 13.0528 38.1387V35.3863C13.0528 35.2038 13.1252 35.0288 13.2543 34.8997C13.3833 34.7707 13.5584 34.6982 13.7408 34.6982H21.998C22.1805 34.6982 22.3555 34.7707 22.4846 34.8997C22.6136 35.0288 22.6861 35.2038 22.6861 35.3863V38.1387C22.6861 38.3212 22.6136 38.4962 22.4846 38.6252C22.3555 38.7543 22.1805 38.8268 21.998 38.8268H13.7408ZM13.0528 27.1291V24.3767C13.0528 24.1942 13.1252 24.0192 13.2543 23.8902C13.3833 23.7611 13.5584 23.6886 13.7408 23.6886H21.998C22.1805 23.6886 22.3555 23.7611 22.4846 23.8902C22.6136 24.0192 22.6861 24.1942 22.6861 24.3767V27.1291C22.6861 27.3116 22.6136 27.4866 22.4846 27.6157C22.3555 27.7447 22.1805 27.8172 21.998 27.8172H13.7408C13.5584 27.8172 13.3833 27.7447 13.2543 27.6157C13.1252 27.4866 13.0528 27.3116 13.0528 27.1291ZM18.5575 18.872C18.5554 18.781 18.5718 18.6906 18.6056 18.6062C18.6394 18.5217 18.6901 18.445 18.7544 18.3807C18.8187 18.3164 18.8954 18.2658 18.9798 18.2319C19.0643 18.1981 19.1547 18.1817 19.2456 18.1839H19.3205C19.9724 19.6192 20.7385 20.9998 21.6116 22.3124H19.2456C19.1547 22.3145 19.0643 22.2982 18.9798 22.2644C18.8954 22.2305 18.8187 22.1799 18.7544 22.1156C18.6901 22.0513 18.6394 21.9746 18.6056 21.8901C18.5718 21.8057 18.5554 21.7153 18.5575 21.6243V18.872ZM18.5575 29.8815C18.5575 29.699 18.63 29.524 18.7591 29.395C18.8881 29.2659 19.0631 29.1934 19.2456 29.1934H27.5028C27.6853 29.1934 27.8603 29.2659 27.9894 29.395C28.1184 29.524 28.1909 29.699 28.1909 29.8815V32.6339C28.1909 32.8164 28.1184 32.9914 27.9894 33.1205C27.8603 33.2495 27.6853 33.322 27.5028 33.322H19.2456C19.0631 33.322 18.8881 33.2495 18.7591 33.1205C18.63 32.9914 18.5575 32.8164 18.5575 32.6339V29.8815ZM39.2005 21.6243C39.2026 21.7153 39.1862 21.8057 39.1524 21.8901C39.1185 21.9746 39.0679 22.0513 39.0036 22.1156C38.9393 22.1799 38.8626 22.2305 38.7782 22.2644C38.6937 22.2982 38.6033 22.3145 38.5124 22.3124H36.1472C37.02 20.9998 37.7859 19.6192 38.4375 18.1839H38.5124C38.6033 18.1817 38.6937 18.1981 38.7782 18.2319C38.8626 18.2658 38.9393 18.3164 39.0036 18.3807C39.0679 18.445 39.1185 18.5217 39.1524 18.6062C39.1862 18.6906 39.2026 18.781 39.2005 18.872V21.6243ZM28.879 27.5566C29.7751 27.556 30.6623 27.3777 31.489 27.032C32.3158 26.6863 33.0658 26.1801 33.6957 25.5426V27.1291C33.6978 27.2201 33.6814 27.3105 33.6476 27.3949C33.6138 27.4794 33.5632 27.5561 33.4988 27.6204C33.4345 27.6847 33.3578 27.7353 33.2734 27.7691C33.1889 27.803 33.0985 27.8193 33.0076 27.8172H24.7504C24.6595 27.8193 24.5691 27.803 24.4846 27.7691C24.4002 27.7353 24.3235 27.6847 24.2592 27.6204C24.1948 27.5561 24.1442 27.4794 24.1104 27.3949C24.0766 27.3105 24.0602 27.2201 24.0623 27.1291V25.5415C24.692 26.1793 25.4419 26.6858 26.2687 27.0317C27.0955 27.3776 27.9828 27.556 28.879 27.5566ZM13.7408 12.6791H17.6143C17.9003 14.0856 18.3007 15.4664 18.8116 16.8077H13.7408C13.6499 16.8098 13.5595 16.7934 13.475 16.7596C13.3906 16.7257 13.3139 16.6751 13.2496 16.6108C13.1853 16.5465 13.1347 16.4698 13.1008 16.3854C13.067 16.3009 13.0506 16.2105 13.0528 16.1196V13.3672C13.0506 13.2762 13.067 13.1858 13.1008 13.1014C13.1347 13.0169 13.1853 12.9402 13.2496 12.8759C13.3139 12.8116 13.3906 12.761 13.475 12.7272C13.5595 12.6933 13.6499 12.677 13.7408 12.6791ZM2.04319 16.1196V13.3672C2.04319 13.1847 2.11568 13.0097 2.24473 12.8806C2.37377 12.7516 2.54879 12.6791 2.73129 12.6791H10.9885C11.171 12.6791 11.346 12.7516 11.475 12.8806C11.6041 13.0097 11.6766 13.1847 11.6766 13.3672V16.1196C11.6766 16.3021 11.6041 16.4771 11.475 16.6061C11.346 16.7352 11.171 16.8077 10.9885 16.8077H2.73129C2.54879 16.8077 2.37377 16.7352 2.24473 16.6061C2.11568 16.4771 2.04319 16.3021 2.04319 16.1196ZM8.23607 22.3124C8.05357 22.3124 7.87855 22.2399 7.74951 22.1109C7.62046 21.9819 7.54797 21.8068 7.54797 21.6243V18.872C7.54797 18.6895 7.62046 18.5144 7.74951 18.3854C7.87855 18.2563 8.05357 18.1839 8.23607 18.1839H16.4932C16.6757 18.1839 16.8508 18.2563 16.9798 18.3854C17.1088 18.5144 17.1813 18.6895 17.1813 18.872V21.6243C17.1813 21.8068 17.1088 21.9819 16.9798 22.1109C16.8508 22.2399 16.6757 22.3124 16.4932 22.3124H8.23607ZM7.54797 32.6339V29.8815C7.54797 29.699 7.62046 29.524 7.74951 29.395C7.87855 29.2659 8.05357 29.1934 8.23607 29.1934H16.4932C16.6757 29.1934 16.8508 29.2659 16.9798 29.395C17.1088 29.524 17.1813 29.699 17.1813 29.8815V32.6339C17.1813 32.8164 17.1088 32.9914 16.9798 33.1205C16.8508 33.2495 16.6757 33.322 16.4932 33.322H8.23607C8.05357 33.322 7.87855 33.2495 7.74951 33.1205C7.62046 32.9914 7.54797 32.8164 7.54797 32.6339ZM2.04319 38.1387V35.3863C2.04319 35.2038 2.11568 35.0288 2.24473 34.8997C2.37377 34.7707 2.54879 34.6982 2.73129 34.6982H10.9885C11.171 34.6982 11.346 34.7707 11.475 34.8997C11.6041 35.0288 11.6766 35.2038 11.6766 35.3863V38.1387C11.6766 38.3212 11.6041 38.4962 11.475 38.6252C11.346 38.7543 11.171 38.8268 10.9885 38.8268H2.73129C2.54879 38.8268 2.37377 38.7543 2.24473 38.6252C2.11568 38.4962 2.04319 38.3212 2.04319 38.1387ZM16.4932 44.3316H8.23607C8.05357 44.3316 7.87855 44.2591 7.74951 44.13C7.62046 44.001 7.54797 43.826 7.54797 43.6435V40.8911C7.54797 40.7086 7.62046 40.5336 7.74951 40.4045C7.87855 40.2755 8.05357 40.203 8.23607 40.203H16.4932C16.6757 40.203 16.8508 40.2755 16.9798 40.4045C17.1088 40.5336 17.1813 40.7086 17.1813 40.8911V43.6435C17.1813 43.826 17.1088 44.001 16.9798 44.13C16.8508 44.2591 16.6757 44.3316 16.4932 44.3316ZM27.5028 44.3316H19.2456C19.0631 44.3316 18.8881 44.2591 18.7591 44.13C18.63 44.001 18.5575 43.826 18.5575 43.6435V40.8911C18.5575 40.7086 18.63 40.5336 18.7591 40.4045C18.8881 40.2755 19.0631 40.203 19.2456 40.203H27.5028C27.6853 40.203 27.8603 40.2755 27.9894 40.4045C28.1184 40.5336 28.1909 40.7086 28.1909 40.8911V43.6435C28.1909 43.826 28.1184 44.001 27.9894 44.13C27.8603 44.2591 27.6853 44.3316 27.5028 44.3316ZM38.5124 44.3316H30.2552C30.0727 44.3316 29.8977 44.2591 29.7686 44.13C29.6396 44.001 29.5671 43.826 29.5671 43.6435V40.8911C29.5671 40.7086 29.6396 40.5336 29.7686 40.4045C29.8977 40.2755 30.0727 40.203 30.2552 40.203H38.5124C38.6949 40.203 38.8699 40.2755 38.9989 40.4045C39.128 40.5336 39.2005 40.7086 39.2005 40.8911V43.6435C39.2005 43.826 39.128 44.001 38.9989 44.13C38.8699 44.2591 38.6949 44.3316 38.5124 44.3316ZM35.76 38.8268C35.5775 38.8268 35.4025 38.7543 35.2734 38.6252C35.1444 38.4962 35.0719 38.3212 35.0719 38.1387V35.3863C35.0719 35.2038 35.1444 35.0288 35.2734 34.8997C35.4025 34.7707 35.5775 34.6982 35.76 34.6982H44.0171C44.1996 34.6982 44.3747 34.7707 44.5037 34.8997C44.6328 35.0288 44.7052 35.2038 44.7052 35.3863V38.1387C44.7052 38.3212 44.6328 38.4962 44.5037 38.6252C44.3747 38.7543 44.1996 38.8268 44.0171 38.8268H35.76ZM55.7148 35.3863V38.1387C55.7148 38.3212 55.6423 38.4962 55.5133 38.6252C55.3842 38.7543 55.2092 38.8268 55.0267 38.8268H46.7695C46.587 38.8268 46.412 38.7543 46.283 38.6252C46.1539 38.4962 46.0814 38.3212 46.0814 38.1387V35.3863C46.0814 35.2038 46.1539 35.0288 46.283 34.8997C46.412 34.7707 46.587 34.6982 46.7695 34.6982H55.0267C55.2092 34.6982 55.3842 34.7707 55.5133 34.8997C55.6423 35.0288 55.7148 35.2038 55.7148 35.3863ZM50.21 29.8815V32.6339C50.21 32.8164 50.1375 32.9914 50.0085 33.1205C49.8794 33.2495 49.7044 33.322 49.5219 33.322H41.2648C41.0823 33.322 40.9072 33.2495 40.7782 33.1205C40.6492 32.9914 40.5767 32.8164 40.5767 32.6339V29.8815C40.5767 29.699 40.6492 29.524 40.7782 29.395C40.9072 29.2659 41.0823 29.1934 41.2648 29.1934H49.5219C49.7044 29.1934 49.8794 29.2659 50.0085 29.395C50.1375 29.524 50.21 29.699 50.21 29.8815ZM55.7148 24.3767V27.1291C55.7148 27.3116 55.6423 27.4866 55.5133 27.6157C55.3842 27.7447 55.2092 27.8172 55.0267 27.8172H46.7695C46.587 27.8172 46.412 27.7447 46.283 27.6157C46.1539 27.4866 46.0814 27.3116 46.0814 27.1291V24.3767C46.0814 24.1942 46.1539 24.0192 46.283 23.8902C46.412 23.7611 46.587 23.6886 46.7695 23.6886H55.0267C55.2092 23.6886 55.3842 23.7611 55.5133 23.8902C55.6423 24.0192 55.7148 24.1942 55.7148 24.3767ZM50.21 18.872V21.6243C50.21 21.8068 50.1375 21.9819 50.0085 22.1109C49.8794 22.2399 49.7044 22.3124 49.5219 22.3124H41.2648C41.0823 22.3124 40.9072 22.2399 40.7782 22.1109C40.6492 21.9819 40.5767 21.8068 40.5767 21.6243V18.872C40.5767 18.6895 40.6492 18.5144 40.7782 18.3854C40.9072 18.2563 41.0823 18.1839 41.2648 18.1839H49.5219C49.7044 18.1839 49.8794 18.2563 50.0085 18.3854C50.1375 18.5144 50.21 18.6895 50.21 18.872Z" fill="#6C7648"></path><path d="M27.5028 16.7942C27.7739 16.7944 28.0423 16.7411 28.2927 16.6371C28.543 16.5332 28.7704 16.3808 28.9616 16.1886L33.4934 11.6568C33.5577 11.593 33.6088 11.5171 33.6438 11.4335C33.6787 11.3499 33.6968 11.2602 33.697 11.1696C33.6972 11.079 33.6795 10.9893 33.6449 10.9055C33.6103 10.8217 33.5595 10.7457 33.4954 10.6816C33.4313 10.6175 33.3552 10.5667 33.2714 10.5322C33.1877 10.4976 33.0979 10.4799 33.0073 10.4801C32.9167 10.4803 32.827 10.4984 32.7434 10.5334C32.6598 10.5684 32.5839 10.6195 32.5201 10.6839L27.9894 15.2165C27.9255 15.2804 27.8497 15.3311 27.7662 15.3657C27.6827 15.4003 27.5932 15.4181 27.5028 15.4181C27.4124 15.4181 27.3229 15.4003 27.2394 15.3657C27.1559 15.3311 27.0801 15.2804 27.0162 15.2165L25.237 13.4371C25.1078 13.309 24.9331 13.2372 24.7511 13.2376C24.5692 13.238 24.3947 13.3104 24.2661 13.4391C24.1374 13.5677 24.0649 13.7421 24.0644 13.9241C24.064 14.1061 24.1357 14.2808 24.2638 14.41L26.0432 16.1895C26.2346 16.3816 26.4621 16.5339 26.7126 16.6377C26.9631 16.7415 27.2317 16.7946 27.5028 16.7942Z" fill="#6C7648"></path><path d="M57.091 16.1196V13.3672C57.0902 12.8199 56.8725 12.2953 56.4855 11.9084C56.0985 11.5214 55.574 11.3037 55.0267 11.3029H46.7695C46.262 11.3078 45.7746 11.5017 45.4024 11.8467C45.0253 11.498 44.5308 11.3038 44.0171 11.3029H40.406C40.4492 11.0103 40.5403 10.7227 40.5725 10.4293C40.7153 9.12247 40.7594 7.80677 40.7044 6.49335C40.6911 6.19638 40.6158 5.90548 40.4834 5.63932C40.351 5.37317 40.1644 5.13765 39.9356 4.94788C39.7182 4.76438 39.4637 4.62982 39.1897 4.55331C38.9156 4.4768 38.6283 4.46015 38.3472 4.50447C36.8774 4.74276 35.3701 4.55555 34.0032 3.96494C32.6363 3.37434 31.4669 2.40499 30.6331 1.17132C30.4463 0.902077 30.1975 0.681689 29.9077 0.528738C29.6179 0.375788 29.2956 0.29476 28.9679 0.292486H28.9492C28.6279 0.291762 28.3111 0.367428 28.0248 0.513245C27.7385 0.659062 27.491 0.870849 27.3027 1.13114C26.2584 2.54619 24.813 3.61489 23.154 4.19868C23.0684 4.22743 22.9893 4.27279 22.9213 4.33217C22.8532 4.39155 22.7976 4.46377 22.7575 4.5447C22.7175 4.62563 22.6938 4.71368 22.6878 4.80379C22.6818 4.8939 22.6937 4.9843 22.7227 5.06981C22.7506 5.15607 22.7956 5.23586 22.8549 5.30445C22.9142 5.37303 22.9867 5.42903 23.068 5.46911C23.1493 5.5092 23.2379 5.53256 23.3284 5.53782C23.4189 5.54308 23.5095 5.53013 23.595 5.49973C25.5207 4.8276 27.1989 3.59017 28.4103 1.94915C28.4712 1.86255 28.5522 1.79192 28.6462 1.74324C28.7403 1.69456 28.8447 1.66927 28.9506 1.66951C29.1696 1.69318 29.3711 1.79997 29.5137 1.96787C30.4932 3.41076 31.8643 4.54402 33.4658 5.23443C35.0673 5.92483 36.8326 6.14368 38.5542 5.86525C38.6439 5.85241 38.7353 5.85869 38.8224 5.88369C38.9095 5.90869 38.9903 5.95184 39.0595 6.0103C39.14 6.07685 39.2055 6.1596 39.2519 6.25317C39.2982 6.34674 39.3243 6.44902 39.3284 6.55335C39.3821 7.79647 39.3408 9.04187 39.2049 10.2787C39.1407 10.8567 39.0375 11.4121 38.9354 11.9665L38.9252 11.991L38.9299 12.0017C38.0345 16.5008 36.0257 20.7037 33.0871 24.2262C32.5704 24.8386 31.9262 25.3308 31.1995 25.6684C30.4729 26.006 29.6812 26.181 28.88 26.181C28.0787 26.181 27.2871 26.006 26.5604 25.6684C25.8337 25.3308 25.1895 24.8386 24.6728 24.2262C21.7332 20.7041 19.7238 16.5011 18.8284 12.0017L18.8328 11.991L18.8226 11.9665C18.7205 11.4121 18.6173 10.8581 18.5531 10.2787C18.4172 9.04187 18.3759 7.79647 18.4295 6.55335C18.4337 6.44902 18.4598 6.34674 18.5061 6.25317C18.5525 6.1596 18.618 6.07685 18.6985 6.0103C18.7669 5.951 18.8474 5.90731 18.9345 5.88226C19.0215 5.85721 19.1129 5.85141 19.2024 5.86525C19.6707 5.93769 20.1436 5.97541 20.6174 5.9781H20.6218C20.8043 5.97865 20.9796 5.90668 21.109 5.77802C21.2384 5.64936 21.3114 5.47456 21.312 5.29207C21.3125 5.10957 21.2406 4.93433 21.1119 4.8049C20.9833 4.67547 20.8084 4.60245 20.626 4.6019C20.2183 4.59826 19.8114 4.5657 19.4083 4.50447C19.1276 4.46318 18.8414 4.48132 18.5682 4.5577C18.295 4.63409 18.0409 4.76702 17.8224 4.94788C17.5936 5.13765 17.407 5.37317 17.2746 5.63932C17.1422 5.90548 17.0669 6.19638 17.0536 6.49335C16.9986 7.80677 17.0427 9.12247 17.1855 10.4293C17.2177 10.7227 17.309 11.0103 17.352 11.3029H13.7408C13.2272 11.3038 12.7327 11.498 12.3556 11.8467C11.9834 11.5017 11.496 11.3078 10.9885 11.3029H2.73129C2.18405 11.3037 1.65945 11.5214 1.27249 11.9084C0.885538 12.2953 0.667793 12.8199 0.666992 13.3672V16.1196C0.667793 16.6668 0.885538 17.1914 1.27249 17.5783C1.65945 17.9653 2.18405 18.1831 2.73129 18.1839H6.31105C6.22486 18.4033 6.17772 18.6362 6.17177 18.872V21.6243C6.17772 21.8601 6.22486 22.0929 6.31105 22.3124H2.73129C2.18405 22.3132 1.65945 22.531 1.27249 22.9179C0.885538 23.3049 0.667793 23.8295 0.666992 24.3767V25.7529C0.666992 25.9354 0.739488 26.1104 0.868531 26.2395C0.997575 26.3685 1.1726 26.441 1.35509 26.441C1.53758 26.441 1.7126 26.3685 1.84165 26.2395C1.97069 26.1104 2.04319 25.9354 2.04319 25.7529V24.3767C2.04319 24.1942 2.11568 24.0192 2.24473 23.8902C2.37377 23.7611 2.54879 23.6886 2.73129 23.6886H10.9885C11.171 23.6886 11.346 23.7611 11.475 23.8902C11.6041 24.0192 11.6766 24.1942 11.6766 24.3767V27.1291C11.6766 27.3116 11.6041 27.4866 11.475 27.6157C11.346 27.7447 11.171 27.8172 10.9885 27.8172H2.73129C2.71807 27.8172 2.71037 27.8304 2.69743 27.8313C2.67982 27.8299 2.66715 27.8117 2.64926 27.8117C2.55873 27.7984 2.46643 27.8041 2.37818 27.8283C2.28994 27.8525 2.20767 27.8947 2.13657 27.9523C2.06547 28.0099 2.00708 28.0816 1.9651 28.1629C1.92311 28.2442 1.89844 28.3334 1.89263 28.4247C1.88294 28.5146 1.89107 28.6056 1.91657 28.6924C1.94207 28.7792 1.98444 28.8601 2.04124 28.9305C2.09804 29.0009 2.16817 29.0594 2.24762 29.1027C2.32706 29.146 2.41425 29.1731 2.50421 29.1827C2.52843 29.1854 2.70706 29.1934 2.73129 29.1934H6.31105C6.22486 29.4129 6.17772 29.6458 6.17177 29.8815V32.6339C6.17772 32.8696 6.22486 33.1025 6.31105 33.322H2.73129C2.18405 33.3228 1.65945 33.5405 1.27249 33.9275C0.885538 34.3145 0.667793 34.8391 0.666992 35.3863V38.1387C0.667793 38.6859 0.885538 39.2105 1.27249 39.5975C1.65945 39.9844 2.18405 40.2022 2.73129 40.203H6.31105C6.22486 40.4225 6.17772 40.6553 6.17177 40.8911V43.6435C6.17257 44.1907 6.39032 44.7153 6.77728 45.1023C7.16423 45.4892 7.68883 45.707 8.23607 45.7078H16.4932C17.0047 45.7032 17.4959 45.5068 17.8694 45.1573C18.243 45.5068 18.7341 45.7032 19.2456 45.7078H27.5028C28.0143 45.7032 28.5055 45.5068 28.879 45.1573C29.2525 45.5068 29.7437 45.7032 30.2552 45.7078H38.5124C39.0239 45.7032 39.515 45.5068 39.8886 45.1573C40.2621 45.5068 40.7533 45.7032 41.2648 45.7078H45.3933C45.5758 45.7078 45.7509 45.6353 45.8799 45.5062C46.0089 45.3772 46.0814 45.2022 46.0814 45.0197C46.0814 44.8372 46.0089 44.6621 45.8799 44.5331C45.7509 44.4041 45.5758 44.3316 45.3933 44.3316H41.2648C41.0823 44.3316 40.9072 44.2591 40.7782 44.13C40.6492 44.001 40.5767 43.826 40.5767 43.6435V40.8911C40.5767 40.7086 40.6492 40.5336 40.7782 40.4045C40.9072 40.2755 41.0823 40.203 41.2648 40.203H49.5219C49.7044 40.203 49.8794 40.2755 50.0085 40.4045C50.1375 40.5336 50.21 40.7086 50.21 40.8911V43.6435C50.21 43.826 50.1375 44.001 50.0085 44.13C49.8794 44.2591 49.7044 44.3316 49.5219 44.3316H48.1457C47.9632 44.3316 47.7882 44.4041 47.6592 44.5331C47.5301 44.6621 47.4576 44.8372 47.4576 45.0197C47.4576 45.2022 47.5301 45.3772 47.6592 45.5062C47.7882 45.6353 47.9632 45.7078 48.1457 45.7078H49.5219C50.0692 45.707 50.5938 45.4892 50.9807 45.1023C51.3677 44.7153 51.5854 44.1907 51.5862 43.6435V40.8911C51.5803 40.6553 51.5331 40.4225 51.447 40.203H55.0267C55.574 40.2022 56.0985 39.9844 56.4855 39.5975C56.8725 39.2105 57.0902 38.6859 57.091 38.1387V35.3863C57.0902 34.8391 56.8725 34.3145 56.4855 33.9275C56.0985 33.5405 55.574 33.3228 55.0267 33.322H51.447C51.5331 33.1025 51.5803 32.8696 51.5862 32.6339V29.8815C51.5803 29.6458 51.5331 29.4129 51.447 29.1934H55.0267C55.574 29.1926 56.0985 28.9749 56.4855 28.5879C56.8725 28.201 57.0902 27.6764 57.091 27.1291V24.3767C57.0902 23.8295 56.8725 23.3049 56.4855 22.9179C56.0985 22.531 55.574 22.3132 55.0267 22.3124H51.447C51.5331 22.0929 51.5803 21.8601 51.5862 21.6243V18.872C51.5803 18.6362 51.5331 18.4033 51.447 18.1839H55.0267C55.574 18.1831 56.0985 17.9653 56.4855 17.5783C56.8725 17.1914 57.0902 16.6668 57.091 16.1196ZM46.7695 12.6791H55.0267C55.2092 12.6791 55.3842 12.7516 55.5133 12.8806C55.6423 13.0097 55.7148 13.1847 55.7148 13.3672V16.1196C55.7148 16.3021 55.6423 16.4771 55.5133 16.6061C55.3842 16.7352 55.2092 16.8077 55.0267 16.8077H46.7695C46.587 16.8077 46.412 16.7352 46.283 16.6061C46.1539 16.4771 46.0814 16.3021 46.0814 16.1196V13.3672C46.0814 13.1847 46.1539 13.0097 46.283 12.8806C46.412 12.7516 46.587 12.6791 46.7695 12.6791ZM44.0171 12.6791C44.1081 12.677 44.1985 12.6933 44.2829 12.7272C44.3674 12.761 44.4441 12.8116 44.5084 12.8759C44.5727 12.9402 44.6233 13.0169 44.6572 13.1014C44.691 13.1858 44.7074 13.2762 44.7052 13.3672V16.1196C44.7074 16.2105 44.691 16.3009 44.6572 16.3854C44.6233 16.4698 44.5727 16.5465 44.5084 16.6108C44.4441 16.6751 44.3674 16.7257 44.2829 16.7596C44.1985 16.7934 44.1081 16.8098 44.0171 16.8077H38.9464C39.4574 15.4664 39.8579 14.0856 40.1437 12.6791H44.0171ZM44.7052 24.3767V27.1291C44.7052 27.3116 44.6328 27.4866 44.5037 27.6157C44.3747 27.7447 44.1996 27.8172 44.0171 27.8172H35.76C35.5775 27.8172 35.4025 27.7447 35.2734 27.6157C35.1444 27.4866 35.0719 27.3116 35.0719 27.1291V24.3767C35.0719 24.1942 35.1444 24.0192 35.2734 23.8902C35.4025 23.7611 35.5775 23.6886 35.76 23.6886H44.0171C44.1996 23.6886 44.3747 23.7611 44.5037 23.8902C44.6328 24.0192 44.7052 24.1942 44.7052 24.3767ZM39.2005 32.6339C39.2005 32.8164 39.128 32.9914 38.9989 33.1205C38.8699 33.2495 38.6949 33.322 38.5124 33.322H30.2552C30.0727 33.322 29.8977 33.2495 29.7686 33.1205C29.6396 32.9914 29.5671 32.8164 29.5671 32.6339V29.8815C29.5671 29.699 29.6396 29.524 29.7686 29.395C29.8977 29.2659 30.0727 29.1934 30.2552 29.1934H38.5124C38.6949 29.1934 38.8699 29.2659 38.9989 29.395C39.128 29.524 39.2005 29.699 39.2005 29.8815V32.6339ZM33.6957 38.1387C33.6957 38.3212 33.6232 38.4962 33.4941 38.6252C33.3651 38.7543 33.1901 38.8268 33.0076 38.8268H24.7504C24.5679 38.8268 24.3929 38.7543 24.2639 38.6252C24.1348 38.4962 24.0623 38.3212 24.0623 38.1387V35.3863C24.0623 35.2038 24.1348 35.0288 24.2639 34.8997C24.3929 34.7707 24.5679 34.6982 24.7504 34.6982H33.0076C33.1901 34.6982 33.3651 34.7707 33.4941 34.8997C33.6232 35.0288 33.6957 35.2038 33.6957 35.3863V38.1387ZM13.7408 38.8268C13.5584 38.8268 13.3833 38.7543 13.2543 38.6252C13.1252 38.4962 13.0528 38.3212 13.0528 38.1387V35.3863C13.0528 35.2038 13.1252 35.0288 13.2543 34.8997C13.3833 34.7707 13.5584 34.6982 13.7408 34.6982H21.998C22.1805 34.6982 22.3555 34.7707 22.4846 34.8997C22.6136 35.0288 22.6861 35.2038 22.6861 35.3863V38.1387C22.6861 38.3212 22.6136 38.4962 22.4846 38.6252C22.3555 38.7543 22.1805 38.8268 21.998 38.8268H13.7408ZM13.0528 27.1291V24.3767C13.0528 24.1942 13.1252 24.0192 13.2543 23.8902C13.3833 23.7611 13.5584 23.6886 13.7408 23.6886H21.998C22.1805 23.6886 22.3555 23.7611 22.4846 23.8902C22.6136 24.0192 22.6861 24.1942 22.6861 24.3767V27.1291C22.6861 27.3116 22.6136 27.4866 22.4846 27.6157C22.3555 27.7447 22.1805 27.8172 21.998 27.8172H13.7408C13.5584 27.8172 13.3833 27.7447 13.2543 27.6157C13.1252 27.4866 13.0528 27.3116 13.0528 27.1291ZM18.5575 18.872C18.5554 18.781 18.5718 18.6906 18.6056 18.6062C18.6394 18.5217 18.6901 18.445 18.7544 18.3807C18.8187 18.3164 18.8954 18.2658 18.9798 18.2319C19.0643 18.1981 19.1547 18.1817 19.2456 18.1839H19.3205C19.9724 19.6192 20.7385 20.9998 21.6116 22.3124H19.2456C19.1547 22.3145 19.0643 22.2982 18.9798 22.2644C18.8954 22.2305 18.8187 22.1799 18.7544 22.1156C18.6901 22.0513 18.6394 21.9746 18.6056 21.8901C18.5718 21.8057 18.5554 21.7153 18.5575 21.6243V18.872ZM18.5575 29.8815C18.5575 29.699 18.63 29.524 18.7591 29.395C18.8881 29.2659 19.0631 29.1934 19.2456 29.1934H27.5028C27.6853 29.1934 27.8603 29.2659 27.9894 29.395C28.1184 29.524 28.1909 29.699 28.1909 29.8815V32.6339C28.1909 32.8164 28.1184 32.9914 27.9894 33.1205C27.8603 33.2495 27.6853 33.322 27.5028 33.322H19.2456C19.0631 33.322 18.8881 33.2495 18.7591 33.1205C18.63 32.9914 18.5575 32.8164 18.5575 32.6339V29.8815ZM39.2005 21.6243C39.2026 21.7153 39.1862 21.8057 39.1524 21.8901C39.1185 21.9746 39.0679 22.0513 39.0036 22.1156C38.9393 22.1799 38.8626 22.2305 38.7782 22.2644C38.6937 22.2982 38.6033 22.3145 38.5124 22.3124H36.1472C37.02 20.9998 37.7859 19.6192 38.4375 18.1839H38.5124C38.6033 18.1817 38.6937 18.1981 38.7782 18.2319C38.8626 18.2658 38.9393 18.3164 39.0036 18.3807C39.0679 18.445 39.1185 18.5217 39.1524 18.6062C39.1862 18.6906 39.2026 18.781 39.2005 18.872V21.6243ZM28.879 27.5566C29.7751 27.556 30.6623 27.3777 31.489 27.032C32.3158 26.6863 33.0658 26.1801 33.6957 25.5426V27.1291C33.6978 27.2201 33.6814 27.3105 33.6476 27.3949C33.6138 27.4794 33.5632 27.5561 33.4988 27.6204C33.4345 27.6847 33.3578 27.7353 33.2734 27.7691C33.1889 27.803 33.0985 27.8193 33.0076 27.8172H24.7504C24.6595 27.8193 24.5691 27.803 24.4846 27.7691C24.4002 27.7353 24.3235 27.6847 24.2592 27.6204C24.1948 27.5561 24.1442 27.4794 24.1104 27.3949C24.0766 27.3105 24.0602 27.2201 24.0623 27.1291V25.5415C24.692 26.1793 25.4419 26.6858 26.2687 27.0317C27.0955 27.3776 27.9828 27.556 28.879 27.5566ZM13.7408 12.6791H17.6143C17.9003 14.0856 18.3007 15.4664 18.8116 16.8077H13.7408C13.6499 16.8098 13.5595 16.7934 13.475 16.7596C13.3906 16.7257 13.3139 16.6751 13.2496 16.6108C13.1853 16.5465 13.1347 16.4698 13.1008 16.3854C13.067 16.3009 13.0506 16.2105 13.0528 16.1196V13.3672C13.0506 13.2762 13.067 13.1858 13.1008 13.1014C13.1347 13.0169 13.1853 12.9402 13.2496 12.8759C13.3139 12.8116 13.3906 12.761 13.475 12.7272C13.5595 12.6933 13.6499 12.677 13.7408 12.6791ZM2.04319 16.1196V13.3672C2.04319 13.1847 2.11568 13.0097 2.24473 12.8806C2.37377 12.7516 2.54879 12.6791 2.73129 12.6791H10.9885C11.171 12.6791 11.346 12.7516 11.475 12.8806C11.6041 13.0097 11.6766 13.1847 11.6766 13.3672V16.1196C11.6766 16.3021 11.6041 16.4771 11.475 16.6061C11.346 16.7352 11.171 16.8077 10.9885 16.8077H2.73129C2.54879 16.8077 2.37377 16.7352 2.24473 16.6061C2.11568 16.4771 2.04319 16.3021 2.04319 16.1196ZM8.23607 22.3124C8.05357 22.3124 7.87855 22.2399 7.74951 22.1109C7.62046 21.9819 7.54797 21.8068 7.54797 21.6243V18.872C7.54797 18.6895 7.62046 18.5144 7.74951 18.3854C7.87855 18.2563 8.05357 18.1839 8.23607 18.1839H16.4932C16.6757 18.1839 16.8508 18.2563 16.9798 18.3854C17.1088 18.5144 17.1813 18.6895 17.1813 18.872V21.6243C17.1813 21.8068 17.1088 21.9819 16.9798 22.1109C16.8508 22.2399 16.6757 22.3124 16.4932 22.3124H8.23607ZM7.54797 32.6339V29.8815C7.54797 29.699 7.62046 29.524 7.74951 29.395C7.87855 29.2659 8.05357 29.1934 8.23607 29.1934H16.4932C16.6757 29.1934 16.8508 29.2659 16.9798 29.395C17.1088 29.524 17.1813 29.699 17.1813 29.8815V32.6339C17.1813 32.8164 17.1088 32.9914 16.9798 33.1205C16.8508 33.2495 16.6757 33.322 16.4932 33.322H8.23607C8.05357 33.322 7.87855 33.2495 7.74951 33.1205C7.62046 32.9914 7.54797 32.8164 7.54797 32.6339ZM2.04319 38.1387V35.3863C2.04319 35.2038 2.11568 35.0288 2.24473 34.8997C2.37377 34.7707 2.54879 34.6982 2.73129 34.6982H10.9885C11.171 34.6982 11.346 34.7707 11.475 34.8997C11.6041 35.0288 11.6766 35.2038 11.6766 35.3863V38.1387C11.6766 38.3212 11.6041 38.4962 11.475 38.6252C11.346 38.7543 11.171 38.8268 10.9885 38.8268H2.73129C2.54879 38.8268 2.37377 38.7543 2.24473 38.6252C2.11568 38.4962 2.04319 38.3212 2.04319 38.1387ZM16.4932 44.3316H8.23607C8.05357 44.3316 7.87855 44.2591 7.74951 44.13C7.62046 44.001 7.54797 43.826 7.54797 43.6435V40.8911C7.54797 40.7086 7.62046 40.5336 7.74951 40.4045C7.87855 40.2755 8.05357 40.203 8.23607 40.203H16.4932C16.6757 40.203 16.8508 40.2755 16.9798 40.4045C17.1088 40.5336 17.1813 40.7086 17.1813 40.8911V43.6435C17.1813 43.826 17.1088 44.001 16.9798 44.13C16.8508 44.2591 16.6757 44.3316 16.4932 44.3316ZM27.5028 44.3316H19.2456C19.0631 44.3316 18.8881 44.2591 18.7591 44.13C18.63 44.001 18.5575 43.826 18.5575 43.6435V40.8911C18.5575 40.7086 18.63 40.5336 18.7591 40.4045C18.8881 40.2755 19.0631 40.203 19.2456 40.203H27.5028C27.6853 40.203 27.8603 40.2755 27.9894 40.4045C28.1184 40.5336 28.1909 40.7086 28.1909 40.8911V43.6435C28.1909 43.826 28.1184 44.001 27.9894 44.13C27.8603 44.2591 27.6853 44.3316 27.5028 44.3316ZM38.5124 44.3316H30.2552C30.0727 44.3316 29.8977 44.2591 29.7686 44.13C29.6396 44.001 29.5671 43.826 29.5671 43.6435V40.8911C29.5671 40.7086 29.6396 40.5336 29.7686 40.4045C29.8977 40.2755 30.0727 40.203 30.2552 40.203H38.5124C38.6949 40.203 38.8699 40.2755 38.9989 40.4045C39.128 40.5336 39.2005 40.7086 39.2005 40.8911V43.6435C39.2005 43.826 39.128 44.001 38.9989 44.13C38.8699 44.2591 38.6949 44.3316 38.5124 44.3316ZM35.76 38.8268C35.5775 38.8268 35.4025 38.7543 35.2734 38.6252C35.1444 38.4962 35.0719 38.3212 35.0719 38.1387V35.3863C35.0719 35.2038 35.1444 35.0288 35.2734 34.8997C35.4025 34.7707 35.5775 34.6982 35.76 34.6982H44.0171C44.1996 34.6982 44.3747 34.7707 44.5037 34.8997C44.6328 35.0288 44.7052 35.2038 44.7052 35.3863V38.1387C44.7052 38.3212 44.6328 38.4962 44.5037 38.6252C44.3747 38.7543 44.1996 38.8268 44.0171 38.8268H35.76ZM55.7148 35.3863V38.1387C55.7148 38.3212 55.6423 38.4962 55.5133 38.6252C55.3842 38.7543 55.2092 38.8268 55.0267 38.8268H46.7695C46.587 38.8268 46.412 38.7543 46.283 38.6252C46.1539 38.4962 46.0814 38.3212 46.0814 38.1387V35.3863C46.0814 35.2038 46.1539 35.0288 46.283 34.8997C46.412 34.7707 46.587 34.6982 46.7695 34.6982H55.0267C55.2092 34.6982 55.3842 34.7707 55.5133 34.8997C55.6423 35.0288 55.7148 35.2038 55.7148 35.3863ZM50.21 29.8815V32.6339C50.21 32.8164 50.1375 32.9914 50.0085 33.1205C49.8794 33.2495 49.7044 33.322 49.5219 33.322H41.2648C41.0823 33.322 40.9072 33.2495 40.7782 33.1205C40.6492 32.9914 40.5767 32.8164 40.5767 32.6339V29.8815C40.5767 29.699 40.6492 29.524 40.7782 29.395C40.9072 29.2659 41.0823 29.1934 41.2648 29.1934H49.5219C49.7044 29.1934 49.8794 29.2659 50.0085 29.395C50.1375 29.524 50.21 29.699 50.21 29.8815ZM55.7148 24.3767V27.1291C55.7148 27.3116 55.6423 27.4866 55.5133 27.6157C55.3842 27.7447 55.2092 27.8172 55.0267 27.8172H46.7695C46.587 27.8172 46.412 27.7447 46.283 27.6157C46.1539 27.4866 46.0814 27.3116 46.0814 27.1291V24.3767C46.0814 24.1942 46.1539 24.0192 46.283 23.8902C46.412 23.7611 46.587 23.6886 46.7695 23.6886H55.0267C55.2092 23.6886 55.3842 23.7611 55.5133 23.8902C55.6423 24.0192 55.7148 24.1942 55.7148 24.3767ZM50.21 18.872V21.6243C50.21 21.8068 50.1375 21.9819 50.0085 22.1109C49.8794 22.2399 49.7044 22.3124 49.5219 22.3124H41.2648C41.0823 22.3124 40.9072 22.2399 40.7782 22.1109C40.6492 21.9819 40.5767 21.8068 40.5767 21.6243V18.872C40.5767 18.6895 40.6492 18.5144 40.7782 18.3854C40.9072 18.2563 41.0823 18.1839 41.2648 18.1839H49.5219C49.7044 18.1839 49.8794 18.2563 50.0085 18.3854C50.1375 18.5144 50.21 18.6895 50.21 18.872Z" stroke="#6C7648" stroke-width="0.4"></path><path d="M27.5028 16.7942C27.7739 16.7944 28.0423 16.7411 28.2927 16.6371C28.543 16.5332 28.7704 16.3808 28.9616 16.1886L33.4934 11.6568C33.5577 11.593 33.6088 11.5171 33.6438 11.4335C33.6787 11.3499 33.6968 11.2602 33.697 11.1696C33.6972 11.079 33.6795 10.9893 33.6449 10.9055C33.6103 10.8217 33.5595 10.7457 33.4954 10.6816C33.4313 10.6175 33.3552 10.5667 33.2714 10.5322C33.1877 10.4976 33.0979 10.4799 33.0073 10.4801C32.9167 10.4803 32.827 10.4984 32.7434 10.5334C32.6598 10.5684 32.5839 10.6195 32.5201 10.6839L27.9894 15.2165C27.9255 15.2804 27.8497 15.3311 27.7662 15.3657C27.6827 15.4003 27.5932 15.4181 27.5028 15.4181C27.4124 15.4181 27.3229 15.4003 27.2394 15.3657C27.1559 15.3311 27.0801 15.2804 27.0162 15.2165L25.237 13.4371C25.1078 13.309 24.9331 13.2372 24.7511 13.2376C24.5692 13.238 24.3947 13.3104 24.2661 13.4391C24.1374 13.5677 24.0649 13.7421 24.0644 13.9241C24.064 14.1061 24.1357 14.2808 24.2638 14.41L26.0432 16.1895C26.2346 16.3816 26.4621 16.5339 26.7126 16.6377C26.9631 16.7415 27.2317 16.7946 27.5028 16.7942Z" stroke="#6C7648" stroke-width="0.4"></path></svg>