<svg xmlns="http://www.w3.org/2000/svg" width="243" height="250" viewBox="0 0 243 250" fill="none"><g clip-path="url(#clip0_1744_2795)"><rect width="243" height="250" fill="#6C7648"></rect><g style="mix-blend-mode:luminosity" opacity="0.06"><path d="M319.997 204.971H285.559V204.974L302.776 227.114H302.779L320 204.974L319.997 204.971Z" fill="#3B5276"></path><path d="M136.281 173.773L165.918 211.882H165.925L195.558 173.773L195.555 173.77H136.284L136.281 173.773Z" fill="#3B5276"></path><path d="M225.199 211.882L195.562 173.773L165.928 211.882H225.199Z" fill="url(#paint0_linear_1744_2795)" style="mix-blend-mode:multiply"></path><path d="M195.555 249.993H195.562H254.823L225.192 211.892L225.189 211.885L195.555 249.993Z" fill="#D0D9E0"></path><path d="M136.281 21.3201L106.644 59.4318H165.918L136.281 21.3201Z" fill="#333940"></path><path d="M195.552 249.993L195.555 249.993L165.921 211.885L136.284 249.993L195.545 249.993H195.552Z" fill="#333940"></path><path d="M165.918 59.4318L165.921 59.4318L195.558 21.3202L195.555 21.3169H136.284L136.281 21.3201L165.918 59.4318Z" fill="#FFCA61"></path><path d="M225.202 211.882H284.47L254.836 173.773L225.202 211.882Z" fill="#FFCA61"></path><path d="M254.836 173.773L254.832 173.77L225.199 135.662L195.561 173.77L195.555 173.77L195.558 173.773L225.195 211.882L165.925 211.882H165.918L136.281 173.773L106.647 211.882H106.64L106.644 211.885L77.0064 249.993H136.277L136.281 250L136.284 249.993L165.921 211.885L195.555 249.993L225.189 211.885L225.192 211.892L225.199 211.885L225.202 211.882L254.836 173.773Z" fill="#E94B64"></path><path d="M195.555 173.77L195.561 173.77L225.199 135.659L225.196 135.655H165.925L165.921 135.659L195.555 173.77Z" fill="#D0D9E0"></path><path d="M195.562 249.993H195.555L195.559 250L195.562 249.993Z" fill="#3B5276"></path><path d="M136.278 173.77L136.281 173.773L136.284 173.77H136.278Z" fill="#3B5276"></path><path d="M77.0033 250L77.0064 249.993L77 249.993L77.0033 250Z" fill="#0D2333"></path><path d="M211.225 12.795L195.053 -8L178.882 12.795H211.225Z" fill="#3B5276"></path><path d="M195.562 21.3169H195.555L195.558 21.3202L195.562 21.3169Z" fill="#3B5276"></path><path d="M106.644 59.4318L106.64 59.4317L106.644 59.435L106.644 59.4318Z" fill="#3B5276"></path><path d="M254.839 249.993H254.832L254.836 250L254.839 249.993Z" fill="#3B5276"></path><path d="M284.476 211.885L284.479 211.882L284.47 211.882L284.476 211.885Z" fill="#3B5276"></path><path d="M136.284 21.3169H136.278L136.281 21.3201L136.284 21.3169Z" fill="#3B5276"></path><path d="M225.199 135.655H225.196L225.199 135.659L225.199 135.655Z" fill="#3B5276"></path><path d="M195.555 97.5434H136.278L136.281 97.5467L165.918 135.655L165.921 135.659L165.925 135.655L195.558 97.5467L195.562 97.5434H195.555Z" fill="#E94B64"></path><path d="M165.921 59.435L165.921 59.4318L165.918 59.4318L165.921 59.435Z" fill="#3B5276"></path><path d="M165.921 59.435L165.918 59.4318H106.644L106.644 59.435L136.274 97.5368L165.908 59.4317L195.542 97.5401H136.277L136.278 97.5434H195.555L165.921 59.435Z" fill="#E94B64"></path><path d="M165.908 59.4317L136.275 97.5368L136.271 97.5401H195.542L165.908 59.4317Z" fill="#333940"></path><path d="M136.271 249.997H136.278L165.908 211.895L165.902 211.888L165.905 211.885H106.637L106.634 211.888L136.271 249.997Z" fill="url(#paint1_linear_1744_2795)"></path><path d="M254.823 173.767L225.189 135.659L195.555 173.767H254.823Z" fill="url(#paint2_linear_1744_2795)" style="mix-blend-mode:multiply"></path><path d="M254.836 173.77H195.565L225.202 211.879L254.836 173.77Z" fill="url(#paint3_linear_1744_2795)"></path><path d="M204.678 93.3351L186.89 116.211H222.47L204.678 93.3351Z" fill="#FFCA61"></path><path d="M165.908 211.882H225.202L218.84 220.065H172.088L165.908 211.882Z" fill="url(#paint4_linear_1744_2795)" style="mix-blend-mode:multiply"></path></g></g><defs><linearGradient id="paint0_linear_1744_2795" x1="38.554" y1="4.04193" x2="358.727" y2="143.476" gradientUnits="userSpaceOnUse"><stop offset="0.37" stop-color="#393F46"></stop><stop offset="0.4" stop-color="#62676C"></stop><stop offset="0.43" stop-color="#888B90"></stop><stop offset="0.47" stop-color="#A8ABAE"></stop><stop offset="0.51" stop-color="#C4C5C7"></stop><stop offset="0.55" stop-color="#DADBDC"></stop><stop offset="0.6" stop-color="#EBEBEC"></stop><stop offset="0.67" stop-color="#F6F7F7"></stop><stop offset="0.75" stop-color="#FDFDFD"></stop><stop offset="1" stop-color="white"></stop></linearGradient><linearGradient id="paint1_linear_1744_2795" x1="198.5" y1="-8" x2="198.5" y2="250" gradientUnits="userSpaceOnUse"><stop stop-color="#3B5276"></stop><stop offset="0.02" stop-color="#4E5174"></stop><stop offset="0.07" stop-color="#725070"></stop><stop offset="0.13" stop-color="#924E6D"></stop><stop offset="0.19" stop-color="#AE4D6A"></stop><stop offset="0.27" stop-color="#C44D68"></stop><stop offset="0.35" stop-color="#D54C66"></stop><stop offset="0.45" stop-color="#E04B65"></stop><stop offset="0.6" stop-color="#E74B64"></stop><stop offset="1" stop-color="#E94B64"></stop></linearGradient><linearGradient id="paint2_linear_1744_2795" x1="38.5383" y1="4.04193" x2="358.724" y2="143.489" gradientUnits="userSpaceOnUse"><stop offset="0.37" stop-color="#3B5276"></stop><stop offset="0.4" stop-color="#647692"></stop><stop offset="0.43" stop-color="#8896AC"></stop><stop offset="0.47" stop-color="#A8B3C2"></stop><stop offset="0.51" stop-color="#C4CBD5"></stop><stop offset="0.55" stop-color="#DADEE5"></stop><stop offset="0.6" stop-color="#EBEDF1"></stop><stop offset="0.66" stop-color="#F6F7F9"></stop><stop offset="0.75" stop-color="#FDFDFE"></stop><stop offset="1" stop-color="white"></stop></linearGradient><linearGradient id="paint3_linear_1744_2795" x1="77" y1="120.989" x2="320" y2="120.989" gradientUnits="userSpaceOnUse"><stop offset="0.03" stop-color="#3B5276"></stop><stop offset="0.1" stop-color="#394B66"></stop><stop offset="0.21" stop-color="#364355"></stop><stop offset="0.35" stop-color="#343D49"></stop><stop offset="0.53" stop-color="#333A42"></stop><stop offset="1" stop-color="#333940"></stop></linearGradient><linearGradient id="paint4_linear_1744_2795" x1="195.555" y1="222.301" x2="195.555" y2="211.07" gradientUnits="userSpaceOnUse"><stop stop-color="white"></stop><stop offset="1" stop-color="#231F20"></stop></linearGradient><clipPath id="clip0_1744_2795"><rect width="243" height="250" fill="white"></rect></clipPath></defs></svg>