<svg xmlns="http://www.w3.org/2000/svg" width="234" height="120" viewBox="0 0 234 120" fill="none"><path d="M0 0H205.347L231.942 55.6907C233.244 58.4161 233.244 61.5839 231.942 64.3093L205.347 120H0L26.5951 64.3093C27.8967 61.5839 27.8967 58.4161 26.5951 55.6907L0 0Z" fill="#ADCA2F"></path><path d="M106.27 45.5L105.28 43.04L111.4 36.35C111.74 35.97 112.11 35.54 112.51 35.06C112.91 34.58 113.3 34.09 113.68 33.59C114.06 33.07 114.36 32.57 114.58 32.09C114.82 31.61 114.94 31.17 114.94 30.77C114.94 30.37 114.85 30.02 114.67 29.72C114.49 29.42 114.23 29.19 113.89 29.03C113.55 28.85 113.12 28.76 112.6 28.76C112.14 28.76 111.7 28.88 111.28 29.12C110.86 29.34 110.46 29.69 110.08 30.17C109.72 30.65 109.38 31.24 109.06 31.94L105.28 29.9C105.7 28.74 106.29 27.72 107.05 26.84C107.83 25.94 108.74 25.25 109.78 24.77C110.82 24.27 111.93 24.02 113.11 24.02C114.35 24.04 115.47 24.31 116.47 24.83C117.47 25.33 118.26 26.04 118.84 26.96C119.44 27.86 119.74 28.92 119.74 30.14C119.74 30.56 119.69 31 119.59 31.46C119.49 31.92 119.34 32.4 119.14 32.9C118.94 33.38 118.67 33.9 118.33 34.46C118.01 35 117.62 35.57 117.16 36.17C116.7 36.77 116.16 37.41 115.54 38.09L110.77 43.28L110.17 41H120.67V45.5H106.27ZM124.776 45.83C123.956 45.83 123.316 45.6 122.856 45.14C122.416 44.68 122.196 44.02 122.196 43.16C122.196 42.36 122.436 41.71 122.916 41.21C123.396 40.71 124.016 40.46 124.776 40.46C125.596 40.46 126.236 40.7 126.696 41.18C127.156 41.64 127.386 42.3 127.386 43.16C127.386 43.94 127.146 44.58 126.666 45.08C126.186 45.58 125.556 45.83 124.776 45.83Z" fill="#FBFDFA"></path><path d="M60.8 75.5V64.5H56.64V61.5H68.46V64.5H64.2V75.5H60.8ZM72.4533 75.68C71.5599 75.68 70.7599 75.4467 70.0533 74.98C69.3599 74.5 68.8066 73.8467 68.3933 73.02C67.9799 72.18 67.7733 71.2333 67.7733 70.18C67.7733 69.1 67.9799 68.1467 68.3933 67.32C68.8066 66.4933 69.3733 65.8467 70.0933 65.38C70.8133 64.9 71.6333 64.66 72.5533 64.66C73.0599 64.66 73.5199 64.7333 73.9333 64.88C74.3599 65.0267 74.7333 65.2333 75.0533 65.5C75.3733 65.7533 75.6466 66.0533 75.8733 66.4C76.0999 66.7333 76.2666 67.0933 76.3733 67.48L75.7133 67.4V64.88H78.8933V75.5H75.6533V72.94L76.3733 72.92C76.2666 73.2933 76.0933 73.6467 75.8533 73.98C75.6133 74.3133 75.3199 74.6067 74.9733 74.86C74.6266 75.1133 74.2399 75.3133 73.8133 75.46C73.3866 75.6067 72.9333 75.68 72.4533 75.68ZM73.3333 72.98C73.8266 72.98 74.2533 72.8667 74.6133 72.64C74.9733 72.4133 75.2533 72.0933 75.4533 71.68C75.6533 71.2533 75.7533 70.7533 75.7533 70.18C75.7533 69.6067 75.6533 69.1133 75.4533 68.7C75.2533 68.2733 74.9733 67.9467 74.6133 67.72C74.2533 67.48 73.8266 67.36 73.3333 67.36C72.8533 67.36 72.4333 67.48 72.0733 67.72C71.7266 67.9467 71.4533 68.2733 71.2533 68.7C71.0533 69.1133 70.9533 69.6067 70.9533 70.18C70.9533 70.7533 71.0533 71.2533 71.2533 71.68C71.4533 72.0933 71.7266 72.4133 72.0733 72.64C72.4333 72.8667 72.8533 72.98 73.3333 72.98ZM81.7169 75.5V64.88H84.7569L84.8969 68.34L84.2969 67.68C84.4569 67.1067 84.7169 66.5933 85.0769 66.14C85.4502 65.6867 85.8835 65.3267 86.3769 65.06C86.8702 64.7933 87.3969 64.66 87.9569 64.66C88.1969 64.66 88.4169 64.68 88.6169 64.72C88.8302 64.76 89.0235 64.8067 89.1969 64.86L88.3169 68.4C88.1702 68.3067 87.9702 68.2333 87.7169 68.18C87.4769 68.1133 87.2235 68.08 86.9569 68.08C86.6635 68.08 86.3902 68.1333 86.1369 68.24C85.8835 68.3333 85.6702 68.4733 85.4969 68.66C85.3235 68.8467 85.1835 69.0667 85.0769 69.32C84.9835 69.5733 84.9369 69.86 84.9369 70.18V75.5H81.7169ZM95.3855 80.1C94.5188 80.1 93.6521 79.9733 92.7855 79.72C91.9321 79.4667 91.2388 79.14 90.7055 78.74L91.8255 76.5C92.1055 76.6867 92.4121 76.8467 92.7455 76.98C93.0921 77.1267 93.4521 77.24 93.8255 77.32C94.1988 77.4 94.5788 77.44 94.9655 77.44C95.6455 77.44 96.1988 77.34 96.6255 77.14C97.0521 76.94 97.3721 76.6333 97.5855 76.22C97.7988 75.82 97.9055 75.3133 97.9055 74.7V72.92L98.5255 73.02C98.4321 73.46 98.1988 73.86 97.8255 74.22C97.4655 74.58 97.0188 74.8733 96.4855 75.1C95.9521 75.3133 95.3855 75.42 94.7855 75.42C93.8255 75.42 92.9655 75.2 92.2055 74.76C91.4588 74.3067 90.8655 73.6867 90.4255 72.9C89.9988 72.1 89.7855 71.18 89.7855 70.14C89.7855 69.0733 89.9988 68.1333 90.4255 67.32C90.8521 66.4933 91.4388 65.8467 92.1855 65.38C92.9321 64.9 93.7721 64.66 94.7055 64.66C95.1055 64.66 95.4855 64.7067 95.8455 64.8C96.2188 64.8933 96.5588 65.02 96.8655 65.18C97.1855 65.3267 97.4655 65.5067 97.7055 65.72C97.9588 65.92 98.1588 66.14 98.3055 66.38C98.4655 66.62 98.5721 66.8667 98.6255 67.12L97.9655 67.28L98.0855 64.88H101.125V74.64C101.125 75.5067 100.992 76.2733 100.725 76.94C100.472 77.62 100.092 78.1933 99.5855 78.66C99.0921 79.14 98.4921 79.5 97.7855 79.74C97.0788 79.98 96.2788 80.1 95.3855 80.1ZM95.4655 72.94C95.9855 72.94 96.4321 72.8267 96.8055 72.6C97.1921 72.36 97.4855 72.0333 97.6855 71.62C97.8988 71.2067 98.0055 70.72 98.0055 70.16C98.0055 69.6 97.8988 69.1133 97.6855 68.7C97.4855 68.2733 97.1921 67.9467 96.8055 67.72C96.4321 67.48 95.9855 67.36 95.4655 67.36C94.9588 67.36 94.5188 67.48 94.1455 67.72C93.7721 67.9467 93.4788 68.2733 93.2655 68.7C93.0655 69.1133 92.9655 69.6 92.9655 70.16C92.9655 70.72 93.0655 71.2067 93.2655 71.62C93.4788 72.0333 93.7721 72.36 94.1455 72.6C94.5188 72.8267 94.9588 72.94 95.4655 72.94ZM108.964 75.7C107.791 75.7 106.771 75.4667 105.904 75C105.038 74.52 104.364 73.8733 103.884 73.06C103.404 72.2333 103.164 71.2933 103.164 70.24C103.164 69.4267 103.298 68.68 103.564 68C103.831 67.32 104.204 66.7333 104.684 66.24C105.164 65.7333 105.731 65.3467 106.384 65.08C107.051 64.8 107.778 64.66 108.564 64.66C109.311 64.66 109.991 64.7933 110.604 65.06C111.231 65.3267 111.771 65.7 112.224 66.18C112.678 66.66 113.024 67.2267 113.264 67.88C113.504 68.5333 113.611 69.2467 113.584 70.02L113.564 70.88H105.104L104.644 69.08H110.964L110.624 69.46V69.06C110.598 68.7267 110.491 68.4333 110.304 68.18C110.131 67.9133 109.898 67.7067 109.604 67.56C109.311 67.4133 108.978 67.34 108.604 67.34C108.084 67.34 107.638 67.4467 107.264 67.66C106.904 67.86 106.631 68.16 106.444 68.56C106.258 68.9467 106.164 69.4267 106.164 70C106.164 70.5867 106.284 71.1 106.524 71.54C106.778 71.9667 107.138 72.3 107.604 72.54C108.084 72.78 108.651 72.9 109.304 72.9C109.758 72.9 110.158 72.8333 110.504 72.7C110.864 72.5667 111.251 72.34 111.664 72.02L113.164 74.14C112.751 74.5 112.311 74.7933 111.844 75.02C111.378 75.2467 110.898 75.4133 110.404 75.52C109.924 75.64 109.444 75.7 108.964 75.7ZM116.503 75.5V62.2H119.703V75.5H116.503ZM114.623 67.68V64.88H121.763V67.68H114.623ZM128.554 75.7C127.381 75.7 126.361 75.4667 125.494 75C124.628 74.52 123.954 73.8733 123.474 73.06C122.994 72.2333 122.754 71.2933 122.754 70.24C122.754 69.4267 122.888 68.68 123.154 68C123.421 67.32 123.794 66.7333 124.274 66.24C124.754 65.7333 125.321 65.3467 125.974 65.08C126.641 64.8 127.368 64.66 128.154 64.66C128.901 64.66 129.581 64.7933 130.194 65.06C130.821 65.3267 131.361 65.7 131.814 66.18C132.268 66.66 132.614 67.2267 132.854 67.88C133.094 68.5333 133.201 69.2467 133.174 70.02L133.154 70.88H124.694L124.234 69.08H130.554L130.214 69.46V69.06C130.188 68.7267 130.081 68.4333 129.894 68.18C129.721 67.9133 129.488 67.7067 129.194 67.56C128.901 67.4133 128.568 67.34 128.194 67.34C127.674 67.34 127.228 67.4467 126.854 67.66C126.494 67.86 126.221 68.16 126.034 68.56C125.848 68.9467 125.754 69.4267 125.754 70C125.754 70.5867 125.874 71.1 126.114 71.54C126.368 71.9667 126.728 72.3 127.194 72.54C127.674 72.78 128.241 72.9 128.894 72.9C129.348 72.9 129.748 72.8333 130.094 72.7C130.454 72.5667 130.841 72.34 131.254 72.02L132.754 74.14C132.341 74.5 131.901 74.7933 131.434 75.02C130.968 75.2467 130.488 75.4133 129.994 75.52C129.514 75.64 129.034 75.7 128.554 75.7ZM139.233 75.72C138.313 75.72 137.493 75.4867 136.773 75.02C136.066 74.54 135.506 73.8867 135.093 73.06C134.68 72.22 134.473 71.2667 134.473 70.2C134.473 69.1333 134.68 68.1867 135.093 67.36C135.506 66.52 136.073 65.86 136.793 65.38C137.513 64.9 138.34 64.66 139.273 64.66C139.753 64.66 140.213 64.7333 140.653 64.88C141.093 65.0267 141.493 65.2267 141.853 65.48C142.213 65.7333 142.506 66.0267 142.733 66.36C142.96 66.68 143.093 67.0133 143.133 67.36L142.373 67.54V60.7H145.593V75.5H142.613L142.433 73.08L143.073 73.18C143.033 73.5133 142.9 73.8333 142.673 74.14C142.46 74.4467 142.18 74.72 141.833 74.96C141.486 75.1867 141.086 75.3667 140.633 75.5C140.193 75.6467 139.726 75.72 139.233 75.72ZM140.053 73.06C140.546 73.06 140.973 72.94 141.333 72.7C141.693 72.46 141.966 72.1267 142.153 71.7C142.353 71.2733 142.453 70.7733 142.453 70.2C142.453 69.6133 142.353 69.1067 142.153 68.68C141.966 68.2533 141.693 67.92 141.333 67.68C140.973 67.44 140.546 67.32 140.053 67.32C139.56 67.32 139.133 67.44 138.773 67.68C138.426 67.92 138.153 68.2533 137.953 68.68C137.753 69.1067 137.653 69.6133 137.653 70.2C137.653 70.7733 137.753 71.2733 137.953 71.7C138.153 72.1267 138.426 72.46 138.773 72.7C139.133 72.94 139.56 73.06 140.053 73.06ZM158.085 75.5V64.5H153.925V61.5H165.745V64.5H161.485V75.5H158.085ZM167.871 75.5V72.64H170.231V64.36H167.871V61.5H176.011V64.36H173.631V72.64H176.011V75.5H167.871Z" fill="#FBFDFA"></path><path d="M98.56 98.5V91.216L98.824 91.3L95.344 95.548L95.248 95.332H100.936V96.22H94.9L94.456 95.332L98.74 90.1H99.472V98.5H98.56ZM107.157 98.5L104.985 92.236L105.945 92.224L107.637 97.324L107.337 97.3L109.173 93.196H109.713L111.561 97.3L111.201 97.324L112.929 92.236H113.877L111.705 98.5H111.177L109.233 94.036L109.593 94.06L107.709 98.5H107.157ZM117.523 98.62C116.899 98.62 116.343 98.484 115.855 98.212C115.375 97.94 114.999 97.56 114.727 97.072C114.455 96.584 114.319 96.024 114.319 95.392C114.319 94.904 114.395 94.464 114.547 94.072C114.699 93.672 114.911 93.324 115.183 93.028C115.463 92.732 115.795 92.504 116.179 92.344C116.563 92.176 116.979 92.092 117.427 92.092C117.851 92.092 118.235 92.168 118.579 92.32C118.931 92.472 119.231 92.684 119.479 92.956C119.735 93.22 119.927 93.536 120.055 93.904C120.183 94.272 120.239 94.676 120.223 95.116L120.211 95.536H114.991L114.859 94.78H119.527L119.311 94.984V94.696C119.295 94.408 119.211 94.132 119.059 93.868C118.907 93.596 118.691 93.376 118.411 93.208C118.139 93.04 117.811 92.956 117.427 92.956C116.979 92.956 116.591 93.048 116.263 93.232C115.935 93.408 115.683 93.672 115.507 94.024C115.331 94.376 115.243 94.812 115.243 95.332C115.243 95.828 115.339 96.26 115.531 96.628C115.723 96.988 115.995 97.268 116.347 97.468C116.707 97.668 117.139 97.768 117.643 97.768C117.939 97.768 118.231 97.72 118.519 97.624C118.815 97.52 119.139 97.32 119.491 97.024L119.959 97.672C119.775 97.856 119.555 98.02 119.299 98.164C119.043 98.3 118.763 98.412 118.459 98.5C118.155 98.58 117.843 98.62 117.523 98.62ZM124.261 98.62C123.637 98.62 123.081 98.484 122.593 98.212C122.113 97.94 121.737 97.56 121.465 97.072C121.193 96.584 121.057 96.024 121.057 95.392C121.057 94.904 121.133 94.464 121.285 94.072C121.437 93.672 121.649 93.324 121.921 93.028C122.201 92.732 122.533 92.504 122.917 92.344C123.301 92.176 123.717 92.092 124.165 92.092C124.589 92.092 124.973 92.168 125.317 92.32C125.669 92.472 125.969 92.684 126.217 92.956C126.473 93.22 126.665 93.536 126.793 93.904C126.921 94.272 126.977 94.676 126.961 95.116L126.949 95.536H121.729L121.597 94.78H126.265L126.049 94.984V94.696C126.033 94.408 125.949 94.132 125.797 93.868C125.645 93.596 125.429 93.376 125.149 93.208C124.877 93.04 124.549 92.956 124.165 92.956C123.717 92.956 123.329 93.048 123.001 93.232C122.673 93.408 122.421 93.672 122.245 94.024C122.069 94.376 121.981 94.812 121.981 95.332C121.981 95.828 122.077 96.26 122.269 96.628C122.461 96.988 122.733 97.268 123.085 97.468C123.445 97.668 123.877 97.768 124.381 97.768C124.677 97.768 124.969 97.72 125.257 97.624C125.553 97.52 125.877 97.32 126.229 97.024L126.697 97.672C126.513 97.856 126.293 98.02 126.037 98.164C125.781 98.3 125.501 98.412 125.197 98.5C124.893 98.58 124.581 98.62 124.261 98.62ZM129.043 96.484L129.007 95.44L132.283 92.236H133.495L129.043 96.484ZM128.239 98.5V89.62H129.139V98.5H128.239ZM132.535 98.5L129.895 95.44L130.531 94.816L133.711 98.5H132.535ZM136.69 98.62C136.154 98.62 135.674 98.52 135.25 98.32C134.826 98.12 134.49 97.856 134.242 97.528L134.878 96.976C135.11 97.256 135.382 97.468 135.694 97.612C136.014 97.756 136.37 97.828 136.762 97.828C136.962 97.828 137.142 97.808 137.302 97.768C137.462 97.72 137.602 97.652 137.722 97.564C137.842 97.476 137.934 97.372 137.998 97.252C138.062 97.132 138.094 97 138.094 96.856C138.094 96.592 137.978 96.372 137.746 96.196C137.642 96.124 137.494 96.052 137.302 95.98C137.11 95.9 136.878 95.824 136.606 95.752C136.158 95.624 135.786 95.496 135.49 95.368C135.194 95.232 134.962 95.076 134.794 94.9C134.674 94.756 134.582 94.6 134.518 94.432C134.462 94.264 134.434 94.08 134.434 93.88C134.434 93.624 134.486 93.388 134.59 93.172C134.702 92.956 134.854 92.768 135.046 92.608C135.246 92.44 135.478 92.316 135.742 92.236C136.014 92.148 136.306 92.104 136.618 92.104C136.914 92.104 137.206 92.144 137.494 92.224C137.782 92.304 138.05 92.42 138.298 92.572C138.546 92.724 138.758 92.904 138.934 93.112L138.382 93.712C138.23 93.552 138.062 93.408 137.878 93.28C137.694 93.152 137.498 93.052 137.29 92.98C137.09 92.908 136.882 92.872 136.666 92.872C136.474 92.872 136.294 92.896 136.126 92.944C135.966 92.992 135.826 93.06 135.706 93.148C135.594 93.228 135.506 93.328 135.442 93.448C135.386 93.568 135.358 93.7 135.358 93.844C135.358 93.964 135.382 94.072 135.43 94.168C135.478 94.264 135.546 94.348 135.634 94.42C135.746 94.508 135.902 94.592 136.102 94.672C136.31 94.744 136.566 94.82 136.87 94.9C137.222 94.996 137.518 95.096 137.758 95.2C138.006 95.296 138.21 95.412 138.37 95.548C138.586 95.708 138.738 95.892 138.826 96.1C138.922 96.308 138.97 96.544 138.97 96.808C138.97 97.16 138.87 97.472 138.67 97.744C138.478 98.016 138.21 98.232 137.866 98.392C137.522 98.544 137.13 98.62 136.69 98.62Z" fill="#FBFDFA"></path></svg>