<svg xmlns="http://www.w3.org/2000/svg" width="234" height="120" viewBox="0 0 234 120" fill="none"><path d="M0 0H205.347L231.942 55.6907C233.244 58.4161 233.244 61.5839 231.942 64.3093L205.347 120H0L26.5951 64.3093C27.8967 61.5839 27.8967 58.4161 26.5951 55.6907L0 0Z" fill="#6C7648"></path><path d="M112.61 45.8C110.91 45.8 109.42 45.45 108.14 44.75C106.88 44.03 105.73 42.8 104.69 41.06L108.35 38.69C108.79 39.39 109.24 39.95 109.7 40.37C110.18 40.79 110.67 41.1 111.17 41.3C111.69 41.48 112.23 41.57 112.79 41.57C113.35 41.57 113.86 41.45 114.32 41.21C114.8 40.95 115.18 40.59 115.46 40.13C115.76 39.67 115.91 39.15 115.91 38.57C115.91 37.95 115.78 37.43 115.52 37.01C115.28 36.57 114.92 36.24 114.44 36.02C113.98 35.8 113.42 35.69 112.76 35.69C112.46 35.69 112.14 35.73 111.8 35.81C111.46 35.87 111.1 35.96 110.72 36.08C110.34 36.2 109.95 36.36 109.55 36.56L108.44 33.59L113.54 28.04L114.92 28.79L106.16 28.61V24.32H119.06L119.99 26.18L113.06 33.62L111.86 32.21C112.02 32.13 112.28 32.06 112.64 32C113.02 31.92 113.38 31.88 113.72 31.88C114.66 31.88 115.54 32.05 116.36 32.39C117.18 32.73 117.91 33.2 118.55 33.8C119.19 34.4 119.69 35.11 120.05 35.93C120.41 36.73 120.59 37.59 120.59 38.51C120.59 39.91 120.23 41.16 119.51 42.26C118.81 43.34 117.85 44.2 116.63 44.84C115.43 45.48 114.09 45.8 112.61 45.8ZM125.565 45.83C124.745 45.83 124.105 45.6 123.645 45.14C123.205 44.68 122.985 44.02 122.985 43.16C122.985 42.36 123.225 41.71 123.705 41.21C124.185 40.71 124.805 40.46 125.565 40.46C126.385 40.46 127.025 40.7 127.485 41.18C127.945 41.64 128.175 42.3 128.175 43.16C128.175 43.94 127.935 44.58 127.455 45.08C126.975 45.58 126.345 45.83 125.565 45.83Z" fill="#FBFDFA"></path><path d="M83.26 75.5V61.5H89.56C90.4533 61.5 91.26 61.6933 91.98 62.08C92.7133 62.4667 93.2867 63 93.7 63.68C94.1133 64.3467 94.32 65.1067 94.32 65.96C94.32 66.84 94.1133 67.6333 93.7 68.34C93.2867 69.0333 92.72 69.58 92 69.98C91.28 70.38 90.4667 70.58 89.56 70.58H86.5V75.5H83.26ZM91.02 75.5L87.46 69.18L90.94 68.68L94.9 75.5H91.02ZM86.5 67.98H89.26C89.6067 67.98 89.9067 67.9067 90.16 67.76C90.4267 67.6 90.6267 67.38 90.76 67.1C90.9067 66.82 90.98 66.5 90.98 66.14C90.98 65.78 90.9 65.4667 90.74 65.2C90.58 64.92 90.3467 64.7067 90.04 64.56C89.7467 64.4133 89.3867 64.34 88.96 64.34H86.5V67.98ZM99.9523 75.5V64.5H95.7923V61.5H107.612V64.5H103.352V75.5H99.9523ZM116.964 75.5V62.2H120.164V75.5H116.964ZM115.084 67.68V64.88H122.224V67.68H115.084ZM129.015 75.7C127.842 75.7 126.822 75.4667 125.955 75C125.088 74.52 124.415 73.8733 123.935 73.06C123.455 72.2333 123.215 71.2933 123.215 70.24C123.215 69.4267 123.348 68.68 123.615 68C123.882 67.32 124.255 66.7333 124.735 66.24C125.215 65.7333 125.782 65.3467 126.435 65.08C127.102 64.8 127.828 64.66 128.615 64.66C129.362 64.66 130.042 64.7933 130.655 65.06C131.282 65.3267 131.822 65.7 132.275 66.18C132.728 66.66 133.075 67.2267 133.315 67.88C133.555 68.5333 133.662 69.2467 133.635 70.02L133.615 70.88H125.155L124.695 69.08H131.015L130.675 69.46V69.06C130.648 68.7267 130.542 68.4333 130.355 68.18C130.182 67.9133 129.948 67.7067 129.655 67.56C129.362 67.4133 129.028 67.34 128.655 67.34C128.135 67.34 127.688 67.4467 127.315 67.66C126.955 67.86 126.682 68.16 126.495 68.56C126.308 68.9467 126.215 69.4267 126.215 70C126.215 70.5867 126.335 71.1 126.575 71.54C126.828 71.9667 127.188 72.3 127.655 72.54C128.135 72.78 128.702 72.9 129.355 72.9C129.808 72.9 130.208 72.8333 130.555 72.7C130.915 72.5667 131.302 72.34 131.715 72.02L133.215 74.14C132.802 74.5 132.362 74.7933 131.895 75.02C131.428 75.2467 130.948 75.4133 130.455 75.52C129.975 75.64 129.495 75.7 129.015 75.7ZM139.254 75.7C138.214 75.7 137.294 75.5333 136.494 75.2C135.707 74.8667 135.081 74.42 134.614 73.86L136.554 72.18C136.967 72.5933 137.434 72.9 137.954 73.1C138.474 73.2867 138.967 73.38 139.434 73.38C139.621 73.38 139.787 73.36 139.934 73.32C140.081 73.28 140.201 73.2267 140.294 73.16C140.401 73.08 140.481 72.9933 140.534 72.9C140.587 72.7933 140.614 72.6733 140.614 72.54C140.614 72.2733 140.494 72.0667 140.254 71.92C140.134 71.8533 139.934 71.7733 139.654 71.68C139.374 71.5867 139.014 71.48 138.574 71.36C137.947 71.2 137.401 71.0133 136.934 70.8C136.481 70.5733 136.107 70.3133 135.814 70.02C135.547 69.74 135.341 69.4333 135.194 69.1C135.047 68.7533 134.974 68.3667 134.974 67.94C134.974 67.4467 135.087 67 135.314 66.6C135.554 66.2 135.867 65.8533 136.254 65.56C136.654 65.2667 137.107 65.0467 137.614 64.9C138.134 64.74 138.667 64.66 139.214 64.66C139.801 64.66 140.361 64.7267 140.894 64.86C141.427 64.9933 141.921 65.18 142.374 65.42C142.841 65.66 143.254 65.9467 143.614 66.28L141.934 68.16C141.694 67.9333 141.421 67.7333 141.114 67.56C140.821 67.3733 140.514 67.2267 140.194 67.12C139.874 67.0133 139.581 66.96 139.314 66.96C139.114 66.96 138.934 66.98 138.774 67.02C138.627 67.0467 138.501 67.1 138.394 67.18C138.287 67.2467 138.207 67.3333 138.154 67.44C138.101 67.5333 138.074 67.6467 138.074 67.78C138.074 67.9133 138.107 68.04 138.174 68.16C138.254 68.28 138.361 68.38 138.494 68.46C138.627 68.54 138.841 68.6333 139.134 68.74C139.427 68.8333 139.827 68.9533 140.334 69.1C140.961 69.2733 141.501 69.4667 141.954 69.68C142.407 69.8933 142.767 70.1467 143.034 70.44C143.247 70.6667 143.407 70.9333 143.514 71.24C143.621 71.5333 143.674 71.8533 143.674 72.2C143.674 72.88 143.481 73.4867 143.094 74.02C142.721 74.54 142.201 74.9533 141.534 75.26C140.867 75.5533 140.107 75.7 139.254 75.7ZM146.456 75.5V62.2H149.656V75.5H146.456ZM144.576 67.68V64.88H151.716V67.68H144.576Z" fill="#FBFDFA"></path><path d="M93.984 98.092V90.844L94.332 91.108L92.772 92.044L92.496 91.204L94.572 89.98H94.932V98.092H93.984ZM92.748 98.5V97.588H96.192V98.5H92.748ZM98.1121 98.5L97.8241 97.804L100.656 94.624C100.792 94.472 100.932 94.3 101.076 94.108C101.228 93.916 101.368 93.716 101.496 93.508C101.632 93.292 101.74 93.08 101.82 92.872C101.9 92.664 101.94 92.46 101.94 92.26C101.94 91.964 101.876 91.716 101.748 91.516C101.62 91.308 101.436 91.148 101.196 91.036C100.964 90.924 100.692 90.868 100.38 90.868C100.108 90.868 99.8401 90.932 99.5761 91.06C99.3121 91.188 99.0721 91.384 98.8561 91.648C98.6401 91.912 98.4721 92.248 98.3521 92.656L97.6081 92.212C97.7521 91.724 97.9641 91.316 98.2441 90.988C98.5241 90.652 98.8561 90.4 99.2401 90.232C99.6241 90.064 100.036 89.98 100.476 89.98C100.94 89.98 101.356 90.076 101.724 90.268C102.092 90.452 102.384 90.716 102.6 91.06C102.816 91.396 102.924 91.784 102.924 92.224C102.924 92.416 102.9 92.608 102.852 92.8C102.812 92.992 102.748 93.184 102.66 93.376C102.572 93.568 102.464 93.764 102.336 93.964C102.216 94.164 102.072 94.368 101.904 94.576C101.744 94.784 101.564 95 101.364 95.224L98.9521 97.912L98.8081 97.6H103.188V98.5H98.1121ZM109.286 98.5L107.114 92.236L108.074 92.224L109.766 97.324L109.466 97.3L111.302 93.196H111.842L113.69 97.3L113.33 97.324L115.058 92.236H116.006L113.834 98.5H113.306L111.362 94.036L111.722 94.06L109.838 98.5H109.286ZM119.652 98.62C119.028 98.62 118.472 98.484 117.984 98.212C117.504 97.94 117.128 97.56 116.856 97.072C116.584 96.584 116.448 96.024 116.448 95.392C116.448 94.904 116.524 94.464 116.676 94.072C116.828 93.672 117.04 93.324 117.312 93.028C117.592 92.732 117.924 92.504 118.308 92.344C118.692 92.176 119.108 92.092 119.556 92.092C119.98 92.092 120.364 92.168 120.708 92.32C121.06 92.472 121.36 92.684 121.608 92.956C121.864 93.22 122.056 93.536 122.184 93.904C122.312 94.272 122.368 94.676 122.352 95.116L122.34 95.536H117.12L116.988 94.78H121.656L121.44 94.984V94.696C121.424 94.408 121.34 94.132 121.188 93.868C121.036 93.596 120.82 93.376 120.54 93.208C120.268 93.04 119.94 92.956 119.556 92.956C119.108 92.956 118.72 93.048 118.392 93.232C118.064 93.408 117.812 93.672 117.636 94.024C117.46 94.376 117.372 94.812 117.372 95.332C117.372 95.828 117.468 96.26 117.66 96.628C117.852 96.988 118.124 97.268 118.476 97.468C118.836 97.668 119.268 97.768 119.772 97.768C120.068 97.768 120.36 97.72 120.648 97.624C120.944 97.52 121.268 97.32 121.62 97.024L122.088 97.672C121.904 97.856 121.684 98.02 121.428 98.164C121.172 98.3 120.892 98.412 120.588 98.5C120.284 98.58 119.972 98.62 119.652 98.62ZM126.39 98.62C125.766 98.62 125.21 98.484 124.722 98.212C124.242 97.94 123.866 97.56 123.594 97.072C123.322 96.584 123.186 96.024 123.186 95.392C123.186 94.904 123.262 94.464 123.414 94.072C123.566 93.672 123.778 93.324 124.05 93.028C124.33 92.732 124.662 92.504 125.046 92.344C125.43 92.176 125.846 92.092 126.294 92.092C126.718 92.092 127.102 92.168 127.446 92.32C127.798 92.472 128.098 92.684 128.346 92.956C128.602 93.22 128.794 93.536 128.922 93.904C129.05 94.272 129.106 94.676 129.09 95.116L129.078 95.536H123.858L123.726 94.78H128.394L128.178 94.984V94.696C128.162 94.408 128.078 94.132 127.926 93.868C127.774 93.596 127.558 93.376 127.278 93.208C127.006 93.04 126.678 92.956 126.294 92.956C125.846 92.956 125.458 93.048 125.13 93.232C124.802 93.408 124.55 93.672 124.374 94.024C124.198 94.376 124.11 94.812 124.11 95.332C124.11 95.828 124.206 96.26 124.398 96.628C124.59 96.988 124.862 97.268 125.214 97.468C125.574 97.668 126.006 97.768 126.51 97.768C126.806 97.768 127.098 97.72 127.386 97.624C127.682 97.52 128.006 97.32 128.358 97.024L128.826 97.672C128.642 97.856 128.422 98.02 128.166 98.164C127.91 98.3 127.63 98.412 127.326 98.5C127.022 98.58 126.71 98.62 126.39 98.62ZM131.172 96.484L131.136 95.44L134.412 92.236H135.624L131.172 96.484ZM130.368 98.5V89.62H131.268V98.5H130.368ZM134.664 98.5L132.024 95.44L132.66 94.816L135.84 98.5H134.664ZM138.819 98.62C138.283 98.62 137.803 98.52 137.379 98.32C136.955 98.12 136.619 97.856 136.371 97.528L137.007 96.976C137.239 97.256 137.511 97.468 137.823 97.612C138.143 97.756 138.499 97.828 138.891 97.828C139.091 97.828 139.271 97.808 139.431 97.768C139.591 97.72 139.731 97.652 139.851 97.564C139.971 97.476 140.063 97.372 140.127 97.252C140.191 97.132 140.223 97 140.223 96.856C140.223 96.592 140.107 96.372 139.875 96.196C139.771 96.124 139.623 96.052 139.431 95.98C139.239 95.9 139.007 95.824 138.735 95.752C138.287 95.624 137.915 95.496 137.619 95.368C137.323 95.232 137.091 95.076 136.923 94.9C136.803 94.756 136.711 94.6 136.647 94.432C136.591 94.264 136.563 94.08 136.563 93.88C136.563 93.624 136.615 93.388 136.719 93.172C136.831 92.956 136.983 92.768 137.175 92.608C137.375 92.44 137.607 92.316 137.871 92.236C138.143 92.148 138.435 92.104 138.747 92.104C139.043 92.104 139.335 92.144 139.623 92.224C139.911 92.304 140.179 92.42 140.427 92.572C140.675 92.724 140.887 92.904 141.063 93.112L140.511 93.712C140.359 93.552 140.191 93.408 140.007 93.28C139.823 93.152 139.627 93.052 139.419 92.98C139.219 92.908 139.011 92.872 138.795 92.872C138.603 92.872 138.423 92.896 138.255 92.944C138.095 92.992 137.955 93.06 137.835 93.148C137.723 93.228 137.635 93.328 137.571 93.448C137.515 93.568 137.487 93.7 137.487 93.844C137.487 93.964 137.511 94.072 137.559 94.168C137.607 94.264 137.675 94.348 137.763 94.42C137.875 94.508 138.031 94.592 138.231 94.672C138.439 94.744 138.695 94.82 138.999 94.9C139.351 94.996 139.647 95.096 139.887 95.2C140.135 95.296 140.339 95.412 140.499 95.548C140.715 95.708 140.867 95.892 140.955 96.1C141.051 96.308 141.099 96.544 141.099 96.808C141.099 97.16 140.999 97.472 140.799 97.744C140.607 98.016 140.339 98.232 139.995 98.392C139.651 98.544 139.259 98.62 138.819 98.62Z" fill="#FBFDFA"></path></svg>