<svg xmlns="http://www.w3.org/2000/svg" width="234" height="120" viewBox="0 0 234 120" fill="none"><path d="M0 0H205.347L231.942 55.6907C233.244 58.4161 233.244 61.5839 231.942 64.3093L205.347 120H0L26.5951 64.3093C27.8967 61.5839 27.8967 58.4161 26.5951 55.6907L0 0Z" fill="#403C3B"></path><path d="M113.47 45.5V28.52L116.2 28.58L108.61 37.88L107.89 36.98H121.81V41.18H105.61L103.57 37.25L114.28 24.32H118.39V45.5H113.47ZM126.703 45.83C125.883 45.83 125.243 45.6 124.783 45.14C124.343 44.68 124.123 44.02 124.123 43.16C124.123 42.36 124.363 41.71 124.843 41.21C125.323 40.71 125.943 40.46 126.703 40.46C127.523 40.46 128.163 40.7 128.623 41.18C129.083 41.64 129.313 42.3 129.313 43.16C129.313 43.94 129.073 44.58 128.593 45.08C128.113 45.58 127.483 45.83 126.703 45.83Z" fill="#FBFDFA"></path><path d="M87.12 75.7C86.0667 75.7 85.0933 75.5267 84.2 75.18C83.32 74.82 82.5533 74.32 81.9 73.68C81.2467 73.0267 80.74 72.26 80.38 71.38C80.0333 70.4867 79.86 69.5067 79.86 68.44C79.86 67.4 80.0467 66.44 80.42 65.56C80.7933 64.68 81.3067 63.92 81.96 63.28C82.6267 62.6267 83.4067 62.12 84.3 61.76C85.2067 61.4 86.1933 61.22 87.26 61.22C87.9267 61.22 88.58 61.3067 89.22 61.48C89.86 61.6533 90.4533 61.9133 91 62.26C91.56 62.5933 92.04 62.9933 92.44 63.46L90.36 65.84C90.08 65.5467 89.78 65.2933 89.46 65.08C89.1533 64.8533 88.8133 64.68 88.44 64.56C88.0667 64.44 87.6667 64.38 87.24 64.38C86.7067 64.38 86.2 64.48 85.72 64.68C85.2533 64.8667 84.84 65.14 84.48 65.5C84.1333 65.8467 83.86 66.2733 83.66 66.78C83.46 67.2867 83.36 67.8533 83.36 68.48C83.36 69.0933 83.46 69.6533 83.66 70.16C83.86 70.6533 84.14 71.08 84.5 71.44C84.86 71.8 85.2933 72.0733 85.8 72.26C86.32 72.4467 86.8933 72.54 87.52 72.54C87.9467 72.54 88.3533 72.48 88.74 72.36C89.1267 72.24 89.48 72.08 89.8 71.88C90.1333 71.6667 90.4267 71.4267 90.68 71.16L92.32 73.76C91.9867 74.1333 91.54 74.4667 90.98 74.76C90.4333 75.0533 89.82 75.2867 89.14 75.46C88.4733 75.62 87.8 75.7 87.12 75.7ZM94.3267 75.5V60.7H97.5267V75.5H94.3267ZM105.186 75.7C104.079 75.7 103.092 75.46 102.226 74.98C101.372 74.5 100.692 73.8467 100.186 73.02C99.6923 72.1933 99.4456 71.2467 99.4456 70.18C99.4456 69.1133 99.6923 68.1667 100.186 67.34C100.692 66.5133 101.372 65.86 102.226 65.38C103.092 64.9 104.079 64.66 105.186 64.66C106.292 64.66 107.272 64.9 108.126 65.38C108.992 65.86 109.672 66.5133 110.166 67.34C110.659 68.1667 110.906 69.1133 110.906 70.18C110.906 71.2467 110.659 72.1933 110.166 73.02C109.672 73.8467 108.992 74.5 108.126 74.98C107.272 75.46 106.292 75.7 105.186 75.7ZM105.186 72.94C105.666 72.94 106.092 72.82 106.466 72.58C106.839 72.34 107.132 72.0133 107.346 71.6C107.559 71.1867 107.659 70.7133 107.646 70.18C107.659 69.6467 107.559 69.1733 107.346 68.76C107.132 68.3333 106.839 68 106.466 67.76C106.092 67.52 105.666 67.4 105.186 67.4C104.706 67.4 104.272 67.52 103.886 67.76C103.512 68 103.219 68.3333 103.006 68.76C102.792 69.1733 102.692 69.6467 102.706 70.18C102.692 70.7133 102.792 71.1867 103.006 71.6C103.219 72.0133 103.512 72.34 103.886 72.58C104.272 72.82 104.706 72.94 105.186 72.94ZM116.578 75.7C115.538 75.7 114.618 75.5333 113.818 75.2C113.031 74.8667 112.405 74.42 111.938 73.86L113.878 72.18C114.291 72.5933 114.758 72.9 115.278 73.1C115.798 73.2867 116.291 73.38 116.758 73.38C116.945 73.38 117.111 73.36 117.258 73.32C117.405 73.28 117.525 73.2267 117.618 73.16C117.725 73.08 117.805 72.9933 117.858 72.9C117.911 72.7933 117.938 72.6733 117.938 72.54C117.938 72.2733 117.818 72.0667 117.578 71.92C117.458 71.8533 117.258 71.7733 116.978 71.68C116.698 71.5867 116.338 71.48 115.898 71.36C115.271 71.2 114.725 71.0133 114.258 70.8C113.805 70.5733 113.431 70.3133 113.138 70.02C112.871 69.74 112.665 69.4333 112.518 69.1C112.371 68.7533 112.298 68.3667 112.298 67.94C112.298 67.4467 112.411 67 112.638 66.6C112.878 66.2 113.191 65.8533 113.578 65.56C113.978 65.2667 114.431 65.0467 114.938 64.9C115.458 64.74 115.991 64.66 116.538 64.66C117.125 64.66 117.685 64.7267 118.218 64.86C118.751 64.9933 119.245 65.18 119.698 65.42C120.165 65.66 120.578 65.9467 120.938 66.28L119.258 68.16C119.018 67.9333 118.745 67.7333 118.438 67.56C118.145 67.3733 117.838 67.2267 117.518 67.12C117.198 67.0133 116.905 66.96 116.638 66.96C116.438 66.96 116.258 66.98 116.098 67.02C115.951 67.0467 115.825 67.1 115.718 67.18C115.611 67.2467 115.531 67.3333 115.478 67.44C115.425 67.5333 115.398 67.6467 115.398 67.78C115.398 67.9133 115.431 68.04 115.498 68.16C115.578 68.28 115.685 68.38 115.818 68.46C115.951 68.54 116.165 68.6333 116.458 68.74C116.751 68.8333 117.151 68.9533 117.658 69.1C118.285 69.2733 118.825 69.4667 119.278 69.68C119.731 69.8933 120.091 70.1467 120.358 70.44C120.571 70.6667 120.731 70.9333 120.838 71.24C120.945 71.5333 120.998 71.8533 120.998 72.2C120.998 72.88 120.805 73.4867 120.418 74.02C120.045 74.54 119.525 74.9533 118.858 75.26C118.191 75.5533 117.431 75.7 116.578 75.7ZM126.52 75.72C125.734 75.72 125.06 75.5533 124.5 75.22C123.954 74.8733 123.527 74.38 123.22 73.74C122.927 73.1 122.78 72.3333 122.78 71.44V64.88H126V71C126 71.4267 126.067 71.7933 126.2 72.1C126.334 72.4067 126.534 72.6467 126.8 72.82C127.067 72.98 127.387 73.06 127.76 73.06C128.04 73.06 128.294 73.0133 128.52 72.92C128.76 72.8267 128.96 72.7 129.12 72.54C129.294 72.3667 129.427 72.1733 129.52 71.96C129.614 71.7333 129.66 71.4867 129.66 71.22V64.88H132.88V75.5H129.86L129.72 73.32L130.32 73.08C130.16 73.5867 129.894 74.04 129.52 74.44C129.147 74.8267 128.7 75.14 128.18 75.38C127.66 75.6067 127.107 75.72 126.52 75.72ZM135.733 75.5V64.88H138.773L138.913 68.34L138.313 67.68C138.473 67.1067 138.733 66.5933 139.093 66.14C139.466 65.6867 139.899 65.3267 140.393 65.06C140.886 64.7933 141.413 64.66 141.973 64.66C142.213 64.66 142.433 64.68 142.633 64.72C142.846 64.76 143.039 64.8067 143.213 64.86L142.333 68.4C142.186 68.3067 141.986 68.2333 141.733 68.18C141.493 68.1133 141.239 68.08 140.973 68.08C140.679 68.08 140.406 68.1333 140.153 68.24C139.899 68.3333 139.686 68.4733 139.513 68.66C139.339 68.8467 139.199 69.0667 139.093 69.32C138.999 69.5733 138.953 69.86 138.953 70.18V75.5H135.733ZM149.445 75.7C148.272 75.7 147.252 75.4667 146.385 75C145.518 74.52 144.845 73.8733 144.365 73.06C143.885 72.2333 143.645 71.2933 143.645 70.24C143.645 69.4267 143.778 68.68 144.045 68C144.312 67.32 144.685 66.7333 145.165 66.24C145.645 65.7333 146.212 65.3467 146.865 65.08C147.532 64.8 148.258 64.66 149.045 64.66C149.792 64.66 150.472 64.7933 151.085 65.06C151.712 65.3267 152.252 65.7 152.705 66.18C153.158 66.66 153.505 67.2267 153.745 67.88C153.985 68.5333 154.092 69.2467 154.065 70.02L154.045 70.88H145.585L145.125 69.08H151.445L151.105 69.46V69.06C151.078 68.7267 150.972 68.4333 150.785 68.18C150.612 67.9133 150.378 67.7067 150.085 67.56C149.792 67.4133 149.458 67.34 149.085 67.34C148.565 67.34 148.118 67.4467 147.745 67.66C147.385 67.86 147.112 68.16 146.925 68.56C146.738 68.9467 146.645 69.4267 146.645 70C146.645 70.5867 146.765 71.1 147.005 71.54C147.258 71.9667 147.618 72.3 148.085 72.54C148.565 72.78 149.132 72.9 149.785 72.9C150.238 72.9 150.638 72.8333 150.985 72.7C151.345 72.5667 151.732 72.34 152.145 72.02L153.645 74.14C153.232 74.5 152.792 74.7933 152.325 75.02C151.858 75.2467 151.378 75.4133 150.885 75.52C150.405 75.64 149.925 75.7 149.445 75.7Z" fill="#FBFDFA"></path><path d="M97.48 98.536C96.96 98.536 96.484 98.428 96.052 98.212C95.628 97.988 95.288 97.692 95.032 97.324C94.776 96.948 94.648 96.536 94.648 96.088C94.648 95.84 94.684 95.608 94.756 95.392C94.836 95.168 94.948 94.964 95.092 94.78C95.244 94.588 95.428 94.416 95.644 94.264C95.86 94.104 96.108 93.968 96.388 93.856L96.316 94.108C96.1 94.044 95.904 93.952 95.728 93.832C95.552 93.712 95.404 93.576 95.284 93.424C95.164 93.264 95.072 93.092 95.008 92.908C94.944 92.716 94.912 92.52 94.912 92.32C94.912 91.912 95.024 91.54 95.248 91.204C95.48 90.868 95.788 90.6 96.172 90.4C96.564 90.2 97 90.1 97.48 90.1C97.952 90.1 98.38 90.2 98.764 90.4C99.156 90.6 99.464 90.868 99.688 91.204C99.92 91.54 100.036 91.912 100.036 92.32C100.036 92.52 100.004 92.712 99.94 92.896C99.884 93.08 99.796 93.252 99.676 93.412C99.556 93.564 99.404 93.7 99.22 93.82C99.044 93.94 98.844 94.036 98.62 94.108L98.584 93.904C98.84 93.992 99.072 94.116 99.28 94.276C99.496 94.428 99.68 94.6 99.832 94.792C99.984 94.984 100.1 95.192 100.18 95.416C100.268 95.632 100.312 95.856 100.312 96.088C100.312 96.544 100.184 96.96 99.928 97.336C99.68 97.704 99.34 97.996 98.908 98.212C98.484 98.428 98.008 98.536 97.48 98.536ZM97.48 97.648C97.84 97.648 98.16 97.58 98.44 97.444C98.728 97.3 98.952 97.108 99.112 96.868C99.28 96.628 99.364 96.36 99.364 96.064C99.364 95.76 99.28 95.492 99.112 95.26C98.952 95.02 98.728 94.832 98.44 94.696C98.16 94.552 97.84 94.48 97.48 94.48C97.12 94.48 96.796 94.552 96.508 94.696C96.228 94.832 96.004 95.02 95.836 95.26C95.676 95.492 95.596 95.76 95.596 96.064C95.596 96.36 95.676 96.628 95.836 96.868C96.004 97.1 96.228 97.288 96.508 97.432C96.796 97.576 97.12 97.648 97.48 97.648ZM97.48 93.676C97.784 93.676 98.056 93.62 98.296 93.508C98.544 93.396 98.736 93.24 98.872 93.04C99.016 92.84 99.088 92.608 99.088 92.344C99.088 92.088 99.016 91.86 98.872 91.66C98.736 91.452 98.544 91.288 98.296 91.168C98.056 91.048 97.784 90.988 97.48 90.988C97.168 90.988 96.888 91.048 96.64 91.168C96.4 91.288 96.208 91.452 96.064 91.66C95.928 91.86 95.86 92.088 95.86 92.344C95.86 92.6 95.928 92.832 96.064 93.04C96.208 93.24 96.4 93.396 96.64 93.508C96.888 93.62 97.168 93.676 97.48 93.676ZM106.676 98.5L104.504 92.236L105.464 92.224L107.156 97.324L106.856 97.3L108.692 93.196H109.232L111.08 97.3L110.72 97.324L112.448 92.236H113.396L111.224 98.5H110.696L108.752 94.036L109.112 94.06L107.228 98.5H106.676ZM117.042 98.62C116.418 98.62 115.862 98.484 115.374 98.212C114.894 97.94 114.518 97.56 114.246 97.072C113.974 96.584 113.838 96.024 113.838 95.392C113.838 94.904 113.914 94.464 114.066 94.072C114.218 93.672 114.43 93.324 114.702 93.028C114.982 92.732 115.314 92.504 115.698 92.344C116.082 92.176 116.498 92.092 116.946 92.092C117.37 92.092 117.754 92.168 118.098 92.32C118.45 92.472 118.75 92.684 118.998 92.956C119.254 93.22 119.446 93.536 119.574 93.904C119.702 94.272 119.758 94.676 119.742 95.116L119.73 95.536H114.51L114.378 94.78H119.046L118.83 94.984V94.696C118.814 94.408 118.73 94.132 118.578 93.868C118.426 93.596 118.21 93.376 117.93 93.208C117.658 93.04 117.33 92.956 116.946 92.956C116.498 92.956 116.11 93.048 115.782 93.232C115.454 93.408 115.202 93.672 115.026 94.024C114.85 94.376 114.762 94.812 114.762 95.332C114.762 95.828 114.858 96.26 115.05 96.628C115.242 96.988 115.514 97.268 115.866 97.468C116.226 97.668 116.658 97.768 117.162 97.768C117.458 97.768 117.75 97.72 118.038 97.624C118.334 97.52 118.658 97.32 119.01 97.024L119.478 97.672C119.294 97.856 119.074 98.02 118.818 98.164C118.562 98.3 118.282 98.412 117.978 98.5C117.674 98.58 117.362 98.62 117.042 98.62ZM123.781 98.62C123.157 98.62 122.601 98.484 122.113 98.212C121.633 97.94 121.257 97.56 120.985 97.072C120.713 96.584 120.577 96.024 120.577 95.392C120.577 94.904 120.653 94.464 120.805 94.072C120.957 93.672 121.169 93.324 121.441 93.028C121.721 92.732 122.053 92.504 122.437 92.344C122.821 92.176 123.237 92.092 123.685 92.092C124.109 92.092 124.493 92.168 124.837 92.32C125.189 92.472 125.489 92.684 125.737 92.956C125.993 93.22 126.185 93.536 126.313 93.904C126.441 94.272 126.497 94.676 126.481 95.116L126.469 95.536H121.249L121.117 94.78H125.785L125.569 94.984V94.696C125.553 94.408 125.469 94.132 125.317 93.868C125.165 93.596 124.949 93.376 124.669 93.208C124.397 93.04 124.069 92.956 123.685 92.956C123.237 92.956 122.849 93.048 122.521 93.232C122.193 93.408 121.941 93.672 121.765 94.024C121.589 94.376 121.501 94.812 121.501 95.332C121.501 95.828 121.597 96.26 121.789 96.628C121.981 96.988 122.253 97.268 122.605 97.468C122.965 97.668 123.397 97.768 123.901 97.768C124.197 97.768 124.489 97.72 124.777 97.624C125.073 97.52 125.397 97.32 125.749 97.024L126.217 97.672C126.033 97.856 125.813 98.02 125.557 98.164C125.301 98.3 125.021 98.412 124.717 98.5C124.413 98.58 124.101 98.62 123.781 98.62ZM128.563 96.484L128.527 95.44L131.803 92.236H133.015L128.563 96.484ZM127.759 98.5V89.62H128.659V98.5H127.759ZM132.055 98.5L129.415 95.44L130.051 94.816L133.231 98.5H132.055ZM136.209 98.62C135.673 98.62 135.193 98.52 134.769 98.32C134.345 98.12 134.009 97.856 133.761 97.528L134.397 96.976C134.629 97.256 134.901 97.468 135.213 97.612C135.533 97.756 135.889 97.828 136.281 97.828C136.481 97.828 136.661 97.808 136.821 97.768C136.981 97.72 137.121 97.652 137.241 97.564C137.361 97.476 137.453 97.372 137.517 97.252C137.581 97.132 137.613 97 137.613 96.856C137.613 96.592 137.497 96.372 137.265 96.196C137.161 96.124 137.013 96.052 136.821 95.98C136.629 95.9 136.397 95.824 136.125 95.752C135.677 95.624 135.305 95.496 135.009 95.368C134.713 95.232 134.481 95.076 134.313 94.9C134.193 94.756 134.101 94.6 134.037 94.432C133.981 94.264 133.953 94.08 133.953 93.88C133.953 93.624 134.005 93.388 134.109 93.172C134.221 92.956 134.373 92.768 134.565 92.608C134.765 92.44 134.997 92.316 135.261 92.236C135.533 92.148 135.825 92.104 136.137 92.104C136.433 92.104 136.725 92.144 137.013 92.224C137.301 92.304 137.569 92.42 137.817 92.572C138.065 92.724 138.277 92.904 138.453 93.112L137.901 93.712C137.749 93.552 137.581 93.408 137.397 93.28C137.213 93.152 137.017 93.052 136.809 92.98C136.609 92.908 136.401 92.872 136.185 92.872C135.993 92.872 135.813 92.896 135.645 92.944C135.485 92.992 135.345 93.06 135.225 93.148C135.113 93.228 135.025 93.328 134.961 93.448C134.905 93.568 134.877 93.7 134.877 93.844C134.877 93.964 134.901 94.072 134.949 94.168C134.997 94.264 135.065 94.348 135.153 94.42C135.265 94.508 135.421 94.592 135.621 94.672C135.829 94.744 136.085 94.82 136.389 94.9C136.741 94.996 137.037 95.096 137.277 95.2C137.525 95.296 137.729 95.412 137.889 95.548C138.105 95.708 138.257 95.892 138.345 96.1C138.441 96.308 138.489 96.544 138.489 96.808C138.489 97.16 138.389 97.472 138.189 97.744C137.997 98.016 137.729 98.232 137.385 98.392C137.041 98.544 136.649 98.62 136.209 98.62Z" fill="#FBFDFA"></path></svg>