<svg xmlns="http://www.w3.org/2000/svg" width="234" height="120" viewBox="0 0 234 120" fill="none"><path d="M0 0H205.347L231.942 55.6907C233.244 58.4161 233.244 61.5839 231.942 64.3093L205.347 120H0L26.5951 64.3093C27.8967 61.5839 27.8967 58.4161 26.5951 55.6907L0 0Z" fill="#CA732F"></path><path d="M110.83 44.03V26.99L111.94 29.54L107.44 31.67L106.57 27.11L112.54 24.2H115.84V44.03H110.83ZM106.99 45.5V41H119.77V45.5H106.99ZM125.156 45.83C124.336 45.83 123.696 45.6 123.236 45.14C122.796 44.68 122.576 44.02 122.576 43.16C122.576 42.36 122.816 41.71 123.296 41.21C123.776 40.71 124.396 40.46 125.156 40.46C125.976 40.46 126.616 40.7 127.076 41.18C127.536 41.64 127.766 42.3 127.766 43.16C127.766 43.94 127.526 44.58 127.046 45.08C126.566 45.58 125.936 45.83 125.156 45.83Z" fill="#FBFDFA"></path><path d="M57.76 75.5V61.5H63.8C64.68 61.5 65.46 61.7 66.14 62.1C66.8333 62.5 67.38 63.0467 67.78 63.74C68.1933 64.4333 68.4 65.2133 68.4 66.08C68.4 66.9867 68.1933 67.8 67.78 68.52C67.38 69.2267 66.8333 69.7867 66.14 70.2C65.46 70.6133 64.68 70.82 63.8 70.82H61.16V75.5H57.76ZM61.1 67.84H63.32C63.6133 67.84 63.88 67.7667 64.12 67.62C64.36 67.4733 64.5533 67.2733 64.7 67.02C64.8467 66.7667 64.92 66.4733 64.92 66.14C64.92 65.7933 64.8467 65.5 64.7 65.26C64.5533 65.02 64.36 64.8333 64.12 64.7C63.88 64.5667 63.6133 64.5 63.32 64.5H61.1V67.84ZM70.6622 75.5V64.88H73.7022L73.8422 68.34L73.2422 67.68C73.4022 67.1067 73.6622 66.5933 74.0222 66.14C74.3955 65.6867 74.8289 65.3267 75.3222 65.06C75.8155 64.7933 76.3422 64.66 76.9022 64.66C77.1422 64.66 77.3622 64.68 77.5622 64.72C77.7755 64.76 77.9689 64.8067 78.1422 64.86L77.2622 68.4C77.1155 68.3067 76.9155 68.2333 76.6622 68.18C76.4222 68.1133 76.1689 68.08 75.9022 68.08C75.6089 68.08 75.3355 68.1333 75.0822 68.24C74.8289 68.3333 74.6155 68.4733 74.4422 68.66C74.2689 68.8467 74.1289 69.0667 74.0222 69.32C73.9289 69.5733 73.8822 69.86 73.8822 70.18V75.5H70.6622ZM84.3745 75.7C83.2012 75.7 82.1812 75.4667 81.3145 75C80.4479 74.52 79.7745 73.8733 79.2945 73.06C78.8145 72.2333 78.5745 71.2933 78.5745 70.24C78.5745 69.4267 78.7079 68.68 78.9745 68C79.2412 67.32 79.6145 66.7333 80.0945 66.24C80.5745 65.7333 81.1412 65.3467 81.7945 65.08C82.4612 64.8 83.1879 64.66 83.9745 64.66C84.7212 64.66 85.4012 64.7933 86.0145 65.06C86.6412 65.3267 87.1812 65.7 87.6345 66.18C88.0879 66.66 88.4345 67.2267 88.6745 67.88C88.9145 68.5333 89.0212 69.2467 88.9945 70.02L88.9745 70.88H80.5145L80.0545 69.08H86.3745L86.0345 69.46V69.06C86.0079 68.7267 85.9012 68.4333 85.7145 68.18C85.5412 67.9133 85.3079 67.7067 85.0145 67.56C84.7212 67.4133 84.3879 67.34 84.0145 67.34C83.4945 67.34 83.0479 67.4467 82.6745 67.66C82.3145 67.86 82.0412 68.16 81.8545 68.56C81.6679 68.9467 81.5745 69.4267 81.5745 70C81.5745 70.5867 81.6945 71.1 81.9345 71.54C82.1879 71.9667 82.5479 72.3 83.0145 72.54C83.4945 72.78 84.0612 72.9 84.7145 72.9C85.1679 72.9 85.5679 72.8333 85.9145 72.7C86.2745 72.5667 86.6612 72.34 87.0745 72.02L88.5745 74.14C88.1612 74.5 87.7212 74.7933 87.2545 75.02C86.7879 75.2467 86.3079 75.4133 85.8145 75.52C85.3345 75.64 84.8545 75.7 84.3745 75.7ZM91.0333 79.9V64.88H94.0733L94.1933 67.26L93.5933 67.08C93.6866 66.64 93.9133 66.24 94.2733 65.88C94.6333 65.52 95.0866 65.2333 95.6333 65.02C96.1933 64.7933 96.7799 64.68 97.3933 64.68C98.2999 64.68 99.1066 64.92 99.8133 65.4C100.52 65.8667 101.073 66.5133 101.473 67.34C101.887 68.1533 102.093 69.1 102.093 70.18C102.093 71.2467 101.887 72.1933 101.473 73.02C101.073 73.8467 100.513 74.5 99.7933 74.98C99.0866 75.4467 98.2733 75.68 97.3533 75.68C96.7533 75.68 96.1799 75.5667 95.6333 75.34C95.0866 75.1133 94.6266 74.8067 94.2533 74.42C93.8799 74.0333 93.6333 73.6133 93.5133 73.16L94.2533 72.88V79.9H91.0333ZM96.5733 72.98C97.0533 72.98 97.4733 72.8667 97.8333 72.64C98.1933 72.4 98.4733 72.0733 98.6733 71.66C98.8733 71.2467 98.9733 70.7533 98.9733 70.18C98.9733 69.62 98.8733 69.1333 98.6733 68.72C98.4733 68.2933 98.1933 67.9667 97.8333 67.74C97.4866 67.5 97.0666 67.38 96.5733 67.38C96.0799 67.38 95.6533 67.4933 95.2933 67.72C94.9333 67.9467 94.6533 68.2733 94.4533 68.7C94.2533 69.1267 94.1533 69.62 94.1533 70.18C94.1533 70.7533 94.2533 71.2467 94.4533 71.66C94.6533 72.0733 94.9333 72.4 95.2933 72.64C95.6533 72.8667 96.0799 72.98 96.5733 72.98ZM108.137 75.68C107.244 75.68 106.444 75.4467 105.737 74.98C105.044 74.5 104.49 73.8467 104.077 73.02C103.664 72.18 103.457 71.2333 103.457 70.18C103.457 69.1 103.664 68.1467 104.077 67.32C104.49 66.4933 105.057 65.8467 105.777 65.38C106.497 64.9 107.317 64.66 108.237 64.66C108.744 64.66 109.204 64.7333 109.617 64.88C110.044 65.0267 110.417 65.2333 110.737 65.5C111.057 65.7533 111.33 66.0533 111.557 66.4C111.784 66.7333 111.95 67.0933 112.057 67.48L111.397 67.4V64.88H114.577V75.5H111.337V72.94L112.057 72.92C111.95 73.2933 111.777 73.6467 111.537 73.98C111.297 74.3133 111.004 74.6067 110.657 74.86C110.31 75.1133 109.924 75.3133 109.497 75.46C109.07 75.6067 108.617 75.68 108.137 75.68ZM109.017 72.98C109.51 72.98 109.937 72.8667 110.297 72.64C110.657 72.4133 110.937 72.0933 111.137 71.68C111.337 71.2533 111.437 70.7533 111.437 70.18C111.437 69.6067 111.337 69.1133 111.137 68.7C110.937 68.2733 110.657 67.9467 110.297 67.72C109.937 67.48 109.51 67.36 109.017 67.36C108.537 67.36 108.117 67.48 107.757 67.72C107.41 67.9467 107.137 68.2733 106.937 68.7C106.737 69.1133 106.637 69.6067 106.637 70.18C106.637 70.7533 106.737 71.2533 106.937 71.68C107.137 72.0933 107.41 72.4133 107.757 72.64C108.117 72.8667 108.537 72.98 109.017 72.98ZM117.4 75.5V64.88H120.44L120.58 68.34L119.98 67.68C120.14 67.1067 120.4 66.5933 120.76 66.14C121.134 65.6867 121.567 65.3267 122.06 65.06C122.554 64.7933 123.08 64.66 123.64 64.66C123.88 64.66 124.1 64.68 124.3 64.72C124.514 64.76 124.707 64.8067 124.88 64.86L124 68.4C123.854 68.3067 123.654 68.2333 123.4 68.18C123.16 68.1133 122.907 68.08 122.64 68.08C122.347 68.08 122.074 68.1333 121.82 68.24C121.567 68.3333 121.354 68.4733 121.18 68.66C121.007 68.8467 120.867 69.0667 120.76 69.32C120.667 69.5733 120.62 69.86 120.62 70.18V75.5H117.4ZM129.973 75.68C129.079 75.68 128.279 75.4467 127.573 74.98C126.879 74.5 126.326 73.8467 125.913 73.02C125.499 72.18 125.293 71.2333 125.293 70.18C125.293 69.1 125.499 68.1467 125.913 67.32C126.326 66.4933 126.893 65.8467 127.613 65.38C128.333 64.9 129.153 64.66 130.073 64.66C130.579 64.66 131.039 64.7333 131.453 64.88C131.879 65.0267 132.253 65.2333 132.573 65.5C132.893 65.7533 133.166 66.0533 133.393 66.4C133.619 66.7333 133.786 67.0933 133.893 67.48L133.233 67.4V64.88H136.413V75.5H133.173V72.94L133.893 72.92C133.786 73.2933 133.613 73.6467 133.373 73.98C133.133 74.3133 132.839 74.6067 132.493 74.86C132.146 75.1133 131.759 75.3133 131.333 75.46C130.906 75.6067 130.453 75.68 129.973 75.68ZM130.853 72.98C131.346 72.98 131.773 72.8667 132.133 72.64C132.493 72.4133 132.773 72.0933 132.973 71.68C133.173 71.2533 133.273 70.7533 133.273 70.18C133.273 69.6067 133.173 69.1133 132.973 68.7C132.773 68.2733 132.493 67.9467 132.133 67.72C131.773 67.48 131.346 67.36 130.853 67.36C130.373 67.36 129.953 67.48 129.593 67.72C129.246 67.9467 128.973 68.2733 128.773 68.7C128.573 69.1133 128.473 69.6067 128.473 70.18C128.473 70.7533 128.573 71.2533 128.773 71.68C128.973 72.0933 129.246 72.4133 129.593 72.64C129.953 72.8667 130.373 72.98 130.853 72.98ZM140.116 75.5V62.2H143.316V75.5H140.116ZM138.236 67.68V64.88H145.376V67.68H138.236ZM147.385 75.5V64.88H150.585V75.5H147.385ZM148.985 62.78C148.385 62.78 147.912 62.64 147.565 62.36C147.232 62.0667 147.065 61.6533 147.065 61.12C147.065 60.64 147.238 60.2467 147.585 59.94C147.932 59.6333 148.398 59.48 148.985 59.48C149.585 59.48 150.052 59.6267 150.385 59.92C150.718 60.2 150.885 60.6 150.885 61.12C150.885 61.6133 150.712 62.0133 150.365 62.32C150.032 62.6267 149.572 62.78 148.985 62.78ZM158.592 75.7C157.485 75.7 156.499 75.46 155.632 74.98C154.779 74.5 154.099 73.8467 153.592 73.02C153.099 72.1933 152.852 71.2467 152.852 70.18C152.852 69.1133 153.099 68.1667 153.592 67.34C154.099 66.5133 154.779 65.86 155.632 65.38C156.499 64.9 157.485 64.66 158.592 64.66C159.699 64.66 160.679 64.9 161.532 65.38C162.399 65.86 163.079 66.5133 163.572 67.34C164.065 68.1667 164.312 69.1133 164.312 70.18C164.312 71.2467 164.065 72.1933 163.572 73.02C163.079 73.8467 162.399 74.5 161.532 74.98C160.679 75.46 159.699 75.7 158.592 75.7ZM158.592 72.94C159.072 72.94 159.499 72.82 159.872 72.58C160.245 72.34 160.539 72.0133 160.752 71.6C160.965 71.1867 161.065 70.7133 161.052 70.18C161.065 69.6467 160.965 69.1733 160.752 68.76C160.539 68.3333 160.245 68 159.872 67.76C159.499 67.52 159.072 67.4 158.592 67.4C158.112 67.4 157.679 67.52 157.292 67.76C156.919 68 156.625 68.3333 156.412 68.76C156.199 69.1733 156.099 69.6467 156.112 70.18C156.099 70.7133 156.199 71.1867 156.412 71.6C156.625 72.0133 156.919 72.34 157.292 72.58C157.679 72.82 158.112 72.94 158.592 72.94ZM166.404 75.5V64.88H169.444L169.544 67.04L168.904 67.28C169.051 66.8 169.311 66.3667 169.684 65.98C170.071 65.58 170.531 65.26 171.064 65.02C171.598 64.78 172.158 64.66 172.744 64.66C173.544 64.66 174.218 64.8267 174.764 65.16C175.311 65.48 175.724 65.9667 176.004 66.62C176.284 67.26 176.424 68.0467 176.424 68.98V75.5H173.204V69.24C173.204 68.8133 173.144 68.46 173.024 68.18C172.904 67.9 172.718 67.6933 172.464 67.56C172.224 67.4133 171.924 67.3467 171.564 67.36C171.284 67.36 171.024 67.4067 170.784 67.5C170.544 67.58 170.338 67.7067 170.164 67.88C169.991 68.04 169.851 68.2267 169.744 68.44C169.651 68.6533 169.604 68.8867 169.604 69.14V75.5H168.024C167.651 75.5 167.331 75.5 167.064 75.5C166.798 75.5 166.578 75.5 166.404 75.5Z" fill="#FBFDFA"></path><path d="M69.8 98.5L73.016 90.1H74.084L77.276 98.5H76.256L74.204 93.052C74.148 92.9 74.084 92.724 74.012 92.524C73.948 92.316 73.876 92.104 73.796 91.888C73.724 91.664 73.652 91.448 73.58 91.24C73.516 91.032 73.456 90.848 73.4 90.688H73.64C73.576 90.888 73.508 91.092 73.436 91.3C73.372 91.5 73.304 91.704 73.232 91.912C73.16 92.112 73.088 92.312 73.016 92.512C72.944 92.712 72.872 92.912 72.8 93.112L70.76 98.5H69.8ZM71.168 96.184L71.516 95.272H75.488L75.872 96.184H71.168ZM78.4502 101.14V92.236H79.3502L79.3742 93.76L79.2062 93.784C79.2782 93.48 79.4342 93.204 79.6742 92.956C79.9142 92.7 80.2062 92.496 80.5502 92.344C80.8942 92.192 81.2582 92.116 81.6422 92.116C82.2022 92.116 82.7022 92.256 83.1422 92.536C83.5902 92.816 83.9462 93.2 84.2102 93.688C84.4742 94.176 84.6062 94.736 84.6062 95.368C84.6062 95.992 84.4782 96.548 84.2222 97.036C83.9662 97.524 83.6142 97.912 83.1662 98.2C82.7182 98.48 82.2142 98.62 81.6542 98.62C81.2622 98.62 80.8902 98.54 80.5382 98.38C80.1862 98.22 79.8862 98.012 79.6382 97.756C79.3902 97.492 79.2262 97.208 79.1462 96.904H79.3622V101.14H78.4502ZM81.5102 97.756C81.9342 97.756 82.3102 97.652 82.6382 97.444C82.9662 97.236 83.2262 96.952 83.4182 96.592C83.6102 96.232 83.7062 95.824 83.7062 95.368C83.7062 94.904 83.6102 94.492 83.4182 94.132C83.2262 93.772 82.9662 93.488 82.6382 93.28C82.3102 93.072 81.9342 92.968 81.5102 92.968C81.0862 92.968 80.7062 93.072 80.3702 93.28C80.0422 93.48 79.7822 93.76 79.5902 94.12C79.3982 94.48 79.3022 94.892 79.3022 95.356C79.3022 95.82 79.3982 96.232 79.5902 96.592C79.7822 96.952 80.0422 97.236 80.3702 97.444C80.7062 97.652 81.0862 97.756 81.5102 97.756ZM85.9151 101.14V92.236H86.8151L86.8391 93.76L86.6711 93.784C86.7431 93.48 86.8991 93.204 87.1391 92.956C87.3791 92.7 87.6711 92.496 88.0151 92.344C88.3591 92.192 88.7231 92.116 89.1071 92.116C89.6671 92.116 90.1671 92.256 90.6071 92.536C91.0551 92.816 91.4111 93.2 91.6751 93.688C91.9391 94.176 92.0711 94.736 92.0711 95.368C92.0711 95.992 91.9431 96.548 91.6871 97.036C91.4311 97.524 91.0791 97.912 90.6311 98.2C90.1831 98.48 89.6791 98.62 89.1191 98.62C88.7271 98.62 88.3551 98.54 88.0031 98.38C87.6511 98.22 87.3511 98.012 87.1031 97.756C86.8551 97.492 86.6911 97.208 86.6111 96.904H86.8271V101.14H85.9151ZM88.9751 97.756C89.3991 97.756 89.7751 97.652 90.1031 97.444C90.4311 97.236 90.6911 96.952 90.8831 96.592C91.0751 96.232 91.1711 95.824 91.1711 95.368C91.1711 94.904 91.0751 94.492 90.8831 94.132C90.6911 93.772 90.4311 93.488 90.1031 93.28C89.7751 93.072 89.3991 92.968 88.9751 92.968C88.5511 92.968 88.1711 93.072 87.8351 93.28C87.5071 93.48 87.2471 93.76 87.0551 94.12C86.8631 94.48 86.7671 94.892 86.7671 95.356C86.7671 95.82 86.8631 96.232 87.0551 96.592C87.2471 96.952 87.5071 97.236 87.8351 97.444C88.1711 97.652 88.5511 97.756 88.9751 97.756ZM93.3799 98.5V92.236H94.2799L94.3039 93.904L94.2079 93.676C94.2959 93.396 94.4359 93.136 94.6279 92.896C94.8279 92.656 95.0639 92.464 95.3359 92.32C95.6079 92.176 95.9079 92.104 96.2359 92.104C96.3719 92.104 96.4999 92.116 96.6199 92.14C96.7399 92.156 96.8399 92.18 96.9199 92.212L96.6679 93.22C96.5639 93.172 96.4559 93.14 96.3439 93.124C96.2399 93.1 96.1399 93.088 96.0439 93.088C95.7719 93.088 95.5279 93.136 95.3119 93.232C95.0959 93.328 94.9119 93.464 94.7599 93.64C94.6079 93.808 94.4919 94.004 94.4119 94.228C94.3319 94.452 94.2919 94.692 94.2919 94.948V98.5H93.3799ZM100.359 98.62C99.7349 98.62 99.1789 98.48 98.6909 98.2C98.2109 97.92 97.8309 97.532 97.5509 97.036C97.2789 96.54 97.1429 95.976 97.1429 95.344C97.1429 94.72 97.2789 94.164 97.5509 93.676C97.8309 93.188 98.2109 92.804 98.6909 92.524C99.1789 92.244 99.7349 92.104 100.359 92.104C100.975 92.104 101.523 92.244 102.003 92.524C102.491 92.804 102.871 93.188 103.143 93.676C103.423 94.164 103.563 94.72 103.563 95.344C103.563 95.976 103.423 96.54 103.143 97.036C102.871 97.532 102.491 97.92 102.003 98.2C101.523 98.48 100.975 98.62 100.359 98.62ZM100.359 97.768C100.799 97.768 101.191 97.664 101.535 97.456C101.879 97.24 102.147 96.952 102.339 96.592C102.531 96.224 102.627 95.808 102.627 95.344C102.627 94.88 102.531 94.468 102.339 94.108C102.147 93.748 101.879 93.468 101.535 93.268C101.191 93.06 100.799 92.956 100.359 92.956C99.9189 92.956 99.5229 93.06 99.1709 93.268C98.8269 93.468 98.5549 93.752 98.3549 94.12C98.1629 94.48 98.0709 94.888 98.0789 95.344C98.0709 95.808 98.1629 96.224 98.3549 96.592C98.5549 96.952 98.8269 97.24 99.1709 97.456C99.5229 97.664 99.9189 97.768 100.359 97.768ZM108.902 98.5L106.73 95.704L106.622 95.572L104.018 92.236H105.158L107.294 94.984L107.414 95.14L110.03 98.5H108.902ZM103.97 98.5L106.526 95.2L107.066 95.848L105.05 98.5H103.97ZM107.474 95.428L106.958 94.792L108.782 92.236H109.874L107.474 95.428ZM116.07 98.092V90.844L116.418 91.108L114.858 92.044L114.582 91.204L116.658 89.98H117.018V98.092H116.07ZM114.834 98.5V97.588H118.278V98.5H114.834ZM122.586 98.56C122.17 98.56 121.782 98.488 121.422 98.344C121.07 98.2 120.762 97.996 120.498 97.732C120.242 97.46 120.042 97.144 119.898 96.784C119.754 96.416 119.682 96.016 119.682 95.584C119.682 95.376 119.71 95.148 119.766 94.9C119.822 94.644 119.906 94.368 120.018 94.072C120.13 93.768 120.266 93.452 120.426 93.124C120.586 92.796 120.77 92.456 120.978 92.104L122.202 90.028H123.114L123.162 90.148L121.806 92.428C121.614 92.748 121.438 93.064 121.278 93.376C121.126 93.688 120.982 94.004 120.846 94.324C120.71 94.636 120.578 94.956 120.45 95.284L120.282 94.42C120.434 94.164 120.598 93.94 120.774 93.748C120.958 93.556 121.154 93.392 121.362 93.256C121.57 93.112 121.79 93.008 122.022 92.944C122.262 92.872 122.506 92.836 122.754 92.836C123.242 92.836 123.682 92.964 124.074 93.22C124.474 93.468 124.794 93.8 125.034 94.216C125.274 94.632 125.394 95.096 125.394 95.608C125.394 96.168 125.27 96.672 125.022 97.12C124.774 97.568 124.434 97.92 124.002 98.176C123.578 98.432 123.106 98.56 122.586 98.56ZM122.55 97.684C122.91 97.684 123.234 97.596 123.522 97.42C123.81 97.244 124.038 97.008 124.206 96.712C124.374 96.408 124.458 96.068 124.458 95.692C124.458 95.34 124.374 95.016 124.206 94.72C124.038 94.416 123.81 94.176 123.522 94C123.234 93.816 122.914 93.724 122.562 93.724C122.186 93.724 121.85 93.812 121.554 93.988C121.266 94.164 121.038 94.4 120.87 94.696C120.702 94.992 120.618 95.32 120.618 95.68C120.618 96.056 120.702 96.396 120.87 96.7C121.038 96.996 121.266 97.236 121.554 97.42C121.85 97.596 122.182 97.684 122.55 97.684ZM131.688 98.5L129.516 92.236L130.476 92.224L132.168 97.324L131.868 97.3L133.704 93.196H134.244L136.092 97.3L135.732 97.324L137.46 92.236H138.408L136.236 98.5H135.708L133.764 94.036L134.124 94.06L132.24 98.5H131.688ZM142.054 98.62C141.43 98.62 140.874 98.484 140.386 98.212C139.906 97.94 139.53 97.56 139.258 97.072C138.986 96.584 138.85 96.024 138.85 95.392C138.85 94.904 138.926 94.464 139.078 94.072C139.23 93.672 139.442 93.324 139.714 93.028C139.994 92.732 140.326 92.504 140.71 92.344C141.094 92.176 141.51 92.092 141.958 92.092C142.382 92.092 142.766 92.168 143.11 92.32C143.462 92.472 143.762 92.684 144.01 92.956C144.266 93.22 144.458 93.536 144.586 93.904C144.714 94.272 144.77 94.676 144.754 95.116L144.742 95.536H139.522L139.39 94.78H144.058L143.842 94.984V94.696C143.826 94.408 143.742 94.132 143.59 93.868C143.438 93.596 143.222 93.376 142.942 93.208C142.67 93.04 142.342 92.956 141.958 92.956C141.51 92.956 141.122 93.048 140.794 93.232C140.466 93.408 140.214 93.672 140.038 94.024C139.862 94.376 139.774 94.812 139.774 95.332C139.774 95.828 139.87 96.26 140.062 96.628C140.254 96.988 140.526 97.268 140.878 97.468C141.238 97.668 141.67 97.768 142.174 97.768C142.47 97.768 142.762 97.72 143.05 97.624C143.346 97.52 143.67 97.32 144.022 97.024L144.49 97.672C144.306 97.856 144.086 98.02 143.83 98.164C143.574 98.3 143.294 98.412 142.99 98.5C142.686 98.58 142.374 98.62 142.054 98.62ZM148.792 98.62C148.168 98.62 147.612 98.484 147.124 98.212C146.644 97.94 146.268 97.56 145.996 97.072C145.724 96.584 145.588 96.024 145.588 95.392C145.588 94.904 145.664 94.464 145.816 94.072C145.968 93.672 146.18 93.324 146.452 93.028C146.732 92.732 147.064 92.504 147.448 92.344C147.832 92.176 148.248 92.092 148.696 92.092C149.12 92.092 149.504 92.168 149.848 92.32C150.2 92.472 150.5 92.684 150.748 92.956C151.004 93.22 151.196 93.536 151.324 93.904C151.452 94.272 151.508 94.676 151.492 95.116L151.48 95.536H146.26L146.128 94.78H150.796L150.58 94.984V94.696C150.564 94.408 150.48 94.132 150.328 93.868C150.176 93.596 149.96 93.376 149.68 93.208C149.408 93.04 149.08 92.956 148.696 92.956C148.248 92.956 147.86 93.048 147.532 93.232C147.204 93.408 146.952 93.672 146.776 94.024C146.6 94.376 146.512 94.812 146.512 95.332C146.512 95.828 146.608 96.26 146.8 96.628C146.992 96.988 147.264 97.268 147.616 97.468C147.976 97.668 148.408 97.768 148.912 97.768C149.208 97.768 149.5 97.72 149.788 97.624C150.084 97.52 150.408 97.32 150.76 97.024L151.228 97.672C151.044 97.856 150.824 98.02 150.568 98.164C150.312 98.3 150.032 98.412 149.728 98.5C149.424 98.58 149.112 98.62 148.792 98.62ZM153.575 96.484L153.539 95.44L156.815 92.236H158.027L153.575 96.484ZM152.771 98.5V89.62H153.671V98.5H152.771ZM157.067 98.5L154.427 95.44L155.063 94.816L158.243 98.5H157.067ZM161.221 98.62C160.685 98.62 160.205 98.52 159.781 98.32C159.357 98.12 159.021 97.856 158.773 97.528L159.409 96.976C159.641 97.256 159.913 97.468 160.225 97.612C160.545 97.756 160.901 97.828 161.293 97.828C161.493 97.828 161.673 97.808 161.833 97.768C161.993 97.72 162.133 97.652 162.253 97.564C162.373 97.476 162.465 97.372 162.529 97.252C162.593 97.132 162.625 97 162.625 96.856C162.625 96.592 162.509 96.372 162.277 96.196C162.173 96.124 162.025 96.052 161.833 95.98C161.641 95.9 161.409 95.824 161.137 95.752C160.689 95.624 160.317 95.496 160.021 95.368C159.725 95.232 159.493 95.076 159.325 94.9C159.205 94.756 159.113 94.6 159.049 94.432C158.993 94.264 158.965 94.08 158.965 93.88C158.965 93.624 159.017 93.388 159.121 93.172C159.233 92.956 159.385 92.768 159.577 92.608C159.777 92.44 160.009 92.316 160.273 92.236C160.545 92.148 160.837 92.104 161.149 92.104C161.445 92.104 161.737 92.144 162.025 92.224C162.313 92.304 162.581 92.42 162.829 92.572C163.077 92.724 163.289 92.904 163.465 93.112L162.913 93.712C162.761 93.552 162.593 93.408 162.409 93.28C162.225 93.152 162.029 93.052 161.821 92.98C161.621 92.908 161.413 92.872 161.197 92.872C161.005 92.872 160.825 92.896 160.657 92.944C160.497 92.992 160.357 93.06 160.237 93.148C160.125 93.228 160.037 93.328 159.973 93.448C159.917 93.568 159.889 93.7 159.889 93.844C159.889 93.964 159.913 94.072 159.961 94.168C160.009 94.264 160.077 94.348 160.165 94.42C160.277 94.508 160.433 94.592 160.633 94.672C160.841 94.744 161.097 94.82 161.401 94.9C161.753 94.996 162.049 95.096 162.289 95.2C162.537 95.296 162.741 95.412 162.901 95.548C163.117 95.708 163.269 95.892 163.357 96.1C163.453 96.308 163.501 96.544 163.501 96.808C163.501 97.16 163.401 97.472 163.201 97.744C163.009 98.016 162.741 98.232 162.397 98.392C162.053 98.544 161.661 98.62 161.221 98.62Z" fill="#FBFDFA"></path></svg>