<svg xmlns="http://www.w3.org/2000/svg" width="234" height="120" viewBox="0 0 234 120" fill="none"><path d="M0 0H205.347L231.942 55.6907C233.244 58.4161 233.244 61.5839 231.942 64.3093L205.347 120H0L26.5951 64.3093C27.8967 61.5839 27.8967 58.4161 26.5951 55.6907L0 0Z" fill="#E7BD41"></path><path d="M113.11 45.8C111.23 45.8 109.62 45.37 108.28 44.51C106.96 43.65 105.95 42.42 105.25 40.82C104.55 39.2 104.2 37.26 104.2 35C104.2 32.74 104.55 30.81 105.25 29.21C105.95 27.59 106.96 26.35 108.28 25.49C109.62 24.63 111.23 24.2 113.11 24.2C114.99 24.2 116.6 24.63 117.94 25.49C119.28 26.35 120.3 27.59 121 29.21C121.7 30.81 122.05 32.74 122.05 35C122.05 37.26 121.7 39.2 121 40.82C120.3 42.42 119.28 43.65 117.94 44.51C116.6 45.37 114.99 45.8 113.11 45.8ZM113.11 41.48C114.41 41.48 115.41 40.92 116.11 39.8C116.83 38.68 117.19 37.08 117.19 35C117.19 32.86 116.83 31.22 116.11 30.08C115.41 28.92 114.41 28.34 113.11 28.34C111.81 28.34 110.8 28.92 110.08 30.08C109.38 31.22 109.03 32.86 109.03 35C109.03 37.08 109.38 38.68 110.08 39.8C110.8 40.92 111.81 41.48 113.11 41.48ZM127.084 45.83C126.264 45.83 125.624 45.6 125.164 45.14C124.724 44.68 124.504 44.02 124.504 43.16C124.504 42.36 124.744 41.71 125.224 41.21C125.704 40.71 126.324 40.46 127.084 40.46C127.904 40.46 128.544 40.7 129.004 41.18C129.464 41.64 129.694 42.3 129.694 43.16C129.694 43.94 129.454 44.58 128.974 45.08C128.494 45.58 127.864 45.83 127.084 45.83Z" fill="#FBFDFA"></path><path d="M69.48 75.5V72.64H71.84V64.36H69.48V61.5H77.62V64.36H75.24V72.64H77.62V75.5H69.48ZM80.5138 75.5V64.88H83.5538L83.6538 67.04L83.0138 67.28C83.1604 66.8 83.4204 66.3667 83.7938 65.98C84.1804 65.58 84.6404 65.26 85.1738 65.02C85.7071 64.78 86.2671 64.66 86.8538 64.66C87.6538 64.66 88.3271 64.8267 88.8738 65.16C89.4204 65.48 89.8338 65.9667 90.1137 66.62C90.3938 67.26 90.5338 68.0467 90.5338 68.98V75.5H87.3138V69.24C87.3138 68.8133 87.2538 68.46 87.1338 68.18C87.0138 67.9 86.8271 67.6933 86.5738 67.56C86.3338 67.4133 86.0338 67.3467 85.6738 67.36C85.3938 67.36 85.1338 67.4067 84.8938 67.5C84.6538 67.58 84.4471 67.7067 84.2738 67.88C84.1004 68.04 83.9604 68.2267 83.8538 68.44C83.7604 68.6533 83.7138 68.8867 83.7138 69.14V75.5H82.1338C81.7604 75.5 81.4404 75.5 81.1738 75.5C80.9071 75.5 80.6871 75.5 80.5138 75.5ZM93.3891 75.5V64.88H96.5891V75.5H93.3891ZM94.9891 62.78C94.3891 62.78 93.9157 62.64 93.5691 62.36C93.2357 62.0667 93.0691 61.6533 93.0691 61.12C93.0691 60.64 93.2424 60.2467 93.5891 59.94C93.9357 59.6333 94.4024 59.48 94.9891 59.48C95.5891 59.48 96.0557 59.6267 96.3891 59.92C96.7224 60.2 96.8891 60.6 96.8891 61.12C96.8891 61.6133 96.7157 62.0133 96.3691 62.32C96.0357 62.6267 95.5757 62.78 94.9891 62.78ZM100.476 75.5V62.2H103.676V75.5H100.476ZM98.5958 67.68V64.88H105.736V67.68H98.5958ZM107.745 75.5V64.88H110.945V75.5H107.745ZM109.345 62.78C108.745 62.78 108.271 62.64 107.925 62.36C107.591 62.0667 107.425 61.6533 107.425 61.12C107.425 60.64 107.598 60.2467 107.945 59.94C108.291 59.6333 108.758 59.48 109.345 59.48C109.945 59.48 110.411 59.6267 110.745 59.92C111.078 60.2 111.245 60.6 111.245 61.12C111.245 61.6133 111.071 62.0133 110.725 62.32C110.391 62.6267 109.931 62.78 109.345 62.78ZM117.871 75.68C116.978 75.68 116.178 75.4467 115.471 74.98C114.778 74.5 114.225 73.8467 113.811 73.02C113.398 72.18 113.191 71.2333 113.191 70.18C113.191 69.1 113.398 68.1467 113.811 67.32C114.225 66.4933 114.791 65.8467 115.511 65.38C116.231 64.9 117.051 64.66 117.971 64.66C118.478 64.66 118.938 64.7333 119.351 64.88C119.778 65.0267 120.151 65.2333 120.471 65.5C120.791 65.7533 121.065 66.0533 121.291 66.4C121.518 66.7333 121.685 67.0933 121.791 67.48L121.131 67.4V64.88H124.311V75.5H121.071V72.94L121.791 72.92C121.685 73.2933 121.511 73.6467 121.271 73.98C121.031 74.3133 120.738 74.6067 120.391 74.86C120.045 75.1133 119.658 75.3133 119.231 75.46C118.805 75.6067 118.351 75.68 117.871 75.68ZM118.751 72.98C119.245 72.98 119.671 72.8667 120.031 72.64C120.391 72.4133 120.671 72.0933 120.871 71.68C121.071 71.2533 121.171 70.7533 121.171 70.18C121.171 69.6067 121.071 69.1133 120.871 68.7C120.671 68.2733 120.391 67.9467 120.031 67.72C119.671 67.48 119.245 67.36 118.751 67.36C118.271 67.36 117.851 67.48 117.491 67.72C117.145 67.9467 116.871 68.2733 116.671 68.7C116.471 69.1133 116.371 69.6067 116.371 70.18C116.371 70.7533 116.471 71.2533 116.671 71.68C116.871 72.0933 117.145 72.4133 117.491 72.64C117.851 72.8667 118.271 72.98 118.751 72.98ZM128.015 75.5V62.2H131.215V75.5H128.015ZM126.135 67.68V64.88H133.275V67.68H126.135ZM135.284 75.5V64.88H138.484V75.5H135.284ZM136.884 62.78C136.284 62.78 135.81 62.64 135.464 62.36C135.13 62.0667 134.964 61.6533 134.964 61.12C134.964 60.64 135.137 60.2467 135.484 59.94C135.83 59.6333 136.297 59.48 136.884 59.48C137.484 59.48 137.95 59.6267 138.284 59.92C138.617 60.2 138.784 60.6 138.784 61.12C138.784 61.6133 138.61 62.0133 138.264 62.32C137.93 62.6267 137.47 62.78 136.884 62.78ZM146.49 75.7C145.384 75.7 144.397 75.46 143.53 74.98C142.677 74.5 141.997 73.8467 141.49 73.02C140.997 72.1933 140.75 71.2467 140.75 70.18C140.75 69.1133 140.997 68.1667 141.49 67.34C141.997 66.5133 142.677 65.86 143.53 65.38C144.397 64.9 145.384 64.66 146.49 64.66C147.597 64.66 148.577 64.9 149.43 65.38C150.297 65.86 150.977 66.5133 151.47 67.34C151.964 68.1667 152.21 69.1133 152.21 70.18C152.21 71.2467 151.964 72.1933 151.47 73.02C150.977 73.8467 150.297 74.5 149.43 74.98C148.577 75.46 147.597 75.7 146.49 75.7ZM146.49 72.94C146.97 72.94 147.397 72.82 147.77 72.58C148.144 72.34 148.437 72.0133 148.65 71.6C148.864 71.1867 148.964 70.7133 148.95 70.18C148.964 69.6467 148.864 69.1733 148.65 68.76C148.437 68.3333 148.144 68 147.77 67.76C147.397 67.52 146.97 67.4 146.49 67.4C146.01 67.4 145.577 67.52 145.19 67.76C144.817 68 144.524 68.3333 144.31 68.76C144.097 69.1733 143.997 69.6467 144.01 70.18C143.997 70.7133 144.097 71.1867 144.31 71.6C144.524 72.0133 144.817 72.34 145.19 72.58C145.577 72.82 146.01 72.94 146.49 72.94ZM154.303 75.5V64.88H157.343L157.443 67.04L156.803 67.28C156.949 66.8 157.209 66.3667 157.583 65.98C157.969 65.58 158.429 65.26 158.963 65.02C159.496 64.78 160.056 64.66 160.643 64.66C161.443 64.66 162.116 64.8267 162.663 65.16C163.209 65.48 163.623 65.9667 163.903 66.62C164.183 67.26 164.323 68.0467 164.323 68.98V75.5H161.103V69.24C161.103 68.8133 161.043 68.46 160.923 68.18C160.803 67.9 160.616 67.6933 160.363 67.56C160.123 67.4133 159.823 67.3467 159.463 67.36C159.183 67.36 158.923 67.4067 158.683 67.5C158.443 67.58 158.236 67.7067 158.063 67.88C157.889 68.04 157.749 68.2267 157.643 68.44C157.549 68.6533 157.503 68.8867 157.503 69.14V75.5H155.923C155.549 75.5 155.229 75.5 154.963 75.5C154.696 75.5 154.476 75.5 154.303 75.5Z" fill="#FBFDFA"></path><path d="M95.616 98.5L95.328 97.804L98.16 94.624C98.296 94.472 98.436 94.3 98.58 94.108C98.732 93.916 98.872 93.716 99 93.508C99.136 93.292 99.244 93.08 99.324 92.872C99.404 92.664 99.444 92.46 99.444 92.26C99.444 91.964 99.38 91.716 99.252 91.516C99.124 91.308 98.94 91.148 98.7 91.036C98.468 90.924 98.196 90.868 97.884 90.868C97.612 90.868 97.344 90.932 97.08 91.06C96.816 91.188 96.576 91.384 96.36 91.648C96.144 91.912 95.976 92.248 95.856 92.656L95.112 92.212C95.256 91.724 95.468 91.316 95.748 90.988C96.028 90.652 96.36 90.4 96.744 90.232C97.128 90.064 97.54 89.98 97.98 89.98C98.444 89.98 98.86 90.076 99.228 90.268C99.596 90.452 99.888 90.716 100.104 91.06C100.32 91.396 100.428 91.784 100.428 92.224C100.428 92.416 100.404 92.608 100.356 92.8C100.316 92.992 100.252 93.184 100.164 93.376C100.076 93.568 99.968 93.764 99.84 93.964C99.72 94.164 99.576 94.368 99.408 94.576C99.248 94.784 99.068 95 98.868 95.224L96.456 97.912L96.312 97.6H100.692V98.5H95.616ZM106.79 98.5L104.618 92.236L105.578 92.224L107.27 97.324L106.97 97.3L108.806 93.196H109.346L111.194 97.3L110.834 97.324L112.562 92.236H113.51L111.338 98.5H110.81L108.866 94.036L109.226 94.06L107.342 98.5H106.79ZM117.156 98.62C116.532 98.62 115.976 98.484 115.488 98.212C115.008 97.94 114.632 97.56 114.36 97.072C114.088 96.584 113.952 96.024 113.952 95.392C113.952 94.904 114.028 94.464 114.18 94.072C114.332 93.672 114.544 93.324 114.816 93.028C115.096 92.732 115.428 92.504 115.812 92.344C116.196 92.176 116.612 92.092 117.06 92.092C117.484 92.092 117.868 92.168 118.212 92.32C118.564 92.472 118.864 92.684 119.112 92.956C119.368 93.22 119.56 93.536 119.688 93.904C119.816 94.272 119.872 94.676 119.856 95.116L119.844 95.536H114.624L114.492 94.78H119.16L118.944 94.984V94.696C118.928 94.408 118.844 94.132 118.692 93.868C118.54 93.596 118.324 93.376 118.044 93.208C117.772 93.04 117.444 92.956 117.06 92.956C116.612 92.956 116.224 93.048 115.896 93.232C115.568 93.408 115.316 93.672 115.14 94.024C114.964 94.376 114.876 94.812 114.876 95.332C114.876 95.828 114.972 96.26 115.164 96.628C115.356 96.988 115.628 97.268 115.98 97.468C116.34 97.668 116.772 97.768 117.276 97.768C117.572 97.768 117.864 97.72 118.152 97.624C118.448 97.52 118.772 97.32 119.124 97.024L119.592 97.672C119.408 97.856 119.188 98.02 118.932 98.164C118.676 98.3 118.396 98.412 118.092 98.5C117.788 98.58 117.476 98.62 117.156 98.62ZM123.894 98.62C123.27 98.62 122.714 98.484 122.226 98.212C121.746 97.94 121.37 97.56 121.098 97.072C120.826 96.584 120.69 96.024 120.69 95.392C120.69 94.904 120.766 94.464 120.918 94.072C121.07 93.672 121.282 93.324 121.554 93.028C121.834 92.732 122.166 92.504 122.55 92.344C122.934 92.176 123.35 92.092 123.798 92.092C124.222 92.092 124.606 92.168 124.95 92.32C125.302 92.472 125.602 92.684 125.85 92.956C126.106 93.22 126.298 93.536 126.426 93.904C126.554 94.272 126.61 94.676 126.594 95.116L126.582 95.536H121.362L121.23 94.78H125.898L125.682 94.984V94.696C125.666 94.408 125.582 94.132 125.43 93.868C125.278 93.596 125.062 93.376 124.782 93.208C124.51 93.04 124.182 92.956 123.798 92.956C123.35 92.956 122.962 93.048 122.634 93.232C122.306 93.408 122.054 93.672 121.878 94.024C121.702 94.376 121.614 94.812 121.614 95.332C121.614 95.828 121.71 96.26 121.902 96.628C122.094 96.988 122.366 97.268 122.718 97.468C123.078 97.668 123.51 97.768 124.014 97.768C124.31 97.768 124.602 97.72 124.89 97.624C125.186 97.52 125.51 97.32 125.862 97.024L126.33 97.672C126.146 97.856 125.926 98.02 125.67 98.164C125.414 98.3 125.134 98.412 124.83 98.5C124.526 98.58 124.214 98.62 123.894 98.62ZM128.676 96.484L128.64 95.44L131.916 92.236H133.128L128.676 96.484ZM127.872 98.5V89.62H128.772V98.5H127.872ZM132.168 98.5L129.528 95.44L130.164 94.816L133.344 98.5H132.168ZM136.323 98.62C135.787 98.62 135.307 98.52 134.883 98.32C134.459 98.12 134.123 97.856 133.875 97.528L134.511 96.976C134.743 97.256 135.015 97.468 135.327 97.612C135.647 97.756 136.003 97.828 136.395 97.828C136.595 97.828 136.775 97.808 136.935 97.768C137.095 97.72 137.235 97.652 137.355 97.564C137.475 97.476 137.567 97.372 137.631 97.252C137.695 97.132 137.727 97 137.727 96.856C137.727 96.592 137.611 96.372 137.379 96.196C137.275 96.124 137.127 96.052 136.935 95.98C136.743 95.9 136.511 95.824 136.239 95.752C135.791 95.624 135.419 95.496 135.123 95.368C134.827 95.232 134.595 95.076 134.427 94.9C134.307 94.756 134.215 94.6 134.151 94.432C134.095 94.264 134.067 94.08 134.067 93.88C134.067 93.624 134.119 93.388 134.223 93.172C134.335 92.956 134.487 92.768 134.679 92.608C134.879 92.44 135.111 92.316 135.375 92.236C135.647 92.148 135.939 92.104 136.251 92.104C136.547 92.104 136.839 92.144 137.127 92.224C137.415 92.304 137.683 92.42 137.931 92.572C138.179 92.724 138.391 92.904 138.567 93.112L138.015 93.712C137.863 93.552 137.695 93.408 137.511 93.28C137.327 93.152 137.131 93.052 136.923 92.98C136.723 92.908 136.515 92.872 136.299 92.872C136.107 92.872 135.927 92.896 135.759 92.944C135.599 92.992 135.459 93.06 135.339 93.148C135.227 93.228 135.139 93.328 135.075 93.448C135.019 93.568 134.991 93.7 134.991 93.844C134.991 93.964 135.015 94.072 135.063 94.168C135.111 94.264 135.179 94.348 135.267 94.42C135.379 94.508 135.535 94.592 135.735 94.672C135.943 94.744 136.199 94.82 136.503 94.9C136.855 94.996 137.151 95.096 137.391 95.2C137.639 95.296 137.843 95.412 138.003 95.548C138.219 95.708 138.371 95.892 138.459 96.1C138.555 96.308 138.603 96.544 138.603 96.808C138.603 97.16 138.503 97.472 138.303 97.744C138.111 98.016 137.843 98.232 137.499 98.392C137.155 98.544 136.763 98.62 136.323 98.62Z" fill="#FBFDFA"></path></svg>